*
*
G04 PADS VX.2 Build Number: 5060570 generated Gerber (RS-274-X) file*
G04 PC Version=2.1*
*
%IN "PCB_ESP32-C3-WROOM-02_V"*%
*
%MOIN*%
*
%FSLAX35Y35*%
*
*
*
*
G04 PC Standard Apertures*
*
*
G04 Thermal Relief Aperture macro.*
%AMTER*
1,1,$1,0,0*
1,0,$1-$2,0,0*
21,0,$3,$4,0,0,45*
21,0,$3,$4,0,0,135*
%
*
*
G04 Annular Aperture macro.*
%AMANN*
1,1,$1,0,0*
1,0,$2,0,0*
%
*
*
G04 Odd Aperture macro.*
%AMODD*
1,1,$1,0,0*
1,0,$1-0.005,0,0*
%
*
*
G04 PC Custom Aperture Macros*
*
*
*
*
*
*
G04 PC Aperture Table*
*
%ADD010C,0.001*%
%ADD027C,0.00394*%
%ADD030C,0.01*%
*
*
*
*
G04 PC Circuitry*
G04 Layer Name PCB_ESP32-C3-WROOM-02_V - circuitry*
%LPD*%
*
*
G04 PC Custom Flashes*
G04 Layer Name PCB_ESP32-C3-WROOM-02_V - flashes*
%LPD*%
*
*
G04 PC Circuitry*
G04 Layer Name PCB_ESP32-C3-WROOM-02_V - circuitry*
%LPD*%
*
G54D10*
G01X100000Y178740D02*
X100003D01*
X170866D02*
X170869D01*
X100000Y100000D02*
X100003D01*
X100000Y178740D02*
X100003D01*
X171336Y100010D02*
X171339D01*
X171846Y103520D02*
X171849D01*
G54D27*
X100000Y178740D02*
X170866D01*
Y100000*
X100000*
Y178740*
G54D30*
X166866Y111354D02*
X174866Y119354D01*
X166866D02*
X174866Y111354D01*
X166866Y105449D02*
X174866Y113449D01*
X166866D02*
X174866Y105449D01*
X96000Y146787D02*
X104000Y154787D01*
X96000D02*
X104000Y146787D01*
X96000Y140882D02*
X104000Y148882D01*
X96000D02*
X104000Y140882D01*
X96000Y134976D02*
X104000Y142976D01*
X96000D02*
X104000Y134976D01*
X96000Y129071D02*
X104000Y137071D01*
X96000D02*
X104000Y129071D01*
X96000Y123165D02*
X104000Y131165D01*
X96000D02*
X104000Y123165D01*
X96000Y117260D02*
X104000Y125260D01*
X96000D02*
X104000Y117260D01*
X96000Y111354D02*
X104000Y119354D01*
X96000D02*
X104000Y111354D01*
X96000Y105449D02*
X104000Y113449D01*
X96000D02*
X104000Y105449D01*
X96000Y99543D02*
X104000Y107543D01*
X96000D02*
X104000Y99543D01*
X166866D02*
X174866Y107543D01*
X166866D02*
X174866Y99543D01*
X166866Y117260D02*
X174866Y125260D01*
X166866D02*
X174866Y117260D01*
X166866Y123165D02*
X174866Y131165D01*
X166866D02*
X174866Y123165D01*
X166866Y129071D02*
X174866Y137071D01*
X166866D02*
X174866Y129071D01*
X166866Y134976D02*
X174866Y142976D01*
X166866D02*
X174866Y134976D01*
X166866Y140882D02*
X174866Y148882D01*
X166866D02*
X174866Y140882D01*
X166866Y146787D02*
X174866Y154787D01*
X166866D02*
X174866Y146787D01*
X101200Y101640D02*
X109200D01*
X105200Y97640D02*
Y105640D01*
X101200D02*
X109200D01*
X105200Y101640D02*
Y109640D01*
X101200Y110390D02*
X109200D01*
X105200Y106390D02*
Y114390D01*
X107010Y106230D02*
X115010D01*
X111010Y102230D02*
Y110230D01*
X112300Y106240D02*
X120300D01*
X116300Y102240D02*
Y110240D01*
X110400Y105240D02*
X118400D01*
X114400Y101240D02*
Y109240D01*
X104700Y103040D02*
X112700D01*
X108700Y99040D02*
Y107040D01*
X108200Y101640D02*
X116200D01*
X112200Y97640D02*
Y105640D01*
X118097Y107041D02*
X126097D01*
X122097Y103041D02*
Y111041D01*
X115200Y101640D02*
X123200D01*
X119200Y97640D02*
Y105640D01*
X122200Y101640D02*
X130200D01*
X126200Y97640D02*
Y105640D01*
X123800Y109380D02*
X131800D01*
X127800Y105380D02*
Y113380D01*
X129100Y108190D02*
X137100D01*
X133100Y104190D02*
Y112190D01*
X132300Y108590D02*
X140300D01*
X136300Y104590D02*
Y112590D01*
X130880Y107040D02*
X138880D01*
X134880Y103040D02*
Y111040D01*
X129200Y101640D02*
X137200D01*
X133200Y97640D02*
Y105640D01*
X143600Y108810D02*
X151600D01*
X147600Y104810D02*
Y112810D01*
X140800Y107240D02*
X148800D01*
X144800Y103240D02*
Y111240D01*
X137850Y108540D02*
X145850D01*
X141850Y104540D02*
Y112540D01*
X137100Y105730D02*
X145100D01*
X141100Y101730D02*
Y109730D01*
X142490Y105680D02*
X150490D01*
X146490Y101680D02*
Y109680D01*
X139600Y103040D02*
X147600D01*
X143600Y99040D02*
Y107040D01*
X136200Y101640D02*
X144200D01*
X140200Y97640D02*
Y105640D01*
X150150Y111340D02*
X158150D01*
X154150Y107340D02*
Y115340D01*
X148440Y105600D02*
X156440D01*
X152440Y101600D02*
Y109600D01*
X150780Y108200D02*
X158780D01*
X154780Y104200D02*
Y112200D01*
X145650Y108390D02*
X153650D01*
X149650Y104390D02*
Y112390D01*
X146600Y103040D02*
X154600D01*
X150600Y99040D02*
Y107040D01*
X153600Y103040D02*
X161600D01*
X157600Y99040D02*
Y107040D01*
X161700Y108200D02*
X169700D01*
X165700Y104200D02*
Y112200D01*
X161700Y103040D02*
X169700D01*
X165700Y99040D02*
Y107040D01*
X157720Y105040D02*
X165720D01*
X161720Y101040D02*
Y109040D01*
X156500Y108200D02*
X164500D01*
X160500Y104200D02*
Y112200D01*
X101200Y114890D02*
X109200D01*
X105200Y110890D02*
Y118890D01*
X103500Y118210D02*
X111500D01*
X107500Y114210D02*
Y122210D01*
X109500Y121240D02*
X117500D01*
X113500Y117240D02*
Y125240D01*
X112500Y117840D02*
X120500D01*
X116500Y113840D02*
Y121840D01*
X113640Y119660D02*
X121640D01*
X117640Y115660D02*
Y123660D01*
X108150Y118240D02*
X116150D01*
X112150Y114240D02*
Y122240D01*
X123250Y119478D02*
X131250D01*
X127250Y115478D02*
Y123478D01*
X119000Y118840D02*
X127000D01*
X123000Y114840D02*
Y122840D01*
X128310Y119040D02*
X136310D01*
X132310Y115040D02*
Y123040D01*
X133035Y121457D02*
X141035D01*
X137035Y117457D02*
Y125457D01*
X124520Y116840D02*
X132520D01*
X128520Y112840D02*
Y120840D01*
X142650Y120730D02*
X150650D01*
X146650Y116730D02*
Y124730D01*
X136200Y114440D02*
X144200D01*
X140200Y110440D02*
Y118440D01*
X137365Y121457D02*
X145365D01*
X141365Y117457D02*
Y125457D01*
X145450Y117890D02*
X153450D01*
X149450Y113890D02*
Y121890D01*
X153580Y118740D02*
X161580D01*
X157580Y114740D02*
Y122740D01*
X154300Y116740D02*
X162300D01*
X158300Y112740D02*
Y120740D01*
X145670Y115820D02*
X153670D01*
X149670Y111820D02*
Y119820D01*
X149000Y119950D02*
X157000D01*
X153000Y115950D02*
Y123950D01*
X151600Y116730D02*
X159600D01*
X155600Y112730D02*
Y120730D01*
X151210Y119010D02*
X159210D01*
X155210Y115010D02*
Y123010D01*
X152000Y112490D02*
X160000D01*
X156000Y108490D02*
Y116490D01*
X156730Y116690D02*
X164730D01*
X160730Y112690D02*
Y120690D01*
X161700Y112490D02*
X169700D01*
X165700Y108490D02*
Y116490D01*
X159610Y117740D02*
X167610D01*
X163610Y113740D02*
Y121740D01*
X160500Y119740D02*
X168500D01*
X164500Y115740D02*
Y123740D01*
X156500Y112490D02*
X164500D01*
X160500Y108490D02*
Y116490D01*
X103840Y131210D02*
X111840D01*
X107840Y127210D02*
Y135210D01*
X108000Y122790D02*
X116000D01*
X112000Y118790D02*
Y126790D01*
X109500Y124340D02*
X117500D01*
X113500Y120340D02*
Y128340D01*
X108000Y128990D02*
X116000D01*
X112000Y124990D02*
Y132990D01*
X108000Y125890D02*
X116000D01*
X112000Y121890D02*
Y129890D01*
X109500Y127440D02*
X117500D01*
X113500Y123440D02*
Y131440D01*
X113900Y130530D02*
X121900D01*
X117900Y126530D02*
Y134530D01*
X109500Y131240D02*
X117500D01*
X113500Y127240D02*
Y135240D01*
X106700Y131240D02*
X114700D01*
X110700Y127240D02*
Y135240D01*
X117310Y130530D02*
X125310D01*
X121310Y126530D02*
Y134530D01*
X127800Y129330D02*
X135800D01*
X131800Y125330D02*
Y133330D01*
X130279Y124213D02*
X138279D01*
X134279Y120213D02*
Y128213D01*
X133035Y128543D02*
X141035D01*
X137035Y124543D02*
Y132543D01*
X133035Y131299D02*
X141035D01*
X137035Y127299D02*
Y135299D01*
X130279Y128543D02*
X138279D01*
X134279Y124543D02*
Y132543D01*
X133035Y124213D02*
X141035D01*
X137035Y120213D02*
Y128213D01*
X142650Y124000D02*
X150650D01*
X146650Y120000D02*
Y128000D01*
X137365Y128543D02*
X145365D01*
X141365Y124543D02*
Y132543D01*
X140121Y128543D02*
X148121D01*
X144121Y124543D02*
Y132543D01*
X140121Y124213D02*
X148121D01*
X144121Y120213D02*
Y128213D01*
X137365Y124213D02*
X145365D01*
X141365Y120213D02*
Y128213D01*
X148770Y124740D02*
X156770D01*
X152770Y120740D02*
Y128740D01*
X148780Y122240D02*
X156780D01*
X152780Y118240D02*
Y126240D01*
X161700Y121840D02*
X169700D01*
X165700Y117840D02*
Y125840D01*
X161700Y124540D02*
X169700D01*
X165700Y120540D02*
Y128540D01*
X161700Y127240D02*
X169700D01*
X165700Y123240D02*
Y131240D01*
X161700Y130340D02*
X169700D01*
X165700Y126340D02*
Y134340D01*
X101200Y132740D02*
X109200D01*
X105200Y128740D02*
Y136740D01*
X101200Y136840D02*
X109200D01*
X105200Y132840D02*
Y140840D01*
X112200Y131740D02*
X120200D01*
X116200Y127740D02*
Y135740D01*
X115600Y131740D02*
X123600D01*
X119600Y127740D02*
Y135740D01*
X124250Y136040D02*
X132250D01*
X128250Y132040D02*
Y140040D01*
X119000Y131740D02*
X127000D01*
X123000Y127740D02*
Y135740D01*
X123500Y138740D02*
X131500D01*
X127500Y134740D02*
Y142740D01*
X123100Y134170D02*
X131100D01*
X127100Y130170D02*
Y138170D01*
X134250Y139690D02*
X142250D01*
X138250Y135690D02*
Y143690D01*
X131000Y139690D02*
X139000D01*
X135000Y135690D02*
Y143690D01*
X126100Y138990D02*
X134100D01*
X130100Y134990D02*
Y142990D01*
X129790Y141460D02*
X137790D01*
X133790Y137460D02*
Y145460D01*
X132456Y141483D02*
X140456D01*
X136456Y137483D02*
Y145483D01*
X129300Y138440D02*
X137300D01*
X133300Y134440D02*
Y142440D01*
X135760Y138190D02*
X143760D01*
X139760Y134190D02*
Y142190D01*
X144738Y138264D02*
X152738D01*
X148738Y134264D02*
Y142264D01*
X154150Y139550D02*
X162150D01*
X158150Y135550D02*
Y143550D01*
X150562Y134036D02*
X158562D01*
X154562Y130036D02*
Y138036D01*
X152500Y135250D02*
X160500D01*
X156500Y131250D02*
Y139250D01*
X148530Y132010D02*
X156530D01*
X152530Y128010D02*
Y136010D01*
X157500Y139550D02*
X165500D01*
X161500Y135550D02*
Y143550D01*
X161700Y139550D02*
X169700D01*
X165700Y135550D02*
Y143550D01*
X161700Y132800D02*
X169700D01*
X165700Y128800D02*
Y136800D01*
X161550Y135440D02*
X169550D01*
X165550Y131440D02*
Y139440D01*
X158550Y135200D02*
X166550D01*
X162550Y131200D02*
Y139200D01*
X103000Y151240D02*
X111000D01*
X107000Y147240D02*
Y155240D01*
X101200Y142490D02*
X109200D01*
X105200Y138490D02*
Y146490D01*
X113000Y143240D02*
X121000D01*
X117000Y139240D02*
Y147240D01*
X114300Y148140D02*
X122300D01*
X118300Y144140D02*
Y152140D01*
X110000Y151240D02*
X118000D01*
X114000Y147240D02*
Y155240D01*
X108100Y143240D02*
X116100D01*
X112100Y139240D02*
Y147240D01*
X108660Y148140D02*
X116660D01*
X112660Y144140D02*
Y152140D01*
X118010Y143240D02*
X126010D01*
X122010Y139240D02*
Y147240D01*
X124400Y148140D02*
X132400D01*
X128400Y144140D02*
Y152140D01*
X123500Y142040D02*
X131500D01*
X127500Y138040D02*
Y146040D01*
X117000Y151240D02*
X125000D01*
X121000Y147240D02*
Y155240D01*
X124000Y151240D02*
X132000D01*
X128000Y147240D02*
Y155240D01*
X120000Y148140D02*
X128000D01*
X124000Y144140D02*
Y152140D01*
X132500Y143790D02*
X140500D01*
X136500Y139790D02*
Y147790D01*
X132145Y148004D02*
X140145D01*
X136145Y144004D02*
Y152004D01*
X129500Y148140D02*
X137500D01*
X133500Y144140D02*
Y152140D01*
X131000Y151240D02*
X139000D01*
X135000Y147240D02*
Y155240D01*
X134843Y148928D02*
X142843D01*
X138843Y144928D02*
Y152928D01*
X139964Y149285D02*
X147964D01*
X143964Y145285D02*
Y153285D01*
X136640Y147090D02*
X144640D01*
X140640Y143090D02*
Y151090D01*
X136200Y151240D02*
X144200D01*
X140200Y147240D02*
Y155240D01*
X137902Y148710D02*
X145902D01*
X141902Y144710D02*
Y152710D01*
X141000Y151100D02*
X149000D01*
X145000Y147100D02*
Y155100D01*
X138540Y145560D02*
X146540D01*
X142540Y141560D02*
Y149560D01*
X134570Y145850D02*
X142570D01*
X138570Y141850D02*
Y149850D01*
X137610Y143780D02*
X145610D01*
X141610Y139780D02*
Y147780D01*
X139470Y143080D02*
X147470D01*
X143470Y139080D02*
Y147080D01*
X150500Y143750D02*
X158500D01*
X154500Y139750D02*
Y147750D01*
X144870Y146630D02*
X152870D01*
X148870Y142630D02*
Y150630D01*
X148710Y145150D02*
X156710D01*
X152710Y141150D02*
Y149150D01*
X146240Y148410D02*
X154240D01*
X150240Y144410D02*
Y152410D01*
X147840Y149930D02*
X155840D01*
X151840Y145930D02*
Y153930D01*
X152500Y151240D02*
X160500D01*
X156500Y147240D02*
Y155240D01*
X150000Y148240D02*
X158000D01*
X154000Y144240D02*
Y152240D01*
X148440Y142700D02*
X156440D01*
X152440Y138700D02*
Y146700D01*
X146278Y142260D02*
X154278D01*
X150278Y138260D02*
Y146260D01*
X152618Y146022D02*
X160618D01*
X156618Y142022D02*
Y150022D01*
X144970Y144300D02*
X152970D01*
X148970Y140300D02*
Y148300D01*
X159490Y148260D02*
X167490D01*
X163490Y144260D02*
Y152260D01*
X157497Y146076D02*
X165497D01*
X161497Y142076D02*
Y150076D01*
X154982Y148258D02*
X162982D01*
X158982Y144258D02*
Y152258D01*
X157000Y151240D02*
X165000D01*
X161000Y147240D02*
Y155240D01*
X161700Y146140D02*
X169700D01*
X165700Y142140D02*
Y150140D01*
X161700Y150340D02*
X169700D01*
X165700Y146340D02*
Y154340D01*
X97700Y154326D02*
X105700D01*
X101700Y150326D02*
Y158326D01*
X101200Y154240D02*
X109200D01*
X105200Y150240D02*
Y158240D01*
X108200Y154240D02*
X116200D01*
X112200Y150240D02*
Y158240D01*
X115200Y154240D02*
X123200D01*
X119200Y150240D02*
Y158240D01*
X122200Y154240D02*
X130200D01*
X126200Y150240D02*
Y158240D01*
X129200Y154240D02*
X137200D01*
X133200Y150240D02*
Y158240D01*
X142480Y152600D02*
X150480D01*
X146480Y148600D02*
Y156600D01*
X143750Y154240D02*
X151750D01*
X147750Y150240D02*
Y158240D01*
X136200Y154240D02*
X144200D01*
X140200Y150240D02*
Y158240D01*
X148980Y151940D02*
X156980D01*
X152980Y147940D02*
Y155940D01*
X149250Y154240D02*
X157250D01*
X153250Y150240D02*
Y158240D01*
X152500Y153540D02*
X160500D01*
X156500Y149540D02*
Y157540D01*
X161700Y154240D02*
X169700D01*
X165700Y150240D02*
Y158240D01*
X157780Y153540D02*
X165780D01*
X161780Y149540D02*
Y157540D01*
X155306Y153540D02*
X163306D01*
X159306Y149540D02*
Y157540D01*
X165200Y154326D02*
X173200D01*
X169200Y150326D02*
Y158326D01*
X280000Y172000D02*
X538000D01*
X280000Y148000D02*
X538000D01*
X280000Y124000D02*
X538000D01*
X280000Y100000D02*
X538000D01*
X280000Y172000D02*
Y100000D01*
X364000Y172000D02*
Y100000D01*
X400000Y172000D02*
Y100000D01*
X436000Y172000D02*
Y100000D01*
X490000Y172000D02*
Y100000D01*
X538000Y172000D02*
Y100000D01*
X315500Y160750D02*
X314955Y161500D01*
X314136Y161875*
X313045*
X312227Y161500*
X311682Y160750*
Y160000*
X311955Y159250*
X312227Y158875*
X312773Y158500*
X314409Y157750*
X314955Y157375*
X315227Y157000*
X315500Y156250*
Y155125*
X314955Y154375*
X314136Y154000*
X313045*
X312227Y154375*
X311682Y155125*
X317955Y161875D02*
Y154000D01*
X324227Y161875D02*
X320409Y154000D01*
Y161875D02*
X324227D01*
X320409Y154000D02*
X324227D01*
X326682Y161875D02*
Y154000D01*
Y161875D02*
X330227D01*
X326682Y158125D02*
X328864D01*
X326682Y154000D02*
X330227D01*
X373864Y161875D02*
X373318Y161500D01*
X372773Y160750*
X372500Y160000*
X372227Y158875*
Y157000*
X372500Y155875*
X372773Y155125*
X373318Y154375*
X373864Y154000*
X374955*
X375500Y154375*
X376045Y155125*
X376318Y155875*
X376591Y157000*
Y158875*
X376318Y160000*
X376045Y160750*
X375500Y161500*
X374955Y161875*
X373864*
X374682Y155500D02*
X376318Y153250D01*
X380955Y161875D02*
Y154000D01*
X379045Y161875D02*
X382864D01*
X385318D02*
X387500Y158125D01*
Y154000*
X389682Y161875D02*
X387500Y158125D01*
X412045Y160750D02*
X411500Y161500D01*
X410682Y161875*
X409591*
X408773Y161500*
X408227Y160750*
Y160000*
X408500Y159250*
X408773Y158875*
X409318Y158500*
X410955Y157750*
X411500Y157375*
X411773Y157000*
X412045Y156250*
Y155125*
X411500Y154375*
X410682Y154000*
X409591*
X408773Y154375*
X408227Y155125*
X414500Y161875D02*
X416682Y158125D01*
Y154000*
X418864Y161875D02*
X416682Y158125D01*
X421318Y161875D02*
Y154000D01*
Y161875D02*
X423500Y154000D01*
X425682Y161875D02*
X423500Y154000D01*
X425682Y161875D02*
Y154000D01*
X447500Y161875D02*
Y154000D01*
Y161875D02*
X449955D01*
X450773Y161500*
X451045Y161125*
X451318Y160375*
Y159250*
X451045Y158500*
X450773Y158125*
X449955Y157750*
X447500*
X453773Y161875D02*
Y154000D01*
X457045*
X461682Y161875D02*
X459500Y154000D01*
X461682Y161875D02*
X463864Y154000D01*
X460318Y156625D02*
X463045D01*
X468227Y161875D02*
Y154000D01*
X466318Y161875D02*
X470136D01*
X472591D02*
Y154000D01*
Y161875D02*
X476136D01*
X472591Y158125D02*
X474773D01*
X472591Y154000D02*
X476136D01*
X478591Y161875D02*
Y154000D01*
Y161875D02*
X480500D01*
X481318Y161500*
X481864Y160750*
X482136Y160000*
X482409Y158875*
Y157000*
X482136Y155875*
X481864Y155125*
X481318Y154375*
X480500Y154000*
X478591*
X506682Y161875D02*
Y154000D01*
X504773Y161875D02*
X508591D01*
X512682D02*
X512136Y161500D01*
X511591Y160750*
X511318Y160000*
X511045Y158875*
Y157000*
X511318Y155875*
X511591Y155125*
X512136Y154375*
X512682Y154000*
X513773*
X514318Y154375*
X514864Y155125*
X515136Y155875*
X515409Y157000*
Y158875*
X515136Y160000*
X514864Y160750*
X514318Y161500*
X513773Y161875*
X512682*
X517864D02*
Y154000D01*
X521136*
X289545Y135250D02*
X289273Y134125D01*
X288727Y133375*
X287909Y133000*
X287636*
X286818Y133375*
X286273Y134125*
X286000Y135250*
Y135625*
X286273Y136750*
X286818Y137500*
X287636Y137875*
X287909*
X288727Y137500*
X289273Y136750*
X289545Y135250*
Y133375*
X289273Y131500*
X288727Y130375*
X287909Y130000*
X287364*
X286545Y130375*
X286273Y131125*
X292273Y130750D02*
X292000Y130375D01*
X292273Y130000*
X292545Y130375*
X292273Y130750*
X296364Y137875D02*
X295545Y137500D01*
X295273Y136750*
Y136000*
X295545Y135250*
X296091Y134875*
X297182Y134500*
X298000Y134125*
X298545Y133375*
X298818Y132625*
Y131500*
X298545Y130750*
X298273Y130375*
X297455Y130000*
X296364*
X295545Y130375*
X295273Y130750*
X295000Y131500*
Y132625*
X295273Y133375*
X295818Y134125*
X296636Y134500*
X297727Y134875*
X298273Y135250*
X298545Y136000*
Y136750*
X298273Y137500*
X297455Y137875*
X296364*
X304000D02*
X301273Y132625D01*
X305364*
X304000Y137875D02*
Y130000D01*
X374000Y136375D02*
X374545Y136750D01*
X375364Y137875*
Y130000*
X381636Y137875D02*
X378909Y130000D01*
X377818Y137875D02*
X381636D01*
X384364Y136000D02*
Y136375D01*
X384636Y137125*
X384909Y137500*
X385455Y137875*
X386545*
X387091Y137500*
X387364Y137125*
X387636Y136375*
Y135625*
X387364Y134875*
X386818Y133750*
X384091Y130000*
X387909*
X412000Y136000D02*
X424000D01*
X418000Y130000D02*
Y142000D01*
X444636Y137875D02*
X446818Y134125D01*
Y130000*
X449000Y137875D02*
X446818Y134125D01*
X451455Y137875D02*
Y130000D01*
Y137875D02*
X455000D01*
X451455Y134125D02*
X453636D01*
X451455Y130000D02*
X455000D01*
X461273Y136750D02*
X460727Y137500D01*
X459909Y137875*
X458818*
X458000Y137500*
X457455Y136750*
Y136000*
X457727Y135250*
X458000Y134875*
X458545Y134500*
X460182Y133750*
X460727Y133375*
X461000Y133000*
X461273Y132250*
Y131125*
X460727Y130375*
X459909Y130000*
X458818*
X458000Y130375*
X457455Y131125*
X497818Y136750D02*
Y130000D01*
X495364Y133375D02*
X500273D01*
X507636Y139375D02*
X502727Y127375D01*
X510091Y133375D02*
X515000D01*
X518000Y137875D02*
X521000D01*
X519364Y134875*
X520182*
X520727Y134500*
X521000Y134125*
X521273Y133000*
Y132250*
X521000Y131125*
X520455Y130375*
X519636Y130000*
X518818*
X518000Y130375*
X517727Y130750*
X517455Y131500*
X524000Y130750D02*
X523727Y130375D01*
X524000Y130000*
X524273Y130375*
X524000Y130750*
X528364Y137875D02*
X527545Y137500D01*
X527000Y136375*
X526727Y134500*
Y133375*
X527000Y131500*
X527545Y130375*
X528364Y130000*
X528909*
X529727Y130375*
X530273Y131500*
X530545Y133375*
Y134500*
X530273Y136375*
X529727Y137500*
X528909Y137875*
X528364*
X286273Y112000D02*
Y112375D01*
X286545Y113125*
X286818Y113500*
X287364Y113875*
X288455*
X289000Y113500*
X289273Y113125*
X289545Y112375*
Y111625*
X289273Y110875*
X288727Y109750*
X286000Y106000*
X289818*
X292273Y112375D02*
X292818Y112750D01*
X293636Y113875*
Y106000*
X296364Y106750D02*
X296091Y106375D01*
X296364Y106000*
X296636Y106375*
X296364Y106750*
X302364Y112750D02*
X302091Y113500D01*
X301273Y113875*
X300727*
X299909Y113500*
X299364Y112375*
X299091Y110500*
Y108625*
X299364Y107125*
X299909Y106375*
X300727Y106000*
X301000*
X301818Y106375*
X302364Y107125*
X302636Y108250*
Y108625*
X302364Y109750*
X301818Y110500*
X301000Y110875*
X300727*
X299909Y110500*
X299364Y109750*
X299091Y108625*
X308636Y113875D02*
X305909D01*
X305636Y110500*
X305909Y110875*
X306727Y111250*
X307545*
X308364Y110875*
X308909Y110125*
X309182Y109000*
X308909Y108250*
X308636Y107125*
X308091Y106375*
X307273Y106000*
X306455*
X305636Y106375*
X305364Y106750*
X305091Y107500*
X377136Y112375D02*
X377682Y112750D01*
X378500Y113875*
Y106000*
X382318Y113875D02*
X381500Y113500D01*
X381227Y112750*
Y112000*
X381500Y111250*
X382045Y110875*
X383136Y110500*
X383955Y110125*
X384500Y109375*
X384773Y108625*
Y107500*
X384500Y106750*
X384227Y106375*
X383409Y106000*
X382318*
X381500Y106375*
X381227Y106750*
X380955Y107500*
Y108625*
X381227Y109375*
X381773Y110125*
X382591Y110500*
X383682Y110875*
X384227Y111250*
X384500Y112000*
Y112750*
X384227Y113500*
X383409Y113875*
X382318*
X412000Y106000D02*
X424000Y118000D01*
X412000D02*
X424000Y106000D01*
X444636Y113875D02*
X446818Y110125D01*
Y106000*
X449000Y113875D02*
X446818Y110125D01*
X451455Y113875D02*
Y106000D01*
Y113875D02*
X455000D01*
X451455Y110125D02*
X453636D01*
X451455Y106000D02*
X455000D01*
X461273Y112750D02*
X460727Y113500D01*
X459909Y113875*
X458818*
X458000Y113500*
X457455Y112750*
Y112000*
X457727Y111250*
X458000Y110875*
X458545Y110500*
X460182Y109750*
X460727Y109375*
X461000Y109000*
X461273Y108250*
Y107125*
X460727Y106375*
X459909Y106000*
X458818*
X458000Y106375*
X457455Y107125*
X497818Y112750D02*
Y106000D01*
X495364Y109375D02*
X500273D01*
X507636Y115375D02*
X502727Y103375D01*
X510091Y109375D02*
X515000D01*
X518000Y113875D02*
X521000D01*
X519364Y110875*
X520182*
X520727Y110500*
X521000Y110125*
X521273Y109000*
Y108250*
X521000Y107125*
X520455Y106375*
X519636Y106000*
X518818*
X518000Y106375*
X517727Y106750*
X517455Y107500*
X524000Y106750D02*
X523727Y106375D01*
X524000Y106000*
X524273Y106375*
X524000Y106750*
X528364Y113875D02*
X527545Y113500D01*
X527000Y112375*
X526727Y110500*
Y109375*
X527000Y107500*
X527545Y106375*
X528364Y106000*
X528909*
X529727Y106375*
X530273Y107500*
X530545Y109375*
Y110500*
X530273Y112375*
X529727Y113500*
X528909Y113875*
X528364*
X0Y0D02*
M02*
