*
*
G04 PADS VX.2 Build Number: 5060570 generated Gerber (RS-274-X) file*
G04 PC Version=2.1*
*
%IN "PCB_ESP32-C3-WROOM-02_V"*%
*
%MOIN*%
*
%FSLAX35Y35*%
*
*
*
*
G04 PC Standard Apertures*
*
*
G04 Thermal Relief Aperture macro.*
%AMTER*
1,1,$1,0,0*
1,0,$1-$2,0,0*
21,0,$3,$4,0,0,45*
21,0,$3,$4,0,0,135*
%
*
*
G04 Annular Aperture macro.*
%AMANN*
1,1,$1,0,0*
1,0,$2,0,0*
%
*
*
G04 Odd Aperture macro.*
%AMODD*
1,1,$1,0,0*
1,0,$1-0.005,0,0*
%
*
*
G04 PC Custom Aperture Macros*
*
*
*
*
*
*
G04 PC Aperture Table*
*
%ADD010C,0.001*%
%ADD011R,0.02X0.02*%
%ADD027C,0.00394*%
%ADD028C,0.015*%
%ADD030C,0.01*%
%ADD031C,0.012*%
%ADD033C,0.02*%
%ADD037C,0.005*%
%ADD101R,0.03543X0.03543*%
%ADD102C,0.01575*%
%ADD108R,0.01969X0.02362*%
%ADD109R,0.03937X0.04331*%
%ADD110R,0.02756X0.01575*%
%ADD141C,0.034*%
%ADD171C,0.0126*%
%ADD177R,0.02756X0.02756*%
%ADD178O,0.024X0.10225*%
%ADD179C,0.00787*%
%ADD193C,0.0063*%
%ADD194R,0.01181X0.01181*%
%ADD195R,0.024X0.10225*%
%ADD196O,0.01102X0.02559*%
%ADD197O,0.02559X0.01102*%
%ADD198C,0.011*%
*
*
*
*
G04 PC Circuitry*
G04 Layer Name PCB_ESP32-C3-WROOM-02_V - circuitry*
%LPD*%
*
*
G04 PC Custom Flashes*
G04 Layer Name PCB_ESP32-C3-WROOM-02_V - flashes*
%LPD*%
*
*
G04 PC Circuitry*
G04 Layer Name PCB_ESP32-C3-WROOM-02_V - circuitry*
%LPD*%
*
G54D10*
G01X141624Y140608D02*
X140860Y139844D01*
X141624Y139080*
X142388Y139844*
X141624Y140608*
X141604Y139100D02*
X141644D01*
X141504Y139200D02*
X141744D01*
X141404Y139300D02*
X141844D01*
X141304Y139400D02*
X141944D01*
X141204Y139500D02*
X142044D01*
X141104Y139600D02*
X142144D01*
X141004Y139700D02*
X142244D01*
X140904Y139800D02*
X142344D01*
X140916Y139900D02*
X142333D01*
X141016Y140000D02*
X142233D01*
X141116Y140100D02*
X142133D01*
X141216Y140200D02*
X142033D01*
X141316Y140300D02*
X141933D01*
X141416Y140400D02*
X141833D01*
X141516Y140500D02*
X141733D01*
X141616Y140600D02*
X141633D01*
X140900Y139804D02*
Y139884D01*
X141000Y139704D02*
Y139984D01*
X141100Y139604D02*
Y140084D01*
X141200Y139504D02*
Y140184D01*
X141300Y139404D02*
Y140284D01*
X141400Y139304D02*
Y140384D01*
X141500Y139204D02*
Y140484D01*
X141600Y139104D02*
Y140584D01*
X141700Y139156D02*
Y140533D01*
X141800Y139256D02*
Y140433D01*
X141900Y139356D02*
Y140333D01*
X142000Y139456D02*
Y140233D01*
X142100Y139556D02*
Y140133D01*
X142200Y139656D02*
Y140033D01*
X142300Y139756D02*
Y139933D01*
X143016Y142000D02*
X142252Y141236D01*
X143016Y140472*
X143780Y141236*
X143016Y142000*
X142987Y140500D02*
X143044D01*
X142887Y140600D02*
X143144D01*
X142787Y140700D02*
X143244D01*
X142687Y140800D02*
X143344D01*
X142587Y140900D02*
X143444D01*
X142487Y141000D02*
X143544D01*
X142387Y141100D02*
X143644D01*
X142287Y141200D02*
X143744D01*
X142316Y141300D02*
X143716D01*
X142416Y141400D02*
X143616D01*
X142516Y141500D02*
X143516D01*
X142616Y141600D02*
X143416D01*
X142716Y141700D02*
X143316D01*
X142816Y141800D02*
X143216D01*
X142916Y141900D02*
X143116D01*
X143016Y142000D02*
X143016D01*
X142300Y141187D02*
Y141284D01*
X142400Y141087D02*
Y141384D01*
X142500Y140987D02*
Y141484D01*
X142600Y140887D02*
Y141584D01*
X142700Y140787D02*
Y141684D01*
X142800Y140687D02*
Y141784D01*
X142900Y140587D02*
Y141884D01*
X143000Y140487D02*
Y141984D01*
X143100Y140556D02*
Y141916D01*
X143200Y140656D02*
Y141816D01*
X143300Y140756D02*
Y141716D01*
X143400Y140856D02*
Y141616D01*
X143500Y140956D02*
Y141516D01*
X143600Y141056D02*
Y141416D01*
X143700Y141156D02*
Y141316D01*
X139778Y142368D02*
X139014Y141603D01*
X139778Y140839*
X140542Y141603*
X139778Y142368*
X139717Y140900D02*
X139839D01*
X139617Y141000D02*
X139939D01*
X139517Y141100D02*
X140039D01*
X139417Y141200D02*
X140139D01*
X139317Y141300D02*
X140239D01*
X139217Y141400D02*
X140339D01*
X139117Y141500D02*
X140439D01*
X139017Y141600D02*
X140539D01*
X139110Y141700D02*
X140446D01*
X139210Y141800D02*
X140346D01*
X139310Y141900D02*
X140246D01*
X139410Y142000D02*
X140146D01*
X139510Y142100D02*
X140046D01*
X139610Y142200D02*
X139946D01*
X139710Y142300D02*
X139846D01*
X139100Y141517D02*
Y141690D01*
X139200Y141417D02*
Y141790D01*
X139300Y141317D02*
Y141890D01*
X139400Y141217D02*
Y141990D01*
X139500Y141117D02*
Y142090D01*
X139600Y141017D02*
Y142190D01*
X139700Y140917D02*
Y142290D01*
X139800Y140861D02*
Y142346D01*
X139900Y140961D02*
Y142246D01*
X140000Y141061D02*
Y142146D01*
X140100Y141161D02*
Y142046D01*
X140200Y141261D02*
Y141946D01*
X140300Y141361D02*
Y141846D01*
X140400Y141461D02*
Y141746D01*
X140500Y141561D02*
Y141646D01*
X138386Y143760D02*
X137622Y142995D01*
X138386Y142231*
X139150Y142995*
X138386Y143760*
X138317Y142300D02*
X138455D01*
X138217Y142400D02*
X138555D01*
X138117Y142500D02*
X138655D01*
X138017Y142600D02*
X138755D01*
X137917Y142700D02*
X138855D01*
X137817Y142800D02*
X138955D01*
X137717Y142900D02*
X139055D01*
X137626Y143000D02*
X139146D01*
X137726Y143100D02*
X139046D01*
X137826Y143200D02*
X138946D01*
X137926Y143300D02*
X138846D01*
X138026Y143400D02*
X138746D01*
X138126Y143500D02*
X138646D01*
X138226Y143600D02*
X138546D01*
X138326Y143700D02*
X138446D01*
X137700Y142917D02*
Y143074D01*
X137800Y142817D02*
Y143174D01*
X137900Y142717D02*
Y143274D01*
X138000Y142617D02*
Y143374D01*
X138100Y142517D02*
Y143474D01*
X138200Y142417D02*
Y143574D01*
X138300Y142317D02*
Y143674D01*
X138400Y142245D02*
Y143746D01*
X138500Y142345D02*
Y143646D01*
X138600Y142445D02*
Y143546D01*
X138700Y142545D02*
Y143446D01*
X138800Y142645D02*
Y143346D01*
X138900Y142745D02*
Y143246D01*
X139000Y142845D02*
Y143146D01*
X139100Y142945D02*
Y143046D01*
G54D11*
X130800Y144098D03*
Y147476D03*
G54D27*
X156503Y128517D02*
X157569Y129583D01*
Y132454*
X154026*
Y128517*
X156503*
X154026D02*
Y132454D01*
X154222Y128517D02*
Y132454D01*
X154419Y128517D02*
Y132454D01*
X154616Y128517D02*
Y132454D01*
X154813Y128517D02*
Y132454D01*
X155010Y128517D02*
Y132454D01*
X155207Y128517D02*
Y132454D01*
X155404Y128517D02*
Y132454D01*
X155600Y128517D02*
Y132454D01*
X155797Y128517D02*
Y132454D01*
X155994Y128517D02*
Y132454D01*
X156191Y128517D02*
Y132454D01*
X156388Y128517D02*
Y132454D01*
X156585Y128599D02*
Y132454D01*
X156782Y128796D02*
Y132454D01*
X156978Y128993D02*
Y132454D01*
X157175Y129189D02*
Y132454D01*
X157372Y129386D02*
Y132454D01*
X100000Y178740D02*
X170866D01*
Y100000*
X100000*
Y178740*
G54D28*
X150440Y135063D02*
X151817Y136440D01*
Y136770*
Y137427*
X152750Y138360*
Y139500*
X150180Y133540D02*
Y134803D01*
X150440Y135063*
X152750Y139500D02*
Y140100D01*
X154500Y141850*
Y143750*
X130100Y143787D02*
Y138990D01*
G54D30*
X129810Y107270D02*
Y109200D01*
X130884Y110274*
Y111240*
X131214*
X132700Y112726*
Y113515*
X134279Y115094*
Y116831*
X125193Y107732D02*
G75*
G03X125270Y107270I362J-177D01*
X124828Y107327I-258J-258*
G01X124597Y111791D02*
Y107943D01*
X125270Y107270*
X129810*
X132475Y118805D02*
G03X132310Y118559I101J-246D01*
X132145Y118805I-266J-0*
G01X132310Y119040D02*
Y116831D01*
X132310*
X130884Y113898D02*
Y114325D01*
X132310Y115751*
Y116831*
X131319Y129331D02*
G03X131565Y129496I-0J266D01*
G01X131564Y129166D02*
G03X131319Y129331I-245J-100D01*
G01X129653D02*
X131799D01*
X131800Y129330*
X148747Y131299D02*
X149569D01*
X150440Y132170*
Y133268*
X142580Y138238D02*
X143489D01*
X144121Y137605*
Y135925*
X142153D02*
Y138238D01*
X142580*
X150440Y135063D02*
Y133268D01*
X148747*
X109159Y145607D02*
G03X109230Y145543I650J650D01*
G01X109211D02*
G03X109159Y145607I-342J-225D01*
G01X109090D02*
X109159D01*
X109510Y145256*
X130800Y144098D02*
Y143787D01*
X130803Y143790*
X134130*
X149516Y155290D02*
X151485D01*
Y174581*
X158073*
Y155290*
X160540*
Y176550*
X141353*
Y165920*
X133436*
Y176550*
X122413*
Y165920*
X114539*
Y176550*
X103909*
Y160309*
X105877*
Y174581*
X112570*
Y163951*
X124381*
Y174581*
X131468*
Y163951*
X143322*
Y174581*
X149516*
Y155290*
X141353Y175989D02*
X160540D01*
X141353Y175089D02*
X160540D01*
X158073Y174189D02*
X160540D01*
X158073Y173289D02*
X160540D01*
X158073Y172389D02*
X160540D01*
X158073Y171489D02*
X160540D01*
X158073Y170589D02*
X160540D01*
X158073Y169689D02*
X160540D01*
X158073Y168789D02*
X160540D01*
X158073Y167889D02*
X160540D01*
X158073Y166989D02*
X160540D01*
X158073Y166089D02*
X160540D01*
X158073Y165189D02*
X160540D01*
X158073Y164289D02*
X160540D01*
X158073Y163389D02*
X160540D01*
X158073Y162489D02*
X160540D01*
X158073Y161589D02*
X160540D01*
X158073Y160689D02*
X160540D01*
X158073Y159789D02*
X160540D01*
X158073Y158889D02*
X160540D01*
X158073Y157989D02*
X160540D01*
X158073Y157089D02*
X160540D01*
X158073Y156189D02*
X160540D01*
X149516Y174189D02*
X151485D01*
X149516Y173289D02*
X151485D01*
X149516Y172389D02*
X151485D01*
X149516Y171489D02*
X151485D01*
X149516Y170589D02*
X151485D01*
X149516Y169689D02*
X151485D01*
X149516Y168789D02*
X151485D01*
X149516Y167889D02*
X151485D01*
X149516Y166989D02*
X151485D01*
X149516Y166089D02*
X151485D01*
X149516Y165189D02*
X151485D01*
X149516Y164289D02*
X151485D01*
X149516Y163389D02*
X151485D01*
X149516Y162489D02*
X151485D01*
X149516Y161589D02*
X151485D01*
X149516Y160689D02*
X151485D01*
X149516Y159789D02*
X151485D01*
X149516Y158889D02*
X151485D01*
X149516Y157989D02*
X151485D01*
X149516Y157089D02*
X151485D01*
X149516Y156189D02*
X151485D01*
X141353Y174189D02*
X143322D01*
X141353Y173289D02*
X143322D01*
X141353Y172389D02*
X143322D01*
X141353Y171489D02*
X143322D01*
X141353Y170589D02*
X143322D01*
X141353Y169689D02*
X143322D01*
X141353Y168789D02*
X143322D01*
X141353Y167889D02*
X143322D01*
X141353Y166989D02*
X143322D01*
X141353Y166089D02*
X143322D01*
X131468Y165189D02*
X143322D01*
X131468Y164289D02*
X143322D01*
X122413Y175989D02*
X133436D01*
X122413Y175089D02*
X133436D01*
X131468Y174189D02*
X133436D01*
X131468Y173289D02*
X133436D01*
X131468Y172389D02*
X133436D01*
X131468Y171489D02*
X133436D01*
X131468Y170589D02*
X133436D01*
X131468Y169689D02*
X133436D01*
X131468Y168789D02*
X133436D01*
X131468Y167889D02*
X133436D01*
X131468Y166989D02*
X133436D01*
X131468Y166089D02*
X133436D01*
X122413Y174189D02*
X124381D01*
X122413Y173289D02*
X124381D01*
X122413Y172389D02*
X124381D01*
X122413Y171489D02*
X124381D01*
X122413Y170589D02*
X124381D01*
X122413Y169689D02*
X124381D01*
X122413Y168789D02*
X124381D01*
X122413Y167889D02*
X124381D01*
X122413Y166989D02*
X124381D01*
X122413Y166089D02*
X124381D01*
X112570Y165189D02*
X124381D01*
X112570Y164289D02*
X124381D01*
X103909Y175989D02*
X114539D01*
X103909Y175089D02*
X114539D01*
X112570Y174189D02*
X114539D01*
X112570Y173289D02*
X114539D01*
X112570Y172389D02*
X114539D01*
X112570Y171489D02*
X114539D01*
X112570Y170589D02*
X114539D01*
X112570Y169689D02*
X114539D01*
X112570Y168789D02*
X114539D01*
X112570Y167889D02*
X114539D01*
X112570Y166989D02*
X114539D01*
X112570Y166089D02*
X114539D01*
X103909Y174189D02*
X105877D01*
X103909Y173289D02*
X105877D01*
X103909Y172389D02*
X105877D01*
X103909Y171489D02*
X105877D01*
X103909Y170589D02*
X105877D01*
X103909Y169689D02*
X105877D01*
X103909Y168789D02*
X105877D01*
X103909Y167889D02*
X105877D01*
X103909Y166989D02*
X105877D01*
X103909Y166089D02*
X105877D01*
X103909Y165189D02*
X105877D01*
X103909Y164289D02*
X105877D01*
X103909Y163389D02*
X105877D01*
X103909Y162489D02*
X105877D01*
X103909Y161589D02*
X105877D01*
X103909Y160689D02*
X105877D01*
G54D31*
X151817Y136770D02*
X151916Y136672D01*
Y136440*
X152686Y138940D02*
Y139436D01*
X152750Y139500*
X136500Y143790D02*
X137591D01*
X138316Y143065*
X139848Y141534D02*
Y141366D01*
X140529Y140684*
G54D33*
X142580Y138633D01*
Y138238*
X100670Y151170D02*
G03X101184Y150270I1908J493D01*
X100477Y150181I-319J-319*
G01X100000Y150787D02*
X100667D01*
X105847Y145607*
X109090*
X128286*
X130103Y143790*
X134130*
X130100Y143787D02*
X130103Y143790D01*
X136500*
X134130D02*
X136500D01*
G54D37*
X144659Y125250D02*
Y127506D01*
X142403*
Y125250*
X144659*
X142450D02*
Y127506D01*
X142700Y125250D02*
Y127506D01*
X142950Y125250D02*
Y127506D01*
X143200Y125250D02*
Y127506D01*
X143450Y125250D02*
Y127506D01*
X143700Y125250D02*
Y127506D01*
X143950Y125250D02*
Y127506D01*
X144200Y125250D02*
Y127506D01*
X144450Y125250D02*
Y127506D01*
X144659Y120919D02*
Y123175D01*
X142403*
Y120919*
X144659*
X142450D02*
Y123175D01*
X142700Y120919D02*
Y123175D01*
X142950Y120919D02*
Y123175D01*
X143200Y120919D02*
Y123175D01*
X143450Y120919D02*
Y123175D01*
X143700Y120919D02*
Y123175D01*
X143950Y120919D02*
Y123175D01*
X144200Y120919D02*
Y123175D01*
X144450Y120919D02*
Y123175D01*
X140328Y120919D02*
Y123175D01*
X138072*
Y120919*
X140328*
X138200D02*
Y123175D01*
X138450Y120919D02*
Y123175D01*
X138700Y120919D02*
Y123175D01*
X138950Y120919D02*
Y123175D01*
X139200Y120919D02*
Y123175D01*
X139450Y120919D02*
Y123175D01*
X139700Y120919D02*
Y123175D01*
X139950Y120919D02*
Y123175D01*
X140200Y120919D02*
Y123175D01*
X135997Y120919D02*
Y123175D01*
X133741*
Y120919*
X135997*
X133950D02*
Y123175D01*
X134200Y120919D02*
Y123175D01*
X134450Y120919D02*
Y123175D01*
X134700Y120919D02*
Y123175D01*
X134950Y120919D02*
Y123175D01*
X135200Y120919D02*
Y123175D01*
X135450Y120919D02*
Y123175D01*
X135700Y120919D02*
Y123175D01*
X135950Y120919D02*
Y123175D01*
X135997Y125250D02*
Y127506D01*
X133741*
Y125250*
X135997*
X133950D02*
Y127506D01*
X134200Y125250D02*
Y127506D01*
X134450Y125250D02*
Y127506D01*
X134700Y125250D02*
Y127506D01*
X134950Y125250D02*
Y127506D01*
X135200Y125250D02*
Y127506D01*
X135450Y125250D02*
Y127506D01*
X135700Y125250D02*
Y127506D01*
X135950Y125250D02*
Y127506D01*
X135997Y129581D02*
Y131837D01*
X133741*
Y129581*
X135997*
X133950D02*
Y131837D01*
X134200Y129581D02*
Y131837D01*
X134450Y129581D02*
Y131837D01*
X134700Y129581D02*
Y131837D01*
X134950Y129581D02*
Y131837D01*
X135200Y129581D02*
Y131837D01*
X135450Y129581D02*
Y131837D01*
X135700Y129581D02*
Y131837D01*
X135950Y129581D02*
Y131837D01*
X140328Y129581D02*
Y131837D01*
X138072*
Y129581*
X140328*
X138200D02*
Y131837D01*
X138450Y129581D02*
Y131837D01*
X138700Y129581D02*
Y131837D01*
X138950Y129581D02*
Y131837D01*
X139200Y129581D02*
Y131837D01*
X139450Y129581D02*
Y131837D01*
X139700Y129581D02*
Y131837D01*
X139950Y129581D02*
Y131837D01*
X140200Y129581D02*
Y131837D01*
X144659Y129581D02*
Y131837D01*
X142403*
Y129581*
X144659*
X142450D02*
Y131837D01*
X142700Y129581D02*
Y131837D01*
X142950Y129581D02*
Y131837D01*
X143200Y129581D02*
Y131837D01*
X143450Y129581D02*
Y131837D01*
X143700Y129581D02*
Y131837D01*
X143950Y129581D02*
Y131837D01*
X144200Y129581D02*
Y131837D01*
X144450Y129581D02*
Y131837D01*
X139794Y110127D02*
G03X139862Y110471I-223J223D01*
G01X140138Y110195D02*
G03X139794Y110127I-122J-290D01*
G01X129810Y107270D02*
X131760Y105320D01*
X137090*
X139000Y107230*
Y109334*
X140197Y110531*
X132923Y108698D02*
G03X133605Y108935I94J825D01*
X133576Y108440I264J-264*
G01X133605Y108935D02*
G03X133379Y108650I1115J-1114D01*
G01X134797Y110127D02*
G03X134865Y110471I-223J223D01*
G01X135141Y110195D02*
G03X134797Y110127I-122J-290D01*
G01X133100Y108190D02*
Y108431D01*
X135200Y110531*
X136300Y109131D02*
G03X136336Y109126I18J-0D01*
G01X136264D02*
G03X136300Y109131I18J5D01*
G01X137297Y110127D02*
G03X137365Y110471I-223J223D01*
G01X137641Y110195D02*
G03X137297Y110127I-122J-290D01*
G01X136300Y108590D02*
Y109131D01*
X137700Y110531*
X147600Y109710D02*
G03X147908Y109251I497J0D01*
G01X147292D02*
G03X147600Y109710I-189J459D01*
G01Y109348*
X147795Y110252D02*
G03X147600Y109960I120J-292D01*
X147405Y110252I-315J0*
G01X147600Y108810D02*
Y110531D01*
X144800Y108140D02*
G03X145108Y107681I497J0D01*
G01X144492D02*
G03X144800Y108140I-189J459D01*
G01Y107778*
Y110181D02*
G03X144821Y110443I-144J143D01*
G01X145063Y110202D02*
G03X144800Y110181I-119J-165D01*
G01Y107240D02*
Y110181D01*
X145150Y110531*
X141850Y109440D02*
G03X142158Y108981I497J0D01*
G01X141542D02*
G03X141850Y109440I-189J459D01*
G01Y109078*
X142247Y110127D02*
G03X142315Y110471I-223J223D01*
G01X142591Y110195D02*
G03X142247Y110127I-122J-290D01*
G01X141850Y108540D02*
Y109731D01*
X142650Y110531*
X113940Y121548D02*
G03X114400Y121240I460J189D01*
X113940Y120932I0J-497*
G01X114400Y121240D02*
X114037D01*
X128597Y121457D02*
G03X128648Y121479I-0J70D01*
G01Y121352D02*
G03X128597Y121457I-51J40D01*
G01X113500Y121240D02*
X128380D01*
X128597Y121457*
X129653*
X116940Y118148D02*
G03X117400Y117840I460J189D01*
X116940Y117532I0J-497*
G01X117400Y117840D02*
X117037D01*
X120000Y115482D02*
G03X118360Y117840I-7381J-3383D01*
X120173Y116459I6020J6020*
G01X120086Y115970D02*
X118360Y117840D01*
X116500*
X118360D02*
X119597Y116603D01*
Y111791*
X116300Y106240D02*
G03X114299Y107188I-2326J-2326D01*
G01X114561Y108999D02*
G03X116300Y106240I6951J2453D01*
X114364Y107640I-5330J-5330*
G01X116300Y106240D02*
X114430Y108093D01*
X114496Y108546D02*
G03X116300Y106240I10349J6239D01*
G01X115664Y106877D02*
G03X116206Y106769I351J351D01*
G01X115771Y106334D02*
G03X115663Y106877I-459J191D01*
G01X115663D02*
X115920Y106620D01*
X114597Y111791D02*
Y107943D01*
X116300Y106240*
X111010Y106230D02*
G03X109243Y107163I-2392J-2392D01*
G01X109457Y108570D02*
G03X111010Y106230I6568J2676D01*
X109314Y107632I-8227J-8226*
G01X109385Y108101D02*
G03X111010Y106230I14098J10602D01*
G01X110374Y106867D02*
G03X110916Y106759I351J351D01*
G01X110481Y106324D02*
G03X110373Y106867I-459J191D01*
G01X110373D02*
X110630Y106610D01*
X109597Y111791D02*
Y107643D01*
X111010Y106230*
X127680Y119801D02*
G03X128150Y119488I470J198D01*
X127700Y119185I0J-485*
G01X128150Y119488D02*
X127787D01*
X128160D02*
G03X128806Y119737I-0J962D01*
G01Y119239D02*
G03X128160Y119488I-646J-712D01*
G01X127250Y119478D02*
X127260Y119488D01*
X129653*
X135200Y113070D02*
G03X135395Y112778I315J-0D01*
G01X135005D02*
G03X135200Y113070I-120J292D01*
G01X136496Y115984D02*
G03X136247Y115338I713J-646D01*
X135998Y115984I-961J-0*
G01X135200Y112499D02*
Y114018D01*
X136247Y115065*
Y116831*
X137700Y113070D02*
G03X137895Y112778I315J-0D01*
G01X137505D02*
G03X137700Y113070I-120J292D01*
G01X138465Y115984D02*
G03X138216Y115338I712J-646D01*
X137967Y115984I-962J-0*
G01X137700Y112499D02*
Y114299D01*
X138216Y114815*
Y116831*
X146744Y121259D02*
G03X147286Y121367I191J459D01*
G01X147287Y121366D02*
G03X147179Y120824I351J-351D01*
G01X147287Y121367D02*
X147030Y121110D01*
X147377Y121457D02*
G03X147878Y121696I-0J644D01*
G01Y121217D02*
G03X147377Y121457I-501J-404D01*
G01X146650Y120730D02*
X147377Y121457D01*
X148747*
X146339Y115984D02*
G03X146090Y115338I712J-646D01*
X145841Y115984I-962J-0*
G01X147600Y113070D02*
G03X147795Y112778I315J-0D01*
G01X147405D02*
G03X147600Y113070I-120J292D01*
G01X146090Y116831D02*
Y115075D01*
X147600Y113565*
Y112499*
X144370Y115984D02*
G03X144121Y115338I713J-646D01*
X143872Y115984I-961J-0*
G01X145150Y113070D02*
G03X145345Y112778I315J-0D01*
G01X144955D02*
G03X145150Y113070I-120J292D01*
G01X144121Y116831D02*
Y114844D01*
X145150Y113815*
Y112499*
X142402Y115984D02*
G03X142153Y115338I712J-646D01*
X141904Y115984I-962J-0*
G01X142650Y113070D02*
G03X142845Y112778I315J-0D01*
G01X142455D02*
G03X142650Y113070I-120J292D01*
G01X142153Y116831D02*
Y114762D01*
X142650Y114265*
Y112499*
X140449Y115989D02*
G03X140200Y115338I726J-651D01*
X139951Y115979I-948J0*
G01X140200Y115340D02*
G03X140508Y114881I497J0D01*
G01X139892D02*
G03X140200Y115340I-189J459D01*
G01Y114978*
X140184Y116831D02*
X140200Y116815D01*
Y114440*
X140197Y113070D02*
G03X140392Y112778I315J-0D01*
G01X140002D02*
G03X140197Y113070I-120J292D01*
G01Y113540D02*
G03X139888Y114003I-501J0D01*
G01X140504Y113997D02*
G03X140197Y113540I186J-457D01*
G01Y113903*
Y112499D02*
Y114437D01*
X140200Y114440*
X149748Y119360D02*
G03X149450Y118724I531J-636D01*
X148111Y119217I-760J-0*
G01X149450Y118724D02*
G03X149339Y119324I-1680J-0D01*
G01X149450Y118724D02*
G03X148930Y119289I-567J-0D01*
G01X149450Y118724D02*
G03X148520Y119253I-615J-0D01*
G01X149450Y118790D02*
G03X149758Y118331I497J0D01*
G01X149142D02*
G03X149450Y118790I-189J459D01*
G01Y118428*
X148747Y119488D02*
X149450D01*
Y117890*
X151945Y115002D02*
G03X151750Y114710I120J-292D01*
X151555Y115002I-315J0*
G01X153514Y111977D02*
G03X154056Y111869I351J351D01*
G01X153621Y111434D02*
G03X153513Y111977I-459J191D01*
G01X153513D02*
X153770Y111720D01*
X151750Y115281D02*
Y113740D01*
X154150Y111340*
X161498Y119044D02*
G03X161703Y119282I-36J238D01*
X161908Y118873I509J0*
G01X162092Y121484D02*
G03X161703Y120622I760J-862D01*
X161314Y121484I-1149J0*
G01X161703Y120622D02*
Y121484D01*
X161604Y118720D02*
X161703Y118819D01*
Y123399*
X112440Y123098D02*
G03X112900Y122790I460J189D01*
X112440Y122482I0J-497*
G01X112900Y122790D02*
X112537D01*
X129037Y123503D02*
G03X128296Y123077I422J-1589D01*
X128681Y123603I-1502J1502*
G01X112000Y122790D02*
X128010D01*
X128645Y123425*
X129653*
X113940Y124648D02*
G03X114400Y124340I460J189D01*
X113940Y124032I0J-497*
G01X114400Y124340D02*
X114037D01*
X129058Y125462D02*
G03X128298Y125028I413J-1607D01*
X128678Y125567I-1370J1370*
G01X113500Y124340D02*
X127610D01*
X128664Y125394*
X129653*
X112440Y129298D02*
G03X112900Y128990I460J189D01*
X112440Y128682I0J-497*
G01X112900Y128990D02*
X112537D01*
X129436Y133177D02*
G03X128455Y132675I287J-1771D01*
X128644Y133343I-504J503*
G01X128455Y132675D02*
X129040Y133260D01*
X112000Y128990D02*
X124770D01*
X129048Y133268*
X129653*
X112440Y126198D02*
G03X112900Y125890I460J189D01*
X112440Y125582I0J-497*
G01X112900Y125890D02*
X112537D01*
X129034Y127442D02*
G03X128296Y127016I423J-1586D01*
X128682Y127541I-1527J1527*
G01X112000Y125890D02*
X127170D01*
X128642Y127362*
X129653*
X113940Y127748D02*
G03X114400Y127440I460J189D01*
X113940Y127132I0J-497*
G01X114400Y127440D02*
X114037D01*
X129172Y131317D02*
G03X128321Y130851I371J-1688D01*
X128663Y131449I-928J928*
G01X128918Y131383D02*
G03X128321Y130851I4328J-5458D01*
G01X113500Y127440D02*
X124910D01*
X128769Y131299*
X129653*
X147122Y124257D02*
G03X147400Y124000I278J22D01*
X147122Y123743I0J-279*
G01X147400Y124000D02*
X147187D01*
X147457Y123943D02*
G03X148378Y123454I1258J1257D01*
G01X147744Y123302D02*
G03X147457Y123943I-982J-55D01*
G01X148061Y123378*
X146650Y124000D02*
X147400D01*
X147975Y123425*
X148747*
X158711Y134891D02*
G03X158516Y134600I120J-291D01*
X158321Y134891I-315J-0*
G01X155901Y130589D02*
X158516Y133204D01*
Y135170*
X155797Y130486D02*
X155901Y130589D01*
X149740Y129375D02*
G03X149819Y129331I79J50D01*
X149740Y129205I0J-89*
G01X151461Y128290D02*
G03X151703Y128280I127J127D01*
G01X151472Y128048D02*
G03X151461Y128290I-137J115D01*
G01X148747Y129331D02*
X149819D01*
X150860Y128290*
X151461*
X151798Y127953*
X149721Y127536D02*
G03X150102Y126998I1761J842D01*
X148181Y127109I-1023J-1023*
G01X150102Y126998D02*
G03X149336Y127429I-1154J-1154D01*
G01X150102Y126998D02*
G03X148951Y127322I-865J-865D01*
G01X150102Y126998D02*
G03X148566Y127216I-913J-913D01*
G01X159375Y125727D02*
G03X159984Y125298I1538J1538D01*
G01Y124937D02*
G03X159375Y125727I-3366J-1966D01*
G01X148747Y127362D02*
X149738D01*
X150610Y126490*
X158612*
X161703Y123399*
X149726Y125467D02*
G03X149837Y125394I111J47D01*
X149726Y125251I0J-115*
G01X151347Y117653D02*
G03X151691Y117585I222J222D01*
G01X151415Y117309D02*
G03X151347Y117653I-291J121D01*
G01X148747Y125394D02*
X149837D01*
X151199Y124032*
Y117800*
X151750Y117249*
X152078Y130116D02*
G03X152369Y129921I291J120D01*
X152078Y129726I-0J-315*
G01X151798Y129921D02*
X155233D01*
X155901Y130589*
X116200Y131740D02*
G03X114082Y133105I-4213J-4213D01*
G01X114328Y134563D02*
G03X116200Y131740I7903J3208D01*
X114164Y133591I-20455J-20454*
G01X114246Y134077D02*
G03X116200Y131740I14064J9773D01*
G01X115564Y132377D02*
G03X116106Y132269I351J351D01*
G01X115671Y131834D02*
G03X115563Y132377I-459J191D01*
G01X115563D02*
X115820Y132120D01*
X114597Y137816D02*
Y133343D01*
X116200Y131740*
X128690Y136348D02*
G03X129150Y136040I460J189D01*
X128690Y135732I0J-497*
G01X129150Y136040D02*
X128787D01*
X134527Y135075D02*
G03X134279Y134454I654J-621D01*
X134031Y135075I-903J-0*
G01X128250Y136040D02*
X129515D01*
X131690Y133865*
X133690*
X134279Y134454*
Y135925*
X123094Y132269D02*
G03X123636Y132377I191J459D01*
G01X123637D02*
G03X123529Y131834I351J-352D01*
G01X123637Y132377D02*
X123380Y132120D01*
X125357Y132953D02*
G03X123000Y131740I714J-4284D01*
X123647Y132953I-1670J1670*
G01X124929D02*
G03X123000Y131740I1696J-4838D01*
G01X124502Y132953D02*
G03X123000Y131740I4947J-7662D01*
X124074Y132953I-9480J9480*
G01X123000Y131740D02*
X124597Y133337D01*
Y137816*
X120356Y133465D02*
G03X119597Y131843I1354J-1622D01*
X118838Y133465I-2113J0*
G01X119850D02*
G03X119597Y131843I5075J-1622D01*
X119344Y133465I-5328J0*
G01X119597Y132640D02*
G03X119904Y132184I493J0D01*
G01X119288Y132178D02*
G03X119597Y132640I-192J462D01*
G01Y132278*
Y137816D02*
Y131843D01*
X119600Y131740*
X135308Y139250D02*
G03X135000Y138790I189J-460D01*
X134692Y139250I-497J0*
G01X135000Y138790D02*
Y139153D01*
X136247Y136987D02*
G03X136276Y136926I79J-0D01*
G01X136134D02*
G03X136247Y136987I40J61D01*
G01X135000Y139690D02*
Y138234D01*
X136247Y136987*
Y135925*
X132310Y137418D02*
G03X132559Y136772I962J0D01*
G01X132061D02*
G03X132310Y137418I-712J646D01*
G01X132663Y137804D02*
G03X132771Y138346I-351J351D01*
G01X133206Y137911D02*
G03X132664Y137804I-191J-459D01*
G01X132663D02*
X132920Y138060D01*
X132310Y135925D02*
Y137450D01*
X133300Y138440*
X138216Y137418D02*
G03X138465Y136772I961J0D01*
G01X137967D02*
G03X138216Y137418I-713J646D01*
G01Y138791D02*
G03X137888Y139293I-549J-0D01*
G01X138510Y139220D02*
G03X138216Y138791I166J-429D01*
G01Y139154*
Y135925D02*
Y139656D01*
X138250Y139690*
X140233Y137936D02*
G03X140184Y137766I23J-99D01*
X140015Y137717I-71J-71*
G01X140184Y137418D02*
G03X140433Y136772I962J0D01*
G01X139935D02*
G03X140184Y137418I-712J646D01*
G01X139760Y138190D02*
X140184Y137766D01*
Y135925*
X155750Y154868D02*
Y152690D01*
X162750*
Y154868*
X155750*
X140279Y139873D02*
X138923Y141229D01*
X139984Y142291*
X141340Y140934*
X140279Y139873*
X138020Y142132D02*
X137112Y143040D01*
X135743*
Y144540*
X137735*
X139081Y143194*
X138020Y142132*
X139380Y140771D02*
X141178D01*
X138930Y141221D02*
X141053D01*
X139830Y140321D02*
X140728D01*
X139365Y141671D02*
X140603D01*
X139815Y142121D02*
X140153D01*
X137121Y143031D02*
X138918D01*
X135743Y143481D02*
X138795D01*
X137571Y142581D02*
X138468D01*
X135743Y143931D02*
X138345D01*
X135743Y144381D02*
X137895D01*
X169816Y154793D02*
G03X169741Y154868I-75J0D01*
G01X169369*
X169366*
X161768*
G03X161698Y154821I-0J-75*
G01X160540Y154040D02*
G03X161698Y154821I-0J1250D01*
G01X160540Y154040D02*
X158073D01*
X156914Y154821D02*
G03X158073Y154040I1159J469D01*
G01X156914Y154821D02*
G03X156844Y154868I-70J-28D01*
G01X152789*
G03X152716Y154807I0J-75*
G01X152605Y154425D02*
G03X152716Y154807I-2105J815D01*
G01X152605Y154425D02*
G03X152600Y154398I70J-27D01*
G01Y153858*
X149622Y148862D02*
G03X152600Y153858I-2702J4996D01*
G01X149622Y148862D02*
X149621D01*
G03X148190Y146477I1300J-2402*
G01Y146475*
Y144350*
X148152Y143952D02*
G03X148190Y144350I-2062J398D01*
G01X148152Y143952D02*
G03X148151Y143938I74J-14D01*
G01Y143664*
X148102Y143289D02*
G03X148151Y143664I-1421J375D01*
G01X148102Y143289D02*
G03X148100Y143270I73J-19D01*
G01X148100*
G03X148102Y143251I75J-0*
G01X148151Y142876D02*
G03X148102Y143251I-1470J0D01*
G01X148151Y142876D02*
Y142642D01*
G03X148152Y142628I75J0*
G01X148190Y142230D02*
G03X148152Y142628I-2100J-0D01*
G01X148190Y142230D02*
Y142110D01*
G03X148318Y142057I75J-0*
G01X149688Y143427*
X149865Y143500D02*
G03X149688Y143427I0J-250D01*
G01X149865Y143500D02*
X150680D01*
X150857Y143427D02*
G03X150680Y143500I-177J-177D01*
G01X150857Y143427D02*
X151451Y142833D01*
X151524Y142656D02*
G03X151451Y142833I-250J-0D01*
G01X151524Y142656D02*
Y141849D01*
X151451Y141672D02*
G03X151524Y141849I-177J177D01*
G01X151451Y141672D02*
X148852Y139073D01*
X148675Y139000D02*
G03X148852Y139073I-0J250D01*
G01X148675Y139000D02*
X148265D01*
G03X148190Y138925I0J-75*
G01Y135925*
X148114Y135364D02*
G03X148190Y135925I-2024J561D01*
G01X148114Y135364D02*
G03X148111Y135344I72J-20D01*
G01Y135197*
X148039Y134664D02*
G03X148111Y135197I-1949J533D01*
G01X148039Y134664D02*
G03X148037Y134644I73J-20D01*
X148112Y134569I75J-0*
G01X148605*
G03X148680Y134644I-0J75*
G01Y134803*
X149119Y135864D02*
G03X148680Y134803I1061J-1061D01*
G01X149119Y135864D02*
X150295Y137040D01*
G03X150317Y137093I-53J53*
G01Y137427*
X150757Y138488D02*
G03X150317Y137427I1060J-1061D01*
G01X150757Y138488D02*
X151228Y138959D01*
G03X151250Y139012I-53J53*
G01Y140100*
X151689Y141161D02*
G03X151250Y140100I1061J-1061D01*
G01X151689Y141161D02*
X152978Y142449D01*
G03X153000Y142502I-53J53*
G01Y143405*
G03X152998Y143421I-75J-0*
G01X152963Y143750D02*
G03X152998Y143421I1537J-0D01*
G01X156037Y143750D02*
G03X152963I-1537J0D01*
G01X156002Y143421D02*
G03X156037Y143750I-1502J329D01*
G01X156002Y143421D02*
G03X156000Y143405I73J-16D01*
G01Y141850*
X155561Y140789D02*
G03X156000Y141850I-1061J1061D01*
G01X155561Y140789D02*
X154272Y139501D01*
G03X154250Y139448I53J-53*
G01Y138360*
X153811Y137299D02*
G03X154250Y138360I-1061J1061D01*
G01X153811Y137299D02*
X153339Y136828D01*
G03X153317Y136775I53J-53*
G01Y136440*
X153259Y136027D02*
G03X153317Y136440I-1442J413D01*
G01X153259Y136027D02*
G03X153256Y136006I72J-21D01*
G01Y135849*
X152628Y135109D02*
G03X153256Y135849I-122J740D01*
G01X152628Y135109D02*
G03X152587Y135088I12J-74D01*
G01X151712Y134213*
G03X151690Y134160I53J-53*
G01Y132170*
X151412Y131384D02*
G03X151690Y132170I-972J786D01*
G01X151412Y131384D02*
G03X151395Y131337I58J-47D01*
X151470Y131262I75J-0*
G01X152389*
X152948Y131012D02*
G03X152389Y131262I-559J-500D01*
G01X152948Y131012D02*
G03X153079Y131062I56J50D01*
G01Y132651*
X153829Y133401D02*
G03X153079Y132651I-0J-750D01*
G01X153829Y133401D02*
X157267D01*
G03X157320Y133423I0J75*
G01X157494Y133597*
G03X157516Y133650I-53J53*
G01Y133912*
G03X157485Y133973I-75J-0*
G01X157175Y134580D02*
G03X157485Y133973I750J-0D01*
G01X157175Y134580D02*
Y135761D01*
X157925Y136511D02*
G03X157175Y135761I0J-750D01*
G01X157925Y136511D02*
X159106D01*
X159856Y135761D02*
G03X159106Y136511I-750J-0D01*
G01X159856Y135761D02*
Y134580D01*
X159547Y133973D02*
G03X159856Y134580I-441J607D01*
G01X159547Y133973D02*
G03X159516Y133912I44J-61D01*
G01Y133204*
X159223Y132497D02*
G03X159516Y133204I-707J707D01*
G01X159223Y132497D02*
X158538Y131812D01*
G03X158516Y131759I53J-53*
G01Y129502*
X158511Y129413D02*
G03X158516Y129502I-745J89D01*
G01X158511Y129413D02*
G03X158510Y129404I74J-9D01*
G01Y127565*
G03X158585Y127490I75J0*
G01X158612*
X159319Y127197D02*
G03X158612Y127490I-707J-707D01*
G01X159319Y127197D02*
X160083Y126433D01*
G03X160202Y126330I830J832*
X160247Y126315I45J60*
G01X163671*
X164421Y125565D02*
G03X163671Y126315I-750J-0D01*
G01X164421Y125565D02*
Y121234D01*
X163671Y120484D02*
G03X164421Y121234I0J750D01*
G01X163671Y120484D02*
X163115D01*
G03X163040Y120409I0J-75*
G01Y119510*
X162967Y119333D02*
G03X163040Y119510I-177J177D01*
G01X162967Y119333D02*
G03X162945Y119280I53J-53D01*
G01Y118130*
X162195Y117380D02*
G03X162945Y118130I-0J750D01*
G01X162195Y117380D02*
X161014D01*
X160264Y118130D02*
G03X161014Y117380I750J-0D01*
G01X160264Y118130D02*
Y119311D01*
X160351Y119662D02*
G03X160264Y119311I663J-351D01*
G01X160351Y119662D02*
G03X160360Y119698I-66J36D01*
G01Y120409*
G03X160285Y120484I-75J-0*
G01X159734*
X158984Y121234D02*
G03X159734Y120484I750J-0D01*
G01X158984Y121234D02*
Y124621D01*
G03X158970Y124665I-75J-0*
X158668Y125020I-2352J-1694*
G01X158220Y125468*
G03X158167Y125490I-53J-53*
G01X151336*
G03X151261Y125415I0J-75*
X151283Y125362I75J0*
G01X151906Y124739*
X152199Y124032D02*
G03X151906Y124739I-1000J-0D01*
G01X152199Y124032D02*
Y118665D01*
G03X152274Y118590I75J-0*
G01X152341*
X153091Y117840D02*
G03X152341Y118590I-750J-0D01*
G01X153091Y117840D02*
Y116659D01*
X153000Y116301D02*
G03X153091Y116659I-659J358D01*
G01X153000Y116301D02*
G03X152991Y116265I66J-36D01*
G01X152991*
G03X153000Y116229I75J-0*
G01X153091Y115871D02*
G03X153000Y116229I-750J0D01*
G01X153091Y115871D02*
Y114690D01*
X152862Y114151D02*
G03X153091Y114690I-521J539D01*
G01X152862Y114151D02*
G03X152839Y114097I52J-54D01*
X152861Y114044I75J-0*
G01X154007Y112897*
G03X154065Y112875I53J53*
G01X155687Y111340D02*
G03X154065Y112875I-1537J0D01*
G01X152613Y111340D02*
G03X155687I1537J0D01*
G01X152615Y111426D02*
G03X152613Y111340I1535J-86D01*
G01X152615Y111426D02*
G03Y111430I-75J4D01*
G01X152615*
G03X152593Y111483I-75J-0*
G01X151043Y113033*
X150750Y113740D02*
G03X151043Y113033I1000J0D01*
G01X150750Y113740D02*
Y114022D01*
G03X150719Y114083I-75J0*
G01X150409Y114690D02*
G03X150719Y114083I750J0D01*
G01X150409Y114690D02*
Y115871D01*
X150500Y116229D02*
G03X150409Y115871I659J-358D01*
G01X150500Y116229D02*
G03X150509Y116265I-66J36D01*
G01X150509*
G03X150500Y116301I-75J-0*
G01X150416Y116557D02*
G03X150500Y116301I743J102D01*
G01X150416Y116557D02*
G03X150301Y116609I-74J-10D01*
G01X147913Y117890D02*
G03X150301Y116609I1537J0D01*
G01X147913Y117890D02*
X147913D01*
X147929Y118111D02*
G03X147913Y117890I1521J-221D01*
G01X147929Y118111D02*
G03Y118122I-75J11D01*
X147863Y118196I-75J-0*
G01X147503Y118294D02*
G03X147863Y118196I516J1194D01*
G01X147503Y118294D02*
G03X147473Y118300I-30J-69D01*
G01X147294*
G03X147219Y118225I0J-75*
X147228Y118189I75J-0*
G01X147391Y117559D02*
G03X147228Y118189I-1301J0D01*
G01X147391Y117559D02*
Y116102D01*
X147213Y115445D02*
G03X147391Y116102I-1123J657D01*
G01X147213Y115445D02*
G03X147203Y115408I65J-37D01*
X147225Y115355I75J-0*
G01X148307Y114272*
X148581Y113757D02*
G03X148307Y114272I-981J-192D01*
G01X148581Y113757D02*
G03X148613Y113710I74J15D01*
G01X148941Y113090D02*
G03X148613Y113710I-750J-0D01*
G01X148941Y113090D02*
Y111909D01*
X148850Y111551D02*
G03X148941Y111909I-659J358D01*
G01X148850Y111551D02*
G03X148841Y111515I66J-36D01*
G01X148841*
G03X148850Y111479I75J-0*
G01X148941Y111121D02*
G03X148850Y111479I-750J0D01*
G01X148941Y111121D02*
Y109940D01*
X148897Y109689D02*
G03X148941Y109940I-706J251D01*
G01X148897Y109689D02*
G03X148893Y109664I71J-25D01*
X148904Y109624I75J-0*
G01X149137Y108810D02*
G03X148904Y109624I-1537J0D01*
G01X146337Y107934D02*
G03X149137Y108810I1263J876D01*
G01X146337Y107934D02*
G03X146200Y107891I-62J-43D01*
X146207Y107861I75J-0*
G01X146337Y107240D02*
G03X146207Y107861I-1537J0D01*
G01X143263Y107240D02*
G03X146337I1537J0D01*
G01X143377Y107823D02*
G03X143263Y107240I1423J-583D01*
G01X143377Y107823D02*
G03X143383Y107852I-69J29D01*
X143382Y107865I-75J-0*
X143410Y107897I-40J64*
G01X143775Y108386D02*
G03X143410Y107897I1025J-1146D01*
G01X143775Y108386D02*
G03X143800Y108442I-50J56D01*
G01Y109272*
G03X143681Y109333I-75J0*
G01X143343Y109197D02*
G03X143681Y109333I-102J743D01*
G01X143343Y109197D02*
G03X143278Y109123I10J-74D01*
X143284Y109096I75J-0*
G01X143387Y108540D02*
G03X143284Y109096I-1537J0D01*
G01X143273Y107957D02*
G03X143387Y108540I-1423J583D01*
G01X143273Y107957D02*
G03X143267Y107929I69J-28D01*
X143268Y107915I75J-0*
X143240Y107884I40J-63*
G01X140313Y108540D02*
G03X143240Y107884I1537J0D01*
G01X140313Y108540D02*
X140313D01*
X140414Y109088D02*
G03X140313Y108540I1436J-548D01*
G01X140414Y109088D02*
G03X140419Y109115I-70J27D01*
X140344Y109190I-75J0*
G01X140302*
G03X140249Y109168I-0J-75*
G01X140022Y108941*
G03X140000Y108888I53J-53*
G01Y107230*
X139707Y106523D02*
G03X140000Y107230I-707J707D01*
G01X139707Y106523D02*
X137797Y104613D01*
X137090Y104320D02*
G03X137797Y104613I-0J1000D01*
G01X137090Y104320D02*
X131760D01*
X131053Y104613D02*
G03X131760Y104320I707J707D01*
G01X131053Y104613D02*
X129668Y105998D01*
G03X129615Y106020I-53J-53*
G01X125271*
X125210Y106022D02*
G03X125271Y106020I60J1248D01*
G01X125210Y106022D02*
G03X125183Y106018I-4J-75D01*
G01X122647Y107878D02*
G03X125183Y106018I1950J-0D01*
G01X122647Y107878D02*
Y115703D01*
X126547D02*
G03X122647I-1950J0D01*
G01X126547D02*
Y108595D01*
G03X126622Y108520I75J0*
G01X128485*
G03X128560Y108595I-0J75*
G01Y109200*
X128926Y110084D02*
G03X128560Y109200I884J-884D01*
G01X128926Y110084D02*
X129522Y110680D01*
G03X129544Y110733I-53J53*
G01Y111831*
X129959Y112502D02*
G03X129544Y111831I335J-671D01*
G01X129959Y112502D02*
G03X130000Y112569I-34J67D01*
X129959Y112636I-75J-0*
G01X129544Y113307D02*
G03X129959Y112636I750J0D01*
G01X129544Y113307D02*
Y114488D01*
X129937Y115148D02*
G03X129544Y114488I357J-660D01*
G01X129937Y115148D02*
G03X129957Y115164I-35J66D01*
G01X130000Y115209D02*
G03X129957Y115164I884J-884D01*
G01X130000Y115209D02*
X130987Y116196D01*
G03X131009Y116249I-53J53*
G01Y117559*
X131057Y117910D02*
G03X131009Y117559I1253J-351D01*
G01X131057Y117910D02*
G03X131060Y117930I-72J20D01*
G01Y118121*
G03X131047Y118164I-75J0*
G01X130985Y118260D02*
G03X131047Y118164I1325J780D01*
G01X130985Y118260D02*
G03X130891Y118291I-64J-38D01*
G01X130381Y118187D02*
G03X130891Y118291I0J1301D01*
G01X130381Y118187D02*
X128924D01*
X128339Y118326D02*
G03X128924Y118187I585J1162D01*
G01X128339Y118326D02*
G03X128256Y118316I-33J-67D01*
G01X125713Y119478D02*
G03X128256Y118316I1537J-0D01*
G01X125859Y120133D02*
G03X125713Y119478I1391J-655D01*
G01X125859Y120133D02*
G03X125866Y120165I-68J32D01*
X125791Y120240I-75J0*
G01X114702*
G03X114646Y120215I-0J-75*
G01X111964Y121184D02*
G03X114646Y120215I1536J56D01*
G01X111964Y121184D02*
G03X111894Y121256I-75J-2D01*
G01X110463Y122790D02*
G03X111894Y121256I1537J0D01*
G01X111576Y124268D02*
G03X110463Y122790I424J-1478D01*
G01X111576Y124268D02*
G03X111631Y124340I-20J72D01*
X111576Y124412I-75J0*
G01X110463Y125890D02*
G03X111576Y124412I1537J0D01*
G01Y127368D02*
G03X110463Y125890I424J-1478D01*
G01X111576Y127368D02*
G03X111631Y127440I-20J72D01*
X111576Y127512I-75J0*
G01X110463Y128990D02*
G03X111576Y127512I1537J0D01*
G01X113146Y130015D02*
G03X110463Y128990I-1146J-1025D01*
G01X113146Y130015D02*
G03X113202Y129990I56J50D01*
G01X124325*
G03X124378Y130012I-0J75*
G01X126408Y132042*
G03X126427Y132074I-53J53*
X126458Y132092I-22J71*
G01X127601Y133236*
G03X127623Y133288I-53J53*
G01X128226Y134366D02*
G03X127623Y133288I698J-1098D01*
G01X128226Y134366D02*
G03X128261Y134429I-40J63D01*
X128189Y134504I-75J0*
G01X126713Y136040D02*
G03X128189Y134504I1537J0D01*
G01X129396Y137065D02*
G03X126713Y136040I-1146J-1025D01*
G01X129396Y137065D02*
G03X129452Y137040I56J50D01*
G01X129515*
X130222Y136747D02*
G03X129515Y137040I-707J-707D01*
G01X130222Y136747D02*
X130881Y136088D01*
G03X131009Y136141I53J53*
G01Y136654*
X131296Y137468D02*
G03X131009Y136654I1014J-814D01*
G01X131296Y137468D02*
G03X131312Y137511I-59J47D01*
G01X131603Y138158D02*
G03X131312Y137511I707J-708D01*
G01X131603Y138158D02*
X131743Y138298D01*
G03X131765Y138351I-53J53*
G01X131765*
G03Y138355I-75J-0*
G01X131763Y138440D02*
G03X131765Y138355I1537J0D01*
G01X133422Y139973D02*
G03X131763Y138440I-122J-1533D01*
G01X133422Y139973D02*
G03X133501Y140031I6J75D01*
G01X136537Y139690D02*
G03X133501Y140031I-1537J0D01*
G01X136117Y138634D02*
G03X136537Y139690I-1117J1056D01*
G01X136117Y138634D02*
G03X136097Y138583I55J-51D01*
X136119Y138530I75J-0*
G01X136825Y137824*
G03X136843Y137810I53J53*
G01X137092Y137643D02*
G03X136843Y137810I-845J-989D01*
G01X137092Y137643D02*
G03X137216Y137700I49J57D01*
G01Y138520*
G03X137192Y138574I-75J-0*
G01X136713Y139690D02*
G03X137192Y138574I1537J0D01*
G01X137605Y141086D02*
G03X136713Y139690I645J-1396D01*
G01X137605Y141086D02*
G03X137649Y141154I-31J68D01*
X137605Y141222I-75J-0*
G01X137312Y141425D02*
G03X137605Y141222I708J707D01*
G01X137312Y141425D02*
X136719Y142018D01*
G03X136666Y142040I-53J-53*
G01X131675*
G03X131600Y141965I0J-75*
G01Y139335*
G03X131602Y139319I75J0*
G01X131637Y138990D02*
G03X131602Y139319I-1537J0D01*
G01X131637Y138990D02*
X131637D01*
X128563D02*
G03X131637I1537J0D01*
G01X128598Y139319D02*
G03X128563Y138990I1502J-329D01*
G01X128598Y139319D02*
G03X128600Y139335I-73J16D01*
G01Y142787*
G03X128578Y142840I-75J0*
G01X127583Y143835*
G03X127530Y143857I-53J-53*
G01X111346*
G03X111304Y143845I-0J-75*
G01X110888Y143718D02*
G03X111304Y143845I-0J750D01*
G01X110888Y143718D02*
X108132D01*
X107716Y143845D02*
G03X108132Y143718I416J623D01*
G01X107716Y143845D02*
G03X107674Y143857I-42J-63D01*
G01X105847*
X104610Y144370D02*
G03X105847Y143857I1237J1237D01*
G01X104610Y144370D02*
X103150Y145829D01*
G03X103022Y145776I-53J-53*
G01Y141932*
Y141929*
Y141926*
Y136027*
Y136023*
Y136021*
Y130121*
Y130118*
Y130115*
Y124216*
Y124212*
Y124210*
Y118310*
Y118307*
Y118304*
Y112405*
Y112401*
Y112399*
Y106499*
X102772Y106249D02*
G03X103022Y106499I0J250D01*
G01X102772Y106249D02*
X101125D01*
G03X101050Y106174I0J-75*
G01Y101125*
G03X101125Y101050I75J0*
G01X167769*
G03X167844Y101125I0J75*
G01Y106493*
Y106496*
Y106499*
Y112399*
Y112402*
Y112405*
Y118304*
Y118307*
Y118310*
Y124210*
Y124213*
Y124216*
Y130115*
Y130118*
Y130121*
Y136021*
Y136024*
Y136027*
Y141926*
Y141929*
Y141932*
Y147832*
Y147835*
Y147838*
Y153537*
X168094Y153787D02*
G03X167844Y153537I0J-250D01*
G01X168094Y153787D02*
X169741D01*
G03X169816Y153862I0J75*
G01Y154793*
X146200Y108159D02*
G03X146193Y108190I-75J0D01*
G01X146063Y108810D02*
G03X146193Y108190I1537J0D01*
G01X146101Y109150D02*
G03X146063Y108810I1499J-340D01*
G01X146101Y109150D02*
G03X146102Y109167I-74J17D01*
X146001Y109237I-75J-0*
G01X145863Y109200D02*
G03X146001Y109237I-122J740D01*
G01X145863Y109200D02*
G03X145800Y109126I12J-74D01*
G01Y108442*
G03X145825Y108386I75J-0*
G01X146063Y108117D02*
G03X145825Y108386I-1263J-877D01*
G01X146063Y108117D02*
G03X146200Y108159I62J42D01*
G01X138000Y109115D02*
G03X137925Y109190I-75J0D01*
G01X137825*
G03X137750Y109115I-0J-75*
X137754Y109091I75J0*
G01X137837Y108590D02*
G03X137754Y109091I-1537J0D01*
G01X134765Y108505D02*
G03X137837Y108590I1535J85D01*
G01X134765Y108505D02*
G03X134637Y108554I-75J-5D01*
G01X134631Y108547*
G03X134609Y108494I53J-53*
X134610Y108480I75J-0*
G01X134637Y108190D02*
G03X134610Y108480I-1537J0D01*
G01X131563Y108190D02*
G03X134637I1537J0D01*
G01X132590Y109640D02*
G03X131563Y108190I510J-1450D01*
G01X132590Y109640D02*
X132590D01*
X132597Y109643D02*
G03X132590Y109640I326J-945D01*
G01X132597Y109643D02*
X132597D01*
X132951Y109720D02*
G03X132597Y109643I149J-1530D01*
G01X132951Y109720D02*
G03X132997Y109742I-7J75D01*
G01X133837Y110582*
G03X133859Y110635I-53J53*
G01Y111121*
X133950Y111479D02*
G03X133859Y111121I659J-358D01*
G01X133950Y111479D02*
G03X133959Y111515I-66J36D01*
G01X133959*
G03X133950Y111551I-75J-0*
G01X133859Y111909D02*
G03X133950Y111551I750J-0D01*
G01X133859Y111909D02*
Y111965D01*
G03X133723Y112008I-75J-0*
G01X133584Y111842D02*
G03X133723Y112008I-884J884D01*
G01X133584Y111842D02*
X132214Y110472D01*
G03X132195Y110440I53J-53*
G01X132143Y110308D02*
G03X132195Y110440I-668J342D01*
G01X132143Y110308D02*
G03X132134Y110274I66J-34D01*
G01X131768Y109390D02*
G03X132134Y110274I-884J884D01*
G01X131768Y109390D02*
X131082Y108704D01*
G03X131060Y108651I53J-53*
G01Y107465*
G03X131082Y107412I75J0*
G01X132152Y106342*
G03X132205Y106320I53J53*
G01X136645*
G03X136698Y106342I-0J75*
G01X137978Y107622*
G03X138000Y107675I-53J53*
G01Y109115*
X144855Y131958D02*
G03X144780Y132033I-75J0D01*
G01X133620*
G03X133545Y131958I-0J-75*
G01Y120797*
G03X133620Y120722I75J0*
G01X144780*
G03X144855Y120797I0J75*
G01Y131958*
X148400Y154398D02*
G03X148395Y154425I-75J-0D01*
G01X148284Y154807D02*
G03X148395Y154425I2216J433D01*
G01X148284Y154807D02*
G03X148211Y154868I-73J-14D01*
G01X101125*
G03X101050Y154793I0J-75*
G01Y153862*
G03X101125Y153787I75J0*
G01X102772*
X103022Y153537D02*
G03X102772Y153787I-250J0D01*
G01X103022Y153537D02*
Y150938D01*
G03X103044Y150885I75J0*
G01X106550Y147379*
G03X106603Y147357I53J53*
G01X128286*
X129523Y146845D02*
G03X128286Y147357I-1237J-1238D01*
G01X129523Y146845D02*
X130498Y145870D01*
G03X130551Y145848I53J53*
G01X131800*
X132384Y145568D02*
G03X131800Y145848I-584J-470D01*
G01X132384Y145568D02*
G03X132443Y145540I59J47D01*
G01X137735*
X138443Y145247D02*
G03X137735Y145540I-708J-707D01*
G01X138443Y145247D02*
X139789Y143901D01*
X140070Y143342D02*
G03X139789Y143901I-989J-148D01*
G01X140070Y143342D02*
G03X140133Y143279I75J11D01*
G01X140273Y143248D02*
G03X140133Y143279I-289J-957D01*
G01X140273Y143248D02*
G03X140370Y143320I22J72D01*
G01Y144190*
X140443Y144367D02*
G03X140370Y144190I177J-177D01*
G01X140443Y144367D02*
X141023Y144947D01*
X141200Y145020D02*
G03X141023Y144947I0J-250D01*
G01X141200Y145020D02*
X142010D01*
X142187Y144947D02*
G03X142010Y145020I-177J-177D01*
G01X142187Y144947D02*
X142777Y144357D01*
X142850Y144180D02*
G03X142777Y144357I-250J-0D01*
G01X142850Y144180D02*
Y142905D01*
G03X142872Y142852I75J-0*
G01X143862Y141862*
G03X143990Y141915I53J53*
G01Y142230*
X144028Y142628D02*
G03X143990Y142230I2062J-398D01*
G01X144028Y142628D02*
G03X144029Y142642I-74J14D01*
G01Y142876*
X144078Y143251D02*
G03X144029Y142876I1421J-375D01*
G01X144078Y143251D02*
G03X144080Y143270I-73J19D01*
G01X144080*
G03X144078Y143289I-75J0*
G01X144029Y143664D02*
G03X144078Y143289I1470J-0D01*
G01X144029Y143664D02*
Y143938D01*
G03X144028Y143952I-75J-0*
G01X143990Y144350D02*
G03X144028Y143952I2100J0D01*
G01X143990Y144350D02*
Y145371D01*
G03X143915Y145446I-75J-0*
G01X143521*
X143344Y145519D02*
G03X143521Y145446I177J177D01*
G01X143344Y145519D02*
X140738Y148125D01*
X140665Y148302D02*
G03X140738Y148125I250J0D01*
G01X140665Y148302D02*
Y149119D01*
X140738Y149296D02*
G03X140665Y149119I177J-177D01*
G01X140738Y149296D02*
X141316Y149874D01*
X141493Y149947D02*
G03X141316Y149874I0J-250D01*
G01X141493Y149947D02*
X142316D01*
X142493Y149874D02*
G03X142316Y149947I-177J-177D01*
G01X142493Y149874D02*
X144110Y148256D01*
G03X144236Y148289I53J53*
G01X147623Y152556D02*
G03X144236Y148289I3298J-6096D01*
G01X147623Y152556D02*
X147624D01*
G03X148400Y153858I-704J1302*
G01Y154398*
X121547Y115703D02*
Y107878D01*
X117647D02*
G03X121547I1950J-0D01*
G01X117647D02*
Y115703D01*
X117937Y116726D02*
G03X117647Y115703I1660J-1023D01*
G01X117937Y116726D02*
G03X117948Y116765I-64J39D01*
X117873Y116840I-75J0*
G01X117702*
G03X117646Y116815I-0J-75*
G01X116550Y116304D02*
G03X117646Y116815I-50J1536D01*
G01X116550Y116304D02*
G03X116478Y116229I3J-75D01*
X116480Y116209I75J-0*
G01X116547Y115703D02*
G03X116480Y116209I-1950J0D01*
G01X116547Y115703D02*
Y107878D01*
X116546Y107822D02*
G03X116547Y107878I-1949J56D01*
G01X116546Y107822D02*
Y107820D01*
G03X116606Y107747I75J0*
G01X117837Y106240D02*
G03X116606Y107747I-1537J0D01*
G01X114806Y105875D02*
G03X117837Y106240I1494J365D01*
G01X114806Y105875D02*
G03X114729Y105932I-72J-17D01*
G01X112647Y107878D02*
G03X114729Y105932I1950J-0D01*
G01X112647Y107878D02*
Y115703D01*
X114882Y117632D02*
G03X112647Y115703I-285J-1929D01*
G01X114882Y117632D02*
G03X114968Y117706I11J74D01*
G01X114968*
G03Y117713I-75J0*
G01X114963Y117840D02*
G03X114968Y117713I1537J0D01*
G01X117646Y118865D02*
G03X114963Y117840I-1146J-1025D01*
G01X117646Y118865D02*
G03X117702Y118840I56J50D01*
G01X118359*
X119067Y118547D02*
G03X118359Y118840I-707J-707D01*
G01X119067Y118547D02*
G03X120444Y117460I5313J5313D01*
X120451Y117456I39J64*
G01X120775Y117257D02*
G03X120451Y117456I-1178J-1554D01*
G01X120775Y117257D02*
X120775D01*
X120782Y117252D02*
G03X120775Y117257I-609J-793D01*
G01X120782Y117252D02*
X120783Y117251D01*
X121547Y115703D02*
G03X120783Y117251I-1950J0D01*
G01X109514Y105876D02*
G03X112547Y106230I1496J354D01*
G01X109514Y105876D02*
G03X109447Y105934I-73J-17D01*
G01X107647Y107878D02*
G03X109447Y105934I1950J-0D01*
G01X107647Y107878D02*
Y115703D01*
X111547D02*
G03X107647I-1950J0D01*
G01X111547D02*
Y107878D01*
X111541Y107730D02*
G03X111547Y107878I-1944J148D01*
G01X111541Y107730D02*
G03Y107724I75J-6D01*
G01X111541*
G03X111588Y107655I75J0*
G01X112547Y106230D02*
G03X111588Y107655I-1537J0D01*
G01X126547Y142928D02*
Y132703D01*
X126350Y132196D02*
G03X126547Y132703I-553J507D01*
G01X126350Y132196D02*
G03X126333Y132167I55J-51D01*
X126304Y132151I22J-72*
G01X125797Y131953D02*
G03X126304Y132151I0J750D01*
G01X125797Y131953D02*
X125452D01*
G03X125438Y131952I0J-75*
X124572Y131657I633J-3283*
X124531Y131597I33J-67*
G01X121463Y131740D02*
G03X124531Y131597I1537J0D01*
G01X122592Y133222D02*
G03X121463Y131740I408J-1482D01*
G01X122592Y133222D02*
G03X122647Y133295I-20J73D01*
G01Y142928*
X123397Y143678D02*
G03X122647Y142928I0J-750D01*
G01X123397Y143678D02*
X125797D01*
X126547Y142928D02*
G03X125797Y143678I-750J0D01*
G01X121547Y141728D02*
Y133903D01*
X120981Y132530D02*
G03X121547Y133903I-1384J1373D01*
G01X120981Y132530D02*
G03X120959Y132477I53J-53D01*
X120968Y132442I75J-0*
G01X121137Y131740D02*
G03X120968Y132442I-1537J0D01*
G01X118063Y131740D02*
G03X121137I1537J0D01*
G01X118230Y132439D02*
G03X118063Y131740I1370J-699D01*
G01X118230Y132439D02*
G03X118217Y132526I-66J34D01*
G01X117647Y133903D02*
G03X118217Y132526I1950J0D01*
G01X117647Y133903D02*
Y141728D01*
X121547D02*
G03X117647I-1950J0D01*
G01X114665Y131663D02*
G03X117737Y131740I1535J77D01*
G01X114665Y131663D02*
G03X114630Y131722I-75J-4D01*
X114079Y132022I-2643J-4195*
X114068Y132026I-31J-68*
G01X113545Y132261D02*
G03X114068Y132026I1052J1642D01*
G01X113545Y132261D02*
X113545D01*
X113537Y132267D02*
G03X113545Y132261I545J838D01*
G01X113537Y132267D02*
X113537D01*
X112647Y133903D02*
G03X113537Y132267I1950J0D01*
G01X112647Y133903D02*
Y141728D01*
X116547D02*
G03X112647I-1950J0D01*
G01X116547D02*
Y133903D01*
X116464Y133339D02*
G03X116547Y133903I-1867J564D01*
G01X116464Y133339D02*
G03X116460Y133317I71J-22D01*
X116520Y133244I75J0*
G01X117737Y131740D02*
G03X116520Y133244I-1537J0D01*
G01X161581Y154599D02*
X169816D01*
X161049Y154149D02*
X169816D01*
X152598Y153699D02*
X167903D01*
X152567Y153249D02*
X167844D01*
X152500Y152799D02*
X167844D01*
X152396Y152349D02*
X167844D01*
X152251Y151899D02*
X167844D01*
X152064Y151449D02*
X167844D01*
X151828Y150999D02*
X167844D01*
X151536Y150549D02*
X167844D01*
X151178Y150099D02*
X167844D01*
X150734Y149649D02*
X167844D01*
X150168Y149199D02*
X167844D01*
X149431Y148749D02*
X167844D01*
X148902Y148299D02*
X167844D01*
X148570Y147849D02*
X167844D01*
X148356Y147399D02*
X167844D01*
X148234Y146949D02*
X167844D01*
X148190Y146499D02*
X167844D01*
X148190Y146049D02*
X167844D01*
X148190Y145599D02*
X167844D01*
X155138Y145149D02*
X167844D01*
X155710Y144699D02*
X167844D01*
X155954Y144249D02*
X167844D01*
X156037Y143799D02*
X167844D01*
X156000Y143349D02*
X167844D01*
X156000Y142899D02*
X167844D01*
X156000Y142449D02*
X167844D01*
X156000Y141999D02*
X167844D01*
X155969Y141549D02*
X167844D01*
X155798Y141099D02*
X167844D01*
X155420Y140649D02*
X167844D01*
X154970Y140199D02*
X167844D01*
X154520Y139749D02*
X167844D01*
X154250Y139299D02*
X167844D01*
X154250Y138849D02*
X167844D01*
X154250Y138399D02*
X167844D01*
X154193Y137949D02*
X167844D01*
X153978Y137499D02*
X167844D01*
X153560Y137049D02*
X167844D01*
X153317Y136599D02*
X167844D01*
X159748Y136149D02*
X167844D01*
X159856Y135699D02*
X167844D01*
X159856Y135249D02*
X167844D01*
X159856Y134799D02*
X167844D01*
X159820Y134349D02*
X167844D01*
X159516Y133899D02*
X167844D01*
X159516Y133449D02*
X167844D01*
X159494Y132999D02*
X167844D01*
X159271Y132549D02*
X167844D01*
X158824Y132099D02*
X167844D01*
X158516Y131649D02*
X167844D01*
X158516Y131199D02*
X167844D01*
X158516Y130749D02*
X167844D01*
X158516Y130299D02*
X167844D01*
X158516Y129849D02*
X167844D01*
X158510Y129399D02*
X167844D01*
X158510Y128949D02*
X167844D01*
X158510Y128499D02*
X167844D01*
X158510Y128049D02*
X167844D01*
X158510Y127599D02*
X167844D01*
X159368Y127149D02*
X167844D01*
X159818Y126699D02*
X167844D01*
X163979Y126249D02*
X167844D01*
X164384Y125799D02*
X167844D01*
X164421Y125349D02*
X167844D01*
X164421Y124899D02*
X167844D01*
X164421Y124449D02*
X167844D01*
X164421Y123999D02*
X167844D01*
X164421Y123549D02*
X167844D01*
X164421Y123099D02*
X167844D01*
X164421Y122649D02*
X167844D01*
X164421Y122199D02*
X167844D01*
X164421Y121749D02*
X167844D01*
X164421Y121299D02*
X167844D01*
X164315Y120849D02*
X167844D01*
X163040Y120399D02*
X167844D01*
X163040Y119949D02*
X167844D01*
X163040Y119499D02*
X167844D01*
X162945Y119049D02*
X167844D01*
X162945Y118599D02*
X167844D01*
X162945Y118149D02*
X167844D01*
X162809Y117699D02*
X167844D01*
X153091Y117249D02*
X167844D01*
X153091Y116799D02*
X167844D01*
X153024Y116349D02*
X167844D01*
X153090Y115899D02*
X167844D01*
X153091Y115449D02*
X167844D01*
X153091Y114999D02*
X167844D01*
X153077Y114549D02*
X167844D01*
X152839Y114099D02*
X167844D01*
X153256Y113649D02*
X167844D01*
X153706Y113199D02*
X167844D01*
X154766Y112749D02*
X167844D01*
X155352Y112299D02*
X167844D01*
X155601Y111849D02*
X167844D01*
X155686Y111399D02*
X167844D01*
X155637Y110949D02*
X167844D01*
X155437Y110499D02*
X167844D01*
X154984Y110049D02*
X167844D01*
X148920Y109599D02*
X167844D01*
X149100Y109149D02*
X167844D01*
X149133Y108699D02*
X167844D01*
X149031Y108249D02*
X167844D01*
X148758Y107799D02*
X167844D01*
X148077Y107349D02*
X167844D01*
X146299Y106899D02*
X167844D01*
X146118Y106449D02*
X167844D01*
X145707Y105999D02*
X167844D01*
X138733Y105549D02*
X167844D01*
X138283Y105099D02*
X167844D01*
X137833Y104649D02*
X167844D01*
X101050Y104199D02*
X167844D01*
X101050Y103749D02*
X167844D01*
X101050Y103299D02*
X167844D01*
X101050Y102849D02*
X167844D01*
X101050Y102399D02*
X167844D01*
X101050Y101949D02*
X167844D01*
X101050Y101499D02*
X167844D01*
X153091Y117699D02*
X160400D01*
X152199Y120399D02*
X160360D01*
X152199Y119949D02*
X160360D01*
X152199Y119499D02*
X160288D01*
X152199Y119049D02*
X160264D01*
X152239Y118599D02*
X160264D01*
X153024Y118149D02*
X160264D01*
X152199Y120849D02*
X159091D01*
X152108Y124449D02*
X158984D01*
X152199Y123999D02*
X158984D01*
X152199Y123549D02*
X158984D01*
X152199Y123099D02*
X158984D01*
X152199Y122649D02*
X158984D01*
X152199Y122199D02*
X158984D01*
X152199Y121749D02*
X158984D01*
X152199Y121299D02*
X158984D01*
X151746Y124899D02*
X158782D01*
X151296Y125349D02*
X158339D01*
X152600Y154149D02*
X157563D01*
X151690Y133899D02*
X157516D01*
X151690Y133449D02*
X157346D01*
X153289Y136149D02*
X157283D01*
X151847Y134349D02*
X157212D01*
X153241Y135699D02*
X157175D01*
X152955Y135249D02*
X157175D01*
X152297Y134799D02*
X157175D01*
X152664Y154599D02*
X157031D01*
X148190Y145149D02*
X153862D01*
X148941Y110049D02*
X153316D01*
X148190Y144699D02*
X153290D01*
X151690Y132999D02*
X153164D01*
X151690Y132549D02*
X153079D01*
X151688Y132099D02*
X153079D01*
X151576Y131649D02*
X153079D01*
X152690Y131199D02*
X153079D01*
X148188Y144249D02*
X153046D01*
X150935Y143349D02*
X153000D01*
X151385Y142899D02*
X153000D01*
X151524Y142449D02*
X152977D01*
X148151Y143799D02*
X152963D01*
X148941Y110499D02*
X152863D01*
X148941Y110949D02*
X152663D01*
X148887Y111399D02*
X152614D01*
X151524Y141999D02*
X152527D01*
X148938Y111849D02*
X152227D01*
X151327Y141549D02*
X152077D01*
X148941Y112299D02*
X151777D01*
X150877Y141099D02*
X151631D01*
X150427Y140649D02*
X151354D01*
X148941Y112749D02*
X151327D01*
X149977Y140199D02*
X151253D01*
X149527Y139749D02*
X151250D01*
X149077Y139299D02*
X151250D01*
X148190Y138849D02*
X151117D01*
X148933Y113199D02*
X150909D01*
X148691Y113649D02*
X150754D01*
X148446Y114099D02*
X150698D01*
X148190Y138399D02*
X150674D01*
X147391Y116349D02*
X150476D01*
X148030Y114549D02*
X150423D01*
X148190Y137949D02*
X150411D01*
X147375Y115899D02*
X150410D01*
X147215Y115449D02*
X150409D01*
X147580Y114999D02*
X150409D01*
X148190Y137499D02*
X150319D01*
X148190Y137049D02*
X150303D01*
X148190Y136599D02*
X149855D01*
X148116Y143349D02*
X149610D01*
X148190Y136149D02*
X149405D01*
X148150Y142899D02*
X149160D01*
X148178Y135699D02*
X148977D01*
X148111Y135249D02*
X148748D01*
X148179Y142449D02*
X148710D01*
X148071Y134799D02*
X148680D01*
X147391Y116799D02*
X148367D01*
X147391Y117249D02*
X148053D01*
X147383Y117699D02*
X147925D01*
X147250Y118149D02*
X147924D01*
X146334Y107349D02*
X147123D01*
X146232Y107799D02*
X146442D01*
X139183Y105999D02*
X143893D01*
X143283Y109149D02*
X143800D01*
X143379Y108699D02*
X143800D01*
X143360Y108249D02*
X143640D01*
X139633Y106449D02*
X143482D01*
X143197Y107799D02*
X143368D01*
X139943Y106899D02*
X143301D01*
X142822Y107349D02*
X143266D01*
X140000D02*
X140878D01*
X140000Y107799D02*
X140503D01*
X140229Y109149D02*
X140411D01*
X140000Y108249D02*
X140340D01*
X140000Y108699D02*
X140321D01*
X135616Y141099D02*
X137625D01*
X136250Y138399D02*
X137216D01*
X136700Y137949D02*
X137216D01*
X131600Y141549D02*
X137189D01*
X136202Y140649D02*
X137048D01*
X136287Y138849D02*
X136963D01*
X136451Y140199D02*
X136799D01*
X136487Y139299D02*
X136763D01*
X131608Y141999D02*
X136739D01*
X136536Y139749D02*
X136714D01*
X131600Y141099D02*
X134384D01*
X131600Y140649D02*
X133798D01*
X131600Y140199D02*
X133549D01*
X131600Y139749D02*
X132493D01*
X131606Y139299D02*
X132025D01*
X131631Y138849D02*
X131818D01*
X131519Y138399D02*
X131763D01*
X131231Y137949D02*
X131443D01*
X130473Y137499D02*
X131310D01*
X129417Y137049D02*
X131070D01*
X128023Y118149D02*
X131055D01*
X101050Y104649D02*
X131017D01*
X120080Y117699D02*
X131017D01*
X130370Y136599D02*
X131009D01*
X130820Y136149D02*
X131009D01*
X125786Y117249D02*
X131009D01*
X126210Y116799D02*
X131009D01*
X126437Y116349D02*
X131009D01*
X126537Y115899D02*
X130690D01*
X117330Y105099D02*
X130567D01*
X126547Y115449D02*
X130240D01*
X117673Y105549D02*
X130117D01*
X126547Y112749D02*
X129793D01*
X126547Y114999D02*
X129744D01*
X128736Y137499D02*
X129727D01*
X126547Y112299D02*
X129708D01*
X125118Y105999D02*
X129667D01*
X126547Y113199D02*
X129552D01*
X126547Y114549D02*
X129546D01*
X126547Y111849D02*
X129544D01*
X126547Y114099D02*
X129544D01*
X126547Y113649D02*
X129544D01*
X126547Y111399D02*
X129544D01*
X126547Y110949D02*
X129544D01*
X126547Y110499D02*
X129341D01*
X126547Y137949D02*
X128969D01*
X126547Y110049D02*
X128892D01*
X126547Y138399D02*
X128681D01*
X126547Y109599D02*
X128625D01*
X126547Y139749D02*
X128600D01*
X126547Y140199D02*
X128600D01*
X126547Y140649D02*
X128600D01*
X126547Y141099D02*
X128600D01*
X126547Y141549D02*
X128600D01*
X126547Y141999D02*
X128600D01*
X126547Y142449D02*
X128600D01*
X126547Y139299D02*
X128594D01*
X126547Y138849D02*
X128569D01*
X126547Y109149D02*
X128560D01*
X126547Y108699D02*
X128560D01*
X126547Y142899D02*
X128519D01*
X126547Y134349D02*
X128200D01*
X126418Y143349D02*
X128069D01*
X126547Y133899D02*
X127786D01*
X126547Y137499D02*
X127764D01*
X126547Y133449D02*
X127636D01*
X111226Y143799D02*
X127619D01*
X126547Y132999D02*
X127364D01*
X126547Y134799D02*
X127343D01*
X126547Y137049D02*
X127090D01*
X126547Y135249D02*
X126932D01*
X126531Y132549D02*
X126914D01*
X126547Y136599D02*
X126818D01*
X126547Y135699D02*
X126751D01*
X126547Y136149D02*
X126716D01*
X119498Y118149D02*
X126477D01*
X126241Y132099D02*
X126464D01*
X124559Y131649D02*
X126014D01*
X119012Y118599D02*
X125989D01*
X114334Y119949D02*
X125786D01*
X117450Y119049D02*
X125774D01*
X103022Y119499D02*
X125713D01*
X124439Y131199D02*
X125564D01*
X124175Y130749D02*
X125114D01*
X123535Y130299D02*
X124664D01*
X120118Y105999D02*
X124076D01*
X120786Y117249D02*
X123408D01*
X120924Y106449D02*
X123270D01*
X121210Y116799D02*
X122984D01*
X121283Y106899D02*
X122911D01*
X120682Y143349D02*
X122776D01*
X121437Y116349D02*
X122757D01*
X121474Y107349D02*
X122720D01*
X121537Y115899D02*
X122657D01*
X121545Y107799D02*
X122649D01*
X121157Y142899D02*
X122647D01*
X121409Y142449D02*
X122647D01*
X121528Y141999D02*
X122647D01*
X121547Y141549D02*
X122647D01*
X121547Y141099D02*
X122647D01*
X121547Y140649D02*
X122647D01*
X121547Y140199D02*
X122647D01*
X121547Y139749D02*
X122647D01*
X121547Y139299D02*
X122647D01*
X121547Y138849D02*
X122647D01*
X121547Y138399D02*
X122647D01*
X121547Y137949D02*
X122647D01*
X121547Y137499D02*
X122647D01*
X121547Y137049D02*
X122647D01*
X121547Y136599D02*
X122647D01*
X121547Y136149D02*
X122647D01*
X121547Y135699D02*
X122647D01*
X121547Y135249D02*
X122647D01*
X121547Y134799D02*
X122647D01*
X121547Y134349D02*
X122647D01*
X121547Y133899D02*
X122647D01*
X121493Y133449D02*
X122647D01*
X121547Y115449D02*
X122647D01*
X121547Y114999D02*
X122647D01*
X121547Y114549D02*
X122647D01*
X121547Y114099D02*
X122647D01*
X121547Y113649D02*
X122647D01*
X121547Y113199D02*
X122647D01*
X121547Y112749D02*
X122647D01*
X121547Y112299D02*
X122647D01*
X121547Y111849D02*
X122647D01*
X121547Y111399D02*
X122647D01*
X121547Y110949D02*
X122647D01*
X121547Y110499D02*
X122647D01*
X121547Y110049D02*
X122647D01*
X121547Y109599D02*
X122647D01*
X121547Y109149D02*
X122647D01*
X121547Y108699D02*
X122647D01*
X121547Y108249D02*
X122647D01*
X120135Y130299D02*
X122465D01*
X121325Y132999D02*
X122117D01*
X120775Y130749D02*
X121825D01*
X121000Y132549D02*
X121692D01*
X121039Y131199D02*
X121561D01*
X121095Y132099D02*
X121505D01*
X121135Y131649D02*
X121465D01*
X117818Y105999D02*
X119076D01*
X116735Y130299D02*
X119065D01*
X115682Y143349D02*
X118512D01*
X117375Y130749D02*
X118425D01*
X117823Y106449D02*
X118270D01*
X117508Y132549D02*
X118194D01*
X117639Y131199D02*
X118161D01*
X117695Y132099D02*
X118105D01*
X117735Y131649D02*
X118065D01*
X116157Y142899D02*
X118037D01*
X117631Y116799D02*
X117940D01*
X117689Y106899D02*
X117911D01*
X117083Y132999D02*
X117869D01*
X116409Y142449D02*
X117785D01*
X116873Y116349D02*
X117757D01*
X117365Y107349D02*
X117720D01*
X116493Y133449D02*
X117701D01*
X116528Y141999D02*
X117666D01*
X116537Y115899D02*
X117657D01*
X116549Y107799D02*
X117649D01*
X116547Y133899D02*
X117647D01*
X116547Y141549D02*
X117647D01*
X116547Y141099D02*
X117647D01*
X116547Y140649D02*
X117647D01*
X116547Y140199D02*
X117647D01*
X116547Y139749D02*
X117647D01*
X116547Y139299D02*
X117647D01*
X116547Y138849D02*
X117647D01*
X116547Y138399D02*
X117647D01*
X116547Y137949D02*
X117647D01*
X116547Y137499D02*
X117647D01*
X116547Y137049D02*
X117647D01*
X116547Y136599D02*
X117647D01*
X116547Y136149D02*
X117647D01*
X116547Y135699D02*
X117647D01*
X116547Y135249D02*
X117647D01*
X116547Y134799D02*
X117647D01*
X116547Y134349D02*
X117647D01*
X116547Y115449D02*
X117647D01*
X116547Y114999D02*
X117647D01*
X116547Y114549D02*
X117647D01*
X116547Y114099D02*
X117647D01*
X116547Y113649D02*
X117647D01*
X116547Y113199D02*
X117647D01*
X116547Y112749D02*
X117647D01*
X116547Y112299D02*
X117647D01*
X116547Y111849D02*
X117647D01*
X116547Y111399D02*
X117647D01*
X116547Y110949D02*
X117647D01*
X116547Y110499D02*
X117647D01*
X116547Y110049D02*
X117647D01*
X116547Y109599D02*
X117647D01*
X116547Y109149D02*
X117647D01*
X116547Y108699D02*
X117647D01*
X116547Y108249D02*
X117647D01*
X112807Y130299D02*
X115665D01*
X103022Y119049D02*
X115550D01*
X112051Y105099D02*
X115270D01*
X103022Y118599D02*
X115163D01*
X103022Y130749D02*
X115025D01*
X103022Y118149D02*
X114994D01*
X103022Y117699D02*
X114968D01*
X112388Y105549D02*
X114927D01*
X103022Y131199D02*
X114761D01*
X103022Y131649D02*
X114665D01*
X112530Y105999D02*
X114076D01*
X103022Y132099D02*
X113858D01*
X103022Y143349D02*
X113512D01*
X110786Y117249D02*
X113408D01*
X112532Y106449D02*
X113270D01*
X103022Y132549D02*
X113194D01*
X103022Y142899D02*
X113037D01*
X111210Y116799D02*
X112984D01*
X112394Y106899D02*
X112911D01*
X103022Y132999D02*
X112869D01*
X103022Y142449D02*
X112785D01*
X111437Y116349D02*
X112757D01*
X112065Y107349D02*
X112720D01*
X103022Y133449D02*
X112701D01*
X103022Y119949D02*
X112666D01*
X103022Y141999D02*
X112666D01*
X111537Y115899D02*
X112657D01*
X111545Y107799D02*
X112649D01*
X103022Y133899D02*
X112647D01*
X103022Y141549D02*
X112647D01*
X103022Y141099D02*
X112647D01*
X103022Y140649D02*
X112647D01*
X103022Y140199D02*
X112647D01*
X103022Y139749D02*
X112647D01*
X103022Y139299D02*
X112647D01*
X103022Y138849D02*
X112647D01*
X103022Y138399D02*
X112647D01*
X103022Y137949D02*
X112647D01*
X103022Y137499D02*
X112647D01*
X103022Y137049D02*
X112647D01*
X103022Y136599D02*
X112647D01*
X103022Y136149D02*
X112647D01*
X103022Y135699D02*
X112647D01*
X103022Y135249D02*
X112647D01*
X103022Y134799D02*
X112647D01*
X103022Y134349D02*
X112647D01*
X111547Y115449D02*
X112647D01*
X111547Y114999D02*
X112647D01*
X111547Y114549D02*
X112647D01*
X111547Y114099D02*
X112647D01*
X111547Y113649D02*
X112647D01*
X111547Y113199D02*
X112647D01*
X111547Y112749D02*
X112647D01*
X111547Y112299D02*
X112647D01*
X111547Y111849D02*
X112647D01*
X111547Y111399D02*
X112647D01*
X111547Y110949D02*
X112647D01*
X111547Y110499D02*
X112647D01*
X111547Y110049D02*
X112647D01*
X111547Y109599D02*
X112647D01*
X111547Y109149D02*
X112647D01*
X111547Y108699D02*
X112647D01*
X111547Y108249D02*
X112647D01*
X103022Y120399D02*
X112213D01*
X103022Y120849D02*
X112013D01*
X103022Y121299D02*
X111627D01*
X103022Y124449D02*
X111465D01*
X103022Y127599D02*
X111346D01*
X103022Y130299D02*
X111193D01*
X103022Y127149D02*
X111117D01*
X103022Y123999D02*
X111050D01*
X103022Y121749D02*
X110869D01*
X103022Y124899D02*
X110825D01*
X103022Y128049D02*
X110785D01*
X103022Y129849D02*
X110725D01*
X103022Y126699D02*
X110692D01*
X103022Y123549D02*
X110663D01*
X103022Y122199D02*
X110581D01*
X103022Y125349D02*
X110561D01*
X103022Y128499D02*
X110543D01*
X103022Y129399D02*
X110518D01*
X103022Y126249D02*
X110505D01*
X103022Y123099D02*
X110494D01*
X103022Y122649D02*
X110469D01*
X103022Y125799D02*
X110465D01*
X103022Y128949D02*
X110463D01*
X101050Y105099D02*
X109969D01*
X101050Y105549D02*
X109632D01*
X101050Y105999D02*
X109076D01*
X103022Y117249D02*
X108408D01*
X103017Y106449D02*
X108270D01*
X103022Y116799D02*
X107984D01*
X103022Y106899D02*
X107911D01*
X103022Y143799D02*
X107794D01*
X103022Y116349D02*
X107757D01*
X103022Y107349D02*
X107720D01*
X103022Y115899D02*
X107657D01*
X103022Y107799D02*
X107649D01*
X103022Y115449D02*
X107647D01*
X103022Y114999D02*
X107647D01*
X103022Y114549D02*
X107647D01*
X103022Y114099D02*
X107647D01*
X103022Y113649D02*
X107647D01*
X103022Y113199D02*
X107647D01*
X103022Y112749D02*
X107647D01*
X103022Y112299D02*
X107647D01*
X103022Y111849D02*
X107647D01*
X103022Y111399D02*
X107647D01*
X103022Y110949D02*
X107647D01*
X103022Y110499D02*
X107647D01*
X103022Y110049D02*
X107647D01*
X103022Y109599D02*
X107647D01*
X103022Y109149D02*
X107647D01*
X103022Y108699D02*
X107647D01*
X103022Y108249D02*
X107647D01*
X103022Y144249D02*
X104744D01*
X103022Y144699D02*
X104281D01*
X103022Y145149D02*
X103831D01*
X103022Y145599D02*
X103381D01*
X145800Y108533D02*
X146088D01*
X145800Y108983D02*
X146072D01*
X137776Y109019D02*
X138000D01*
X137837Y108569D02*
X138000D01*
X137763Y108119D02*
X138000D01*
X137531Y107669D02*
X138000D01*
X136995Y107219D02*
X137574D01*
X133686Y106769D02*
X137124D01*
X134292Y107219D02*
X135605D01*
X134546Y107669D02*
X135069D01*
X134636Y108119D02*
X134837D01*
X134659Y108569D02*
X134721D01*
X133460Y111719D02*
X133884D01*
X133010Y111269D02*
X133874D01*
X132560Y110819D02*
X133859D01*
X132170Y110369D02*
X133624D01*
X132083Y109919D02*
X133174D01*
X131726Y106769D02*
X132514D01*
X131840Y109469D02*
X132246D01*
X131276Y107219D02*
X131908D01*
X131397Y109019D02*
X131805D01*
X131060Y107669D02*
X131654D01*
X131060Y108569D02*
X131610D01*
X131060Y108119D02*
X131564D01*
X133545Y131521D02*
X144855D01*
X133545Y131071D02*
X144855D01*
X133545Y130621D02*
X144855D01*
X133545Y130171D02*
X144855D01*
X133545Y129721D02*
X144855D01*
X133545Y129271D02*
X144855D01*
X133545Y128821D02*
X144855D01*
X133545Y128371D02*
X144855D01*
X133545Y127921D02*
X144855D01*
X133545Y127471D02*
X144855D01*
X133545Y127021D02*
X144855D01*
X133545Y126571D02*
X144855D01*
X133545Y126121D02*
X144855D01*
X133545Y125671D02*
X144855D01*
X133545Y125221D02*
X144855D01*
X133545Y124771D02*
X144855D01*
X133545Y124321D02*
X144855D01*
X133545Y123871D02*
X144855D01*
X133545Y123421D02*
X144855D01*
X133545Y122971D02*
X144855D01*
X133545Y122521D02*
X144855D01*
X133545Y122071D02*
X144855D01*
X133545Y121621D02*
X144855D01*
X133545Y121171D02*
X144855D01*
X133546Y131971D02*
X144854D01*
X101050Y153988D02*
X148400D01*
X101050Y154438D02*
X148390D01*
X103022Y153538D02*
X148365D01*
X103022Y153088D02*
X148184D01*
X103022Y152638D02*
X147758D01*
X103022Y152188D02*
X147019D01*
X103022Y151738D02*
X146429D01*
X103022Y151288D02*
X145949D01*
X103091Y150838D02*
X145548D01*
X103541Y150388D02*
X145211D01*
X142381Y149938D02*
X144926D01*
X142878Y149488D02*
X144687D01*
X143328Y149038D02*
X144487D01*
X143778Y148588D02*
X144325D01*
X142850Y143188D02*
X144063D01*
X142850Y143638D02*
X144030D01*
X142985Y142738D02*
X144029D01*
X142850Y144088D02*
X144006D01*
X143435Y142288D02*
X143991D01*
X142132Y144988D02*
X143990D01*
X142595Y144538D02*
X143990D01*
X138175Y145438D02*
X143948D01*
X130480Y145888D02*
X142975D01*
X130030Y146338D02*
X142525D01*
X129580Y146788D02*
X142075D01*
X128920Y147238D02*
X141625D01*
X103991Y149938D02*
X141428D01*
X106241Y147688D02*
X141175D01*
X138701Y144988D02*
X141078D01*
X104441Y149488D02*
X140931D01*
X105791Y148138D02*
X140726D01*
X104891Y149038D02*
X140665D01*
X105341Y148588D02*
X140665D01*
X139151Y144538D02*
X140615D01*
X139601Y144088D02*
X140370D01*
X139977Y143638D02*
X140370D01*
X155750Y154868D02*
X162750D01*
X155750Y154368D02*
X162750D01*
X155750Y153868D02*
X162750D01*
X155750Y153368D02*
X162750D01*
X155750Y152868D02*
X162750D01*
X155750Y152690D02*
Y154868D01*
X156250Y152690D02*
Y154868D01*
X156750Y152690D02*
Y154868D01*
X157250Y152690D02*
Y154868D01*
X157750Y152690D02*
Y154868D01*
X158250Y152690D02*
Y154868D01*
X158750Y152690D02*
Y154868D01*
X159250Y152690D02*
Y154868D01*
X159750Y152690D02*
Y154868D01*
X160250Y152690D02*
Y154868D01*
X160750Y152690D02*
Y154868D01*
X161250Y152690D02*
Y154868D01*
X161750Y152690D02*
Y154868D01*
X162250Y152690D02*
Y154868D01*
G54D101*
X170866Y115354D03*
Y109449D03*
X100000Y150787D03*
Y144882D03*
Y138976D03*
Y133071D03*
Y127165D03*
Y121260D03*
Y115354D03*
Y109449D03*
Y103543D03*
X170866D03*
Y121260D03*
Y127165D03*
Y133071D03*
Y138976D03*
Y144882D03*
Y150787D03*
G54D102*
X150500Y155240D03*
X159306D03*
X105200Y101640D03*
Y105640D03*
Y110390D03*
X111010Y106230D03*
X116300Y106240D03*
X114400Y105240D03*
X108700Y103040D03*
X112200Y101640D03*
X122097Y107041D03*
X119200Y101640D03*
X126200D03*
X127800Y109380D03*
X133100Y108190D03*
X136300Y108590D03*
X134880Y107040D03*
X133200Y101640D03*
X147600Y108810D03*
X144800Y107240D03*
X141850Y108540D03*
X141100Y105730D03*
X146490Y105680D03*
X143600Y103040D03*
X140200Y101640D03*
X154150Y111340D03*
X152440Y105600D03*
X154780Y108200D03*
X149650Y108390D03*
X150600Y103040D03*
X157600D03*
X165700Y108200D03*
Y103040D03*
X161720Y105040D03*
X160500Y108200D03*
X105200Y114890D03*
X107500Y118210D03*
X113500Y121240D03*
X116500Y117840D03*
X117640Y119660D03*
X112150Y118240D03*
X127250Y119478D03*
X123000Y118840D03*
X132310Y119040D03*
X137035Y121457D03*
X128520Y116840D03*
X146650Y120730D03*
X140200Y114440D03*
X141365Y121457D03*
X149450Y117890D03*
X157580Y118740D03*
X158300Y116740D03*
X149670Y115820D03*
X153000Y119950D03*
X155600Y116730D03*
X155210Y119010D03*
X156000Y112490D03*
X160730Y116690D03*
X165700Y112490D03*
X163610Y117740D03*
X164500Y119740D03*
X160500Y112490D03*
X107840Y131210D03*
X112000Y122790D03*
X113500Y124340D03*
X112000Y128990D03*
Y125890D03*
X113500Y127440D03*
X117900Y130530D03*
X113500Y131240D03*
X110700D03*
X121310Y130530D03*
X131800Y129330D03*
X134279Y124213D03*
X137035Y128543D03*
Y131299D03*
X134279Y128543D03*
X137035Y124213D03*
X146650Y124000D03*
X141365Y128543D03*
X144121D03*
Y124213D03*
X141365D03*
X152770Y124740D03*
X152780Y122240D03*
X165700Y121840D03*
Y124540D03*
Y127240D03*
Y130340D03*
X105200Y132740D03*
Y136840D03*
X116200Y131740D03*
X119600D03*
X128250Y136040D03*
X123000Y131740D03*
X127500Y138740D03*
X127100Y134170D03*
X138250Y139690D03*
X135000D03*
X130100Y138990D03*
X133790Y141460D03*
X136456Y141483D03*
X133300Y138440D03*
X139760Y138190D03*
X148738Y138264D03*
X158150Y139550D03*
X154562Y134036D03*
X156500Y135250D03*
X152530Y132010D03*
X161500Y139550D03*
X165700D03*
Y132800D03*
X165550Y135440D03*
X162550Y135200D03*
X107000Y151240D03*
X105200Y142490D03*
X117000Y143240D03*
X118300Y148140D03*
X114000Y151240D03*
X112100Y143240D03*
X112660Y148140D03*
X122010Y143240D03*
X128400Y148140D03*
X127500Y142040D03*
X121000Y151240D03*
X128000D03*
X124000Y148140D03*
X136500Y143790D03*
X136145Y148004D03*
X133500Y148140D03*
X135000Y151240D03*
X138843Y148928D03*
X143964Y149285D03*
X140640Y147090D03*
X140200Y151240D03*
X141902Y148710D03*
X145000Y151100D03*
X142540Y145560D03*
X138570Y145850D03*
X141610Y143780D03*
X143470Y143080D03*
X154500Y143750D03*
X148870Y146630D03*
X152710Y145150D03*
X150240Y148410D03*
X151840Y149930D03*
X156500Y151240D03*
X154000Y148240D03*
X152440Y142700D03*
X150278Y142260D03*
X156618Y146022D03*
X148970Y144300D03*
X163490Y148260D03*
X161497Y146076D03*
X158982Y148258D03*
X161000Y151240D03*
X165700Y146140D03*
Y150340D03*
X101700Y154326D03*
X105200Y154240D03*
X112200D03*
X119200D03*
X126200D03*
X133200D03*
X146480Y152600D03*
X147750Y154240D03*
X140200D03*
X152980Y151940D03*
X153250Y154240D03*
X156500Y153540D03*
X165700Y154240D03*
X161780Y153540D03*
X159306D03*
X169200Y154326D03*
G54D108*
X155797Y130486D03*
G54D109*
Y123399D03*
X161703D03*
Y130486D03*
G54D110*
X109510Y145256D03*
Y148012D03*
G54D141*
X159306Y153540D02*
Y155240D01*
G54D171*
X146090Y135925D02*
X146090D01*
Y142230*
X148622Y150709D02*
G03X146090Y146491I2299J-4249D01*
G01Y144350D02*
Y146480D01*
Y146491D02*
G03Y146480I4831J-31D01*
G01X148622Y150709D02*
G03X150500Y153858I-1702J3149D01*
G01Y155240*
G54D177*
X139200Y126378D03*
G54D178*
X119597Y137816D03*
X114597D03*
X109597D03*
Y111791D03*
X114597D03*
X119597D03*
X124597D03*
G54D179*
X158952Y153712D02*
Y155069D01*
X159660Y153712D02*
Y155069D01*
G54D193*
X148106Y140311D02*
G03X148384Y140366I98J236D01*
X148330Y140088I181J-180*
G01X149718Y141700D02*
G03X149813Y142178I-309J309D01*
G01X150196Y141795D02*
G03X149718Y141700I-169J-404D01*
G01X149944Y141926*
X148058Y140040D02*
X148058D01*
X150278Y142260*
X142367Y148627D02*
G03X142461Y148150I403J-168D01*
X141984Y148245I-309J-309*
G01X142461Y148150D02*
X142236Y148376D01*
X143795Y146816D02*
G03X144074Y146761I181J181D01*
G01X143850Y146538D02*
G03X143795Y146816I-235J98D01*
G01X141902Y148710D02*
X141902D01*
X144122Y146490*
X141881Y143393D02*
G03X141610Y142989I166J-404D01*
X141339Y143393I-437J-0*
G01X141610Y142989D02*
Y143308D01*
X142690Y141562D02*
G03X142968Y141507I180J181D01*
G01X142745Y141284D02*
G03X142690Y141562I-236J98D01*
G01X141610Y143780D02*
Y142642D01*
X143016Y141236*
G54D194*
X152686Y138940D03*
X154654D03*
X134300Y144056D03*
Y146024D03*
X151916Y136440D03*
X153884D03*
X144122Y146490D03*
X146090D03*
X148058Y140040D03*
X146090D03*
X161604Y118720D03*
X159636D03*
X158516Y135170D03*
X160484D03*
X130884Y113898D03*
X128916D03*
X130884Y111240D03*
X128916D03*
X130216Y140690D03*
X132184D03*
X146090Y142286D03*
Y144254D03*
X151798Y127953D03*
Y129921D03*
X151750Y117249D03*
Y115281D03*
X142650Y112499D03*
Y110531D03*
X147600Y112499D03*
Y110531D03*
X145150Y112499D03*
Y110531D03*
X137700Y112499D03*
Y110531D03*
X135200Y112499D03*
Y110531D03*
X140197Y112499D03*
Y110531D03*
G54D195*
X124597Y137816D03*
G54D196*
X146090Y135925D03*
X144121D03*
X142153D03*
X140184D03*
X138216D03*
X136247D03*
X134279D03*
X132310D03*
Y116831D03*
X134279D03*
X136247D03*
X138216D03*
X140184D03*
X142153D03*
X144121D03*
X146090D03*
G54D197*
X129653Y133268D03*
Y131299D03*
Y129331D03*
Y127362D03*
Y125394D03*
Y123425D03*
Y121457D03*
Y119488D03*
X148747D03*
Y121457D03*
Y123425D03*
Y125394D03*
Y127362D03*
Y129331D03*
Y131299D03*
Y133268D03*
G54D198*
X146090Y146491D02*
Y146490D01*
X146090*
Y142230D02*
Y142286D01*
Y144254D02*
Y144350D01*
G74*
X0Y0D02*
M02*
