*
*
G04 PADS VX.2 Build Number: 5060570 generated Gerber (RS-274-X) file*
G04 PC Version=2.1*
*
%IN "PCB_ESP32-C3-WROOM-02_V"*%
*
%MOIN*%
*
%FSLAX35Y35*%
*
*
*
*
G04 PC Standard Apertures*
*
*
G04 Thermal Relief Aperture macro.*
%AMTER*
1,1,$1,0,0*
1,0,$1-$2,0,0*
21,0,$3,$4,0,0,45*
21,0,$3,$4,0,0,135*
%
*
*
G04 Annular Aperture macro.*
%AMANN*
1,1,$1,0,0*
1,0,$2,0,0*
%
*
*
G04 Odd Aperture macro.*
%AMODD*
1,1,$1,0,0*
1,0,$1-0.005,0,0*
%
*
*
G04 PC Custom Aperture Macros*
*
*
*
*
*
*
G04 PC Aperture Table*
*
%ADD010C,0.001*%
%ADD027C,0.00394*%
%ADD037C,0.005*%
%ADD101R,0.03543X0.03543*%
%ADD102C,0.01575*%
*
*
*
*
G04 PC Circuitry*
G04 Layer Name PCB_ESP32-C3-WROOM-02_V - circuitry*
%LPD*%
*
*
G04 PC Custom Flashes*
G04 Layer Name PCB_ESP32-C3-WROOM-02_V - flashes*
%LPD*%
*
*
G04 PC Circuitry*
G04 Layer Name PCB_ESP32-C3-WROOM-02_V - circuitry*
%LPD*%
*
G54D10*
G54D27*
G01X100000Y178740D02*
X170866D01*
Y100000*
X100000*
Y178740*
G54D37*
X100265Y110947D02*
G75*
G03X101802Y111251I542J1299D01*
X101498Y109714I996J-995*
G01X100720Y110789D02*
G03X101802Y111251I-33J1578D01*
G01X100974Y110618D02*
G03X101802Y111251I-1948J3410D01*
X101169Y110422I2777J-2776*
G01X101802Y111251D02*
G03X101341Y110169I1116J-1116D01*
G01X112600Y121240D02*
G03X113060Y121548I-0J497D01*
G01Y120932D02*
G03X112600Y121240I-460J-189D01*
G01X112963*
X100000Y109449D02*
X103040Y112489D01*
Y116380*
X104450Y117790*
Y120030*
X105660Y121240*
X113500*
X111539Y106136D02*
G03X111647Y105594I459J-191D01*
G01X111646D02*
G03X111104Y105701I-351J-352D01*
G01X111647Y105594D02*
X111390Y105850D01*
X144163Y106604D02*
G03X144271Y107146I-351J351D01*
G01X144706Y106711D02*
G03X144164Y106604I-191J-459D01*
G01X144163D02*
X144420Y106860D01*
X111010Y106230D02*
X113990Y103250D01*
X140810*
X144800Y107240*
X116829Y106146D02*
G03X116937Y105604I459J-191D01*
G01X116936D02*
G03X116394Y105711I-351J-352D01*
G01X116937Y105604D02*
X116680Y105860D01*
X141147Y107978D02*
G03X141330Y108676I-505J505D01*
G01X141639Y108046D02*
G03X141147Y107978I-201J-360D01*
G01X141414Y108226*
X116300Y106240D02*
X117050Y105490D01*
X138660*
X141710Y108540*
X141850*
X154570Y111005D02*
G03X154536Y110954I-12J-29D01*
X154486Y110920I-22J-22*
G01X169064Y113552D02*
G03X169368Y115089I-995J995D01*
G01X170601Y113856D02*
G03X169064Y113552I-542J-1299D01*
X169526Y114634I-1116J1116*
G01X169064Y113552D02*
G03X169697Y114381I-2777J2777D01*
G01X169893Y114185D02*
G03X169064Y113552I1947J-3409D01*
G01X170146Y114014D02*
G03X169064Y113552I33J-1578D01*
G01X154150Y111340D02*
X154536Y110954D01*
Y110950*
X166462*
X170866Y115354*
X100265Y116853D02*
G03X101802Y117157I542J1299D01*
X101498Y115620I996J-996*
G01X100720Y116695D02*
G03X101802Y117157I-33J1577D01*
G01X100974Y116524D02*
G03X101802Y117157I-1948J3409D01*
X101169Y116328I2777J-2777*
G01X101802Y117157D02*
G03X101341Y116074I1116J-1116D01*
G01X111100Y122790D02*
G03X111560Y123098I-0J497D01*
G01Y122482D02*
G03X111100Y122790I-460J-189D01*
G01X111463*
X100000Y115354D02*
X103040Y118394D01*
Y120880*
X104950Y122790*
X112000*
X100265Y122758D02*
G03X101802Y123062I542J1299D01*
X101498Y121525I996J-995*
G01X100720Y122600D02*
G03X101802Y123062I-33J1578D01*
G01X100974Y122429D02*
G03X101802Y123062I-1948J3410D01*
X101169Y122233I2777J-2776*
G01X101802Y123062D02*
G03X101341Y121980I1116J-1116D01*
G01X112600Y124340D02*
G03X113060Y124648I-0J497D01*
G01Y124032D02*
G03X112600Y124340I-460J-189D01*
G01X112963*
X100000Y121260D02*
X103080Y124340D01*
X113500*
X116808Y117400D02*
G03X116500Y116940I189J-460D01*
X116192Y117400I-497J0*
G01X116500Y116940D02*
Y117303D01*
X132279Y107820D02*
G03X132564Y108227I0J303D01*
G01X132985Y107665D02*
G03X132279Y107820I-706J-1528D01*
X132622Y107945I0J533*
G01X116500Y117840D02*
Y115940D01*
X124620Y107820*
X132730*
X133100Y108190*
X127690Y119786D02*
G03X128150Y119478I460J189D01*
X127690Y119170I0J-497*
G01X128150Y119478D02*
X127787D01*
X169064Y105346D02*
G03X170601Y105042I995J995D01*
G01X169368Y103809D02*
G03X169064Y105346I-1299J541D01*
X170146Y104884I1115J1115*
G01X169064Y105346D02*
G03X169893Y104713I2776J2776D01*
G01X169697Y104517D02*
G03X169064Y105346I-3410J-1948D01*
G01X169526Y104263D02*
G03X169064Y105346I-1578J-33D01*
G01X127250Y119478D02*
X128252D01*
X130250Y117480*
X142775*
X153615Y106640*
X167769*
X170866Y103543*
X168340Y109790D02*
G03X170129Y110780I0J2112D01*
G01X169441Y108916D02*
G03X168340Y109790I-1101J-256D01*
X169526Y110170I0J2041*
G01X168340Y109790D02*
G03X169403Y109866I0J7496D01*
G01X169351Y109592D02*
G03X168340Y109790I-1011J-2476D01*
G01X169352Y109301D02*
G03X168340Y109790I-1012J-800D01*
G01X143950Y119360D02*
X153520Y109790D01*
X170525*
X170866Y109449*
X146100Y124000D02*
G03X146117Y124072I0J38D01*
G01Y123928D02*
G03X146100Y124000I-17J34D01*
G01X143950Y119360D02*
Y121850D01*
X146100Y124000*
X146650*
X147179Y120636D02*
G03X147287Y120094I459J-191D01*
G01X147286Y120093D02*
G03X146744Y120201I-351J-351D01*
G01X147287Y120093D02*
X147030Y120350D01*
X169064Y125363D02*
G03X169368Y126900I-995J995D01*
G01X170601Y125667D02*
G03X169064Y125363I-542J-1299D01*
X169526Y126445I-1116J1116*
G01X169064Y125363D02*
G03X169697Y126192I-2777J2777D01*
G01X169893Y125996D02*
G03X169064Y125363I1947J-3409D01*
G01X170146Y125825D02*
G03X169064Y125363I33J-1578D01*
G01X146650Y120730D02*
X147840Y119540D01*
X149980*
X154370Y115150*
X164820*
X166710Y117040*
Y118700*
X167830Y119820*
Y124129*
X170866Y127165*
X149979Y117986D02*
G03X150010Y117890I31J-43D01*
X149979Y117794I0J-53*
G01X169064Y119458D02*
G03X169368Y120994I-995J995D01*
G01X170601Y119762D02*
G03X169064Y119458I-542J-1300D01*
X169526Y120540I-1116J1115*
G01X169064Y119458D02*
G03X169697Y120286I-2777J2776D01*
G01X169893Y120090D02*
G03X169064Y119458I1947J-3409D01*
G01X170146Y119919D02*
G03X169064Y119458I33J-1577D01*
G01X149450Y117890D02*
X150010D01*
X153870Y114030*
X165290*
X167830Y116570*
Y118224*
X170866Y121260*
X101387Y126539D02*
G03X101275Y125890I173J-364D01*
X100627Y125779I-285J-285*
G01X101168Y126190D02*
G03X101275Y125890I371J-36D01*
X100976Y125998I-264J-264*
G01X111100Y125890D02*
G03X111560Y126198I-0J497D01*
G01Y125582D02*
G03X111100Y125890I-460J-189D01*
G01X111463*
X100000Y127165D02*
X101275Y125890D01*
X112000*
X101498Y132805D02*
G03X101802Y131269I1300J-541D01*
X100265Y131573I-995J-996*
G01X101341Y132351D02*
G03X101802Y131269I1577J33D01*
G01X101169Y132097D02*
G03X101802Y131269I3410J1948D01*
X100974Y131901I-2776J-2777*
G01X101802Y131269D02*
G03X100720Y131730I-1115J-1116D01*
G01X112600Y127440D02*
G03X113060Y127748I-0J497D01*
G01Y127132D02*
G03X112600Y127440I-460J-189D01*
G01X112963*
X100000Y133071D02*
X105631Y127440D01*
X113500*
X101498Y138711D02*
G03X101802Y137174I1300J-542D01*
X100265Y137478I-995J-995*
G01X101341Y138256D02*
G03X101802Y137174I1577J34D01*
G01X101169Y138003D02*
G03X101802Y137174I3410J1948D01*
X100974Y137807I-2776J-2776*
G01X101802Y137174D02*
G03X100720Y137636I-1115J-1115D01*
G01X111100Y128990D02*
G03X111560Y129298I-0J497D01*
G01Y128682D02*
G03X111100Y128990I-460J-189D01*
G01X111463*
X100000Y138976D02*
X103030Y135946D01*
Y132470*
X106510Y128990*
X112000*
X116508Y131300D02*
G03X116200Y130840I189J-460D01*
X115892Y131300I-497J0*
G01X116200Y130840D02*
Y131203D01*
X136300Y109490D02*
G03X136608Y109031I497J0D01*
G01X135992D02*
G03X136300Y109490I-189J459D01*
G01Y109128*
X116200Y131740D02*
Y129900D01*
X119230Y126870*
Y116650*
X124950Y110930*
X135360*
X136300Y109990*
Y108590*
X119908Y131300D02*
G03X119600Y130840I189J-460D01*
X119292Y131300I-497J0*
G01X119600Y130840D02*
Y131203D01*
X147138Y109582D02*
G03X147805Y109307I665J666D01*
G01X147139Y109086D02*
G03X147138Y109582I-250J248D01*
G01X147348Y109285D02*
G03X147138Y109582I-964J-457D01*
G01X119600Y131740D02*
Y129970D01*
X121450Y128120*
Y117800*
X126130Y113120*
X136990*
X138370Y111740*
X144980*
X147600Y109120*
Y108810*
X123529Y131646D02*
G03X123637Y131104I459J-191D01*
G01X123636D02*
G03X123094Y131211I-351J-352D01*
G01X123637Y131104D02*
X123380Y131360D01*
X139564Y115077D02*
G03X140106Y114969I351J351D01*
G01X139671Y114534D02*
G03X139563Y115077I-459J191D01*
G01X139563D02*
X139820Y114820D01*
X123000Y131740D02*
X124550Y130190D01*
Y118300*
X127560Y115290*
X139350*
X140200Y114440*
X169064Y143080D02*
G03X169368Y144616I-995J995D01*
G01X170601Y143384D02*
G03X169064Y143080I-542J-1300D01*
X169526Y144162I-1116J1115*
G01X169064Y143080D02*
G03X169697Y143908I-2777J2776D01*
G01X169893Y143712D02*
G03X169064Y143080I1947J-3409D01*
G01X170146Y143541D02*
G03X169064Y143080I33J-1577D01*
G01X138200Y137350D02*
X142350Y133200D01*
X147280*
X154080Y140000*
X156400*
X157650Y141250*
X167234*
X170866Y144882*
X138200Y138791D02*
G03X137858Y139322I-583J0D01*
G01X138490Y139209D02*
G03X138200Y138791I156J-418D01*
G01Y139002*
Y137350D02*
Y139690D01*
X138250*
X135308Y139250D02*
G03X135000Y138790I189J-460D01*
X134692Y139250I-497J0*
G01X135000Y138790D02*
Y139153D01*
X168512Y138000D02*
G03X169352Y139127I-0J877D01*
G01X170495Y137501D02*
G03X168512Y138000I-1983J-3688D01*
X169364Y138732I-0J862*
G01X168512Y138000D02*
G03X169438Y138450I-0J1178D01*
G01X168512Y138000D02*
G03X169558Y138199I-0J2854D01*
G01X169756Y137936D02*
G03X168512Y138000I-1244J-12064D01*
G01X135000Y139690D02*
Y137146D01*
X140966Y131180*
X148105*
X154925Y138000*
X169890*
X170866Y138976*
X136935Y141240D02*
G03X136609Y140596I473J-644D01*
X136286Y140973I-382J0*
G01X136609Y140596D02*
G03X136574Y140959I-1891J0D01*
G01X157600Y139000D02*
G03X157631Y139411I-223J223D01*
G01X158011Y139031D02*
G03X157600Y139000I-188J-254D01*
G01X157770Y139170*
X136456Y141483D02*
X136609Y141330D01*
Y137127*
X141556Y132180*
X147690*
X154510Y139000*
X157600*
X158150Y139550*
X133829Y138346D02*
G03X133937Y137804I459J-191D01*
G01X133936D02*
G03X133394Y137911I-351J-352D01*
G01X133937Y137804D02*
X133680Y138060D01*
X169064Y134873D02*
G03X170601Y134569I995J995D01*
G01X169368Y133336D02*
G03X169064Y134873I-1299J542D01*
X170146Y134411I1115J1116*
G01X169064Y134873D02*
G03X169893Y134240I2776J2777D01*
G01X169697Y134044D02*
G03X169064Y134873I-3410J-1947D01*
G01X169526Y133791D02*
G03X169064Y134873I-1578J-33D01*
G01X133300Y138440D02*
X133971Y137769D01*
Y136755*
X140556Y130170*
X148510*
X155340Y137000*
X166937*
X170866Y133071*
X140054Y137740D02*
G03X139760Y137340I125J-400D01*
X139466Y137740I-419J0*
G01X139760Y137340D02*
Y137653D01*
X169064Y148985D02*
G03X169368Y150522I-995J995D01*
G01X170601Y149289D02*
G03X169064Y148985I-542J-1299D01*
X169526Y150067I-1116J1116*
G01X169064Y148985D02*
G03X169697Y149814I-2777J2777D01*
G01X169893Y149618D02*
G03X169064Y148985I1947J-3409D01*
G01X170146Y149447D02*
G03X169064Y148985I33J-1577D01*
G01X139760Y138190D02*
Y137340D01*
X142900Y134200*
X146850*
X153650Y141000*
X155850*
X157100Y142250*
X166750*
X167750Y143250*
Y147671*
X170866Y150787*
X101498Y144616D02*
G03X101802Y143080I1300J-541D01*
X100265Y143384I-995J-996*
G01X101341Y144162D02*
G03X101802Y143080I1577J33D01*
G01X101169Y143908D02*
G03X101802Y143080I3410J1948D01*
X100974Y143712I-2776J-2777*
G01X101802Y143080D02*
G03X100720Y143541I-1115J-1116D01*
G01X127350Y136040D02*
G03X127810Y136348I-0J497D01*
G01Y135732D02*
G03X127350Y136040I-460J-189D01*
G01X127713*
X100000Y144882D02*
X108842Y136040D01*
X128250*
X131637Y138990D02*
G03X131637I-1537J0D01*
G01X133337Y129330D02*
G03X133337I-1537J0D01*
G01X156037Y143750D02*
G03X156037I-1537J0D01*
G01X138037Y143790D02*
G03X138037I-1537J0D01*
G01X169816Y154793D02*
G03X169741Y154868I-75J0D01*
G01X169369*
X169366*
X101125*
G03X101050Y154793I0J-75*
G01Y153862*
G03X101125Y153787I75J0*
G01X102772*
X103022Y153537D02*
G03X102772Y153787I-250J0D01*
G01X103022Y153537D02*
Y147838D01*
Y147834*
Y147832*
Y143305*
G03X103044Y143252I75J0*
G01X109234Y137062*
G03X109287Y137040I53J53*
G01X127048*
G03X127104Y137065I0J75*
G01X129787Y136040D02*
G03X127104Y137065I-1537J0D01*
G01Y135015D02*
G03X129787Y136040I1146J1025D01*
G01X127104Y135015D02*
G03X127048Y135040I-56J-50D01*
G01X108842*
X108135Y135333D02*
G03X108842Y135040I707J707D01*
G01X108135Y135333D02*
X103150Y140318D01*
G03X103022Y140265I-53J-53*
G01Y137400*
G03X103044Y137347I75J-0*
G01X103737Y136653*
X104030Y135946D02*
G03X103737Y136653I-1000J0D01*
G01X104030Y135946D02*
Y132915D01*
G03X104052Y132862I75J0*
G01X106902Y130012*
G03X106955Y129990I53J53*
G01X110798*
G03X110854Y130015I0J75*
G01X113536Y129046D02*
G03X110854Y130015I-1536J-56D01*
G01X113536Y129046D02*
G03X113606Y128974I75J3D01*
G01X115037Y127440D02*
G03X113606Y128974I-1537J0D01*
G01X113924Y125962D02*
G03X115037Y127440I-424J1478D01*
G01X113924Y125962D02*
G03X113869Y125890I20J-72D01*
X113924Y125818I75J0*
G01X115037Y124340D02*
G03X113924Y125818I-1537J0D01*
G01Y122862D02*
G03X115037Y124340I-424J1478D01*
G01X113924Y122862D02*
G03X113869Y122790I20J-72D01*
X113924Y122718I75J0*
G01X115037Y121240D02*
G03X113924Y122718I-1537J0D01*
G01X112354Y120215D02*
G03X115037Y121240I1146J1025D01*
G01X112354Y120215D02*
G03X112298Y120240I-56J-50D01*
G01X106105*
G03X106052Y120218I0J-75*
G01X105472Y119638*
G03X105450Y119585I53J-53*
G01Y117790*
X105157Y117083D02*
G03X105450Y117790I-707J707D01*
G01X105157Y117083D02*
X104062Y115988D01*
G03X104040Y115935I53J-53*
G01Y112489*
X103747Y111782D02*
G03X104040Y112489I-707J707D01*
G01X103747Y111782D02*
X103044Y111079D01*
G03X103022Y111026I53J-53*
G01Y106499*
X102772Y106249D02*
G03X103022Y106499I0J250D01*
G01X102772Y106249D02*
X101125D01*
G03X101050Y106174I0J-75*
G01Y101125*
G03X101125Y101050I75J0*
G01X167769*
G03X167844Y101125I0J75*
G01Y105120*
G03X167822Y105173I-75J0*
G01X167377Y105618*
G03X167324Y105640I-53J-53*
G01X153615*
X152908Y105933D02*
G03X153615Y105640I707J707D01*
G01X152908Y105933D02*
X142383Y116458D01*
G03X142330Y116480I-53J-53*
G01X130250*
X129543Y116773D02*
G03X130250Y116480I707J707D01*
G01X129543Y116773D02*
X128154Y118162D01*
G03X128062Y118172I-53J-53*
G01X125713Y119478D02*
G03X128062Y118172I1537J-0D01*
G01X128415Y120481D02*
G03X125713Y119478I-1165J-1003D01*
G01X128415Y120481D02*
G03X128456Y120457I57J49D01*
G01X128959Y120185D02*
G03X128456Y120457I-707J-707D01*
G01X128959Y120185D02*
X130642Y118502D01*
G03X130695Y118480I53J53*
G01X130772*
G03X130847Y118555I0J75*
X130844Y118578I-75J0*
G01X130773Y119040D02*
G03X130844Y118578I1537J0D01*
G01X133847Y119040D02*
G03X130773I-1537J0D01*
G01X133776Y118578D02*
G03X133847Y119040I-1466J462D01*
G01X133776Y118578D02*
G03X133773Y118555I72J-23D01*
X133848Y118480I75J0*
G01X142775*
X143482Y118187D02*
G03X142775Y118480I-707J-707D01*
G01X143482Y118187D02*
X154007Y107662D01*
G03X154060Y107640I53J53*
G01X167769*
G03X167844Y107715I0J75*
G01Y108715*
G03X167769Y108790I-75J0*
G01X153520*
X152813Y109083D02*
G03X153520Y108790I707J707D01*
G01X152813Y109083D02*
X143243Y118653D01*
X142950Y119360D02*
G03X143243Y118653I1000J0D01*
G01X142950Y119360D02*
Y121850D01*
X143243Y122557D02*
G03X142950Y121850I707J-707D01*
G01X143243Y122557D02*
X145190Y124504D01*
G03X145207Y124531I-53J53*
G01X148187Y124000D02*
G03X145207Y124531I-1537J0D01*
G01X146129Y122554D02*
G03X148187Y124000I521J1446D01*
G01X146129Y122554D02*
G03X146050Y122536I-26J-71D01*
G01X144972Y121458*
G03X144950Y121405I53J-53*
G01Y119805*
G03X144972Y119752I75J0*
G01X152676Y112049*
G03X152795Y112066I53J53*
G01X155542Y111993D02*
G03X152795Y112066I-1392J-653D01*
G01X155542Y111993D02*
G03X155610Y111950I68J32D01*
G01X166017*
G03X166070Y111972I-0J75*
G01X167822Y113725*
G03X167844Y113778I-53J53*
G01Y114989*
G03X167716Y115042I-75J-0*
G01X165997Y113323*
X165290Y113030D02*
G03X165997Y113323I-0J1000D01*
G01X165290Y113030D02*
X153870D01*
X153163Y113323D02*
G03X153870Y113030I707J707D01*
G01X153163Y113323D02*
X150057Y116429D01*
G03X149978Y116446I-53J-53*
G01X147913Y117890D02*
G03X149978Y116446I1537J0D01*
G01X147913Y117890D02*
X147913D01*
X148014Y118438D02*
G03X147913Y117890I1436J-548D01*
G01X148014Y118438D02*
G03X148019Y118465I-70J27D01*
X147944Y118540I-75J0*
G01X147840*
X147133Y118833D02*
G03X147840Y118540I707J707D01*
G01X147133Y118833D02*
X146793Y119173D01*
G03X146735Y119195I-53J-53*
G01X145113Y120730D02*
G03X146735Y119195I1537J0D01*
G01X148187Y120730D02*
G03X145113I-1537J0D01*
G01X148185Y120645D02*
G03X148187Y120730I-1535J85D01*
G01X148185Y120645D02*
G03Y120640I75J-5D01*
G01X148185*
G03X148207Y120587I75J0*
G01X148232Y120562*
G03X148285Y120540I53J53*
G01X149980*
X150687Y120247D02*
G03X149980Y120540I-707J-707D01*
G01X150687Y120247D02*
X154762Y116172D01*
G03X154815Y116150I53J53*
G01X164375*
G03X164428Y116172I-0J75*
G01X165688Y117432*
G03X165710Y117485I-53J53*
G01Y118700*
X166003Y119407D02*
G03X165710Y118700I707J-707D01*
G01X166003Y119407D02*
X166808Y120212D01*
G03X166830Y120265I-53J53*
G01Y124129*
X167123Y124836D02*
G03X166830Y124129I707J-707D01*
G01X167123Y124836D02*
X167822Y125536D01*
G03X167844Y125589I-53J53*
G01Y130115*
Y130118*
Y130121*
Y134648*
G03X167822Y134701I-75J-0*
G01X166545Y135978*
G03X166492Y136000I-53J-53*
G01X155785*
G03X155732Y135978I0J-75*
G01X149217Y129463*
X148510Y129170D02*
G03X149217Y129463I-0J1000D01*
G01X148510Y129170D02*
X140556D01*
X139849Y129463D02*
G03X140556Y129170I707J707D01*
G01X139849Y129463D02*
X133264Y136048D01*
X132971Y136755D02*
G03X133264Y136048I1000J0D01*
G01X132971Y136755D02*
Y136879D01*
G03X132915Y136952I-75J0*
G01X131763Y138440D02*
G03X132915Y136952I1537J0D01*
G01X133422Y139973D02*
G03X131763Y138440I-122J-1533D01*
G01X133422Y139973D02*
G03X133501Y140031I6J75D01*
G01X136537Y139690D02*
G03X133501Y140031I-1537J0D01*
G01X136025Y138544D02*
G03X136537Y139690I-1025J1146D01*
G01X136025Y138544D02*
G03X136000Y138488I50J-56D01*
G01Y137591*
G03X136022Y137538I75J0*
G01X141358Y132202*
G03X141411Y132180I53J53*
G01X141837*
G03X141912Y132255I0J75*
X141873Y132321I-75J0*
G01X141643Y132493D02*
G03X141873Y132321I707J707D01*
G01X141643Y132493D02*
X137493Y136643D01*
X137200Y137350D02*
G03X137493Y136643I1000J0D01*
G01X137200Y137350D02*
Y138535D01*
G03X137177Y138589I-75J0*
G01X137131Y138636D02*
G03X137177Y138589I1119J1054D01*
G01X137131Y138636D02*
X137127Y138640D01*
X136713Y139690D02*
G03X137127Y138640I1537J0D01*
G01X139784Y139794D02*
G03X136713Y139690I-1534J-104D01*
G01X139784Y139794D02*
G03X139854Y139725I75J6D01*
G01X141297Y138190D02*
G03X139854Y139725I-1537J0D01*
G01X141119Y137471D02*
G03X141297Y138190I-1359J719D01*
G01X141119Y137471D02*
G03X141132Y137382I66J-36D01*
G01X143292Y135222*
G03X143345Y135200I53J53*
G01X146405*
G03X146458Y135222I-0J75*
G01X152943Y141707*
X153650Y142000D02*
G03X152943Y141707I0J-1000D01*
G01X153650Y142000D02*
X155405D01*
G03X155458Y142022I-0J75*
G01X156393Y142957*
X157100Y143250D02*
G03X156393Y142957I0J-1000D01*
G01X157100Y143250D02*
X166305D01*
G03X166358Y143272I-0J75*
G01X166728Y143642*
G03X166750Y143695I-53J53*
G01Y147671*
X167043Y148378D02*
G03X166750Y147671I707J-707D01*
G01X167043Y148378D02*
X167822Y149158D01*
G03X167844Y149211I-53J53*
G01Y153537*
X168094Y153787D02*
G03X167844Y153537I0J-250D01*
G01X168094Y153787D02*
X169741D01*
G03X169816Y153862I0J75*
G01Y154793*
X167844Y140317D02*
G03X167732Y140383I-75J0D01*
G01X167234Y140250D02*
G03X167732Y140383I0J1000D01*
G01X167234Y140250D02*
X158095D01*
G03X158042Y140228I0J-75*
G01X157107Y139293*
X156910Y139140D02*
G03X157107Y139293I-510J860D01*
G01X156910Y139140D02*
G03X156873Y139075I38J-65D01*
X156948Y139000I75J0*
G01X167769*
G03X167844Y139075I0J75*
G01Y140317*
X131637Y138990D02*
G03X131637I-1537J0D01*
G01X146337Y107934D02*
G03X149137Y108810I1263J876D01*
G01X146337Y107934D02*
G03X146200Y107891I-62J-43D01*
X146207Y107861I75J-0*
G01X146337Y107240D02*
G03X146207Y107861I-1537J0D01*
G01X144715Y105705D02*
G03X146337Y107240I85J1535D01*
G01X144715Y105705D02*
G03X144657Y105683I-5J-75D01*
G01X141517Y102543*
X140810Y102250D02*
G03X141517Y102543I-0J1000D01*
G01X140810Y102250D02*
X113990D01*
X113283Y102543D02*
G03X113990Y102250I707J707D01*
G01X113283Y102543D02*
X111153Y104673D01*
G03X111095Y104695I-53J-53*
G01X109473Y106230D02*
G03X111095Y104695I1537J0D01*
G01X112547Y106230D02*
G03X109473I-1537J0D01*
G01X112545Y106145D02*
G03X112547Y106230I-1535J85D01*
G01X112545Y106145D02*
G03Y106141I75J-4D01*
G01X112545*
G03X112567Y106088I75J-0*
G01X114382Y104272*
G03X114435Y104250I53J53*
G01X140365*
G03X140418Y104272I-0J75*
G01X143243Y107098*
G03X143265Y107151I-53J53*
G01X143265*
G03Y107155I-75J-0*
G01X143263Y107240D02*
G03X143265Y107155I1537J0D01*
G01X143377Y107823D02*
G03X143263Y107240I1423J-583D01*
G01X143377Y107823D02*
G03X143383Y107852I-69J29D01*
X143382Y107865I-75J-0*
X143410Y107897I-40J64*
G01X146063Y108117D02*
G03X143410Y107897I-1263J-877D01*
G01X146063Y108117D02*
G03X146200Y108159I62J42D01*
X146193Y108190I-75J0*
G01X146063Y108810D02*
G03X146193Y108190I1537J0D01*
G01X146102Y109155D02*
G03X146063Y108810I1498J-345D01*
G01X146102Y109155D02*
G03X146104Y109171I-73J16D01*
X146082Y109224I-75J0*
G01X144588Y110718*
G03X144535Y110740I-53J-53*
G01X138370*
X137663Y111033D02*
G03X138370Y110740I707J707D01*
G01X137663Y111033D02*
X136598Y112098D01*
G03X136545Y112120I-53J-53*
G01X126130*
X125423Y112413D02*
G03X126130Y112120I707J707D01*
G01X125423Y112413D02*
X120743Y117093D01*
X120450Y117800D02*
G03X120743Y117093I1000J0D01*
G01X120450Y117800D02*
Y127675D01*
G03X120428Y127728I-75J-0*
G01X118893Y129263*
X118600Y129970D02*
G03X118893Y129263I1000J0D01*
G01X118600Y129970D02*
Y130538D01*
G03X118575Y130594I-75J0*
G01X118063Y131740D02*
G03X118575Y130594I1537J0D01*
G01X121137Y131740D02*
G03X118063I-1537J0D01*
G01X120625Y130594D02*
G03X121137Y131740I-1025J1146D01*
G01X120625Y130594D02*
G03X120600Y130538I50J-56D01*
G01Y130415*
G03X120622Y130362I75J0*
G01X122157Y128827*
X122450Y128120D02*
G03X122157Y128827I-1000J0D01*
G01X122450Y128120D02*
Y118245D01*
G03X122472Y118192I75J0*
G01X126522Y114142*
G03X126575Y114120I53J53*
G01X136990*
X137697Y113827D02*
G03X136990Y114120I-707J-707D01*
G01X137697Y113827D02*
X138762Y112762D01*
G03X138815Y112740I53J53*
G01X144980*
X145687Y112447D02*
G03X144980Y112740I-707J-707D01*
G01X145687Y112447D02*
X147782Y110352D01*
G03X147824Y110331I53J53*
G01X149137Y108810D02*
G03X147824Y110331I-1537J0D01*
G01X143273Y107957D02*
G03X143387Y108540I-1423J583D01*
G01X143273Y107957D02*
G03X143267Y107929I69J-28D01*
X143268Y107915I75J-0*
X143240Y107884I40J-63*
G01X141643Y107017D02*
G03X143240Y107884I207J1523D01*
G01X141643Y107017D02*
G03X141580Y106995I-10J-75D01*
G01X139367Y104783*
X138660Y104490D02*
G03X139367Y104783I-0J1000D01*
G01X138660Y104490D02*
X117050D01*
X116449Y104691D02*
G03X117050Y104490I601J799D01*
G01X116449Y104691D02*
G03X116399Y104706I-45J-60D01*
G01X114763Y106240D02*
G03X116399Y104706I1537J0D01*
G01X117806Y106550D02*
G03X114763Y106240I-1506J-310D01*
G01X117806Y106550D02*
G03X117879Y106490I73J15D01*
G01X138215*
G03X138268Y106512I-0J75*
G01X140291Y108536*
G03X140313Y108587I-53J53*
G01X140361Y108924D02*
G03X140313Y108587I1489J-384D01*
G01X140361Y108924D02*
X140361D01*
X140364Y108934D02*
G03X140361Y108924I966J-258D01*
G01X140364Y108934D02*
X140364D01*
X143387Y108540D02*
G03X140364Y108934I-1537J0D01*
G01X137837Y108590D02*
X137837D01*
X134763D02*
G03X137837I1537J0D01*
G01X135157Y109618D02*
G03X134763Y108590I1143J-1028D01*
G01X135157Y109618D02*
G03X135154Y109722I-56J51D01*
G01X134968Y109908*
G03X134915Y109930I-53J-53*
G01X124950*
X124243Y110223D02*
G03X124950Y109930I707J707D01*
G01X124243Y110223D02*
X118523Y115943D01*
X118230Y116650D02*
G03X118523Y115943I1000J0D01*
G01X118230Y116650D02*
Y126425D01*
G03X118208Y126478I-75J-0*
G01X115493Y129193*
X115200Y129900D02*
G03X115493Y129193I1000J0D01*
G01X115200Y129900D02*
Y130538D01*
G03X115175Y130594I-75J0*
G01X114663Y131740D02*
G03X115175Y130594I1537J0D01*
G01X117737Y131740D02*
G03X114663I-1537J0D01*
G01X117225Y130594D02*
G03X117737Y131740I-1025J1146D01*
G01X117225Y130594D02*
G03X117200Y130538I50J-56D01*
G01Y130345*
G03X117222Y130292I75J0*
G01X119937Y127577*
X120230Y126870D02*
G03X119937Y127577I-1000J0D01*
G01X120230Y126870D02*
Y117095D01*
G03X120252Y117042I75J0*
G01X125342Y111952*
G03X125395Y111930I53J53*
G01X135360*
X136067Y111637D02*
G03X135360Y111930I-707J-707D01*
G01X136067Y111637D02*
X137007Y110697D01*
X137300Y109990D02*
G03X137007Y110697I-1000J0D01*
G01X137300Y109990D02*
Y109792D01*
G03X137325Y109736I75J-0*
G01X137837Y108590D02*
G03X137325Y109736I-1537J0D01*
G01X132774Y106688D02*
G03X134637Y108190I326J1502D01*
G01X132774Y106688D02*
X132774D01*
X132767Y106689D02*
G03X132774Y106688I218J976D01*
G01X132767Y106689D02*
X132766D01*
X132449Y106797D02*
G03X132766Y106689I651J1393D01*
G01X132449Y106797D02*
G03X132435Y106802I-31J-68D01*
X132279Y106820I-156J-665*
G01X124620*
X123913Y107113D02*
G03X124620Y106820I707J707D01*
G01X123913Y107113D02*
X115793Y115233D01*
X115500Y115940D02*
G03X115793Y115233I1000J0D01*
G01X115500Y115940D02*
Y116638D01*
G03X115475Y116694I-75J0*
G01X114963Y117840D02*
G03X115475Y116694I1537J0D01*
G01X118037Y117840D02*
G03X114963I-1537J0D01*
G01X117525Y116694D02*
G03X118037Y117840I-1025J1146D01*
G01X117525Y116694D02*
G03X117500Y116638I50J-56D01*
G01Y116385*
G03X117522Y116332I75J0*
G01X125012Y108842*
G03X125065Y108820I53J53*
G01X131650*
G03X131717Y108862I-0J75*
G01X134637Y108190D02*
G03X131717Y108862I-1537J0D01*
G01X138678Y114226D02*
G03X141737Y114440I1522J214D01*
G01X138678Y114226D02*
G03X138603Y114290I-75J-11D01*
G01X127560*
X126853Y114583D02*
G03X127560Y114290I707J707D01*
G01X126853Y114583D02*
X123843Y117593D01*
X123550Y118300D02*
G03X123843Y117593I1000J0D01*
G01X123550Y118300D02*
Y129745D01*
G03X123528Y129798I-75J-0*
G01X123143Y130183*
G03X123085Y130205I-53J-53*
G01X121463Y131740D02*
G03X123085Y130205I1537J0D01*
G01X124537Y131740D02*
G03X121463I-1537J0D01*
G01X124535Y131655D02*
G03X124537Y131740I-1535J85D01*
G01X124535Y131655D02*
G03Y131651I75J-4D01*
G01X124535*
G03X124557Y131598I75J-0*
G01X125257Y130897*
X125550Y130190D02*
G03X125257Y130897I-1000J0D01*
G01X125550Y130190D02*
Y118745D01*
G03X125572Y118692I75J0*
G01X127952Y116312*
G03X128005Y116290I53J53*
G01X139350*
X140057Y115997D02*
G03X139350Y116290I-707J-707D01*
G01X140057Y115997D02*
X140057D01*
G03X140115Y115975I53J53*
G01X141737Y114440D02*
G03X140115Y115975I-1537J0D01*
G01X133337Y129330D02*
G03X133337I-1537J0D01*
G01X156037Y143750D02*
G03X156037I-1537J0D01*
G01X144305Y141315D02*
Y141155D01*
X144232Y140978D02*
G03X144305Y141155I-177J177D01*
G01X144232Y140978D02*
X143281Y140027D01*
X143104Y139954D02*
G03X143281Y140027I-0J250D01*
G01X143104Y139954D02*
X142929D01*
X142752Y140027D02*
G03X142929Y139954I177J177D01*
G01X142752Y140027D02*
X140443Y142338D01*
X140370Y142515D02*
G03X140443Y142338I250J-0D01*
G01X140370Y142515D02*
Y144190D01*
X140443Y144367D02*
G03X140370Y144190I177J-177D01*
G01X140443Y144367D02*
X141023Y144947D01*
X141200Y145020D02*
G03X141023Y144947I0J-250D01*
G01X141200Y145020D02*
X142010D01*
X142187Y144947D02*
G03X142010Y145020I-177J-177D01*
G01X142187Y144947D02*
X142777Y144357D01*
X142850Y144180D02*
G03X142777Y144357I-250J-0D01*
G01X142850Y144180D02*
Y142905D01*
G03X142872Y142852I75J-0*
G01X144232Y141492*
X144305Y141315D02*
G03X144232Y141492I-250J-0D01*
G01X138037Y143790D02*
G03X138037I-1537J0D01*
G01X101050Y154599D02*
X169816D01*
X101050Y154149D02*
X169816D01*
X102963Y153699D02*
X167903D01*
X103022Y153249D02*
X167844D01*
X103022Y152799D02*
X167844D01*
X103022Y152349D02*
X167844D01*
X103022Y151899D02*
X167844D01*
X103022Y151449D02*
X167844D01*
X103022Y150999D02*
X167844D01*
X103022Y150549D02*
X167844D01*
X103022Y150099D02*
X167844D01*
X103022Y149649D02*
X167844D01*
X154103Y134349D02*
X167844D01*
X153653Y133899D02*
X167844D01*
X153203Y133449D02*
X167844D01*
X152753Y132999D02*
X167844D01*
X152303Y132549D02*
X167844D01*
X151853Y132099D02*
X167844D01*
X151403Y131649D02*
X167844D01*
X150953Y131199D02*
X167844D01*
X150503Y130749D02*
X167844D01*
X150053Y130299D02*
X167844D01*
X149603Y129849D02*
X167844D01*
X149146Y129399D02*
X167844D01*
X133289Y128949D02*
X167844D01*
X133093Y128499D02*
X167844D01*
X132649Y128049D02*
X167844D01*
X125550Y127599D02*
X167844D01*
X125550Y127149D02*
X167844D01*
X125550Y126699D02*
X167844D01*
X125550Y126249D02*
X167844D01*
X125550Y125799D02*
X167844D01*
X167223Y114549D02*
X167844D01*
X166773Y114099D02*
X167844D01*
X152970Y108699D02*
X167844D01*
X153420Y108249D02*
X167844D01*
X153870Y107799D02*
X167844D01*
X144073Y105099D02*
X167844D01*
X143623Y104649D02*
X167844D01*
X143173Y104199D02*
X167844D01*
X142723Y103749D02*
X167844D01*
X142273Y103299D02*
X167844D01*
X141823Y102849D02*
X167844D01*
X141334Y102399D02*
X167844D01*
X101050Y101949D02*
X167844D01*
X101050Y101499D02*
X167844D01*
X167673Y114999D02*
X167843D01*
X103022Y149199D02*
X167843D01*
X166323Y113649D02*
X167746D01*
X154553Y134799D02*
X167724D01*
X147388Y125349D02*
X167635D01*
X144523Y105549D02*
X167446D01*
X103022Y148749D02*
X167413D01*
X165846Y113199D02*
X167296D01*
X155003Y135249D02*
X167274D01*
X147897Y124899D02*
X167185D01*
X103022Y148299D02*
X166971D01*
X148120Y124449D02*
X166882D01*
X154766Y112749D02*
X166846D01*
X148187Y123999D02*
X166830D01*
X148120Y123549D02*
X166830D01*
X147896Y123099D02*
X166830D01*
X147383Y122649D02*
X166830D01*
X147104Y122199D02*
X166830D01*
X147801Y121749D02*
X166830D01*
X148078Y121299D02*
X166830D01*
X148183Y120849D02*
X166830D01*
X150493Y120399D02*
X166830D01*
X155453Y135699D02*
X166824D01*
X103022Y147849D02*
X166766D01*
X103022Y147399D02*
X166750D01*
X103022Y146949D02*
X166750D01*
X103022Y146499D02*
X166750D01*
X103022Y146049D02*
X166750D01*
X103022Y145599D02*
X166750D01*
X155138Y145149D02*
X166750D01*
X155710Y144699D02*
X166750D01*
X155954Y144249D02*
X166750D01*
X156037Y143799D02*
X166750D01*
X150986Y119949D02*
X166544D01*
X155984Y143349D02*
X166434D01*
X155352Y112299D02*
X166396D01*
X151436Y119499D02*
X166094D01*
X151886Y119049D02*
X165773D01*
X152336Y118599D02*
X165710D01*
X152786Y118149D02*
X165710D01*
X153236Y117699D02*
X165710D01*
X153686Y117249D02*
X165504D01*
X154136Y116799D02*
X165054D01*
X154586Y116349D02*
X164604D01*
X155780Y142899D02*
X156334D01*
X155319Y142449D02*
X155884D01*
X137220Y145149D02*
X153862D01*
X143275Y142449D02*
X153681D01*
X143725Y141999D02*
X153599D01*
X151976Y112749D02*
X153534D01*
X151526Y113199D02*
X153314D01*
X142435Y144699D02*
X153290D01*
X142850Y142899D02*
X153220D01*
X142840Y144249D02*
X153046D01*
X142850Y143349D02*
X153016D01*
X142850Y143799D02*
X152963D01*
X152426Y112299D02*
X152948D01*
X145707Y105999D02*
X152842D01*
X151076Y113649D02*
X152837D01*
X144175Y141549D02*
X152784D01*
X152520Y109149D02*
X152747D01*
X146118Y106449D02*
X152392D01*
X150626Y114099D02*
X152387D01*
X144299Y141099D02*
X152334D01*
X152070Y109599D02*
X152297D01*
X146299Y106899D02*
X151942D01*
X150176Y114549D02*
X151937D01*
X143902Y140649D02*
X151884D01*
X151620Y110049D02*
X151847D01*
X148077Y107349D02*
X151492D01*
X149726Y114999D02*
X151487D01*
X143452Y140199D02*
X151434D01*
X151170Y110499D02*
X151397D01*
X148758Y107799D02*
X151042D01*
X149276Y115449D02*
X151037D01*
X139804Y139749D02*
X150984D01*
X150720Y110949D02*
X150947D01*
X149031Y108249D02*
X150592D01*
X148826Y115899D02*
X150587D01*
X140825Y139299D02*
X150534D01*
X150270Y111399D02*
X150497D01*
X149133Y108699D02*
X150142D01*
X148376Y116349D02*
X150137D01*
X141149Y138849D02*
X150084D01*
X149820Y111849D02*
X150047D01*
X149100Y109149D02*
X149692D01*
X141283Y138399D02*
X149634D01*
X149370Y112299D02*
X149597D01*
X148920Y109599D02*
X149242D01*
X141278Y137949D02*
X149184D01*
X148920Y112749D02*
X149147D01*
X148511Y110049D02*
X148792D01*
X141133Y137499D02*
X148734D01*
X148470Y113199D02*
X148697D01*
X147926Y116799D02*
X148367D01*
X147636Y110499D02*
X148342D01*
X141466Y137049D02*
X148284D01*
X148020Y113649D02*
X148247D01*
X147476Y117249D02*
X148053D01*
X146576Y118149D02*
X147934D01*
X147026Y117699D02*
X147925D01*
X147186Y110949D02*
X147892D01*
X141916Y136599D02*
X147834D01*
X147570Y114099D02*
X147797D01*
X146126Y118599D02*
X147503D01*
X146736Y111399D02*
X147442D01*
X142366Y136149D02*
X147384D01*
X147120Y114549D02*
X147347D01*
X146334Y107349D02*
X147123D01*
X146286Y111849D02*
X146992D01*
X142816Y135699D02*
X146934D01*
X145676Y119049D02*
X146917D01*
X146670Y114999D02*
X146897D01*
X145836Y112299D02*
X146542D01*
X143266Y135249D02*
X146484D01*
X146220Y115449D02*
X146447D01*
X146232Y107799D02*
X146442D01*
X145713Y122199D02*
X146196D01*
X145960Y108249D02*
X146169D01*
X143262Y109149D02*
X146100D01*
X138781Y112749D02*
X146092D01*
X145286Y108699D02*
X146067D01*
X145770Y115899D02*
X145997D01*
X125550Y125349D02*
X145912D01*
X145226Y119499D02*
X145729D01*
X142965Y109599D02*
X145707D01*
X141107Y113199D02*
X145642D01*
X145320Y116349D02*
X145547D01*
X145263Y121749D02*
X145499D01*
X125550Y124899D02*
X145403D01*
X144950Y119949D02*
X145326D01*
X142147Y110049D02*
X145257D01*
X144950Y121299D02*
X145222D01*
X141518Y113649D02*
X145192D01*
X144950Y120399D02*
X145149D01*
X125550Y124449D02*
X145134D01*
X144950Y120849D02*
X145117D01*
X144870Y116799D02*
X145097D01*
X137161Y110499D02*
X144807D01*
X141699Y114099D02*
X144742D01*
X125550Y123999D02*
X144684D01*
X144420Y117249D02*
X144647D01*
X143379Y108699D02*
X144314D01*
X141734Y114549D02*
X144292D01*
X125550Y123549D02*
X144234D01*
X143970Y117699D02*
X144197D01*
X141632Y114999D02*
X143842D01*
X125550Y123099D02*
X143784D01*
X143520Y118149D02*
X143747D01*
X143360Y108249D02*
X143640D01*
X141360Y115449D02*
X143392D01*
X143197Y107799D02*
X143368D01*
X125550Y122649D02*
X143334D01*
X133783Y118599D02*
X143297D01*
X142822Y107349D02*
X143266D01*
X141483Y106899D02*
X143044D01*
X125550Y122199D02*
X143013D01*
X133847Y119049D02*
X143000D01*
X125550Y121749D02*
X142950D01*
X125550Y121299D02*
X142950D01*
X127946Y120849D02*
X142950D01*
X133030Y120399D02*
X142950D01*
X133550Y119949D02*
X142950D01*
X133777Y119499D02*
X142950D01*
X140686Y115899D02*
X142942D01*
X141033Y106449D02*
X142594D01*
X139701Y140199D02*
X142581D01*
X127916Y116349D02*
X142492D01*
X140583Y105999D02*
X142144D01*
X139452Y140649D02*
X142131D01*
X140133Y105549D02*
X141694D01*
X138866Y141099D02*
X141681D01*
X141011Y132549D02*
X141587D01*
X137298Y110049D02*
X141553D01*
X139683Y105099D02*
X141244D01*
X104747Y141549D02*
X141232D01*
X140561Y132999D02*
X141137D01*
X139200Y104649D02*
X140794D01*
X104297Y141999D02*
X140782D01*
X137740Y144699D02*
X140775D01*
X137460Y109599D02*
X140735D01*
X140111Y133449D02*
X140687D01*
X137732Y109149D02*
X140438D01*
X137251Y142449D02*
X140379D01*
X137967Y144249D02*
X140377D01*
X138037Y143799D02*
X140370D01*
X137973Y143349D02*
X140370D01*
X137753Y142899D02*
X140370D01*
X137834Y108699D02*
X140321D01*
X139661Y133899D02*
X140237D01*
X137799Y108249D02*
X140004D01*
X133336Y129399D02*
X139919D01*
X139211Y134349D02*
X139787D01*
X137618Y107799D02*
X139554D01*
X133247Y129849D02*
X139463D01*
X138761Y134799D02*
X139337D01*
X138326Y113199D02*
X139293D01*
X137207Y107349D02*
X139104D01*
X132994Y130299D02*
X139013D01*
X138311Y135249D02*
X138887D01*
X137876Y113649D02*
X138882D01*
X137196Y114099D02*
X138701D01*
X133934Y106899D02*
X138654D01*
X132393Y130749D02*
X138563D01*
X137861Y135699D02*
X138437D01*
X124956Y131199D02*
X138113D01*
X137411Y136149D02*
X137987D01*
X136756Y110949D02*
X137759D01*
X124535Y131649D02*
X137663D01*
X135616Y141099D02*
X137634D01*
X136961Y136599D02*
X137537D01*
X136306Y111399D02*
X137297D01*
X136511Y137049D02*
X137246D01*
X124495Y132099D02*
X137213D01*
X136000Y138399D02*
X137200D01*
X136000Y137949D02*
X137200D01*
X136061Y137499D02*
X137200D01*
X136202Y140649D02*
X137048D01*
X136287Y138849D02*
X136963D01*
X135755Y111849D02*
X136847D01*
X136451Y140199D02*
X136799D01*
X136487Y139299D02*
X136763D01*
X124308Y132549D02*
X136763D01*
X136536Y139749D02*
X136714D01*
X123883Y132999D02*
X136313D01*
X104030Y133449D02*
X135863D01*
X103022Y145149D02*
X135780D01*
X103847Y142449D02*
X135749D01*
X104030Y133899D02*
X135413D01*
X134387Y107349D02*
X135393D01*
X103022Y144699D02*
X135260D01*
X103397Y142899D02*
X135247D01*
X133716Y109599D02*
X135140D01*
X103022Y144249D02*
X135033D01*
X103022Y143349D02*
X135027D01*
X134587Y107799D02*
X134982D01*
X104030Y134349D02*
X134963D01*
X103022Y143799D02*
X134963D01*
X134302Y109149D02*
X134868D01*
X134636Y108249D02*
X134801D01*
X134551Y108699D02*
X134766D01*
X129157Y134799D02*
X134513D01*
X105197Y141099D02*
X134384D01*
X129568Y135249D02*
X134063D01*
X105647Y140649D02*
X133798D01*
X129749Y135699D02*
X133613D01*
X131050Y140199D02*
X133549D01*
X129784Y136149D02*
X133176D01*
X129682Y136599D02*
X132983D01*
X129410Y137049D02*
X132646D01*
X131437Y139749D02*
X132493D01*
X124256Y109599D02*
X132484D01*
X130473Y137499D02*
X132085D01*
X131606Y139299D02*
X132025D01*
X124706Y109149D02*
X131898D01*
X131231Y137949D02*
X131843D01*
X131631Y138849D02*
X131818D01*
X131519Y138399D02*
X131763D01*
X128642Y120399D02*
X131590D01*
X125379Y130749D02*
X131207D01*
X129196Y119949D02*
X131070D01*
X125550Y128049D02*
X130951D01*
X129646Y119499D02*
X130843D01*
X130546Y118599D02*
X130837D01*
X130096Y119049D02*
X130773D01*
X125544Y130299D02*
X130606D01*
X125550Y128499D02*
X130507D01*
X125550Y129849D02*
X130353D01*
X125550Y128949D02*
X130311D01*
X125550Y129399D02*
X130264D01*
X128736Y137499D02*
X129727D01*
X127466Y116799D02*
X129517D01*
X106097Y140199D02*
X129150D01*
X127016Y117249D02*
X129067D01*
X108347Y137949D02*
X128969D01*
X106547Y139749D02*
X128763D01*
X107897Y138399D02*
X128681D01*
X126566Y117699D02*
X128617D01*
X106997Y139299D02*
X128594D01*
X107447Y138849D02*
X128569D01*
X128023Y118149D02*
X128167D01*
X108797Y137499D02*
X127764D01*
X104030Y134799D02*
X127343D01*
X109252Y137049D02*
X127083D01*
X126116Y114549D02*
X126889D01*
X125550Y120849D02*
X126554D01*
X126116Y118149D02*
X126477D01*
X125666Y114999D02*
X126437D01*
X125550Y120399D02*
X126019D01*
X125666Y118599D02*
X125989D01*
X125216Y115449D02*
X125987D01*
X125550Y119949D02*
X125786D01*
X125550Y119049D02*
X125774D01*
X125550Y119499D02*
X125713D01*
X124996Y112299D02*
X125560D01*
X124766Y115899D02*
X125537D01*
X124316Y116349D02*
X125087D01*
X124546Y112749D02*
X125087D01*
X123866Y116799D02*
X124637D01*
X124096Y113199D02*
X124637D01*
X123806Y110049D02*
X124478D01*
X117689Y106899D02*
X124231D01*
X123416Y117249D02*
X124187D01*
X123646Y113649D02*
X124187D01*
X123356Y110499D02*
X123967D01*
X122966Y117699D02*
X123751D01*
X123196Y114099D02*
X123737D01*
X117365Y107349D02*
X123677D01*
X122516Y118149D02*
X123562D01*
X121586Y129399D02*
X123550D01*
X122036Y128949D02*
X123550D01*
X122376Y128499D02*
X123550D01*
X122450Y128049D02*
X123550D01*
X122450Y127599D02*
X123550D01*
X122450Y127149D02*
X123550D01*
X122450Y126699D02*
X123550D01*
X122450Y126249D02*
X123550D01*
X122450Y125799D02*
X123550D01*
X122450Y125349D02*
X123550D01*
X122450Y124899D02*
X123550D01*
X122450Y124449D02*
X123550D01*
X122450Y123999D02*
X123550D01*
X122450Y123549D02*
X123550D01*
X122450Y123099D02*
X123550D01*
X122450Y122649D02*
X123550D01*
X122450Y122199D02*
X123550D01*
X122450Y121749D02*
X123550D01*
X122450Y121299D02*
X123550D01*
X122450Y120849D02*
X123550D01*
X122450Y120399D02*
X123550D01*
X122450Y119949D02*
X123550D01*
X122450Y119499D02*
X123550D01*
X122450Y119049D02*
X123550D01*
X122450Y118599D02*
X123550D01*
X122906Y110949D02*
X123517D01*
X121136Y129849D02*
X123477D01*
X122746Y114549D02*
X123287D01*
X103022Y107799D02*
X123227D01*
X122456Y111399D02*
X123067D01*
X122296Y114999D02*
X122837D01*
X103022Y108249D02*
X122777D01*
X122006Y111849D02*
X122617D01*
X120686Y130299D02*
X122465D01*
X121846Y115449D02*
X122387D01*
X103022Y108699D02*
X122327D01*
X121556Y112299D02*
X122167D01*
X120483Y132999D02*
X122117D01*
X121396Y115899D02*
X121937D01*
X103022Y109149D02*
X121877D01*
X120775Y130749D02*
X121825D01*
X121106Y112749D02*
X121717D01*
X120908Y132549D02*
X121692D01*
X121039Y131199D02*
X121561D01*
X121095Y132099D02*
X121505D01*
X120946Y116349D02*
X121487D01*
X121135Y131649D02*
X121465D01*
X103022Y109599D02*
X121427D01*
X120656Y113199D02*
X121267D01*
X120496Y116799D02*
X121037D01*
X103022Y110049D02*
X120977D01*
X120206Y113649D02*
X120817D01*
X120230Y117249D02*
X120616D01*
X103022Y110499D02*
X120527D01*
X120230Y117699D02*
X120455D01*
X119916Y127599D02*
X120450D01*
X120190Y127149D02*
X120450D01*
X120230Y126699D02*
X120450D01*
X120230Y126249D02*
X120450D01*
X120230Y125799D02*
X120450D01*
X120230Y125349D02*
X120450D01*
X120230Y124899D02*
X120450D01*
X120230Y124449D02*
X120450D01*
X120230Y123999D02*
X120450D01*
X120230Y123549D02*
X120450D01*
X120230Y123099D02*
X120450D01*
X120230Y122649D02*
X120450D01*
X120230Y122199D02*
X120450D01*
X120230Y121749D02*
X120450D01*
X120230Y121299D02*
X120450D01*
X120230Y120849D02*
X120450D01*
X120230Y120399D02*
X120450D01*
X120230Y119949D02*
X120450D01*
X120230Y119499D02*
X120450D01*
X120230Y119049D02*
X120450D01*
X120230Y118599D02*
X120450D01*
X120230Y118149D02*
X120450D01*
X119756Y114099D02*
X120367D01*
X119466Y128049D02*
X120107D01*
X103022Y110949D02*
X120077D01*
X119306Y114549D02*
X119917D01*
X119016Y128499D02*
X119657D01*
X103364Y111399D02*
X119627D01*
X118856Y114999D02*
X119467D01*
X118566Y128949D02*
X119207D01*
X103808Y111849D02*
X119177D01*
X118406Y115449D02*
X119017D01*
X118116Y129399D02*
X118779D01*
X104022Y112299D02*
X118727D01*
X117083Y132999D02*
X118717D01*
X117666Y129849D02*
X118607D01*
X117216Y130299D02*
X118600D01*
X117956Y115899D02*
X118567D01*
X117375Y130749D02*
X118425D01*
X117508Y132549D02*
X118292D01*
X104040Y112749D02*
X118277D01*
X117510Y116349D02*
X118276D01*
X114472Y126249D02*
X118230D01*
X113986Y125799D02*
X118230D01*
X114660Y125349D02*
X118230D01*
X114932Y124899D02*
X118230D01*
X115034Y124449D02*
X118230D01*
X114999Y123999D02*
X118230D01*
X114818Y123549D02*
X118230D01*
X114407Y123099D02*
X118230D01*
X114116Y122649D02*
X118230D01*
X114702Y122199D02*
X118230D01*
X114951Y121749D02*
X118230D01*
X115036Y121299D02*
X118230D01*
X114987Y120849D02*
X118230D01*
X114787Y120399D02*
X118230D01*
X114334Y119949D02*
X118230D01*
X105450Y119499D02*
X118230D01*
X117450Y119049D02*
X118230D01*
X117837Y118599D02*
X118230D01*
X118006Y118149D02*
X118230D01*
X118031Y117699D02*
X118230D01*
X117919Y117249D02*
X118230D01*
X117631Y116799D02*
X118230D01*
X117639Y131199D02*
X118161D01*
X117695Y132099D02*
X118105D01*
X117735Y131649D02*
X118065D01*
X114847Y126699D02*
X117987D01*
X104040Y113199D02*
X117827D01*
X115010Y127149D02*
X117537D01*
X104040Y113649D02*
X117377D01*
X115029Y127599D02*
X117087D01*
X104040Y114099D02*
X116927D01*
X114912Y128049D02*
X116637D01*
X114006Y104649D02*
X116510D01*
X104040Y114549D02*
X116477D01*
X114615Y128499D02*
X116187D01*
X104040Y114999D02*
X116027D01*
X113797Y128949D02*
X115737D01*
X104040Y115449D02*
X115629D01*
X105450Y119049D02*
X115550D01*
X104040Y115899D02*
X115501D01*
X104423Y116349D02*
X115500D01*
X104873Y116799D02*
X115369D01*
X113482Y129399D02*
X115335D01*
X104030Y132999D02*
X115317D01*
X113556Y105099D02*
X115270D01*
X112065Y107349D02*
X115235D01*
X113275Y129849D02*
X115201D01*
X112807Y130299D02*
X115200D01*
X105450Y118599D02*
X115163D01*
X105291Y117249D02*
X115081D01*
X106166Y130749D02*
X115025D01*
X105450Y118149D02*
X114994D01*
X105446Y117699D02*
X114969D01*
X113106Y105549D02*
X114927D01*
X112394Y106899D02*
X114911D01*
X104366Y132549D02*
X114892D01*
X112656Y105999D02*
X114782D01*
X112532Y106449D02*
X114777D01*
X105716Y131199D02*
X114761D01*
X104816Y132099D02*
X114705D01*
X105266Y131649D02*
X114665D01*
X101050Y102399D02*
X113466D01*
X101050Y102849D02*
X112977D01*
X105783Y119949D02*
X112666D01*
X101050Y103299D02*
X112527D01*
X101050Y103749D02*
X112077D01*
X101050Y104199D02*
X111627D01*
X106616Y130299D02*
X111193D01*
X101050Y104649D02*
X111177D01*
X101050Y105099D02*
X109969D01*
X103022Y107349D02*
X109955D01*
X101050Y105549D02*
X109632D01*
X103022Y106899D02*
X109626D01*
X101050Y105999D02*
X109490D01*
X103017Y106449D02*
X109488D01*
X104030Y135249D02*
X108230D01*
X104030Y135699D02*
X107769D01*
X104009Y136149D02*
X107319D01*
X103788Y136599D02*
X106869D01*
X103342Y137049D02*
X106419D01*
X103022Y137499D02*
X105969D01*
X103022Y137949D02*
X105519D01*
X103022Y138399D02*
X105069D01*
X103022Y138849D02*
X104619D01*
X103022Y139299D02*
X104169D01*
X103022Y139749D02*
X103719D01*
X103022Y140199D02*
X103269D01*
X157713Y139899D02*
X167844D01*
X157263Y139449D02*
X167844D01*
X167668Y140349D02*
X167837D01*
G54D101*
X170866Y115354D03*
Y109449D03*
X100000Y150787D03*
Y144882D03*
Y138976D03*
Y133071D03*
Y127165D03*
Y121260D03*
Y115354D03*
Y109449D03*
Y103543D03*
X170866D03*
Y121260D03*
Y127165D03*
Y133071D03*
Y138976D03*
Y144882D03*
Y150787D03*
G54D102*
X105200Y101640D03*
Y105640D03*
Y110390D03*
X111010Y106230D03*
X116300Y106240D03*
X114400Y105240D03*
X108700Y103040D03*
X112200Y101640D03*
X122097Y107041D03*
X119200Y101640D03*
X126200D03*
X127800Y109380D03*
X133100Y108190D03*
X136300Y108590D03*
X134880Y107040D03*
X133200Y101640D03*
X147600Y108810D03*
X144800Y107240D03*
X141850Y108540D03*
X141100Y105730D03*
X146490Y105680D03*
X143600Y103040D03*
X140200Y101640D03*
X154150Y111340D03*
X152440Y105600D03*
X154780Y108200D03*
X149650Y108390D03*
X150600Y103040D03*
X157600D03*
X165700Y108200D03*
Y103040D03*
X161720Y105040D03*
X160500Y108200D03*
X105200Y114890D03*
X107500Y118210D03*
X113500Y121240D03*
X116500Y117840D03*
X117640Y119660D03*
X112150Y118240D03*
X127250Y119478D03*
X123000Y118840D03*
X132310Y119040D03*
X137035Y121457D03*
X128520Y116840D03*
X146650Y120730D03*
X140200Y114440D03*
X141365Y121457D03*
X149450Y117890D03*
X157580Y118740D03*
X158300Y116740D03*
X149670Y115820D03*
X153000Y119950D03*
X155600Y116730D03*
X155210Y119010D03*
X156000Y112490D03*
X160730Y116690D03*
X165700Y112490D03*
X163610Y117740D03*
X164500Y119740D03*
X160500Y112490D03*
X107840Y131210D03*
X112000Y122790D03*
X113500Y124340D03*
X112000Y128990D03*
Y125890D03*
X113500Y127440D03*
X117900Y130530D03*
X113500Y131240D03*
X110700D03*
X121310Y130530D03*
X131800Y129330D03*
X134279Y124213D03*
X137035Y128543D03*
Y131299D03*
X134279Y128543D03*
X137035Y124213D03*
X146650Y124000D03*
X141365Y128543D03*
X144121D03*
Y124213D03*
X141365D03*
X152770Y124740D03*
X152780Y122240D03*
X165700Y121840D03*
Y124540D03*
Y127240D03*
Y130340D03*
X105200Y132740D03*
Y136840D03*
X116200Y131740D03*
X119600D03*
X128250Y136040D03*
X123000Y131740D03*
X127500Y138740D03*
X127100Y134170D03*
X138250Y139690D03*
X135000D03*
X130100Y138990D03*
X133790Y141460D03*
X136456Y141483D03*
X133300Y138440D03*
X139760Y138190D03*
X148738Y138264D03*
X158150Y139550D03*
X154562Y134036D03*
X156500Y135250D03*
X152530Y132010D03*
X161500Y139550D03*
X165700D03*
Y132800D03*
X165550Y135440D03*
X162550Y135200D03*
X107000Y151240D03*
X105200Y142490D03*
X117000Y143240D03*
X118300Y148140D03*
X114000Y151240D03*
X112100Y143240D03*
X112660Y148140D03*
X122010Y143240D03*
X128400Y148140D03*
X127500Y142040D03*
X121000Y151240D03*
X128000D03*
X124000Y148140D03*
X136500Y143790D03*
X136145Y148004D03*
X133500Y148140D03*
X135000Y151240D03*
X138843Y148928D03*
X143964Y149285D03*
X140640Y147090D03*
X140200Y151240D03*
X141902Y148710D03*
X145000Y151100D03*
X142540Y145560D03*
X138570Y145850D03*
X141610Y143780D03*
X143470Y143080D03*
X154500Y143750D03*
X148870Y146630D03*
X152710Y145150D03*
X150240Y148410D03*
X151840Y149930D03*
X156500Y151240D03*
X154000Y148240D03*
X152440Y142700D03*
X150278Y142260D03*
X156618Y146022D03*
X148970Y144300D03*
X163490Y148260D03*
X161497Y146076D03*
X158982Y148258D03*
X161000Y151240D03*
X165700Y146140D03*
Y150340D03*
X101700Y154326D03*
X105200Y154240D03*
X112200D03*
X119200D03*
X126200D03*
X133200D03*
X146480Y152600D03*
X147750Y154240D03*
X140200D03*
X152980Y151940D03*
X153250Y154240D03*
X156500Y153540D03*
X165700Y154240D03*
X161780Y153540D03*
X159306D03*
X169200Y154326D03*
G74*
X0Y0D02*
M02*
