M48
;FILE_FORMAT=2:4
INCH,LZ
FMAT,2
ICI,OFF
;TYPE=PLATED
T1C.00984
T2C.02165
%
M72
G90
G93X0Y0
T1C.00984F0S0
X01052Y010164
X01122Y010164
X01192Y010164
X01087Y010304
X01144Y010524
X01052Y010564
X011101Y010623
X01163Y010624
X01221Y010704
X01052Y011039
X01052Y011489
X01165Y011784
X01075Y011821
X011215Y011824
X0123Y011884
X011764Y011966
X01135Y012124
X0112Y012279
X01135Y012434
X0112Y012589
X01135Y012744
X0112Y012899
X01179Y013053
X012131Y013053
X010784Y013121
X01107Y013124
X01135Y013124
X01162Y013174
X01196Y013174
X0123Y013174
X01052Y013274
X01052Y013684
X01052Y014249
X0117Y014324
X01121Y014324
X012201Y014324
X011266Y014814
X01183Y014814
X0124Y014814
X0107Y015124
X0121Y015124
X0114Y015124
X01052Y015424
X01122Y015424
X01192Y015424
X01017Y015433
X01262Y015424
X01332Y015424
X014775Y015424
X01402Y015424
X014648Y01526
X0128Y015124
X0135Y015124
X01402Y015124
X0145Y01511
X014396Y014929
X013884Y014893
X01419Y014871
X01284Y014814
X01335Y014814
X013615Y0148
X014064Y014709
X014887Y014663
X013857Y014585
X014254Y014556
X014897Y01443
X01365Y014379
X014161Y014378
X014347Y014308
X01275Y014204
X013646Y014148
X013379Y014146
X0135Y013969
X013825Y013969
X01301Y013899
X01275Y013874
X01333Y013844
X014874Y013826
X013976Y013819
X012825Y013604
X01271Y013417
X013703Y01313
X01318Y012933
X013703Y012854
X013428Y012854
X014412Y012854
X014137Y012854
X014137Y012421
X013703Y012421
X013428Y012421
X014412Y012421
X014665Y0124
X013703Y012146
X014137Y012146
X014665Y012073
X012725Y011948
X013231Y011904
X014945Y011789
X012852Y011684
X014967Y011582
X01402Y011444
X01278Y010938
X01476Y010881
X01363Y010859
X014185Y010854
X014965Y010839
X01331Y010819
X01448Y010724
X013488Y010704
X01411Y010573
X014649Y010568
X01436Y010304
X01262Y010164
X01402Y010164
X01332Y010164
X01506Y010304
X01576Y010304
X01657Y010304
X016172Y010504
X015244Y01056
X01657Y01082
X015478Y01082
X01605Y01082
X015415Y011134
X01657Y011249
X01605Y011249
X0156Y011249
X016073Y011669
X01556Y011673
X01583Y011674
X016361Y011774
X015758Y011874
X015521Y011901
X01645Y011974
X0153Y011995
X01657Y012184
X015278Y012224
X01657Y012454
X015277Y012474
X01657Y012724
X01657Y013034
X015253Y013201
X01657Y01328
X015456Y013404
X016255Y01352
X01565Y013525
X016555Y013544
X01615Y013955
X01657Y013955
X015815Y013955
X015028Y014226
X015244Y01427
X01545Y014375
X015271Y014515
X015662Y014602
X01615Y014608
X01657Y014614
X0154Y014824
X015898Y014826
X016349Y014826
X015024Y014841
X015184Y014993
X01657Y015034
X0161Y015124
X01565Y015124
X015298Y015194
X01565Y015354
X016178Y015354
X015931Y015354
X015325Y015424
X01657Y015424
X01692Y015433
T2C.02165F197S55
X01Y010354
X01Y010945
X01Y011535
X01Y012126
X01Y012717
X01Y013307
X01Y013898
X01Y014488
X01Y015079
X017087Y015079
X017087Y014488
X017087Y013898
X017087Y013307
X017087Y012717
X017087Y012126
X017087Y011535
X017087Y010945
X017087Y010354
M30
