*
*
G04 PADS VX.2 Build Number: 5060570 generated Gerber (RS-274-X) file*
G04 PC Version=2.1*
*
%IN "PCB_ESP32-C3-WROOM-02_V"*%
*
%MOIN*%
*
%FSLAX35Y35*%
*
*
*
*
G04 PC Standard Apertures*
*
*
G04 Thermal Relief Aperture macro.*
%AMTER*
1,1,$1,0,0*
1,0,$1-$2,0,0*
21,0,$3,$4,0,0,45*
21,0,$3,$4,0,0,135*
%
*
*
G04 Annular Aperture macro.*
%AMANN*
1,1,$1,0,0*
1,0,$2,0,0*
%
*
*
G04 Odd Aperture macro.*
%AMODD*
1,1,$1,0,0*
1,0,$1-0.005,0,0*
%
*
*
G04 PC Custom Aperture Macros*
*
*
*
*
*
*
G04 PC Aperture Table*
*
%ADD010C,0.001*%
%ADD027C,0.00394*%
%ADD030C,0.01*%
%ADD038C,0.004*%
%ADD116C,0.002*%
%ADD117C,0.02362*%
*
*
*
*
G04 PC Circuitry*
G04 Layer Name PCB_ESP32-C3-WROOM-02_V - circuitry*
%LPD*%
*
*
G04 PC Custom Flashes*
G04 Layer Name PCB_ESP32-C3-WROOM-02_V - flashes*
%LPD*%
*
*
G04 PC Circuitry*
G04 Layer Name PCB_ESP32-C3-WROOM-02_V - circuitry*
%LPD*%
*
G54D10*
G01X100000Y178740D02*
X100003D01*
X170866D02*
X170869D01*
X100000Y100000D02*
X100003D01*
X100000Y178740D02*
X100003D01*
X171336Y100010D02*
X171339D01*
X171846Y103520D02*
X171849D01*
G54D27*
X100000Y178740D02*
X170866D01*
Y100000*
X100000*
Y178740*
G54D30*
X151676Y132319D02*
Y133725D01*
X152379Y133022*
X151676Y132319*
G54D38*
X129300Y146787D02*
Y148987D01*
X129699Y149387*
X131887*
X132300Y148974*
Y146787*
X129300Y144787D02*
Y142587D01*
X129700Y142187*
X131900*
X132300Y142587*
Y144787*
X127727Y131803D02*
X106467D01*
Y117803*
X127727*
Y123303*
Y126303D02*
G75*
G03Y123303I-0J-1500D01*
G01Y126303D02*
Y131803D01*
X128350Y137661D02*
G03X128350I-800J0D01*
G01X150508Y136738D02*
G03X150508I-787J0D01*
G01X149043Y118504D02*
Y116535D01*
X147074*
X129357Y118504D02*
Y116535D01*
X131326*
Y136220D02*
X129357D01*
Y134252*
X149043D02*
Y135236D01*
X148058Y136220*
X147074*
X164593Y133490D02*
Y120376D01*
X153100*
Y133490*
X164593*
G54D116*
X153079Y140040D02*
X151870D01*
X151670Y139840*
Y138040*
X151870Y137840*
X153079*
X154261Y140040D02*
X155470D01*
X155670Y139840*
Y138040*
X155470Y137840*
X154261*
X107541Y149340D02*
X111478D01*
X107541Y146240D02*
Y144075D01*
X111479*
Y146240*
Y147028D02*
Y149783D01*
X107541*
Y147028*
X133200Y144450D02*
Y143240D01*
X133400Y143040*
X135200*
X135400Y143240*
Y144450*
X133200Y145631D02*
Y146840D01*
X133400Y147040*
X135200*
X135400Y146840*
Y145631*
X152309Y137540D02*
X151100D01*
X150900Y137340*
Y135540*
X151100Y135340*
X152309*
X153491Y137540D02*
X154700D01*
X154900Y137340*
Y135540*
X154700Y135340*
X153491*
X144515Y147590D02*
X143306D01*
X143106Y147390*
Y145590*
X143306Y145390*
X144515*
X145697Y147590D02*
X146906D01*
X147106Y147390*
Y145590*
X146906Y145390*
X145697*
X147665Y138940D02*
X148874D01*
X149074Y139140*
Y140940*
X148874Y141140*
X147665*
X146483Y138940D02*
X145274D01*
X145074Y139140*
Y140940*
X145274Y141140*
X146483*
X161211Y117620D02*
X162420D01*
X162620Y117820*
Y119620*
X162420Y119820*
X161211*
X160029Y117620D02*
X158820D01*
X158620Y117820*
Y119620*
X158820Y119820*
X160029*
X158909Y136270D02*
X157700D01*
X157500Y136070*
Y134270*
X157700Y134070*
X158909*
X160091Y136270D02*
X161300D01*
X161500Y136070*
Y134270*
X161300Y134070*
X160091*
X141125Y140900D02*
X140269Y140045D01*
Y139762*
X141542Y138489*
X141825*
X142680Y139345*
X141960Y141735D02*
X142815Y142591D01*
X143098*
X144371Y141318*
Y141035*
X143515Y140180*
X130491Y112798D02*
X131700D01*
X131900Y112998*
Y114798*
X131700Y114998*
X130491*
X129309Y112798D02*
X128100D01*
X127900Y112998*
Y114798*
X128100Y114998*
X129309*
X130491Y110140D02*
X131700D01*
X131900Y110340*
Y112140*
X131700Y112340*
X130491*
X129309Y110140D02*
X128100D01*
X127900Y110340*
Y112140*
X128100Y112340*
X129309*
X130609Y141790D02*
X129400D01*
X129200Y141590*
Y139790*
X129400Y139590*
X130609*
X131791Y141790D02*
X133000D01*
X133200Y141590*
Y139790*
X133000Y139590*
X131791*
X144988Y141301D02*
Y145239D01*
X147192*
Y141301*
X144988*
X139694Y140128D02*
X136911Y142912D01*
X138470Y144471*
X141253Y141687*
X139694Y140128*
X150696Y128346D02*
Y126969D01*
X152901*
Y128346*
X150696Y129528D02*
Y130906D01*
X152901*
Y129528*
X152852Y116856D02*
Y118233D01*
X150648*
Y116856*
X152852Y115674D02*
Y114296D01*
X150648*
Y115674*
X143752Y112106D02*
Y113483D01*
X141548*
Y112106*
X143752Y110924D02*
Y109546D01*
X141548*
Y110924*
X148702Y112106D02*
Y113483D01*
X146498*
Y112106*
X148702Y110924D02*
Y109546D01*
X146498*
Y110924*
X146252Y112106D02*
Y113483D01*
X144048*
Y112106*
X146252Y110924D02*
Y109546D01*
X144048*
Y110924*
X138802Y112106D02*
Y113483D01*
X136598*
Y112106*
X138802Y110924D02*
Y109546D01*
X136598*
Y110924*
X136302Y112106D02*
Y113483D01*
X134098*
Y112106*
X136302Y110924D02*
Y109546D01*
X134098*
Y110924*
X141299Y112106D02*
Y113483D01*
X139095*
Y112106*
X141299Y110924D02*
Y109546D01*
X139095*
Y110924*
G54D117*
X104823Y144803D02*
Y148740D01*
G74*
X0Y0D02*
M02*
