*
*
G04 PADS VX.2 Build Number: 5060570 generated Gerber (RS-274-X) file*
G04 PC Version=2.1*
*
%IN "PCB_ESP32-C3-WROOM-02_V"*%
*
%MOIN*%
*
%FSLAX35Y35*%
*
*
*
*
G04 PC Standard Apertures*
*
*
G04 Thermal Relief Aperture macro.*
%AMTER*
1,1,$1,0,0*
1,0,$1-$2,0,0*
21,0,$3,$4,0,0,45*
21,0,$3,$4,0,0,135*
%
*
*
G04 Annular Aperture macro.*
%AMANN*
1,1,$1,0,0*
1,0,$2,0,0*
%
*
*
G04 Odd Aperture macro.*
%AMODD*
1,1,$1,0,0*
1,0,$1-0.005,0,0*
%
*
*
G04 PC Custom Aperture Macros*
*
*
*
*
*
*
G04 PC Aperture Table*
*
%ADD010C,0.001*%
%ADD027C,0.00394*%
%ADD030C,0.01*%
%ADD036C,0.006*%
%ADD037C,0.005*%
%ADD038C,0.004*%
%ADD095C,0.007*%
%ADD096C,0.009*%
%ADD097C,0.0035*%
%ADD098C,0.0055*%
%ADD099C,0.003*%
*
*
*
*
G04 PC Circuitry*
G04 Layer Name PCB_ESP32-C3-WROOM-02_V - circuitry*
%LPD*%
*
G54D10*
G01X166129Y104687D02*
X165871D01*
Y102215*
X166129*
Y104687*
X166164Y110592D02*
X165110D01*
X164793Y110557*
X164625Y110524*
X164463Y110426*
X164365Y110296*
X164298Y110129*
X164265Y109927*
X164298Y109699*
X164429Y109535*
X164630Y109367*
X164905Y109298*
X164924Y109210*
X164748Y109069*
X164609Y108930*
X164470Y108757*
X164088Y108121*
X164400*
X164707Y108632*
X164708Y108634*
X164851Y108849*
X164853Y108851*
X164959Y108993*
X165030Y109099*
X165036Y109106*
X165108Y109178*
X165120Y109187*
X165263Y109258*
X165286Y109264*
X165857*
X165907Y109214*
Y108121*
X166164*
Y110592*
X165907Y110357D02*
Y109499D01*
X165857Y109449*
X164964*
X164952Y109451*
X164809Y109487*
X164786Y109500*
X164608Y109678*
X164595Y109698*
X164524Y109912*
X164522Y109938*
X164558Y110116*
X164562Y110129*
X164634Y110272*
X164660Y110296*
X164839Y110367*
X164849Y110370*
X165063Y110406*
X165071Y110407*
X165857*
X165907Y110357*
X165271Y103415D02*
X165201Y103972D01*
X165101Y104174*
X164929Y104379*
X164757Y104517*
X164587Y104619*
X164347Y104688*
X164106Y104722*
X163799Y104688*
X163491Y104551*
X163251Y104346*
X163081Y104107*
X162978Y103798*
X162943Y103451*
X162978Y103069*
X163080Y102762*
X163285Y102522*
X163526Y102316*
X163797Y102214*
X164107Y102180*
X164415Y102214*
X164723Y102351*
X164963Y102557*
X165134Y102795*
X165237Y103105*
X165271Y103415*
X165014Y103665D02*
Y103415D01*
Y103407*
X164942Y102979*
X164937Y102962*
X164937D02*
X164758Y102641D01*
X164741Y102623*
X164455Y102444*
X164439Y102438*
X164118Y102367*
X164097Y102366*
X163740Y102438*
X163721Y102446*
X163471Y102625*
X163455Y102643*
X163277Y103000*
X163272Y103014*
X163201Y103443*
X163200Y103457*
X163236Y103743*
X163238Y103751*
X163309Y104001*
X163312Y104009*
X163420Y104223*
X163433Y104240*
X163612Y104383*
X163620Y104389*
X163620D02*
X163835Y104496D01*
X163850Y104501*
X164100Y104536*
X164118*
X164439Y104464*
X164455Y104458*
X164741Y104279*
X164754Y104267*
X164861Y104124*
X164868Y104112*
X164939Y103934*
X164941Y103929*
X165012Y103679*
X165014Y103665*
X166379Y116498D02*
X164407D01*
Y116312*
X165214*
X165264Y116262*
Y114026*
X165521*
Y116262*
X165571Y116312*
X166379*
Y116498*
X166129Y122403D02*
X165871D01*
Y119932*
X166129*
Y122403*
Y128309D02*
X165871D01*
Y125837*
X166129*
Y128309*
Y134214D02*
X165871D01*
Y131743*
X166129*
Y134214*
Y140120D02*
X165871D01*
Y137648*
X166129*
Y140120*
Y146025D02*
X165871D01*
Y143554*
X166129*
Y146025*
Y151931D02*
X165871D01*
Y149459*
X166129*
Y151931*
X162271Y104065D02*
X162047Y104193D01*
X162044Y104195*
X161829Y104338*
X161822Y104344*
X161643Y104523*
X161636Y104532*
X161543Y104687*
X161407*
Y102215*
X161629*
Y104165*
X161709Y104205*
X161991Y103994*
X162271Y103853*
Y104065*
X163835Y108121D02*
X162958Y109436D01*
Y109491*
X163692Y110592*
X163383*
X162937Y109975*
X162868Y109802*
X162866Y109799*
X162830Y109727*
X162745Y109720*
X162566Y109970*
Y109972*
X162152Y110592*
X161843*
X162577Y109491*
Y109436*
X161701Y108121*
X162009*
X162601Y108991*
X162707Y109168*
X162792Y109170*
X162860Y109067*
X162928Y108999*
X162934Y108992*
X163526Y108121*
X163835*
X164192Y114026D02*
X163316Y115342D01*
X163316D02*
Y115397D01*
X164049Y116498*
X163740*
X163294Y115881*
X163225Y115708*
X163223Y115704*
X163188Y115633*
X163102Y115626*
X162924Y115876*
X162923Y115877*
X162509Y116498*
X162201*
X162934Y115397*
Y115342*
X162934D02*
X162058Y114026D01*
X162366*
X162958Y114896*
X163064Y115074*
X163149Y115076*
X163217Y114973*
X163285Y114905*
X163291Y114897*
X163884Y114026*
X164192*
X165271Y121132D02*
X165201Y121689D01*
X165101Y121890*
X164929Y122096*
X164757Y122234*
X164587Y122336*
X164347Y122404*
X164106Y122439*
X163799Y122404*
X163491Y122268*
X163251Y122062*
X163081Y121823*
X162978Y121514*
X162943Y121167*
X162978Y120785*
X163080Y120478*
X163285Y120239*
X163526Y120033*
X163797Y119931*
X164107Y119896*
X164415Y119931*
X164723Y120067*
X164963Y120273*
X165134Y120512*
X165237Y120821*
X165271Y121132*
X165014Y121382D02*
Y121132D01*
Y121124*
X164942Y120695*
X164937Y120679*
X164758Y120358*
X164741Y120339*
X164455Y120161*
X164439Y120155*
X164118Y120083*
X164097*
X163740Y120154*
X163721Y120163*
X163471Y120341*
X163455Y120360*
X163277Y120717*
X163272Y120731*
X163201Y121159*
X163200Y121174*
X163236Y121460*
X163238Y121467*
X163309Y121717*
X163312Y121726*
X163420Y121940*
X163433Y121957*
X163612Y122100*
X163620Y122105*
X163620D02*
X163835Y122212D01*
X163850Y122217*
X164100Y122253*
X164118Y122252*
X164439Y122181*
X164455Y122174*
X164741Y121996*
X164754Y121983*
X164861Y121840*
X164868Y121829*
X164939Y121650*
X164941Y121646*
X165012Y121396*
X165014Y121382*
X165271Y127037D02*
X165201Y127594D01*
X165101Y127796*
X164929Y128002*
X164757Y128139*
X164587Y128241*
X164347Y128310*
X164106Y128344*
X163799Y128310*
X163491Y128173*
X163251Y127968*
X163081Y127729*
X162978Y127420*
X162943Y127073*
X162978Y126691*
X163080Y126384*
X163285Y126144*
X163526Y125938*
X163797Y125836*
X164107Y125802*
X164415Y125836*
X164723Y125973*
X164963Y126179*
X165134Y126417*
X165237Y126727*
X165271Y127037*
X165014Y127287D02*
Y127037D01*
Y127029*
X164942Y126601*
X164937Y126585*
X164758Y126263*
X164741Y126245*
X164455Y126066*
X164439Y126060*
X164118Y125989*
X164097Y125988*
X163740Y126060*
X163721Y126068*
X163471Y126247*
X163455Y126265*
X163277Y126622*
X163272Y126636*
X163201Y127065*
X163200Y127079*
X163236Y127365*
X163238Y127373*
X163309Y127623*
X163312Y127631*
X163420Y127845*
X163433Y127862*
X163612Y128005*
X163620Y128011*
X163620D02*
X163835Y128118D01*
X163850Y128123*
X164100Y128158*
X164118*
X164439Y128086*
X164455Y128080*
X164741Y127901*
X164754Y127889*
X164861Y127746*
X164868Y127735*
X164939Y127556*
X164941Y127551*
X165012Y127301*
X165014Y127287*
X165271Y132943D02*
X165201Y133500D01*
X165101Y133701*
X164929Y133907*
X164757Y134045*
X164587Y134147*
X164347Y134215*
X164106Y134250*
X163799Y134216*
X163491Y134079*
X163251Y133873*
X163081Y133634*
X162978Y133325*
X162943Y132978*
X162978Y132596*
X163080Y132289*
X163285Y132050*
X163526Y131844*
X163797Y131742*
X164107Y131708*
X164415Y131742*
X164723Y131878*
X164963Y132084*
X165134Y132323*
X165237Y132632*
X165271Y132943*
X165014Y133193D02*
Y132943D01*
Y132935*
X164942Y132506*
X164937Y132490*
X164758Y132169*
X164741Y132151*
X164455Y131972*
X164439Y131966*
X164118Y131894*
X164097*
X163740Y131965*
X163721Y131974*
X163471Y132152*
X163455Y132171*
X163277Y132528*
X163272Y132542*
X163201Y132970*
X163200Y132985*
X163236Y133271*
X163238Y133278*
X163309Y133528*
X163312Y133537*
X163420Y133751*
X163433Y133768*
X163612Y133911*
X163620Y133916*
X163620D02*
X163835Y134023D01*
X163850Y134028*
X164100Y134064*
X164118Y134063*
X164439Y133992*
X164455Y133985*
X164741Y133807*
X164754Y133794*
X164861Y133651*
X164868Y133640*
X164939Y133461*
X164941Y133457*
X165012Y133207*
X165014Y133193*
X165271Y138848D02*
X165201Y139405D01*
X165101Y139607*
X164929Y139813*
X164757Y139950*
X164587Y140052*
X164347Y140121*
X164106Y140155*
X163799Y140121*
X163491Y139984*
X163251Y139779*
X163081Y139540*
X162978Y139231*
X162943Y138884*
X162978Y138502*
X163080Y138195*
X163285Y137955*
X163526Y137749*
X163797Y137647*
X164107Y137613*
X164415Y137647*
X164723Y137784*
X164963Y137990*
X165134Y138229*
X165237Y138538*
X165271Y138848*
X165014Y139098D02*
Y138848D01*
Y138840*
X164942Y138412*
X164937Y138396*
X164758Y138074*
X164741Y138056*
X164455Y137877*
X164439Y137871*
X164118Y137800*
X164097Y137799*
X163740Y137871*
X163721Y137879*
X163471Y138058*
X163455Y138076*
X163277Y138433*
X163272Y138447*
X163201Y138876*
X163200Y138890*
X163236Y139176*
X163238Y139184*
X163309Y139434*
X163312Y139442*
X163420Y139657*
X163420D02*
X163433Y139673D01*
X163612Y139816*
X163620Y139822*
X163620D02*
X163835Y139929D01*
X163850Y139934*
X164100Y139969*
X164118*
X164439Y139897*
X164455Y139891*
X164741Y139712*
X164754Y139700*
X164861Y139557*
X164868Y139546*
X164939Y139367*
X164941Y139362*
X165012Y139112*
X165014Y139098*
X165271Y144754D02*
X165201Y145311D01*
X165101Y145512*
X164929Y145718*
X164757Y145856*
X164587Y145958*
X164347Y146026*
X164106Y146061*
X163799Y146027*
X163491Y145890*
X163251Y145684*
X163081Y145445*
X162978Y145136*
X162943Y144789*
X162978Y144407*
X163080Y144100*
X163285Y143861*
X163526Y143655*
X163797Y143553*
X164107Y143519*
X164415Y143553*
X164723Y143690*
X164963Y143895*
X165134Y144134*
X165237Y144443*
X165271Y144754*
X165014Y145004D02*
Y144754D01*
Y144746*
X164942Y144317*
X164937Y144301*
X164758Y143980*
X164741Y143962*
X164455Y143783*
X164439Y143777*
X164118Y143705*
X164097*
X163740Y143776*
X163721Y143785*
X163471Y143963*
X163455Y143982*
X163277Y144339*
X163272Y144353*
X163201Y144781*
X163200Y144796*
X163236Y145082*
X163238Y145089*
X163309Y145339*
X163312Y145348*
X163420Y145562*
X163433Y145579*
X163612Y145722*
X163620Y145727*
X163620D02*
X163835Y145834D01*
X163850Y145839*
X164100Y145875*
X164118Y145874*
X164439Y145803*
X164455Y145796*
X164741Y145618*
X164754Y145605*
X164861Y145463*
X164868Y145451*
X164939Y145273*
X164941Y145268*
X165012Y145018*
X165014Y145004*
X165271Y150659D02*
X165201Y151216D01*
X165101Y151418*
X164929Y151624*
X164757Y151761*
X164587Y151863*
X164347Y151932*
X164106Y151966*
X163799Y151932*
X163491Y151795*
X163251Y151590*
X163081Y151351*
X162978Y151042*
X162943Y150695*
X162978Y150313*
X163080Y150006*
X163285Y149766*
X163526Y149560*
X163797Y149458*
X164107Y149424*
X164415Y149458*
X164723Y149595*
X164963Y149801*
X165134Y150040*
X165237Y150349*
X165271Y150659*
X165014Y150909D02*
Y150659D01*
Y150651*
X164942Y150223*
X164937Y150207*
X164758Y149885*
X164741Y149867*
X164455Y149688*
X164439Y149682*
X164118Y149611*
X164097Y149610*
X163740Y149682*
X163721Y149690*
X163471Y149869*
X163455Y149887*
X163277Y150244*
X163272Y150258*
X163201Y150687*
X163200Y150701*
X163236Y150987*
X163238Y150995*
X163309Y151245*
X163312Y151253*
X163420Y151468*
X163433Y151484*
X163612Y151627*
X163620Y151633*
X163620D02*
X163835Y151740D01*
X163850Y151745*
X164100Y151780*
X164118*
X164439Y151708*
X164455Y151702*
X164741Y151523*
X164754Y151511*
X164861Y151368*
X164868Y151357*
X164939Y151178*
X164941Y151173*
X165012Y150923*
X165014Y150909*
X165152Y173640D02*
X164614D01*
Y171706*
X164564Y171656*
X162934*
X162884Y171706*
Y173640*
X162346*
Y168992*
X162884*
Y171139*
X162934Y171189*
X164564*
X164614Y171139*
Y168992*
X165152*
Y173640*
X160486Y103413D02*
X160450Y103836D01*
X160381Y104150*
X160278Y104389*
X160146Y104554*
X159949Y104653*
X159716Y104686*
X159378Y104619*
X159250Y104522*
X159250D02*
X159152Y104391D01*
X159012Y104007*
X158943Y103765*
Y103418*
X158978Y103030*
X159048Y102716*
X159150Y102477*
X159282Y102312*
X159479Y102214*
X159712Y102180*
X160015Y102248*
X160248Y102414*
X160347Y102578*
X160416Y102821*
X160486Y103100*
Y103413*
X160264Y103701D02*
Y103130D01*
Y103121*
X160228Y102907*
Y102906*
X160192Y102727*
X160188Y102714*
X160116Y102572*
X160103Y102555*
X159924Y102412*
X159903Y102402*
X159724Y102366*
X159704*
X159526Y102402*
X159504Y102412*
X159326Y102555*
X159312Y102572*
X159241Y102714*
X159237Y102727*
X159201Y102906*
Y102907*
X159165Y103121*
X159164Y103130*
Y103701*
X159165Y103708*
X159201Y103958*
X159201D02*
Y103961D01*
X159237Y104139*
X159244Y104157*
X159316Y104265*
X159318Y104268*
X159461Y104447*
X159492Y104465*
X159706Y104500*
X159724*
X159903Y104464*
X159924Y104454*
X160103Y104312*
X160116Y104295*
X160188Y104152*
X160192Y104139*
X160228Y103961*
Y103958*
X160264Y103708*
Y103701*
X161236Y110592D02*
X160148D01*
X159977Y110558*
X159771Y110489*
X159604Y110389*
X159436Y110187*
X159333Y109948*
X159264Y109669*
X159229Y109354*
Y109114*
X159298Y108871*
X159367Y108663*
X159468Y108495*
X159672Y108291*
X159977Y108156*
X160359Y108121*
X161236*
Y110592*
X160979Y110357D02*
Y108357D01*
X160929Y108307*
X160179*
X160169Y108308*
X159990Y108343*
X159972Y108351*
X159758Y108494*
X159746Y108505*
X159639Y108648*
X159632Y108659*
X159561Y108838*
X159559Y108843*
X159488Y109093*
X159486Y109107*
Y109357*
Y109361*
X159522Y109754*
X159525Y109769*
X159633Y110019*
X159640Y110031*
X159782Y110209*
X159791Y110218*
X159934Y110325*
X159946Y110332*
X160124Y110403*
X160143Y110407*
X160929*
X160979Y110357*
X161593Y116498D02*
X160505D01*
X160334Y116464*
X160128Y116395*
X159962Y116295*
X159793Y116093*
X159690Y115853*
X159621Y115575*
X159586Y115259*
Y115019*
X159655Y114777*
X159724Y114569*
X159825Y114400*
X160029Y114197*
X160334Y114061*
X160717Y114026*
X161593*
Y116498*
X161336Y116262D02*
Y114262D01*
X161286Y114212*
X160536*
X160526Y114213*
X160347Y114249*
X160329Y114256*
X160115Y114399*
X160103Y114411*
X159996Y114554*
X159989Y114565*
X159918Y114744*
X159916Y114748*
X159845Y114998*
X159843Y115012*
Y115262*
Y115267*
X159879Y115659*
X159883Y115675*
X159990Y115925*
X159997Y115936*
X160140Y116115*
X160149Y116124*
X160291Y116231*
X160303Y116237*
X160481Y116309*
X160500Y116312*
X161286*
X161336Y116262*
X162271Y121781D02*
X162047Y121910D01*
X162044Y121912*
X161829Y122055*
X161822Y122061*
X161643Y122239*
X161636Y122249*
X161543Y122403*
X161407*
Y119932*
X161629*
Y121882*
X161709Y121922*
X161991Y121710*
X162271Y121570*
Y121781*
Y127687D02*
X162047Y127815D01*
X162044Y127817*
X161829Y127960*
X161822Y127966*
X161643Y128145*
X161636Y128155*
X161543Y128309*
X161407*
Y125837*
X161629*
Y127787*
X161709Y127827*
X161991Y127616*
X162271Y127475*
Y127687*
X162473Y132328D02*
X162249Y132353D01*
X162190Y132177*
X162183Y132163*
X162076Y132020*
X162058Y132005*
X161915Y131934*
X161903Y131930*
X161724Y131894*
X161706*
X161492Y131929*
X161470Y131939*
X161327Y132046*
X161314Y132060*
X161207Y132239*
X161201Y132255*
X161165Y132433*
X161164Y132443*
X161165Y132451*
X161201Y132665*
X161210Y132687*
X161317Y132830*
X161327Y132840*
X161470Y132947*
X161492Y132957*
X161706Y132992*
X161723*
X161871Y132968*
X161849Y133143*
X161643*
X161613Y133153*
X161470Y133260*
X161465Y133265*
X161358Y133372*
X161358D02*
X161344Y133397D01*
X161308Y133576*
X161309Y133598*
X161344Y133741*
X161348Y133751*
X161420Y133894*
X161437Y133913*
X161544Y133985*
X161562Y133992*
X161740Y134028*
X161762Y134027*
X161905Y133991*
X161915Y133988*
X162058Y133916*
X162080Y133894*
X162152Y133751*
X162154Y133747*
X162211Y133604*
X162431Y133628*
X162348Y133849*
X162214Y134050*
X162018Y134180*
X161752Y134214*
X161586Y134180*
X161586D02*
X161418Y134113D01*
X161152Y133914*
X161087Y133587*
X161151Y133329*
X161423Y133126*
X161409Y133038*
X161206Y132971*
X161075Y132840*
X160977Y132676*
X160944Y132446*
X161011Y132177*
X161179Y131909*
X161411Y131776*
X161752Y131708*
X162020Y131741*
X162251Y131874*
X162418Y132107*
X162473Y132328*
X162548Y137648D02*
X162523Y137799D01*
X162456Y137966*
X162178Y138314*
X161931Y138525*
X161610Y138811*
X161605Y138816*
X161391Y139066*
X161386Y139073*
X161279Y139251*
X161272Y139267*
X161237Y139446*
Y139465*
X161272Y139644*
X161286Y139669*
X161393Y139777*
X161399Y139781*
X161541Y139888*
X161562Y139897*
X161740Y139933*
X161758*
X161973Y139898*
X161994Y139888*
X162137Y139781*
X162147Y139771*
X162254Y139628*
X162263Y139608*
X162290Y139475*
X162509Y139499*
X162454Y139720*
X162287Y139953*
X162056Y140086*
X161753Y140119*
X161447Y140051*
X161211Y139917*
X161048Y139721*
X161015Y139459*
X161083Y139185*
X161151Y139016*
X161253Y138879*
X161253D02*
X161429Y138669D01*
X161711Y138422*
X161924Y138245*
X162066Y138138*
X162075Y138130*
X162218Y137951*
X162179Y137870*
X160979*
Y137648*
X162548*
X162271Y145403D02*
X162047Y145532D01*
X162044Y145534*
X161829Y145677*
X161822Y145683*
X161643Y145861*
X161636Y145871*
X161543Y146025*
X161407*
Y143554*
X161629*
Y145504*
X161709Y145544*
X161991Y145332*
X162271Y145192*
Y145403*
X162486Y150657D02*
X162450Y151080D01*
X162381Y151394*
X162278Y151634*
X162146Y151798*
X161949Y151897*
X161716Y151930*
X161378Y151863*
X161250Y151767*
X161152Y151635*
X161012Y151251*
X160943Y151010*
Y150662*
X160978Y150274*
X161048Y149961*
X161150Y149721*
X161282Y149556*
X161479Y149458*
X161712Y149425*
X162015Y149492*
X162248Y149658*
X162347Y149822*
X162416Y150065*
X162486Y150344*
Y150657*
X162264Y150945D02*
Y150374D01*
Y150366*
X162228Y150151*
Y150150*
X162192Y149971*
X162188Y149959*
X162116Y149816*
X162103Y149799*
X161924Y149656*
X161903Y149646*
X161724Y149610*
X161704*
X161526Y149646*
X161504Y149656*
X161326Y149799*
X161312Y149816*
X161241Y149959*
X161237Y149971*
X161201Y150150*
Y150151*
X161165Y150366*
X161164Y150374*
Y150945*
X161165Y150952*
X161201Y151202*
X161201D02*
Y151205D01*
X161237Y151384*
X161244Y151401*
X161316Y151509*
X161318Y151512*
X161461Y151691*
X161492Y151709*
X161706Y151744*
X161724*
X161903Y151708*
X161924Y151698*
X162103Y151556*
X162116Y151539*
X162188Y151396*
X162192Y151384*
X162228Y151205*
Y151202*
X162264Y150952*
Y150945*
X161537Y173640D02*
X158732D01*
Y173173*
X160950*
X161000Y173123*
Y171564*
X160950Y171514*
X159299*
Y171118*
X160950*
X161000Y171068*
Y168992*
X161537*
Y173640*
X160485Y120633D02*
X160451Y120834D01*
X160385Y121033*
X160259Y121160*
X160056Y121227*
X160046Y121318*
X160219Y121422*
X160316Y121519*
X160381Y121648*
X160414Y121812*
X160381Y122039*
X160216Y122237*
X160018Y122369*
X159714Y122403*
X159410Y122369*
X159212Y122237*
X159048Y122040*
X159015Y121778*
X159047Y121649*
X159113Y121519*
X159210Y121422*
X159383Y121318*
X159380Y121230*
X159172Y121127*
X159043Y120997*
X158977Y120833*
X158944Y120633*
X159011Y120329*
X159144Y120096*
X159410Y119930*
X159714Y119896*
X160019Y119930*
X160284Y120096*
X160417Y120329*
X160485Y120633*
X160192Y121801D02*
X160156Y121622D01*
X160149Y121604*
X160077Y121497*
X160058Y121480*
X159915Y121409*
X159903Y121404*
X159724Y121369*
X159704*
X159526Y121404*
X159513Y121409*
X159370Y121480*
X159351Y121497*
X159280Y121604*
X159273Y121620*
X159237Y121763*
Y121787*
X159273Y121930*
X159277Y121940*
X159348Y122083*
X159370Y122105*
X159370D02*
X159513Y122177D01*
X159526Y122181*
X159704Y122217*
X159724*
X159903Y122181*
X159915Y122177*
X160058Y122105*
X160077Y122088*
X160149Y121981*
X160156Y121965*
X160191Y121823*
X160192Y121801*
X160264Y120632D02*
Y120625D01*
X160228Y120375*
X160220Y120354*
X160149Y120247*
X160130Y120230*
X159989Y120160*
X159885Y120090*
X159857Y120082*
X159714*
X159706Y120083*
X159492Y120118*
X159470Y120128*
X159327Y120235*
X159317Y120245*
X159210Y120388*
X159201Y120409*
X159165Y120624*
X159164Y120632*
X159165Y120642*
X159201Y120820*
X159207Y120836*
X159314Y121015*
X159327Y121029*
X159470Y121136*
X159492Y121145*
X159706Y121181*
X159723*
X159937Y121145*
X159959Y121136*
X160101Y121029*
X160114Y121015*
X160221Y120836*
X160228Y120820*
X160263Y120642*
X160264Y120632*
X160485Y127501D02*
X160417Y127806D01*
X160282Y128075*
X160051Y128241*
X159748Y128308*
X159515Y128275*
X159315Y128175*
X159183Y128042*
X159047Y127804*
X158978Y127529*
X158943Y127109*
X158978Y126687*
X159047Y126341*
X159183Y126104*
X159351Y125936*
X159551Y125836*
X159786Y125802*
X160054Y125836*
X160250Y125966*
X160382Y126165*
X160438Y126387*
X160213Y126412*
X160155Y126236*
X160149Y126224*
X160077Y126117*
X160063Y126103*
X159956Y126032*
X159941Y126025*
X159798Y125989*
X159772*
X159522Y126061*
X159504Y126070*
X159326Y126213*
X159309Y126240*
X159274Y126377*
X159205Y126515*
X159200Y126533*
X159164Y126926*
Y126930*
Y126966*
X159247Y127004*
X159491Y126795*
X159657Y126728*
X159819Y126696*
X160052Y126762*
X160283Y126895*
X160417Y127161*
X160485Y127501*
X160264Y127466D02*
Y127458D01*
X160228Y127243*
X160221Y127226*
X160114Y127047*
X160101Y127033*
X159959Y126926*
X159937Y126917*
X159723Y126881*
X159706*
X159492Y126917*
X159470Y126926*
X159327Y127033*
X159314Y127047*
X159207Y127226*
X159201Y127245*
X159201D02*
X159165Y127495D01*
X159164Y127502*
X159165Y127510*
X159201Y127724*
X159205Y127738*
X159312Y127953*
X159327Y127970*
X159470Y128077*
X159492Y128087*
X159706Y128122*
X159724*
X159903Y128086*
X159924Y128076*
X160103Y127934*
X160114Y127920*
X160221Y127742*
X160228Y127723*
X160264Y127473*
Y127466*
X158964Y151911D02*
X157207D01*
Y151726*
X158657*
X158707Y151676*
Y150854*
X158657Y150804*
X157314*
Y150619*
X158657*
X158707Y150569*
Y149676*
X158657Y149626*
X157136*
Y149440*
X158964*
Y151911*
X156671Y150233D02*
X156412D01*
X156385Y150094*
X156382Y150086*
X156311Y149907*
X156300Y149890*
X156192Y149783*
X156187Y149779*
X156044Y149671*
X156033Y149665*
X155854Y149594*
X155836Y149590*
X155657*
X155646Y149591*
X155325Y149663*
X155313Y149667*
X155170Y149738*
X155158Y149748*
X155158D02*
X155086Y149819D01*
X155077Y149832*
X155005Y149975*
X155000Y149997*
Y150104*
X155004Y150123*
X155075Y150301*
X155080Y150311*
X155151Y150418*
X155170Y150435*
X155170D02*
X155313Y150506D01*
X155324Y150510*
X156031Y150687*
X156376Y150894*
X156473Y150991*
X156538Y151121*
X156570Y151283*
X156538Y151447*
X156472Y151612*
X156340Y151743*
X156172Y151844*
X155967Y151913*
X155728Y151947*
X155454Y151912*
X155248Y151844*
X155044Y151742*
X154914Y151612*
X154848Y151448*
X154823Y151297*
X155079*
X155108Y151470*
X155122Y151497*
X155265Y151640*
X155281Y151651*
X155460Y151722*
X155470Y151725*
X155685Y151761*
X155700*
X155950Y151725*
X155961Y151722*
X156140Y151651*
X156161Y151634*
X156269Y151491*
X156277Y151474*
X156313Y151331*
Y151306*
X156277Y151164*
X156264Y151140*
X156198Y151075*
X156166Y151010*
X156166D02*
X156137Y150985D01*
X156030Y150950*
X156026Y150949*
X155887Y150914*
X155711Y150844*
X155704Y150841*
X155385Y150770*
X155176Y150701*
X154972Y150599*
X154843Y150469*
X154777Y150305*
X154744Y150105*
X154777Y149940*
X154844Y149773*
X154975Y149608*
X155176Y149508*
X155383Y149439*
X155622Y149405*
X155934Y149439*
X156208Y149508*
X156409Y149642*
X156542Y149809*
X156644Y150046*
X156671Y150233*
X154179Y151911D02*
X153056D01*
X152921Y151878*
X152613Y151775*
X152516Y151679*
X152415Y151544*
X152350Y151380*
Y151215*
X152384Y150944*
X152553Y150708*
X152650Y150611*
X152814Y150545*
X152984Y150511*
X153871*
X153921Y150461*
Y149440*
X154179*
Y151911*
X153921Y151676D02*
Y150747D01*
X153871Y150697*
X153229*
X153222Y150698*
X153222D02*
X152972Y150733D01*
X152972D02*
X152960Y150736D01*
X152781Y150808*
X152757Y150829*
X152650Y151007*
X152644Y151023*
X152608Y151202*
X152607Y151211*
Y151354*
X152612Y151377*
X152684Y151520*
X152693Y151532*
X152800Y151640*
X152820Y151652*
X153034Y151723*
X153050Y151726*
X153871*
X153921Y151676*
X151880Y150025D02*
X151656Y150050D01*
X151597Y149874*
X151590Y149860*
X151483Y149717*
X151465Y149702*
X151322Y149631*
X151310Y149627*
X151131Y149591*
X151113*
X150899Y149626*
X150877Y149636*
X150734Y149743*
X150721Y149757*
X150614Y149936*
X150608Y149952*
X150572Y150130*
X150571Y150140*
X150572Y150148*
X150608Y150363*
X150617Y150384*
X150724Y150527*
X150734Y150537*
X150877Y150644*
X150899Y150654*
X151113Y150689*
X151130*
X151278Y150665*
X151256Y150840*
X151050*
X151020Y150850*
X150877Y150957*
X150872Y150962*
X150765Y151069*
X150751Y151094*
X150715Y151273*
X150716Y151295*
X150751Y151438*
X150755Y151448*
X150827Y151591*
X150844Y151610*
X150951Y151682*
X150969Y151689*
X151147Y151725*
X151169Y151724*
X151312Y151689*
X151322Y151685*
X151465Y151613*
X151488Y151591*
X151559Y151448*
X151561Y151444*
X151618Y151301*
X151838Y151325*
X151755Y151546*
X151621Y151747*
X151425Y151878*
X151159Y151911*
X150993Y151878*
X150825Y151810*
X150560Y151611*
X150494Y151284*
X150558Y151026*
X150830Y150823*
X150816Y150735*
X150613Y150668*
X150483Y150538*
X150384Y150373*
X150351Y150143*
X150418Y149874*
X150586Y149606*
X150818Y149473*
X151159Y149405*
X151427Y149438*
X151659Y149571*
X151825Y149804*
X151880Y150025*
X149955Y149440D02*
X149930Y149591D01*
X149863Y149757*
X149585Y150105*
X149338Y150317*
X149017Y150603*
X149012Y150607*
X148798Y150857*
X148793Y150864*
X148686Y151043*
X148680Y151059*
X148644Y151237*
Y151257*
X148680Y151436*
X148693Y151461*
X148800Y151568*
X148806Y151573*
X148949Y151680*
X148969Y151689*
X149147Y151725*
X149165*
X149380Y151689*
X149401Y151680*
X149544Y151573*
X149554Y151563*
X149661Y151420*
X149670Y151400*
X149697Y151266*
X149916Y151291*
X149861Y151512*
X149694Y151745*
X149463Y151877*
X149160Y151911*
X148854Y151843*
X148618Y151708*
X148455Y151512*
X148422Y151250*
X148491Y150977*
X148558Y150808*
X148661Y150671*
X148836Y150461*
X149118Y150214*
X149331Y150036*
X149473Y149930*
X149482Y149921*
X149625Y149743*
X149586Y149661*
X148386*
Y149440*
X149955*
X147964Y150376D02*
X147100D01*
Y150190*
X147964*
Y150376*
X146714Y150676D02*
X146679Y151058D01*
X146576Y151367*
X146406Y151606*
X146167Y151811*
X145895Y151912*
X145586Y151947*
X145281Y151913*
X145010Y151743*
X144806Y151540*
X144692Y151284*
X144949Y151233*
X145040Y151445*
X145050Y151461*
X145193Y151604*
X145203Y151611*
X145381Y151719*
X145399Y151725*
X145613Y151761*
X145628*
X145628D02*
X145878Y151725D01*
X145878D02*
X145894Y151720D01*
X146108Y151613*
X146125Y151600*
X146268Y151421*
X146273Y151412*
X146380Y151198*
X146385Y151183*
X146421Y150933*
X146456Y150720*
X146457Y150711*
Y150706*
X146421Y150384*
X146420Y150378*
X146349Y150092*
X146343Y150079*
X146236Y149900*
X146232Y149894*
X146089Y149716*
X146066Y149700*
X145852Y149628*
X145844Y149626*
X145630Y149591*
X145614*
X145614D02*
X145364Y149626D01*
X145344Y149634*
X145129Y149777*
X145118Y149787*
X144975Y149966*
X144967Y149980*
X144875Y150225*
X144617Y150174*
X144737Y149844*
X144939Y149608*
X145244Y149439*
X145586Y149405*
X145929Y149439*
X146203Y149576*
X146439Y149745*
X146575Y150016*
X146679Y150329*
X146714Y150676*
X144130Y150025D02*
X143906Y150050D01*
X143847Y149874*
X143840Y149860*
X143733Y149717*
X143715Y149702*
X143572Y149631*
X143560Y149627*
X143381Y149591*
X143363*
X143149Y149626*
X143127Y149636*
X142984Y149743*
X142971Y149757*
X142864Y149936*
X142858Y149952*
X142822Y150130*
X142821Y150140*
X142822Y150148*
X142858Y150363*
X142867Y150384*
X142974Y150527*
X142984Y150537*
X143127Y150644*
X143149Y150654*
X143363Y150689*
X143380*
X143528Y150665*
X143506Y150840*
X143300*
X143270Y150850*
X143127Y150957*
X143122Y150962*
X143015Y151069*
X143001Y151094*
X142965Y151273*
X142966Y151295*
X143001Y151438*
X143005Y151448*
X143077Y151591*
X143094Y151610*
X143201Y151682*
X143219Y151689*
X143397Y151725*
X143419Y151724*
X143562Y151689*
X143572Y151685*
X143715Y151613*
X143738Y151591*
X143809Y151448*
X143811Y151444*
X143868Y151301*
X144088Y151325*
X144005Y151546*
X143871Y151747*
X143675Y151878*
X143409Y151911*
X143243Y151878*
X143075Y151810*
X142810Y151611*
X142744Y151284*
X142808Y151026*
X143080Y150823*
X143066Y150735*
X142863Y150668*
X142733Y150538*
X142634Y150373*
X142601Y150143*
X142668Y149874*
X142836Y149606*
X143068Y149473*
X143409Y149405*
X143677Y149438*
X143909Y149571*
X144075Y149804*
X144130Y150025*
X142214Y150376D02*
X141350D01*
Y150190*
X142214*
Y150376*
X141092Y151911D02*
X140840D01*
X140456Y150271*
X140455Y150270*
X140313Y149734*
X140215Y149737*
X140180Y149915*
X140146Y150051*
X140112Y150118*
X140107Y150140*
Y150204*
X139584Y151911*
X139266*
X138884Y150661*
X138598Y149732*
X138501Y149739*
X138465Y149952*
X138394Y150272*
X138010Y151911*
X137758*
X138410Y149440*
X138692*
X139288Y151369*
Y151370*
X139357Y151577*
Y151640*
X139454Y151659*
X139525Y151480*
X139527Y151474*
X139563Y151332*
X140123Y149440*
X140440*
X141092Y151911*
X137321D02*
X136267D01*
X135951Y151876*
X135783Y151843*
X135620Y151745*
X135523Y151615*
X135456Y151448*
X135422Y151247*
X135455Y151018*
X135586Y150854*
X135788Y150686*
X136062Y150617*
X136081Y150530*
X135905Y150388*
X135766Y150249*
X135627Y150076*
X135245Y149440*
X135557*
X135864Y149951*
X135866Y149953*
X136008Y150168*
X136010Y150170*
X136116Y150312*
X136187Y150418*
X136193Y150425*
X136265Y150497*
X136278Y150506*
X136420Y150578*
X136443Y150583*
X137014*
X137064Y150533*
Y149440*
X137321*
Y151911*
X137064Y151676D02*
Y150819D01*
X137014Y150769*
X136121*
X136109Y150770*
X135966Y150806*
X135943Y150819*
X135765Y150998*
X135753Y151017*
X135681Y151231*
X135680Y151257*
X135715Y151436*
X135720Y151448*
X135791Y151591*
X135817Y151615*
X135996Y151686*
X136006Y151689*
X136220Y151725*
X136229Y151726*
X137014*
X137064Y151676*
X134857Y150640D02*
X134787Y151197D01*
X134686Y151398*
X134515Y151604*
X134343Y151742*
X134173Y151844*
X133932Y151912*
X133692Y151947*
X133385Y151913*
X133077Y151776*
X132837Y151570*
X132666Y151331*
X132563Y151022*
X132529Y150675*
X132564Y150293*
X132666Y149987*
X132871Y149747*
X133112Y149541*
X133383Y149439*
X133693Y149405*
X134001Y149439*
X134309Y149576*
X134549Y149781*
X134719Y150020*
X134822Y150329*
X134857Y150640*
X134600Y150890D02*
Y150640D01*
X134599Y150632*
X134528Y150203*
X134522Y150187*
X134344Y149866*
X134327Y149848*
X134327D02*
X134041Y149669D01*
X134025Y149663*
X133704Y149591*
X133683*
X133326Y149662*
X133307Y149671*
X133057Y149849*
X133041Y149868*
X132862Y150225*
X132858Y150239*
X132786Y150667*
Y150682*
X132822Y150968*
X132823Y150975*
X132895Y151225*
X132898Y151234*
X133005Y151448*
X133019Y151465*
X133197Y151608*
X133206Y151613*
X133420Y151720*
X133420D02*
X133436Y151725D01*
X133686Y151761*
X133704Y151760*
X134025Y151689*
X134041Y151682*
X134327Y151504*
X134327D02*
X134340Y151491D01*
X134447Y151349*
X134454Y151337*
X134525Y151159*
X134527Y151154*
X134598Y150904*
X134600Y150890*
X132071Y150640D02*
X132001Y151197D01*
X131901Y151398*
X131729Y151604*
X131557Y151742*
X131387Y151844*
X131147Y151912*
X130906Y151947*
X130599Y151913*
X130291Y151776*
X130051Y151570*
X129881Y151331*
X129778Y151022*
X129743Y150675*
X129778Y150293*
X129880Y149987*
X130085Y149747*
X130326Y149541*
X130597Y149439*
X130907Y149405*
X131215Y149439*
X131523Y149576*
X131763Y149781*
X131934Y150020*
X132037Y150329*
X132071Y150640*
X131814Y150890D02*
Y150640D01*
Y150632*
X131742Y150203*
X131737Y150187*
X131558Y149866*
X131541Y149848*
X131255Y149669*
X131239Y149663*
X130918Y149591*
X130897*
X130540Y149662*
X130521Y149671*
X130271Y149849*
X130255Y149868*
X130077Y150225*
X130072Y150239*
X130001Y150667*
X130000Y150682*
X130036Y150968*
X130038Y150975*
X130109Y151225*
X130112Y151234*
X130220Y151448*
X130233Y151465*
X130412Y151608*
X130420Y151613*
X130420D02*
X130635Y151720D01*
X130650Y151725*
X130900Y151761*
X130918Y151760*
X131239Y151689*
X131255Y151682*
X131541Y151504*
X131554Y151491*
X131661Y151349*
X131668Y151337*
X131739Y151159*
X131741Y151154*
X131812Y150904*
X131814Y150890*
X129214Y151911D02*
X128765D01*
X128205Y150124*
X128133Y149910*
X128130Y149903*
X128059Y149760*
X128059D02*
X127966Y149771D01*
X127930Y149913*
X127859Y150161*
X127299Y151911*
X126850*
Y149440*
X127107*
Y151569*
X127205Y151584*
X127908Y149440*
X128192*
X128859Y151583*
X128957Y151569*
Y149440*
X129214*
Y151911*
X126393Y150376D02*
X125529D01*
Y150190*
X126393*
Y150376*
X125143Y150638D02*
X125108Y151061D01*
X125038Y151375*
X124935Y151614*
X124804Y151779*
X124606Y151877*
X124373Y151911*
X124035Y151843*
X123907Y151747*
X123809Y151616*
X123669Y151232*
X123600Y150990*
Y150642*
X123635Y150255*
X123705Y149941*
X123808Y149702*
X123939Y149537*
X124137Y149438*
X124369Y149405*
X124672Y149472*
X124905Y149639*
X125004Y149803*
X125073Y150046*
X125143Y150325*
Y150638*
X124921Y150926D02*
Y150354D01*
Y150346*
X124885Y150132*
Y150130*
X124849Y149952*
X124845Y149939*
X124773Y149796*
X124760Y149780*
X124581Y149637*
X124560Y149627*
X124381Y149591*
X124362*
X124183Y149627*
X124162Y149637*
X123983Y149780*
X123970Y149796*
X123898Y149939*
X123894Y149952*
X123858Y150130*
Y150132*
X123822Y150346*
X123821Y150354*
Y150926*
X123822Y150933*
X123858Y151183*
Y151186*
X123894Y151364*
X123901Y151382*
X123973Y151489*
X123975Y151493*
X124118Y151671*
X124149Y151689*
X124363Y151725*
X124381*
X124560Y151689*
X124581Y151679*
X124760Y151536*
X124773Y151520*
X124773D02*
X124845Y151377D01*
X124849Y151364*
X124885Y151186*
Y151183*
X124921Y150933*
Y150926*
X123205Y149440D02*
X123180Y149591D01*
X123113Y149757*
X122835Y150105*
X122588Y150317*
X122267Y150603*
X122262Y150607*
X122048Y150857*
X122043Y150864*
X121936Y151043*
X121930Y151059*
X121894Y151237*
Y151257*
X121930Y151436*
X121943Y151461*
X122050Y151568*
X122056Y151573*
X122199Y151680*
X122219Y151689*
X122397Y151725*
X122415*
X122630Y151689*
X122651Y151680*
X122794Y151573*
X122804Y151563*
X122911Y151420*
X122920Y151400*
X122947Y151266*
X123166Y151291*
X123111Y151512*
X122944Y151745*
X122713Y151877*
X122410Y151911*
X122104Y151843*
X121868Y151708*
X121705Y151512*
X121672Y151250*
X121741Y150977*
X121808Y150808*
X121911Y150671*
X122086Y150461*
X122368Y150214*
X122581Y150036*
X122723Y149930*
X122732Y149921*
X122875Y149743*
X122836Y149661*
X121636*
Y149440*
X123205*
X119333Y151911D02*
X119049D01*
X118347Y150087*
X118205Y149660*
X118109Y149664*
X118002Y150089*
X117301Y151911*
X117016*
X117977Y149440*
X118338*
X119333Y151911*
X116536Y151290D02*
X116311Y151418D01*
X116308Y151420*
X116094Y151563*
X116086Y151569*
X115908Y151748*
X115900Y151757*
X115807Y151911*
X115671*
Y149440*
X115893*
Y151390*
X115973Y151430*
X116255Y151218*
X116536Y151078*
Y151290*
X114607Y149661D02*
X114386D01*
Y149440*
X114607*
Y149661*
X113821Y150602D02*
X113786Y150920D01*
X113751Y151201*
X113683Y151440*
X113549Y151641*
X113279Y151843*
X112941Y151911*
X112675Y151878*
X112477Y151745*
X112310Y151545*
X112255Y151326*
X112474Y151302*
X112501Y151436*
X112508Y151453*
X112580Y151561*
X112591Y151573*
X112734Y151680*
X112754Y151689*
X112933Y151725*
X112955Y151724*
X113241Y151653*
X113264Y151640*
X113407Y151497*
X113418Y151480*
X113489Y151301*
X113490Y151299*
X113562Y151084*
X113564Y151074*
X113600Y150716*
Y150711*
X113511Y150680*
X113372Y150854*
X113243Y150950*
X112908Y151017*
X112643Y150951*
X112409Y150784*
X112276Y150550*
X112208Y150245*
X112242Y150009*
X112310Y149804*
X112410Y149638*
X112574Y149506*
X112776Y149439*
X112983Y149404*
X113148*
X113315Y149471*
X113449Y149538*
X113582Y149671*
X113683Y149840*
X113752Y150048*
X113821Y150290*
Y150602*
X113600Y150247D02*
X113599Y150237D01*
X113563Y150059*
Y150056*
X113527Y149914*
X113520Y149898*
X113449Y149791*
X113437Y149779*
X113294Y149671*
X113292Y149670*
X113185Y149598*
X113157Y149590*
X112979*
X112969Y149591*
X112790Y149627*
X112774Y149633*
X112596Y149740*
X112579Y149757*
X112471Y149936*
X112465Y149954*
X112429Y150204*
Y150218*
X112429D02*
X112465Y150468D01*
X112465D02*
X112471Y150487D01*
X112579Y150666*
X112596Y150683*
X112774Y150790*
X112792Y150796*
X113006Y150832*
X113023*
X113237Y150796*
X113254Y150790*
X113433Y150683*
X113450Y150666*
X113557Y150487*
X113564Y150470*
X113599Y150255*
X113600Y150247*
X111971Y103451D02*
X111937Y103798D01*
X111834Y104106*
X111628Y104381*
X111389Y104585*
X111082Y104688*
X110736Y104722*
X110461Y104688*
X110255Y104619*
X110051Y104517*
X109916Y104382*
X109780Y104213*
X109729Y104059*
X109958Y104008*
X110084Y104259*
X110093Y104272*
X110200Y104379*
X110213Y104389*
X110356Y104460*
X110369Y104464*
X110726Y104536*
X110745*
X111138Y104465*
X111155Y104458*
X111441Y104279*
X111458Y104262*
X111601Y104012*
X111605Y104001*
X111677Y103751*
X111678Y103743*
X111714Y103457*
Y103451*
Y103446*
X111678Y103124*
X111677Y103116*
X111605Y102866*
X111599Y102852*
X111456Y102638*
X111442Y102624*
X111228Y102481*
X111216Y102475*
X111002Y102404*
X110993Y102402*
X110743Y102366*
X110727*
X110299Y102437*
X110281Y102444*
X110103Y102551*
X110099Y102554*
X109956Y102661*
X109936Y102701*
Y103201*
X109986Y103251*
X110686*
Y103437*
X109679*
Y102548*
X109902Y102388*
X110180Y102284*
X110424Y102214*
X110701Y102180*
X111047Y102215*
X111355Y102317*
X111630Y102523*
X111834Y102762*
X111936Y103069*
X111971Y103451*
X109629Y110592D02*
X109371D01*
Y108121*
X109629*
Y110592*
Y116498D02*
X109371D01*
Y114026*
X109629*
Y116498*
Y122403D02*
X109371D01*
Y119932*
X109629*
Y122403*
Y128309D02*
X109371D01*
Y125837*
X109629*
Y128309*
Y134214D02*
X109371D01*
Y131743*
X109629*
Y134214*
Y140120D02*
X109371D01*
Y137648*
X109629*
Y140120*
X109079Y104687D02*
X108763D01*
X107528Y102781*
X107436Y102808*
Y104687*
X107179*
Y102215*
X107494*
X108729Y104121*
X108821Y104094*
Y102215*
X109079*
Y104687*
X110459Y150044D02*
X110235Y150069D01*
X110176Y149893*
X110169Y149879*
X110061Y149736*
X110044Y149722*
X109901Y149650*
X109888Y149646*
X109710Y149610*
X109692*
X109477Y149646*
X109456Y149655*
X109313Y149762*
X109300Y149776*
X109193Y149955*
X109187Y149971*
X109151Y150149*
X109150Y150159*
X109151Y150167*
X109186Y150382*
X109196Y150403*
X109303Y150546*
X109313Y150556*
X109456Y150663*
X109477Y150673*
X109692Y150708*
X109708*
X109856Y150684*
X109834Y150859*
X109629*
X109599Y150869*
X109456Y150976*
X109450Y150981*
X109343Y151088*
X109330Y151114*
X109294Y151292*
Y151314*
X109330Y151457*
X109334Y151467*
X109405Y151610*
X109422Y151629*
X109529Y151701*
X109547Y151708*
X109726Y151744*
X109748Y151743*
X109891Y151708*
X109901Y151704*
X110044Y151632*
X110066Y151610*
X110138Y151467*
X110139Y151463*
X110197Y151320*
X110416Y151345*
X110334Y151565*
X110200Y151766*
X110004Y151897*
X109738Y151930*
X109571Y151897*
X109403Y151829*
X109138Y151631*
X109073Y151303*
X109137Y151046*
X109409Y150842*
X109394Y150755*
X109191Y150687*
X109061Y150557*
X108962Y150392*
X108929Y150162*
X108997Y149893*
X109164Y149625*
X109396Y149492*
X109738Y149424*
X110005Y149458*
X110237Y149590*
X110404Y149823*
X110459Y150044*
X106507Y104687D02*
X105419D01*
X105249Y104653*
X105042Y104584*
X104876Y104484*
X104707Y104282*
X104605Y104042*
X104535Y103764*
X104500Y103448*
Y103208*
X104569Y102966*
X104639Y102758*
X104740Y102589*
X104943Y102386*
X105248Y102250*
X105631Y102215*
X106507*
Y104687*
X106250Y104451D02*
Y102451D01*
X106200Y102401*
X105450*
X105440Y102402*
X105262Y102438*
X105244Y102445*
X105029Y102588*
X105017Y102600*
X104910Y102742*
X104904Y102754*
X104832Y102932*
X104832D02*
X104830Y102937D01*
X104759Y103187*
X104757Y103201*
Y103451*
Y103456*
X104793Y103848*
X104797Y103864*
X104904Y104114*
X104911Y104125*
X105054Y104304*
X105063Y104312*
X105206Y104420*
X105217Y104426*
X105396Y104497*
X105414Y104501*
X106200*
X106250Y104451*
X108771Y109321D02*
X108701Y109878D01*
X108601Y110079*
X108429Y110285*
X108257Y110423*
X108087Y110525*
X107847Y110593*
X107606Y110628*
X107299Y110593*
X106991Y110457*
X106751Y110251*
X106581Y110012*
X106478Y109703*
X106443Y109356*
X106478Y108974*
X106580Y108667*
X106785Y108428*
X107026Y108222*
X107297Y108120*
X107607Y108085*
X107915Y108120*
X108223Y108256*
X108463Y108462*
X108634Y108701*
X108737Y109010*
X108771Y109321*
X108514Y109571D02*
Y109321D01*
Y109313*
X108442Y108884*
X108437Y108868*
X108258Y108547*
X108241Y108528*
X107955Y108350*
X107939Y108343*
X107618Y108272*
X107597*
X107240Y108343*
X107221Y108352*
X106971Y108530*
X106955Y108549*
X106777Y108906*
X106772Y108920*
X106701Y109348*
X106700Y109363*
X106736Y109648*
X106738Y109656*
X106809Y109906*
X106812Y109915*
X106920Y110129*
X106933Y110146*
X107112Y110288*
X107120Y110294*
X107120D02*
X107335Y110401D01*
X107350Y110406*
X107600Y110442*
X107618Y110441*
X107939Y110370*
X107955Y110363*
X108241Y110185*
X108254Y110172*
X108361Y110029*
X108368Y110018*
X108439Y109839*
X108441Y109835*
X108512Y109585*
X108514Y109571*
X108771Y115226D02*
X108701Y115783D01*
X108601Y115985*
X108429Y116190*
X108257Y116328*
X108087Y116430*
X107847Y116499*
X107606Y116533*
X107299Y116499*
X106991Y116362*
X106751Y116157*
X106581Y115918*
X106478Y115609*
X106443Y115262*
X106478Y114880*
X106580Y114573*
X106785Y114333*
X107026Y114127*
X107297Y114025*
X107607Y113991*
X107915Y114025*
X108223Y114162*
X108463Y114368*
X108634Y114606*
X108737Y114916*
X108771Y115226*
X108514Y115476D02*
Y115226D01*
Y115218*
X108442Y114790*
X108437Y114774*
X108258Y114452*
X108241Y114434*
X107955Y114255*
X107939Y114249*
X107618Y114178*
X107597Y114177*
X107240Y114249*
X107221Y114257*
X106971Y114436*
X106955Y114454*
X106777Y114811*
X106772Y114825*
X106701Y115254*
X106700Y115268*
X106736Y115554*
X106738Y115562*
X106809Y115812*
X106812Y115820*
X106920Y116034*
X106933Y116051*
X107112Y116194*
X107120Y116200*
X107120D02*
X107335Y116307D01*
X107350Y116312*
X107600Y116347*
X107618*
X107939Y116275*
X107955Y116269*
X108241Y116090*
X108254Y116078*
X108361Y115935*
X108368Y115924*
X108439Y115745*
X108441Y115740*
X108512Y115490*
X108514Y115476*
X108771Y121132D02*
X108701Y121689D01*
X108601Y121890*
X108429Y122096*
X108257Y122234*
X108087Y122336*
X107847Y122404*
X107606Y122439*
X107299Y122404*
X106991Y122268*
X106751Y122062*
X106581Y121823*
X106478Y121514*
X106443Y121167*
X106478Y120785*
X106580Y120478*
X106785Y120239*
X107026Y120033*
X107297Y119931*
X107607Y119896*
X107915Y119931*
X108223Y120067*
X108463Y120273*
X108634Y120512*
X108737Y120821*
X108771Y121132*
X108514Y121382D02*
Y121132D01*
Y121124*
X108442Y120695*
X108437Y120679*
X108258Y120358*
X108241Y120339*
X107955Y120161*
X107939Y120155*
X107618Y120083*
X107597*
X107240Y120154*
X107221Y120163*
X106971Y120341*
X106955Y120360*
X106777Y120717*
X106772Y120731*
X106701Y121159*
X106700Y121174*
X106736Y121460*
X106738Y121467*
X106809Y121717*
X106812Y121726*
X106920Y121940*
X106933Y121957*
X107112Y122100*
X107120Y122105*
X107120D02*
X107335Y122212D01*
X107350Y122217*
X107600Y122253*
X107618Y122252*
X107939Y122181*
X107955Y122174*
X108241Y121996*
X108254Y121983*
X108361Y121840*
X108368Y121829*
X108439Y121650*
X108441Y121646*
X108512Y121396*
X108514Y121382*
X108771Y127037D02*
X108701Y127594D01*
X108601Y127796*
X108429Y128002*
X108257Y128139*
X108087Y128241*
X107847Y128310*
X107606Y128344*
X107299Y128310*
X106991Y128173*
X106751Y127968*
X106581Y127729*
X106478Y127420*
X106443Y127073*
X106478Y126691*
X106580Y126384*
X106785Y126144*
X107026Y125938*
X107297Y125836*
X107607Y125802*
X107915Y125836*
X108223Y125973*
X108463Y126179*
X108634Y126417*
X108737Y126727*
X108771Y127037*
X108514Y127287D02*
Y127037D01*
Y127029*
X108442Y126601*
X108437Y126585*
X108258Y126263*
X108241Y126245*
X107955Y126066*
X107939Y126060*
X107618Y125989*
X107597Y125988*
X107240Y126060*
X107221Y126068*
X106971Y126247*
X106955Y126265*
X106777Y126622*
X106772Y126636*
X106701Y127065*
X106700Y127079*
X106736Y127365*
X106738Y127373*
X106809Y127623*
X106812Y127631*
X106920Y127845*
X106933Y127862*
X107112Y128005*
X107120Y128011*
X107120D02*
X107335Y128118D01*
X107350Y128123*
X107600Y128158*
X107618*
X107939Y128086*
X107955Y128080*
X108241Y127901*
X108254Y127889*
X108361Y127746*
X108368Y127735*
X108439Y127556*
X108441Y127551*
X108512Y127301*
X108514Y127287*
X108771Y132943D02*
X108701Y133500D01*
X108601Y133701*
X108429Y133907*
X108257Y134045*
X108087Y134147*
X107847Y134215*
X107606Y134250*
X107299Y134216*
X106991Y134079*
X106751Y133873*
X106581Y133634*
X106478Y133325*
X106443Y132978*
X106478Y132596*
X106580Y132289*
X106785Y132050*
X107026Y131844*
X107297Y131742*
X107607Y131708*
X107915Y131742*
X108223Y131878*
X108463Y132084*
X108634Y132323*
X108737Y132632*
X108771Y132943*
X108514Y133193D02*
Y132943D01*
Y132935*
X108442Y132506*
X108437Y132490*
X108258Y132169*
X108241Y132151*
X107955Y131972*
X107939Y131966*
X107618Y131894*
X107597*
X107240Y131965*
X107221Y131974*
X106971Y132152*
X106955Y132171*
X106777Y132528*
X106772Y132542*
X106701Y132970*
X106700Y132985*
X106736Y133271*
X106738Y133278*
X106809Y133528*
X106812Y133537*
X106920Y133751*
X106933Y133768*
X107112Y133911*
X107120Y133916*
X107120D02*
X107335Y134023D01*
X107350Y134028*
X107600Y134064*
X107618Y134063*
X107939Y133992*
X107955Y133985*
X108241Y133807*
X108254Y133794*
X108361Y133651*
X108368Y133640*
X108439Y133461*
X108441Y133457*
X108512Y133207*
X108514Y133193*
X108771Y138848D02*
X108701Y139405D01*
X108601Y139606*
X108429Y139812*
X108257Y139950*
X108087Y140052*
X107847Y140121*
X107606Y140155*
X107299Y140121*
X106991Y139984*
X106751Y139778*
X106581Y139539*
X106478Y139230*
X106443Y138884*
X106478Y138501*
X106580Y138195*
X106785Y137955*
X107026Y137749*
X107297Y137647*
X107607Y137613*
X107915Y137647*
X108223Y137784*
X108463Y137989*
X108634Y138228*
X108737Y138538*
X108771Y138848*
X108514Y139098D02*
Y138848D01*
Y138840*
X108442Y138411*
X108437Y138395*
X108258Y138074*
X108241Y138056*
X107955Y137877*
X107939Y137871*
X107618Y137799*
X107597*
X107240Y137871*
X107221Y137879*
X106971Y138057*
X106955Y138076*
X106777Y138433*
X106772Y138447*
X106701Y138876*
X106700Y138890*
X106736Y139176*
X106738Y139183*
X106809Y139433*
X106812Y139442*
X106920Y139656*
X106933Y139673*
X107112Y139816*
X107120Y139821*
X107120D02*
X107335Y139929D01*
X107350Y139933*
X107600Y139969*
X107618Y139968*
X107939Y139897*
X107955Y139891*
X108241Y139712*
X108254Y139700*
X108361Y139557*
X108368Y139545*
X108439Y139367*
X108441Y139362*
X108512Y139112*
X108514Y139098*
X108864Y146026D02*
X107107D01*
Y145840*
X108557*
X108607Y145790*
Y144968*
X108557Y144918*
X107214*
Y144733*
X108557*
X108607Y144683*
Y143790*
X108557Y143740*
X107036*
Y143554*
X108864*
Y146026*
X106471D02*
X106156D01*
X104921Y144120*
X104829Y144147*
Y146026*
X104571*
Y143554*
X104887*
X106122Y145460*
X106214Y145433*
Y143554*
X106471*
Y146026*
X108662Y151931D02*
X108377D01*
X107676Y150107*
X107533Y149679*
X107437Y149683*
X107331Y150108*
X106630Y151931*
X106345*
X107306Y149459*
X107666*
X108662Y151931*
X105985Y109785D02*
X105917Y110090D01*
X105782Y110359*
X105551Y110524*
X105248Y110592*
X105015Y110558*
X104815Y110458*
X104683Y110326*
X104547Y110088*
X104478Y109813*
X104443Y109392*
X104478Y108971*
X104547Y108624*
X104683Y108387*
X104851Y108219*
X105051Y108119*
X105286Y108086*
X105554Y108119*
X105750Y108250*
X105882Y108449*
X105938Y108670*
X105713Y108695*
X105655Y108519*
X105649Y108507*
X105577Y108400*
X105563Y108386*
X105456Y108315*
X105441Y108308*
X105298Y108272*
X105272Y108273*
X105022Y108344*
X105004Y108353*
X104826Y108496*
X104809Y108523*
X104774Y108661*
X104705Y108799*
X104700Y108816*
X104664Y109209*
Y109214*
Y109249*
X104747Y109287*
X104991Y109079*
X105157Y109012*
X105319Y108979*
X105552Y109046*
X105783Y109178*
X105917Y109444*
X105985Y109785*
X105764Y109749D02*
Y109741D01*
X105728Y109527*
X105721Y109509*
X105614Y109331*
X105601Y109317*
X105459Y109209*
X105437Y109200*
X105223Y109164*
X105206*
X104992Y109200*
X104970Y109209*
X104827Y109317*
X104814Y109331*
X104707Y109509*
X104701Y109528*
X104701D02*
X104665Y109778D01*
X104664Y109785*
X104665Y109793*
X104701Y110008*
X104705Y110022*
X104812Y110236*
X104827Y110254*
X104970Y110361*
X104992Y110370*
X105206Y110406*
X105224*
X105403Y110370*
X105424Y110360*
X105603Y110217*
X105614Y110204*
X105721Y110025*
X105728Y110007*
X105764Y109757*
Y109749*
X105985Y114728D02*
X105951Y114929D01*
X105885Y115128*
X105759Y115254*
X105556Y115322*
X105546Y115412*
X105719Y115516*
X105816Y115613*
X105881Y115743*
X105914Y115906*
X105881Y116134*
X105716Y116332*
X105518Y116464*
X105214Y116497*
X105214D02*
X104910Y116464D01*
X104712Y116332*
X104548Y116134*
X104515Y115872*
X104547Y115744*
X104613Y115613*
X104710Y115516*
X104883Y115412*
X104880Y115325*
X104672Y115221*
X104543Y115091*
X104477Y114927*
X104444Y114728*
X104511Y114423*
X104644Y114191*
X104910Y114025*
X105214Y113991*
X105519Y114025*
X105784Y114191*
X105917Y114423*
X105985Y114728*
X105692Y115895D02*
X105656Y115717D01*
X105649Y115699*
X105577Y115592*
X105577D02*
X105558Y115575D01*
X105415Y115503*
X105403Y115499*
X105224Y115463*
X105204*
X105026Y115499*
X105013Y115503*
X104870Y115575*
X104851Y115592*
X104851D02*
X104780Y115699D01*
X104773Y115714*
X104737Y115857*
Y115881*
X104773Y116024*
X104777Y116034*
X104848Y116177*
X104870Y116200*
X104870D02*
X105013Y116271D01*
X105026Y116275*
X105204Y116311*
X105224*
X105403Y116275*
X105415Y116271*
X105558Y116200*
X105577Y116183*
X105649Y116076*
X105656Y116060*
X105691Y115917*
X105692Y115895*
X105764Y114726D02*
Y114719D01*
X105728Y114469*
X105720Y114449*
X105649Y114342*
X105649D02*
X105630Y114325D01*
X105489Y114254*
X105385Y114185*
X105357Y114176*
X105214*
X105206Y114177*
X104992Y114213*
X104970Y114222*
X104827Y114329*
X104817Y114339*
X104710Y114482*
X104701Y114504*
X104665Y114718*
X104664Y114726*
X104665Y114736*
X104701Y114915*
X104707Y114931*
X104814Y115109*
X104827Y115124*
X104970Y115231*
X104992Y115240*
X105206Y115276*
X105223*
X105437Y115240*
X105459Y115231*
X105601Y115124*
X105614Y115109*
X105721Y114931*
X105728Y114915*
X105763Y114736*
X105764Y114726*
X106021Y122368D02*
X104443D01*
Y122185*
X104682Y121877*
X104687Y121870*
X104901Y121477*
X104902Y121476*
X105116Y121047*
X105118Y121044*
X105296Y120615*
X105299Y120606*
X105370Y120249*
X105371Y120244*
X105402Y119932*
X105623*
X105594Y120194*
X105488Y120582*
X105346Y121006*
X105171Y121393*
X104924Y121745*
X104675Y122065*
X104714Y122146*
X106021*
Y122368*
X106057Y126999D02*
X106022Y127318D01*
X105987Y127599*
X105918Y127838*
X105785Y128038*
X105515Y128241*
X105177Y128308*
X104911Y128275*
X104712Y128143*
X104546Y127943*
X104491Y127724*
X104710Y127699*
X104737Y127833*
X104744Y127851*
X104816Y127958*
X104827Y127970*
X104970Y128077*
X104990Y128086*
X105169Y128122*
X105191*
X105476Y128050*
X105500Y128037*
X105642Y127894*
X105642D02*
X105654Y127877D01*
X105725Y127699*
X105726Y127696*
X105797Y127482*
X105800Y127471*
X105835Y127114*
X105836Y127109*
X105747Y127078*
X105608Y127251*
X105479Y127348*
X105144Y127415*
X104878Y127348*
X104645Y127182*
X104511Y126948*
X104444Y126643*
X104477Y126406*
X104546Y126201*
X104645Y126035*
X104810Y125903*
X105012Y125836*
X105218Y125802*
X105383*
X105551Y125869*
X105685Y125936*
X105817Y126068*
X105919Y126237*
X105988Y126445*
X106057Y126687*
Y126999*
X105836Y126645D02*
X105835Y126635D01*
X105799Y126456*
Y126454*
X105763Y126311*
X105756Y126295*
X105684Y126188*
X105673Y126176*
X105530Y126069*
X105528Y126067*
X105421Y125996*
X105393Y125987*
X105214*
X105204Y125988*
X105026Y126024*
X105010Y126030*
X104831Y126137*
X104814Y126155*
X104707Y126333*
X104701Y126352*
X104701D02*
X104665Y126602D01*
Y126616*
X104701Y126866*
X104701D02*
X104707Y126885D01*
X104814Y127063*
X104831Y127080*
X105010Y127187*
X105027Y127194*
X105242Y127230*
X105258*
X105473Y127194*
X105490Y127187*
X105669Y127080*
X105686Y127063*
X105793Y126885*
X105799Y126867*
X105835Y126653*
X105836Y126645*
X105973Y132328D02*
X105749Y132353D01*
X105690Y132177*
X105688Y132171*
X105616Y132028*
X105594Y132005*
X105451Y131934*
X105438Y131930*
X105260Y131894*
X105243Y131893*
X104993Y131929*
X104965Y131943*
X104822Y132086*
X104814Y132096*
X104707Y132274*
X104701Y132293*
X104701D02*
X104665Y132543D01*
Y132557*
X104701Y132807*
X104701D02*
X104707Y132826D01*
X104814Y133004*
X104827Y133019*
X104970Y133126*
X104993Y133135*
X105243Y133171*
X105264Y133170*
X105514Y133098*
X105535Y133085*
X105697Y132924*
X105941Y132951*
X105709Y134179*
X104586*
Y133957*
X105500*
X105549Y133915*
X105657Y133236*
Y133229*
X105579Y133187*
X105375Y133324*
X105145Y133356*
X104878Y133290*
X104643Y133121*
X104477Y132889*
X104443Y132585*
X104477Y132244*
X104612Y132009*
X104747Y131874*
X104878Y131775*
X105045Y131742*
X105251Y131708*
X105520Y131741*
X105751Y131874*
X105918Y132107*
X105973Y132328*
X106129Y138510D02*
X104939Y140084D01*
X104764*
Y138527*
X104714Y138477*
X104443*
Y138255*
X104714*
X104764Y138205*
Y137648*
X104986*
Y138205*
X105036Y138255*
X106129*
Y138510*
X105786Y138477D02*
X105036D01*
X104986Y138527*
Y139527*
X105076Y139557*
X105826Y138557*
X105786Y138477*
X106066Y150044D02*
X105842Y150069D01*
X105783Y149893*
X105776Y149879*
X105669Y149736*
X105651Y149722*
X105508Y149650*
X105496Y149646*
X105317Y149610*
X105299*
X105085Y149646*
X105063Y149655*
X104920Y149762*
X104907Y149776*
X104800Y149955*
X104794Y149971*
X104758Y150149*
X104757Y150159*
X104758Y150167*
X104794Y150382*
X104803Y150403*
X104910Y150546*
X104920Y150556*
X105063Y150663*
X105085Y150673*
X105299Y150708*
X105315*
X105463Y150684*
X105442Y150859*
X105236*
X105206Y150869*
X105063Y150976*
X105058Y150981*
X104950Y151088*
X104937Y151114*
X104901Y151292*
Y151314*
X104937Y151457*
X104941Y151467*
X105012Y151610*
X105029Y151629*
X105137Y151701*
X105154Y151708*
X105333Y151744*
X105355Y151743*
X105498Y151708*
X105508Y151704*
X105651Y151632*
X105673Y151610*
X105745Y151467*
X105746Y151463*
X105804Y151320*
X106023Y151345*
X105941Y151565*
X105807Y151766*
X105611Y151897*
X105345Y151930*
X105179Y151897*
X105010Y151829*
X104745Y151631*
X104680Y151303*
X104744Y151046*
X105016Y150842*
X105002Y150755*
X104798Y150687*
X104668Y150557*
X104569Y150392*
X104569D02*
X104537Y150162D01*
X104604Y149893*
X104771Y149625*
X105003Y149492*
X105345Y149424*
X105612Y149458*
X105844Y149590*
X106011Y149823*
X106066Y150044*
X104500Y103208D02*
Y103448D01*
Y108862D02*
Y109900D01*
Y114475D02*
Y114985D01*
Y122111D02*
Y122368D01*
Y126338D02*
Y126896D01*
Y127723D02*
Y127760D01*
Y132204D02*
Y132921D01*
Y138255D02*
Y138477D01*
X104600Y102873D02*
Y104023D01*
Y108532D02*
Y110181D01*
Y114268D02*
Y115149D01*
Y115638D02*
Y116197D01*
Y121983D02*
Y122368D01*
Y126111D02*
Y127103D01*
Y127712D02*
Y128008D01*
Y132029D02*
Y133061D01*
Y133957D02*
Y134179D01*
Y138255D02*
Y138477D01*
Y143554D02*
Y146026D01*
Y149908D02*
Y150443D01*
X104700Y102655D02*
Y104265D01*
Y108370D02*
Y108819D01*
Y109297D02*
Y109532D01*
Y110004D02*
Y110343D01*
Y114156D02*
Y114508D01*
Y114910D02*
Y115235D01*
Y115526D02*
Y116317D01*
Y121846D02*
Y122033D01*
Y122144D02*
Y122368D01*
Y125991D02*
Y126355D01*
Y126862D02*
Y127221D01*
Y127700D02*
Y128128D01*
Y131921D02*
Y132296D01*
Y132804D02*
Y133162D01*
Y133957D02*
Y134179D01*
Y138255D02*
Y138477D01*
Y143554D02*
Y146026D01*
Y149739D02*
Y150588D01*
Y151222D02*
Y151404D01*
X104800Y102529D02*
Y103044D01*
Y103871D02*
Y104393D01*
Y108270D02*
Y108558D01*
Y109242D02*
Y109355D01*
Y110211D02*
Y110443D01*
Y114093D02*
Y114362D01*
Y115085D02*
Y115285D01*
Y115462D02*
Y115668D01*
Y116081D02*
Y116390D01*
Y121662D02*
Y121905D01*
Y122146D02*
Y122368D01*
Y125911D02*
Y126178D01*
Y127039D02*
Y127292D01*
Y127935D02*
Y128201D01*
Y131834D02*
Y132120D01*
Y132981D02*
Y133234D01*
Y133957D02*
Y134179D01*
Y137648D02*
Y140084D01*
Y143554D02*
Y146026D01*
Y149609D02*
Y149955D01*
Y150399D02*
Y150687D01*
Y151004D02*
Y151672D01*
X104900Y102429D02*
Y102763D01*
Y104104D02*
Y104498D01*
Y108195D02*
Y108437D01*
Y109156D02*
Y109262D01*
Y110308D02*
Y110501D01*
Y114031D02*
Y114275D01*
Y115178D02*
Y115343D01*
Y115395D02*
Y115560D01*
Y116214D02*
Y116457D01*
Y121479D02*
Y121776D01*
Y122146D02*
Y122368D01*
Y125873D02*
Y126096D01*
Y127121D02*
Y127354D01*
Y128025D02*
Y128268D01*
Y131771D02*
Y132008D01*
Y133073D02*
Y133295D01*
Y133957D02*
Y134179D01*
Y137648D02*
Y140084D01*
Y143574D02*
Y144102D01*
Y149551D02*
Y149788D01*
Y150533D02*
Y150721D01*
Y150929D02*
Y151302D01*
Y151747*
X105000Y102361D02*
Y102622D01*
Y104236D02*
Y104558D01*
Y108145D02*
Y108357D01*
Y109075D02*
Y109199D01*
Y110372D02*
Y110551D01*
Y114015D02*
Y114211D01*
Y115241D02*
Y115510D01*
Y116264D02*
Y116474D01*
Y121279D02*
Y121637D01*
Y122146D02*
Y122368D01*
Y125840D02*
Y126036D01*
Y127181D02*
Y127379D01*
Y128088D02*
Y128286D01*
Y131751D02*
Y131928D01*
Y133136D02*
Y133320D01*
Y133957D02*
Y134179D01*
Y138240D02*
Y138492D01*
Y139562D02*
Y140004D01*
Y143728D02*
Y144242D01*
Y149494D02*
Y149702D01*
Y150616D02*
Y150754D01*
Y150854D02*
Y151038D01*
Y151585D02*
Y151822D01*
X105100Y102316D02*
Y102541D01*
Y104340D02*
Y104603D01*
Y108112D02*
Y108322D01*
Y109035D02*
Y109182D01*
Y110388D02*
Y110570D01*
Y114004D02*
Y114195D01*
Y115258D02*
Y115484D01*
Y116290D02*
Y116485D01*
Y121079D02*
Y121494D01*
Y122146D02*
Y122368D01*
Y125821D02*
Y126009D01*
Y127206D02*
Y127404D01*
Y128108D02*
Y128299D01*
Y131733D02*
Y131914D01*
Y133151D02*
Y133345D01*
Y133957D02*
Y134179D01*
Y138255D02*
Y138477D01*
Y139524D02*
Y139871D01*
Y143883D02*
Y144397D01*
Y149473D02*
Y149643D01*
Y150675D02*
Y150948D01*
Y151676D02*
Y151865D01*
X105200Y102272D02*
Y102474D01*
Y104415D02*
Y104636D01*
Y108098D02*
Y108293D01*
Y109003D02*
Y109165D01*
Y110405D02*
Y110585D01*
Y113993D02*
Y114178D01*
Y115275D02*
Y115464D01*
Y116310D02*
Y116496D01*
Y120846D02*
Y121328D01*
Y122146D02*
Y122368D01*
Y125805D02*
Y125989D01*
Y127223D02*
Y127404D01*
Y128119D02*
Y128304D01*
Y131716D02*
Y131900D01*
Y133165D02*
Y133349D01*
Y133957D02*
Y134179D01*
Y138255D02*
Y138477D01*
Y139391D02*
Y139739D01*
Y144037D02*
Y144551D01*
Y149453D02*
Y149626D01*
Y150692D02*
Y150873D01*
Y151717D02*
Y151901D01*
X105300Y102245D02*
Y102430D01*
Y104459D02*
Y104663D01*
Y108087D02*
Y108273D01*
Y108983D02*
Y109177D01*
Y110390D02*
Y110580D01*
Y114000D02*
Y114176D01*
Y115263D02*
Y115478D01*
Y116296D02*
Y116488D01*
Y120601D02*
Y121108D01*
Y122146D02*
Y122368D01*
Y125802D02*
Y125987D01*
Y127223D02*
Y127384D01*
Y128094D02*
Y128284D01*
Y131714D02*
Y131902D01*
Y133159D02*
Y133334D01*
Y133957D02*
Y134179D01*
Y138255D02*
Y138477D01*
Y139258D02*
Y139607D01*
Y144191D02*
Y144705D01*
Y149433D02*
Y149610D01*
Y150709D02*
Y150859D01*
Y151737D02*
Y151921D01*
X105400Y102236D02*
Y102410D01*
Y104499D02*
Y104683D01*
Y108100D02*
Y108298D01*
Y109002D02*
Y109194D01*
Y110370D02*
Y110558D01*
Y114012D02*
Y114195D01*
Y115246D02*
Y115498D01*
Y116276D02*
Y116477D01*
Y119956D02*
Y120845D01*
Y122146D02*
Y122368D01*
Y125808D02*
Y125988D01*
Y127206D02*
Y127364D01*
Y128069D02*
Y128264D01*
Y131726D02*
Y131922D01*
Y133131D02*
Y133307D01*
Y133957D02*
Y134179D01*
Y138255D02*
Y138477D01*
Y139124D02*
Y139474D01*
Y144345D02*
Y144860D01*
Y149431D02*
Y149627D01*
Y150694D02*
Y150859D01*
Y151732D02*
Y151923D01*
X105500Y102227D02*
Y102401D01*
Y104501D02*
Y104687D01*
Y108112D02*
Y108344D01*
Y109031D02*
Y109241D01*
Y110299D02*
Y110536D01*
Y114023D02*
Y114260D01*
Y115200D02*
Y115545D01*
Y116229D02*
Y116466D01*
Y119932D02*
Y120537D01*
Y122146D02*
Y122368D01*
Y125848D02*
Y126049D01*
Y127181D02*
Y127332D01*
Y128037D02*
Y128244D01*
Y131739D02*
Y131958D01*
Y133102D02*
Y133240D01*
Y133957D02*
Y134179D01*
Y138255D02*
Y138477D01*
Y138991D02*
Y139342D01*
Y144500D02*
Y145014D01*
Y149443D02*
Y149647D01*
Y151707D02*
Y151911D01*
X105600Y102218D02*
Y102401D01*
Y104501D02*
Y104687D01*
Y108150D02*
Y108434D01*
Y109073D02*
Y109316D01*
Y110219D02*
Y110489D01*
Y114076D02*
Y114310D01*
Y115125D02*
Y115307D01*
Y115445D02*
Y115626D01*
Y116149D02*
Y116409D01*
Y119932D02*
Y120136D01*
Y122146D02*
Y122368D01*
Y125893D02*
Y126121D01*
Y127121D02*
Y127257D01*
Y127937D02*
Y128177D01*
Y131787D02*
Y132009D01*
Y133021D02*
Y133179D01*
Y133594D02*
Y134179D01*
Y138255D02*
Y138477D01*
Y138858D02*
Y139210D01*
Y144654D02*
Y145168D01*
Y149456D02*
Y149696D01*
Y151658D02*
Y151898D01*
X105700Y102215D02*
Y102401D01*
Y104501D02*
Y104687D01*
Y108217D02*
Y108656D01*
Y109130D02*
Y109474D01*
Y110061D02*
Y110418D01*
Y114138D02*
Y114418D01*
Y114966D02*
Y115274D01*
Y115505D02*
Y116342D01*
Y122146D02*
Y122368D01*
Y125951D02*
Y126212D01*
Y127039D02*
Y127136D01*
Y127761D02*
Y128102D01*
Y131844D02*
Y132206D01*
Y132924D02*
Y134179D01*
Y138255D02*
Y138477D01*
Y138724D02*
Y139077D01*
Y144808D02*
Y145322D01*
Y149508D02*
Y149778D01*
Y151557D02*
Y151837D01*
X105800Y102215D02*
Y102401D01*
Y104501D02*
Y104687D01*
Y108325D02*
Y108686D01*
Y109211D02*
Y110323D01*
Y114218D02*
Y115213D01*
Y115597D02*
Y116231D01*
Y122146D02*
Y122368D01*
Y126051D02*
Y126461D01*
Y126863D02*
Y127061D01*
Y127468D02*
Y128015D01*
Y131942D02*
Y132347D01*
Y132935D02*
Y133695D01*
Y138255D02*
Y138479D01*
Y138591D02*
Y138945D01*
Y144963D02*
Y145477D01*
Y149565D02*
Y149944D01*
Y151329D02*
Y151770D01*
X105900Y102215D02*
Y102401D01*
Y104501D02*
Y104687D01*
Y108520D02*
Y108675D01*
Y109411D02*
Y110123D01*
Y114393D02*
Y115083D01*
Y115838D02*
Y116001D01*
Y122146D02*
Y122368D01*
Y126206D02*
Y127865D01*
Y132082D02*
Y132336D01*
Y132946D02*
Y133167D01*
Y138255D02*
Y138812D01*
Y145117D02*
Y145631D01*
Y149668D02*
Y150063D01*
Y151331D02*
Y151626D01*
X106000Y102215D02*
Y102401D01*
Y104501D02*
Y104687D01*
Y122146D02*
Y122368D01*
Y126487D02*
Y127491D01*
Y138255D02*
Y138680D01*
Y145271D02*
Y145785D01*
Y149808D02*
Y150052D01*
Y151342D02*
Y151407D01*
X106100Y102215D02*
Y102401D01*
Y104501D02*
Y104687D01*
Y138255D02*
Y138548D01*
Y145425D02*
Y145940D01*
X106200Y102215D02*
Y102401D01*
Y104501D02*
Y104687D01*
Y145468D02*
Y146026D01*
X106300Y102215D02*
Y104687D01*
Y143554D02*
Y146026D01*
X106400Y102215D02*
Y104687D01*
Y143554D02*
Y146026D01*
Y151788D02*
Y151931D01*
X106500Y102215D02*
Y104687D01*
Y108908D02*
Y109770D01*
Y114813D02*
Y115675D01*
Y120719D02*
Y121581D01*
Y126624D02*
Y127486D01*
Y132530D02*
Y133392D01*
Y138435D02*
Y139297D01*
Y151531D02*
Y151931D01*
X106600Y108644D02*
Y110039D01*
Y114550D02*
Y115945D01*
Y120455D02*
Y121850D01*
Y126361D02*
Y127756D01*
Y132266D02*
Y133661D01*
Y138171D02*
Y139566D01*
Y151274D02*
Y151931D01*
X106700Y108527D02*
Y109357D01*
Y110179*
Y114433D02*
Y115262D01*
Y116085*
Y120338D02*
Y121168D01*
Y121990*
Y126244D02*
Y127073D01*
Y127896*
Y132150D02*
Y132979D01*
Y133801*
Y138055D02*
Y138884D01*
Y139706*
Y151016D02*
Y151748D01*
X106800Y108415D02*
Y108859D01*
Y109874D02*
Y110293D01*
Y114321D02*
Y114765D01*
Y115780D02*
Y116198D01*
Y120226D02*
Y120670D01*
Y121685D02*
Y122104D01*
Y126132D02*
Y126576D01*
Y127591D02*
Y128009D01*
Y132037D02*
Y132481D01*
Y133496D02*
Y133915D01*
Y137943D02*
Y138386D01*
Y139402D02*
Y139820D01*
Y150759D02*
Y151488D01*
X106900Y108330D02*
Y108659D01*
Y110090D02*
Y110378D01*
Y114235D02*
Y114565D01*
Y115995D02*
Y116284D01*
Y120141D02*
Y120470D01*
Y121901D02*
Y122190D01*
Y126046D02*
Y126376D01*
Y127806D02*
Y128095D01*
Y131952D02*
Y132281D01*
Y133712D02*
Y134001D01*
Y137857D02*
Y138186D01*
Y139617D02*
Y139906D01*
Y150502D02*
Y151228D01*
X107000Y108244D02*
Y108509D01*
Y110199D02*
Y110461D01*
Y114149D02*
Y114415D01*
Y116105D02*
Y116366D01*
Y120055D02*
Y120320D01*
Y122010D02*
Y122272D01*
Y125960D02*
Y126226D01*
Y127916D02*
Y128177D01*
Y131866D02*
Y132131D01*
Y133821D02*
Y134083D01*
Y137771D02*
Y138037D01*
Y139726D02*
Y139988D01*
Y150245D02*
Y150968D01*
X107100Y108194D02*
Y108438D01*
Y110279D02*
Y110505D01*
Y114099D02*
Y114344D01*
Y116185D02*
Y116411D01*
Y120005D02*
Y120249D01*
Y122090D02*
Y122316D01*
Y125910D02*
Y126155D01*
Y127996D02*
Y128222D01*
Y131816D02*
Y132060D01*
Y133901D02*
Y134127D01*
Y137721D02*
Y137965D01*
Y139806D02*
Y140032D01*
Y143554D02*
Y143740D01*
Y149988D02*
Y150708D01*
X107200Y102215D02*
Y104687D01*
Y108156D02*
Y108367D01*
Y110334D02*
Y110549D01*
Y114062D02*
Y114272D01*
Y116239D02*
Y116455D01*
Y119967D02*
Y120178D01*
Y122145D02*
Y122361D01*
Y125873D02*
Y126083D01*
Y128050D02*
Y128266D01*
Y131778D02*
Y131989D01*
Y133956D02*
Y134172D01*
Y137684D02*
Y137894D01*
Y139861D02*
Y140077D01*
Y143554D02*
Y143740D01*
Y145840D02*
Y146026D01*
Y149731D02*
Y150448D01*
X107300Y102215D02*
Y104687D01*
Y108120D02*
Y108331D01*
Y110384D02*
Y110594D01*
Y114025D02*
Y114237D01*
Y116289D02*
Y116499D01*
Y119931D02*
Y120142D01*
Y122195D02*
Y122405D01*
Y125836D02*
Y126048D01*
Y128100D02*
Y128310D01*
Y131742D02*
Y131953D01*
Y134006D02*
Y134216D01*
Y137647D02*
Y137859D01*
Y139911D02*
Y140121D01*
Y143554D02*
Y143740D01*
Y144733D02*
Y144918D01*
Y145840D02*
Y146026D01*
Y149474D02*
Y150188D01*
X107400Y102215D02*
Y104687D01*
Y108108D02*
Y108311D01*
Y110413D02*
Y110605D01*
Y114014D02*
Y114217D01*
Y116319D02*
Y116510D01*
Y119919D02*
Y120122D01*
Y122224D02*
Y122416D01*
Y125825D02*
Y126028D01*
Y128130D02*
Y128321D01*
Y131731D02*
Y131933D01*
Y134035D02*
Y134227D01*
Y137636D02*
Y137839D01*
Y139941D02*
Y140132D01*
Y143554D02*
Y143740D01*
Y144733D02*
Y144918D01*
Y145840D02*
Y146026D01*
Y149459D02*
Y149832D01*
X107500Y102224D02*
Y102760D01*
Y108097D02*
Y108291D01*
Y110427D02*
Y110616D01*
Y114003D02*
Y114197D01*
Y116333D02*
Y116521D01*
Y119908D02*
Y120102D01*
Y122239D02*
Y122427D01*
Y125814D02*
Y126008D01*
Y128144D02*
Y128332D01*
Y131719D02*
Y131913D01*
Y134050D02*
Y134238D01*
Y137625D02*
Y137819D01*
Y139955D02*
Y140143D01*
Y143554D02*
Y143740D01*
Y144733D02*
Y144918D01*
Y145840D02*
Y146026D01*
Y149459D02*
Y149647D01*
X107600Y102379D02*
Y102893D01*
Y108086D02*
Y108271D01*
Y110442D02*
Y110627D01*
Y113992D02*
Y114177D01*
Y116347D02*
Y116532D01*
Y119897D02*
Y120082D01*
Y122253D02*
Y122438D01*
Y125803D02*
Y125988D01*
Y128158D02*
Y128343D01*
Y131708D02*
Y131893D01*
Y134064D02*
Y134249D01*
Y137614D02*
Y137799D01*
Y139969D02*
Y140154D01*
Y143554D02*
Y143740D01*
Y144733D02*
Y144918D01*
Y145840D02*
Y146026D01*
Y149459D02*
Y149880D01*
X107700Y102533D02*
Y103047D01*
Y108096D02*
Y108290D01*
Y110423D02*
Y110614D01*
Y114001D02*
Y114196D01*
Y116328D02*
Y116520D01*
Y119907D02*
Y120101D01*
Y122234D02*
Y122425D01*
Y125812D02*
Y126007D01*
Y128139D02*
Y128331D01*
Y131718D02*
Y131912D01*
Y134045D02*
Y134236D01*
Y137623D02*
Y137818D01*
Y139950D02*
Y140142D01*
Y143554D02*
Y143740D01*
Y144733D02*
Y144918D01*
Y145840D02*
Y146026D01*
Y149543D02*
Y150170D01*
X107800Y102687D02*
Y103201D01*
Y108107D02*
Y108313D01*
Y110401D02*
Y110600D01*
Y114012D02*
Y114218D01*
Y116306D02*
Y116505D01*
Y119918D02*
Y120124D01*
Y122212D02*
Y122411D01*
Y125823D02*
Y126029D01*
Y128117D02*
Y128316D01*
Y131729D02*
Y131935D01*
Y134023D02*
Y134222D01*
Y137634D02*
Y137840D01*
Y139928D02*
Y140127D01*
Y143554D02*
Y143740D01*
Y144733D02*
Y144918D01*
Y145840D02*
Y146026D01*
Y149791D02*
Y150430D01*
X107900Y102841D02*
Y103355D01*
Y108118D02*
Y108335D01*
Y110378D02*
Y110578D01*
Y114024D02*
Y114240D01*
Y116284D02*
Y116484D01*
Y119929D02*
Y120146D01*
Y122189D02*
Y122389D01*
Y125835D02*
Y126051D01*
Y128095D02*
Y128295D01*
Y131740D02*
Y131957D01*
Y134000D02*
Y134200D01*
Y137645D02*
Y137862D01*
Y139906D02*
Y140105D01*
Y143554D02*
Y143740D01*
Y144733D02*
Y144918D01*
Y145840D02*
Y146026D01*
Y150040D02*
Y150690D01*
X108000Y102996D02*
Y103510D01*
Y108157D02*
Y108378D01*
Y110335D02*
Y110549D01*
Y114063D02*
Y114283D01*
Y116241D02*
Y116455D01*
Y119968D02*
Y120189D01*
Y122146D02*
Y122361D01*
Y125874D02*
Y126095D01*
Y128052D02*
Y128266D01*
Y131779D02*
Y132000D01*
Y133957D02*
Y134172D01*
Y137685D02*
Y137905D01*
Y139862D02*
Y140077D01*
Y143554D02*
Y143740D01*
Y144733D02*
Y144918D01*
Y145840D02*
Y146026D01*
Y150288D02*
Y150950D01*
X108100Y103150D02*
Y103664D01*
Y108202D02*
Y108440D01*
Y110273D02*
Y110517D01*
Y114107D02*
Y114346D01*
Y116178D02*
Y116422D01*
Y120013D02*
Y120251D01*
Y122084D02*
Y122328D01*
Y125918D02*
Y126157D01*
Y127989D02*
Y128233D01*
Y131824D02*
Y132063D01*
Y133895D02*
Y134139D01*
Y137729D02*
Y137968D01*
Y139800D02*
Y140044D01*
Y143554D02*
Y143740D01*
Y144733D02*
Y144918D01*
Y145840D02*
Y146026D01*
Y150536D02*
Y151210D01*
X108200Y103304D02*
Y103818D01*
Y108246D02*
Y108503D01*
Y110210D02*
Y110457D01*
Y114152D02*
Y114408D01*
Y116116D02*
Y116362D01*
Y120057D02*
Y120314D01*
Y122021D02*
Y122268D01*
Y125963D02*
Y126220D01*
Y127927D02*
Y128173D01*
Y131868D02*
Y132125D01*
Y133832D02*
Y134079D01*
Y137774D02*
Y138030D01*
Y139737D02*
Y139984D01*
Y143554D02*
Y143740D01*
Y144733D02*
Y144918D01*
Y145840D02*
Y146026D01*
Y150784D02*
Y151470D01*
X108300Y103459D02*
Y103973D01*
Y108322D02*
Y108622D01*
Y110111D02*
Y110388D01*
Y114228D02*
Y114528D01*
Y116017D02*
Y116294D01*
Y120133D02*
Y120433D01*
Y121922D02*
Y122199D01*
Y126039D02*
Y126339D01*
Y127828D02*
Y128105D01*
Y131944D02*
Y132244D01*
Y133733D02*
Y134010D01*
Y137850D02*
Y138149D01*
Y139639D02*
Y139916D01*
Y143554D02*
Y143740D01*
Y144733D02*
Y144918D01*
Y145840D02*
Y146026D01*
Y151033D02*
Y151730D01*
X108400Y103613D02*
Y104127D01*
Y108408D02*
Y108802D01*
Y109938D02*
Y110308D01*
Y114314D02*
Y114708D01*
Y115843D02*
Y116214D01*
Y120219D02*
Y120613D01*
Y121749D02*
Y122119D01*
Y126125D02*
Y126519D01*
Y127654D02*
Y128025D01*
Y132030D02*
Y132424D01*
Y133560D02*
Y133930D01*
Y137935D02*
Y138329D01*
Y139465D02*
Y139836D01*
Y143554D02*
Y143740D01*
Y144733D02*
Y144918D01*
Y145840D02*
Y146026D01*
Y151281D02*
Y151931D01*
X108500Y103767D02*
Y104281D01*
Y108514D02*
Y109231D01*
Y109628D02*
Y110200D01*
Y114420D02*
Y115137D01*
Y115533D02*
Y116105D01*
Y120325D02*
Y121042D01*
Y121439D02*
Y122011D01*
Y126231D02*
Y126948D01*
Y127344D02*
Y127916D01*
Y132136D02*
Y132853D01*
Y133250D02*
Y133822D01*
Y138041D02*
Y138758D01*
Y139155D02*
Y139727D01*
Y143554D02*
Y143740D01*
Y144733D02*
Y144918D01*
Y145840D02*
Y146026D01*
Y151529D02*
Y151931D01*
X108600Y103921D02*
Y104435D01*
Y108654D02*
Y110080D01*
Y114560D02*
Y115985D01*
Y120465D02*
Y121891D01*
Y126371D02*
Y127796D01*
Y132276D02*
Y133702D01*
Y138181D02*
Y139607D01*
Y143554D02*
Y143764D01*
Y144708D02*
Y144943D01*
Y145816D02*
Y146026D01*
Y151777D02*
Y151931D01*
X108700Y104076D02*
Y104590D01*
Y108900D02*
Y109880D01*
Y114806D02*
Y115786D01*
Y120711D02*
Y121692D01*
Y126617D02*
Y127597D01*
Y132522D02*
Y133503D01*
Y138428D02*
Y139408D01*
Y143554D02*
Y146026D01*
X108800Y104135D02*
Y104687D01*
Y143554D02*
Y146026D01*
X108900Y102215D02*
Y104687D01*
X109000Y102215D02*
Y104687D01*
Y149888D02*
Y150455D01*
X109100Y149728D02*
Y150596D01*
Y151194D02*
Y151440D01*
X109200Y149605D02*
Y149943D01*
Y150409D02*
Y150690D01*
Y150998D02*
Y151677D01*
X109300Y149547D02*
Y149776D01*
Y150542D02*
Y150723D01*
Y150923D02*
Y151261D01*
Y151337D02*
Y151752D01*
X109400Y108121D02*
Y110592D01*
Y114026D02*
Y116498D01*
Y119932D02*
Y122403D01*
Y125837D02*
Y128309D01*
Y131743D02*
Y134214D01*
Y137648D02*
Y140120D01*
Y149492D02*
Y149697D01*
Y150622D02*
Y150757D01*
Y150848D02*
Y151031D01*
Y151600D02*
Y151827D01*
X109500Y108121D02*
Y110592D01*
Y114026D02*
Y116498D01*
Y119932D02*
Y122403D01*
Y125837D02*
Y128309D01*
Y131743D02*
Y134214D01*
Y137648D02*
Y140120D01*
Y149472D02*
Y149642D01*
Y150677D02*
Y150943D01*
Y151681D02*
Y151868D01*
X109600Y108121D02*
Y110592D01*
Y114026D02*
Y116498D01*
Y119932D02*
Y122403D01*
Y125837D02*
Y128309D01*
Y131743D02*
Y134214D01*
Y137648D02*
Y140120D01*
Y149452D02*
Y149625D01*
Y150693D02*
Y150868D01*
Y151719D02*
Y151902D01*
X109700Y102533D02*
Y103437D01*
Y149432D02*
Y149609D01*
Y150709D02*
Y150859D01*
Y151739D02*
Y151922D01*
X109800Y102461D02*
Y103437D01*
Y104044D02*
Y104237D01*
Y149432D02*
Y149628D01*
Y150693D02*
Y150859D01*
Y151730D02*
Y151922D01*
X109900Y102390D02*
Y103437D01*
Y104021D02*
Y104362D01*
Y149444D02*
Y149650D01*
Y151704D02*
Y151910D01*
X110000Y102352D02*
Y102628D01*
Y103251D02*
Y103437D01*
Y104091D02*
Y104466D01*
Y149457D02*
Y149700D01*
Y151654D02*
Y151897D01*
X110100Y102314D02*
Y102553D01*
Y103251D02*
Y103437D01*
Y104279D02*
Y104542D01*
Y149512D02*
Y149788D01*
Y151542D02*
Y151832D01*
X110200Y102279D02*
Y102493D01*
Y103251D02*
Y103437D01*
Y104379D02*
Y104592D01*
Y149569D02*
Y149965D01*
Y151321D02*
Y151765D01*
X110300Y102250D02*
Y102437D01*
Y103251D02*
Y103437D01*
Y104432D02*
Y104634D01*
Y149678D02*
Y150062D01*
Y151332D02*
Y151615D01*
X110400Y102221D02*
Y102421D01*
Y103251D02*
Y103437D01*
Y104471D02*
Y104667D01*
Y149818D02*
Y150051D01*
Y151343D02*
Y151388D01*
X110500Y102205D02*
Y102404D01*
Y103251D02*
Y103437D01*
Y104491D02*
Y104693D01*
X110600Y102193D02*
Y102387D01*
Y103251D02*
Y103437D01*
Y104511D02*
Y104705D01*
X110700Y102180D02*
Y102371D01*
Y104531D02*
Y104718D01*
X110800Y102190D02*
Y102374D01*
Y104526D02*
Y104716D01*
X110900Y102200D02*
Y102388D01*
Y104508D02*
Y104706D01*
X111000Y102210D02*
Y102403D01*
Y104490D02*
Y104696D01*
X111100Y102232D02*
Y102436D01*
Y104471D02*
Y104682D01*
X111200Y102266D02*
Y102470D01*
Y104430D02*
Y104648D01*
X111300Y102299D02*
Y102529D01*
Y104367D02*
Y104615D01*
X111400Y102351D02*
Y102596D01*
Y104305D02*
Y104576D01*
X111500Y102426D02*
Y102704D01*
Y104188D02*
Y104490D01*
X111600Y102501D02*
Y102854D01*
Y104013D02*
Y104405D01*
X111700Y102605D02*
Y103320D01*
Y103568D02*
Y104284D01*
X111800Y102722D02*
Y104151D01*
X111900Y102959D02*
Y103907D01*
X112300Y149834D02*
Y150593D01*
Y151321D02*
Y151505D01*
X112400Y149654D02*
Y150768D01*
Y151310D02*
Y151653D01*
X112500Y149565D02*
Y149888D01*
Y150535D02*
Y150849D01*
Y151431D02*
Y151761D01*
X112600Y149497D02*
Y149737D01*
Y150685D02*
Y150920D01*
Y151579D02*
Y151828D01*
X112700Y149464D02*
Y149677D01*
Y150745D02*
Y150965D01*
Y151654D02*
Y151881D01*
X112800Y149435D02*
Y149625D01*
Y150798D02*
Y150990D01*
Y151698D02*
Y151893D01*
X112900Y149418D02*
Y149605D01*
Y150814D02*
Y151015D01*
Y151718D02*
Y151906D01*
X113000Y149404D02*
Y149590D01*
Y150831D02*
Y150999D01*
Y151713D02*
Y151899D01*
X113100Y149404D02*
Y149590D01*
Y150819D02*
Y150979D01*
Y151688D02*
Y151879D01*
X113200Y149425D02*
Y149608D01*
Y150803D02*
Y150959D01*
Y151663D02*
Y151859D01*
X113300Y149465D02*
Y149676D01*
Y150763D02*
Y150908D01*
Y151604D02*
Y151827D01*
X113400Y149514D02*
Y149751D01*
Y150703D02*
Y150819D01*
Y151504D02*
Y151753D01*
X113500Y149589D02*
Y149868D01*
Y150582D02*
Y150694D01*
Y151270D02*
Y151678D01*
X113600Y149701D02*
Y151564D01*
X113700Y149891D02*
Y151379D01*
X113800Y150215D02*
Y150794D01*
X114400Y149440D02*
Y149661D01*
X114500Y149440D02*
Y149661D01*
X114600Y149440D02*
Y149661D01*
X115700Y149440D02*
Y151911D01*
X115800Y149440D02*
Y151911D01*
X115900Y151416D02*
Y151757D01*
X116000Y151410D02*
Y151655D01*
X116100Y151335D02*
Y151558D01*
X116200Y151260D02*
Y151492D01*
X116300Y151196D02*
Y151425D01*
X116400Y151146D02*
Y151367D01*
X116500Y151096D02*
Y151310D01*
X117100Y151695D02*
Y151911D01*
X117200Y151438D02*
Y151911D01*
X117300Y151181D02*
Y151911D01*
X117400Y150924D02*
Y151655D01*
X117500Y150667D02*
Y151395D01*
X117600Y150410D02*
Y151135D01*
X117700Y150152D02*
Y150875D01*
X117800Y149895D02*
Y150615D01*
X117900Y149638D02*
Y150355D01*
X118000Y149440D02*
Y150095D01*
X118100Y149440D02*
Y149698D01*
X118200Y149440D02*
Y149650D01*
X118300Y149440D02*
Y149946D01*
X118400Y149595D02*
Y150225D01*
X118500Y149843D02*
Y150485D01*
X118600Y150091D02*
Y150745D01*
X118700Y150340D02*
Y151005D01*
X118800Y150588D02*
Y151265D01*
X118900Y150836D02*
Y151525D01*
X119000Y151084D02*
Y151785D01*
X119100Y151333D02*
Y151911D01*
X119200Y151581D02*
Y151911D01*
X119300Y151829D02*
Y151911D01*
X121700Y149440D02*
Y149661D01*
Y151139D02*
Y151473D01*
X121800Y149440D02*
Y149661D01*
Y150828D02*
Y151626D01*
X121900Y149440D02*
Y149661D01*
Y150685D02*
Y151206D01*
Y151288D02*
Y151726D01*
X122000Y149440D02*
Y149661D01*
Y150564D02*
Y150936D01*
Y151518D02*
Y151783D01*
X122100Y149440D02*
Y149661D01*
Y150448D02*
Y150797D01*
Y151606D02*
Y151841D01*
X122200Y149440D02*
Y149661D01*
Y150361D02*
Y150680D01*
Y151681D02*
Y151864D01*
X122300Y149440D02*
Y149661D01*
Y150273D02*
Y150573D01*
Y151705D02*
Y151886D01*
X122400Y149440D02*
Y149661D01*
Y150187D02*
Y150484D01*
Y151725D02*
Y151909D01*
X122500Y149440D02*
Y149661D01*
Y150104D02*
Y150395D01*
Y151711D02*
Y151901D01*
X122600Y149440D02*
Y149661D01*
Y150022D02*
Y150307D01*
Y151694D02*
Y151890D01*
X122700Y149440D02*
Y149661D01*
Y149947D02*
Y150221D01*
Y151644D02*
Y151879D01*
X122800Y149440D02*
Y149661D01*
Y149836D02*
Y150135D01*
Y151568D02*
Y151827D01*
X122900Y149440D02*
Y150024D01*
Y151435D02*
Y151770D01*
X123000Y149440D02*
Y149899D01*
Y151272D02*
Y151667D01*
X123100Y149440D02*
Y149774D01*
Y151283D02*
Y151527D01*
X123200Y149440D02*
Y149472D01*
X123600Y150642D02*
Y150990D01*
X123700Y149963D02*
Y151317D01*
X123800Y149719D02*
Y151592D01*
X123900Y149586D02*
Y149935D01*
Y151380D02*
Y151738D01*
X124000Y149507D02*
Y149766D01*
Y151524D02*
Y151817D01*
X124100Y149457D02*
Y149686D01*
Y151649D02*
Y151856D01*
X124200Y149429D02*
Y149623D01*
Y151698D02*
Y151876D01*
X124300Y149415D02*
Y149603D01*
Y151714D02*
Y151896D01*
X124400Y149412D02*
Y149595D01*
Y151721D02*
Y151907D01*
X124500Y149434D02*
Y149615D01*
Y151701D02*
Y151893D01*
X124600Y149456D02*
Y149652D01*
Y151664D02*
Y151878D01*
X124700Y149492D02*
Y149732D01*
Y151584D02*
Y151831D01*
X124800Y149564D02*
Y149850D01*
Y151466D02*
Y151781D01*
X124900Y149635D02*
Y150222D01*
Y151079D02*
Y151658D01*
X125000Y149797D02*
Y151463D01*
X125100Y150153D02*
Y151095D01*
X125600Y150190D02*
Y150376D01*
X125700Y150190D02*
Y150376D01*
X125800Y150190D02*
Y150376D01*
X125900Y150190D02*
Y150376D01*
X126000Y150190D02*
Y150376D01*
X126100Y150190D02*
Y150376D01*
X126200Y150190D02*
Y150376D01*
X126300Y150190D02*
Y150376D01*
X126900Y149440D02*
Y151911D01*
X127000Y149440D02*
Y151911D01*
X127100Y149440D02*
Y151911D01*
X127200Y151594D02*
Y151911D01*
X127300Y151293D02*
Y151909D01*
X127400Y150988D02*
Y151596D01*
X127500Y150683D02*
Y151284D01*
X127600Y150378D02*
Y150971D01*
X127700Y150073D02*
Y150659D01*
X127800Y149768D02*
Y150346D01*
X127900Y149463D02*
Y150019D01*
X128000Y149440D02*
Y149735D01*
X128100Y149440D02*
Y149842D01*
X128200Y149466D02*
Y150110D01*
X128300Y149787D02*
Y150428D01*
X128400Y150109D02*
Y150747D01*
X128500Y150430D02*
Y151066D01*
X128600Y150751D02*
Y151385D01*
X128700Y151072D02*
Y151703D01*
X128800Y151393D02*
Y151911D01*
X128900Y151618D02*
Y151911D01*
X129000Y149440D02*
Y151911D01*
X129100Y149440D02*
Y151911D01*
X129200Y149440D02*
Y151911D01*
X129800Y150227D02*
Y151089D01*
X129900Y149963D02*
Y151358D01*
X130000Y149847D02*
Y150676D01*
Y151498*
X130100Y149734D02*
Y150178D01*
Y151193D02*
Y151612D01*
X130200Y149649D02*
Y149978D01*
Y151409D02*
Y151698D01*
X130300Y149563D02*
Y149829D01*
Y151518D02*
Y151780D01*
X130400Y149513D02*
Y149757D01*
Y151598D02*
Y151824D01*
X130500Y149476D02*
Y149686D01*
Y151653D02*
Y151869D01*
X130600Y149439D02*
Y149650D01*
Y151703D02*
Y151913D01*
X130700Y149428D02*
Y149630D01*
Y151732D02*
Y151924D01*
X130800Y149416D02*
Y149610D01*
Y151747D02*
Y151935D01*
X130900Y149405D02*
Y149591D01*
Y151761D02*
Y151946D01*
X131000Y149415D02*
Y149609D01*
Y151742D02*
Y151933D01*
X131100Y149426D02*
Y149632D01*
Y151720D02*
Y151919D01*
X131200Y149437D02*
Y149654D01*
Y151698D02*
Y151897D01*
X131300Y149476D02*
Y149697D01*
Y151654D02*
Y151869D01*
X131400Y149521D02*
Y149760D01*
Y151592D02*
Y151836D01*
X131500Y149565D02*
Y149822D01*
Y151529D02*
Y151776D01*
X131600Y149642D02*
Y149941D01*
Y151430D02*
Y151707D01*
X131700Y149727D02*
Y150121D01*
Y151257D02*
Y151627D01*
X131800Y149833D02*
Y150550D01*
Y150947D02*
Y151519D01*
X131900Y149973D02*
Y151399D01*
X132000Y150220D02*
Y151200D01*
X132600Y150184D02*
Y151132D01*
X132700Y149947D02*
Y151378D01*
X132800Y149830D02*
Y150586D01*
Y150793D02*
Y151518D01*
X132900Y149722D02*
Y150150D01*
Y151238D02*
Y151624D01*
X133000Y149636D02*
Y149950D01*
Y151438D02*
Y151710D01*
X133100Y149551D02*
Y149818D01*
Y151530D02*
Y151786D01*
X133200Y149508D02*
Y149747D01*
Y151610D02*
Y151831D01*
X133300Y149470D02*
Y149675D01*
Y151660D02*
Y151875D01*
X133400Y149437D02*
Y149648D01*
Y151710D02*
Y151914D01*
X133500Y149426D02*
Y149628D01*
Y151734D02*
Y151925D01*
X133600Y149415D02*
Y149608D01*
Y151749D02*
Y151937D01*
X133700Y149405D02*
Y149591D01*
Y151761D02*
Y151946D01*
X133800Y149416D02*
Y149613D01*
Y151739D02*
Y151931D01*
X133900Y149428D02*
Y149635D01*
Y151717D02*
Y151917D01*
X134000Y149439D02*
Y149657D01*
Y151694D02*
Y151893D01*
X134100Y149483D02*
Y149706D01*
Y151645D02*
Y151865D01*
X134200Y149527D02*
Y149769D01*
Y151583D02*
Y151827D01*
X134300Y149572D02*
Y149831D01*
Y151520D02*
Y151767D01*
X134400Y149654D02*
Y149967D01*
Y151411D02*
Y151696D01*
X134500Y149740D02*
Y150147D01*
Y151221D02*
Y151616D01*
X134600Y149853D02*
Y151502D01*
X134700Y149993D02*
Y151371D01*
X134800Y150262D02*
Y151094D01*
X135300Y149440D02*
Y149531D01*
X135400Y149440D02*
Y149698D01*
X135500Y149440D02*
Y149864D01*
Y150961D02*
Y151559D01*
X135600Y149511D02*
Y150031D01*
Y150842D02*
Y151719D01*
X135700Y149678D02*
Y150167D01*
Y150759D02*
Y151175D01*
Y151359D02*
Y151793D01*
X135800Y149844D02*
Y150284D01*
Y150683D02*
Y150962D01*
Y151604D02*
Y151846D01*
X135900Y150005D02*
Y150384D01*
Y150658D02*
Y150862D01*
Y151648D02*
Y151866D01*
X136000Y150155D02*
Y150465D01*
Y150633D02*
Y150797D01*
Y151688D02*
Y151882D01*
X136100Y150290D02*
Y150772D01*
Y151705D02*
Y151893D01*
X136200Y150432D02*
Y150769D01*
Y151722D02*
Y151904D01*
X136300Y150517D02*
Y150769D01*
Y151726D02*
Y151911D01*
X136400Y150567D02*
Y150769D01*
Y151726D02*
Y151911D01*
X136500Y150583D02*
Y150769D01*
Y151726D02*
Y151911D01*
X136600Y150583D02*
Y150769D01*
Y151726D02*
Y151911D01*
X136700Y150583D02*
Y150769D01*
Y151726D02*
Y151911D01*
X136800Y150583D02*
Y150769D01*
Y151726D02*
Y151911D01*
X136900Y150583D02*
Y150769D01*
Y151726D02*
Y151911D01*
X137000Y150583D02*
Y150769D01*
Y151726D02*
Y151911D01*
X137100Y149440D02*
Y151911D01*
X137200Y149440D02*
Y151911D01*
X137300Y149440D02*
Y151911D01*
X137800Y151751D02*
Y151911D01*
X137900Y151372D02*
Y151911D01*
X138000Y150993D02*
Y151911D01*
X138100Y150615D02*
Y151528D01*
X138200Y150236D02*
Y151101D01*
X138300Y149857D02*
Y150674D01*
X138400Y149478D02*
Y150245D01*
X138500Y149440D02*
Y149743D01*
X138600Y149440D02*
Y149740D01*
X138700Y149467D02*
Y150065D01*
X138800Y149790D02*
Y150390D01*
X138900Y150114D02*
Y150715D01*
X139000Y150437D02*
Y151042D01*
X139100Y150761D02*
Y151370D01*
X139200Y151085D02*
Y151697D01*
X139300Y151405D02*
Y151911D01*
X139400Y151689D02*
Y151911D01*
X139500Y151542D02*
Y151911D01*
X139600Y151205D02*
Y151861D01*
X139700Y150868D02*
Y151534D01*
X139800Y150530D02*
Y151207D01*
X139900Y150193D02*
Y150881D01*
X140000Y149855D02*
Y150554D01*
X140100Y149518D02*
Y150227D01*
X140200Y149440D02*
Y149814D01*
X140300Y149440D02*
Y149712D01*
X140400Y149440D02*
Y150062D01*
X140500Y149667D02*
Y150460D01*
X140600Y150046D02*
Y150887D01*
X140700Y150425D02*
Y151315D01*
X140800Y150804D02*
Y151742D01*
X140900Y151183D02*
Y151911D01*
X141000Y151562D02*
Y151911D01*
X141400Y150190D02*
Y150376D01*
X141500Y150190D02*
Y150376D01*
X141600Y150190D02*
Y150376D01*
X141700Y150190D02*
Y150376D01*
X141800Y150190D02*
Y150376D01*
X141900Y150190D02*
Y150376D01*
X142000Y150190D02*
Y150376D01*
X142100Y150190D02*
Y150376D01*
X142200Y150190D02*
Y150376D01*
X142700Y149823D02*
Y150483D01*
X142800Y149663D02*
Y150605D01*
Y151060D02*
Y151564D01*
X142900Y149569D02*
Y149876D01*
Y150428D02*
Y150680D01*
Y150958D02*
Y151679D01*
X143000Y149512D02*
Y149731D01*
Y150549D02*
Y150713D01*
Y150883D02*
Y151099D01*
Y151432D02*
Y151754D01*
X143100Y149467D02*
Y149656D01*
Y150624D02*
Y150984D01*
Y151614D02*
Y151820D01*
X143200Y149447D02*
Y149618D01*
Y150662D02*
Y150902D01*
Y151681D02*
Y151860D01*
X143300Y149427D02*
Y149601D01*
Y150679D02*
Y150840D01*
Y151705D02*
Y151889D01*
X143400Y149407D02*
Y149595D01*
Y150686D02*
Y150840D01*
Y151725D02*
Y151909D01*
X143500Y149416D02*
Y149615D01*
Y150669D02*
Y150840D01*
Y151704D02*
Y151899D01*
X143600Y149429D02*
Y149645D01*
Y151671D02*
Y151887D01*
X143700Y149452D02*
Y149695D01*
Y151621D02*
Y151861D01*
X143800Y149509D02*
Y149807D01*
Y151466D02*
Y151794D01*
X143900Y149566D02*
Y150032D01*
Y151305D02*
Y151703D01*
X144000Y149699D02*
Y150040D01*
Y151316D02*
Y151553D01*
X144100Y149903D02*
Y150029D01*
X144700Y149945D02*
Y150190D01*
Y151282D02*
Y151301D01*
X144800Y149770D02*
Y150210D01*
Y151262D02*
Y151526D01*
X144900Y149654D02*
Y150160D01*
Y151242D02*
Y151634D01*
X145000Y149574D02*
Y149935D01*
Y151353D02*
Y151734D01*
X145100Y149519D02*
Y149810D01*
Y151511D02*
Y151800D01*
X145200Y149463D02*
Y149730D01*
Y151610D02*
Y151862D01*
X145300Y149433D02*
Y149663D01*
Y151670D02*
Y151915D01*
X145400Y149423D02*
Y149621D01*
Y151725D02*
Y151926D01*
X145500Y149413D02*
Y149607D01*
Y151742D02*
Y151937D01*
X145600Y149406D02*
Y149593D01*
Y151759D02*
Y151945D01*
X145700Y149416D02*
Y149602D01*
Y151751D02*
Y151934D01*
X145800Y149426D02*
Y149619D01*
Y151736D02*
Y151923D01*
X145900Y149436D02*
Y149644D01*
Y151717D02*
Y151911D01*
X146000Y149474D02*
Y149678D01*
Y151667D02*
Y151873D01*
X146100Y149524D02*
Y149730D01*
Y151617D02*
Y151836D01*
X146200Y149574D02*
Y149855D01*
Y151506D02*
Y151782D01*
X146300Y149645D02*
Y150007D01*
Y151359D02*
Y151697D01*
X146400Y149717D02*
Y150298D01*
Y151079D02*
Y151611D01*
X146500Y149866D02*
Y151474D01*
X146600Y150091D02*
Y151296D01*
X146700Y150535D02*
Y150831D01*
X147100Y150190D02*
Y150376D01*
X147200Y150190D02*
Y150376D01*
X147300Y150190D02*
Y150376D01*
X147400Y150190D02*
Y150376D01*
X147500Y150190D02*
Y150376D01*
X147600Y150190D02*
Y150376D01*
X147700Y150190D02*
Y150376D01*
X147800Y150190D02*
Y150376D01*
X147900Y150190D02*
Y150376D01*
X148400Y149440D02*
Y149661D01*
X148500Y149440D02*
Y149661D01*
Y150953D02*
Y151566D01*
X148600Y149440D02*
Y149661D01*
Y150752D02*
Y151686D01*
X148700Y149440D02*
Y149661D01*
Y150624D02*
Y151019D01*
Y151468D02*
Y151755D01*
X148800Y149440D02*
Y149661D01*
Y150504D02*
Y150855D01*
Y151568D02*
Y151812D01*
X148900Y149440D02*
Y149661D01*
Y150405D02*
Y150738D01*
Y151644D02*
Y151853D01*
X149000Y149440D02*
Y149661D01*
Y150317D02*
Y150622D01*
Y151695D02*
Y151875D01*
X149100Y149440D02*
Y149661D01*
Y150230D02*
Y150529D01*
Y151715D02*
Y151898D01*
X149200Y149440D02*
Y149661D01*
Y150146D02*
Y150440D01*
Y151719D02*
Y151906D01*
X149300Y149440D02*
Y149661D01*
Y150062D02*
Y150351D01*
Y151703D02*
Y151895D01*
X149400Y149440D02*
Y149661D01*
Y149985D02*
Y150264D01*
Y151681D02*
Y151884D01*
X149500Y149440D02*
Y149661D01*
Y149899D02*
Y150178D01*
Y151606D02*
Y151856D01*
X149600Y149440D02*
Y149664D01*
Y149774D02*
Y150087D01*
Y151502D02*
Y151799D01*
X149700Y149440D02*
Y149962D01*
Y151266D02*
Y151737D01*
X149800Y149440D02*
Y149837D01*
Y151278D02*
Y151597D01*
X149900Y149440D02*
Y149666D01*
Y151289D02*
Y151355D01*
X150400Y149946D02*
Y150400D01*
X150500Y149743D02*
Y150555D01*
Y151260D02*
Y151314D01*
X150600Y149598D02*
Y149992D01*
Y150316D02*
Y150655D01*
Y150995D02*
Y151642D01*
X150700Y149540D02*
Y149793D01*
Y150495D02*
Y150697D01*
Y150920D02*
Y151717D01*
X150800Y149483D02*
Y149694D01*
Y150586D02*
Y150730D01*
Y150845D02*
Y151034D01*
Y151538D02*
Y151792D01*
X150900Y149457D02*
Y149626D01*
Y150654D02*
Y150940D01*
Y151648D02*
Y151840D01*
X151000Y149437D02*
Y149610D01*
Y150670D02*
Y150865D01*
Y151695D02*
Y151879D01*
X151100Y149417D02*
Y149593D01*
Y150687D02*
Y150840D01*
Y151715D02*
Y151899D01*
X151200Y149410D02*
Y149605D01*
Y150678D02*
Y150840D01*
Y151717D02*
Y151906D01*
X151300Y149423D02*
Y149625D01*
Y151692D02*
Y151893D01*
X151400Y149435D02*
Y149670D01*
Y151646D02*
Y151881D01*
X151500Y149480D02*
Y149740D01*
Y151566D02*
Y151828D01*
X151600Y149537D02*
Y149882D01*
Y151346D02*
Y151761D01*
X151700Y149629D02*
Y150045D01*
Y151310D02*
Y151628D01*
X151800Y149769D02*
Y150034D01*
Y151321D02*
Y151426D01*
X152400Y150922D02*
Y151505D01*
X152500Y150782D02*
Y151657D01*
X152600Y150661D02*
Y151762D01*
X152700Y150591D02*
Y150924D01*
Y151539D02*
Y151804D01*
X152800Y150551D02*
Y150800D01*
Y151639D02*
Y151837D01*
X152900Y150528D02*
Y150760D01*
Y151678D02*
Y151871D01*
X153000Y150511D02*
Y150729D01*
Y151712D02*
Y151897D01*
X153100Y150511D02*
Y150715D01*
Y151726D02*
Y151911D01*
X153200Y150511D02*
Y150701D01*
Y151726D02*
Y151911D01*
X153300Y150511D02*
Y150697D01*
Y151726D02*
Y151911D01*
X153400Y150511D02*
Y150697D01*
Y151726D02*
Y151911D01*
X153500Y150511D02*
Y150697D01*
Y151726D02*
Y151911D01*
X153600Y150511D02*
Y150697D01*
Y151726D02*
Y151911D01*
X153700Y150511D02*
Y150697D01*
Y151726D02*
Y151911D01*
X153800Y150511D02*
Y150697D01*
Y151726D02*
Y151911D01*
X153900Y150502D02*
Y150706D01*
Y151717D02*
Y151911D01*
X154000Y149440D02*
Y151911D01*
X154100Y149440D02*
Y151911D01*
X154800Y149882D02*
Y150363D01*
X154900Y149702D02*
Y150526D01*
Y151297D02*
Y151577D01*
X155000Y149596D02*
Y149997D01*
Y150104D02*
Y150613D01*
Y151297D02*
Y151698D01*
X155100Y149546D02*
Y149805D01*
Y150341D02*
Y150663D01*
Y151423D02*
Y151770D01*
X155200Y149500D02*
Y149723D01*
Y150449D02*
Y150709D01*
Y151575D02*
Y151820D01*
X155300Y149467D02*
Y149673D01*
Y150499D02*
Y150742D01*
Y151658D02*
Y151861D01*
X155400Y149436D02*
Y149646D01*
Y150529D02*
Y150774D01*
Y151698D02*
Y151894D01*
X155500Y149422D02*
Y149624D01*
Y150554D02*
Y150796D01*
Y151730D02*
Y151918D01*
X155600Y149408D02*
Y149601D01*
Y150579D02*
Y150818D01*
Y151747D02*
Y151931D01*
X155700Y149413D02*
Y149590D01*
Y150604D02*
Y150840D01*
Y151761D02*
Y151943D01*
X155800Y149424D02*
Y149590D01*
Y150629D02*
Y150879D01*
Y151747D02*
Y151936D01*
X155900Y149436D02*
Y149612D01*
Y150654D02*
Y150917D01*
Y151732D02*
Y151922D01*
X156000Y149456D02*
Y149652D01*
Y150679D02*
Y150942D01*
Y151707D02*
Y151902D01*
X156100Y149481D02*
Y149713D01*
Y150728D02*
Y150973D01*
Y151667D02*
Y151868D01*
X156200Y149506D02*
Y149791D01*
Y150788D02*
Y151076D01*
Y151583D02*
Y151827D01*
X156300Y149569D02*
Y149891D01*
Y150848D02*
Y151255D01*
Y151382D02*
Y151767D01*
X156400Y149636D02*
Y150171D01*
Y150918D02*
Y151684D01*
X156500Y149756D02*
Y150233D01*
Y151045D02*
Y151541D01*
X156600Y149943D02*
Y150233D01*
X157200Y149440D02*
Y149626D01*
X157300Y149440D02*
Y149626D01*
Y151726D02*
Y151911D01*
X157400Y149440D02*
Y149626D01*
Y150619D02*
Y150804D01*
Y151726D02*
Y151911D01*
X157500Y149440D02*
Y149626D01*
Y150619D02*
Y150804D01*
Y151726D02*
Y151911D01*
X157600Y149440D02*
Y149626D01*
Y150619D02*
Y150804D01*
Y151726D02*
Y151911D01*
X157700Y149440D02*
Y149626D01*
Y150619D02*
Y150804D01*
Y151726D02*
Y151911D01*
X157800Y149440D02*
Y149626D01*
Y150619D02*
Y150804D01*
Y151726D02*
Y151911D01*
X157900Y149440D02*
Y149626D01*
Y150619D02*
Y150804D01*
Y151726D02*
Y151911D01*
X158000Y149440D02*
Y149626D01*
Y150619D02*
Y150804D01*
Y151726D02*
Y151911D01*
X158100Y149440D02*
Y149626D01*
Y150619D02*
Y150804D01*
Y151726D02*
Y151911D01*
X158200Y149440D02*
Y149626D01*
Y150619D02*
Y150804D01*
Y151726D02*
Y151911D01*
X158300Y149440D02*
Y149626D01*
Y150619D02*
Y150804D01*
Y151726D02*
Y151911D01*
X158400Y149440D02*
Y149626D01*
Y150619D02*
Y150804D01*
Y151726D02*
Y151911D01*
X158500Y149440D02*
Y149626D01*
Y150619D02*
Y150804D01*
Y151726D02*
Y151911D01*
X158600Y149440D02*
Y149626D01*
Y150619D02*
Y150804D01*
Y151726D02*
Y151911D01*
X158700Y149440D02*
Y149650D01*
Y150594D02*
Y150829D01*
Y151701D02*
Y151911D01*
X158800Y149440D02*
Y151911D01*
Y173173D02*
Y173640D01*
X158900Y149440D02*
Y151911D01*
Y173173D02*
Y173640D01*
X159000Y102932D02*
Y103965D01*
Y120380D02*
Y120890D01*
Y126578D02*
Y127617D01*
Y173173D02*
Y173640D01*
X159100Y102595D02*
Y104249D01*
Y120174D02*
Y121054D01*
Y121544D02*
Y122102D01*
Y126249D02*
Y127897D01*
Y173173D02*
Y173640D01*
X159200Y102415D02*
Y102911D01*
Y103955D02*
Y104456D01*
Y120061D02*
Y120413D01*
Y120815D02*
Y121140D01*
Y121431D02*
Y122222D01*
Y126087D02*
Y126535D01*
Y127014D02*
Y127248D01*
Y127720D02*
Y128060D01*
Y173173D02*
Y173640D01*
X159300Y102303D02*
Y102596D01*
Y104241D02*
Y104560D01*
Y108865D02*
Y109815D01*
Y119999D02*
Y120268D01*
Y120991D02*
Y121190D01*
Y121367D02*
Y121574D01*
Y121987D02*
Y122296D01*
Y125987D02*
Y126274D01*
Y126958D02*
Y127071D01*
Y127928D02*
Y128160D01*
Y171118D02*
Y171514D01*
Y173173D02*
Y173640D01*
X159400Y102253D02*
Y102496D01*
Y104370D02*
Y104623D01*
Y108609D02*
Y110103D01*
Y119936D02*
Y120180D01*
Y121084D02*
Y121249D01*
Y121301D02*
Y121465D01*
Y122120D02*
Y122362D01*
Y125911D02*
Y126153D01*
Y126873D02*
Y126978D01*
Y128025D02*
Y128217D01*
Y171118D02*
Y171514D01*
Y173173D02*
Y173640D01*
X159500Y102211D02*
Y102416D01*
Y104466D02*
Y104643D01*
Y108463D02*
Y109050D01*
Y109516D02*
Y110264D01*
Y119920D02*
Y120117D01*
Y121147D02*
Y121415D01*
Y122170D02*
Y122379D01*
Y125861D02*
Y126073D01*
Y126791D02*
Y126915D01*
Y128088D02*
Y128267D01*
Y171118D02*
Y171514D01*
Y173173D02*
Y173640D01*
X159600Y102196D02*
Y102387D01*
Y104483D02*
Y104663D01*
Y108363D02*
Y108740D01*
Y109943D02*
Y110384D01*
Y114969D02*
Y115388D01*
Y119909D02*
Y120100D01*
Y121164D02*
Y121389D01*
Y122196D02*
Y122390D01*
Y125829D02*
Y126038D01*
Y126751D02*
Y126899D01*
Y128105D02*
Y128287D01*
Y171118D02*
Y171514D01*
Y173173D02*
Y173640D01*
X159700Y102182D02*
Y102367D01*
Y104499D02*
Y104683D01*
Y108279D02*
Y108566D01*
Y110106D02*
Y110447D01*
Y114642D02*
Y115876D01*
Y119898D02*
Y120084D01*
Y121180D02*
Y121369D01*
Y122216D02*
Y122401D01*
Y125814D02*
Y126010D01*
Y126720D02*
Y126882D01*
Y128121D02*
Y128301D01*
Y171118D02*
Y171514D01*
Y173173D02*
Y173640D01*
X159800Y102200D02*
Y102382D01*
Y104485D02*
Y104674D01*
Y108234D02*
Y108466D01*
Y110224D02*
Y110499D01*
Y114443D02*
Y116101D01*
Y119906D02*
Y120082D01*
Y121168D02*
Y121384D01*
Y122201D02*
Y122393D01*
Y125804D02*
Y125989D01*
Y126700D02*
Y126894D01*
Y128107D02*
Y128296D01*
Y171118D02*
Y171514D01*
Y173173D02*
Y173640D01*
X159900Y102222D02*
Y102402D01*
Y104465D02*
Y104660D01*
Y108190D02*
Y108399D01*
Y110299D02*
Y110532D01*
Y114326D02*
Y114805D01*
Y115715D02*
Y116221D01*
Y119917D02*
Y120100D01*
Y121152D02*
Y121404D01*
Y122181D02*
Y122382D01*
Y125816D02*
Y126014D01*
Y126719D02*
Y126911D01*
Y128087D02*
Y128274D01*
Y171118D02*
Y171514D01*
Y173173D02*
Y173640D01*
X160000Y102244D02*
Y102473D01*
Y104394D02*
Y104627D01*
Y108154D02*
Y108341D01*
Y110353D02*
Y110563D01*
Y114226D02*
Y114548D01*
Y115940D02*
Y116318D01*
Y119928D02*
Y120165D01*
Y121105D02*
Y121451D01*
Y122134D02*
Y122371D01*
Y125829D02*
Y126061D01*
Y126748D02*
Y126957D01*
Y128016D02*
Y128252D01*
Y171118D02*
Y171514D01*
Y173173D02*
Y173640D01*
X160100Y102308D02*
Y102553D01*
Y104314D02*
Y104577D01*
Y108144D02*
Y108321D01*
Y110393D02*
Y110583D01*
Y114165D02*
Y114414D01*
Y116065D02*
Y116378D01*
Y119981D02*
Y120215D01*
Y121030D02*
Y121213D01*
Y121350D02*
Y121531D01*
Y122054D02*
Y122315D01*
Y125867D02*
Y126151D01*
Y126790D02*
Y127032D01*
Y127936D02*
Y128206D01*
Y171118D02*
Y171514D01*
Y173173D02*
Y173640D01*
X160200Y102380D02*
Y102768D01*
Y104099D02*
Y104487D01*
Y108135D02*
Y108307D01*
Y110407D02*
Y110592D01*
Y114121D02*
Y114342D01*
Y116162D02*
Y116419D01*
Y120044D02*
Y120324D01*
Y120872D02*
Y121179D01*
Y121410D02*
Y122248D01*
Y125933D02*
Y126372D01*
Y126847D02*
Y127190D01*
Y127777D02*
Y128134D01*
Y171118D02*
Y171514D01*
Y173173D02*
Y173640D01*
X160300Y102501D02*
Y104338D01*
Y108126D02*
Y108307D01*
Y110407D02*
Y110592D01*
Y114076D02*
Y114276D01*
Y116236D02*
Y116452D01*
Y120124D02*
Y121118D01*
Y121503D02*
Y122137D01*
Y126042D02*
Y126402D01*
Y126928D02*
Y128040D01*
Y171118D02*
Y171514D01*
Y173173D02*
Y173640D01*
X160400Y102765D02*
Y104063D01*
Y108121D02*
Y108307D01*
Y110407D02*
Y110592D01*
Y114055D02*
Y114238D01*
Y116276D02*
Y116477D01*
Y120299D02*
Y120988D01*
Y121744D02*
Y121907D01*
Y126236D02*
Y126391D01*
Y127128D02*
Y127840D01*
Y171118D02*
Y171514D01*
Y173173D02*
Y173640D01*
X160500Y108121D02*
Y108307D01*
Y110407D02*
Y110592D01*
Y114046D02*
Y114218D01*
Y116312D02*
Y116497D01*
Y171118D02*
Y171514D01*
Y173173D02*
Y173640D01*
X160600Y108121D02*
Y108307D01*
Y110407D02*
Y110592D01*
Y114037D02*
Y114212D01*
Y116312D02*
Y116498D01*
Y171118D02*
Y171514D01*
Y173173D02*
Y173640D01*
X160700Y108121D02*
Y108307D01*
Y110407D02*
Y110592D01*
Y114028D02*
Y114212D01*
Y116312D02*
Y116498D01*
Y171118D02*
Y171514D01*
Y173173D02*
Y173640D01*
X160800Y108121D02*
Y108307D01*
Y110407D02*
Y110592D01*
Y114026D02*
Y114212D01*
Y116312D02*
Y116498D01*
Y171118D02*
Y171514D01*
Y173173D02*
Y173640D01*
X160900Y108121D02*
Y108307D01*
Y110407D02*
Y110592D01*
Y114026D02*
Y114212D01*
Y116312D02*
Y116498D01*
Y171118D02*
Y171514D01*
Y173173D02*
Y173640D01*
X161000Y108121D02*
Y110592D01*
Y114026D02*
Y114212D01*
Y116312D02*
Y116498D01*
Y132220D02*
Y132715D01*
Y137648D02*
Y137870D01*
Y150176D02*
Y151210D01*
Y168992D02*
Y173640D01*
X161100Y108121D02*
Y110592D01*
Y114026D02*
Y114212D01*
Y116312D02*
Y116498D01*
Y132034D02*
Y132865D01*
Y133535D02*
Y133652D01*
Y137648D02*
Y137870D01*
Y139144D02*
Y139783D01*
Y149839D02*
Y151494D01*
Y168992D02*
Y173640D01*
X161200Y108121D02*
Y110592D01*
Y114026D02*
Y114212D01*
Y116312D02*
Y116498D01*
Y131896D02*
Y132259D01*
Y132661D02*
Y132965D01*
Y133293D02*
Y133950D01*
Y137648D02*
Y137870D01*
Y138951D02*
Y139903D01*
Y149659D02*
Y150155D01*
Y151199D02*
Y151700D01*
Y168992D02*
Y173640D01*
X161300Y114026D02*
Y114214D01*
Y116310D02*
Y116498D01*
Y131839D02*
Y132084D01*
Y132807D02*
Y133002D01*
Y133218D02*
Y134025D01*
Y137648D02*
Y137870D01*
Y138824D02*
Y139216D01*
Y139683D02*
Y139967D01*
Y149547D02*
Y149841D01*
Y151485D02*
Y151804D01*
Y168992D02*
Y173640D01*
X161400Y114026D02*
Y116498D01*
Y131782D02*
Y131991D01*
Y132895D02*
Y133035D01*
Y133143D02*
Y133329D01*
Y133855D02*
Y134100D01*
Y137648D02*
Y137870D01*
Y138704D02*
Y139055D01*
Y139782D02*
Y140025D01*
Y149497D02*
Y149740D01*
Y151614D02*
Y151867D01*
Y168992D02*
Y173640D01*
X161500Y102215D02*
Y104687D01*
Y114026D02*
Y116498D01*
Y119932D02*
Y122403D01*
Y125837D02*
Y128309D01*
Y131758D02*
Y131928D01*
Y132958D02*
Y133238D01*
Y133955D02*
Y134146D01*
Y137648D02*
Y137870D01*
Y138607D02*
Y138938D01*
Y139857D02*
Y140063D01*
Y143554D02*
Y146025D01*
Y149455D02*
Y149660D01*
Y151710D02*
Y151887D01*
Y168992D02*
Y173640D01*
X161600Y102215D02*
Y104592D01*
Y119932D02*
Y122309D01*
Y125837D02*
Y128214D01*
Y131738D02*
Y131911D01*
Y132975D02*
Y133163D01*
Y134000D02*
Y134183D01*
Y137648D02*
Y137870D01*
Y138519D02*
Y138822D01*
Y139905D02*
Y140085D01*
Y143554D02*
Y145931D01*
Y149441D02*
Y149631D01*
Y151727D02*
Y151907D01*
X161700Y104211D02*
Y104466D01*
Y121927D02*
Y122183D01*
Y127833D02*
Y128088D01*
Y131718D02*
Y131895D01*
Y132991D02*
Y133143D01*
Y134020D02*
Y134203D01*
Y137648D02*
Y137870D01*
Y138432D02*
Y138731D01*
Y139925D02*
Y140108D01*
Y145549D02*
Y145805D01*
Y149426D02*
Y149611D01*
Y151743D02*
Y151927D01*
X161800Y104137D02*
Y104366D01*
Y108121D02*
Y108270D01*
Y121853D02*
Y122083D01*
Y127759D02*
Y127988D01*
Y131714D02*
Y131909D01*
Y132979D02*
Y133143D01*
Y134018D02*
Y134208D01*
Y137648D02*
Y137870D01*
Y138348D02*
Y138642D01*
Y139926D02*
Y140114D01*
Y145475D02*
Y145705D01*
Y149444D02*
Y149626D01*
Y151729D02*
Y151918D01*
X161900Y104062D02*
Y104291D01*
Y108121D02*
Y108420D01*
Y110507D02*
Y110592D01*
Y121778D02*
Y122008D01*
Y127684D02*
Y127913D01*
Y131726D02*
Y131929D01*
Y133993D02*
Y134195D01*
Y137648D02*
Y137870D01*
Y138265D02*
Y138553D01*
Y139910D02*
Y140103D01*
Y145400D02*
Y145630D01*
Y149466D02*
Y149646D01*
Y151709D02*
Y151904D01*
X162000Y103989D02*
Y104224D01*
Y108121D02*
Y108570D01*
Y110357D02*
Y110592D01*
Y121706D02*
Y121941D01*
Y127611D02*
Y127846D01*
Y131739D02*
Y131976D01*
Y133945D02*
Y134183D01*
Y137648D02*
Y137870D01*
Y138188D02*
Y138466D01*
Y139884D02*
Y140092D01*
Y145328D02*
Y145563D01*
Y149488D02*
Y149717D01*
Y151638D02*
Y151871D01*
X162100Y103939D02*
Y104163D01*
Y108254D02*
Y108720D01*
Y110207D02*
Y110592D01*
Y114026D02*
Y114090D01*
Y121656D02*
Y121879D01*
Y127561D02*
Y127785D01*
Y131787D02*
Y132052D01*
Y133855D02*
Y134126D01*
Y137648D02*
Y137870D01*
Y138098D02*
Y138381D01*
Y139809D02*
Y140060D01*
Y145278D02*
Y145501D01*
Y149553D02*
Y149797D01*
Y151558D02*
Y151821D01*
X162200Y103889D02*
Y104106D01*
Y108401D02*
Y108870D01*
Y110057D02*
Y110520D01*
Y114026D02*
Y114240D01*
Y121606D02*
Y121822D01*
Y127511D02*
Y127728D01*
Y131844D02*
Y132206D01*
Y133631D02*
Y134059D01*
Y137648D02*
Y137875D01*
Y137973D02*
Y138286D01*
Y139701D02*
Y140003D01*
Y145228D02*
Y145444D01*
Y149624D02*
Y150012D01*
Y151343D02*
Y151731D01*
X162300Y108548D02*
Y109020D01*
Y109907D02*
Y110370D01*
Y114026D02*
Y114390D01*
Y116349D02*
Y116498D01*
Y131942D02*
Y132347D01*
Y133614D02*
Y133921D01*
Y137648D02*
Y138161D01*
Y139476D02*
Y139935D01*
Y149745D02*
Y151583D01*
X162400Y108696D02*
Y109170D01*
Y109757D02*
Y110220D01*
Y114076D02*
Y114540D01*
Y116199D02*
Y116498D01*
Y132082D02*
Y132336D01*
Y133625D02*
Y133710D01*
Y137648D02*
Y138036D01*
Y139487D02*
Y139795D01*
Y150009D02*
Y151308D01*
Y168992D02*
Y173640D01*
X162500Y108843D02*
Y109320D01*
Y109607D02*
Y110070D01*
Y114223D02*
Y114690D01*
Y116049D02*
Y116498D01*
Y137648D02*
Y137857D01*
Y139498D02*
Y139535D01*
Y168992D02*
Y173640D01*
X162600Y108990D02*
Y109923D01*
Y114370D02*
Y114840D01*
Y115899D02*
Y116361D01*
Y168992D02*
Y173640D01*
X162700Y109156D02*
Y109783D01*
Y114517D02*
Y114990D01*
Y115749D02*
Y116211D01*
Y168992D02*
Y173640D01*
X162800Y109157D02*
Y109702D01*
Y114664D02*
Y115140D01*
Y115599D02*
Y116061D01*
Y168992D02*
Y173640D01*
X162900Y109027D02*
Y109883D01*
Y114811D02*
Y115290D01*
Y115449D02*
Y115911D01*
Y171176D02*
Y171669D01*
X163000Y103002D02*
Y103864D01*
Y108895D02*
Y109374D01*
Y109554D02*
Y110062D01*
Y114966D02*
Y115769D01*
Y120719D02*
Y121581D01*
Y126624D02*
Y127486D01*
Y132530D02*
Y133392D01*
Y138435D02*
Y139297D01*
Y144341D02*
Y145203D01*
Y150246D02*
Y151108D01*
Y171189D02*
Y171656D01*
X163100Y102739D02*
Y104134D01*
Y108748D02*
Y109224D01*
Y109704D02*
Y110201D01*
Y115097D02*
Y115629D01*
Y120455D02*
Y121850D01*
Y126361D02*
Y127756D01*
Y132266D02*
Y133661D01*
Y138172D02*
Y139567D01*
Y144077D02*
Y145472D01*
Y149983D02*
Y151378D01*
Y171189D02*
Y171656D01*
X163200Y102622D02*
Y103451D01*
Y104274*
Y108601D02*
Y109074D01*
Y109854D02*
Y110339D01*
Y114999D02*
Y115657D01*
Y120338D02*
Y121168D01*
Y121990*
Y126244D02*
Y127073D01*
Y127896*
Y132150D02*
Y132979D01*
Y133801*
Y138055D02*
Y138884D01*
Y139707*
Y143961D02*
Y144790D01*
Y145612*
Y149866D02*
Y150695D01*
Y151518*
Y171189D02*
Y171656D01*
X163300Y102510D02*
Y102954D01*
Y103969D02*
Y104387D01*
Y108454D02*
Y108924D01*
Y110004D02*
Y110478D01*
Y114885D02*
Y115889D01*
Y120226D02*
Y120670D01*
Y121685D02*
Y122104D01*
Y126132D02*
Y126576D01*
Y127591D02*
Y128009D01*
Y132037D02*
Y132481D01*
Y133496D02*
Y133915D01*
Y137943D02*
Y138387D01*
Y139402D02*
Y139820D01*
Y143848D02*
Y144292D01*
Y145307D02*
Y145726D01*
Y149754D02*
Y150198D01*
Y151213D02*
Y151631D01*
Y171189D02*
Y171656D01*
X163400Y102424D02*
Y102754D01*
Y104184D02*
Y104473D01*
Y108307D02*
Y108774D01*
Y110154D02*
Y110592D01*
Y114738D02*
Y115215D01*
Y115524D02*
Y116027D01*
Y120141D02*
Y120470D01*
Y121901D02*
Y122190D01*
Y126046D02*
Y126376D01*
Y127806D02*
Y128095D01*
Y131952D02*
Y132281D01*
Y133712D02*
Y134001D01*
Y137857D02*
Y138187D01*
Y139617D02*
Y139906D01*
Y143763D02*
Y144092D01*
Y145523D02*
Y145812D01*
Y149668D02*
Y149998D01*
Y151428D02*
Y151717D01*
Y171189D02*
Y171656D01*
X163500Y102338D02*
Y102604D01*
Y104294D02*
Y104555D01*
Y108160D02*
Y108624D01*
Y110304D02*
Y110592D01*
Y114591D02*
Y115065D01*
Y115674D02*
Y116166D01*
Y120055D02*
Y120320D01*
Y122010D02*
Y122272D01*
Y125960D02*
Y126226D01*
Y127916D02*
Y128177D01*
Y131866D02*
Y132131D01*
Y133821D02*
Y134083D01*
Y137771D02*
Y138037D01*
Y139727D02*
Y139988D01*
Y143677D02*
Y143942D01*
Y145632D02*
Y145894D01*
Y149582D02*
Y149848D01*
Y151538D02*
Y151799D01*
Y171189D02*
Y171656D01*
X163600Y102288D02*
Y102532D01*
Y104374D02*
Y104600D01*
Y108121D02*
Y108474D01*
Y110454D02*
Y110592D01*
Y114443D02*
Y114915D01*
Y115824D02*
Y116304D01*
Y120005D02*
Y120249D01*
Y122090D02*
Y122316D01*
Y125910D02*
Y126155D01*
Y127996D02*
Y128222D01*
Y131816D02*
Y132060D01*
Y133901D02*
Y134127D01*
Y137721D02*
Y137966D01*
Y139807D02*
Y140033D01*
Y143627D02*
Y143871D01*
Y145712D02*
Y145938D01*
Y149532D02*
Y149777D01*
Y151618D02*
Y151844D01*
Y171189D02*
Y171656D01*
X163700Y102251D02*
Y102461D01*
Y104428D02*
Y104644D01*
Y108121D02*
Y108324D01*
Y114296D02*
Y114765D01*
Y115974D02*
Y116443D01*
Y119967D02*
Y120178D01*
Y122145D02*
Y122361D01*
Y125873D02*
Y126083D01*
Y128050D02*
Y128266D01*
Y131778D02*
Y131989D01*
Y133956D02*
Y134172D01*
Y137684D02*
Y137894D01*
Y139861D02*
Y140077D01*
Y143589D02*
Y143800D01*
Y145767D02*
Y145983D01*
Y149495D02*
Y149705D01*
Y151672D02*
Y151888D01*
Y171189D02*
Y171656D01*
X163800Y102214D02*
Y102426D01*
Y104478D02*
Y104688D01*
Y108121D02*
Y108174D01*
Y114149D02*
Y114615D01*
Y116124D02*
Y116498D01*
Y119931D02*
Y120142D01*
Y122195D02*
Y122405D01*
Y125836D02*
Y126048D01*
Y128100D02*
Y128310D01*
Y131742D02*
Y131953D01*
Y134006D02*
Y134216D01*
Y137647D02*
Y137859D01*
Y139911D02*
Y140121D01*
Y143553D02*
Y143764D01*
Y145817D02*
Y146027D01*
Y149458D02*
Y149670D01*
Y151722D02*
Y151932D01*
Y171189D02*
Y171656D01*
X163900Y102203D02*
Y102406D01*
Y104508D02*
Y104699D01*
Y114026D02*
Y114465D01*
Y116274D02*
Y116498D01*
Y119919D02*
Y120122D01*
Y122224D02*
Y122416D01*
Y125825D02*
Y126028D01*
Y128130D02*
Y128321D01*
Y131731D02*
Y131933D01*
Y134035D02*
Y134227D01*
Y137636D02*
Y137839D01*
Y139941D02*
Y140132D01*
Y143542D02*
Y143744D01*
Y145846D02*
Y146038D01*
Y149447D02*
Y149650D01*
Y151752D02*
Y151943D01*
Y171189D02*
Y171656D01*
X164000Y102192D02*
Y102386D01*
Y104522D02*
Y104710D01*
Y114026D02*
Y114315D01*
Y116424D02*
Y116498D01*
Y119908D02*
Y120102D01*
Y122239D02*
Y122427D01*
Y125814D02*
Y126008D01*
Y128144D02*
Y128332D01*
Y131719D02*
Y131913D01*
Y134050D02*
Y134238D01*
Y137625D02*
Y137819D01*
Y139955D02*
Y140143D01*
Y143530D02*
Y143724D01*
Y145861D02*
Y146049D01*
Y149436D02*
Y149630D01*
Y151766D02*
Y151954D01*
Y171189D02*
Y171656D01*
X164100Y102181D02*
Y102366D01*
Y104536D02*
Y104721D01*
Y108121D02*
Y108140D01*
Y114026D02*
Y114165D01*
Y119897D02*
Y120082D01*
Y122253D02*
Y122438D01*
Y125803D02*
Y125988D01*
Y128158D02*
Y128343D01*
Y131708D02*
Y131893D01*
Y134064D02*
Y134249D01*
Y137614D02*
Y137799D01*
Y139969D02*
Y140154D01*
Y143519D02*
Y143704D01*
Y145875D02*
Y146060D01*
Y149425D02*
Y149610D01*
Y151780D02*
Y151965D01*
Y171189D02*
Y171656D01*
X164200Y102190D02*
Y102385D01*
Y104517D02*
Y104709D01*
Y108121D02*
Y108307D01*
Y119907D02*
Y120101D01*
Y122234D02*
Y122425D01*
Y125812D02*
Y126007D01*
Y128139D02*
Y128331D01*
Y131718D02*
Y131912D01*
Y134045D02*
Y134236D01*
Y137623D02*
Y137818D01*
Y139950D02*
Y140142D01*
Y143529D02*
Y143723D01*
Y145856D02*
Y146047D01*
Y149434D02*
Y149629D01*
Y151761D02*
Y151953D01*
Y171189D02*
Y171656D01*
X164300Y102201D02*
Y102407D01*
Y104495D02*
Y104694D01*
Y108121D02*
Y108474D01*
Y109696D02*
Y110133D01*
Y119918D02*
Y120124D01*
Y122212D02*
Y122411D01*
Y125823D02*
Y126029D01*
Y128117D02*
Y128316D01*
Y131729D02*
Y131935D01*
Y134023D02*
Y134222D01*
Y137634D02*
Y137840D01*
Y139928D02*
Y140128D01*
Y143540D02*
Y143746D01*
Y145834D02*
Y146033D01*
Y149445D02*
Y149651D01*
Y151739D02*
Y151939D01*
Y171189D02*
Y171656D01*
X164400Y102212D02*
Y102429D01*
Y104473D02*
Y104673D01*
Y108121D02*
Y108640D01*
Y109571D02*
Y110342D01*
Y119929D02*
Y120146D01*
Y122189D02*
Y122389D01*
Y125835D02*
Y126051D01*
Y128095D02*
Y128295D01*
Y131740D02*
Y131957D01*
Y134000D02*
Y134200D01*
Y137646D02*
Y137862D01*
Y139906D02*
Y140106D01*
Y143551D02*
Y143768D01*
Y145812D02*
Y146011D01*
Y149457D02*
Y149673D01*
Y151717D02*
Y151917D01*
Y171189D02*
Y171656D01*
X164500Y102252D02*
Y102472D01*
Y104430D02*
Y104644D01*
Y108287D02*
Y108794D01*
Y109475D02*
Y110448D01*
Y116312D02*
Y116498D01*
Y119968D02*
Y120189D01*
Y122146D02*
Y122361D01*
Y125874D02*
Y126095D01*
Y128052D02*
Y128266D01*
Y131779D02*
Y132000D01*
Y133957D02*
Y134172D01*
Y137685D02*
Y137906D01*
Y139863D02*
Y140077D01*
Y143590D02*
Y143811D01*
Y145768D02*
Y145983D01*
Y149496D02*
Y149717D01*
Y151674D02*
Y151888D01*
Y171189D02*
Y171656D01*
X164600Y102296D02*
Y102535D01*
Y104367D02*
Y104611D01*
Y108454D02*
Y108919D01*
Y109392D02*
Y109688D01*
Y110204D02*
Y110508D01*
Y116312D02*
Y116498D01*
Y120013D02*
Y120251D01*
Y122084D02*
Y122328D01*
Y125918D02*
Y126157D01*
Y127989D02*
Y128233D01*
Y131824D02*
Y132063D01*
Y133895D02*
Y134139D01*
Y137729D02*
Y137968D01*
Y139800D02*
Y140044D01*
Y143635D02*
Y143874D01*
Y145706D02*
Y145950D01*
Y149540D02*
Y149779D01*
Y151611D02*
Y151855D01*
Y171173D02*
Y171671D01*
X164700Y102341D02*
Y102597D01*
Y104305D02*
Y104551D01*
Y108620D02*
Y109022D01*
Y109349D02*
Y109586D01*
Y110312D02*
Y110538D01*
Y116312D02*
Y116498D01*
Y120057D02*
Y120314D01*
Y122021D02*
Y122268D01*
Y125963D02*
Y126220D01*
Y127927D02*
Y128173D01*
Y131868D02*
Y132125D01*
Y133832D02*
Y134079D01*
Y137774D02*
Y138031D01*
Y139738D02*
Y139984D01*
Y143679D02*
Y143936D01*
Y145643D02*
Y145890D01*
Y149585D02*
Y149842D01*
Y151549D02*
Y151795D01*
Y168992D02*
Y173640D01*
X164800Y102417D02*
Y102717D01*
Y104206D02*
Y104483D01*
Y108772D02*
Y109111D01*
Y109324D02*
Y109490D01*
Y110352D02*
Y110558D01*
Y116312D02*
Y116498D01*
Y120133D02*
Y120433D01*
Y121922D02*
Y122199D01*
Y126039D02*
Y126339D01*
Y127828D02*
Y128105D01*
Y131944D02*
Y132244D01*
Y133733D02*
Y134010D01*
Y137850D02*
Y138150D01*
Y139639D02*
Y139916D01*
Y143756D02*
Y144055D01*
Y145544D02*
Y145821D01*
Y149661D02*
Y149961D01*
Y151450D02*
Y151727D01*
Y168992D02*
Y173640D01*
X164900Y102503D02*
Y102897D01*
Y104032D02*
Y104403D01*
Y108914D02*
Y109191D01*
Y109299D02*
Y109464D01*
Y110379D02*
Y110569D01*
Y116312D02*
Y116498D01*
Y120219D02*
Y120613D01*
Y121749D02*
Y122119D01*
Y126125D02*
Y126519D01*
Y127654D02*
Y128025D01*
Y132030D02*
Y132424D01*
Y133560D02*
Y133930D01*
Y137936D02*
Y138330D01*
Y139465D02*
Y139836D01*
Y143841D02*
Y144235D01*
Y145371D02*
Y145741D01*
Y149747D02*
Y150141D01*
Y151276D02*
Y151647D01*
Y168992D02*
Y173640D01*
X165000Y102609D02*
Y103325D01*
Y103722D02*
Y104294D01*
Y109054D02*
Y109449D01*
Y110395D02*
Y110580D01*
Y116312D02*
Y116498D01*
Y120325D02*
Y121042D01*
Y121439D02*
Y122011D01*
Y126231D02*
Y126948D01*
Y127344D02*
Y127916D01*
Y132136D02*
Y132853D01*
Y133250D02*
Y133822D01*
Y138042D02*
Y138759D01*
Y139155D02*
Y139727D01*
Y143947D02*
Y144664D01*
Y145061D02*
Y145633D01*
Y149853D02*
Y150570D01*
Y150966D02*
Y151538D01*
Y168992D02*
Y173640D01*
X165100Y102749D02*
Y104174D01*
Y109170D02*
Y109449D01*
Y110407D02*
Y110591D01*
Y116312D02*
Y116498D01*
Y120465D02*
Y121891D01*
Y126371D02*
Y127796D01*
Y132276D02*
Y133702D01*
Y138182D02*
Y139607D01*
Y144087D02*
Y145513D01*
Y149993D02*
Y151418D01*
Y168992D02*
Y173640D01*
X165200Y102995D02*
Y103975D01*
Y109227D02*
Y109449D01*
Y110407D02*
Y110592D01*
Y116312D02*
Y116498D01*
Y120711D02*
Y121692D01*
Y126617D02*
Y127597D01*
Y132522D02*
Y133503D01*
Y138428D02*
Y139408D01*
Y144333D02*
Y145314D01*
Y150239D02*
Y151219D01*
X165300Y109264D02*
Y109449D01*
Y110407D02*
Y110592D01*
Y114026D02*
Y116498D01*
X165400Y109264D02*
Y109449D01*
Y110407D02*
Y110592D01*
Y114026D02*
Y116498D01*
X165500Y109264D02*
Y109449D01*
Y110407D02*
Y110592D01*
Y114026D02*
Y116498D01*
X165600Y109264D02*
Y109449D01*
Y110407D02*
Y110592D01*
Y116312D02*
Y116498D01*
X165700Y109264D02*
Y109449D01*
Y110407D02*
Y110592D01*
Y116312D02*
Y116498D01*
X165800Y109264D02*
Y109449D01*
Y110407D02*
Y110592D01*
Y116312D02*
Y116498D01*
X165900Y102215D02*
Y104687D01*
Y109239D02*
Y109474D01*
Y110382D02*
Y110592D01*
Y116312D02*
Y116498D01*
Y119932D02*
Y122403D01*
Y125837D02*
Y128309D01*
Y131743D02*
Y134214D01*
Y137648D02*
Y140120D01*
Y143554D02*
Y146025D01*
Y149459D02*
Y151931D01*
X166000Y102215D02*
Y104687D01*
Y108121D02*
Y110592D01*
Y116312D02*
Y116498D01*
Y119932D02*
Y122403D01*
Y125837D02*
Y128309D01*
Y131743D02*
Y134214D01*
Y137648D02*
Y140120D01*
Y143554D02*
Y146025D01*
Y149459D02*
Y151931D01*
X166100Y102215D02*
Y104687D01*
Y108121D02*
Y110592D01*
Y116312D02*
Y116498D01*
Y119932D02*
Y122403D01*
Y125837D02*
Y128309D01*
Y131743D02*
Y134214D01*
Y137648D02*
Y140120D01*
Y143554D02*
Y146025D01*
Y149459D02*
Y151931D01*
X166200Y116312D02*
Y116498D01*
X166300Y116312D02*
Y116498D01*
*
G04 PC Custom Flashes*
G04 Layer Name PCB_ESP32-C3-WROOM-02_V - flashes*
%LPD*%
*
*
G04 PC Circuitry*
G04 Layer Name PCB_ESP32-C3-WROOM-02_V - circuitry*
%LPD*%
*
G54D10*
X100000Y178740D02*
X100003D01*
X170866D02*
X170869D01*
X100000Y100000D02*
X100003D01*
X100000Y178740D02*
X100003D01*
X171336Y100010D02*
X171339D01*
X171846Y103520D02*
X171849D01*
G54D27*
X100000Y178740D02*
X170866D01*
Y100000*
X100000*
Y178740*
G54D30*
X152145Y171490D02*
G75*
G03X152145I-5430J0D01*
G01X167966Y171530D02*
G03X167966I-5591J0D01*
G54D36*
G01X111285Y174910D02*
Y175530D01*
X114205Y176090D02*
X102415Y163600D01*
X113965Y163250D02*
X102465Y176240D01*
X107405Y164430D02*
G03X107405I-990J0D01*
G54D37*
G01X114205Y159270D02*
X102865D01*
Y156900*
X114205*
Y159270*
X102865Y159149D02*
X114205D01*
X102865Y158699D02*
X114205D01*
X102865Y158249D02*
X114205D01*
X102865Y157799D02*
X114205D01*
X102865Y157349D02*
X114205D01*
X104885Y173880D02*
X105965Y165650D01*
X111845Y174000D02*
X104695D01*
X107715Y164260D02*
X111295D01*
X112185Y174160*
X162576Y164608D02*
Y156734D01*
X146828*
Y164608*
X162576*
G54D38*
X128295Y174577D02*
X124934Y168585D01*
X125456Y168085*
X126469Y167782*
X129957Y167434*
X131552Y167059*
X131931Y166176*
X132802Y166799*
X128295Y174577*
X119560Y159267D02*
X122828Y165068D01*
X123370Y164152*
X123661Y163532*
X123978Y163240*
X125058Y162495*
X119560Y159267*
X134100Y164533D02*
X133505Y164269D01*
X134602Y162318*
X133987Y158988*
X132616Y157591*
X131951Y157542*
X131520Y158084*
X131520D02*
X131572Y159609D01*
X131999Y160237*
X132156Y162523*
X131605Y163327*
X129459Y162046*
X130392Y161023*
X130993Y160253*
X131334Y159781*
X131350Y158445*
X131250Y158064*
X130862Y157597*
X130020Y157616*
X127329Y160763*
X120528Y156877*
X138737*
X134100Y164533*
X131622Y166895D02*
X132747D01*
X130719Y167255D02*
X132538D01*
X131777Y166535D02*
X132433D01*
X128149Y167615D02*
X132330D01*
X125825Y167975D02*
X132121D01*
X125195Y168335D02*
X131912D01*
X124995Y168695D02*
X131704D01*
X125197Y169055D02*
X131495D01*
X125399Y169415D02*
X131287D01*
X125601Y169775D02*
X131078D01*
X125803Y170135D02*
X130869D01*
X126005Y170495D02*
X130661D01*
X126207Y170855D02*
X130452D01*
X126409Y171215D02*
X130243D01*
X126611Y171575D02*
X130035D01*
X126813Y171935D02*
X129826D01*
X127015Y172295D02*
X129618D01*
X127217Y172655D02*
X129409D01*
X127419Y173015D02*
X129200D01*
X127621Y173375D02*
X128992D01*
X127823Y173735D02*
X128783D01*
X128025Y174095D02*
X128575D01*
X128227Y174455D02*
X128366D01*
X121385Y162506D02*
X125043D01*
X121587Y162866D02*
X124521D01*
X121182Y162146D02*
X124463D01*
X121790Y163226D02*
X123999D01*
X120979Y161786D02*
X123850D01*
X121993Y163586D02*
X123636D01*
X122196Y163946D02*
X123467D01*
X122399Y164306D02*
X123279D01*
X120776Y161426D02*
X123237D01*
X122601Y164666D02*
X123066D01*
X122804Y165026D02*
X122853D01*
X120573Y161066D02*
X122624D01*
X120371Y160706D02*
X122011D01*
X120168Y160346D02*
X121397D01*
X119965Y159986D02*
X120784D01*
X119762Y159626D02*
X120171D01*
X121156Y157236D02*
X138520D01*
X132621Y157596D02*
X138302D01*
X132974Y157956D02*
X138084D01*
X133328Y158316D02*
X137866D01*
X133681Y158676D02*
X137648D01*
X133996Y159036D02*
X137430D01*
X134063Y159396D02*
X137211D01*
X134129Y159756D02*
X136993D01*
X134195Y160116D02*
X136775D01*
X134262Y160476D02*
X136557D01*
X134328Y160836D02*
X136339D01*
X134395Y161196D02*
X136121D01*
X134461Y161556D02*
X135903D01*
X134528Y161916D02*
X135685D01*
X134594Y162276D02*
X135467D01*
X134423Y162636D02*
X135249D01*
X134221Y162996D02*
X135031D01*
X134018Y163356D02*
X134813D01*
X133816Y163716D02*
X134595D01*
X133613Y164076D02*
X134377D01*
X133881Y164436D02*
X134159D01*
X129845Y162276D02*
X132139D01*
X129578Y161916D02*
X132115D01*
X129906Y161556D02*
X132090D01*
X130448Y162636D02*
X132079D01*
X130234Y161196D02*
X132065D01*
X130538Y160836D02*
X132041D01*
X130819Y160476D02*
X132016D01*
X131092Y160116D02*
X131917D01*
X121786Y157596D02*
X131908D01*
X131051Y162996D02*
X131832D01*
X131334Y159756D02*
X131672D01*
X131160Y157956D02*
X131622D01*
X131339Y159396D02*
X131565D01*
X131343Y159036D02*
X131553D01*
X131347Y158676D02*
X131541D01*
X131316Y158316D02*
X131528D01*
X122416Y157956D02*
X129729D01*
X123047Y158316D02*
X129421D01*
X123677Y158676D02*
X129114D01*
X124307Y159036D02*
X128806D01*
X124937Y159396D02*
X128498D01*
X125567Y159756D02*
X128190D01*
X126197Y160116D02*
X127882D01*
X126827Y160476D02*
X127575D01*
X112215Y174160D02*
X111545Y174570D01*
X111045Y174820*
X110495Y174970*
X109905Y175110*
X109135Y175220*
X108555Y175270*
X107795Y175250*
X107065Y175200*
X106325Y175080*
X105705Y174940*
X105055Y174730*
X104485Y174460*
X104365Y174380*
X133715Y159240D02*
X133519Y159303D01*
X133088Y159318*
X132618Y158862*
X132484Y158398*
X132504Y158109*
X132589Y157908*
X129232Y158945D02*
X129435Y159390D01*
X129804Y159629*
X130191Y159552*
X130733Y158891*
X130896Y158479*
X130934Y158157*
X130853Y157818*
G54D95*
X149400Y171440D02*
X148297D01*
Y174290D02*
G03Y171440I-0J-1425D01*
G01Y174290D02*
X149400D01*
Y171440*
X145365Y174290D02*
Y172000D01*
Y172025D02*
G03X143661Y172007I-827J-2350D01*
Y169240I805J-1383*
G01X145365*
Y172025*
X149400Y169240D02*
Y171440D01*
G54D96*
X150144Y174996D02*
X142246Y167167D01*
G54D97*
X109355Y175310D02*
X109325Y175610D01*
X109185Y175730*
X108375Y175770*
X107795*
X107525Y175650*
X107415Y175550*
Y175250*
X104005Y174830D02*
X104115Y175040D01*
X104255Y175120*
X104465Y175110*
X104565Y175020*
X104645Y174930*
X104655Y174820*
Y174610*
X104885Y172600D02*
X104225D01*
G03Y171890I155J-355*
G01X104955*
X110975Y164030D02*
Y163350D01*
X110205*
Y164060*
G54D98*
X106665Y164430D02*
G03X106665I-260J0D01*
G54D99*
G01X108965Y171190D02*
G03X109015Y171650I-7J234D01*
G01X108965Y171190D02*
X107379D01*
X107439Y171700D02*
G03X107379Y171190I-45J-253D01*
G01X107439Y171700D02*
X109005D01*
G74*
X0Y0D02*
M02*
