*
*
G04 PADS VX.2 Build Number: 5060570 generated Gerber (RS-274-X) file*
G04 PC Version=2.1*
*
%IN "PCB_ESP32-C3-WROOM-02_V"*%
*
%MOIN*%
*
%FSLAX35Y35*%
*
*
*
*
G04 PC Standard Apertures*
*
*
G04 Thermal Relief Aperture macro.*
%AMTER*
1,1,$1,0,0*
1,0,$1-$2,0,0*
21,0,$3,$4,0,0,45*
21,0,$3,$4,0,0,135*
%
*
*
G04 Annular Aperture macro.*
%AMANN*
1,1,$1,0,0*
1,0,$2,0,0*
%
*
*
G04 Odd Aperture macro.*
%AMODD*
1,1,$1,0,0*
1,0,$1-0.005,0,0*
%
*
*
G04 PC Custom Aperture Macros*
*
*
*
*
*
*
G04 PC Aperture Table*
*
%ADD010C,0.001*%
%ADD027C,0.00394*%
%ADD037C,0.005*%
%ADD129C,0.02362*%
%ADD183R,0.03056X0.03056*%
%ADD184R,0.03843X0.03843*%
%ADD186O,0.027X0.10525*%
%ADD187R,0.02269X0.02662*%
%ADD188R,0.04237X0.04631*%
%ADD189R,0.03056X0.01875*%
%ADD191C,0.01875*%
%ADD199R,0.027X0.10525*%
%ADD200O,0.01402X0.02859*%
%ADD201O,0.02859X0.01402*%
%ADD202R,0.01717X0.01717*%
%ADD203R,0.027X0.027*%
*
*
*
*
G04 PC Circuitry*
G04 Layer Name PCB_ESP32-C3-WROOM-02_V - circuitry*
%LPD*%
*
*
G04 PC Custom Flashes*
G04 Layer Name PCB_ESP32-C3-WROOM-02_V - flashes*
%LPD*%
*
*
G04 PC Circuitry*
G04 Layer Name PCB_ESP32-C3-WROOM-02_V - circuitry*
%LPD*%
*
G54D10*
G01X141624Y140988D02*
X140480Y139844D01*
X141624Y138700*
X142768Y139844*
X141624Y140988*
X141524Y138800D02*
X141724D01*
X141424Y138900D02*
X141824D01*
X141324Y139000D02*
X141924D01*
X141224Y139100D02*
X142024D01*
X141124Y139200D02*
X142124D01*
X141024Y139300D02*
X142224D01*
X140924Y139400D02*
X142324D01*
X140824Y139500D02*
X142424D01*
X140724Y139600D02*
X142524D01*
X140624Y139700D02*
X142624D01*
X140524Y139800D02*
X142724D01*
X140536Y139900D02*
X142712D01*
X140636Y140000D02*
X142612D01*
X140736Y140100D02*
X142512D01*
X140836Y140200D02*
X142412D01*
X140936Y140300D02*
X142312D01*
X141036Y140400D02*
X142212D01*
X141136Y140500D02*
X142112D01*
X141236Y140600D02*
X142012D01*
X141336Y140700D02*
X141912D01*
X141436Y140800D02*
X141812D01*
X141536Y140900D02*
X141712D01*
X140500Y139824D02*
Y139864D01*
X140600Y139724D02*
Y139964D01*
X140700Y139624D02*
Y140064D01*
X140800Y139524D02*
Y140164D01*
X140900Y139424D02*
Y140264D01*
X141000Y139324D02*
Y140364D01*
X141100Y139224D02*
Y140464D01*
X141200Y139124D02*
Y140564D01*
X141300Y139024D02*
Y140664D01*
X141400Y138924D02*
Y140764D01*
X141500Y138824D02*
Y140864D01*
X141600Y138724D02*
Y140964D01*
X141700Y138776D02*
Y140912D01*
X141800Y138876D02*
Y140812D01*
X141900Y138976D02*
Y140712D01*
X142000Y139076D02*
Y140612D01*
X142100Y139176D02*
Y140512D01*
X142200Y139276D02*
Y140412D01*
X142300Y139376D02*
Y140312D01*
X142400Y139476D02*
Y140212D01*
X142500Y139576D02*
Y140112D01*
X142600Y139676D02*
Y140012D01*
X142700Y139776D02*
Y139912D01*
X143016Y142380D02*
X141872Y141236D01*
X143016Y140092*
X144160Y141236*
X143016Y142380*
X143008Y140100D02*
X143024D01*
X142908Y140200D02*
X143124D01*
X142808Y140300D02*
X143224D01*
X142708Y140400D02*
X143324D01*
X142608Y140500D02*
X143424D01*
X142508Y140600D02*
X143524D01*
X142408Y140700D02*
X143624D01*
X142308Y140800D02*
X143724D01*
X142208Y140900D02*
X143824D01*
X142108Y141000D02*
X143924D01*
X142008Y141100D02*
X144024D01*
X141908Y141200D02*
X144124D01*
X141936Y141300D02*
X144096D01*
X142036Y141400D02*
X143996D01*
X142136Y141500D02*
X143896D01*
X142236Y141600D02*
X143796D01*
X142336Y141700D02*
X143696D01*
X142436Y141800D02*
X143596D01*
X142536Y141900D02*
X143496D01*
X142636Y142000D02*
X143396D01*
X142736Y142100D02*
X143296D01*
X142836Y142200D02*
X143196D01*
X142936Y142300D02*
X143096D01*
X141900Y141208D02*
Y141264D01*
X142000Y141108D02*
Y141364D01*
X142100Y141008D02*
Y141464D01*
X142200Y140908D02*
Y141564D01*
X142300Y140808D02*
Y141664D01*
X142400Y140708D02*
Y141764D01*
X142500Y140608D02*
Y141864D01*
X142600Y140508D02*
Y141964D01*
X142700Y140408D02*
Y142064D01*
X142800Y140308D02*
Y142164D01*
X142900Y140208D02*
Y142264D01*
X143000Y140108D02*
Y142364D01*
X143100Y140176D02*
Y142296D01*
X143200Y140276D02*
Y142196D01*
X143300Y140376D02*
Y142096D01*
X143400Y140476D02*
Y141996D01*
X143500Y140576D02*
Y141896D01*
X143600Y140676D02*
Y141796D01*
X143700Y140776D02*
Y141696D01*
X143800Y140876D02*
Y141596D01*
X143900Y140976D02*
Y141496D01*
X144000Y141076D02*
Y141396D01*
X144100Y141176D02*
Y141296D01*
X139778Y142747D02*
X138634Y141603D01*
X139778Y140460*
X140922Y141603*
X139778Y142747*
X139738Y140500D02*
X139818D01*
X139638Y140600D02*
X139918D01*
X139538Y140700D02*
X140018D01*
X139438Y140800D02*
X140118D01*
X139338Y140900D02*
X140218D01*
X139238Y141000D02*
X140318D01*
X139138Y141100D02*
X140418D01*
X139038Y141200D02*
X140518D01*
X138938Y141300D02*
X140618D01*
X138838Y141400D02*
X140718D01*
X138738Y141500D02*
X140818D01*
X138638Y141600D02*
X140918D01*
X138731Y141700D02*
X140825D01*
X138831Y141800D02*
X140725D01*
X138931Y141900D02*
X140625D01*
X139031Y142000D02*
X140525D01*
X139131Y142100D02*
X140425D01*
X139231Y142200D02*
X140325D01*
X139331Y142300D02*
X140225D01*
X139431Y142400D02*
X140125D01*
X139531Y142500D02*
X140025D01*
X139631Y142600D02*
X139925D01*
X139731Y142700D02*
X139825D01*
X138700Y141538D02*
Y141669D01*
X138800Y141438D02*
Y141769D01*
X138900Y141338D02*
Y141869D01*
X139000Y141238D02*
Y141969D01*
X139100Y141138D02*
Y142069D01*
X139200Y141038D02*
Y142169D01*
X139300Y140938D02*
Y142269D01*
X139400Y140838D02*
Y142369D01*
X139500Y140738D02*
Y142469D01*
X139600Y140638D02*
Y142569D01*
X139700Y140538D02*
Y142669D01*
X139800Y140482D02*
Y142725D01*
X139900Y140582D02*
Y142625D01*
X140000Y140682D02*
Y142525D01*
X140100Y140782D02*
Y142425D01*
X140200Y140882D02*
Y142325D01*
X140300Y140982D02*
Y142225D01*
X140400Y141082D02*
Y142125D01*
X140500Y141182D02*
Y142025D01*
X140600Y141282D02*
Y141925D01*
X140700Y141382D02*
Y141825D01*
X140800Y141482D02*
Y141725D01*
X140900Y141582D02*
Y141625D01*
X138386Y144139D02*
X137242Y142995D01*
X138386Y141852*
X139530Y142995*
X138386Y144139*
X138338Y141900D02*
X138435D01*
X138238Y142000D02*
X138535D01*
X138138Y142100D02*
X138635D01*
X138038Y142200D02*
X138735D01*
X137938Y142300D02*
X138835D01*
X137838Y142400D02*
X138935D01*
X137738Y142500D02*
X139035D01*
X137638Y142600D02*
X139135D01*
X137538Y142700D02*
X139235D01*
X137438Y142800D02*
X139335D01*
X137338Y142900D02*
X139435D01*
X137247Y143000D02*
X139525D01*
X137347Y143100D02*
X139425D01*
X137447Y143200D02*
X139325D01*
X137547Y143300D02*
X139225D01*
X137647Y143400D02*
X139125D01*
X137747Y143500D02*
X139025D01*
X137847Y143600D02*
X138925D01*
X137947Y143700D02*
X138825D01*
X138047Y143800D02*
X138725D01*
X138147Y143900D02*
X138625D01*
X138247Y144000D02*
X138525D01*
X138347Y144100D02*
X138425D01*
X137300Y142938D02*
Y143053D01*
X137400Y142838D02*
Y143153D01*
X137500Y142738D02*
Y143253D01*
X137600Y142638D02*
Y143353D01*
X137700Y142538D02*
Y143453D01*
X137800Y142438D02*
Y143553D01*
X137900Y142338D02*
Y143653D01*
X138000Y142238D02*
Y143753D01*
X138100Y142138D02*
Y143853D01*
X138200Y142038D02*
Y143953D01*
X138300Y141938D02*
Y144053D01*
X138400Y141865D02*
Y144125D01*
X138500Y141965D02*
Y144025D01*
X138600Y142065D02*
Y143925D01*
X138700Y142165D02*
Y143825D01*
X138800Y142265D02*
Y143725D01*
X138900Y142365D02*
Y143625D01*
X139000Y142465D02*
Y143525D01*
X139100Y142565D02*
Y143425D01*
X139200Y142665D02*
Y143325D01*
X139300Y142765D02*
Y143225D01*
X139400Y142865D02*
Y143125D01*
X139500Y142965D02*
Y143025D01*
X100000Y178740D02*
X100003D01*
X170866D02*
X170869D01*
X100000Y100000D02*
X100003D01*
X100000Y178740D02*
X100003D01*
X171336Y100010D02*
X171339D01*
X171846Y103520D02*
X171849D01*
G54D27*
X156565Y128367D02*
X157719Y129521D01*
Y132604*
X153876*
Y128367*
X156565*
X154026D02*
Y132604D01*
X154222Y128367D02*
Y132604D01*
X154419Y128367D02*
Y132604D01*
X154616Y128367D02*
Y132604D01*
X154813Y128367D02*
Y132604D01*
X155010Y128367D02*
Y132604D01*
X155207Y128367D02*
Y132604D01*
X155404Y128367D02*
Y132604D01*
X155600Y128367D02*
Y132604D01*
X155797Y128367D02*
Y132604D01*
X155994Y128367D02*
Y132604D01*
X156191Y128367D02*
Y132604D01*
X156388Y128367D02*
Y132604D01*
X156585Y128387D02*
Y132604D01*
X156782Y128584D02*
Y132604D01*
X156978Y128781D02*
Y132604D01*
X157175Y128977D02*
Y132604D01*
X157372Y129174D02*
Y132604D01*
X157569Y129371D02*
Y132604D01*
X100000Y178740D02*
X170866D01*
Y100000*
X100000*
Y178740*
G54D37*
X144809Y125100D02*
Y127656D01*
X142253*
Y125100*
X144809*
X142450D02*
Y127656D01*
X142700Y125100D02*
Y127656D01*
X142950Y125100D02*
Y127656D01*
X143200Y125100D02*
Y127656D01*
X143450Y125100D02*
Y127656D01*
X143700Y125100D02*
Y127656D01*
X143950Y125100D02*
Y127656D01*
X144200Y125100D02*
Y127656D01*
X144450Y125100D02*
Y127656D01*
X144700Y125100D02*
Y127656D01*
X144809Y120769D02*
Y123325D01*
X142253*
Y120769*
X144809*
X142450D02*
Y123325D01*
X142700Y120769D02*
Y123325D01*
X142950Y120769D02*
Y123325D01*
X143200Y120769D02*
Y123325D01*
X143450Y120769D02*
Y123325D01*
X143700Y120769D02*
Y123325D01*
X143950Y120769D02*
Y123325D01*
X144200Y120769D02*
Y123325D01*
X144450Y120769D02*
Y123325D01*
X144700Y120769D02*
Y123325D01*
X140478Y120769D02*
Y123325D01*
X137922*
Y120769*
X140478*
X137950D02*
Y123325D01*
X138200Y120769D02*
Y123325D01*
X138450Y120769D02*
Y123325D01*
X138700Y120769D02*
Y123325D01*
X138950Y120769D02*
Y123325D01*
X139200Y120769D02*
Y123325D01*
X139450Y120769D02*
Y123325D01*
X139700Y120769D02*
Y123325D01*
X139950Y120769D02*
Y123325D01*
X140200Y120769D02*
Y123325D01*
X140450Y120769D02*
Y123325D01*
X136147Y120769D02*
Y123325D01*
X133591*
Y120769*
X136147*
X133700D02*
Y123325D01*
X133950Y120769D02*
Y123325D01*
X134200Y120769D02*
Y123325D01*
X134450Y120769D02*
Y123325D01*
X134700Y120769D02*
Y123325D01*
X134950Y120769D02*
Y123325D01*
X135200Y120769D02*
Y123325D01*
X135450Y120769D02*
Y123325D01*
X135700Y120769D02*
Y123325D01*
X135950Y120769D02*
Y123325D01*
X136147Y125100D02*
Y127656D01*
X133591*
Y125100*
X136147*
X133700D02*
Y127656D01*
X133950Y125100D02*
Y127656D01*
X134200Y125100D02*
Y127656D01*
X134450Y125100D02*
Y127656D01*
X134700Y125100D02*
Y127656D01*
X134950Y125100D02*
Y127656D01*
X135200Y125100D02*
Y127656D01*
X135450Y125100D02*
Y127656D01*
X135700Y125100D02*
Y127656D01*
X135950Y125100D02*
Y127656D01*
X136147Y129431D02*
Y131987D01*
X133591*
Y129431*
X136147*
X133700D02*
Y131987D01*
X133950Y129431D02*
Y131987D01*
X134200Y129431D02*
Y131987D01*
X134450Y129431D02*
Y131987D01*
X134700Y129431D02*
Y131987D01*
X134950Y129431D02*
Y131987D01*
X135200Y129431D02*
Y131987D01*
X135450Y129431D02*
Y131987D01*
X135700Y129431D02*
Y131987D01*
X135950Y129431D02*
Y131987D01*
X140478Y129431D02*
Y131987D01*
X137922*
Y129431*
X140478*
X137950D02*
Y131987D01*
X138200Y129431D02*
Y131987D01*
X138450Y129431D02*
Y131987D01*
X138700Y129431D02*
Y131987D01*
X138950Y129431D02*
Y131987D01*
X139200Y129431D02*
Y131987D01*
X139450Y129431D02*
Y131987D01*
X139700Y129431D02*
Y131987D01*
X139950Y129431D02*
Y131987D01*
X140200Y129431D02*
Y131987D01*
X140450Y129431D02*
Y131987D01*
X144809Y129431D02*
Y131987D01*
X142253*
Y129431*
X144809*
X142450D02*
Y131987D01*
X142700Y129431D02*
Y131987D01*
X142950Y129431D02*
Y131987D01*
X143200Y129431D02*
Y131987D01*
X143450Y129431D02*
Y131987D01*
X143700Y129431D02*
Y131987D01*
X143950Y129431D02*
Y131987D01*
X144200Y129431D02*
Y131987D01*
X144450Y129431D02*
Y131987D01*
X144700Y129431D02*
Y131987D01*
X144856Y132033D02*
Y120722D01*
X133544*
Y132033*
X144856*
X133544Y131971D02*
X144856D01*
X133544Y131521D02*
X144856D01*
X133544Y131071D02*
X144856D01*
X133544Y130621D02*
X144856D01*
X133544Y130171D02*
X144856D01*
X133544Y129721D02*
X144856D01*
X133544Y129271D02*
X144856D01*
X133544Y128821D02*
X144856D01*
X133544Y128371D02*
X144856D01*
X133544Y127921D02*
X144856D01*
X133544Y127471D02*
X144856D01*
X133544Y127021D02*
X144856D01*
X133544Y126571D02*
X144856D01*
X133544Y126121D02*
X144856D01*
X133544Y125671D02*
X144856D01*
X133544Y125221D02*
X144856D01*
X133544Y124771D02*
X144856D01*
X133544Y124321D02*
X144856D01*
X133544Y123871D02*
X144856D01*
X133544Y123421D02*
X144856D01*
X133544Y122971D02*
X144856D01*
X133544Y122521D02*
X144856D01*
X133544Y122071D02*
X144856D01*
X133544Y121621D02*
X144856D01*
X133544Y121171D02*
X144856D01*
G54D129*
X142421Y151181D02*
X104823D01*
X153051D02*
X166043D01*
Y103071*
X104823*
Y142323*
G54D183*
X139200Y126378D03*
G54D184*
X170866Y115354D03*
Y109449D03*
X100000Y150787D03*
Y144882D03*
Y138976D03*
Y133071D03*
Y127165D03*
Y121260D03*
Y115354D03*
Y109449D03*
Y103543D03*
X170866D03*
Y121260D03*
Y127165D03*
Y133071D03*
Y138976D03*
Y144882D03*
Y150787D03*
G54D186*
X119597Y137816D03*
X114597D03*
X109597D03*
Y111791D03*
X114597D03*
X119597D03*
X124597D03*
G54D187*
X155797Y130486D03*
G54D188*
Y123399D03*
X161703D03*
Y130486D03*
G54D189*
X109510Y145256D03*
Y148012D03*
G54D191*
X150500Y155240D03*
X159306D03*
G54D199*
X124597Y137816D03*
G54D200*
X146090Y135925D03*
X144121D03*
X142153D03*
X140184D03*
X138216D03*
X136247D03*
X134279D03*
X132310D03*
Y116831D03*
X134279D03*
X136247D03*
X138216D03*
X140184D03*
X142153D03*
X144121D03*
X146090D03*
G54D201*
X129653Y133268D03*
Y131299D03*
Y129331D03*
Y127362D03*
Y125394D03*
Y123425D03*
Y121457D03*
Y119488D03*
X148747D03*
Y121457D03*
Y123425D03*
Y125394D03*
Y127362D03*
Y129331D03*
Y131299D03*
Y133268D03*
G54D202*
X152686Y138940D03*
X154654D03*
X134300Y144056D03*
Y146024D03*
X151916Y136440D03*
X153884D03*
X144122Y146490D03*
X146090D03*
X148058Y140040D03*
X146090D03*
X161604Y118720D03*
X159636D03*
X158516Y135170D03*
X160484D03*
X130884Y113898D03*
X128916D03*
X130884Y111240D03*
X128916D03*
X130216Y140690D03*
X132184D03*
X146090Y142286D03*
Y144254D03*
X151798Y127953D03*
Y129921D03*
X151750Y117249D03*
Y115281D03*
X142650Y112499D03*
Y110531D03*
X147600Y112499D03*
Y110531D03*
X145150Y112499D03*
Y110531D03*
X137700Y112499D03*
Y110531D03*
X135200Y112499D03*
Y110531D03*
X140197Y112499D03*
Y110531D03*
G54D203*
X130800Y144098D03*
Y147476D03*
X0Y0D02*
M02*
