M72
M48
T1F00S00C0.016
T2F00S00C0.040
%
T01
X00717Y-00168
X00622
X0054Y-00171
X00504Y-0009
X00459Y-00081
X00402Y-00033
X00314Y-00071
X00232Y-00033
X00262Y-00154
X00341Y-00182
X00401Y-0025
X00449Y-00249
X0045Y-0029
X00492Y-0034
X00522Y-00366
X00494Y-00416
X00407Y-00414
X00386Y-00376
X00448Y-00471
X00447Y-00562
X0063
X0063Y-00409
X00712Y-00408
Y-00326
Y-00033
X00578
X00033
Y-00238
Y-00334
Y-00463
Y-00562
X00108
X00229
X00223Y-00417
T02
X00062Y-00088
X00162
Y-00188
X00062
Y-00288
X00162
Y-00388
X00062
X00562Y-00088
M30
