*%FSLAX24Y24*%
*%MOIN*%
G01*
%ADD11C,0.0010*%
%ADD12C,0.0030*%
%ADD13C,0.0050*%
%ADD14C,0.0060*%
%ADD15C,0.0073*%
%ADD16C,0.0080*%
%ADD17C,0.0100*%
%ADD18C,0.0120*%
%ADD19C,0.0200*%
%ADD20C,0.0250*%
%ADD21C,0.0300*%
%ADD22C,0.0320*%
%ADD23C,0.0400*%
%ADD24C,0.0500*%
%ADD25C,0.0560*%
%ADD26C,0.0620*%
%ADD27C,0.0700*%
%ADD28C,0.0800*%
%ADD29R,0.0098X0.0331*%
%ADD30R,0.0178X0.0411*%
%ADD31R,0.0200X0.0250*%
%ADD32R,0.0250X0.0200*%
%ADD33R,0.0280X0.0330*%
%ADD34R,0.0330X0.0280*%
%ADD35R,0.0331X0.0098*%
%ADD36R,0.0411X0.0178*%
%ADD37R,0.0620X0.0620*%
%ADD38R,0.0700X0.0700*%
%ADD39R,0.2165X0.0787*%
%ADD40R,0.2245X0.0867*%
D16*
X276087Y122350D02*
X281360D01*
Y122300D02*
X276099D01*
X276068Y122400D02*
X281360D01*
Y122250D02*
X276105D01*
X276104Y122200D02*
X281360D01*
X276100Y122294D02*
Y122960D01*
X276050D02*
Y122435D01*
X276097Y122150D02*
X281360D01*
Y122100D02*
X276084D01*
X276087Y121350D02*
X281360D01*
Y121300D02*
X276099D01*
X276105Y121250D02*
X281360D01*
Y121200D02*
X276104D01*
X276100Y121294D02*
Y122166D01*
X276097Y121150D02*
X281360D01*
X276100Y121166D02*
Y120294D01*
X276084Y121100D02*
X281360D01*
Y122550D02*
X275951D01*
X276004Y122500D02*
X281360D01*
Y122600D02*
X275872D01*
X276063Y122050D02*
X281360D01*
Y122450D02*
X276041D01*
X276034Y122000D02*
X281360D01*
Y121950D02*
X275994D01*
X275938Y121900D02*
X281360D01*
Y121850D02*
X275849D01*
X275951Y121550D02*
X281360D01*
Y121600D02*
X275872D01*
X276041Y121450D02*
X281360D01*
Y121500D02*
X276004D01*
X276050Y121435D02*
Y122025D01*
X276068Y121400D02*
X281360D01*
Y121050D02*
X276063D01*
X276087Y120350D02*
X281360D01*
Y120400D02*
X276068D01*
X276099Y120300D02*
X281360D01*
Y120250D02*
X276105D01*
X276104Y120200D02*
X281360D01*
X276050Y120435D02*
Y121025D01*
X276097Y120150D02*
X281360D01*
Y120100D02*
X276084D01*
X276063Y120050D02*
X281360D01*
Y119400D02*
X276068D01*
X276087Y119350D02*
X281360D01*
Y119300D02*
X276099D01*
X276100Y119294D02*
Y120166D01*
X276050Y120025D02*
Y119435D01*
X276105Y119250D02*
X281360D01*
Y119200D02*
X276104D01*
X276034Y121000D02*
X281360D01*
Y120950D02*
X275994D01*
X275938Y120900D02*
X281360D01*
Y120600D02*
X275872D01*
X275849Y120850D02*
X281360D01*
Y120500D02*
X276004D01*
X275951Y120550D02*
X281360D01*
Y120450D02*
X276041D01*
X276034Y120000D02*
X281360D01*
Y119950D02*
X275994D01*
X275938Y119900D02*
X281360D01*
Y119600D02*
X275872D01*
X275849Y119850D02*
X281360D01*
Y119550D02*
X275951D01*
X276041Y119450D02*
X281360D01*
Y119500D02*
X276004D01*
X275850Y122610D02*
Y122960D01*
X275900D02*
Y122585D01*
X275800Y122626D02*
Y122960D01*
X275750D02*
Y122636D01*
X275700Y122640D02*
Y122960D01*
X275650D02*
Y122638D01*
X275600Y122629D02*
Y122960D01*
X275550D02*
Y122614D01*
X275500Y122591D02*
Y122960D01*
X276000D02*
Y122504D01*
X275950Y122551D02*
Y122960D01*
X276000Y121956D02*
Y121504D01*
X275950Y121551D02*
Y121909D01*
X275900Y121875D02*
Y121585D01*
X275850Y121610D02*
Y121850D01*
X275800Y121834D02*
Y121626D01*
X275750Y121636D02*
Y121824D01*
X275450Y122559D02*
Y122960D01*
X275400D02*
Y122515D01*
X275518Y122600D02*
X275105D01*
Y122550D02*
X275439D01*
X275386Y122500D02*
X275105D01*
X275350Y122452D02*
Y122960D01*
X275300D02*
Y122340D01*
X275349Y122450D02*
X275105D01*
Y122400D02*
X275322D01*
X275400Y121945D02*
Y121515D01*
X275350Y121452D02*
Y122008D01*
X275500Y121869D02*
Y121591D01*
X275450Y121559D02*
Y121901D01*
X275105Y121820D02*
Y122640D01*
Y122350D02*
X275303D01*
X275300Y122120D02*
Y121340D01*
X275291Y122300D02*
X275105D01*
X275900Y120875D02*
Y120585D01*
X275950Y120551D02*
Y120909D01*
X275850Y120850D02*
Y120610D01*
X275800Y120626D02*
Y120834D01*
X275750Y120824D02*
Y120636D01*
X275700Y121640D02*
Y121820D01*
X275650Y121822D02*
Y121638D01*
X275700Y120820D02*
Y120640D01*
X275650Y120638D02*
Y120822D01*
X276000Y120956D02*
Y120504D01*
Y119956D02*
Y119504D01*
X275950Y119551D02*
Y119909D01*
X275900Y119875D02*
Y119585D01*
X275850Y119610D02*
Y119850D01*
X275800Y119834D02*
Y119626D01*
X275750Y119636D02*
Y119824D01*
X275700Y119820D02*
Y119640D01*
X275600Y121629D02*
Y121831D01*
X275550Y121846D02*
Y121614D01*
Y120846D02*
Y120614D01*
X275600Y120629D02*
Y120831D01*
X275500Y120869D02*
Y120591D01*
X275350Y120452D02*
Y121008D01*
X275300Y121120D02*
Y120340D01*
X275450Y120559D02*
Y120901D01*
X275400Y120945D02*
Y120515D01*
X275550Y119846D02*
Y119614D01*
X275500Y119591D02*
Y119869D01*
X275650Y119822D02*
Y119638D01*
X275600Y119629D02*
Y119831D01*
X275350Y120008D02*
Y119452D01*
X275300Y119340D02*
Y120120D01*
X275450Y119901D02*
Y119559D01*
X275400Y119515D02*
Y119945D01*
X281360Y117330D02*
Y122960D01*
X281350D02*
Y117330D01*
X281300D02*
Y122960D01*
X281250D02*
Y117330D01*
X281200D02*
Y122960D01*
X281150D02*
Y117330D01*
X281100D02*
Y122960D01*
X281050D02*
Y117330D01*
X281000D02*
Y122960D01*
X280950D02*
Y117330D01*
X280900D02*
Y122960D01*
X280850D02*
Y117330D01*
X280800D02*
Y122960D01*
X280750D02*
Y117330D01*
X280700D02*
Y122960D01*
X280650D02*
Y117330D01*
X280600D02*
Y122960D01*
X280550D02*
Y117330D01*
X280500D02*
Y122960D01*
X280450D02*
Y117330D01*
X280400D02*
Y122960D01*
X280350D02*
Y117330D01*
X280300D02*
Y122960D01*
X280250D02*
Y117330D01*
X280200D02*
Y122960D01*
X280150D02*
Y117330D01*
X280100D02*
Y122960D01*
X280050D02*
Y117330D01*
X280000D02*
Y122960D01*
X279950D02*
Y117330D01*
X279900D02*
Y122960D01*
X279850D02*
Y117330D01*
X279800D02*
Y122960D01*
X279750D02*
Y117330D01*
X279700D02*
Y122960D01*
X279650D02*
Y117330D01*
X279600D02*
Y122960D01*
X279550D02*
Y117330D01*
X279500D02*
Y122960D01*
X279450D02*
Y117330D01*
X279400D02*
Y122960D01*
X279350D02*
Y117330D01*
X279300D02*
Y122960D01*
X279250D02*
Y117330D01*
X279200D02*
Y122960D01*
X279150D02*
Y117330D01*
X279100D02*
Y122960D01*
X279050D02*
Y117330D01*
X279000D02*
Y122960D01*
X278950D02*
Y117330D01*
X278900D02*
Y122960D01*
X281360Y119150D02*
X276097D01*
X276084Y119100D02*
X281360D01*
Y119050D02*
X276063D01*
X276034Y119000D02*
X281360D01*
Y118950D02*
X275994D01*
X278850Y117330D02*
Y122960D01*
X278800D02*
Y117330D01*
X281360Y118900D02*
X275938D01*
X275849Y118850D02*
X281360D01*
X278750Y117330D02*
Y122960D01*
X278700D02*
Y117330D01*
X278650D02*
Y122960D01*
X276505Y117330D02*
X281360D01*
X278600D02*
Y122960D01*
X278550D02*
Y117330D01*
X278500D02*
Y122960D01*
X278450D02*
Y117330D01*
X278400D02*
Y122960D01*
X278350D02*
Y117330D01*
X278300D02*
Y122960D01*
X278250D02*
Y117330D01*
X278200D02*
Y122960D01*
X278150D02*
Y117330D01*
X278100D02*
Y122960D01*
X278050D02*
Y117330D01*
X278000D02*
Y122960D01*
X277950D02*
Y117330D01*
X277900D02*
Y122960D01*
X277850D02*
Y117330D01*
X277800D02*
Y122960D01*
X277750D02*
Y117330D01*
X277700D02*
Y122960D01*
X277650D02*
Y117330D01*
X277600D02*
Y122960D01*
X277550D02*
Y117330D01*
X277500D02*
Y122960D01*
X277450D02*
Y117330D01*
X277400D02*
Y122960D01*
X277350D02*
Y117330D01*
X277300D02*
Y122960D01*
X277250D02*
Y117330D01*
X277200D02*
Y122960D01*
X277150D02*
Y117330D01*
X277100D02*
Y122960D01*
X277050D02*
Y117330D01*
X277000D02*
Y122960D01*
X276950D02*
Y117330D01*
X276900D02*
Y122960D01*
X276850D02*
Y117330D01*
X276800D02*
Y122960D01*
X276750D02*
Y117330D01*
X276700D02*
Y122960D01*
X276650D02*
Y117330D01*
X276600D02*
Y122960D01*
X276550D02*
Y117330D01*
X276500D02*
Y122960D01*
X276450D02*
Y117330D01*
X276400D02*
Y122960D01*
X276350D02*
Y117330D01*
X276300D02*
Y122960D01*
X276250D02*
Y117330D01*
X276200D02*
Y122960D01*
X276150D02*
Y117330D01*
X276100D02*
Y119166D01*
X276050Y119025D02*
Y117330D01*
X276000D02*
Y118956D01*
X275950Y118909D02*
Y117330D01*
X275900D02*
Y118875D01*
X275850Y118850D02*
Y117330D01*
X275800D02*
Y118834D01*
X275750Y118824D02*
Y117330D01*
X275600D02*
Y118831D01*
X275550Y118846D02*
Y117330D01*
X275700D02*
Y118820D01*
X275650Y118822D02*
Y117330D01*
X275400D02*
Y118945D01*
X275350Y119008D02*
Y117330D01*
X275500D02*
Y118869D01*
X275450Y118901D02*
Y117330D01*
X275250D02*
Y122960D01*
X275200D02*
Y117330D01*
X275300D02*
Y119120D01*
X275150Y117330D02*
Y122960D01*
X275105Y122250D02*
X275285D01*
X275286Y122200D02*
X275105D01*
Y122150D02*
X275293D01*
X275306Y122100D02*
X275105D01*
Y122050D02*
X275327D01*
X275100Y122640D02*
Y122960D01*
X275050D02*
Y122640D01*
X275000D02*
Y122960D01*
X274950D02*
Y122640D01*
X275105Y122000D02*
X275356D01*
X275396Y121950D02*
X275105D01*
Y121900D02*
X275452D01*
X275541Y121850D02*
X275105D01*
X275100Y121820D02*
Y121294D01*
X275050Y121435D02*
Y121820D01*
X275000D02*
Y121504D01*
X274950Y121551D02*
Y121820D01*
X274230Y122960D02*
X281360D01*
Y122950D02*
X274230D01*
Y122900D02*
X281360D01*
Y122850D02*
X274230D01*
Y122800D02*
X281360D01*
X274900Y122640D02*
Y122960D01*
X274850D02*
Y122640D01*
X274230Y122750D02*
X281360D01*
Y122700D02*
X274230D01*
X274285Y122640D02*
X275105D01*
X274230Y122650D02*
X281360D01*
X275105Y121820D02*
X274285D01*
X274900D02*
Y121585D01*
X274800Y122640D02*
Y122960D01*
X274850Y121820D02*
Y121610D01*
X274800Y121626D02*
Y121820D01*
X275004Y121500D02*
X275386D01*
X275349Y121450D02*
X275041D01*
X274951Y121550D02*
X275439D01*
X275303Y121350D02*
X275087D01*
X275068Y121400D02*
X275322D01*
X275291Y121300D02*
X275099D01*
X275105Y121250D02*
X275285D01*
X275286Y121200D02*
X275104D01*
X275097Y121150D02*
X275293D01*
X275327Y121050D02*
X275063D01*
X275034Y121000D02*
X275356D01*
X275396Y120950D02*
X274994D01*
X275004Y120500D02*
X275386D01*
X275306Y121100D02*
X275084D01*
X275000Y120956D02*
Y120504D01*
X275041Y120450D02*
X275349D01*
X274950Y120551D02*
Y120909D01*
X274230Y121800D02*
X281360D01*
Y121750D02*
X274230D01*
Y121700D02*
X281360D01*
Y121650D02*
X274230D01*
Y120800D02*
X281360D01*
X275518Y121600D02*
X274872D01*
X274938Y120900D02*
X275452D01*
X275541Y120850D02*
X274849D01*
X274230Y120750D02*
X281360D01*
Y120700D02*
X274230D01*
X274872Y120600D02*
X275518D01*
X274230Y120650D02*
X281360D01*
X274900Y120585D02*
Y120875D01*
X274850Y120850D02*
Y120610D01*
X274951Y120550D02*
X275439D01*
X274800Y120626D02*
Y120834D01*
X274750Y122640D02*
Y122960D01*
X274700D02*
Y122640D01*
X274650D02*
Y122960D01*
X274600D02*
Y122640D01*
X274550D02*
Y122960D01*
X274500D02*
Y122640D01*
X274450D02*
Y122960D01*
X274400D02*
Y122640D01*
X274350D02*
Y122960D01*
X274750Y121820D02*
Y121636D01*
X274700Y121640D02*
Y121820D01*
X274300Y122640D02*
Y122960D01*
X274650Y121820D02*
Y121638D01*
X274600Y121629D02*
Y121820D01*
X274285Y122600D02*
X274230D01*
Y122550D02*
X274285D01*
Y122500D02*
X274230D01*
Y122450D02*
X274285D01*
Y122400D02*
X274230D01*
Y122350D02*
X274285D01*
Y122300D02*
X274230D01*
Y122250D02*
X274285D01*
Y122200D02*
X274230D01*
Y122150D02*
X274285D01*
Y122100D02*
X274230D01*
Y122050D02*
X274285D01*
Y122000D02*
X274230D01*
X274285Y121820D02*
Y122640D01*
Y121950D02*
X274230D01*
Y121900D02*
X274285D01*
Y121850D02*
X274230D01*
X274550Y121820D02*
Y121614D01*
X274500Y121591D02*
Y121820D01*
X274450D02*
Y121559D01*
X274518Y121600D02*
X274230D01*
Y121550D02*
X274439D01*
X274400Y121515D02*
Y121820D01*
X274350D02*
Y121452D01*
X274300Y121340D02*
Y121820D01*
X274230Y121500D02*
X274386D01*
X274750Y120824D02*
Y120636D01*
X274700Y120640D02*
Y120820D01*
X274650Y120822D02*
Y120638D01*
X274600Y120629D02*
Y120831D01*
X274450Y120901D02*
Y120559D01*
X274400Y120515D02*
Y120945D01*
X274550Y120846D02*
Y120614D01*
X274500Y120591D02*
Y120869D01*
X274349Y121450D02*
X274230D01*
Y121400D02*
X274322D01*
X274303Y121350D02*
X274230D01*
Y121300D02*
X274291D01*
X274285Y121250D02*
X274230D01*
Y121200D02*
X274286D01*
X274293Y121150D02*
X274230D01*
Y121100D02*
X274306D01*
X274230Y120900D02*
X274452D01*
X274541Y120850D02*
X274230D01*
Y120600D02*
X274518D01*
X274439Y120550D02*
X274230D01*
Y121050D02*
X274327D01*
X274356Y121000D02*
X274230D01*
Y120950D02*
X274396D01*
X274386Y120500D02*
X274230D01*
X275087Y120350D02*
X275303D01*
X275291Y120300D02*
X275099D01*
X275068Y120400D02*
X275322D01*
X275306Y120100D02*
X275084D01*
X275063Y120050D02*
X275327D01*
X275100Y120294D02*
Y121166D01*
X275105Y120250D02*
X275285D01*
X275286Y120200D02*
X275104D01*
X275097Y120150D02*
X275293D01*
X275291Y119300D02*
X275099D01*
X275087Y119350D02*
X275303D01*
X275285Y119250D02*
X275105D01*
X275084Y119100D02*
X275306D01*
X275100Y119294D02*
Y120166D01*
X275104Y119200D02*
X275286D01*
X275100Y119166D02*
Y117330D01*
X275097Y119150D02*
X275293D01*
X275541Y119850D02*
X274849D01*
X274230Y119800D02*
X281360D01*
Y119750D02*
X274230D01*
Y119700D02*
X281360D01*
Y119650D02*
X274230D01*
X275034Y120000D02*
X275356D01*
X275396Y119950D02*
X274994D01*
X274938Y119900D02*
X275452D01*
X275439Y119550D02*
X274951D01*
X274872Y119600D02*
X275518D01*
X275356Y119000D02*
X275034D01*
X275004Y119500D02*
X275386D01*
X275349Y119450D02*
X275041D01*
X275068Y119400D02*
X275322D01*
X275327Y119050D02*
X275063D01*
X274230Y118800D02*
X281360D01*
Y118750D02*
X274230D01*
Y118700D02*
X281360D01*
Y118650D02*
X274230D01*
Y118600D02*
X281360D01*
X275396Y118950D02*
X274994D01*
X274938Y118900D02*
X275452D01*
X275541Y118850D02*
X274849D01*
X274230Y118550D02*
X281360D01*
Y118500D02*
X274230D01*
Y118450D02*
X281360D01*
Y118400D02*
X274230D01*
Y118350D02*
X281360D01*
Y118300D02*
X274230D01*
Y118250D02*
X281360D01*
Y118200D02*
X274230D01*
Y118150D02*
X281360D01*
Y118100D02*
X274230D01*
Y118050D02*
X281360D01*
Y118000D02*
X274230D01*
Y117950D02*
X281360D01*
Y117900D02*
X274230D01*
Y117850D02*
X281360D01*
Y117800D02*
X274230D01*
Y117750D02*
X281360D01*
Y117700D02*
X274230D01*
Y117650D02*
X281360D01*
Y117600D02*
X274230D01*
Y117550D02*
X281360D01*
Y117500D02*
X274230D01*
Y117450D02*
X281360D01*
Y117400D02*
X274230D01*
Y117350D02*
X281360D01*
X276505Y117330D02*
X274230D01*
X275050Y120435D02*
Y121025D01*
X274850Y119850D02*
Y119610D01*
X274800Y119626D02*
Y119834D01*
X274750Y119824D02*
Y119636D01*
X274700Y119640D02*
Y119820D01*
X274550Y119846D02*
Y119614D01*
X274350Y120452D02*
Y121008D01*
X274650Y119822D02*
Y119638D01*
X274600Y119629D02*
Y119831D01*
X275050Y120025D02*
Y119435D01*
X275000Y119504D02*
Y119956D01*
X274950Y119909D02*
Y119551D01*
X274900Y119585D02*
Y119875D01*
X274400Y119945D02*
Y119515D01*
X274350Y119452D02*
Y120008D01*
X274500Y119869D02*
Y119591D01*
X274450Y119559D02*
Y119901D01*
X274349Y120450D02*
X274230D01*
X274300Y120340D02*
Y121120D01*
X274322Y120400D02*
X274230D01*
Y120350D02*
X274303D01*
X274291Y120300D02*
X274230D01*
Y120250D02*
X274285D01*
X274286Y120200D02*
X274230D01*
Y120150D02*
X274293D01*
X274306Y120100D02*
X274230D01*
Y120000D02*
X274356D01*
X274396Y119950D02*
X274230D01*
Y119900D02*
X274452D01*
X274541Y119850D02*
X274230D01*
X274250Y117330D02*
Y122960D01*
X274230D02*
Y118930D01*
X274300Y119340D02*
Y120120D01*
X274327Y120050D02*
X274230D01*
X275050Y119025D02*
Y117330D01*
X275000D02*
Y118956D01*
X274950Y118909D02*
Y117330D01*
X274900D02*
Y118875D01*
X274850Y118850D02*
Y117330D01*
X274800D02*
Y118834D01*
X274518Y119600D02*
X274230D01*
X274750Y118824D02*
Y117330D01*
X274700D02*
Y118820D01*
X274600Y118831D02*
Y117330D01*
X274500D02*
Y118869D01*
X274650Y118822D02*
Y117330D01*
X274550D02*
Y118846D01*
X274350Y119008D02*
Y117330D01*
X274300D02*
Y119120D01*
X274450Y118901D02*
Y117330D01*
X274400D02*
Y118945D01*
X274439Y119550D02*
X274230D01*
Y119500D02*
X274386D01*
X274349Y119450D02*
X274230D01*
Y119400D02*
X274322D01*
X274303Y119350D02*
X274230D01*
Y119300D02*
X274291D01*
X274285Y119250D02*
X274230D01*
Y119200D02*
X274286D01*
X274230Y119000D02*
X274356D01*
X274396Y118950D02*
X274230D01*
Y118900D02*
X274452D01*
X274541Y118850D02*
X274230D01*
Y119150D02*
X274293D01*
X274306Y119100D02*
X274230D01*
Y119050D02*
X274327D01*
X274230Y118930D02*
Y117330D01*
X276105Y122230D02*
G75*
G02*X276105Y122230I-410D01*
G74*
Y121230D02*
G75*
G02*X276105Y121230I-410D01*
G74*
Y120230D02*
G75*
G02*X276105Y120230I-410D01*
G74*
Y119230D02*
G75*
G02*X276105Y119230I-410D01*
G74*
X275105Y121230D02*
G75*
G02*X275105Y121230I-410D01*
G74*
Y120230D02*
G75*
G02*X275105Y120230I-410D01*
G74*
Y119230D02*
G75*
G02*X275105Y119230I-410D01*
D17*
G74*
X275065Y122230D02*
X274695D01*
Y122600D01*
Y122230D02*
X274325D01*
X274695D02*
Y121860D01*
D22*
X275160Y117495D02*
D03*
X279120Y122210D02*
D03*
X277225Y122400D02*
D03*
X279860Y122780D02*
D03*
X278100D02*
D03*
X276400D02*
D03*
X278550Y117495D02*
D03*
X280380D02*
D03*
X276370D02*
D03*
X276310Y118940D02*
D03*
X274407Y122780D02*
D03*
X281200D02*
D03*
X274407Y117495D02*
D03*
X276700Y121570D02*
D03*
X278150Y118965D02*
D03*
X279015Y118950D02*
D03*
X278565Y118400D02*
D03*
X274407Y118480D02*
D03*
Y119765D02*
D03*
Y120735D02*
D03*
X278570Y120620D02*
D03*
X277935Y119350D02*
D03*
X278090Y120610D02*
D03*
X278580Y120210D02*
D03*
X277490Y121290D02*
D03*
X279305Y119450D02*
D03*
X280375Y119020D02*
D03*
X279000Y119710D02*
D03*
X281200Y119030D02*
D03*
Y119855D02*
D03*
X279485Y121400D02*
D03*
X281250Y121425D02*
D03*
X280300D02*
D03*
X278670Y122300D02*
D03*
D26*
X279695Y122230D02*
D03*
X275695D02*
D03*
X274695Y121230D02*
D03*
X275695D02*
D03*
X274695Y120230D02*
D03*
X275695D02*
D03*
X274695Y119230D02*
D03*
X275695D02*
D03*
D37*
X274695Y122230D02*
D03*
M02*
