*%FSLAX24Y24*%
*%MOIN*%
G01*
%ADD11C,0.0010*%
%ADD12C,0.0030*%
%ADD13C,0.0050*%
%ADD14C,0.0060*%
%ADD15C,0.0073*%
%ADD16C,0.0080*%
%ADD17C,0.0100*%
%ADD18C,0.0120*%
%ADD19C,0.0200*%
%ADD20C,0.0250*%
%ADD21C,0.0300*%
%ADD22C,0.0320*%
%ADD23C,0.0400*%
%ADD24C,0.0500*%
%ADD25C,0.0560*%
%ADD26C,0.0620*%
%ADD27C,0.0700*%
%ADD28C,0.0800*%
%ADD29R,0.0098X0.0331*%
%ADD30R,0.0178X0.0411*%
%ADD31R,0.0200X0.0250*%
%ADD32R,0.0250X0.0200*%
%ADD33R,0.0280X0.0330*%
%ADD34R,0.0330X0.0280*%
%ADD35R,0.0331X0.0098*%
%ADD36R,0.0411X0.0178*%
%ADD37R,0.0620X0.0620*%
%ADD38R,0.0700X0.0700*%
%ADD39R,0.2165X0.0787*%
%ADD40R,0.2245X0.0867*%
D22*
X275160Y117495D02*
D03*
X279120Y122210D02*
D03*
X277225Y122400D02*
D03*
X279860Y122780D02*
D03*
X278100D02*
D03*
X276400D02*
D03*
X278550Y117495D02*
D03*
X280380D02*
D03*
X276370D02*
D03*
X276310Y118940D02*
D03*
X274407Y122780D02*
D03*
X281200D02*
D03*
X274407Y117495D02*
D03*
X276700Y121570D02*
D03*
X278150Y118965D02*
D03*
X279015Y118950D02*
D03*
X278565Y118400D02*
D03*
X274407Y118480D02*
D03*
Y119765D02*
D03*
Y120735D02*
D03*
X278570Y120620D02*
D03*
X277935Y119350D02*
D03*
X278090Y120610D02*
D03*
X278580Y120210D02*
D03*
X277490Y121290D02*
D03*
X279305Y119450D02*
D03*
X280375Y119020D02*
D03*
X279000Y119710D02*
D03*
X281200Y119030D02*
D03*
Y119855D02*
D03*
X279485Y121400D02*
D03*
X281250Y121425D02*
D03*
X280300D02*
D03*
X278670Y122300D02*
D03*
D27*
X279695Y122230D02*
D03*
X275695D02*
D03*
X274695Y121230D02*
D03*
X275695D02*
D03*
X274695Y120230D02*
D03*
X275695D02*
D03*
X274695Y119230D02*
D03*
X275695D02*
D03*
D38*
X274695Y122230D02*
D03*
M02*
