*%FSLAX24Y24*%
*%MOIN*%
G01*
%ADD11C,0.0010*%
%ADD12C,0.0030*%
%ADD13C,0.0050*%
%ADD14C,0.0060*%
%ADD15C,0.0073*%
%ADD16C,0.0080*%
%ADD17C,0.0100*%
%ADD18C,0.0120*%
%ADD19C,0.0200*%
%ADD20C,0.0250*%
%ADD21C,0.0300*%
%ADD22C,0.0320*%
%ADD23C,0.0400*%
%ADD24C,0.0500*%
%ADD25C,0.0560*%
%ADD26C,0.0620*%
%ADD27C,0.0700*%
%ADD28C,0.0800*%
%ADD29R,0.0098X0.0331*%
%ADD30R,0.0178X0.0411*%
%ADD31R,0.0200X0.0250*%
%ADD32R,0.0250X0.0200*%
%ADD33R,0.0280X0.0330*%
%ADD34R,0.0330X0.0280*%
%ADD35R,0.0331X0.0098*%
%ADD36R,0.0411X0.0178*%
%ADD37R,0.0620X0.0620*%
%ADD38R,0.0700X0.0700*%
%ADD39R,0.2165X0.0787*%
%ADD40R,0.2245X0.0867*%
D14*
X278649Y119349D02*
X278810D01*
X278458Y119330D02*
X278330D01*
X278310Y119349D01*
X278458D02*
Y119767D01*
D16*
X278460Y121446D02*
X278654Y121640D01*
X278460Y121446D02*
Y121320D01*
X275213Y117750D02*
X274230D01*
Y117800D02*
X275213D01*
Y117850D02*
X274230D01*
Y117900D02*
X275213D01*
Y117950D02*
X274230D01*
Y118000D02*
X275213D01*
Y118050D02*
X274230D01*
Y117330D02*
Y118930D01*
Y118100D02*
X275213D01*
Y118150D02*
X274230D01*
Y117400D02*
X275309D01*
Y117450D02*
X274230D01*
Y117500D02*
X275309D01*
Y117550D02*
X274230D01*
Y117600D02*
X275309D01*
Y117650D02*
X274230D01*
Y117700D02*
X275309D01*
X275213Y118200D02*
X274230D01*
Y118250D02*
X275213D01*
Y118300D02*
X274230D01*
Y118950D02*
X274396D01*
X274356Y119000D02*
X274230D01*
Y119050D02*
X274327D01*
X274306Y119100D02*
X274230D01*
Y119150D02*
X274293D01*
X274286Y119200D02*
X274230D01*
Y119250D02*
X274285D01*
X274291Y119300D02*
X274230D01*
Y119350D02*
X274303D01*
X274322Y119400D02*
X274230D01*
Y118350D02*
X275213D01*
Y118400D02*
X274230D01*
Y118450D02*
X275213D01*
Y118500D02*
X274230D01*
Y118550D02*
X275213D01*
Y118600D02*
X274230D01*
Y118650D02*
X275213D01*
Y118700D02*
X274230D01*
Y118900D02*
X274452D01*
X274541Y118850D02*
X274230D01*
X274550Y118846D02*
Y117330D01*
X274600D02*
Y118831D01*
X274650Y118822D02*
Y117330D01*
X274700D02*
Y118820D01*
X274750Y118824D02*
Y117330D01*
X274300D02*
Y119120D01*
X274350Y119008D02*
Y117330D01*
X274400D02*
Y118945D01*
X274450Y118901D02*
Y117330D01*
X274500D02*
Y118869D01*
X274800Y118834D02*
Y117330D01*
X274850D02*
Y118850D01*
X275050Y118857D02*
Y117330D01*
X275100D02*
Y118850D01*
X275250Y117736D02*
Y117330D01*
X274900D02*
Y118875D01*
X274950Y118909D02*
Y117330D01*
X275000D02*
Y118884D01*
X275150Y118850D02*
Y117330D01*
X275200D02*
Y118850D01*
X275095D02*
X274849D01*
X275095D02*
X275280D01*
X275213Y118723D02*
Y117736D01*
X275250Y118723D02*
Y118850D01*
X275280D02*
X275095D01*
X274983Y118900D02*
X274938D01*
X275300Y117736D02*
Y117330D01*
X275309Y117736D02*
X275213D01*
X275309D02*
Y117359D01*
X275300Y118723D02*
Y118851D01*
X275350Y118867D02*
Y118723D01*
X275400D02*
Y118910D01*
X274349Y119450D02*
X274230D01*
Y119500D02*
X274386D01*
X274439Y119550D02*
X274230D01*
X274450Y119559D02*
Y119901D01*
X274518Y119600D02*
X274230D01*
X274250Y117330D02*
Y122960D01*
X274230D02*
Y118930D01*
X274300Y119340D02*
Y120120D01*
X274350Y120008D02*
Y119452D01*
X274400Y119515D02*
Y119945D01*
X274230Y119700D02*
X274650D01*
Y119750D02*
X274230D01*
Y119800D02*
X274650D01*
X274500Y119869D02*
Y119591D01*
X274550Y119614D02*
Y119846D01*
X274600Y119831D02*
Y119629D01*
X274650Y119638D02*
Y119822D01*
Y119815D02*
Y119661D01*
X274356Y120000D02*
X274230D01*
Y120050D02*
X274327D01*
X274306Y120100D02*
X274230D01*
Y120200D02*
X274286D01*
X274293Y120150D02*
X274230D01*
Y120250D02*
X274285D01*
X274291Y120300D02*
X274230D01*
X274300Y120340D02*
Y121120D01*
X274303Y120350D02*
X274230D01*
Y120400D02*
X274322D01*
X274230Y119850D02*
X274541D01*
X274452Y119900D02*
X274230D01*
Y120450D02*
X274349D01*
X274396Y119950D02*
X274230D01*
X274350Y120452D02*
Y121008D01*
X275309Y117359D02*
X275703D01*
X275759D01*
X275650Y118723D02*
Y118822D01*
X275450Y118901D02*
Y118723D01*
X275500D02*
Y118869D01*
X275550Y118846D02*
Y118723D01*
X275600D02*
Y118831D01*
X275700Y118820D02*
Y118723D01*
X276505Y117330D02*
X274230D01*
Y117350D02*
X281360D01*
X275759Y117359D02*
X275703D01*
X275759D02*
X276153D01*
Y117400D02*
X280483D01*
Y117450D02*
X276153D01*
X275213Y118723D02*
X277578D01*
X276153Y117500D02*
X280483D01*
Y117550D02*
X276153D01*
Y117600D02*
X280483D01*
X275750Y118723D02*
Y118824D01*
X275541Y118850D02*
X275280D01*
X275800Y118834D02*
Y118723D01*
X275850D02*
Y118850D01*
X275900Y118875D02*
Y118723D01*
X275950D02*
Y118909D01*
X275452Y118900D02*
X275392D01*
X276000Y118956D02*
Y118723D01*
X276050D02*
Y119025D01*
X276100Y119128D02*
Y118723D01*
X274230Y118750D02*
X278183D01*
X278233Y118800D02*
X274230D01*
X275849Y118850D02*
X278283D01*
X278308Y118900D02*
X275938D01*
X275994Y118950D02*
X278308D01*
Y119000D02*
X276034D01*
X276063Y119050D02*
X278308D01*
Y119100D02*
X276084D01*
X276096Y119124D02*
X276262Y119290D01*
X276122Y119150D02*
X278308D01*
X276200Y117736D02*
Y117330D01*
X276250D02*
Y117736D01*
X276300D02*
Y117330D01*
X276350D02*
Y117736D01*
X276400D02*
Y117330D01*
X276450D02*
Y117736D01*
X276500D02*
Y117330D01*
X276550D02*
Y117736D01*
X276600D02*
Y117330D01*
X276650D02*
Y117736D01*
X276505Y117330D02*
X281360D01*
X276700D02*
Y117736D01*
X276750D02*
Y117330D01*
X276800D02*
Y117736D01*
X276850D02*
Y117330D01*
X276900D02*
Y117736D01*
X276950D02*
Y117330D01*
X277000D02*
Y117736D01*
X277050D02*
Y117330D01*
X277100D02*
Y117736D01*
X276153D02*
Y117359D01*
X276150Y118723D02*
Y119178D01*
X276200Y119228D02*
Y118723D01*
X276250D02*
Y119278D01*
X276300Y119290D02*
Y118723D01*
X276350D02*
Y119290D01*
X276400D02*
Y118723D01*
X276450D02*
Y119290D01*
X276500D02*
Y118723D01*
X276550D02*
Y119290D01*
X276153Y117650D02*
X280483D01*
Y117700D02*
X276153D01*
X277150Y117736D02*
Y117330D01*
X277200D02*
Y117736D01*
X277250D02*
Y117330D01*
X277578Y117736D02*
X276153D01*
X276172Y119200D02*
X278125D01*
Y119250D02*
X276222D01*
X277300Y117736D02*
Y117330D01*
X276600Y118723D02*
Y119290D01*
X277350Y117736D02*
Y117330D01*
X277600Y119290D02*
X276262D01*
X276650D02*
Y118723D01*
X276700D02*
Y119290D01*
X276750D02*
Y118723D01*
X276800D02*
Y119290D01*
X276850D02*
Y118723D01*
X276900D02*
Y119290D01*
X276950D02*
Y118723D01*
X277000D02*
Y119290D01*
X277050D02*
Y118723D01*
X277100D02*
Y119290D01*
X277150D02*
Y118723D01*
X277200D02*
Y119290D01*
X277250D02*
Y118723D01*
X277300D02*
Y119290D01*
X277350D02*
Y118723D01*
X277400D02*
Y119290D01*
X274386Y120500D02*
X274230D01*
Y120550D02*
X274439D01*
X274518Y120600D02*
X274230D01*
X274600Y120629D02*
Y120831D01*
X274615Y120700D02*
X274230D01*
X274400Y120515D02*
Y120945D01*
X274541Y120850D02*
X274230D01*
X274450Y120901D02*
Y120559D01*
X274500Y120591D02*
Y120869D01*
X274550Y120846D02*
Y120614D01*
X274624Y120650D02*
X274230D01*
Y120750D02*
X274615D01*
Y120800D02*
X274230D01*
X274615D02*
Y120700D01*
X274356Y121000D02*
X274230D01*
Y121050D02*
X274327D01*
X274306Y121100D02*
X274230D01*
Y121200D02*
X274286D01*
X274293Y121150D02*
X274230D01*
Y121250D02*
X274285D01*
X274291Y121300D02*
X274230D01*
Y121350D02*
X274303D01*
X274322Y121400D02*
X274230D01*
Y121450D02*
X274349D01*
X274452Y120900D02*
X274230D01*
Y120950D02*
X274396D01*
X274386Y121500D02*
X274230D01*
Y121550D02*
X274439D01*
X274518Y121600D02*
X274230D01*
Y121650D02*
X274903D01*
X274953Y121700D02*
X274230D01*
X274859Y121606D02*
X275014Y121761D01*
X275003Y121750D02*
X274230D01*
Y121800D02*
X275082D01*
X274285Y121850D02*
X274230D01*
Y121900D02*
X274285D01*
X274300Y121820D02*
Y121340D01*
X274285Y121950D02*
X274230D01*
Y122000D02*
X274285D01*
Y122050D02*
X274230D01*
Y122100D02*
X274285D01*
Y121820D02*
Y122640D01*
Y122150D02*
X274230D01*
Y122200D02*
X274285D01*
X274350Y121820D02*
Y121452D01*
X274400Y121515D02*
Y121820D01*
X274450D02*
Y121559D01*
X274500Y121591D02*
Y121820D01*
X274550D02*
Y121614D01*
X274600Y121629D02*
Y121820D01*
X274285D02*
X275105D01*
X274650D02*
Y121638D01*
X274700Y121640D02*
Y121820D01*
X274285Y122250D02*
X274230D01*
Y122300D02*
X274285D01*
Y122350D02*
X274230D01*
Y122400D02*
X274285D01*
Y122450D02*
X274230D01*
Y122500D02*
X274285D01*
Y122550D02*
X274230D01*
Y122600D02*
X274285D01*
X274300Y122640D02*
Y122960D01*
X274350D02*
Y122640D01*
X274285D02*
X275105D01*
X274400D02*
Y122960D01*
X274450D02*
Y122640D01*
X274500D02*
Y122960D01*
X274550D02*
Y122640D01*
X274600D02*
Y122960D01*
X274650D02*
Y122640D01*
X274700D02*
Y122960D01*
X274750Y121820D02*
Y121636D01*
X274800Y121626D02*
Y121820D01*
X274850D02*
Y121610D01*
X274900Y121647D02*
Y121820D01*
X274950D02*
Y121697D01*
X275000Y121747D02*
Y121820D01*
X275050D02*
Y121788D01*
X275150Y121805D02*
Y122960D01*
X275105Y122640D02*
Y121820D01*
X275200Y121805D02*
Y122960D01*
X275205Y121805D02*
X275120D01*
X275105Y121850D02*
X275205D01*
Y121805D02*
Y121911D01*
Y121900D02*
X275105D01*
Y121950D02*
X275210D01*
X275235Y122000D02*
X275105D01*
Y122050D02*
X275300D01*
X275250Y122018D02*
Y122960D01*
X275300Y122120D02*
Y122050D01*
X274750Y122640D02*
Y122960D01*
X274800D02*
Y122640D01*
X275105Y122150D02*
X275293D01*
X274850Y122640D02*
Y122960D01*
X275105Y122200D02*
X275286D01*
X274900Y122640D02*
Y122960D01*
X274950D02*
Y122640D01*
X275000D02*
Y122960D01*
X275050D02*
Y122640D01*
X275100D02*
Y122960D01*
X275105Y122100D02*
X275306D01*
X275285Y122250D02*
X275105D01*
Y122300D02*
X275291D01*
X275303Y122350D02*
X275105D01*
Y122400D02*
X275322D01*
X275349Y122450D02*
X275105D01*
Y122500D02*
X275386D01*
X275439Y122550D02*
X275105D01*
X275300Y122340D02*
Y122960D01*
X275350D02*
Y122452D01*
X275400Y122515D02*
Y122960D01*
X276852Y121200D02*
X277718D01*
X277512Y121060D02*
X276992D01*
X276952Y121100D02*
X277718D01*
Y121150D02*
X276902D01*
X276802Y121250D02*
X277718D01*
X276800Y121252D02*
Y121770D01*
X277300Y121440D02*
Y121060D01*
X277350D02*
Y121440D01*
X277400D02*
Y121060D01*
X276400Y121652D02*
Y121770D01*
X276350D02*
Y121702D01*
X276602Y121450D02*
X277251D01*
X276450Y121602D02*
Y121770D01*
X276500D02*
Y121552D01*
X276600Y121452D02*
Y121770D01*
X276550D02*
Y121502D01*
X276750Y121302D02*
Y121770D01*
X276650D02*
Y121402D01*
X276700Y121352D02*
Y121770D01*
X276652Y121400D02*
X277718D01*
X277251Y121500D02*
X276552D01*
X276752Y121300D02*
X277718D01*
X277645Y121440D02*
X277251D01*
X277718Y121350D02*
X276702D01*
X276402Y121650D02*
X277251D01*
Y121700D02*
X276352D01*
X276302Y121750D02*
X277251D01*
Y121550D02*
X276502D01*
X276452Y121600D02*
X277251D01*
X275450Y122559D02*
Y122960D01*
X276000D02*
Y122504D01*
X276050Y122435D02*
Y122960D01*
X276101Y122170D02*
X277140D01*
X276104Y122200D02*
X281360D01*
Y122250D02*
X276105D01*
X276099Y122300D02*
X281360D01*
Y122500D02*
X276004D01*
X276087Y122350D02*
X281360D01*
Y122400D02*
X276068D01*
X276041Y122450D02*
X281360D01*
X275518Y122600D02*
X275105D01*
X275500Y122591D02*
Y122960D01*
X275550D02*
Y122614D01*
X275600Y122629D02*
Y122960D01*
X275650D02*
Y122638D01*
X275700Y122640D02*
Y122960D01*
X275750D02*
Y122636D01*
X275900Y122585D02*
Y122960D01*
X275800D02*
Y122626D01*
X275850Y122610D02*
Y122960D01*
X274230Y122650D02*
X281360D01*
Y122700D02*
X274230D01*
X275951Y122550D02*
X281360D01*
Y122600D02*
X275872D01*
X274230Y122750D02*
X281360D01*
Y122800D02*
X274230D01*
Y122850D02*
X281360D01*
Y122900D02*
X274230D01*
X275950Y122960D02*
Y122551D01*
X274230Y122950D02*
X281360D01*
Y122960D02*
X274230D01*
X276150D02*
Y122170D01*
X276200D02*
Y122960D01*
X276950Y121770D02*
Y121102D01*
X276850Y121202D02*
Y121770D01*
X276900D02*
Y121152D01*
X276250Y122170D02*
Y122960D01*
X276300D02*
Y122170D01*
X276350D02*
Y122960D01*
X276400D02*
Y122170D01*
X276450D02*
Y122960D01*
X276291Y121761D02*
X276992Y121060D01*
X277000D02*
Y121770D01*
X277050D02*
Y121060D01*
X277100D02*
Y121770D01*
X277150D02*
Y121060D01*
X277140Y121770D02*
X276281D01*
X277140D02*
X277251D01*
X277200D02*
Y121060D01*
X277250D02*
Y121770D01*
X277251D02*
Y121440D01*
X276500Y122170D02*
Y122960D01*
X276100D02*
Y122294D01*
X276550Y122170D02*
Y122960D01*
X276600D02*
Y122170D01*
X276650D02*
Y122960D01*
X276700D02*
Y122170D01*
X276750D02*
Y122960D01*
X276800D02*
Y122170D01*
X276850D02*
Y122960D01*
X276900D02*
Y122170D01*
X276950D02*
Y122960D01*
X277000D02*
Y122170D01*
X277050D02*
Y122960D01*
X277100D02*
Y122170D01*
X277140D02*
X278037D01*
X277150D02*
Y122960D01*
X277200D02*
Y122170D01*
X277250D02*
Y122960D01*
X277300D02*
Y122170D01*
X277350D02*
Y122960D01*
X277400D02*
Y122170D01*
Y117736D02*
Y117330D01*
X277450D02*
Y117736D01*
X277500D02*
Y117330D01*
X277550D02*
Y117736D01*
X277578D02*
Y118064D01*
X277600D02*
Y117330D01*
X277650D02*
Y118064D01*
X277700D02*
Y117330D01*
X277750D02*
Y118064D01*
X277800D02*
Y117330D01*
X277578Y117750D02*
X278953D01*
Y117800D02*
X277578D01*
X277850Y118064D02*
Y117330D01*
X277578Y117850D02*
X278953D01*
Y117900D02*
X277578D01*
X277900Y118070D02*
Y117330D01*
X277950D02*
Y118095D01*
X278000Y118143D02*
Y117330D01*
X278050D02*
Y118193D01*
X278100Y118243D02*
Y117330D01*
X277859Y118064D02*
X277578D01*
Y118364D02*
X277797D01*
X277833Y118400D02*
X277578D01*
Y118450D02*
X277883D01*
X277933Y118500D02*
X277578D01*
Y118364D02*
Y118723D01*
Y118550D02*
X277983D01*
X278033Y118600D02*
X277578D01*
Y117950D02*
X278953D01*
Y118000D02*
X277578D01*
Y118050D02*
X278953D01*
Y118100D02*
X277956D01*
X278007Y118150D02*
X278953D01*
X278083Y118650D02*
X277578D01*
Y118700D02*
X278133D01*
X278560Y118703D02*
X277965Y118108D01*
X277797Y118364D02*
X278308Y118875D01*
X278057Y118200D02*
X278953D01*
X278150Y118293D02*
Y117330D01*
X278200D02*
Y118343D01*
X278250Y118393D02*
Y117330D01*
X278300D02*
Y118443D01*
X278350Y118493D02*
Y117330D01*
X278400D02*
Y118543D01*
X278450Y118593D02*
Y117330D01*
X278500D02*
Y118643D01*
X278550Y118693D02*
Y117330D01*
X278600D02*
Y118663D01*
X278900Y118363D02*
Y117330D01*
X278950D02*
Y118313D01*
X279000Y117736D02*
Y117330D01*
X279050D02*
Y117736D01*
X279100D02*
Y117330D01*
X278650D02*
Y118613D01*
X278700Y118563D02*
Y117330D01*
X278750D02*
Y118513D01*
X278800Y118463D02*
Y117330D01*
X278850D02*
Y118413D01*
X278953Y118250D02*
X278107D01*
X278157Y118300D02*
X278953D01*
Y118310D02*
Y117736D01*
X278863Y118400D02*
X278257D01*
X278207Y118350D02*
X278913D01*
X278813Y118450D02*
X278307D01*
X278357Y118500D02*
X278763D01*
X278713Y118550D02*
X278407D01*
X278507Y118650D02*
X278613D01*
X278663Y118600D02*
X278457D01*
X279150Y117736D02*
Y117330D01*
X279200D02*
Y117736D01*
X279250D02*
Y117330D01*
X279300D02*
Y117736D01*
X279350D02*
Y117330D01*
X279400D02*
Y117736D01*
X278953Y118310D02*
X278560Y118703D01*
X278805Y118883D02*
X278964Y118723D01*
X279450Y117736D02*
Y117330D01*
X279500D02*
Y117736D01*
X279550D02*
Y117330D01*
X277450Y118723D02*
Y119290D01*
X277500D02*
Y118723D01*
X277600Y118364D02*
Y119290D01*
X277550D02*
Y118723D01*
X277650Y118364D02*
Y119299D01*
X277700Y119328D02*
Y118364D01*
X277750D02*
Y119378D01*
X277800Y119428D02*
Y118367D01*
X277850Y118417D02*
Y119478D01*
X277900Y119502D02*
Y118467D01*
X278150Y118717D02*
Y119189D01*
X278200D02*
Y118767D01*
X278250Y118817D02*
Y119189D01*
X278308D02*
X278125D01*
X277950Y119502D02*
Y118517D01*
X278000Y118567D02*
Y119502D01*
X278050D02*
Y118617D01*
X278100Y118667D02*
Y119502D01*
X278125D02*
Y119189D01*
Y119300D02*
X277654D01*
X277722Y119350D02*
X278125D01*
X277874Y119502D02*
X277706Y119334D01*
X277772Y119400D02*
X278125D01*
Y119450D02*
X277822D01*
X277874Y119502D02*
X277915D01*
X278016D01*
X278125Y119500D02*
X277872D01*
X277915Y119502D02*
X278016D01*
X278112D01*
X278300Y119189D02*
Y118867D01*
X278308Y118875D02*
Y119189D01*
X278900D02*
Y118787D01*
X278805Y118883D02*
Y119189D01*
X278850D02*
Y118837D01*
X278805Y119189D02*
X278969D01*
Y119589D02*
X278805D01*
X279050Y119973D02*
Y118723D01*
X278950Y118737D02*
Y119189D01*
X278969D02*
Y119589D01*
X279350Y119698D02*
Y118723D01*
X279498Y119550D02*
X278969D01*
X279400Y119648D02*
Y118723D01*
X279450D02*
Y119598D01*
X279500Y119548D02*
Y118723D01*
X279100D02*
Y119973D01*
X279150Y119927D02*
Y118723D01*
X279200D02*
Y119848D01*
X279250Y119798D02*
Y118723D01*
X279300D02*
Y119748D01*
X278805Y119767D02*
Y119589D01*
X278804Y119782D02*
Y119852D01*
X278850Y119893D02*
Y119589D01*
X278857Y119900D02*
X279160D01*
X278900Y119943D02*
Y119589D01*
X278828Y119872D02*
X278898Y119942D01*
X278950Y119973D02*
Y119589D01*
X278921Y119973D02*
X278995D01*
X278805Y119600D02*
X279448D01*
X279398Y119650D02*
X278805D01*
Y119700D02*
X279348D01*
X279248Y119800D02*
X278804D01*
X278805Y119750D02*
X279298D01*
X279198Y119850D02*
X278804D01*
X278906Y119950D02*
X279146D01*
X279145Y119973D02*
X279010D01*
X279600Y117736D02*
Y117330D01*
X279650D02*
Y117736D01*
X279700D02*
Y117330D01*
X279750D02*
Y117736D01*
X279800D02*
Y117330D01*
X279850D02*
Y117736D01*
X279900D02*
Y117330D01*
X279950D02*
Y117736D01*
X280000D02*
Y117330D01*
X280050D02*
Y117736D01*
X280100D02*
Y117330D01*
X280150D02*
Y117736D01*
X280200D02*
Y117330D01*
X280500D02*
Y117379D01*
X280550D02*
Y117330D01*
X280250D02*
Y117736D01*
X280300D02*
Y117330D01*
X280350D02*
Y117736D01*
X280400D02*
Y117330D01*
X280450D02*
Y117736D01*
X280600Y117379D02*
Y117330D01*
X280650D02*
Y117379D01*
X280700D02*
Y117330D01*
X280750D02*
Y117379D01*
X280800D02*
Y117330D01*
X280483Y117379D02*
Y117736D01*
X278953D01*
X280850Y117379D02*
Y117330D01*
X281360Y118750D02*
X278937D01*
X278887Y118800D02*
X281360D01*
X280877Y117379D02*
X280483D01*
X280877D02*
X280933D01*
X281318Y118723D02*
X278964D01*
X278805Y118900D02*
X281360D01*
Y118950D02*
X278805D01*
Y119000D02*
X281360D01*
Y118850D02*
X278837D01*
X278805Y119050D02*
X281360D01*
Y119100D02*
X278805D01*
X280900Y117379D02*
Y117330D01*
X280877Y117379D02*
X280933D01*
X280950D02*
Y117330D01*
X281000D02*
Y117379D01*
X281050D02*
Y117330D01*
X281100D02*
Y117379D01*
X281150D02*
Y117330D01*
X281200D02*
Y117379D01*
X281250D02*
Y117330D01*
X281300D02*
Y117379D01*
X281327D02*
X280933D01*
X281327Y117400D02*
X281360D01*
Y117450D02*
X281327D01*
Y117500D02*
X281360D01*
Y117550D02*
X281327D01*
Y117600D02*
X281360D01*
X281318Y117736D02*
Y117779D01*
X281327D02*
Y117379D01*
Y117650D02*
X281360D01*
Y117700D02*
X281327D01*
X281318Y117800D02*
X281360D01*
Y117850D02*
X281318D01*
X281327Y117750D02*
X281360D01*
Y117900D02*
X281318D01*
Y117950D02*
X281360D01*
Y118000D02*
X281318D01*
Y118050D02*
X281360D01*
X281318Y117779D02*
Y118723D01*
Y118100D02*
X281360D01*
Y118150D02*
X281318D01*
Y118200D02*
X281360D01*
Y118250D02*
X281318D01*
Y118300D02*
X281360D01*
Y118350D02*
X281318D01*
Y118400D02*
X281360D01*
Y118450D02*
X281318D01*
Y118500D02*
X281360D01*
Y118550D02*
X281318D01*
Y118600D02*
X281360D01*
Y118650D02*
X281318D01*
Y118700D02*
X281360D01*
X279750Y118723D02*
Y119310D01*
X279800Y119296D02*
Y118723D01*
X279850D02*
Y119295D01*
X279900D02*
Y118723D01*
X280000D02*
Y119245D01*
X279550Y119498D02*
Y118723D01*
X279600D02*
Y119448D01*
X279650Y119398D02*
Y118723D01*
X279700D02*
Y119348D01*
X279950Y119295D02*
Y118723D01*
X278805Y119150D02*
X281360D01*
Y119200D02*
X278969D01*
X280050Y119245D02*
Y118723D01*
X280100D02*
Y119245D01*
X280150D02*
Y118723D01*
X280200D02*
Y119245D01*
X280250D02*
Y118723D01*
X280300D02*
Y119245D01*
X280350D02*
Y118723D01*
X280400D02*
Y119245D01*
X279648Y119400D02*
X278969D01*
Y119450D02*
X279598D01*
X279548Y119500D02*
X278969D01*
Y119250D02*
X279976D01*
X279777Y119300D02*
X278969D01*
X279976Y119245D02*
X280370D01*
X280426D01*
X280370Y119245D02*
X280820D01*
X279698Y119350D02*
X278969D01*
X279189Y119859D02*
X279709Y119339D01*
X279976Y119295D02*
Y119245D01*
Y119295D02*
X279815D01*
X280450Y119245D02*
Y118723D01*
X280500D02*
Y119245D01*
X280550D02*
Y118723D01*
X280600D02*
Y119245D01*
X280650D02*
Y118723D01*
X280700D02*
Y119245D01*
X280750D02*
Y118723D01*
X280800D02*
Y119245D01*
X280850Y118723D02*
Y120015D01*
X280900D02*
Y118723D01*
X280950D02*
Y120015D01*
X281000D02*
Y118723D01*
X281050D02*
Y120015D01*
X281100D02*
Y118723D01*
X281150D02*
Y120015D01*
X281200D02*
Y118723D01*
X281250D02*
Y120015D01*
X281350D02*
Y117330D01*
X281300Y118723D02*
Y120015D01*
X281360D02*
Y117330D01*
Y119250D02*
X280820D01*
Y119300D02*
X281360D01*
Y119350D02*
X280820D01*
Y119400D02*
X281360D01*
X280820Y119245D02*
Y119585D01*
X280835D02*
Y119985D01*
X280820Y119450D02*
X281360D01*
Y119500D02*
X280820D01*
Y119550D02*
X281360D01*
Y119600D02*
X280835D01*
Y119650D02*
X281360D01*
Y119700D02*
X280835D01*
Y119750D02*
X281360D01*
Y119800D02*
X280835D01*
Y119850D02*
X281360D01*
Y119900D02*
X280835D01*
Y119950D02*
X281360D01*
X278170Y120052D02*
X277950Y120272D01*
Y120738D01*
X278213Y120032D02*
X278309D01*
X277950Y120272D02*
Y120738D01*
X278000Y120760D02*
Y120222D01*
X278100Y120122D02*
Y120760D01*
X278050D02*
Y120172D01*
X278250Y120032D02*
Y120760D01*
X278150D02*
Y120072D01*
X278300Y120032D02*
Y120760D01*
X278072Y120150D02*
X278745D01*
Y120200D02*
X278022D01*
X278309Y120032D02*
X278410D01*
X278309D01*
X278122Y120100D02*
X278703D01*
X278745Y120300D02*
X277950D01*
Y120350D02*
X278745D01*
X278350Y120032D02*
Y120760D01*
X277972Y120250D02*
X278745D01*
Y120400D02*
X277950D01*
X277450Y121060D02*
Y121440D01*
X277500D02*
Y121060D01*
X277527Y121059D02*
X277718D01*
X277550D02*
Y121440D01*
X277600D02*
Y121059D01*
X277650D02*
Y121440D01*
X277645D02*
X277701D01*
X277700D02*
Y121059D01*
X277701Y121440D02*
X277645D01*
X277718D02*
Y121059D01*
X277950Y120450D02*
X278745D01*
Y120500D02*
X277950D01*
Y120550D02*
X278745D01*
Y120600D02*
X277950D01*
Y120650D02*
X278745D01*
Y120700D02*
X277950D01*
X277962Y120750D02*
X278745D01*
X277972Y120760D02*
X277950Y120738D01*
X277972Y120760D02*
X278150D01*
X278370D01*
X278410Y120032D02*
X278505D01*
X278400D02*
Y120760D01*
X278505Y120032D02*
X278607D01*
X278505D01*
X278607D02*
X278638D01*
X278450D02*
Y120760D01*
X278500D02*
Y120032D01*
X278550D02*
Y120760D01*
X278600D02*
Y120032D01*
X278700Y120097D02*
Y120760D01*
X278722Y120118D02*
X278652Y120048D01*
X278745Y120137D02*
Y120170D01*
Y120272D01*
Y120170D01*
Y120272D02*
Y120367D01*
Y120469D01*
Y120367D01*
Y120469D02*
Y120564D01*
Y120666D01*
Y120564D01*
Y120666D02*
Y120760D01*
X278370D01*
X277450Y122170D02*
Y122960D01*
X277500D02*
Y122170D01*
X277550D02*
Y122960D01*
X277600D02*
Y122170D01*
X277650D02*
Y122960D01*
X277700D02*
Y122170D01*
X277750D02*
Y122960D01*
X277800D02*
Y122170D01*
X277850D02*
Y122960D01*
X278879Y121580D02*
X278920D01*
Y121600D02*
X278879D01*
X277900Y122170D02*
Y122960D01*
X277950D02*
Y122170D01*
X278000D02*
Y122960D01*
X278037Y122170D02*
X278262D01*
X278037D01*
X278050D02*
Y122960D01*
X278100D02*
Y122170D01*
X278150D02*
Y122960D01*
X278200D02*
Y122170D01*
X278262D02*
X278430D01*
X278250D02*
Y122960D01*
X278300D02*
Y122170D01*
X278350D02*
Y122960D01*
X278400D02*
Y122170D01*
X278450D02*
Y122960D01*
X278430Y122170D02*
X278487D01*
X278430D01*
X278487D02*
X278880D01*
X278500D02*
Y122960D01*
X278550D02*
Y122170D01*
X278600D02*
Y122960D01*
X278650D02*
Y122170D01*
X278700D02*
Y122960D01*
X278750D02*
Y122170D01*
X278800D02*
Y122960D01*
X278850D02*
Y122170D01*
X278920Y121619D02*
Y121580D01*
Y121650D02*
X278879D01*
X279320Y121619D02*
Y121275D01*
X278920Y121619D02*
Y121675D01*
Y121619D01*
X278879Y121580D02*
Y121770D01*
Y121700D02*
X278920D01*
X278900Y121580D02*
Y122960D01*
X278920Y122069D02*
Y121675D01*
X279320D02*
Y121619D01*
Y121675D01*
Y122069D01*
X279350Y121275D02*
Y122960D01*
X279400D02*
Y121275D01*
X279450D02*
Y122960D01*
X279500D02*
Y121275D01*
X279550D02*
Y122960D01*
X279600D02*
Y121275D01*
X279650D02*
Y122960D01*
X279700D02*
Y121275D01*
X278920Y121750D02*
X278879D01*
X278880Y121800D02*
X278920D01*
X278879Y121770D02*
Y121840D01*
X278880Y121850D02*
X278920D01*
Y121900D02*
X278880D01*
Y121950D02*
X278920D01*
Y122000D02*
X278880D01*
Y122170D02*
Y121770D01*
Y122050D02*
X278920D01*
X278950Y122069D02*
Y122960D01*
X278920Y122069D02*
X279320D01*
X279000D02*
Y122960D01*
X279050D02*
Y122069D01*
X279100D02*
Y122960D01*
X279150D02*
Y122069D01*
X279200D02*
Y122960D01*
X279250D02*
Y122069D01*
X279300D02*
Y122960D01*
X280596Y119985D02*
X280835D01*
X280599Y120000D02*
X281360D01*
Y120015D02*
X280600D01*
X279750Y121275D02*
Y122960D01*
X279800D02*
Y121275D01*
X279850D02*
Y122960D01*
X279900D02*
Y121275D01*
X279950D02*
Y122960D01*
X279320Y121275D02*
X281080D01*
X280000D02*
Y122960D01*
X279320Y121300D02*
X281360D01*
Y121350D02*
X279320D01*
Y121400D02*
X281360D01*
Y121450D02*
X279320D01*
Y121500D02*
X281360D01*
Y121550D02*
X279320D01*
Y121600D02*
X281360D01*
X280050Y121275D02*
Y122960D01*
X280100D02*
Y121275D01*
X280150D02*
Y122960D01*
X279320Y121650D02*
X281360D01*
Y121700D02*
X279320D01*
Y121750D02*
X281360D01*
Y121800D02*
X279320D01*
Y121850D02*
X281360D01*
Y121900D02*
X279320D01*
X278880Y122100D02*
X281360D01*
Y122150D02*
X278880D01*
X279320Y121950D02*
X281360D01*
Y122000D02*
X279320D01*
Y122050D02*
X281360D01*
X280200Y121275D02*
Y122960D01*
X280250D02*
Y121275D01*
X280300D02*
Y122960D01*
X280350D02*
Y121275D01*
X280400D02*
Y122960D01*
X280450D02*
Y121275D01*
X280500D02*
Y122960D01*
X280550D02*
Y121275D01*
X280600D02*
Y122960D01*
X280650D02*
Y121275D01*
X280700D02*
Y122960D01*
X280750D02*
Y121275D01*
X280800D02*
Y122960D01*
X280850D02*
Y121275D01*
X280900D02*
Y122960D01*
X280950D02*
Y121275D01*
X281000D02*
Y122960D01*
X281080Y121284D02*
X281360D01*
X281050Y121275D02*
Y122960D01*
X281100D02*
Y121284D01*
X281150D02*
Y122960D01*
X281200D02*
Y121284D01*
X281250D02*
Y122960D01*
X281300D02*
Y121284D01*
X281350D02*
Y122960D01*
X281360D02*
Y121284D01*
X275095Y118850D02*
G75*
G02*X274966Y118923J150D01*
G74*
X275280Y118850D02*
G75*
G03*X275414Y118932J150D01*
G74*
X274966Y118923D02*
G75*
G02*X274652Y119638I-271J307D01*
G74*
X274650Y119822D02*
G75*
G02*X274630Y120635I45J408D01*
G74*
X275414Y118932D02*
G75*
G03*X276089Y119118I281J298D01*
G74*
X274630Y120635D02*
G75*
G02*X274615Y120700I135J65D01*
G74*
X274618Y120827D02*
G75*
G02*X274859Y121606I77J403D01*
G74*
X275014Y121761D02*
G75*
G02*X275120Y121805I106J-106D01*
G03*X275014Y121761J-150D01*
G74*
X275205Y121911D02*
G75*
G02*X275323Y122057I150D01*
G74*
X276101Y122170D02*
G75*
G03*X276105Y122230I-406J60D01*
G03*X275323Y122057I-410D01*
G74*
X277859Y118064D02*
G75*
G03*X277965Y118108J150D01*
G74*
X277965Y118108D02*
G75*
G02*X277859Y118064I-106J106D01*
G74*
X277600Y119290D02*
G75*
G03*X277706Y119334J150D01*
G74*
X277706Y119334D02*
G75*
G02*X277600Y119290I-106J106D01*
G74*
X278804Y119852D02*
G75*
G03*X278828Y119872I-64J108D01*
G74*
X278898Y119942D02*
G75*
G03*X278921Y119973I-88J88D01*
G74*
X279145Y119965D02*
G75*
G03*X279189Y119859I150D01*
G74*
X279189Y119859D02*
G75*
G02*X279145Y119965I106J106D01*
G74*
X279709Y119339D02*
G75*
G03*X279815Y119295I106J106D01*
G02*X279709Y119339J150D01*
G74*
X280596Y119985D02*
G75*
G03*X280600Y120015I-146J35D01*
D17*
G74*
X276395Y118229D02*
X275928Y117762D01*
Y117559D01*
X281102Y117579D02*
Y117683D01*
X280556Y118229D01*
X280136D01*
X281350Y117820D02*
Y117366D01*
X280161Y119810D02*
X279850D01*
X280161D02*
X280201Y119770D01*
Y119445D01*
X279217Y120123D02*
X279010D01*
X279217D02*
X279295Y120045D01*
Y119965D01*
X279815Y119445D01*
X280201D01*
X275990Y119230D02*
X275695D01*
X275990D02*
X276200Y119440D01*
X277600D01*
X275215Y119750D02*
X274695Y119230D01*
X275215Y119750D02*
X275815D01*
X276188Y120123D01*
X277512D01*
X275784Y120319D02*
X275695Y120230D01*
X275784Y120319D02*
X277512D01*
X275210Y120745D02*
X274695Y120230D01*
X275210Y120745D02*
X276180D01*
X276409Y120516D01*
X277512D01*
X276230Y121230D02*
X275695D01*
X276230D02*
X276747Y120713D01*
X277512D01*
X275120Y121655D02*
X274695Y121230D01*
X275120Y121655D02*
X276185D01*
X276930Y120910D01*
X277512D01*
X278458Y119767D02*
Y118813D01*
X278655Y118820D02*
X279261Y118214D01*
X278655Y118820D02*
Y119767D01*
X277859Y118214D02*
X276510D01*
X277859D02*
X278458Y118813D01*
X277600Y119440D02*
X277867Y119707D01*
Y119767D01*
X279410Y117895D02*
X279495D01*
X279427Y120319D02*
X279010D01*
Y120516D02*
X279396D01*
X278064Y119946D02*
X277800Y120210D01*
X278064Y119946D02*
Y119767D01*
X277800Y120800D02*
X277910Y120910D01*
X277800Y120800D02*
Y120210D01*
X278261Y121641D02*
X278262Y121642D01*
X278261Y121641D02*
Y121019D01*
X278370Y120910D01*
X277910D02*
X279010D01*
X278261Y121021D02*
X278150Y120910D01*
X278064Y121310D02*
Y121446D01*
X277870Y121640D01*
X278655Y121395D02*
Y121335D01*
Y121395D02*
X278690Y121430D01*
X279100D01*
X275534Y117559D02*
X275349D01*
X275534D02*
Y117399D01*
X274695Y121860D02*
Y122230D01*
X274325D01*
X274695D02*
X275065D01*
X274695D02*
Y122600D01*
X277291Y121640D02*
X277476D01*
X278261Y119992D02*
Y119767D01*
X280708Y117579D02*
Y117419D01*
Y117579D02*
X280523D01*
X280595Y119285D02*
Y119445D01*
X280780D01*
X280795Y119785D02*
X280610D01*
Y119945D01*
X277867Y121256D02*
X277758D01*
X278785Y120713D02*
X279010D01*
X277476Y121480D02*
Y121640D01*
X278654D02*
X278839D01*
X278840Y121970D02*
X278655D01*
Y122130D01*
X278960Y121844D02*
X279120D01*
X279280D01*
X279120D02*
Y122029D01*
D19*
X275955Y121970D02*
X275695Y122230D01*
X275955Y121970D02*
X277140D01*
X281255Y121380D02*
Y121090D01*
Y120640D02*
X280970D01*
X280576D02*
X280234D01*
X279830Y120630D02*
X279510D01*
X278262Y121970D02*
X277140D01*
X278262D02*
Y121642D01*
X279510Y120236D02*
X279817D01*
X279850Y120204D01*
D21*
X281280Y120665D02*
X281725D01*
X281773Y120684D02*
X281773Y120699D01*
X286764Y117629D02*
X286864Y117639D01*
D22*
X275160Y117495D02*
D03*
X279120Y122210D02*
D03*
X277225Y122400D02*
D03*
X279860Y122780D02*
D03*
X278100D02*
D03*
X276400D02*
D03*
X278550Y117495D02*
D03*
X280380D02*
D03*
X276370D02*
D03*
X276310Y118940D02*
D03*
X274407Y122780D02*
D03*
X281200D02*
D03*
X274407Y117495D02*
D03*
X276700Y121570D02*
D03*
X278150Y118965D02*
D03*
X279015Y118950D02*
D03*
X278565Y118400D02*
D03*
X274407Y118480D02*
D03*
Y119765D02*
D03*
Y120735D02*
D03*
X278570Y120620D02*
D03*
X277935Y119350D02*
D03*
X278090Y120610D02*
D03*
X278580Y120210D02*
D03*
X277490Y121290D02*
D03*
X279305Y119450D02*
D03*
X280375Y119020D02*
D03*
X279000Y119710D02*
D03*
X281200Y119030D02*
D03*
Y119855D02*
D03*
X279485Y121400D02*
D03*
X281250Y121425D02*
D03*
X280300D02*
D03*
X278670Y122300D02*
D03*
D24*
X281763Y120709D02*
X283784Y122729D01*
X283784D02*
X286764Y122729D01*
Y117629D01*
X286764Y117619D02*
X286281D01*
D26*
X279695Y122230D02*
D03*
X275695D02*
D03*
X274695Y121230D02*
D03*
X275695D02*
D03*
X274695Y120230D02*
D03*
X275695D02*
D03*
X274695Y119230D02*
D03*
X275695D02*
D03*
D29*
X277867Y119767D02*
D03*
X278064D02*
D03*
X278261D02*
D03*
X278458D02*
D03*
X278655D02*
D03*
Y121256D02*
D03*
X278458D02*
D03*
X278261D02*
D03*
X278064D02*
D03*
X277867D02*
D03*
D31*
X279120Y121450D02*
D03*
Y121844D02*
D03*
X279850Y119810D02*
D03*
Y120204D02*
D03*
X279510Y120236D02*
D03*
Y120630D02*
D03*
X281280Y120665D02*
D03*
Y121059D02*
D03*
D32*
X280610Y119785D02*
D03*
X280216D02*
D03*
X278262Y121970D02*
D03*
X278655D02*
D03*
X278744Y119389D02*
D03*
X278350D02*
D03*
X280708Y117579D02*
D03*
X281102D02*
D03*
X275534Y117559D02*
D03*
X275928D02*
D03*
X280234Y120640D02*
D03*
X279840D02*
D03*
X278260Y121640D02*
D03*
X278654D02*
D03*
X277476D02*
D03*
X277870D02*
D03*
X280595Y119445D02*
D03*
X280201Y119445D02*
D03*
X280576Y120640D02*
D03*
X280970D02*
D03*
D35*
X277512Y120910D02*
D03*
Y120713D02*
D03*
Y120516D02*
D03*
Y120319D02*
D03*
Y120123D02*
D03*
X279010D02*
D03*
Y120319D02*
D03*
Y120516D02*
D03*
Y120713D02*
D03*
Y120910D02*
D03*
D37*
X274695Y122230D02*
D03*
D39*
X276395Y118229D02*
D03*
X280136D02*
D03*
M02*
