*%FSLAX24Y24*%
*%MOIN*%
G01*
%ADD11C,0.0010*%
%ADD12C,0.0030*%
%ADD13C,0.0050*%
%ADD14C,0.0060*%
%ADD15C,0.0073*%
%ADD16C,0.0080*%
%ADD17C,0.0100*%
%ADD18C,0.0120*%
%ADD19C,0.0200*%
%ADD20C,0.0250*%
%ADD21C,0.0300*%
%ADD22C,0.0320*%
%ADD23C,0.0400*%
%ADD24C,0.0500*%
%ADD25C,0.0560*%
%ADD26C,0.0620*%
%ADD27C,0.0700*%
%ADD28C,0.0800*%
%ADD29R,0.0098X0.0331*%
%ADD30R,0.0178X0.0411*%
%ADD31R,0.0200X0.0250*%
%ADD32R,0.0250X0.0200*%
%ADD33R,0.0280X0.0330*%
%ADD34R,0.0330X0.0280*%
%ADD35R,0.0331X0.0098*%
%ADD36R,0.0411X0.0178*%
%ADD37R,0.0620X0.0620*%
%ADD38R,0.0700X0.0700*%
%ADD39R,0.2165X0.0787*%
%ADD40R,0.2245X0.0867*%
D11*
X286280Y120650D02*
Y120680D01*
Y119770D02*
Y119750D01*
X286270Y120640D02*
Y120690D01*
Y119790D02*
Y119740D01*
X286260Y120630D02*
Y120710D01*
Y119810D02*
Y119720D01*
X286250Y120610D02*
Y120720D01*
Y119820D02*
Y119710D01*
X286240Y120680D02*
Y120740D01*
Y120650D02*
Y120590D01*
Y119840D02*
Y119760D01*
Y119750D02*
Y119690D01*
X286230Y120690D02*
Y120750D01*
Y120640D02*
Y120580D01*
Y119850D02*
Y119760D01*
Y119730D02*
Y119680D01*
X286220Y120710D02*
Y120760D01*
Y120620D02*
Y120560D01*
Y119870D02*
Y119760D01*
Y119720D02*
Y119660D01*
X286210Y120720D02*
Y120780D01*
Y120600D02*
Y120540D01*
Y119880D02*
Y119760D01*
Y119700D02*
Y119650D01*
X286200Y120740D02*
Y120790D01*
Y120590D02*
Y120530D01*
Y119890D02*
Y119760D01*
Y119690D02*
Y119630D01*
X286190Y120750D02*
Y120810D01*
Y120570D02*
Y120510D01*
Y119910D02*
Y119760D01*
Y119670D02*
Y119620D01*
X286180Y120770D02*
Y120820D01*
Y120550D02*
Y120500D01*
Y119920D02*
Y119760D01*
Y119660D02*
Y119610D01*
X286170Y120780D02*
Y120830D01*
Y120540D02*
Y120480D01*
Y119940D02*
Y119760D01*
Y119640D02*
Y119590D01*
X286160Y120800D02*
Y120850D01*
Y120520D02*
Y120460D01*
Y119950D02*
Y119760D01*
Y119630D02*
Y119580D01*
X286150Y120810D02*
Y120860D01*
Y120510D02*
Y120450D01*
Y119970D02*
Y119760D01*
Y119620D02*
Y119560D01*
X286140Y120820D02*
Y120880D01*
Y120490D02*
Y120430D01*
Y119980D02*
Y119760D01*
Y119600D02*
Y119550D01*
X286130Y120840D02*
Y120890D01*
Y120470D02*
Y120410D01*
Y120000D02*
Y119760D01*
Y119590D02*
Y119530D01*
X286120Y120850D02*
Y120900D01*
Y120460D02*
Y120400D01*
Y120010D02*
Y119760D01*
Y119570D02*
Y119520D01*
X286110Y120870D02*
Y120920D01*
Y120440D02*
Y120380D01*
Y120030D02*
Y119760D01*
Y119560D02*
Y119500D01*
X286100Y120880D02*
Y120930D01*
Y120420D02*
Y120360D01*
Y120040D02*
Y119760D01*
Y119540D02*
Y119490D01*
X286090Y120890D02*
Y120950D01*
Y120410D02*
Y120350D01*
Y120060D02*
Y119760D01*
Y119530D02*
Y119470D01*
X286080Y120910D02*
Y120960D01*
Y120390D02*
Y120330D01*
Y120070D02*
Y119760D01*
Y119510D02*
Y119460D01*
X286070Y120920D02*
Y120970D01*
Y120380D02*
Y120310D01*
Y120090D02*
Y119760D01*
Y119500D02*
Y119450D01*
X286060Y120940D02*
Y120990D01*
Y120360D02*
Y120300D01*
Y120100D02*
Y119760D01*
Y119480D02*
Y119430D01*
X286050Y120950D02*
Y121000D01*
Y120340D02*
Y120280D01*
Y120120D02*
Y119760D01*
Y119470D02*
Y119420D01*
X286040Y120960D02*
Y121020D01*
Y120330D02*
Y120260D01*
Y120130D02*
Y119760D01*
Y119460D02*
Y119400D01*
X286030Y120980D02*
Y121030D01*
Y120310D02*
Y120250D01*
Y120150D02*
Y119760D01*
Y119440D02*
Y119390D01*
X286020Y120990D02*
Y121040D01*
Y120290D02*
Y120230D01*
Y120160D02*
Y119760D01*
Y119430D02*
Y119370D01*
X286010Y121010D02*
Y121040D01*
Y120280D02*
Y120210D01*
Y120180D02*
Y119760D01*
Y119410D02*
Y119360D01*
X286000Y121000D02*
Y121050D01*
Y120260D02*
Y120200D01*
Y120190D02*
Y119760D01*
Y119400D02*
Y119340D01*
X285990Y120980D02*
Y121040D01*
Y120250D02*
Y119760D01*
Y119380D02*
Y119330D01*
X285980Y120970D02*
Y121040D01*
Y120230D02*
Y119760D01*
Y119370D02*
Y119310D01*
X285970Y120950D02*
Y121040D01*
Y120210D02*
Y119760D01*
Y119350D02*
Y119310D01*
X285960Y120930D02*
Y121040D01*
Y120200D02*
Y119760D01*
Y119340D02*
Y119310D01*
X285950Y120920D02*
Y121040D01*
Y120180D02*
Y119760D01*
Y119330D02*
Y119310D01*
X285940Y120900D02*
Y121040D01*
Y120160D02*
Y119760D01*
Y119330D02*
Y119310D01*
X285930Y120880D02*
Y121040D01*
Y120150D02*
Y119760D01*
Y119330D02*
Y119310D01*
X285920Y120870D02*
Y121040D01*
Y120130D02*
Y119760D01*
Y119330D02*
Y119310D01*
X285910Y120850D02*
Y121040D01*
Y120120D02*
Y119760D01*
Y119330D02*
Y119310D01*
X285900Y120830D02*
Y121040D01*
Y120100D02*
Y119760D01*
Y119330D02*
Y119310D01*
X285890Y120820D02*
Y121040D01*
Y120080D02*
Y119760D01*
Y119330D02*
Y119310D01*
X285880Y120800D02*
Y121040D01*
Y120070D02*
Y119760D01*
Y119330D02*
Y119310D01*
X285870Y120780D02*
Y121040D01*
Y120050D02*
Y119760D01*
Y119330D02*
Y119310D01*
X285860Y120770D02*
Y121040D01*
Y120030D02*
Y119760D01*
Y119330D02*
Y119310D01*
X285850Y120750D02*
Y121040D01*
Y120020D02*
Y119760D01*
Y119330D02*
Y119310D01*
X285840Y120730D02*
Y121040D01*
Y120000D02*
Y119760D01*
Y119330D02*
Y119310D01*
X285830Y120720D02*
Y121040D01*
Y119990D02*
Y119760D01*
Y119330D02*
Y119310D01*
X285820Y120700D02*
Y121040D01*
Y119970D02*
Y119760D01*
Y119330D02*
Y119310D01*
X285810Y120680D02*
Y121040D01*
Y119950D02*
Y119760D01*
Y119330D02*
Y119310D01*
X285800Y120670D02*
Y121040D01*
Y119940D02*
Y119760D01*
Y119330D02*
Y119310D01*
X285790Y120650D02*
Y121040D01*
Y119920D02*
Y119760D01*
Y119330D02*
Y119310D01*
X285780Y120630D02*
Y121040D01*
Y119900D02*
Y119760D01*
Y119330D02*
Y119310D01*
X285770Y120620D02*
Y121040D01*
Y119890D02*
Y119760D01*
Y119330D02*
Y119310D01*
X285760Y120600D02*
Y121040D01*
Y119870D02*
Y119760D01*
Y119330D02*
Y119310D01*
X285750Y120580D02*
Y121040D01*
Y119860D02*
Y119760D01*
Y119330D02*
Y119310D01*
X285740Y120570D02*
Y121040D01*
Y119840D02*
Y119760D01*
Y119330D02*
Y119310D01*
X285730Y120550D02*
Y121040D01*
Y119820D02*
Y119760D01*
Y119330D02*
Y119310D01*
X285720Y120530D02*
Y121040D01*
Y119810D02*
Y119760D01*
Y119330D02*
Y119310D01*
X285710Y120520D02*
Y121040D01*
Y119790D02*
Y119760D01*
Y119330D02*
Y119310D01*
X285700Y120500D02*
Y121040D01*
Y119330D02*
Y119310D01*
X285690Y120480D02*
Y121040D01*
Y119330D02*
Y119310D01*
X285680Y120470D02*
Y121040D01*
Y119330D02*
Y119310D01*
X285670Y120450D02*
Y121040D01*
Y119330D02*
Y119310D01*
X285660Y120430D02*
Y121040D01*
Y119330D02*
Y119310D01*
X285650Y120420D02*
Y121040D01*
Y119330D02*
Y119310D01*
X285640Y120400D02*
Y121040D01*
Y119330D02*
Y119310D01*
X285630Y120380D02*
Y121040D01*
Y119330D02*
Y119310D01*
X285620Y120370D02*
Y121040D01*
Y119330D02*
Y119310D01*
X285610Y120350D02*
Y121040D01*
Y119330D02*
Y119310D01*
X285600Y120330D02*
Y121040D01*
Y119330D02*
Y119310D01*
X285590Y120320D02*
Y121040D01*
Y119330D02*
Y119310D01*
X285580Y120300D02*
Y121040D01*
Y119330D02*
Y119310D01*
X285570Y120280D02*
Y121040D01*
Y119330D02*
Y119310D01*
X285560Y120270D02*
Y121040D01*
Y119330D02*
Y119310D01*
X285550Y120250D02*
Y121040D01*
Y119330D02*
Y119310D01*
X285540Y120230D02*
Y121040D01*
Y119330D02*
Y119310D01*
X285530Y120220D02*
Y121040D01*
Y119330D02*
Y119310D01*
X285520Y120200D02*
Y121040D01*
Y119330D02*
Y119310D01*
X285510Y120180D02*
Y121040D01*
Y119330D02*
Y119310D01*
X285500Y120170D02*
Y121040D01*
Y119330D02*
Y119310D01*
X285490Y120150D02*
Y121040D01*
Y119330D02*
Y119310D01*
X285480Y120130D02*
Y121040D01*
Y119330D02*
Y119310D01*
X285470Y120120D02*
Y121040D01*
Y119330D02*
Y119310D01*
X285460Y120100D02*
Y121040D01*
Y119330D02*
Y119310D01*
X285450Y120080D02*
Y121040D01*
Y119330D02*
Y119310D01*
X285440Y120070D02*
Y121040D01*
Y119330D02*
Y119310D01*
X285430Y120050D02*
Y121040D01*
Y119330D02*
Y119310D01*
X285420Y120030D02*
Y121040D01*
Y119330D02*
Y119310D01*
X285410Y120020D02*
Y121040D01*
Y119330D02*
Y119310D01*
X285400Y120000D02*
Y121040D01*
Y119330D02*
Y119310D01*
X285390Y119980D02*
Y121040D01*
Y119330D02*
Y119310D01*
X285380Y119970D02*
Y121040D01*
Y119330D02*
Y119310D01*
X285370Y119950D02*
Y121040D01*
Y119330D02*
Y119310D01*
X285360Y119930D02*
Y121040D01*
Y119330D02*
Y119310D01*
X285350Y119920D02*
Y121040D01*
Y119330D02*
Y119310D01*
X285340Y119900D02*
Y121040D01*
Y119330D02*
Y119310D01*
X285330D02*
Y119330D01*
X285320Y119870D02*
Y121040D01*
Y119330D02*
Y119310D01*
X285310Y119850D02*
Y121040D01*
Y119330D02*
Y119310D01*
X285300Y119830D02*
Y121040D01*
Y119330D02*
Y119310D01*
X285290Y119820D02*
Y121040D01*
Y119330D02*
Y119310D01*
X285280Y119800D02*
Y121040D01*
Y119330D02*
Y119310D01*
X285270Y119780D02*
Y121040D01*
Y119330D02*
Y119310D01*
X285260Y119770D02*
Y121040D01*
Y119330D02*
Y119310D01*
X285250Y119750D02*
Y121040D01*
Y119330D02*
Y119310D01*
X285240Y119730D02*
Y121040D01*
Y119330D02*
Y119310D01*
X285230Y119720D02*
Y121040D01*
Y119330D02*
Y119310D01*
X285220Y119700D02*
Y121040D01*
Y119330D02*
Y119310D01*
X285210Y119680D02*
Y121040D01*
Y119330D02*
Y119310D01*
X285200Y119670D02*
Y121040D01*
Y119330D02*
Y119310D01*
X285190Y119650D02*
Y121040D01*
Y119330D02*
Y119310D01*
X285180Y120610D02*
Y121040D01*
Y120590D02*
Y119630D01*
Y119330D02*
Y119310D01*
X285170Y120610D02*
Y121040D01*
Y120570D02*
Y119620D01*
Y119330D02*
Y119310D01*
X285160Y120610D02*
Y121040D01*
Y120560D02*
Y119600D01*
Y119330D02*
Y119310D01*
X285150Y120610D02*
Y121040D01*
Y120540D02*
Y119580D01*
Y119330D02*
Y119310D01*
X285140Y120610D02*
Y121040D01*
Y120520D02*
Y119570D01*
Y119330D02*
Y119310D01*
X285130Y120610D02*
Y121040D01*
Y120510D02*
Y119550D01*
Y119330D02*
Y119310D01*
X285120Y120610D02*
Y121040D01*
Y120490D02*
Y119530D01*
Y119330D02*
Y119310D01*
X285110Y120610D02*
Y121040D01*
Y120470D02*
Y119520D01*
Y119330D02*
Y119310D01*
X285100Y120610D02*
Y121040D01*
Y120460D02*
Y119500D01*
Y119330D02*
Y119310D01*
X285090Y120610D02*
Y121040D01*
Y120440D02*
Y119480D01*
Y119330D02*
Y119310D01*
X285080Y120610D02*
Y121040D01*
Y120420D02*
Y119470D01*
Y119330D02*
Y119310D01*
X285070Y120610D02*
Y121040D01*
Y120410D02*
Y119450D01*
Y119330D02*
Y119310D01*
X285060Y120610D02*
Y121040D01*
Y120390D02*
Y119430D01*
Y119330D02*
Y119310D01*
X285050Y120610D02*
Y121040D01*
Y120370D02*
Y119420D01*
Y119330D02*
Y119310D01*
X285040Y120610D02*
Y121040D01*
Y120350D02*
Y119400D01*
Y119330D02*
Y119310D01*
X285030Y120610D02*
Y121040D01*
Y120340D02*
Y119380D01*
Y119330D02*
Y119310D01*
X285020Y120610D02*
Y121040D01*
Y120320D02*
Y119370D01*
Y119330D02*
Y119310D01*
X285010Y120610D02*
Y121040D01*
Y120300D02*
Y119350D01*
Y119330D02*
Y119310D01*
X285000Y120610D02*
Y121040D01*
Y120290D02*
Y119310D01*
X284990Y120610D02*
Y121040D01*
Y120270D02*
Y119310D01*
X284980Y120610D02*
Y121040D01*
Y120250D02*
Y119310D01*
X284970Y120610D02*
Y121040D01*
Y120240D02*
Y119310D01*
X284960Y120610D02*
Y121040D01*
Y120220D02*
Y119320D01*
X284950Y120610D02*
Y121040D01*
Y120240D02*
Y119340D01*
X284940Y120610D02*
Y121040D01*
Y120250D02*
Y120190D01*
Y120180D02*
Y119350D01*
X284930Y120610D02*
Y121040D01*
Y120270D02*
Y120210D01*
Y120160D02*
Y119370D01*
X284920Y120610D02*
Y121020D01*
Y120290D02*
Y120230D01*
Y120150D02*
Y119380D01*
X284910Y120610D02*
Y121010D01*
Y120300D02*
Y120240D01*
Y120130D02*
Y119390D01*
X284900Y120610D02*
Y120990D01*
Y120320D02*
Y120260D01*
Y120110D02*
Y119410D01*
X284890Y120610D02*
Y120970D01*
Y120330D02*
Y120280D01*
Y120100D02*
Y119420D01*
X284880Y120610D02*
Y120960D01*
Y120350D02*
Y120290D01*
Y120080D02*
Y119440D01*
X284870Y120610D02*
Y120940D01*
Y120370D02*
Y120310D01*
Y120070D02*
Y119450D01*
X284860Y120610D02*
Y120930D01*
Y120380D02*
Y120320D01*
Y120050D02*
Y119460D01*
X284850Y120610D02*
Y120910D01*
Y120400D02*
Y120340D01*
Y120030D02*
Y119480D01*
X284840Y120610D02*
Y120890D01*
Y120410D02*
Y120360D01*
Y120020D02*
Y119500D01*
X284830Y120610D02*
Y120880D01*
Y120430D02*
Y120370D01*
Y120000D02*
Y119510D01*
X284820Y120610D02*
Y120860D01*
Y120450D02*
Y120390D01*
Y119980D02*
Y119520D01*
X284810Y120610D02*
Y120840D01*
Y120460D02*
Y120400D01*
Y119970D02*
Y119540D01*
X284800Y120610D02*
Y120830D01*
Y120480D02*
Y120420D01*
Y119950D02*
Y119550D01*
X284790Y120610D02*
Y120810D01*
Y120500D02*
Y120440D01*
Y119930D02*
Y119570D01*
X284780Y120610D02*
Y120790D01*
Y120510D02*
Y120450D01*
Y119920D02*
Y119580D01*
X284770Y120610D02*
Y120780D01*
Y120530D02*
Y120470D01*
Y119900D02*
Y119600D01*
X284760Y120610D02*
Y120760D01*
Y120540D02*
Y120490D01*
Y119890D02*
Y119610D01*
X284750Y120610D02*
Y120740D01*
Y120560D02*
Y120500D01*
Y119870D02*
Y119630D01*
X284740Y120610D02*
Y120730D01*
Y120580D02*
Y120520D01*
Y119850D02*
Y119640D01*
X284730Y120610D02*
Y120710D01*
Y120590D02*
Y120530D01*
Y119840D02*
Y119660D01*
X284720Y120550D02*
Y120700D01*
Y119820D02*
Y119670D01*
X284710Y120570D02*
Y120680D01*
Y119800D02*
Y119680D01*
X284700Y120580D02*
Y120660D01*
Y119790D02*
Y119700D01*
X284690Y120600D02*
Y120650D01*
Y119770D02*
Y119710D01*
X284680Y120610D02*
Y120620D01*
Y119760D02*
Y119720D01*
X285330Y119880D02*
Y121040D01*
D12*
X280886Y117641D02*
X280853Y117674D01*
X280786D01*
X280753Y117641D01*
Y117508D01*
X280786Y117474D01*
X280853D01*
X280886Y117508D01*
X280953Y117474D02*
X281086D01*
X280953D02*
X281086Y117608D01*
Y117641D01*
X281053Y117674D01*
X280986D01*
X280953Y117641D01*
X275173Y120865D02*
X275107D01*
X275140D01*
Y120698D01*
X275107Y120665D01*
X275073D01*
X275040Y120698D01*
X275240Y120665D02*
X275307D01*
X275273D01*
Y120865D01*
X275274D01*
X275273D02*
X275240Y120831D01*
X278202Y120500D02*
Y120333D01*
X278236Y120300D01*
X278302D01*
X278336Y120333D01*
Y120500D01*
X278402Y120300D02*
X278469D01*
X278435D01*
Y120500D01*
X278436D01*
X278435D02*
X278402Y120467D01*
X277564Y121712D02*
X277531Y121745D01*
X277464D01*
X277431Y121712D01*
Y121578D01*
X277464Y121545D01*
X277531D01*
X277564Y121578D01*
X277631Y121745D02*
X277764D01*
Y121712D01*
X277631Y121578D01*
Y121545D01*
X278297Y122055D02*
X278330Y122022D01*
X278297Y122055D02*
X278230D01*
X278197Y122022D01*
Y121888D01*
X278230Y121855D01*
X278297D01*
X278330Y121888D01*
X278397D02*
X278430Y121855D01*
X278496D01*
X278530Y121888D01*
Y122022D01*
X278496Y122055D01*
X278430D01*
X278397Y122022D01*
Y121988D01*
X278430Y121955D01*
X278530D01*
X278305Y121745D02*
X278338Y121712D01*
X278305Y121745D02*
X278238D01*
X278205Y121712D01*
Y121578D01*
X278238Y121545D01*
X278305D01*
X278338Y121578D01*
X278405Y121712D02*
X278438Y121745D01*
X278505D01*
X278538Y121712D01*
Y121678D01*
X278505Y121645D01*
X278538Y121612D01*
Y121578D01*
X278505Y121545D01*
X278438D01*
X278405Y121578D01*
Y121612D01*
X278438Y121645D01*
X278405Y121678D01*
Y121712D01*
X278438Y121645D02*
X278505D01*
X279027Y121469D02*
X279227D01*
X279027D02*
Y121569D01*
X279061Y121602D01*
X279127D01*
X279161Y121569D01*
Y121469D01*
Y121536D02*
X279227Y121602D01*
Y121669D02*
Y121802D01*
Y121669D02*
X279094Y121802D01*
X279061D01*
X279027Y121769D01*
Y121702D01*
X279061Y121669D01*
X279420Y120270D02*
X279620D01*
Y120403D01*
Y120470D02*
Y120536D01*
Y120503D01*
X279420D01*
X279421D01*
X279420D02*
X279453Y120470D01*
X279850Y120545D02*
Y120745D01*
Y120545D02*
X279983D01*
X280050Y120712D02*
X280083Y120745D01*
X280150D01*
X280183Y120712D01*
Y120678D01*
X280184D01*
X280183D02*
X280184D01*
X280183D02*
X280184D01*
X280183D02*
X280150Y120645D01*
X280117D01*
X280150D01*
X280183Y120612D01*
Y120578D01*
X280150Y120545D01*
X280083D01*
X280050Y120578D01*
X281170Y120806D02*
X281203Y120839D01*
X281170Y120806D02*
Y120739D01*
X281203Y120706D01*
X281337D01*
X281370Y120739D01*
Y120806D01*
X281337Y120839D01*
X281203Y120972D02*
X281170Y121039D01*
X281203Y120972D02*
X281270Y120906D01*
X281337D01*
X281370Y120939D01*
Y121006D01*
X281337Y121039D01*
X281303D01*
X281270Y121006D01*
Y120906D01*
X280728Y120717D02*
X280695Y120750D01*
X280628D01*
X280595Y120717D01*
Y120583D01*
X280628Y120550D01*
X280695D01*
X280728Y120583D01*
X280795Y120750D02*
X280928D01*
X280795D02*
Y120650D01*
X280862Y120683D01*
X280895D01*
X280928Y120650D01*
Y120583D01*
X280895Y120550D01*
X280828D01*
X280795Y120583D01*
X280350Y119550D02*
X280383Y119517D01*
X280350Y119550D02*
X280283D01*
X280250Y119517D01*
Y119383D01*
X280283Y119350D01*
X280350D01*
X280383Y119383D01*
X280550Y119350D02*
Y119550D01*
X280450Y119450D01*
X280583D01*
X280400Y119854D02*
X280367Y119888D01*
X280300D01*
X280267Y119854D01*
Y119721D01*
X280300Y119688D01*
X280367D01*
X280400Y119721D01*
X280467Y119854D02*
X280500Y119888D01*
X280567D01*
X280600Y119854D01*
Y119821D01*
X280601D01*
X280600D02*
X280601D01*
X280600D02*
X280601D01*
X280600D02*
X280567Y119788D01*
X280534D01*
X280567D01*
X280600Y119754D01*
Y119721D01*
X280567Y119688D01*
X280500D01*
X280467Y119721D01*
X279932Y119847D02*
X279732D01*
X279932D02*
Y119980D01*
Y120047D02*
Y120180D01*
Y120047D02*
X279799Y120180D01*
X279766D01*
X279732Y120147D01*
Y120080D01*
X279766Y120047D01*
X278415Y119484D02*
Y119284D01*
Y119484D02*
X278515D01*
X278549Y119451D01*
Y119384D01*
X278515Y119351D01*
X278415D01*
X278482D02*
X278549Y119284D01*
X278615D02*
X278682D01*
X278649D01*
Y119484D01*
X278650D01*
X278649D02*
X278615Y119451D01*
X278319Y118166D02*
X278453Y117966D01*
X278319D02*
X278453Y118166D01*
X278519Y117966D02*
X278586D01*
X278553D01*
Y118166D01*
X278554D01*
X278553D02*
X278519Y118133D01*
X275729Y117624D02*
X275696Y117657D01*
X275629D01*
X275596Y117624D01*
Y117490D01*
X275629Y117457D01*
X275696D01*
X275729Y117490D01*
X275796Y117457D02*
X275862D01*
X275829D01*
Y117657D01*
X275830D01*
X275829D02*
X275796Y117624D01*
D13*
X280500Y119645D02*
X280780D01*
Y119925D02*
X280500D01*
X280330D02*
X280050D01*
Y119645D02*
X280330D01*
X280780D02*
Y119925D01*
X280050D02*
Y119645D01*
X277515Y121008D02*
Y121186D01*
Y120024D02*
Y119770D01*
X277769D01*
X278753D02*
X279007D01*
Y120024D01*
Y121008D02*
Y121262D01*
X278753D01*
X277769D02*
X277592D01*
X277515Y121186D01*
X278092Y122110D02*
X278372D01*
Y121830D02*
X278092D01*
X278542D02*
X278822D01*
Y122110D02*
X278542D01*
X278092D02*
Y121830D01*
X278822D02*
Y122110D01*
X278910Y119529D02*
Y119249D01*
X278180D02*
Y119529D01*
X278630D02*
X278910D01*
Y119249D02*
X278630D01*
X278460D02*
X278180D01*
Y119529D02*
X278460D01*
X280538Y117719D02*
X280818D01*
Y117439D02*
X280538D01*
X280988D02*
X281268D01*
Y117719D02*
X280988D01*
X280538D02*
Y117439D01*
X281268D02*
Y117719D01*
X275368Y117699D02*
Y117419D01*
X276098D02*
Y117699D01*
X275648Y117419D02*
X275368D01*
Y117699D02*
X275648D01*
X275818D02*
X276098D01*
Y117419D02*
X275818D01*
X278980Y121280D02*
Y121560D01*
X279260D02*
Y121280D01*
Y121730D02*
Y122010D01*
X278980D02*
Y121730D01*
Y121280D02*
X279260D01*
Y122010D02*
X278980D01*
X280400Y120780D02*
Y120500D01*
X279670D02*
Y120780D01*
X280120D02*
X280400D01*
Y120500D02*
X280120D01*
X279950D02*
X279670D01*
Y120780D02*
X279950D01*
X279710Y119920D02*
Y119640D01*
X279990D02*
Y119920D01*
Y120090D02*
Y120370D01*
X279710D02*
Y120090D01*
Y119640D02*
X279990D01*
Y120370D02*
X279710D01*
X279650Y120070D02*
X279370D01*
Y120800D02*
X279650D01*
Y120350D02*
Y120070D01*
X279370D02*
Y120350D01*
Y120520D02*
Y120800D01*
X279650D02*
Y120520D01*
X278370Y121780D02*
X278090D01*
Y121500D02*
X278370D01*
X278540D02*
X278820D01*
Y121780D02*
X278540D01*
X278090D02*
Y121500D01*
X278820D02*
Y121780D01*
X277310D02*
Y121500D01*
X278040D02*
Y121780D01*
X277590Y121500D02*
X277310D01*
Y121780D02*
X277590D01*
X277760D02*
X278040D01*
Y121500D02*
X277760D01*
X280485Y119305D02*
X280765D01*
Y119585D02*
X280485D01*
X280315D02*
X280035D01*
Y119305D02*
X280315Y119305D01*
X280765Y119305D02*
Y119585D01*
X280035D02*
Y119305D01*
X281140Y120495D02*
Y120775D01*
X281420D02*
Y120495D01*
Y120945D02*
Y121225D01*
X281140D02*
Y120945D01*
Y120495D02*
X281420D01*
Y121225D02*
X281140D01*
X280410Y120780D02*
Y120500D01*
X281140D02*
Y120780D01*
X280690Y120500D02*
X280410D01*
Y120780D02*
X280690D01*
X280860D02*
X281140D01*
Y120500D02*
X280860D01*
D17*
X283820Y122434D02*
X284220D01*
Y122406D02*
X283820D01*
X284134D02*
X284191Y122349D01*
X284220Y122263D01*
Y122206D01*
X284191Y122120D01*
X284134Y122092D01*
X283820D01*
X284191Y122149D02*
X284220Y122206D01*
X284191Y122149D02*
X284134Y122120D01*
X283820D01*
X284220Y122406D02*
Y122520D01*
X283820D02*
Y122320D01*
Y122206D02*
Y122006D01*
Y121843D02*
X284420D01*
Y121814D02*
X283820D01*
X284420Y121929D02*
Y121586D01*
X284391Y121500D01*
X284363Y121472D01*
X284306Y121443D01*
X284248D01*
X284191Y121472D01*
X284163Y121500D01*
X284134Y121586D01*
Y121814D01*
X284420Y121586D02*
X284391Y121529D01*
X284363Y121500D01*
X284306Y121472D01*
X284248D01*
X284191Y121500D01*
X284163Y121529D01*
X284134Y121586D01*
X283820Y121729D02*
Y121929D01*
X284134Y121672D02*
X284106Y121614D01*
X284077Y121586D01*
X283877Y121500D01*
X283849Y121472D01*
Y121443D01*
X283877Y121415D01*
X284049Y121586D02*
X284106Y121614D01*
X284049Y121586D02*
X283849Y121529D01*
X283820Y121500D01*
Y121443D01*
X283877Y121415D01*
X283906D01*
X283820Y121252D02*
X284420D01*
Y121223D02*
X283820D01*
X284020Y121052D02*
X284248D01*
X284420Y120880D02*
Y121337D01*
Y120880D02*
X284248D01*
X284420Y120909D01*
X284134Y121052D02*
Y121223D01*
X283820Y121137D02*
Y121337D01*
X284306Y120769D02*
X284277Y120740D01*
X284248Y120769D01*
X284277Y120798D01*
X284306D01*
X284363Y120769D01*
X284391Y120740D01*
X284420Y120655D01*
Y120540D01*
X284391Y120455D01*
X284363Y120426D01*
X284306Y120398D01*
X284248D01*
X284191Y120426D01*
X284134Y120512D01*
X284077Y120655D01*
X284049Y120712D01*
X283991Y120769D01*
X283906Y120798D01*
X283820D01*
X284391Y120483D02*
X284420Y120540D01*
X284391Y120483D02*
X284363Y120455D01*
X284306Y120426D01*
X284248D01*
X284191Y120455D01*
X284134Y120540D01*
X284077Y120655D01*
X283906Y120769D02*
X283877Y120798D01*
X283906Y120769D02*
Y120712D01*
X283849Y120569D01*
Y120483D01*
X283877Y120426D01*
X283906Y120398D01*
X283963D01*
X283820Y120569D02*
X283906Y120712D01*
X283820Y120569D02*
Y120455D01*
X283849Y120426D01*
X283906Y120398D01*
X283820Y120023D02*
X284363D01*
X283991Y119852D02*
Y120309D01*
X284420Y119995D01*
X283820D01*
Y119909D02*
Y120109D01*
Y119683D02*
X284420D01*
Y119655D02*
X283820D01*
X284420Y119569D02*
Y119769D01*
X283820D02*
Y119341D01*
X283991D01*
X283820Y119369D01*
X284391Y119169D02*
X284420Y119084D01*
X284391Y119169D02*
X284306Y119226D01*
X284163Y119255D01*
X284077D01*
X283934Y119226D01*
X283849Y119169D01*
X283820Y119084D01*
Y119026D01*
X283849Y118941D01*
X283934Y118884D01*
X284077Y118855D01*
X284163D01*
X284306Y118884D01*
X284391Y118941D01*
X284420Y119026D01*
Y119084D01*
X284391Y119141D01*
X284363Y119169D01*
X284306Y119198D01*
X284163Y119226D01*
X284077D01*
X283934Y119198D01*
X283877Y119169D01*
X283849Y119141D01*
X283820Y119084D01*
Y119026D02*
X283849Y118969D01*
X283877Y118941D01*
X283934Y118912D01*
X284077Y118884D01*
X284163D01*
X284306Y118912D01*
X284363Y118941D01*
X284391Y118969D01*
X284420Y119026D01*
X284306Y118767D02*
X284334Y118709D01*
X284420Y118624D01*
X283820D01*
Y118652D02*
X284391D01*
X283820Y118767D02*
Y118509D01*
Y118150D02*
X284334D01*
X284077Y118407D02*
Y117892D01*
D18*
X280411Y117639D02*
Y117284D01*
X276199D01*
Y117639D01*
Y118820D02*
Y119174D01*
X280411D01*
Y118820D01*
X274195Y118730D02*
Y122730D01*
X276195D02*
Y118730D01*
Y122730D02*
X274195D01*
X275195D02*
Y121730D01*
X274195D01*
Y118730D02*
X276195Y118730D01*
D02*
M02*
