*
*
G04 PADS 9.5 Build Number: 522968 generated Gerber (RS-274-X) file*
G04 PC Version=2.1*
*
%IN "PCB_ESP32-C3-MINI-1_V1."*%
*
%MOIN*%
*
%FSLAX35Y35*%
*
*
*
*
G04 PC Standard Apertures*
*
*
G04 Thermal Relief Aperture macro.*
%AMTER*
1,1,$1,0,0*
1,0,$1-$2,0,0*
21,0,$3,$4,0,0,45*
21,0,$3,$4,0,0,135*
%
*
*
G04 Annular Aperture macro.*
%AMANN*
1,1,$1,0,0*
1,0,$2,0,0*
%
*
*
G04 Odd Aperture macro.*
%AMODD*
1,1,$1,0,0*
1,0,$1-0.005,0,0*
%
*
*
G04 PC Custom Aperture Macros*
*
*
*
*
*
*
G04 PC Aperture Table*
*
%ADD010C,0.001*%
%ADD011R,0.02X0.02*%
%ADD012C,0.01*%
%ADD024C,0.005*%
%ADD025C,0.006*%
%ADD027C,0.01102*%
%ADD030C,0.01575*%
%ADD031C,0.00394*%
%ADD054C,0.008*%
%ADD055C,0.004*%
%ADD056C,0.012*%
%ADD146C,0.009*%
%ADD204C,0.00394*%
%ADD269C,0.018*%
%ADD296R,0.01181X0.01575*%
%ADD301R,0.01575X0.01181*%
%ADD308R,0.02756X0.01575*%
%ADD310C,0.01575*%
%ADD335C,0.0126*%
*
*
*
*
G04 PC Circuitry*
G04 Layer Name PCB_ESP32-C3-MINI-1_V1. - circuitry*
%LPD*%
*
*
G04 PC Custom Flashes*
G04 Layer Name PCB_ESP32-C3-MINI-1_V1. - flashes*
%LPD*%
*
*
G04 PC Circuitry*
G04 Layer Name PCB_ESP32-C3-MINI-1_V1. - circuitry*
%LPD*%
*
G54D10*
G01X1989298Y1597305D02*
X1986724Y1594731D01*
X1989298Y1592157*
X1991872Y1594731*
X1989298Y1597305*
X1989252Y1592203D02*
X1989344D01*
X1989152Y1592303D02*
X1989444D01*
X1989052Y1592403D02*
X1989544D01*
X1988952Y1592503D02*
X1989644D01*
X1988852Y1592603D02*
X1989744D01*
X1988752Y1592703D02*
X1989844D01*
X1988652Y1592803D02*
X1989944D01*
X1988552Y1592903D02*
X1990044D01*
X1988452Y1593003D02*
X1990144D01*
X1988352Y1593103D02*
X1990244D01*
X1988252Y1593203D02*
X1990344D01*
X1988152Y1593303D02*
X1990444D01*
X1988052Y1593403D02*
X1990544D01*
X1987952Y1593503D02*
X1990644D01*
X1987852Y1593603D02*
X1990744D01*
X1987752Y1593703D02*
X1990844D01*
X1987652Y1593803D02*
X1990944D01*
X1987552Y1593903D02*
X1991044D01*
X1987452Y1594003D02*
X1991144D01*
X1987352Y1594103D02*
X1991244D01*
X1987252Y1594203D02*
X1991344D01*
X1987152Y1594303D02*
X1991444D01*
X1987052Y1594403D02*
X1991544D01*
X1986952Y1594503D02*
X1991644D01*
X1986852Y1594603D02*
X1991744D01*
X1986752Y1594703D02*
X1991844D01*
X1986796Y1594803D02*
X1991800D01*
X1986896Y1594903D02*
X1991700D01*
X1986996Y1595003D02*
X1991600D01*
X1987096Y1595103D02*
X1991500D01*
X1987196Y1595203D02*
X1991400D01*
X1987296Y1595303D02*
X1991300D01*
X1987396Y1595403D02*
X1991200D01*
X1987496Y1595503D02*
X1991100D01*
X1987596Y1595603D02*
X1991000D01*
X1987696Y1595703D02*
X1990900D01*
X1987796Y1595803D02*
X1990800D01*
X1987896Y1595903D02*
X1990700D01*
X1987996Y1596003D02*
X1990600D01*
X1988096Y1596103D02*
X1990500D01*
X1988196Y1596203D02*
X1990400D01*
X1988296Y1596303D02*
X1990300D01*
X1988396Y1596403D02*
X1990200D01*
X1988496Y1596503D02*
X1990100D01*
X1988596Y1596603D02*
X1990000D01*
X1988696Y1596703D02*
X1989900D01*
X1988796Y1596803D02*
X1989800D01*
X1988896Y1596903D02*
X1989700D01*
X1988996Y1597003D02*
X1989600D01*
X1989096Y1597103D02*
X1989500D01*
X1989196Y1597203D02*
X1989400D01*
X1989296Y1597303D02*
X1989300D01*
X1986804Y1594651D02*
Y1594811D01*
X1986904Y1594551D02*
Y1594911D01*
X1987004Y1594451D02*
Y1595011D01*
X1987104Y1594351D02*
Y1595111D01*
X1987204Y1594251D02*
Y1595211D01*
X1987304Y1594151D02*
Y1595311D01*
X1987404Y1594051D02*
Y1595411D01*
X1987504Y1593951D02*
Y1595511D01*
X1987604Y1593851D02*
Y1595611D01*
X1987704Y1593751D02*
Y1595711D01*
X1987804Y1593651D02*
Y1595811D01*
X1987904Y1593551D02*
Y1595911D01*
X1988004Y1593451D02*
Y1596011D01*
X1988104Y1593351D02*
Y1596111D01*
X1988204Y1593251D02*
Y1596211D01*
X1988304Y1593151D02*
Y1596311D01*
X1988404Y1593051D02*
Y1596411D01*
X1988504Y1592951D02*
Y1596511D01*
X1988604Y1592851D02*
Y1596611D01*
X1988704Y1592751D02*
Y1596711D01*
X1988804Y1592651D02*
Y1596811D01*
X1988904Y1592551D02*
Y1596911D01*
X1989004Y1592451D02*
Y1597011D01*
X1989104Y1592351D02*
Y1597111D01*
X1989204Y1592251D02*
Y1597211D01*
X1989304Y1592163D02*
Y1597299D01*
X1989404Y1592263D02*
Y1597199D01*
X1989504Y1592363D02*
Y1597099D01*
X1989604Y1592463D02*
Y1596999D01*
X1989704Y1592563D02*
Y1596899D01*
X1989804Y1592663D02*
Y1596799D01*
X1989904Y1592763D02*
Y1596699D01*
X1990004Y1592863D02*
Y1596599D01*
X1990104Y1592963D02*
Y1596499D01*
X1990204Y1593063D02*
Y1596399D01*
X1990304Y1593163D02*
Y1596299D01*
X1990404Y1593263D02*
Y1596199D01*
X1990504Y1593363D02*
Y1596099D01*
X1990604Y1593463D02*
Y1595999D01*
X1990704Y1593563D02*
Y1595899D01*
X1990804Y1593663D02*
Y1595799D01*
X1990904Y1593763D02*
Y1595699D01*
X1991004Y1593863D02*
Y1595599D01*
X1991104Y1593963D02*
Y1595499D01*
X1991204Y1594063D02*
Y1595399D01*
X1991304Y1594163D02*
Y1595299D01*
X1991404Y1594263D02*
Y1595199D01*
X1991504Y1594363D02*
Y1595099D01*
X1991604Y1594463D02*
Y1594999D01*
X1991704Y1594563D02*
Y1594899D01*
X1991804Y1594663D02*
Y1594799D01*
X2004347Y1606295D02*
X2002748Y1607895D01*
X2001426Y1606574*
X2003026Y1604974*
X2004347Y1606295*
X2002997Y1605003D02*
X2003055D01*
X2002897Y1605103D02*
X2003155D01*
X2002797Y1605203D02*
X2003255D01*
X2002697Y1605303D02*
X2003355D01*
X2002597Y1605403D02*
X2003455D01*
X2002497Y1605503D02*
X2003555D01*
X2002397Y1605603D02*
X2003655D01*
X2002297Y1605703D02*
X2003755D01*
X2002197Y1605803D02*
X2003855D01*
X2002097Y1605903D02*
X2003955D01*
X2001997Y1606003D02*
X2004055D01*
X2001897Y1606103D02*
X2004155D01*
X2001797Y1606203D02*
X2004255D01*
X2001697Y1606303D02*
X2004340D01*
X2001597Y1606403D02*
X2004240D01*
X2001497Y1606503D02*
X2004140D01*
X2001456Y1606603D02*
X2004040D01*
X2001556Y1606703D02*
X2003940D01*
X2001656Y1606803D02*
X2003840D01*
X2001756Y1606903D02*
X2003740D01*
X2001856Y1607003D02*
X2003640D01*
X2001956Y1607103D02*
X2003540D01*
X2002056Y1607203D02*
X2003440D01*
X2002156Y1607303D02*
X2003340D01*
X2002256Y1607403D02*
X2003240D01*
X2002356Y1607503D02*
X2003140D01*
X2002456Y1607603D02*
X2003040D01*
X2002556Y1607703D02*
X2002940D01*
X2002656Y1607803D02*
X2002840D01*
X2001504Y1606496D02*
Y1606651D01*
X2001604Y1606396D02*
Y1606751D01*
X2001704Y1606296D02*
Y1606851D01*
X2001804Y1606196D02*
Y1606951D01*
X2001904Y1606096D02*
Y1607051D01*
X2002004Y1605996D02*
Y1607151D01*
X2002104Y1605896D02*
Y1607251D01*
X2002204Y1605796D02*
Y1607351D01*
X2002304Y1605696D02*
Y1607451D01*
X2002404Y1605596D02*
Y1607551D01*
X2002504Y1605496D02*
Y1607651D01*
X2002604Y1605396D02*
Y1607751D01*
X2002704Y1605296D02*
Y1607851D01*
X2002804Y1605196D02*
Y1607839D01*
X2002904Y1605096D02*
Y1607739D01*
X2003004Y1604996D02*
Y1607639D01*
X2003104Y1605052D02*
Y1607539D01*
X2003204Y1605152D02*
Y1607439D01*
X2003304Y1605252D02*
Y1607339D01*
X2003404Y1605352D02*
Y1607239D01*
X2003504Y1605452D02*
Y1607139D01*
X2003604Y1605552D02*
Y1607039D01*
X2003704Y1605652D02*
Y1606939D01*
X2003804Y1605752D02*
Y1606839D01*
X2003904Y1605852D02*
Y1606739D01*
X2004004Y1605952D02*
Y1606639D01*
X2004104Y1606052D02*
Y1606539D01*
X2004204Y1606152D02*
Y1606439D01*
X2004304Y1606252D02*
Y1606339D01*
X2010750Y1601284D02*
X2007759Y1604276D01*
X2005046Y1601563*
X2008037Y1598571*
X2010750Y1601284*
X2008005Y1598603D02*
X2008069D01*
X2007905Y1598703D02*
X2008169D01*
X2007805Y1598803D02*
X2008269D01*
X2007705Y1598903D02*
X2008369D01*
X2007605Y1599003D02*
X2008469D01*
X2007505Y1599103D02*
X2008569D01*
X2007405Y1599203D02*
X2008669D01*
X2007305Y1599303D02*
X2008769D01*
X2007205Y1599403D02*
X2008869D01*
X2007105Y1599503D02*
X2008969D01*
X2007005Y1599603D02*
X2009069D01*
X2006905Y1599703D02*
X2009169D01*
X2006805Y1599803D02*
X2009269D01*
X2006705Y1599903D02*
X2009369D01*
X2006605Y1600003D02*
X2009469D01*
X2006505Y1600103D02*
X2009569D01*
X2006405Y1600203D02*
X2009669D01*
X2006305Y1600303D02*
X2009769D01*
X2006205Y1600403D02*
X2009869D01*
X2006105Y1600503D02*
X2009969D01*
X2006005Y1600603D02*
X2010069D01*
X2005905Y1600703D02*
X2010169D01*
X2005805Y1600803D02*
X2010269D01*
X2005705Y1600903D02*
X2010369D01*
X2005605Y1601003D02*
X2010469D01*
X2005505Y1601103D02*
X2010569D01*
X2005405Y1601203D02*
X2010669D01*
X2005305Y1601303D02*
X2010732D01*
X2005205Y1601403D02*
X2010632D01*
X2005105Y1601503D02*
X2010532D01*
X2005086Y1601603D02*
X2010432D01*
X2005186Y1601703D02*
X2010332D01*
X2005286Y1601803D02*
X2010232D01*
X2005386Y1601903D02*
X2010132D01*
X2005486Y1602003D02*
X2010032D01*
X2005586Y1602103D02*
X2009932D01*
X2005686Y1602203D02*
X2009832D01*
X2005786Y1602303D02*
X2009732D01*
X2005886Y1602403D02*
X2009632D01*
X2005986Y1602503D02*
X2009532D01*
X2006086Y1602603D02*
X2009432D01*
X2006186Y1602703D02*
X2009332D01*
X2006286Y1602803D02*
X2009232D01*
X2006386Y1602903D02*
X2009132D01*
X2006486Y1603003D02*
X2009032D01*
X2006586Y1603103D02*
X2008932D01*
X2006686Y1603203D02*
X2008832D01*
X2006786Y1603303D02*
X2008732D01*
X2006886Y1603403D02*
X2008632D01*
X2006986Y1603503D02*
X2008532D01*
X2007086Y1603603D02*
X2008432D01*
X2007186Y1603703D02*
X2008332D01*
X2007286Y1603803D02*
X2008232D01*
X2007386Y1603903D02*
X2008132D01*
X2007486Y1604003D02*
X2008032D01*
X2007586Y1604103D02*
X2007932D01*
X2007686Y1604203D02*
X2007832D01*
X2005104Y1601504D02*
Y1601621D01*
X2005204Y1601404D02*
Y1601721D01*
X2005304Y1601304D02*
Y1601821D01*
X2005404Y1601204D02*
Y1601921D01*
X2005504Y1601104D02*
Y1602021D01*
X2005604Y1601004D02*
Y1602121D01*
X2005704Y1600904D02*
Y1602221D01*
X2005804Y1600804D02*
Y1602321D01*
X2005904Y1600704D02*
Y1602421D01*
X2006004Y1600604D02*
Y1602521D01*
X2006104Y1600504D02*
Y1602621D01*
X2006204Y1600404D02*
Y1602721D01*
X2006304Y1600304D02*
Y1602821D01*
X2006404Y1600204D02*
Y1602921D01*
X2006504Y1600104D02*
Y1603021D01*
X2006604Y1600004D02*
Y1603121D01*
X2006704Y1599904D02*
Y1603221D01*
X2006804Y1599804D02*
Y1603321D01*
X2006904Y1599704D02*
Y1603421D01*
X2007004Y1599604D02*
Y1603521D01*
X2007104Y1599504D02*
Y1603621D01*
X2007204Y1599404D02*
Y1603721D01*
X2007304Y1599304D02*
Y1603821D01*
X2007404Y1599204D02*
Y1603921D01*
X2007504Y1599104D02*
Y1604021D01*
X2007604Y1599004D02*
Y1604121D01*
X2007704Y1598904D02*
Y1604221D01*
X2007804Y1598804D02*
Y1604231D01*
X2007904Y1598704D02*
Y1604131D01*
X2008004Y1598604D02*
Y1604031D01*
X2008104Y1598638D02*
Y1603931D01*
X2008204Y1598738D02*
Y1603831D01*
X2008304Y1598838D02*
Y1603731D01*
X2008404Y1598938D02*
Y1603631D01*
X2008504Y1599038D02*
Y1603531D01*
X2008604Y1599138D02*
Y1603431D01*
X2008704Y1599238D02*
Y1603331D01*
X2008804Y1599338D02*
Y1603231D01*
X2008904Y1599438D02*
Y1603131D01*
X2009004Y1599538D02*
Y1603031D01*
X2009104Y1599638D02*
Y1602931D01*
X2009204Y1599738D02*
Y1602831D01*
X2009304Y1599838D02*
Y1602731D01*
X2009404Y1599938D02*
Y1602631D01*
X2009504Y1600038D02*
Y1602531D01*
X2009604Y1600138D02*
Y1602431D01*
X2009704Y1600238D02*
Y1602331D01*
X2009804Y1600338D02*
Y1602231D01*
X2009904Y1600438D02*
Y1602131D01*
X2010004Y1600538D02*
Y1602031D01*
X2010104Y1600638D02*
Y1601931D01*
X2010204Y1600738D02*
Y1601831D01*
X2010304Y1600838D02*
Y1601731D01*
X2010404Y1600938D02*
Y1601631D01*
X2010504Y1601038D02*
Y1601531D01*
X2010604Y1601138D02*
Y1601431D01*
X2010704Y1601238D02*
Y1601331D01*
X2014926Y1605460D02*
X2011935Y1608452D01*
X2009221Y1605739*
X2012213Y1602747*
X2014926Y1605460*
X2012157Y1602803D02*
X2012269D01*
X2012057Y1602903D02*
X2012369D01*
X2011957Y1603003D02*
X2012469D01*
X2011857Y1603103D02*
X2012569D01*
X2011757Y1603203D02*
X2012669D01*
X2011657Y1603303D02*
X2012769D01*
X2011557Y1603403D02*
X2012869D01*
X2011457Y1603503D02*
X2012969D01*
X2011357Y1603603D02*
X2013069D01*
X2011257Y1603703D02*
X2013169D01*
X2011157Y1603803D02*
X2013269D01*
X2011057Y1603903D02*
X2013369D01*
X2010957Y1604003D02*
X2013469D01*
X2010857Y1604103D02*
X2013569D01*
X2010757Y1604203D02*
X2013669D01*
X2010657Y1604303D02*
X2013769D01*
X2010557Y1604403D02*
X2013869D01*
X2010457Y1604503D02*
X2013969D01*
X2010357Y1604603D02*
X2014069D01*
X2010257Y1604703D02*
X2014169D01*
X2010157Y1604803D02*
X2014269D01*
X2010057Y1604903D02*
X2014369D01*
X2009957Y1605003D02*
X2014469D01*
X2009857Y1605103D02*
X2014569D01*
X2009757Y1605203D02*
X2014669D01*
X2009657Y1605303D02*
X2014769D01*
X2009557Y1605403D02*
X2014869D01*
X2009457Y1605503D02*
X2014883D01*
X2009357Y1605603D02*
X2014783D01*
X2009257Y1605703D02*
X2014683D01*
X2009286Y1605803D02*
X2014583D01*
X2009386Y1605903D02*
X2014483D01*
X2009486Y1606003D02*
X2014383D01*
X2009586Y1606103D02*
X2014283D01*
X2009686Y1606203D02*
X2014183D01*
X2009786Y1606303D02*
X2014083D01*
X2009886Y1606403D02*
X2013983D01*
X2009986Y1606503D02*
X2013883D01*
X2010086Y1606603D02*
X2013783D01*
X2010186Y1606703D02*
X2013683D01*
X2010286Y1606803D02*
X2013583D01*
X2010386Y1606903D02*
X2013483D01*
X2010486Y1607003D02*
X2013383D01*
X2010586Y1607103D02*
X2013283D01*
X2010686Y1607203D02*
X2013183D01*
X2010786Y1607303D02*
X2013083D01*
X2010886Y1607403D02*
X2012983D01*
X2010986Y1607503D02*
X2012883D01*
X2011086Y1607603D02*
X2012783D01*
X2011186Y1607703D02*
X2012683D01*
X2011286Y1607803D02*
X2012583D01*
X2011386Y1607903D02*
X2012483D01*
X2011486Y1608003D02*
X2012383D01*
X2011586Y1608103D02*
X2012283D01*
X2011686Y1608203D02*
X2012183D01*
X2011786Y1608303D02*
X2012083D01*
X2011886Y1608403D02*
X2011983D01*
X2009304Y1605656D02*
Y1605821D01*
X2009404Y1605556D02*
Y1605921D01*
X2009504Y1605456D02*
Y1606021D01*
X2009604Y1605356D02*
Y1606121D01*
X2009704Y1605256D02*
Y1606221D01*
X2009804Y1605156D02*
Y1606321D01*
X2009904Y1605056D02*
Y1606421D01*
X2010004Y1604956D02*
Y1606521D01*
X2010104Y1604856D02*
Y1606621D01*
X2010204Y1604756D02*
Y1606721D01*
X2010304Y1604656D02*
Y1606821D01*
X2010404Y1604556D02*
Y1606921D01*
X2010504Y1604456D02*
Y1607021D01*
X2010604Y1604356D02*
Y1607121D01*
X2010704Y1604256D02*
Y1607221D01*
X2010804Y1604156D02*
Y1607321D01*
X2010904Y1604056D02*
Y1607421D01*
X2011004Y1603956D02*
Y1607521D01*
X2011104Y1603856D02*
Y1607621D01*
X2011204Y1603756D02*
Y1607721D01*
X2011304Y1603656D02*
Y1607821D01*
X2011404Y1603556D02*
Y1607921D01*
X2011504Y1603456D02*
Y1608021D01*
X2011604Y1603356D02*
Y1608121D01*
X2011704Y1603256D02*
Y1608221D01*
X2011804Y1603156D02*
Y1608321D01*
X2011904Y1603056D02*
Y1608421D01*
X2012004Y1602956D02*
Y1608382D01*
X2012104Y1602856D02*
Y1608282D01*
X2012204Y1602756D02*
Y1608182D01*
X2012304Y1602838D02*
Y1608082D01*
X2012404Y1602938D02*
Y1607982D01*
X2012504Y1603038D02*
Y1607882D01*
X2012604Y1603138D02*
Y1607782D01*
X2012704Y1603238D02*
Y1607682D01*
X2012804Y1603338D02*
Y1607582D01*
X2012904Y1603438D02*
Y1607482D01*
X2013004Y1603538D02*
Y1607382D01*
X2013104Y1603638D02*
Y1607282D01*
X2013204Y1603738D02*
Y1607182D01*
X2013304Y1603838D02*
Y1607082D01*
X2013404Y1603938D02*
Y1606982D01*
X2013504Y1604038D02*
Y1606882D01*
X2013604Y1604138D02*
Y1606782D01*
X2013704Y1604238D02*
Y1606682D01*
X2013804Y1604338D02*
Y1606582D01*
X2013904Y1604438D02*
Y1606482D01*
X2014004Y1604538D02*
Y1606382D01*
X2014104Y1604638D02*
Y1606282D01*
X2014204Y1604738D02*
Y1606182D01*
X2014304Y1604838D02*
Y1606082D01*
X2014404Y1604938D02*
Y1605982D01*
X2014504Y1605038D02*
Y1605882D01*
X2014604Y1605138D02*
Y1605782D01*
X2014704Y1605238D02*
Y1605682D01*
X2014804Y1605338D02*
Y1605582D01*
X2014904Y1605438D02*
Y1605482D01*
X2009915Y1610471D02*
X2006924Y1613463D01*
X2004210Y1610750*
X2007202Y1607758*
X2009915Y1610471*
X2007157Y1607803D02*
X2007247D01*
X2007057Y1607903D02*
X2007347D01*
X2006957Y1608003D02*
X2007447D01*
X2006857Y1608103D02*
X2007547D01*
X2006757Y1608203D02*
X2007647D01*
X2006657Y1608303D02*
X2007747D01*
X2006557Y1608403D02*
X2007847D01*
X2006457Y1608503D02*
X2007947D01*
X2006357Y1608603D02*
X2008047D01*
X2006257Y1608703D02*
X2008147D01*
X2006157Y1608803D02*
X2008247D01*
X2006057Y1608903D02*
X2008347D01*
X2005957Y1609003D02*
X2008447D01*
X2005857Y1609103D02*
X2008547D01*
X2005757Y1609203D02*
X2008647D01*
X2005657Y1609303D02*
X2008747D01*
X2005557Y1609403D02*
X2008847D01*
X2005457Y1609503D02*
X2008947D01*
X2005357Y1609603D02*
X2009047D01*
X2005257Y1609703D02*
X2009147D01*
X2005157Y1609803D02*
X2009247D01*
X2005057Y1609903D02*
X2009347D01*
X2004957Y1610003D02*
X2009447D01*
X2004857Y1610103D02*
X2009547D01*
X2004757Y1610203D02*
X2009647D01*
X2004657Y1610303D02*
X2009747D01*
X2004557Y1610403D02*
X2009847D01*
X2004457Y1610503D02*
X2009883D01*
X2004357Y1610603D02*
X2009783D01*
X2004257Y1610703D02*
X2009683D01*
X2004264Y1610803D02*
X2009583D01*
X2004364Y1610903D02*
X2009483D01*
X2004464Y1611003D02*
X2009383D01*
X2004564Y1611103D02*
X2009283D01*
X2004664Y1611203D02*
X2009183D01*
X2004764Y1611303D02*
X2009083D01*
X2004864Y1611403D02*
X2008983D01*
X2004964Y1611503D02*
X2008883D01*
X2005064Y1611603D02*
X2008783D01*
X2005164Y1611703D02*
X2008683D01*
X2005264Y1611803D02*
X2008583D01*
X2005364Y1611903D02*
X2008483D01*
X2005464Y1612003D02*
X2008383D01*
X2005564Y1612103D02*
X2008283D01*
X2005664Y1612203D02*
X2008183D01*
X2005764Y1612303D02*
X2008083D01*
X2005864Y1612403D02*
X2007983D01*
X2005964Y1612503D02*
X2007883D01*
X2006064Y1612603D02*
X2007783D01*
X2006164Y1612703D02*
X2007683D01*
X2006264Y1612803D02*
X2007583D01*
X2006364Y1612903D02*
X2007483D01*
X2006464Y1613003D02*
X2007383D01*
X2006564Y1613103D02*
X2007283D01*
X2006664Y1613203D02*
X2007183D01*
X2006764Y1613303D02*
X2007083D01*
X2006864Y1613403D02*
X2006983D01*
X2004304Y1610656D02*
Y1610843D01*
X2004404Y1610556D02*
Y1610943D01*
X2004504Y1610456D02*
Y1611043D01*
X2004604Y1610356D02*
Y1611143D01*
X2004704Y1610256D02*
Y1611243D01*
X2004804Y1610156D02*
Y1611343D01*
X2004904Y1610056D02*
Y1611443D01*
X2005004Y1609956D02*
Y1611543D01*
X2005104Y1609856D02*
Y1611643D01*
X2005204Y1609756D02*
Y1611743D01*
X2005304Y1609656D02*
Y1611843D01*
X2005404Y1609556D02*
Y1611943D01*
X2005504Y1609456D02*
Y1612043D01*
X2005604Y1609356D02*
Y1612143D01*
X2005704Y1609256D02*
Y1612243D01*
X2005804Y1609156D02*
Y1612343D01*
X2005904Y1609056D02*
Y1612443D01*
X2006004Y1608956D02*
Y1612543D01*
X2006104Y1608856D02*
Y1612643D01*
X2006204Y1608756D02*
Y1612743D01*
X2006304Y1608656D02*
Y1612843D01*
X2006404Y1608556D02*
Y1612943D01*
X2006504Y1608456D02*
Y1613043D01*
X2006604Y1608356D02*
Y1613143D01*
X2006704Y1608256D02*
Y1613243D01*
X2006804Y1608156D02*
Y1613343D01*
X2006904Y1608056D02*
Y1613443D01*
X2007004Y1607956D02*
Y1613382D01*
X2007104Y1607856D02*
Y1613282D01*
X2007204Y1607760D02*
Y1613182D01*
X2007304Y1607860D02*
Y1613082D01*
X2007404Y1607960D02*
Y1612982D01*
X2007504Y1608060D02*
Y1612882D01*
X2007604Y1608160D02*
Y1612782D01*
X2007704Y1608260D02*
Y1612682D01*
X2007804Y1608360D02*
Y1612582D01*
X2007904Y1608460D02*
Y1612482D01*
X2008004Y1608560D02*
Y1612382D01*
X2008104Y1608660D02*
Y1612282D01*
X2008204Y1608760D02*
Y1612182D01*
X2008304Y1608860D02*
Y1612082D01*
X2008404Y1608960D02*
Y1611982D01*
X2008504Y1609060D02*
Y1611882D01*
X2008604Y1609160D02*
Y1611782D01*
X2008704Y1609260D02*
Y1611682D01*
X2008804Y1609360D02*
Y1611582D01*
X2008904Y1609460D02*
Y1611482D01*
X2009004Y1609560D02*
Y1611382D01*
X2009104Y1609660D02*
Y1611282D01*
X2009204Y1609760D02*
Y1611182D01*
X2009304Y1609860D02*
Y1611082D01*
X2009404Y1609960D02*
Y1610982D01*
X2009504Y1610060D02*
Y1610882D01*
X2009604Y1610160D02*
Y1610782D01*
X2009704Y1610260D02*
Y1610682D01*
X2009804Y1610360D02*
Y1610582D01*
X2009904Y1610460D02*
Y1610482D01*
X1984880Y1609984D02*
X1985923Y1611027D01*
X1985159Y1611791*
X1984116Y1610748*
X1984880Y1609984*
X1984861Y1610003D02*
X1984900D01*
X1984761Y1610103D02*
X1985000D01*
X1984661Y1610203D02*
X1985100D01*
X1984561Y1610303D02*
X1985200D01*
X1984461Y1610403D02*
X1985300D01*
X1984361Y1610503D02*
X1985400D01*
X1984261Y1610603D02*
X1985500D01*
X1984161Y1610703D02*
X1985600D01*
X1984171Y1610803D02*
X1985700D01*
X1984271Y1610903D02*
X1985800D01*
X1984371Y1611003D02*
X1985900D01*
X1984471Y1611103D02*
X1985847D01*
X1984571Y1611203D02*
X1985747D01*
X1984671Y1611303D02*
X1985647D01*
X1984771Y1611403D02*
X1985547D01*
X1984871Y1611503D02*
X1985447D01*
X1984971Y1611603D02*
X1985347D01*
X1985071Y1611703D02*
X1985247D01*
X1984204Y1610660D02*
Y1610836D01*
X1984304Y1610560D02*
Y1610936D01*
X1984404Y1610460D02*
Y1611036D01*
X1984504Y1610360D02*
Y1611136D01*
X1984604Y1610260D02*
Y1611236D01*
X1984704Y1610160D02*
Y1611336D01*
X1984804Y1610060D02*
Y1611436D01*
X1984904Y1610008D02*
Y1611536D01*
X1985004Y1610108D02*
Y1611636D01*
X1985104Y1610208D02*
Y1611736D01*
X1985204Y1610308D02*
Y1611746D01*
X1985304Y1610408D02*
Y1611646D01*
X1985404Y1610508D02*
Y1611546D01*
X1985504Y1610608D02*
Y1611446D01*
X1985604Y1610708D02*
Y1611346D01*
X1985704Y1610808D02*
Y1611246D01*
X1985804Y1610908D02*
Y1611146D01*
X1985904Y1611008D02*
Y1611046D01*
X1983349Y1611515D02*
X1984392Y1612558D01*
X1983628Y1613322*
X1982585Y1612280*
X1983349Y1611515*
X1983261Y1611603D02*
X1983437D01*
X1983161Y1611703D02*
X1983537D01*
X1983061Y1611803D02*
X1983637D01*
X1982961Y1611903D02*
X1983737D01*
X1982861Y1612003D02*
X1983837D01*
X1982761Y1612103D02*
X1983937D01*
X1982661Y1612203D02*
X1984037D01*
X1982608Y1612303D02*
X1984137D01*
X1982708Y1612403D02*
X1984237D01*
X1982808Y1612503D02*
X1984337D01*
X1982908Y1612603D02*
X1984347D01*
X1983008Y1612703D02*
X1984247D01*
X1983108Y1612803D02*
X1984147D01*
X1983208Y1612903D02*
X1984047D01*
X1983308Y1613003D02*
X1983947D01*
X1983408Y1613103D02*
X1983847D01*
X1983508Y1613203D02*
X1983747D01*
X1983608Y1613303D02*
X1983647D01*
X1982604Y1612260D02*
Y1612299D01*
X1982704Y1612160D02*
Y1612399D01*
X1982804Y1612060D02*
Y1612499D01*
X1982904Y1611960D02*
Y1612599D01*
X1983004Y1611860D02*
Y1612699D01*
X1983104Y1611760D02*
Y1612799D01*
X1983204Y1611660D02*
Y1612899D01*
X1983304Y1611560D02*
Y1612999D01*
X1983404Y1611570D02*
Y1613099D01*
X1983504Y1611670D02*
Y1613199D01*
X1983604Y1611770D02*
Y1613299D01*
X1983704Y1611870D02*
Y1613246D01*
X1983804Y1611970D02*
Y1613146D01*
X1983904Y1612070D02*
Y1613046D01*
X1984004Y1612170D02*
Y1612946D01*
X1984104Y1612270D02*
Y1612846D01*
X1984204Y1612370D02*
Y1612746D01*
X1984304Y1612470D02*
Y1612646D01*
X1984373Y1615330D02*
X1983330Y1616372D01*
X1982566Y1615608*
X1983609Y1614565*
X1984373Y1615330*
X1983571Y1614603D02*
X1983647D01*
X1983471Y1614703D02*
X1983747D01*
X1983371Y1614803D02*
X1983847D01*
X1983271Y1614903D02*
X1983947D01*
X1983171Y1615003D02*
X1984047D01*
X1983071Y1615103D02*
X1984147D01*
X1982971Y1615203D02*
X1984247D01*
X1982871Y1615303D02*
X1984347D01*
X1982771Y1615403D02*
X1984300D01*
X1982671Y1615503D02*
X1984200D01*
X1982571Y1615603D02*
X1984100D01*
X1982661Y1615703D02*
X1984000D01*
X1982761Y1615803D02*
X1983900D01*
X1982861Y1615903D02*
X1983800D01*
X1982961Y1616003D02*
X1983700D01*
X1983061Y1616103D02*
X1983600D01*
X1983161Y1616203D02*
X1983500D01*
X1983261Y1616303D02*
X1983400D01*
X1982604Y1615570D02*
Y1615646D01*
X1982704Y1615470D02*
Y1615746D01*
X1982804Y1615370D02*
Y1615846D01*
X1982904Y1615270D02*
Y1615946D01*
X1983004Y1615170D02*
Y1616046D01*
X1983104Y1615070D02*
Y1616146D01*
X1983204Y1614970D02*
Y1616246D01*
X1983304Y1614870D02*
Y1616346D01*
X1983404Y1614770D02*
Y1616299D01*
X1983504Y1614670D02*
Y1616199D01*
X1983604Y1614570D02*
Y1616099D01*
X1983704Y1614660D02*
Y1615999D01*
X1983804Y1614760D02*
Y1615899D01*
X1983904Y1614860D02*
Y1615799D01*
X1984004Y1614960D02*
Y1615699D01*
X1984104Y1615060D02*
Y1615599D01*
X1984204Y1615160D02*
Y1615499D01*
X1984304Y1615260D02*
Y1615399D01*
X1982842Y1613798D02*
X1981799Y1614841D01*
X1981035Y1614077*
X1982078Y1613034*
X1982842Y1613798*
X1982008Y1613103D02*
X1982147D01*
X1981908Y1613203D02*
X1982247D01*
X1981808Y1613303D02*
X1982347D01*
X1981708Y1613403D02*
X1982447D01*
X1981608Y1613503D02*
X1982547D01*
X1981508Y1613603D02*
X1982647D01*
X1981408Y1613703D02*
X1982747D01*
X1981308Y1613803D02*
X1982837D01*
X1981208Y1613903D02*
X1982737D01*
X1981108Y1614003D02*
X1982637D01*
X1981061Y1614103D02*
X1982537D01*
X1981161Y1614203D02*
X1982437D01*
X1981261Y1614303D02*
X1982337D01*
X1981361Y1614403D02*
X1982237D01*
X1981461Y1614503D02*
X1982137D01*
X1981561Y1614603D02*
X1982037D01*
X1981661Y1614703D02*
X1981937D01*
X1981761Y1614803D02*
X1981837D01*
X1981104Y1614008D02*
Y1614146D01*
X1981204Y1613908D02*
Y1614246D01*
X1981304Y1613808D02*
Y1614346D01*
X1981404Y1613708D02*
Y1614446D01*
X1981504Y1613608D02*
Y1614546D01*
X1981604Y1613508D02*
Y1614646D01*
X1981704Y1613408D02*
Y1614746D01*
X1981804Y1613308D02*
Y1614836D01*
X1981904Y1613208D02*
Y1614736D01*
X1982004Y1613108D02*
Y1614636D01*
X1982104Y1613060D02*
Y1614536D01*
X1982204Y1613160D02*
Y1614436D01*
X1982304Y1613260D02*
Y1614336D01*
X1982404Y1613360D02*
Y1614236D01*
X1982504Y1613460D02*
Y1614136D01*
X1982604Y1613560D02*
Y1614036D01*
X1982704Y1613660D02*
Y1613936D01*
X1982804Y1613760D02*
Y1613836D01*
X1999386Y1610591D02*
X2000429Y1609549D01*
X2001193Y1610313*
X2000150Y1611356*
X1999386Y1610591*
X2000374Y1609603D02*
X2000483D01*
X2000274Y1609703D02*
X2000583D01*
X2000174Y1609803D02*
X2000683D01*
X2000074Y1609903D02*
X2000783D01*
X1999974Y1610003D02*
X2000883D01*
X1999874Y1610103D02*
X2000983D01*
X1999774Y1610203D02*
X2001083D01*
X1999674Y1610303D02*
X2001183D01*
X1999574Y1610403D02*
X2001103D01*
X1999474Y1610503D02*
X2001003D01*
X1999398Y1610603D02*
X2000903D01*
X1999498Y1610703D02*
X2000803D01*
X1999598Y1610803D02*
X2000703D01*
X1999698Y1610903D02*
X2000603D01*
X1999798Y1611003D02*
X2000503D01*
X1999898Y1611103D02*
X2000403D01*
X1999998Y1611203D02*
X2000303D01*
X2000098Y1611303D02*
X2000203D01*
X1999404Y1610573D02*
Y1610610D01*
X1999504Y1610473D02*
Y1610710D01*
X1999604Y1610373D02*
Y1610810D01*
X1999704Y1610273D02*
Y1610910D01*
X1999804Y1610173D02*
Y1611010D01*
X1999904Y1610073D02*
Y1611110D01*
X2000004Y1609973D02*
Y1611210D01*
X2000104Y1609873D02*
Y1611310D01*
X2000204Y1609773D02*
Y1611302D01*
X2000304Y1609673D02*
Y1611202D01*
X2000404Y1609573D02*
Y1611102D01*
X2000504Y1609624D02*
Y1611002D01*
X2000604Y1609724D02*
Y1610902D01*
X2000704Y1609824D02*
Y1610802D01*
X2000804Y1609924D02*
Y1610702D01*
X2000904Y1610024D02*
Y1610602D01*
X2001004Y1610124D02*
Y1610502D01*
X2001104Y1610224D02*
Y1610402D01*
X2000917Y1612123D02*
X2001960Y1611080D01*
X2002724Y1611844*
X2001681Y1612887*
X2000917Y1612123*
X2001936Y1611103D02*
X2001983D01*
X2001836Y1611203D02*
X2002083D01*
X2001736Y1611303D02*
X2002183D01*
X2001636Y1611403D02*
X2002283D01*
X2001536Y1611503D02*
X2002383D01*
X2001436Y1611603D02*
X2002483D01*
X2001336Y1611703D02*
X2002583D01*
X2001236Y1611803D02*
X2002683D01*
X2001136Y1611903D02*
X2002665D01*
X2001036Y1612003D02*
X2002565D01*
X2000936Y1612103D02*
X2002465D01*
X2000998Y1612203D02*
X2002365D01*
X2001098Y1612303D02*
X2002265D01*
X2001198Y1612403D02*
X2002165D01*
X2001298Y1612503D02*
X2002065D01*
X2001398Y1612603D02*
X2001965D01*
X2001498Y1612703D02*
X2001865D01*
X2001598Y1612803D02*
X2001765D01*
X2001004Y1612036D02*
Y1612210D01*
X2001104Y1611936D02*
Y1612310D01*
X2001204Y1611836D02*
Y1612410D01*
X2001304Y1611736D02*
Y1612510D01*
X2001404Y1611636D02*
Y1612610D01*
X2001504Y1611536D02*
Y1612710D01*
X2001604Y1611436D02*
Y1612810D01*
X2001704Y1611336D02*
Y1612865D01*
X2001804Y1611236D02*
Y1612765D01*
X2001904Y1611136D02*
Y1612665D01*
X2002004Y1611124D02*
Y1612565D01*
X2002104Y1611224D02*
Y1612465D01*
X2002204Y1611324D02*
Y1612365D01*
X2002304Y1611424D02*
Y1612265D01*
X2002404Y1611524D02*
Y1612165D01*
X2002504Y1611624D02*
Y1612065D01*
X2002604Y1611724D02*
Y1611965D01*
X2002704Y1611824D02*
Y1611865D01*
X2015054Y1600696D02*
X2014011Y1601739D01*
X2013246Y1600974*
X2014289Y1599931*
X2015054Y1600696*
X2014218Y1600003D02*
X2014361D01*
X2014118Y1600103D02*
X2014461D01*
X2014018Y1600203D02*
X2014561D01*
X2013918Y1600303D02*
X2014661D01*
X2013818Y1600403D02*
X2014761D01*
X2013718Y1600503D02*
X2014861D01*
X2013618Y1600603D02*
X2014961D01*
X2013518Y1600703D02*
X2015047D01*
X2013418Y1600803D02*
X2014947D01*
X2013318Y1600903D02*
X2014847D01*
X2013275Y1601003D02*
X2014747D01*
X2013375Y1601103D02*
X2014647D01*
X2013475Y1601203D02*
X2014547D01*
X2013575Y1601303D02*
X2014447D01*
X2013675Y1601403D02*
X2014347D01*
X2013775Y1601503D02*
X2014247D01*
X2013875Y1601603D02*
X2014147D01*
X2013975Y1601703D02*
X2014047D01*
X2013304Y1600917D02*
Y1601032D01*
X2013404Y1600817D02*
Y1601132D01*
X2013504Y1600717D02*
Y1601232D01*
X2013604Y1600617D02*
Y1601332D01*
X2013704Y1600517D02*
Y1601432D01*
X2013804Y1600417D02*
Y1601532D01*
X2013904Y1600317D02*
Y1601632D01*
X2014004Y1600217D02*
Y1601732D01*
X2014104Y1600117D02*
Y1601646D01*
X2014204Y1600017D02*
Y1601546D01*
X2014304Y1599946D02*
Y1601446D01*
X2014404Y1600046D02*
Y1601346D01*
X2014504Y1600146D02*
Y1601246D01*
X2014604Y1600246D02*
Y1601146D01*
X2014704Y1600346D02*
Y1601046D01*
X2014804Y1600446D02*
Y1600946D01*
X2014904Y1600546D02*
Y1600846D01*
X2015004Y1600646D02*
Y1600746D01*
X2013523Y1599165D02*
X2012480Y1600208D01*
X2011715Y1599443*
X2012758Y1598400*
X2013523Y1599165*
X2012755Y1598403D02*
X2012761D01*
X2012655Y1598503D02*
X2012861D01*
X2012555Y1598603D02*
X2012961D01*
X2012455Y1598703D02*
X2013061D01*
X2012355Y1598803D02*
X2013161D01*
X2012255Y1598903D02*
X2013261D01*
X2012155Y1599003D02*
X2013361D01*
X2012055Y1599103D02*
X2013461D01*
X2011955Y1599203D02*
X2013484D01*
X2011855Y1599303D02*
X2013384D01*
X2011755Y1599403D02*
X2013284D01*
X2011775Y1599503D02*
X2013184D01*
X2011875Y1599603D02*
X2013084D01*
X2011975Y1599703D02*
X2012984D01*
X2012075Y1599803D02*
X2012884D01*
X2012175Y1599903D02*
X2012784D01*
X2012275Y1600003D02*
X2012684D01*
X2012375Y1600103D02*
X2012584D01*
X2012475Y1600203D02*
X2012484D01*
X2011804Y1599355D02*
Y1599532D01*
X2011904Y1599255D02*
Y1599632D01*
X2012004Y1599155D02*
Y1599732D01*
X2012104Y1599055D02*
Y1599832D01*
X2012204Y1598955D02*
Y1599932D01*
X2012304Y1598855D02*
Y1600032D01*
X2012404Y1598755D02*
Y1600132D01*
X2012504Y1598655D02*
Y1600183D01*
X2012604Y1598555D02*
Y1600083D01*
X2012704Y1598455D02*
Y1599983D01*
X2012804Y1598446D02*
Y1599883D01*
X2012904Y1598546D02*
Y1599783D01*
X2013004Y1598646D02*
Y1599683D01*
X2013104Y1598746D02*
Y1599583D01*
X2013204Y1598846D02*
Y1599483D01*
X2013304Y1598946D02*
Y1599383D01*
X2013404Y1599046D02*
Y1599283D01*
X2013504Y1599146D02*
Y1599183D01*
X1997258Y1607212D02*
X1996215Y1606170D01*
X1996979Y1605405*
X1998022Y1606448*
X1997258Y1607212*
X1996881Y1605503D02*
X1997077D01*
X1996781Y1605603D02*
X1997177D01*
X1996681Y1605703D02*
X1997277D01*
X1996581Y1605803D02*
X1997377D01*
X1996481Y1605903D02*
X1997477D01*
X1996381Y1606003D02*
X1997577D01*
X1996281Y1606103D02*
X1997677D01*
X1996248Y1606203D02*
X1997777D01*
X1996348Y1606303D02*
X1997877D01*
X1996448Y1606403D02*
X1997977D01*
X1996548Y1606503D02*
X1997967D01*
X1996648Y1606603D02*
X1997867D01*
X1996748Y1606703D02*
X1997767D01*
X1996848Y1606803D02*
X1997667D01*
X1996948Y1606903D02*
X1997567D01*
X1997048Y1607003D02*
X1997467D01*
X1997148Y1607103D02*
X1997367D01*
X1997248Y1607203D02*
X1997267D01*
X1996304Y1606080D02*
Y1606259D01*
X1996404Y1605980D02*
Y1606359D01*
X1996504Y1605880D02*
Y1606459D01*
X1996604Y1605780D02*
Y1606559D01*
X1996704Y1605680D02*
Y1606659D01*
X1996804Y1605580D02*
Y1606759D01*
X1996904Y1605480D02*
Y1606859D01*
X1997004Y1605430D02*
Y1606959D01*
X1997104Y1605530D02*
Y1607059D01*
X1997204Y1605630D02*
Y1607159D01*
X1997304Y1605730D02*
Y1607166D01*
X1997404Y1605830D02*
Y1607066D01*
X1997504Y1605930D02*
Y1606966D01*
X1997604Y1606030D02*
Y1606866D01*
X1997704Y1606130D02*
Y1606766D01*
X1997804Y1606230D02*
Y1606666D01*
X1997904Y1606330D02*
Y1606566D01*
X1998004Y1606430D02*
Y1606466D01*
X1998789Y1605681D02*
X1997746Y1604638D01*
X1998510Y1603874*
X1999553Y1604917*
X1998789Y1605681*
X1998481Y1603903D02*
X1998540D01*
X1998381Y1604003D02*
X1998640D01*
X1998281Y1604103D02*
X1998740D01*
X1998181Y1604203D02*
X1998840D01*
X1998081Y1604303D02*
X1998940D01*
X1997981Y1604403D02*
X1999040D01*
X1997881Y1604503D02*
X1999140D01*
X1997781Y1604603D02*
X1999240D01*
X1997811Y1604703D02*
X1999340D01*
X1997911Y1604803D02*
X1999440D01*
X1998011Y1604903D02*
X1999540D01*
X1998111Y1605003D02*
X1999467D01*
X1998211Y1605103D02*
X1999367D01*
X1998311Y1605203D02*
X1999267D01*
X1998411Y1605303D02*
X1999167D01*
X1998511Y1605403D02*
X1999067D01*
X1998611Y1605503D02*
X1998967D01*
X1998711Y1605603D02*
X1998867D01*
X1997804Y1604580D02*
Y1604696D01*
X1997904Y1604480D02*
Y1604796D01*
X1998004Y1604380D02*
Y1604896D01*
X1998104Y1604280D02*
Y1604996D01*
X1998204Y1604180D02*
Y1605096D01*
X1998304Y1604080D02*
Y1605196D01*
X1998404Y1603980D02*
Y1605296D01*
X1998504Y1603880D02*
Y1605396D01*
X1998604Y1603968D02*
Y1605496D01*
X1998704Y1604068D02*
Y1605596D01*
X1998804Y1604168D02*
Y1605666D01*
X1998904Y1604268D02*
Y1605566D01*
X1999004Y1604368D02*
Y1605466D01*
X1999104Y1604468D02*
Y1605366D01*
X1999204Y1604568D02*
Y1605266D01*
X1999304Y1604668D02*
Y1605166D01*
X1999404Y1604768D02*
Y1605066D01*
X1999504Y1604868D02*
Y1604966D01*
X1988923Y1610780D02*
X1987880Y1611822D01*
X1987116Y1611058*
X1988159Y1610015*
X1988923Y1610780*
X1988071Y1610103D02*
X1988247D01*
X1987971Y1610203D02*
X1988347D01*
X1987871Y1610303D02*
X1988447D01*
X1987771Y1610403D02*
X1988547D01*
X1987671Y1610503D02*
X1988647D01*
X1987571Y1610603D02*
X1988747D01*
X1987471Y1610703D02*
X1988847D01*
X1987371Y1610803D02*
X1988900D01*
X1987271Y1610903D02*
X1988800D01*
X1987171Y1611003D02*
X1988700D01*
X1987161Y1611103D02*
X1988600D01*
X1987261Y1611203D02*
X1988500D01*
X1987361Y1611303D02*
X1988400D01*
X1987461Y1611403D02*
X1988300D01*
X1987561Y1611503D02*
X1988200D01*
X1987661Y1611603D02*
X1988100D01*
X1987761Y1611703D02*
X1988000D01*
X1987861Y1611803D02*
X1987900D01*
X1987204Y1610970D02*
Y1611146D01*
X1987304Y1610870D02*
Y1611246D01*
X1987404Y1610770D02*
Y1611346D01*
X1987504Y1610670D02*
Y1611446D01*
X1987604Y1610570D02*
Y1611546D01*
X1987704Y1610470D02*
Y1611646D01*
X1987804Y1610370D02*
Y1611746D01*
X1987904Y1610270D02*
Y1611799D01*
X1988004Y1610170D02*
Y1611699D01*
X1988104Y1610070D02*
Y1611599D01*
X1988204Y1610060D02*
Y1611499D01*
X1988304Y1610160D02*
Y1611399D01*
X1988404Y1610260D02*
Y1611299D01*
X1988504Y1610360D02*
Y1611199D01*
X1988604Y1610460D02*
Y1611099D01*
X1988704Y1610560D02*
Y1610999D01*
X1988804Y1610660D02*
Y1610899D01*
X1988904Y1610760D02*
Y1610799D01*
X1987392Y1609248D02*
X1986349Y1610291D01*
X1985585Y1609527*
X1986628Y1608484*
X1987392Y1609248*
X1986608Y1608503D02*
X1986647D01*
X1986508Y1608603D02*
X1986747D01*
X1986408Y1608703D02*
X1986847D01*
X1986308Y1608803D02*
X1986947D01*
X1986208Y1608903D02*
X1987047D01*
X1986108Y1609003D02*
X1987147D01*
X1986008Y1609103D02*
X1987247D01*
X1985908Y1609203D02*
X1987347D01*
X1985808Y1609303D02*
X1987337D01*
X1985708Y1609403D02*
X1987237D01*
X1985608Y1609503D02*
X1987137D01*
X1985661Y1609603D02*
X1987037D01*
X1985761Y1609703D02*
X1986937D01*
X1985861Y1609803D02*
X1986837D01*
X1985961Y1609903D02*
X1986737D01*
X1986061Y1610003D02*
X1986637D01*
X1986161Y1610103D02*
X1986537D01*
X1986261Y1610203D02*
X1986437D01*
X1985604Y1609508D02*
Y1609546D01*
X1985704Y1609408D02*
Y1609646D01*
X1985804Y1609308D02*
Y1609746D01*
X1985904Y1609208D02*
Y1609846D01*
X1986004Y1609108D02*
Y1609946D01*
X1986104Y1609008D02*
Y1610046D01*
X1986204Y1608908D02*
Y1610146D01*
X1986304Y1608808D02*
Y1610246D01*
X1986404Y1608708D02*
Y1610236D01*
X1986504Y1608608D02*
Y1610136D01*
X1986604Y1608508D02*
Y1610036D01*
X1986704Y1608560D02*
Y1609936D01*
X1986804Y1608660D02*
Y1609836D01*
X1986904Y1608760D02*
Y1609736D01*
X1987004Y1608860D02*
Y1609636D01*
X1987104Y1608960D02*
Y1609536D01*
X1987204Y1609060D02*
Y1609436D01*
X1987304Y1609160D02*
Y1609336D01*
G54D11*
X1974654Y1612042D03*
X1978654D03*
G54D12*
X1978685Y1588046D02*
G75*
G03X1979019Y1588241I0J382D01*
G01X1978897Y1587886D02*
G03X1978685Y1588046I-212J-61D01*
G01X1977494D02*
X1979111D01*
X1979164Y1587993*
X1990429Y1582336D02*
G03X1990719Y1582394I102J246D01*
X1990662Y1582103I189J-188*
G01X1990379Y1582053D02*
X1991306Y1582980D01*
X1987349Y1583039D02*
X1988154Y1582234D01*
Y1582153*
X1968504Y1640157D02*
X2020472D01*
Y1574803*
X1968504*
Y1640157*
G54D24*
X1991589Y1602387D02*
X1989298Y1604678D01*
X1987007Y1602387*
X1989298Y1600096*
X1991589Y1602387*
X1987048Y1602346D02*
Y1602428D01*
X1987298Y1602096D02*
Y1602678D01*
X1987548Y1601846D02*
Y1602928D01*
X1987798Y1601596D02*
Y1603178D01*
X1988048Y1601346D02*
Y1603428D01*
X1988298Y1601096D02*
Y1603678D01*
X1988548Y1600846D02*
Y1603928D01*
X1988798Y1600596D02*
Y1604178D01*
X1989048Y1600346D02*
Y1604428D01*
X1989298Y1600096D02*
Y1604678D01*
X1989548Y1600346D02*
Y1604428D01*
X1989798Y1600596D02*
Y1604178D01*
X1990048Y1600846D02*
Y1603928D01*
X1990298Y1601096D02*
Y1603678D01*
X1990548Y1601346D02*
Y1603428D01*
X1990798Y1601596D02*
Y1603178D01*
X1991048Y1601846D02*
Y1602928D01*
X1991298Y1602096D02*
Y1602678D01*
X1991548Y1602346D02*
Y1602428D01*
X1995417Y1598559D02*
X1993126Y1600850D01*
X1990835Y1598559*
X1993126Y1596268*
X1995417Y1598559*
X1991048Y1598346D02*
Y1598772D01*
X1991298Y1598096D02*
Y1599022D01*
X1991548Y1597846D02*
Y1599272D01*
X1991798Y1597596D02*
Y1599522D01*
X1992048Y1597346D02*
Y1599772D01*
X1992298Y1597096D02*
Y1600022D01*
X1992548Y1596846D02*
Y1600272D01*
X1992798Y1596596D02*
Y1600522D01*
X1993048Y1596346D02*
Y1600772D01*
X1993298Y1596440D02*
Y1600678D01*
X1993548Y1596690D02*
Y1600428D01*
X1993798Y1596940D02*
Y1600178D01*
X1994048Y1597190D02*
Y1599928D01*
X1994298Y1597440D02*
Y1599678D01*
X1994548Y1597690D02*
Y1599428D01*
X1994798Y1597940D02*
Y1599178D01*
X1995048Y1598190D02*
Y1598928D01*
X1995298Y1598440D02*
Y1598678D01*
X1999245Y1594731D02*
X1996954Y1597022D01*
X1994662Y1594731*
X1996954Y1592440*
X1999245Y1594731*
X1994798Y1594596D02*
Y1594866D01*
X1995048Y1594346D02*
Y1595116D01*
X1995298Y1594096D02*
Y1595366D01*
X1995548Y1593846D02*
Y1595616D01*
X1995798Y1593596D02*
Y1595866D01*
X1996048Y1593346D02*
Y1596116D01*
X1996298Y1593096D02*
Y1596366D01*
X1996548Y1592846D02*
Y1596616D01*
X1996798Y1592596D02*
Y1596866D01*
X1997048Y1592534D02*
Y1596928D01*
X1997298Y1592784D02*
Y1596678D01*
X1997548Y1593034D02*
Y1596428D01*
X1997798Y1593284D02*
Y1596178D01*
X1998048Y1593534D02*
Y1595928D01*
X1998298Y1593784D02*
Y1595678D01*
X1998548Y1594034D02*
Y1595428D01*
X1998798Y1594284D02*
Y1595178D01*
X1999048Y1594534D02*
Y1594928D01*
X1995417Y1590903D02*
X1993126Y1593194D01*
X1990835Y1590903*
X1993126Y1588612*
X1995417Y1590903*
X1991048Y1590690D02*
Y1591116D01*
X1991298Y1590440D02*
Y1591366D01*
X1991548Y1590190D02*
Y1591616D01*
X1991798Y1589940D02*
Y1591866D01*
X1992048Y1589690D02*
Y1592116D01*
X1992298Y1589440D02*
Y1592366D01*
X1992548Y1589190D02*
Y1592616D01*
X1992798Y1588940D02*
Y1592866D01*
X1993048Y1588690D02*
Y1593116D01*
X1993298Y1588784D02*
Y1593022D01*
X1993548Y1589034D02*
Y1592772D01*
X1993798Y1589284D02*
Y1592522D01*
X1994048Y1589534D02*
Y1592272D01*
X1994298Y1589784D02*
Y1592022D01*
X1994548Y1590034D02*
Y1591772D01*
X1994798Y1590284D02*
Y1591522D01*
X1995048Y1590534D02*
Y1591272D01*
X1995298Y1590784D02*
Y1591022D01*
X1991589Y1587075D02*
X1989298Y1589366D01*
X1987007Y1587075*
X1989298Y1584784*
X1991589Y1587075*
X1987048Y1587034D02*
Y1587116D01*
X1987298Y1586784D02*
Y1587366D01*
X1987548Y1586534D02*
Y1587616D01*
X1987798Y1586284D02*
Y1587866D01*
X1988048Y1586034D02*
Y1588116D01*
X1988298Y1585784D02*
Y1588366D01*
X1988548Y1585534D02*
Y1588616D01*
X1988798Y1585284D02*
Y1588866D01*
X1989048Y1585034D02*
Y1589116D01*
X1989298Y1584784D02*
Y1589366D01*
X1989548Y1585034D02*
Y1589116D01*
X1989798Y1585284D02*
Y1588866D01*
X1990048Y1585534D02*
Y1588616D01*
X1990298Y1585784D02*
Y1588366D01*
X1990548Y1586034D02*
Y1588116D01*
X1990798Y1586284D02*
Y1587866D01*
X1991048Y1586534D02*
Y1587616D01*
X1991298Y1586784D02*
Y1587366D01*
X1991548Y1587034D02*
Y1587116D01*
X1987761Y1590903D02*
X1985470Y1593194D01*
X1983179Y1590903*
X1985470Y1588612*
X1987761Y1590903*
X1983298Y1590784D02*
Y1591022D01*
X1983548Y1590534D02*
Y1591272D01*
X1983798Y1590284D02*
Y1591522D01*
X1984048Y1590034D02*
Y1591772D01*
X1984298Y1589784D02*
Y1592022D01*
X1984548Y1589534D02*
Y1592272D01*
X1984798Y1589284D02*
Y1592522D01*
X1985048Y1589034D02*
Y1592772D01*
X1985298Y1588784D02*
Y1593022D01*
X1985548Y1588690D02*
Y1593116D01*
X1985798Y1588940D02*
Y1592866D01*
X1986048Y1589190D02*
Y1592616D01*
X1986298Y1589440D02*
Y1592366D01*
X1986548Y1589690D02*
Y1592116D01*
X1986798Y1589940D02*
Y1591866D01*
X1987048Y1590190D02*
Y1591616D01*
X1987298Y1590440D02*
Y1591366D01*
X1987548Y1590690D02*
Y1591116D01*
X1983933Y1594731D02*
X1981642Y1597022D01*
X1979351Y1594731*
X1981642Y1592440*
X1983933Y1594731*
X1979548Y1594534D02*
Y1594928D01*
X1979798Y1594284D02*
Y1595178D01*
X1980048Y1594034D02*
Y1595428D01*
X1980298Y1593784D02*
Y1595678D01*
X1980548Y1593534D02*
Y1595928D01*
X1980798Y1593284D02*
Y1596178D01*
X1981048Y1593034D02*
Y1596428D01*
X1981298Y1592784D02*
Y1596678D01*
X1981548Y1592534D02*
Y1596928D01*
X1981798Y1592596D02*
Y1596866D01*
X1982048Y1592846D02*
Y1596616D01*
X1982298Y1593096D02*
Y1596366D01*
X1982548Y1593346D02*
Y1596116D01*
X1982798Y1593596D02*
Y1595866D01*
X1983048Y1593846D02*
Y1595616D01*
X1983298Y1594096D02*
Y1595366D01*
X1983548Y1594346D02*
Y1595116D01*
X1983798Y1594596D02*
Y1594866D01*
X1987761Y1598559D02*
X1985470Y1600850D01*
X1983179Y1598559*
X1985470Y1596268*
X1987761Y1598559*
X1983298Y1598440D02*
Y1598678D01*
X1983548Y1598190D02*
Y1598928D01*
X1983798Y1597940D02*
Y1599178D01*
X1984048Y1597690D02*
Y1599428D01*
X1984298Y1597440D02*
Y1599678D01*
X1984548Y1597190D02*
Y1599928D01*
X1984798Y1596940D02*
Y1600178D01*
X1985048Y1596690D02*
Y1600428D01*
X1985298Y1596440D02*
Y1600678D01*
X1985548Y1596346D02*
Y1600772D01*
X1985798Y1596596D02*
Y1600522D01*
X1986048Y1596846D02*
Y1600272D01*
X1986298Y1597096D02*
Y1600022D01*
X1986548Y1597346D02*
Y1599772D01*
X1986798Y1597596D02*
Y1599522D01*
X1987048Y1597846D02*
Y1599272D01*
X1987298Y1598096D02*
Y1599022D01*
X1987548Y1598346D02*
Y1598772D01*
X1984565Y1603639D02*
X1984565D01*
X1984565*
X1984539Y1603701D02*
X1984565Y1603675D01*
X1983147Y1605376D02*
X1983320Y1605203D01*
X1983332Y1605376D02*
Y1605574D01*
Y1605956D02*
Y1605944D01*
Y1605833*
X1983256Y1605956D02*
X1983276Y1606007D01*
X1983332Y1605203D02*
Y1605376D01*
Y1605574D02*
Y1605833D01*
X1983276Y1606007D02*
X1983320Y1606122D01*
X1983252Y1605944D02*
X1983256Y1605956D01*
X1984565Y1603639D02*
Y1603675D01*
X1980131Y1599620D02*
G03X1979008Y1599963I-1123J-1666D01*
X1979668Y1600306I0J806*
G01X1979008Y1599963D02*
X1979899D01*
X1979890D02*
X1980389Y1599464D01*
X1978730Y1598246D02*
G03X1977613Y1598583I-1117J-1681D01*
X1978277Y1598921I0J823*
G01X1977613Y1598583D02*
X1978504D01*
X1978486D02*
X1978998Y1598072D01*
X1977107Y1597178D02*
X1977462Y1596823D01*
X1985083Y1605906D02*
G03X1985336Y1605893I134J133D01*
G01X1985096Y1605653D02*
G03X1985083Y1605906I-146J119D01*
G01X1985612Y1605376D02*
X1985957Y1605031D01*
X1977462Y1596823D02*
X1977606Y1596680D01*
X1984428Y1603812D02*
X1984539Y1603701D01*
X1984565D02*
Y1603675D01*
Y1603639*
X1983252Y1605944D02*
X1983209Y1605833D01*
X1983320Y1605944*
X1984565Y1603639D02*
X1984565D01*
X1983320Y1605944D02*
X1983332Y1605956D01*
X1983320Y1606007D02*
X1983332Y1605995D01*
Y1605956*
X1983320Y1605203D02*
X1983332Y1605192D01*
Y1605203*
X1980127Y1589998D02*
X1980389D01*
X1976374Y1596823D02*
X1976729Y1597178D01*
X1977107*
X1976374Y1596823D02*
X1977462D01*
X1974327Y1607915D02*
G03X1974469Y1608234I-90J232D01*
G01X1974648Y1607776D02*
G03X1974327Y1607915I-231J-93D01*
G01X1974503Y1607983D02*
X1974327Y1607915D01*
X1975004Y1608178*
X1979974Y1584433D02*
G03X1980223Y1584468I111J112D01*
G01X1979940Y1584184D02*
G03X1979974Y1584433I-78J138D01*
G01X1980054Y1584353D02*
X1979974Y1584433D01*
X1980434Y1583973*
X1980732Y1587381D02*
G03X1980949Y1588060I-551J551D01*
G01X1981355Y1587765D02*
G03X1980732Y1587381I500J-1507D01*
G01X1979974Y1584433D02*
Y1586623D01*
X1981781Y1588431*
Y1588606*
X1983215Y1585083D02*
G03X1984161Y1585335I0J1899D01*
G01X1983922Y1584943D02*
G03X1983215Y1585083I-707J-1714D01*
G01X1981974Y1583888D02*
X1983169Y1585083D01*
X1983825*
X1984565Y1585823*
X1984130Y1581713D02*
G03X1984523Y1582017I0J405D01*
G01X1984758Y1581356D02*
G03X1984130Y1581713I-628J-373D01*
X1984494Y1581731I0J3782*
G01X1981974Y1583888D02*
Y1582619D01*
X1982880Y1581713*
X1984914*
X1985024Y1581823*
X1973754Y1595233D02*
Y1596628D01*
X1973754D02*
X1974720Y1597593D01*
X1975504*
X1976494Y1598583*
X1978486*
X1974617Y1594370D02*
G03X1975160Y1594262I352J351D01*
G01X1974725Y1593827D02*
G03X1974617Y1594370I-459J191D01*
G01X1974874Y1594113*
X1973754Y1595233D02*
X1975254Y1593733D01*
X1983209Y1605833D02*
X1982950Y1605574D01*
X1983147Y1605376*
X1983636Y1583777D02*
G03X1984339Y1583613I703J1431D01*
X1984050Y1583210I0J-305*
G01X1984339Y1583613D02*
G03X1983995Y1583493I0J-551D01*
G01X1985140Y1583613D02*
G03X1985163Y1583666I-56J56D01*
G01X1985193Y1583636D02*
G03X1985140Y1583613I2J-78D01*
G01X1983514Y1583253D02*
X1983874Y1583613D01*
X1985140*
X1985957Y1584431*
X1975294Y1595993D02*
X1975554D01*
Y1596003*
X1976374Y1596823*
X1975028Y1599732D02*
G03X1975571Y1599840I191J459D01*
X1975463Y1599297I351J-352*
G01X1975571Y1599840D02*
X1975314Y1599583D01*
X1974934Y1599203D02*
X1975694Y1599963D01*
X1979890*
X1975822Y1591985D02*
G03X1976353Y1591643I531J242D01*
X1975935Y1591353I-0J-446*
G01X1976353Y1591643D02*
X1975989D01*
X1976466D02*
G03X1976762Y1592293I-719J720D01*
G01X1977116Y1591939D02*
G03X1976466Y1591643I70J-1016D01*
G01X1975454Y1591593D02*
X1975504Y1591643D01*
X1976466*
X1977606Y1592782*
X1975890Y1589453D02*
G03X1975895Y1589413I5J-20D01*
X1975890Y1589373I0J-20*
G01X1977626Y1590693D02*
G03X1978621Y1590968I-0J1938D01*
G01X1978339Y1590514D02*
G03X1977626Y1590693I-713J-1328D01*
X1978480Y1590741I-0J7672*
G01X1975354Y1589413D02*
X1975895D01*
X1977175Y1590693*
X1978300*
X1978998Y1591390*
X1978444Y1601861D02*
G03X1978904Y1601553I460J189D01*
X1978444Y1601245I0J-497*
G01X1978904Y1601553D02*
X1978541D01*
X1981404Y1601278D02*
G03X1980410Y1601553I-994J-1662D01*
X1981123Y1601732I0J1510*
G01X1981264Y1601505D02*
G03X1980410Y1601553I-854J-7604D01*
G01X1978004D02*
X1981134D01*
X1981781Y1600856*
X1981064Y1603501D02*
G03X1981524Y1603193I460J189D01*
X1981064Y1602885I0J-497*
G01X1981524Y1603193D02*
X1981161D01*
X1982228D02*
G03X1982618Y1603112I256J257D01*
G01X1982308Y1602803D02*
G03X1982228Y1603193I-337J134D01*
G01X1980624D02*
X1982228D01*
X1983173Y1602247*
X1983173*
X1981718Y1586252D02*
G03X1982261Y1586360I191J459D01*
X1982153Y1585817I351J-352*
G01X1982261Y1586360D02*
X1982004Y1586103D01*
X1981990Y1586089D02*
G03X1982318Y1586762I-813J813D01*
G01X1982655Y1586389D02*
G03X1981990Y1586089I63J-1028D01*
G01X1981624Y1585723D02*
X1983115Y1587214D01*
X1983173*
X2000990Y1596132D02*
Y1596680D01*
X2003319Y1606579D02*
Y1606451D01*
X1993252Y1606211D02*
Y1606301D01*
X1988154Y1582153D02*
X1988254Y1582053D01*
X2000990Y1595157D02*
Y1596132D01*
X2013247Y1586150D02*
G03X2013790Y1586042I352J351D01*
G01X2013355Y1585607D02*
G03X2013247Y1586150I-459J191D01*
G01X2013504Y1585893*
X2000990Y1595157D02*
X2009844Y1586303D01*
X2013094*
X2013884Y1585513*
X2000442Y1596132D02*
Y1596203D01*
X2000919Y1596680*
X2000990*
X2000442Y1596132D02*
Y1595705D01*
X2000990Y1595157*
X2012418Y1594973D02*
G03X2012176Y1594875I-0J-347D01*
G01Y1595071D02*
G03X2012418Y1594973I242J250D01*
G01X2012377D02*
G03X2012735Y1595318I0J358D01*
G01X2013040Y1594685D02*
G03X2012377Y1594973I-663J-618D01*
X2012737Y1595030I0J1177*
G01X2011835Y1594973D02*
X2013254D01*
Y1595178*
X1999373Y1604778D02*
G03X1999084Y1604730I-0J-910D01*
G01X1999252Y1604898D02*
G03X1999373Y1604778I121J1D01*
G01X2002071Y1605619D02*
G03X2002248Y1606035I-425J426D01*
G01X2002488Y1605795D02*
G03X2002071Y1605619I9J-602D01*
G01X1998650Y1604778D02*
X2001174D01*
X2001200Y1604803*
X2001255*
X2002887Y1606435*
X2000841Y1609901D02*
G03X2000560Y1609963I-189J-188D01*
G01X2000779Y1610182D02*
G03X2000841Y1609901I250J-92D01*
G01X2000290Y1610452D02*
X2002892Y1607849D01*
Y1607362*
X2003319Y1606935*
Y1606579*
X2008707Y1605803D02*
G03X2009703Y1605938I-0J3751D01*
G01X2009504Y1605739D02*
G03X2008707Y1605803I-797J-4921D01*
G01X2012074Y1605599D02*
X2012247Y1605803D01*
X2013703Y1604520D02*
G03X2014038Y1603636I1147J-72D01*
X2013153Y1603970I-813J-813*
G01X2014038Y1603636D02*
X2013428Y1604245D01*
X2014030Y1601437D02*
G03X2014150Y1601559I-1J122D01*
X2014197Y1601270I910J-0*
G01X2012074Y1605599D02*
X2014150Y1603523D01*
Y1600835*
X2002887Y1606435D02*
X2003319Y1606451D01*
X1994700Y1604513D02*
G03X1995413Y1604303I713J1107D01*
X1993745Y1602992I0J-1717*
G01X1995413Y1604303D02*
G03X1994461Y1604133I0J-2746D01*
G01X1995413Y1604303D02*
G03X1994223Y1603753I0J-1563D01*
G01X1995413Y1604303D02*
G03X1993984Y1603373I0J-1563D01*
G01X1996884Y1605633D02*
G03X1996855Y1605812I-566J0D01*
G01X1996967Y1605700D02*
G03X1996884Y1605633I-14J-67D01*
G01X1994031Y1603639D02*
X1994694Y1604303D01*
X1995554*
X1996884Y1605633*
Y1606074*
X1997118Y1606309*
X1996208Y1603042D02*
G03X1996228Y1603053I-11J42D01*
X1996263Y1602986I28J-28*
G01X1995422Y1602247D02*
X1996228Y1603053D01*
X2001379*
X2001754Y1602678*
X2003938*
X2007063Y1605803*
X2012247*
X1997515Y1601718D02*
G03X1998208Y1601428I693J682D01*
X1996525Y1600202I-0J-1767*
G01X1998208Y1601428D02*
G03X1997268Y1601339I-0J-4993D01*
G01X1998208Y1601428D02*
G03X1997020Y1600960I-0J-1739D01*
G01X1998208Y1601428D02*
G03X1996772Y1600581I-0J-1639D01*
G01X2009329Y1594875D02*
G03X2009087Y1594973I-242J-249D01*
X2009329Y1595071I0J348*
G01X1996814Y1600856D02*
X1997387Y1601428D01*
X1999254*
X1999629Y1601053*
X2002504*
X2008584Y1594973*
X2009670*
X1998903Y1600328D02*
G03X1999600Y1600048I697J728D01*
X1997917Y1598811I-0J-1762*
G01X1999600Y1600048D02*
G03X1998657Y1599948I-0J-4507D01*
G01X1999600Y1600048D02*
G03X1998410Y1599569I-0J-1716D01*
G01X1999600Y1600048D02*
G03X1998164Y1599190I-0J-1630D01*
G01X2012302Y1593073D02*
G03X2012762Y1593381I0J497D01*
G01Y1592765D02*
G03X2012302Y1593073I-460J-189D01*
G01X2012665*
X1998206Y1599464D02*
X1998791Y1600048D01*
X2002088*
X2009063Y1593073*
X2013202*
X2000324Y1598922D02*
G03X2000980Y1598573I656J441D01*
X1999306Y1597413I-0J-1787*
G01X2000980Y1598573D02*
X2000070Y1598545D01*
X2000980Y1598573D02*
G03X1999815Y1598168I-0J-1874D01*
G01X2000980Y1598573D02*
G03X1999561Y1597790I-0J-1677D01*
G01X2013004Y1587595D02*
G03X2013439Y1587892I0J467D01*
G01X2013497Y1587272D02*
G03X2013004Y1587595I-493J-214D01*
G01X2013367*
X1999598Y1598072D02*
X2000100Y1598573D01*
X2002106*
X2002922Y1597757*
Y1594639*
X2009966Y1587595*
X2013904*
Y1587623*
X1998133Y1587823D02*
G03X1997442Y1587724I-0J-2451D01*
G01X1997248Y1588049D02*
G03X1998133Y1587823I885J1623D01*
G01X1996814Y1588606D02*
X1997598Y1587823D01*
X1999714*
X2000897Y1586640*
Y1586153*
G54D25*
X1998354Y1585708D02*
G03X1998509Y1585924I-575J574D01*
G01Y1585692D02*
G03X1998354Y1585708I-84J-56D01*
G01X1996321Y1584133D02*
X1997861Y1585673D01*
X1998319*
X1998799Y1586153*
X1996321Y1584133D02*
Y1583703D01*
X1996371*
G54D27*
X1986765Y1607008D02*
X1987934Y1605839D01*
X1985373Y1605616D02*
X1986542Y1604447D01*
X1983981Y1604224D02*
X1985150Y1603055D01*
X1982589Y1602832D02*
X1983758Y1601663D01*
X1981197Y1601440D02*
X1982366Y1600271D01*
X1979805Y1600048D02*
X1980974Y1598879D01*
X1978413Y1598656D02*
X1979582Y1597487D01*
X1977021Y1597264D02*
X1978190Y1596095D01*
X1977021Y1592198D02*
X1978190Y1593367D01*
X1978413Y1590806D02*
X1979582Y1591975D01*
X1979805Y1589414D02*
X1980974Y1590583D01*
X1981197Y1588022D02*
X1982366Y1589191D01*
X1982589Y1586630D02*
X1983758Y1587799D01*
X1983981Y1585238D02*
X1985150Y1586407D01*
X1985373Y1583846D02*
X1986542Y1585015D01*
X1986765Y1582454D02*
X1987934Y1583623D01*
X1990662D02*
X1991831Y1582454D01*
X1992054Y1585015D02*
X1993223Y1583846D01*
X1993446Y1586407D02*
X1994615Y1585238D01*
X1994838Y1587799D02*
X1996007Y1586630D01*
X1996230Y1589191D02*
X1997399Y1588022D01*
X1997622Y1590583D02*
X1998791Y1589414D01*
X1999014Y1591975D02*
X2000183Y1590806D01*
X2000406Y1593367D02*
X2001575Y1592198D01*
X2000406Y1596095D02*
X2001575Y1597264D01*
X1999014Y1597487D02*
X2000183Y1598656D01*
X1997622Y1598879D02*
X1998791Y1600048D01*
X1996230Y1600271D02*
X1997399Y1601440D01*
X1994838Y1601663D02*
X1996007Y1602832D01*
X1993446Y1603055D02*
X1994615Y1604224D01*
X1992054Y1604447D02*
X1993223Y1605616D01*
X1990662Y1605839D02*
X1991831Y1607008D01*
G54D30*
X1976966Y1618636D03*
X1971060Y1618878D03*
G54D31*
X2004778Y1605542D02*
Y1607049D01*
X2002748Y1609079*
X2000242Y1606574*
X2003026Y1603790*
X2004778Y1605542*
X2000394Y1606422D02*
Y1606725D01*
X2000591Y1606225D02*
Y1606922D01*
X2000787Y1606029D02*
Y1607119D01*
X2000984Y1605832D02*
Y1607316D01*
X2001181Y1605635D02*
Y1607513D01*
X2001378Y1605438D02*
Y1607710D01*
X2001575Y1605241D02*
Y1607906D01*
X2001772Y1605044D02*
Y1608103D01*
X2001969Y1604848D02*
Y1608300D01*
X2002165Y1604651D02*
Y1608497D01*
X2002362Y1604454D02*
Y1608694D01*
X2002559Y1604257D02*
Y1608891D01*
X2002756Y1604060D02*
Y1609071D01*
X2002953Y1603863D02*
Y1608874D01*
X2003150Y1603913D02*
Y1608677D01*
X2003346Y1604110D02*
Y1608481D01*
X2003543Y1604307D02*
Y1608284D01*
X2003740Y1604504D02*
Y1608087D01*
X2003937Y1604701D02*
Y1607890D01*
X2004134Y1604898D02*
Y1607693D01*
X2004331Y1605095D02*
Y1607496D01*
X2004528Y1605291D02*
Y1607299D01*
X2004724Y1605488D02*
Y1607103D01*
X1969703Y1617330D02*
Y1618441D01*
X1970271*
Y1620012*
X1971847*
Y1618441*
X1974287*
Y1617330*
X1969703*
Y1618116D02*
X1974287D01*
X1969703Y1617722D02*
X1974287D01*
X1970271Y1619692D02*
X1971847D01*
X1970271Y1619298D02*
X1971847D01*
X1970271Y1618904D02*
X1971847D01*
X1970271Y1618510D02*
X1971847D01*
X1974037Y1617330D02*
Y1618441D01*
X1973643Y1617330D02*
Y1618441D01*
X1973249Y1617330D02*
Y1618441D01*
X1972855Y1617330D02*
Y1618441D01*
X1972461Y1617330D02*
Y1618441D01*
X1972067Y1617330D02*
Y1618441D01*
X1971673Y1617330D02*
Y1620012D01*
X1971279Y1617330D02*
Y1620012D01*
X1970885Y1617330D02*
Y1620012D01*
X1970491Y1617330D02*
Y1620012D01*
X1970097Y1617330D02*
Y1618441D01*
G54D54*
X1985083Y1605906D02*
X1985612Y1605376D01*
X1983320D02*
Y1605574D01*
Y1605956D02*
Y1606007D01*
Y1605944D02*
Y1605833D01*
Y1605574*
X1984544Y1606122D02*
X1984867D01*
X1985083Y1605906*
X1983548Y1604692D02*
X1984428Y1603812D01*
X1984455*
X1984565Y1603701*
X1980389Y1589998D02*
X1980389D01*
X1983320Y1605944D02*
Y1605956D01*
Y1606007D02*
Y1606122D01*
Y1605376D02*
Y1605203D01*
Y1604920*
X1983548Y1604692*
X1983320Y1606122D02*
X1984544D01*
X1977494Y1588046D02*
X1978498Y1589050D01*
X1979441*
X1980389Y1589998*
X1992639Y1584431D02*
X1993645Y1583424D01*
X1996400*
X1996421Y1583403*
X1996371Y1583703*
G54D55*
X1973804Y1612844D02*
Y1607327D01*
X1974721Y1606410*
X1975364*
X1975299Y1606474*
X1976625Y1607800*
X1981582*
Y1608703*
X1980713*
X1979153Y1610263*
X1976197*
X1975235Y1611225*
Y1612844*
X1973804*
Y1608568D02*
X1981582D01*
X1973804Y1608208D02*
X1981582D01*
X1973804Y1607848D02*
X1981582D01*
X1973804Y1608928D02*
X1980488D01*
X1973804Y1609288D02*
X1980128D01*
X1973804Y1609648D02*
X1979768D01*
X1973804Y1610008D02*
X1979408D01*
X1973804Y1607488D02*
X1976313D01*
X1973804Y1610368D02*
X1976092D01*
X1974003Y1607128D02*
X1975953D01*
X1973804Y1610728D02*
X1975732D01*
X1974363Y1606768D02*
X1975593D01*
X1973804Y1611088D02*
X1975372D01*
X1973804Y1612528D02*
X1975235D01*
X1973804Y1612168D02*
X1975235D01*
X1973804Y1611808D02*
X1975235D01*
X1973804Y1611448D02*
X1975235D01*
X1970275Y1619078D02*
X1971844D01*
Y1637109*
X1976181*
Y1618836*
X1977750*
Y1637109*
X1984055*
Y1625692*
X1993950*
Y1637109*
X2000551*
Y1625692*
X2010446*
Y1637109*
X2017047*
Y1621637*
X2018694*
Y1638756*
X2008799*
Y1627339*
X2002198*
Y1638756*
X1992303*
Y1627339*
X1985702*
Y1638756*
X1970275*
Y1619078*
X2008799Y1638635D02*
X2018694D01*
X2008799Y1638275D02*
X2018694D01*
X2008799Y1637915D02*
X2018694D01*
X2008799Y1637555D02*
X2018694D01*
X2008799Y1637195D02*
X2018694D01*
X2017047Y1636835D02*
X2018694D01*
X2017047Y1636475D02*
X2018694D01*
X2017047Y1636115D02*
X2018694D01*
X2017047Y1635755D02*
X2018694D01*
X2017047Y1635395D02*
X2018694D01*
X2017047Y1635035D02*
X2018694D01*
X2017047Y1634675D02*
X2018694D01*
X2017047Y1634315D02*
X2018694D01*
X2017047Y1633955D02*
X2018694D01*
X2017047Y1633595D02*
X2018694D01*
X2017047Y1633235D02*
X2018694D01*
X2017047Y1632875D02*
X2018694D01*
X2017047Y1632515D02*
X2018694D01*
X2017047Y1632155D02*
X2018694D01*
X2017047Y1631795D02*
X2018694D01*
X2017047Y1631435D02*
X2018694D01*
X2017047Y1631075D02*
X2018694D01*
X2017047Y1630715D02*
X2018694D01*
X2017047Y1630355D02*
X2018694D01*
X2017047Y1629995D02*
X2018694D01*
X2017047Y1629635D02*
X2018694D01*
X2017047Y1629275D02*
X2018694D01*
X2017047Y1628915D02*
X2018694D01*
X2017047Y1628555D02*
X2018694D01*
X2017047Y1628195D02*
X2018694D01*
X2017047Y1627835D02*
X2018694D01*
X2017047Y1627475D02*
X2018694D01*
X2017047Y1627115D02*
X2018694D01*
X2017047Y1626755D02*
X2018694D01*
X2017047Y1626395D02*
X2018694D01*
X2017047Y1626035D02*
X2018694D01*
X2017047Y1625675D02*
X2018694D01*
X2017047Y1625315D02*
X2018694D01*
X2017047Y1624955D02*
X2018694D01*
X2017047Y1624595D02*
X2018694D01*
X2017047Y1624235D02*
X2018694D01*
X2017047Y1623875D02*
X2018694D01*
X2017047Y1623515D02*
X2018694D01*
X2017047Y1623155D02*
X2018694D01*
X2017047Y1622795D02*
X2018694D01*
X2017047Y1622435D02*
X2018694D01*
X2017047Y1622075D02*
X2018694D01*
X2017047Y1621715D02*
X2018694D01*
X2008799Y1636835D02*
X2010446D01*
X2008799Y1636475D02*
X2010446D01*
X2008799Y1636115D02*
X2010446D01*
X2008799Y1635755D02*
X2010446D01*
X2008799Y1635395D02*
X2010446D01*
X2008799Y1635035D02*
X2010446D01*
X2008799Y1634675D02*
X2010446D01*
X2008799Y1634315D02*
X2010446D01*
X2008799Y1633955D02*
X2010446D01*
X2008799Y1633595D02*
X2010446D01*
X2008799Y1633235D02*
X2010446D01*
X2008799Y1632875D02*
X2010446D01*
X2008799Y1632515D02*
X2010446D01*
X2008799Y1632155D02*
X2010446D01*
X2008799Y1631795D02*
X2010446D01*
X2008799Y1631435D02*
X2010446D01*
X2008799Y1631075D02*
X2010446D01*
X2008799Y1630715D02*
X2010446D01*
X2008799Y1630355D02*
X2010446D01*
X2008799Y1629995D02*
X2010446D01*
X2008799Y1629635D02*
X2010446D01*
X2008799Y1629275D02*
X2010446D01*
X2008799Y1628915D02*
X2010446D01*
X2008799Y1628555D02*
X2010446D01*
X2008799Y1628195D02*
X2010446D01*
X2008799Y1627835D02*
X2010446D01*
X2008799Y1627475D02*
X2010446D01*
X2000551Y1627115D02*
X2010446D01*
X2000551Y1626755D02*
X2010446D01*
X2000551Y1626395D02*
X2010446D01*
X2000551Y1626035D02*
X2010446D01*
X1992303Y1638635D02*
X2002198D01*
X1992303Y1638275D02*
X2002198D01*
X1992303Y1637915D02*
X2002198D01*
X1992303Y1637555D02*
X2002198D01*
X1992303Y1637195D02*
X2002198D01*
X2000551Y1636835D02*
X2002198D01*
X2000551Y1636475D02*
X2002198D01*
X2000551Y1636115D02*
X2002198D01*
X2000551Y1635755D02*
X2002198D01*
X2000551Y1635395D02*
X2002198D01*
X2000551Y1635035D02*
X2002198D01*
X2000551Y1634675D02*
X2002198D01*
X2000551Y1634315D02*
X2002198D01*
X2000551Y1633955D02*
X2002198D01*
X2000551Y1633595D02*
X2002198D01*
X2000551Y1633235D02*
X2002198D01*
X2000551Y1632875D02*
X2002198D01*
X2000551Y1632515D02*
X2002198D01*
X2000551Y1632155D02*
X2002198D01*
X2000551Y1631795D02*
X2002198D01*
X2000551Y1631435D02*
X2002198D01*
X2000551Y1631075D02*
X2002198D01*
X2000551Y1630715D02*
X2002198D01*
X2000551Y1630355D02*
X2002198D01*
X2000551Y1629995D02*
X2002198D01*
X2000551Y1629635D02*
X2002198D01*
X2000551Y1629275D02*
X2002198D01*
X2000551Y1628915D02*
X2002198D01*
X2000551Y1628555D02*
X2002198D01*
X2000551Y1628195D02*
X2002198D01*
X2000551Y1627835D02*
X2002198D01*
X2000551Y1627475D02*
X2002198D01*
X1992303Y1636835D02*
X1993950D01*
X1992303Y1636475D02*
X1993950D01*
X1992303Y1636115D02*
X1993950D01*
X1992303Y1635755D02*
X1993950D01*
X1992303Y1635395D02*
X1993950D01*
X1992303Y1635035D02*
X1993950D01*
X1992303Y1634675D02*
X1993950D01*
X1992303Y1634315D02*
X1993950D01*
X1992303Y1633955D02*
X1993950D01*
X1992303Y1633595D02*
X1993950D01*
X1992303Y1633235D02*
X1993950D01*
X1992303Y1632875D02*
X1993950D01*
X1992303Y1632515D02*
X1993950D01*
X1992303Y1632155D02*
X1993950D01*
X1992303Y1631795D02*
X1993950D01*
X1992303Y1631435D02*
X1993950D01*
X1992303Y1631075D02*
X1993950D01*
X1992303Y1630715D02*
X1993950D01*
X1992303Y1630355D02*
X1993950D01*
X1992303Y1629995D02*
X1993950D01*
X1992303Y1629635D02*
X1993950D01*
X1992303Y1629275D02*
X1993950D01*
X1992303Y1628915D02*
X1993950D01*
X1992303Y1628555D02*
X1993950D01*
X1992303Y1628195D02*
X1993950D01*
X1992303Y1627835D02*
X1993950D01*
X1992303Y1627475D02*
X1993950D01*
X1984055Y1627115D02*
X1993950D01*
X1984055Y1626755D02*
X1993950D01*
X1984055Y1626395D02*
X1993950D01*
X1984055Y1626035D02*
X1993950D01*
X1970275Y1638635D02*
X1985702D01*
X1970275Y1638275D02*
X1985702D01*
X1970275Y1637915D02*
X1985702D01*
X1970275Y1637555D02*
X1985702D01*
X1970275Y1637195D02*
X1985702D01*
X1984055Y1636835D02*
X1985702D01*
X1984055Y1636475D02*
X1985702D01*
X1984055Y1636115D02*
X1985702D01*
X1984055Y1635755D02*
X1985702D01*
X1984055Y1635395D02*
X1985702D01*
X1984055Y1635035D02*
X1985702D01*
X1984055Y1634675D02*
X1985702D01*
X1984055Y1634315D02*
X1985702D01*
X1984055Y1633955D02*
X1985702D01*
X1984055Y1633595D02*
X1985702D01*
X1984055Y1633235D02*
X1985702D01*
X1984055Y1632875D02*
X1985702D01*
X1984055Y1632515D02*
X1985702D01*
X1984055Y1632155D02*
X1985702D01*
X1984055Y1631795D02*
X1985702D01*
X1984055Y1631435D02*
X1985702D01*
X1984055Y1631075D02*
X1985702D01*
X1984055Y1630715D02*
X1985702D01*
X1984055Y1630355D02*
X1985702D01*
X1984055Y1629995D02*
X1985702D01*
X1984055Y1629635D02*
X1985702D01*
X1984055Y1629275D02*
X1985702D01*
X1984055Y1628915D02*
X1985702D01*
X1984055Y1628555D02*
X1985702D01*
X1984055Y1628195D02*
X1985702D01*
X1984055Y1627835D02*
X1985702D01*
X1984055Y1627475D02*
X1985702D01*
X1976181Y1636835D02*
X1977750D01*
X1976181Y1636475D02*
X1977750D01*
X1976181Y1636115D02*
X1977750D01*
X1976181Y1635755D02*
X1977750D01*
X1976181Y1635395D02*
X1977750D01*
X1976181Y1635035D02*
X1977750D01*
X1976181Y1634675D02*
X1977750D01*
X1976181Y1634315D02*
X1977750D01*
X1976181Y1633955D02*
X1977750D01*
X1976181Y1633595D02*
X1977750D01*
X1976181Y1633235D02*
X1977750D01*
X1976181Y1632875D02*
X1977750D01*
X1976181Y1632515D02*
X1977750D01*
X1976181Y1632155D02*
X1977750D01*
X1976181Y1631795D02*
X1977750D01*
X1976181Y1631435D02*
X1977750D01*
X1976181Y1631075D02*
X1977750D01*
X1976181Y1630715D02*
X1977750D01*
X1976181Y1630355D02*
X1977750D01*
X1976181Y1629995D02*
X1977750D01*
X1976181Y1629635D02*
X1977750D01*
X1976181Y1629275D02*
X1977750D01*
X1976181Y1628915D02*
X1977750D01*
X1976181Y1628555D02*
X1977750D01*
X1976181Y1628195D02*
X1977750D01*
X1976181Y1627835D02*
X1977750D01*
X1976181Y1627475D02*
X1977750D01*
X1976181Y1627115D02*
X1977750D01*
X1976181Y1626755D02*
X1977750D01*
X1976181Y1626395D02*
X1977750D01*
X1976181Y1626035D02*
X1977750D01*
X1976181Y1625675D02*
X1977750D01*
X1976181Y1625315D02*
X1977750D01*
X1976181Y1624955D02*
X1977750D01*
X1976181Y1624595D02*
X1977750D01*
X1976181Y1624235D02*
X1977750D01*
X1976181Y1623875D02*
X1977750D01*
X1976181Y1623515D02*
X1977750D01*
X1976181Y1623155D02*
X1977750D01*
X1976181Y1622795D02*
X1977750D01*
X1976181Y1622435D02*
X1977750D01*
X1976181Y1622075D02*
X1977750D01*
X1976181Y1621715D02*
X1977750D01*
X1976181Y1621355D02*
X1977750D01*
X1976181Y1620995D02*
X1977750D01*
X1976181Y1620635D02*
X1977750D01*
X1976181Y1620275D02*
X1977750D01*
X1976181Y1619915D02*
X1977750D01*
X1976181Y1619555D02*
X1977750D01*
X1976181Y1619195D02*
X1977750D01*
X1970275Y1636835D02*
X1971844D01*
X1970275Y1636475D02*
X1971844D01*
X1970275Y1636115D02*
X1971844D01*
X1970275Y1635755D02*
X1971844D01*
X1970275Y1635395D02*
X1971844D01*
X1970275Y1635035D02*
X1971844D01*
X1970275Y1634675D02*
X1971844D01*
X1970275Y1634315D02*
X1971844D01*
X1970275Y1633955D02*
X1971844D01*
X1970275Y1633595D02*
X1971844D01*
X1970275Y1633235D02*
X1971844D01*
X1970275Y1632875D02*
X1971844D01*
X1970275Y1632515D02*
X1971844D01*
X1970275Y1632155D02*
X1971844D01*
X1970275Y1631795D02*
X1971844D01*
X1970275Y1631435D02*
X1971844D01*
X1970275Y1631075D02*
X1971844D01*
X1970275Y1630715D02*
X1971844D01*
X1970275Y1630355D02*
X1971844D01*
X1970275Y1629995D02*
X1971844D01*
X1970275Y1629635D02*
X1971844D01*
X1970275Y1629275D02*
X1971844D01*
X1970275Y1628915D02*
X1971844D01*
X1970275Y1628555D02*
X1971844D01*
X1970275Y1628195D02*
X1971844D01*
X1970275Y1627835D02*
X1971844D01*
X1970275Y1627475D02*
X1971844D01*
X1970275Y1627115D02*
X1971844D01*
X1970275Y1626755D02*
X1971844D01*
X1970275Y1626395D02*
X1971844D01*
X1970275Y1626035D02*
X1971844D01*
X1970275Y1625675D02*
X1971844D01*
X1970275Y1625315D02*
X1971844D01*
X1970275Y1624955D02*
X1971844D01*
X1970275Y1624595D02*
X1971844D01*
X1970275Y1624235D02*
X1971844D01*
X1970275Y1623875D02*
X1971844D01*
X1970275Y1623515D02*
X1971844D01*
X1970275Y1623155D02*
X1971844D01*
X1970275Y1622795D02*
X1971844D01*
X1970275Y1622435D02*
X1971844D01*
X1970275Y1622075D02*
X1971844D01*
X1970275Y1621715D02*
X1971844D01*
X1970275Y1621355D02*
X1971844D01*
X1970275Y1620995D02*
X1971844D01*
X1970275Y1620635D02*
X1971844D01*
X1970275Y1620275D02*
X1971844D01*
X1970275Y1619915D02*
X1971844D01*
X1970275Y1619555D02*
X1971844D01*
X1970275Y1619195D02*
X1971844D01*
X2003161Y1581293D02*
G03X2003161I-1487J0D01*
G01X2019272Y1576055D02*
Y1618385D01*
G03X2019221Y1618436I-51J-0*
G01X1980439*
G03X1980402Y1618348I-0J-51*
G01X1983388Y1615363*
X1983973Y1614778*
G03X1983996Y1614765I36J36*
G01X1984632Y1614397D02*
G03X1983996Y1614765I-1004J-1004D01*
G01X1984632Y1614397D02*
X1985467Y1613562D01*
X1985745Y1613168D02*
G03X1985467Y1613562I-1282J-610D01*
G01X1985745Y1613168D02*
G03X1985769Y1613144I46J23D01*
G01X1986163Y1612866D02*
G03X1985769Y1613144I-1004J-1004D01*
G01X1986163Y1612866D02*
X1986998Y1612031D01*
X1987342Y1611472D02*
G03X1986998Y1612031I-1348J-445D01*
G01X1987342Y1611472D02*
G03X1987355Y1611451I49J16D01*
G01X1987938Y1610868*
X1988334Y1610473*
X1988934Y1609023D02*
G03X1988334Y1610473I-2050J0D01*
G01X1988934Y1609023D02*
Y1607648D01*
G03X1988949Y1607611I52J-0*
G01X1989328Y1607233*
X1989691Y1606732D02*
G03X1989328Y1607233I-1757J-893D01*
G01X1989691Y1606732D02*
G03X1989773Y1606720I46J24D01*
G01X1989777Y1606723D02*
G03X1989773Y1606720I885J-884D01*
G01X1989777Y1606723D02*
X1990947Y1607893D01*
X1991357Y1608166D02*
G03X1990947Y1607893I474J-1158D01*
G01X1991357Y1608166D02*
G03X1991374Y1608177I-19J48D01*
G01X1991403Y1608206*
X1992217Y1608543D02*
G03X1991403Y1608206I-0J-1150D01*
G01X1992217Y1608543D02*
X1992270D01*
G03X1992321Y1608595I-0J52*
G01Y1609453*
Y1609865*
G03X1992267Y1609917I-51J0*
G01X1992331Y1612885D02*
G03X1992267Y1609917I-127J-1482D01*
G01X1992331Y1612885D02*
G03X1992383Y1612917I5J52D01*
G01X1993031Y1613351D02*
G03X1992383Y1612917I-0J-700D01*
G01X1993031Y1613351D02*
X1994212D01*
X1994912Y1612651D02*
G03X1994212Y1613351I-700J-0D01*
G01X1994912Y1612651D02*
Y1612023D01*
G03Y1612017I51J-0*
G01X1994921Y1611863D02*
G03X1994912Y1612017I-1300J0D01*
G01X1994921Y1611863D02*
Y1611403D01*
Y1609453*
Y1607742*
X1994566Y1606849D02*
G03X1994921Y1607742I-945J893D01*
G01X1994566Y1606849D02*
G03X1994552Y1606814I38J-35D01*
G01Y1606301*
X1994551Y1606258D02*
G03X1994552Y1606301I-1299J43D01*
G01X1994551Y1606258D02*
G03Y1606254I52J-2D01*
G01X1994552Y1606211D02*
G03X1994551Y1606254I-1300J0D01*
G01X1994552Y1606211D02*
Y1605923D01*
X1994494Y1605540D02*
G03X1994552Y1605923I-1242J383D01*
G01X1994494Y1605540D02*
G03X1994547Y1605473I50J-15D01*
G01X1994963Y1605426D02*
G03X1994547Y1605473I-348J-1202D01*
G01X1994963Y1605426D02*
X1994974Y1605423*
G03X1994963Y1605426I-274J-910D01*
G01X1994974Y1605423D02*
X1995191Y1605335*
G03X1994974Y1605423I-576J-1111D01*
G01X1995191Y1605335D02*
G03X1995251Y1605344I24J46D01*
G01X1995584Y1605676*
G03X1995588Y1605744I-37J37*
G01X1995649Y1606665D02*
G03X1995588Y1605744I495J-495D01*
G01X1995649Y1606665D02*
X1996763Y1607778D01*
X1997753D02*
G03X1996763I-495J-495D01*
G01X1997753D02*
X1998588Y1606943D01*
X1998791Y1606498D02*
G03X1998588Y1606943I-698J-50D01*
G01X1998791Y1606498D02*
G03X1998839Y1606450I51J4D01*
G01X1999086Y1606386D02*
G03X1998839Y1606450I-297J-634D01*
G01X1999086Y1606386D02*
G03X1999144Y1606396I22J46D01*
G01X1999145D02*
X1999250Y1606501D01*
G03X1999265Y1606540I-37J36*
G01X1999469Y1607069D02*
G03X1999265Y1606540I495J-495D01*
G01X1999469Y1607069D02*
X2000863Y1608463D01*
G03Y1608536I-37J36*
G01X2000620Y1608779*
X2000620D02*
G03X2000572Y1608793I-37J-37D01*
G01X1999934Y1608983D02*
G03X2000572Y1608793I495J495D01*
G01X1999934Y1608983D02*
X1998820Y1610096D01*
Y1611086D02*
G03Y1610096I495J-495D01*
G01Y1611086D02*
X1999655Y1611922D01*
X2000645D02*
G03X1999655I-495J-495D01*
G01X2000645D02*
X2001759Y1610808D01*
X2001949Y1610169D02*
G03X2001759Y1610808I-685J144D01*
G01X2001949Y1610169D02*
G03X2001963Y1610122I51J-10D01*
G01X2002207Y1609878*
X2002207D02*
G03X2002278Y1609877I36J37D01*
G01X2002782Y1610057D02*
G03X2002278Y1609877I-34J-699D01*
G01X2002782Y1610057D02*
G03X2002821Y1610072I2J51D01*
G01X2002851Y1610102*
X2003134D02*
G03X2002851I-142J-141D01*
G01X2003134D02*
X2006575Y1606661D01*
G03X2006635Y1606651I37J36*
G01X2007063Y1606753D02*
G03X2006635Y1606651I0J-950D01*
G01X2007063Y1606753D02*
X2008707D01*
G03X2009207Y1606798I-0J2801*
X2009234Y1606812I-9J51*
G01X2011440Y1609018*
X2012430D02*
G03X2011440I-495J-495D01*
G01X2012430D02*
X2015492Y1605955D01*
Y1604965D02*
G03Y1605955I-495J495D01*
G01Y1604965D02*
X2014808Y1604282D01*
G03Y1604209I37J-37*
G01X2014822Y1604195*
X2015100Y1603523D02*
G03X2014822Y1604195I-950J0D01*
G01X2015100Y1603523D02*
Y1601732D01*
G03X2015115Y1601695I52J-0*
G01X2015619Y1601191*
Y1600201D02*
G03Y1601191I-495J495D01*
G01Y1600201D02*
X2014784Y1599366D01*
X2013794D02*
G03X2014784I495J495D01*
G01X2013794D02*
X2012681Y1600479D01*
X2012551Y1601290D02*
G03X2012681Y1600479I625J-316D01*
G01X2012551Y1601290D02*
G03X2012541Y1601349I-46J23D01*
G01X2011670Y1602221*
X2011642Y1602256D02*
G03X2011670Y1602221I169J106D01*
G01X2011642Y1602256D02*
G03X2011634Y1602265I-44J-28D01*
G01X2009075Y1604824*
G03X2009043Y1604839I-36J-37*
X2008707Y1604853I-336J-4021*
G01X2008031*
G03X2007995Y1604838I0J-52*
G01X2004065Y1600908*
G03Y1600835I37J-36*
G01X2008582Y1596318*
G03X2008650Y1596314I37J37*
G01X2009079Y1596461D02*
G03X2008650Y1596314I0J-700D01*
G01X2009079Y1596461D02*
X2010260D01*
X2010719Y1596290D02*
G03X2010260Y1596461I-459J-529D01*
G01X2010719Y1596290D02*
G03X2010786I33J39D01*
G01X2011245Y1596461D02*
G03X2010786Y1596290I-0J-700D01*
G01X2011245Y1596461D02*
X2012426D01*
X2012479Y1596459D02*
G03X2012426Y1596461I-53J-698D01*
G01X2012479Y1596459D02*
G03X2012508Y1596465I4J51D01*
G01X2014314Y1594134D02*
G03X2012508Y1596465I-1060J1044D01*
G01X2014314Y1594134D02*
G03X2014312Y1594064I37J-36D01*
G01X2012073Y1592105D02*
G03X2014312Y1594064I1129J968D01*
G01X2012073Y1592105D02*
G03X2012034Y1592123I-39J-33D01*
G01X2009063*
X2008391Y1592401D02*
G03X2009063Y1592123I672J672D01*
G01X2008391Y1592401D02*
X2003961Y1596832D01*
G03X2003872Y1596796I-37J-36*
G01Y1595054*
G03X2003888Y1595017I52J-0*
G01X2010344Y1588560*
G03X2010381Y1588545I37J37*
G01X2012712*
G03X2012752Y1588564I-0J52*
G01X2014977Y1586593D02*
G03X2012752Y1588564I-1073J1030D01*
G01X2014977Y1586593D02*
G03Y1586523I38J-35D01*
G01X2012411Y1585309D02*
G03X2014977Y1586523I1473J204D01*
G01X2012411Y1585309D02*
G03X2012359Y1585353I-52J-7D01*
G01X2009844*
X2009172Y1585631D02*
G03X2009844Y1585353I672J672D01*
G01X2009172Y1585631D02*
X2002877Y1591926D01*
G03X2002791Y1591902I-36J-36*
G01X2001486Y1590950D02*
G03X2002791Y1591902I89J1248D01*
G01X2001486Y1590950D02*
G03X2001431Y1590894I-4J-52D01*
G01X2000094Y1589558D02*
G03X2001431Y1590894I89J1248D01*
G01X2000094Y1589558D02*
G03X2000039Y1589503I-4J-52D01*
G01X1999894Y1588823D02*
G03X2000039Y1589503I-1103J591D01*
G01X1999894Y1588823D02*
G03X1999928Y1588749I46J-24D01*
G01X2000386Y1588495D02*
G03X1999928Y1588749I-672J-672D01*
G01X2000386Y1588495D02*
X2001225Y1587656D01*
G03X2001261Y1587641I36J36*
G01X2001555*
X2002255Y1586941D02*
G03X2001555Y1587641I-700J-0D01*
G01X2002255Y1586941D02*
Y1585366D01*
X2001555Y1584666D02*
G03X2002255Y1585366I0J700D01*
G01X2001555Y1584666D02*
X2000374D01*
X1999916Y1584837D02*
G03X2000374Y1584666I458J529D01*
G01X1999916Y1584837D02*
G03X1999848I-34J-39D01*
G01X1999390Y1584666D02*
G03X1999848Y1584837I-0J700D01*
G01X1999390Y1584666D02*
X1998289D01*
G03X1998253Y1584651I0J-52*
G01X1997677Y1584075*
G03X1997662Y1584038I36J-37*
G01Y1582916*
X1997413Y1582381D02*
G03X1997662Y1582916I-451J535D01*
G01X1997413Y1582381D02*
G03X1997475Y1582299I34J-40D01*
G01X1997388Y1582235D02*
G03X1997475Y1582299I916J-1172D01*
G01X1997388Y1582235D02*
G03X1997329Y1582320I-32J41D01*
G01X1996962Y1582216D02*
G03X1997329Y1582320I-0J700D01*
G01X1996962Y1582216D02*
X1995781D01*
X1995418Y1582317D02*
G03X1995781Y1582216I363J599D01*
G01X1995418Y1582317D02*
G03X1995392Y1582324I-26J-44D01*
G01X1995041*
G03X1994991Y1582260I0J-51*
G01X1995012Y1582091D02*
G03X1994991Y1582260I-700J-0D01*
G01X1995012Y1582091D02*
Y1580516D01*
X1994312Y1579816D02*
G03X1995012Y1580516I-0J700D01*
G01X1994312Y1579816D02*
X1993131D01*
X1992437Y1580424D02*
G03X1993131Y1579816I694J92D01*
G01X1992437Y1580424D02*
G03X1992400Y1580466I-51J-7D01*
G01X1991899Y1580760D02*
G03X1992400Y1580466I813J813D01*
G01X1991899Y1580760D02*
X1991578Y1581081D01*
G03X1991502Y1581078I-37J-37*
G01X1989352Y1580977D02*
G03X1991502Y1581078I1027J1076D01*
G01X1989352Y1580977D02*
G03X1989281I-36J-37D01*
G01X1987035Y1581201D02*
G03X1989281Y1580977I1219J852D01*
G01X1987035Y1581201D02*
G03X1986983Y1581222I-43J-30D01*
G01X1986442Y1581245D02*
G03X1986983Y1581222I323J1209D01*
G01X1986442Y1581245D02*
G03X1986382Y1581216I-13J-50D01*
G01X1983995Y1580749D02*
G03X1986382Y1581216I1029J1074D01*
G01X1983995Y1580749D02*
G03X1983959Y1580763I-36J-37D01*
G01X1982880*
X1982208Y1581041D02*
G03X1982880Y1580763I672J672D01*
G01X1982208Y1581041D02*
X1981302Y1581947D01*
X1981027Y1582537D02*
G03X1981302Y1581947I947J82D01*
G01X1981027Y1582537D02*
G03X1980958Y1582581I-51J-4D01*
G01X1979021Y1584439D02*
G03X1980958Y1582581I1413J-466D01*
G01X1979021Y1584439D02*
G03X1979024Y1584455I-49J16D01*
G01Y1586466*
G03X1978979Y1586517I-52J0*
G01X1978350Y1586748D02*
G03X1978979Y1586517I814J1245D01*
G01X1978350Y1586748D02*
G03X1978319Y1586756I-28J-43D01*
G01X1978281Y1586755D02*
G03X1978319Y1586756I0J700D01*
G01X1978281Y1586755D02*
X1976707D01*
X1976007Y1587455D02*
G03X1976707Y1586755I700J0D01*
G01X1976007Y1587455D02*
Y1587996D01*
G03X1975935Y1588044I-52J0*
G01X1974354Y1590515D02*
G03X1975935Y1588044I1000J-1102D01*
G01X1974354Y1590515D02*
G03X1974358Y1590588I-34J38D01*
G01X1974297Y1592528D02*
G03X1974358Y1590588I1157J-935D01*
G01X1974297Y1592528D02*
G03X1974290Y1592600I-40J33D01*
G01X1973771Y1593847D02*
G03X1974290Y1592600I1483J-114D01*
G01X1973771Y1593847D02*
G03X1973756Y1593888I-52J4D01*
G01X1973082Y1594561*
X1972804Y1595233D02*
G03X1973082Y1594561I950J0D01*
G01X1972804Y1595233D02*
Y1596628D01*
X1973082Y1597299D02*
G03X1972804Y1596628I672J-671D01*
G01X1973082Y1597299D02*
X1973872Y1598089D01*
G03Y1598161I-37J36*
G01X1975054Y1600686D02*
G03X1973872Y1598161I-120J-1483D01*
G01X1975054Y1600686D02*
G03X1975091Y1600697I4J51D01*
G01X1975694Y1600913D02*
G03X1975091Y1600697I-0J-950D01*
G01X1975694Y1600913D02*
X1976582D01*
G03X1976629Y1600984I-0J52*
G01X1979133Y1602521D02*
G03X1976629Y1600985I-1129J-968D01*
G01X1979133Y1602521D02*
G03X1979173Y1602503I40J34D01*
G01X1979223*
G03X1979270Y1602576I0J52*
G01X1980046Y1604564D02*
G03X1979270Y1602576I578J-1371D01*
G01X1980046Y1604564D02*
G03X1980042Y1604661I-20J48D01*
G01X1979424Y1605513D02*
G03X1980042Y1604661I897J0D01*
G01X1979424Y1605513D02*
Y1606849D01*
G03X1979372Y1606900I-52J-0*
G01X1977130*
G03X1977078Y1606849I-0J-51*
G01Y1605794*
X1976378Y1605094D02*
G03X1977078Y1605794I-0J700D01*
G01X1976378Y1605094D02*
X1973622D01*
X1972922Y1605794D02*
G03X1973622Y1605094I700J-0D01*
G01X1972922Y1605794D02*
Y1607142D01*
G03X1972921Y1607152I-52J0*
G01X1972904Y1607327D02*
G03X1972921Y1607152I900J-0D01*
G01X1972904Y1607327D02*
Y1612844D01*
X1972965Y1613169D02*
G03X1972904Y1612844I839J-325D01*
G01X1972965Y1613169D02*
G03X1972967Y1613178I-48J19D01*
G01X1973654Y1613742D02*
G03X1972967Y1613178I-0J-700D01*
G01X1973654Y1613742D02*
X1973742D01*
G03X1973746I0J52*
G01X1973804Y1613744D02*
G03X1973746Y1613742I-0J-900D01*
G01X1973804Y1613744D02*
X1975235D01*
X1975294Y1613742D02*
G03X1975235Y1613744I-59J-898D01*
G01X1975294Y1613742D02*
G03X1975297I3J52D01*
G01X1975654*
X1976354Y1613042D02*
G03X1975654Y1613742I-700J0D01*
G01X1976354Y1613042D02*
Y1611400D01*
G03X1976369Y1611364I52J0*
G01X1976555Y1611178*
G03X1976591Y1611163I36J37*
G01X1978372*
G03X1978377I0J52*
G01X1978671D02*
G03X1978377I-147J-1480D01*
G01X1978671D02*
G03X1978676I5J52D01*
G01X1979153*
X1979790Y1610900D02*
G03X1979153Y1611163I-637J-637D01*
G01X1979790Y1610900D02*
X1981071Y1609618D01*
G03X1981107Y1609603I36J37*
G01X1981582*
X1981828Y1609569D02*
G03X1981582Y1609603I-246J-866D01*
G01X1981828Y1609569D02*
G03X1981833Y1609568I14J50D01*
G01X1982334Y1609197D02*
G03X1981833Y1609568I-623J-319D01*
G01X1982334Y1609197D02*
G03X1982337Y1609193I46J24D01*
G01X1982482Y1608703D02*
G03X1982337Y1609193I-900J0D01*
G01X1982482Y1608703D02*
Y1607832D01*
G03X1982534Y1607780I52J-0*
G01X1983783*
X1984418Y1607517D02*
G03X1983783Y1607780I-635J-634D01*
G01X1984418Y1607517D02*
X1984698Y1607237D01*
G03X1984734Y1607222I36J37*
G01X1984759*
G03X1984810Y1607267I0J52*
G01X1984833Y1607401D02*
G03X1984810Y1607267I1932J-393D01*
G01X1984833Y1607401D02*
G03X1984834Y1607411I-51J10D01*
G01Y1608153*
G03X1984819Y1608189I-52J-0*
G01X1984456Y1608552*
G03X1984435Y1608565I-37J-36*
G01X1983876Y1608909D02*
G03X1984435Y1608565I1004J1004D01*
G01X1983876Y1608909D02*
X1983041Y1609744D01*
X1982763Y1610138D02*
G03X1983041Y1609744I1282J610D01*
G01X1982763Y1610138D02*
G03X1982739Y1610162I-47J-22D01*
G01X1982345Y1610440D02*
G03X1982739Y1610162I1004J1004D01*
G01X1982345Y1610440D02*
X1981510Y1611275D01*
X1981196Y1611750D02*
G03X1981510Y1611275I1318J530D01*
G01X1981196Y1611750D02*
G03X1981185Y1611767I-47J-19D01*
G01X1980489Y1612463*
X1976476Y1616476*
G03X1976452Y1616490I-36J-37*
G01X1974772Y1618391D02*
G03X1976452Y1616490I2194J245D01*
G01X1974772Y1618391D02*
G03X1974721Y1618436I-51J-6D01*
G01X1972496*
G03X1972461Y1618422I0J-51*
G01X1971844Y1618178D02*
G03X1972461Y1618422I-0J900D01*
G01X1971844Y1618178D02*
X1970275D01*
X1969784Y1618324D02*
G03X1970275Y1618178I491J754D01*
G01X1969784Y1618324D02*
G03X1969704Y1618281I-28J-43D01*
G01Y1576055*
G03X1969756Y1576003I52J-0*
G01X2019221*
G03X2019272Y1576055I-0J52*
G01X1999279Y1594694D02*
G03Y1594767I-37J37D01*
G01X1989498Y1604549*
G03X1989422Y1604546I-37J-37*
G01X1988512Y1603954D02*
G03X1989422Y1604546I-578J1885D01*
G01X1988512Y1603954D02*
G03X1988491Y1603941I15J-49D01*
G01X1979317Y1594767*
G03Y1594694I36J-36*
G01X1988532Y1585480*
X1988572Y1585423D02*
G03X1988532Y1585480I-182J-85D01*
G01X1988572Y1585423D02*
G03X1988582Y1585408I46J22D01*
G01X1989267Y1584723*
G03X1989340I37J36*
G01X1989991Y1585373*
G03X1990003Y1585392I-36J37*
G01X1990050Y1585465D02*
G03X1990003Y1585392I141J-141D01*
G01X1990050Y1585465D02*
X1999279Y1594694D01*
X2005611Y1580182D02*
G03X2006096Y1582299I1233J831D01*
G01X2005611Y1580182D02*
G03X2005542Y1580197I-43J-29D01*
G01X2006027Y1582315D02*
G03X2005542Y1580197I-1233J-832D01*
G01X2006027Y1582315D02*
G03X2006096Y1582299I43J29D01*
G01X2003161Y1581293D02*
G03X2003161I-1487J0D01*
G01X1974026Y1583337D02*
G03X1976109Y1583850I1288J-744D01*
G01X1974026Y1583337D02*
G03X1974009Y1583406I-45J26D01*
G01X1976092Y1583920D02*
G03X1974009Y1583406I-1288J743D01*
G01X1976092Y1583920D02*
G03X1976109Y1583850I45J-26D01*
G01X1979436Y1594575D02*
X1999160D01*
X1979485Y1594935D02*
X1999111D01*
X1979796Y1594215D02*
X1998800D01*
X1979845Y1595295D02*
X1998751D01*
X1980156Y1593855D02*
X1998440D01*
X1980205Y1595655D02*
X1998391D01*
X1980516Y1593495D02*
X1998080D01*
X1980565Y1596015D02*
X1998031D01*
X1980876Y1593135D02*
X1997720D01*
X1980925Y1596375D02*
X1997671D01*
X1981236Y1592775D02*
X1997360D01*
X1981285Y1596735D02*
X1997311D01*
X1981596Y1592415D02*
X1997000D01*
X1981645Y1597095D02*
X1996951D01*
X1981956Y1592055D02*
X1996640D01*
X1982005Y1597455D02*
X1996591D01*
X1982316Y1591695D02*
X1996280D01*
X1982365Y1597815D02*
X1996231D01*
X1982676Y1591335D02*
X1995920D01*
X1982725Y1598175D02*
X1995871D01*
X1983036Y1590975D02*
X1995560D01*
X1983085Y1598535D02*
X1995511D01*
X1983396Y1590615D02*
X1995200D01*
X1983445Y1598895D02*
X1995151D01*
X1983756Y1590255D02*
X1994840D01*
X1983805Y1599255D02*
X1994791D01*
X1984116Y1589895D02*
X1994480D01*
X1984165Y1599615D02*
X1994431D01*
X1984476Y1589535D02*
X1994120D01*
X1984525Y1599975D02*
X1994071D01*
X1984836Y1589175D02*
X1993760D01*
X1984885Y1600335D02*
X1993711D01*
X1985196Y1588815D02*
X1993400D01*
X1985245Y1600695D02*
X1993351D01*
X1985556Y1588455D02*
X1993040D01*
X1985605Y1601055D02*
X1992991D01*
X1985916Y1588095D02*
X1992680D01*
X1985965Y1601415D02*
X1992631D01*
X1986276Y1587735D02*
X1992320D01*
X1986325Y1601775D02*
X1992271D01*
X1986636Y1587375D02*
X1991960D01*
X1986685Y1602135D02*
X1991911D01*
X1986996Y1587015D02*
X1991600D01*
X1987045Y1602495D02*
X1991551D01*
X1987356Y1586655D02*
X1991240D01*
X1987405Y1602855D02*
X1991191D01*
X1987716Y1586295D02*
X1990880D01*
X1987765Y1603215D02*
X1990831D01*
X1988076Y1585935D02*
X1990520D01*
X1988125Y1603575D02*
X1990471D01*
X1988436Y1585575D02*
X1990160D01*
X1988485Y1603935D02*
X1990111D01*
X1988775Y1585215D02*
X1989833D01*
X1989160Y1604295D02*
X1989751D01*
X1989135Y1584855D02*
X1989473D01*
X1980415Y1618335D02*
X2019272D01*
X1980775Y1617975D02*
X2019272D01*
X1981135Y1617615D02*
X2019272D01*
X1981495Y1617255D02*
X2019272D01*
X1981855Y1616895D02*
X2019272D01*
X1982215Y1616535D02*
X2019272D01*
X1982575Y1616175D02*
X2019272D01*
X1982935Y1615815D02*
X2019272D01*
X1983295Y1615455D02*
X2019272D01*
X1983655Y1615095D02*
X2019272D01*
X1984091Y1614735D02*
X2019272D01*
X1984654Y1614375D02*
X2019272D01*
X1985014Y1614015D02*
X2019272D01*
X1985374Y1613655D02*
X2019272D01*
X1994485Y1613295D02*
X2019272D01*
X1994851Y1612935D02*
X2019272D01*
X1994912Y1612575D02*
X2019272D01*
X1994912Y1612215D02*
X2019272D01*
X2000712Y1611855D02*
X2019272D01*
X2001072Y1611495D02*
X2019272D01*
X2001432Y1611135D02*
X2019272D01*
X2001790Y1610775D02*
X2019272D01*
X2001956Y1610415D02*
X2019272D01*
X2003180Y1610055D02*
X2019272D01*
X2003540Y1609695D02*
X2019272D01*
X2003900Y1609335D02*
X2019272D01*
X2012472Y1608975D02*
X2019272D01*
X2012832Y1608615D02*
X2019272D01*
X2013192Y1608255D02*
X2019272D01*
X2013552Y1607895D02*
X2019272D01*
X2013912Y1607535D02*
X2019272D01*
X2014272Y1607175D02*
X2019272D01*
X2014632Y1606815D02*
X2019272D01*
X2014992Y1606455D02*
X2019272D01*
X2015352Y1606095D02*
X2019272D01*
X2015641Y1605735D02*
X2019272D01*
X2015692Y1605375D02*
X2019272D01*
X2015537Y1605015D02*
X2019272D01*
X2015182Y1604655D02*
X2019272D01*
X2014822Y1604295D02*
X2019272D01*
X2015006Y1603935D02*
X2019272D01*
X2015099Y1603575D02*
X2019272D01*
X2015100Y1603215D02*
X2019272D01*
X2015100Y1602855D02*
X2019272D01*
X2015100Y1602495D02*
X2019272D01*
X2015100Y1602135D02*
X2019272D01*
X2015100Y1601775D02*
X2019272D01*
X2015395Y1601415D02*
X2019272D01*
X2015725Y1601055D02*
X2019272D01*
X2015824Y1600695D02*
X2019272D01*
X2015724Y1600335D02*
X2019272D01*
X2015394Y1599975D02*
X2019272D01*
X2015034Y1599615D02*
X2019272D01*
X2014640Y1599255D02*
X2019272D01*
X2006005Y1598895D02*
X2019272D01*
X2006365Y1598535D02*
X2019272D01*
X2006725Y1598175D02*
X2019272D01*
X2007085Y1597815D02*
X2019272D01*
X2007445Y1597455D02*
X2019272D01*
X2007805Y1597095D02*
X2019272D01*
X2008165Y1596735D02*
X2019272D01*
X2014137Y1596375D02*
X2019272D01*
X2014484Y1596015D02*
X2019272D01*
X2014663Y1595655D02*
X2019272D01*
X2014737Y1595295D02*
X2019272D01*
X2014721Y1594935D02*
X2019272D01*
X2014614Y1594575D02*
X2019272D01*
X2014388Y1594215D02*
X2019272D01*
X2014468Y1593855D02*
X2019272D01*
X2014629Y1593495D02*
X2019272D01*
X2014689Y1593135D02*
X2019272D01*
X2014660Y1592775D02*
X2019272D01*
X2014537Y1592415D02*
X2019272D01*
X2014287Y1592055D02*
X2019272D01*
X2013763Y1591695D02*
X2019272D01*
X2007570Y1591335D02*
X2019272D01*
X2007930Y1590975D02*
X2019272D01*
X2008290Y1590615D02*
X2019272D01*
X2008650Y1590255D02*
X2019272D01*
X2009010Y1589895D02*
X2019272D01*
X2009370Y1589535D02*
X2019272D01*
X2009730Y1589175D02*
X2019272D01*
X2014794Y1588815D02*
X2019272D01*
X2015137Y1588455D02*
X2019272D01*
X2015315Y1588095D02*
X2019272D01*
X2015387Y1587735D02*
X2019272D01*
X2015371Y1587375D02*
X2019272D01*
X2015262Y1587015D02*
X2019272D01*
X2015033Y1586655D02*
X2019272D01*
X2015149Y1586295D02*
X2019272D01*
X2015310Y1585935D02*
X2019272D01*
X2015370Y1585575D02*
X2019272D01*
X2015341Y1585215D02*
X2019272D01*
X2015218Y1584855D02*
X2019272D01*
X2014969Y1584495D02*
X2019272D01*
X2014444Y1584135D02*
X2019272D01*
X1997662Y1583775D02*
X2019272D01*
X1997662Y1583415D02*
X2019272D01*
X1997662Y1583055D02*
X2019272D01*
X2005656Y1582695D02*
X2019272D01*
X2007526Y1582335D02*
X2019272D01*
X2007978Y1581975D02*
X2019272D01*
X2008204Y1581615D02*
X2019272D01*
X2008312Y1581255D02*
X2019272D01*
X2008327Y1580895D02*
X2019272D01*
X2008253Y1580535D02*
X2019272D01*
X2008073Y1580175D02*
X2019272D01*
X2007726Y1579815D02*
X2019272D01*
X1969704Y1579455D02*
X2019272D01*
X1969704Y1579095D02*
X2019272D01*
X1969704Y1578735D02*
X2019272D01*
X1969704Y1578375D02*
X2019272D01*
X1969704Y1578015D02*
X2019272D01*
X1969704Y1577655D02*
X2019272D01*
X1969704Y1577295D02*
X2019272D01*
X1969704Y1576935D02*
X2019272D01*
X1969704Y1576575D02*
X2019272D01*
X1969704Y1576215D02*
X2019272D01*
X2005645Y1599255D02*
X2013938D01*
X2005285Y1599615D02*
X2013545D01*
X1997738Y1584135D02*
X2013324D01*
X2004925Y1599975D02*
X2013185D01*
X2010090Y1588815D02*
X2013014D01*
X2004565Y1600335D02*
X2012825D01*
X1998098Y1584495D02*
X2012799D01*
X2007210Y1591695D02*
X2012642D01*
X2002034Y1584855D02*
X2012550D01*
X2004205Y1600695D02*
X2012534D01*
X2004212Y1601055D02*
X2012480D01*
X2004572Y1601415D02*
X2012475D01*
X2002239Y1585215D02*
X2012427D01*
X2006850Y1592055D02*
X2012118D01*
X2004932Y1601775D02*
X2012115D01*
X2005292Y1602135D02*
X2011755D01*
X2005652Y1602495D02*
X2011404D01*
X2004260Y1608975D02*
X2011397D01*
X2006012Y1602855D02*
X2011044D01*
X2004620Y1608615D02*
X2011037D01*
X2010595Y1596375D02*
X2010910D01*
X2006372Y1603215D02*
X2010684D01*
X2004980Y1608255D02*
X2010677D01*
X2006732Y1603575D02*
X2010324D01*
X2005340Y1607895D02*
X2010317D01*
X2007092Y1603935D02*
X2009964D01*
X2005700Y1607535D02*
X2009957D01*
X2007452Y1604295D02*
X2009604D01*
X2006060Y1607175D02*
X2009597D01*
X2007812Y1604655D02*
X2009244D01*
X2006420Y1606815D02*
X2009237D01*
X2002255Y1585575D02*
X2009233D01*
X2002255Y1585935D02*
X2008868D01*
X2008525Y1596375D02*
X2008744D01*
X2002255Y1586295D02*
X2008508D01*
X2006490Y1592415D02*
X2008378D01*
X2002255Y1586655D02*
X2008148D01*
X2006130Y1592775D02*
X2008018D01*
X2002251Y1587015D02*
X2007788D01*
X2005770Y1593135D02*
X2007658D01*
X2002104Y1587375D02*
X2007428D01*
X2005410Y1593495D02*
X2007298D01*
X2001145Y1587735D02*
X2007068D01*
X2005050Y1593855D02*
X2006938D01*
X2000785Y1588095D02*
X2006708D01*
X2004690Y1594215D02*
X2006578D01*
X2000425Y1588455D02*
X2006348D01*
X2004330Y1594575D02*
X2006218D01*
X2006013Y1582335D02*
X2006162D01*
X1999891Y1588815D02*
X2005988D01*
X2001843Y1579815D02*
X2005962D01*
X2003970Y1594935D02*
X2005858D01*
X2000019Y1589175D02*
X2005628D01*
X2005502Y1580175D02*
X2005615D01*
X2003872Y1595295D02*
X2005498D01*
X2000048Y1589535D02*
X2005268D01*
X2003872Y1595655D02*
X2005138D01*
X2001041Y1589895D02*
X2004908D01*
X2003872Y1596015D02*
X2004778D01*
X2001306Y1590255D02*
X2004548D01*
X2003872Y1596375D02*
X2004418D01*
X2001420Y1590615D02*
X2004188D01*
X2002655Y1580175D02*
X2004085D01*
X2003872Y1596735D02*
X2004058D01*
X2002171Y1582695D02*
X2003932D01*
X2001842Y1590975D02*
X2003828D01*
X2002954Y1580535D02*
X2003648D01*
X2002735Y1582335D02*
X2003575D01*
X2002481Y1591335D02*
X2003468D01*
X2003107Y1580895D02*
X2003428D01*
X2002996Y1581975D02*
X2003390D01*
X2003161Y1581255D02*
X2003324D01*
X2003126Y1581615D02*
X2003312D01*
X2002721Y1591695D02*
X2003108D01*
X2002030Y1610055D02*
X2002689D01*
X1999114Y1579815D02*
X2001505D01*
X1997626Y1582695D02*
X2001177D01*
X1994921Y1608615D02*
X2000783D01*
X1999497Y1580175D02*
X2000693D01*
X1994921Y1608255D02*
X2000655D01*
X1999075Y1582335D02*
X2000612D01*
X1999695Y1580535D02*
X2000394D01*
X1999479Y1581975D02*
X2000352D01*
X1997597Y1607895D02*
X2000295D01*
X1999782Y1580895D02*
X2000241D01*
X1999685Y1581615D02*
X2000222D01*
X1999779Y1581255D02*
X2000187D01*
X1994921Y1608975D02*
X1999942D01*
X1997995Y1607535D02*
X1999935D01*
X1994921Y1611855D02*
X1999589D01*
X1994921Y1609335D02*
X1999581D01*
X1998355Y1607175D02*
X1999575D01*
X1998689Y1606815D02*
X1999307D01*
X1994921Y1611495D02*
X1999229D01*
X1994921Y1609695D02*
X1999221D01*
X1998820Y1606455D02*
X1999204D01*
X1994921Y1611135D02*
X1998869D01*
X1994921Y1610055D02*
X1998861D01*
X1994921Y1610775D02*
X1998640D01*
X1994921Y1610415D02*
X1998638D01*
X1997395Y1582335D02*
X1997533D01*
X1969704Y1579815D02*
X1997494D01*
X1995012Y1581975D02*
X1997129D01*
X1994923Y1580175D02*
X1997110D01*
X1995012Y1581615D02*
X1996923D01*
X1994921Y1607895D02*
X1996918D01*
X1995012Y1580535D02*
X1996913D01*
X1995012Y1581255D02*
X1996829D01*
X1995012Y1580895D02*
X1996826D01*
X1994905Y1607535D02*
X1996520D01*
X1994791Y1607175D02*
X1996160D01*
X1994552Y1606815D02*
X1995800D01*
X1994538Y1605735D02*
X1995594D01*
X1994552Y1606455D02*
X1995505D01*
X1994552Y1606095D02*
X1995448D01*
X1995105Y1605375D02*
X1995282D01*
X1985676Y1613295D02*
X1992758D01*
X1969704Y1580175D02*
X1992519D01*
X1986088Y1612935D02*
X1992391D01*
X1988821Y1609695D02*
X1992321D01*
X1988910Y1609335D02*
X1992321D01*
X1988934Y1608975D02*
X1992321D01*
X1988934Y1608615D02*
X1992321D01*
X1985768Y1580535D02*
X1992217D01*
X1991313Y1580895D02*
X1991764D01*
X1988655Y1610055D02*
X1991575D01*
X1988934Y1608255D02*
X1991455D01*
X1986454Y1612575D02*
X1991288D01*
X1988389Y1610415D02*
X1991092D01*
X1986814Y1612215D02*
X1990958D01*
X1988934Y1607895D02*
X1990949D01*
X1988031Y1610775D02*
X1990855D01*
X1987147Y1611855D02*
X1990787D01*
X1987671Y1611135D02*
X1990741D01*
X1987334Y1611495D02*
X1990719D01*
X1989025Y1607535D02*
X1990589D01*
X1989383Y1607175D02*
X1990229D01*
X1989646Y1606815D02*
X1989869D01*
X1989188Y1580895D02*
X1989445D01*
X1986187D02*
X1987320D01*
X1982482Y1607895D02*
X1984834D01*
X1984399Y1607535D02*
X1984834D01*
X1982482Y1608255D02*
X1984753D01*
X1982482Y1608615D02*
X1984304D01*
X1969704Y1580535D02*
X1984280D01*
X1982440Y1608975D02*
X1983810D01*
X1982242Y1609335D02*
X1983450D01*
X1980994Y1609695D02*
X1983090D01*
X1980634Y1610055D02*
X1982806D01*
X1969704Y1580895D02*
X1982396D01*
X1980274Y1610415D02*
X1982371D01*
X1979914Y1610775D02*
X1982010D01*
X1975964Y1581255D02*
X1981994D01*
X1979376Y1611135D02*
X1981650D01*
X1976435Y1581615D02*
X1981634D01*
X1976354Y1611495D02*
X1981330D01*
X1976667Y1581975D02*
X1981275D01*
X1976354Y1611855D02*
X1981097D01*
X1976779Y1582335D02*
X1981067D01*
X1976354Y1612215D02*
X1980737D01*
X1976354Y1612575D02*
X1980377D01*
X1969704Y1604655D02*
X1980054D01*
X1976354Y1612935D02*
X1980017D01*
X1976798Y1582695D02*
X1979673D01*
X1976307Y1613295D02*
X1979657D01*
X1969704Y1604295D02*
X1979625D01*
X1969704Y1605015D02*
X1979575D01*
X1976939Y1605375D02*
X1979435D01*
X1977078Y1606815D02*
X1979424D01*
X1977078Y1606455D02*
X1979424D01*
X1977078Y1606095D02*
X1979424D01*
X1977076Y1605735D02*
X1979424D01*
X1969704Y1603935D02*
X1979335D01*
X1975992Y1613655D02*
X1979297D01*
X1976728Y1583055D02*
X1979263D01*
X1969704Y1603575D02*
X1979186D01*
X1978723Y1602855D02*
X1979175D01*
X1969704Y1603215D02*
X1979137D01*
X1976554Y1583415D02*
X1979055D01*
X1969704Y1586295D02*
X1979024D01*
X1975575Y1585935D02*
X1979024D01*
X1975979Y1585575D02*
X1979024D01*
X1976185Y1585215D02*
X1979024D01*
X1976279Y1584855D02*
X1979024D01*
X1976282Y1584495D02*
X1979024D01*
X1976217Y1583775D02*
X1978960D01*
X1976195Y1584135D02*
X1978955D01*
X1969704Y1614015D02*
X1978937D01*
X1969704Y1614375D02*
X1978577D01*
X1969704Y1586655D02*
X1978514D01*
X1969704Y1614735D02*
X1978217D01*
X1969704Y1615095D02*
X1977857D01*
X1969704Y1615455D02*
X1977497D01*
X1969704Y1602855D02*
X1977285D01*
X1969704Y1615815D02*
X1977137D01*
X1969704Y1602495D02*
X1976853D01*
X1969704Y1616175D02*
X1976777D01*
X1969704Y1602135D02*
X1976635D01*
X1969704Y1601055D02*
X1976602D01*
X1969704Y1601775D02*
X1976533D01*
X1969704Y1601415D02*
X1976523D01*
X1969704Y1616535D02*
X1976289D01*
X1969704Y1587015D02*
X1976162D01*
X1969704Y1587375D02*
X1976011D01*
X1969704Y1587735D02*
X1976007D01*
X1969704Y1616895D02*
X1975609D01*
X1969704Y1617255D02*
X1975244D01*
X1969704Y1600695D02*
X1975088D01*
X1969704Y1617615D02*
X1975009D01*
X1969704Y1617975D02*
X1974860D01*
X1972353Y1618335D02*
X1974779D01*
X1969704Y1588095D02*
X1974664D01*
X1969704Y1581255D02*
X1974664D01*
X1969704Y1590615D02*
X1974333D01*
X1969704Y1588455D02*
X1974216D01*
X1969704Y1592415D02*
X1974214D01*
X1969704Y1581615D02*
X1974193D01*
X1969704Y1590255D02*
X1974128D01*
X1969704Y1592775D02*
X1974116D01*
X1969704Y1590975D02*
X1974101D01*
X1969704Y1592055D02*
X1974040D01*
X1969704Y1585935D02*
X1974033D01*
X1969704Y1583415D02*
X1973994D01*
X1969704Y1588815D02*
X1973992D01*
X1969704Y1591335D02*
X1973989D01*
X1969704Y1591695D02*
X1973970D01*
X1969704Y1600335D02*
X1973969D01*
X1969704Y1581975D02*
X1973961D01*
X1969704Y1589895D02*
X1973947D01*
X1969704Y1583055D02*
X1973900D01*
X1969704Y1593135D02*
X1973892D01*
X1969704Y1589175D02*
X1973886D01*
X1969704Y1589535D02*
X1973871D01*
X1969704Y1598175D02*
X1973859D01*
X1969704Y1582335D02*
X1973849D01*
X1969704Y1582695D02*
X1973830D01*
X1969704Y1593495D02*
X1973786D01*
X1969704Y1593855D02*
X1973771D01*
X1969704Y1599975D02*
X1973662D01*
X1969704Y1585575D02*
X1973629D01*
X1969704Y1583775D02*
X1973610D01*
X1969704Y1598535D02*
X1973605D01*
X1969704Y1597815D02*
X1973598D01*
X1969704Y1599615D02*
X1973505D01*
X1969704Y1598895D02*
X1973479D01*
X1969704Y1599255D02*
X1973447D01*
X1969704Y1594215D02*
X1973428D01*
X1969704Y1585215D02*
X1973423D01*
X1969704Y1584135D02*
X1973413D01*
X1969704Y1584855D02*
X1973329D01*
X1969704Y1584495D02*
X1973326D01*
X1969704Y1613655D02*
X1973316D01*
X1969704Y1597455D02*
X1973238D01*
X1969704Y1594575D02*
X1973069D01*
X1969704Y1605375D02*
X1973061D01*
X1969704Y1613295D02*
X1973001D01*
X1969704Y1597095D02*
X1972927D01*
X1969704Y1605735D02*
X1972924D01*
X1969704Y1606815D02*
X1972922D01*
X1969704Y1606455D02*
X1972922D01*
X1969704Y1606095D02*
X1972922D01*
X1969704Y1607175D02*
X1972917D01*
X1969704Y1612935D02*
X1972909D01*
X1969704Y1612575D02*
X1972904D01*
X1969704Y1612215D02*
X1972904D01*
X1969704Y1611855D02*
X1972904D01*
X1969704Y1611495D02*
X1972904D01*
X1969704Y1611135D02*
X1972904D01*
X1969704Y1610775D02*
X1972904D01*
X1969704Y1610415D02*
X1972904D01*
X1969704Y1610055D02*
X1972904D01*
X1969704Y1609695D02*
X1972904D01*
X1969704Y1609335D02*
X1972904D01*
X1969704Y1608975D02*
X1972904D01*
X1969704Y1608615D02*
X1972904D01*
X1969704Y1608255D02*
X1972904D01*
X1969704Y1607895D02*
X1972904D01*
X1969704Y1607535D02*
X1972904D01*
X1969704Y1594935D02*
X1972852D01*
X1969704Y1596735D02*
X1972810D01*
X1969704Y1596375D02*
X1972804D01*
X1969704Y1596015D02*
X1972804D01*
X1969704Y1595655D02*
X1972804D01*
X1969704Y1595295D02*
X1972804D01*
G54D56*
X1993252Y1607008D02*
Y1607373D01*
X1993272Y1607393D02*
X1993621Y1607742D01*
Y1609453*
X1993252Y1607393D02*
Y1607373D01*
X1993272Y1607393*
X1993252Y1605923D02*
Y1606211D01*
Y1606301D02*
Y1607008D01*
X1993621Y1611863D02*
Y1611403D01*
X1992204*
X1993621Y1609453D02*
Y1611403D01*
G54D146*
X1983148Y1612703D02*
X1983204D01*
X1983488Y1612419*
X1981938Y1613913D02*
Y1613938D01*
X1985020Y1610888D02*
X1985404Y1610503D01*
X1993261Y1605923D02*
Y1606211D01*
X1986884Y1607029D02*
X1987349Y1606563D01*
Y1606423*
X1991306Y1582980D02*
X1992712Y1581573D01*
X1993451*
X1993721Y1581303*
X1993252Y1606301D02*
X1993261Y1606291D01*
Y1606211*
X1986488Y1609388D02*
Y1609419D01*
X1991247Y1606423D02*
X1992217Y1607393D01*
X1993252*
X1992639Y1605031D02*
X1993261Y1605654D01*
Y1605923*
X1991247Y1583039D02*
X1991306Y1582980D01*
G54D204*
X1980321Y1606883D02*
X1983783D01*
X1984761Y1605906*
X1983386Y1604531*
X1982403Y1605513*
X1980321*
Y1606883*
Y1605948D02*
X1984719D01*
X1980321Y1605593D02*
X1984448D01*
X1980321Y1606302D02*
X1984364D01*
X1982678Y1605238D02*
X1984094D01*
X1980321Y1606657D02*
X1984009D01*
X1983033Y1604884D02*
X1983739D01*
G54D269*
X1984872Y1637933D03*
Y1626515D03*
X1993143Y1626535D03*
X1993127Y1637933D03*
X2001375D03*
Y1626515D03*
X2009623D03*
Y1637933D03*
X2017871D03*
Y1622460D03*
G54D296*
X1996371Y1583703D03*
X1998537D03*
X1993721Y1581303D03*
X1995887D03*
X1993621Y1611863D03*
X1995787D03*
X1993621Y1609453D03*
X1995787D03*
X2009670Y1594973D03*
X2011835D03*
X2000965Y1586153D03*
X1998799D03*
G54D301*
X1980924Y1606122D03*
Y1608288D03*
X1977494Y1588046D03*
Y1585880D03*
X1983320Y1606122D03*
Y1608287D03*
X1978404Y1608288D03*
Y1606122D03*
G54D308*
X1975000Y1606581D03*
Y1603825D03*
G54D310*
X1983514Y1583253D03*
X1985024Y1581823D03*
X1975294Y1595993D03*
X1974934Y1599203D03*
X1975454Y1591593D03*
X1980434Y1583973D03*
X1975354Y1589413D03*
X1974804Y1584663D03*
X1978004Y1601553D03*
X1975314Y1582593D03*
X1980624Y1603193D03*
X1975254Y1593733D03*
X1975004Y1608178D03*
X1979164Y1587993D03*
X1975004Y1610178D03*
X1978524Y1609683D03*
X1977166Y1614764D03*
X1980454Y1611653D03*
X1983654Y1592903D03*
X1979054Y1604723D03*
X1974854Y1586843D03*
X1981754Y1610203D03*
X1983034Y1597143D03*
X1977164Y1604723D03*
X1973824Y1581143D03*
X1981624Y1585723D03*
X2013254Y1595178D03*
X2013202Y1593073D03*
X2013904Y1587623D03*
X2013884Y1585513D03*
X1998304Y1581063D03*
X2004794Y1581483D03*
X2001674Y1581293D03*
X1988254Y1582053D03*
X1992204Y1611403D03*
X1990379Y1582053D03*
X1999904Y1582573D03*
X2014174Y1609055D03*
X2013937Y1590118D03*
X2011454Y1589833D03*
X2011422Y1597833D03*
X2013268Y1613189D03*
X2011024Y1611417D03*
X2009212Y1598053D03*
X2003192Y1612753D03*
X1999661Y1613079D03*
X2005512Y1613386D03*
X1997264Y1608743D03*
X2006299Y1587402D03*
X1991339Y1592902D03*
X2011879Y1584678D03*
X1987304Y1592903D03*
X2009114Y1591103D03*
X2006182Y1593773D03*
X1990554Y1589653D03*
X2010835Y1599976D03*
X2008174Y1582623D03*
X1986654Y1613253D03*
X1989204Y1613303D03*
X1997524Y1611473D03*
X1989654Y1608653D03*
X1991604Y1613453D03*
X2008662Y1613386D03*
X1991339Y1600602D03*
X1989654Y1611303D03*
X1987304Y1600603D03*
X1990704Y1597183D03*
X1994994Y1592893D03*
X1995992Y1613583D03*
X2014164Y1581253D03*
X2006844Y1581013D03*
X1973622Y1617717D03*
X1983465D03*
X1973622Y1615748D03*
X2005512Y1617717D03*
X1996063D03*
X2015355Y1615748D03*
X1986614Y1617717D03*
X2015355D03*
G54D335*
X1985404Y1610503D02*
X1986488Y1609419D01*
X1981938Y1613913D02*
X1983148Y1612703D01*
X1986488Y1609419D02*
X1986884Y1609023D01*
Y1607029*
X1976966Y1618636D02*
X1977215D01*
X1981938Y1613913*
G74*
X0Y0D02*
M02*
