*
*
G04 PADS 9.5 Build Number: 522968 generated Gerber (RS-274-X) file*
G04 PC Version=2.1*
*
%IN "PCB_ESP32-C3-MINI-1_V1."*%
*
%MOIN*%
*
%FSLAX35Y35*%
*
*
*
*
G04 PC Standard Apertures*
*
*
G04 Thermal Relief Aperture macro.*
%AMTER*
1,1,$1,0,0*
1,0,$1-$2,0,0*
21,0,$3,$4,0,0,45*
21,0,$3,$4,0,0,135*
%
*
*
G04 Annular Aperture macro.*
%AMANN*
1,1,$1,0,0*
1,0,$2,0,0*
%
*
*
G04 Odd Aperture macro.*
%AMODD*
1,1,$1,0,0*
1,0,$1-0.005,0,0*
%
*
*
G04 PC Custom Aperture Macros*
*
*
*
*
*
*
G04 PC Aperture Table*
*
%ADD010C,0.001*%
%ADD012C,0.01*%
%ADD055C,0.004*%
%ADD269C,0.018*%
%ADD310C,0.01575*%
*
*
*
*
G04 PC Circuitry*
G04 Layer Name PCB_ESP32-C3-MINI-1_V1. - circuitry*
%LPD*%
*
*
G04 PC Custom Flashes*
G04 Layer Name PCB_ESP32-C3-MINI-1_V1. - flashes*
%LPD*%
*
*
G04 PC Circuitry*
G04 Layer Name PCB_ESP32-C3-MINI-1_V1. - circuitry*
%LPD*%
*
G54D10*
G54D12*
G01X1968504Y1640157D02*
X2020472D01*
Y1574803*
X1968504*
Y1640157*
G54D55*
X2003161Y1581293D02*
G75*
G03X2003161I-1487J0D01*
G01X1999791Y1581063D02*
G03X1999791I-1487J0D01*
G01X1993691Y1611403D02*
G03X1993691I-1487J0D01*
G01X1980651Y1587993D02*
G03X1980651I-1487J0D01*
G01X1979491Y1601553D02*
G03X1979491I-1487J0D01*
G01X1982111Y1603193D02*
G03X1982111I-1487J0D01*
G01X1980011Y1609683D02*
G03X1980011I-1487J0D01*
G01X1976421Y1599203D02*
G03X1976421I-1487J0D01*
G01X2019272Y1576055D02*
Y1618385D01*
G03X2019221Y1618436I-51J-0*
G01X1969756*
G03X1969704Y1618385I-0J-51*
G01Y1576055*
G03X1969756Y1576003I52J-0*
G01X2019221*
G03X2019272Y1576055I-0J52*
G01X2014977Y1586593D02*
G03X2012811Y1586614I-1073J1030D01*
G01X2014977Y1586593D02*
G03Y1586523I38J-35D01*
G01X2012811Y1586543D02*
G03X2014977Y1586523I1073J-1030D01*
G01X2012811Y1586543D02*
G03Y1586614I-38J36D01*
G01X2014314Y1594134D02*
G03X2012144Y1594187I-1060J1044D01*
G01X2014314Y1594134D02*
G03X2014312Y1594064I37J-36D01*
G01X2012143Y1594117D02*
G03X2014312Y1594064I1059J-1044D01*
G01X2012143Y1594117D02*
G03X2012144Y1594187I-37J36D01*
G01X2005611Y1580182D02*
G03X2006096Y1582299I1233J831D01*
G01X2005611Y1580182D02*
G03X2005542Y1580197I-43J-29D01*
G01X2006027Y1582315D02*
G03X2005542Y1580197I-1233J-832D01*
G01X2006027Y1582315D02*
G03X2006096Y1582299I43J29D01*
G01X2003161Y1581293D02*
G03X2003161I-1487J0D01*
G01X1999791Y1581063D02*
G03X1999791I-1487J0D01*
G01X1989352Y1580977D02*
G03Y1583129I1027J1076D01*
G01Y1580977D02*
G03X1989281I-36J-37D01*
G01Y1583129D02*
G03Y1580977I-1027J-1076D01*
G01Y1583129D02*
G03X1989352I35J38D01*
G01X1993691Y1611403D02*
G03X1993691I-1487J0D01*
G01X1983540Y1581718D02*
G03X1985048Y1583310I1484J105D01*
G01X1983540Y1581718D02*
G03X1983490Y1581766I-51J-4D01*
G01X1984998Y1583358D02*
G03X1983490Y1581766I-1484J-105D01*
G01X1984998Y1583358D02*
G03X1985048Y1583310I51J4D01*
G01X1981942Y1584270D02*
G03X1980156Y1585485I-318J1453D01*
G01X1981942Y1584270D02*
G03X1981902Y1584211I11J-50D01*
G01X1980116Y1585426D02*
G03X1981902Y1584211I318J-1453D01*
G01X1980116Y1585426D02*
G03X1980156Y1585485I-11J51D01*
G01X1980651Y1587993D02*
G03X1980651I-1487J0D01*
G01X1974026Y1583337D02*
G03X1976109Y1583850I1288J-744D01*
G01X1974026Y1583337D02*
G03X1974009Y1583406I-45J26D01*
G01X1976092Y1583920D02*
G03X1974009Y1583406I-1288J743D01*
G01X1976092Y1583920D02*
G03X1976109Y1583850I45J-26D01*
G01X1976454Y1590492D02*
G03X1976418Y1592726I-1000J1101D01*
G01X1976454Y1590492D02*
G03X1976450Y1590419I34J-39D01*
G01X1974354Y1590515D02*
G03X1976450Y1590419I1000J-1102D01*
G01X1974354Y1590515D02*
G03X1974358Y1590588I-34J38D01*
G01X1974297Y1592528D02*
G03X1974358Y1590588I1157J-935D01*
G01X1974297Y1592528D02*
G03X1974290Y1592600I-40J33D01*
G01X1974264Y1594843D02*
G03X1974290Y1592600I990J-1110D01*
G01X1974264Y1594843D02*
G03X1974265Y1594919I-35J39D01*
G01X1976284Y1594883D02*
G03X1974265Y1594919I-990J1110D01*
G01X1976284Y1594883D02*
G03X1976283Y1594807I35J-38D01*
G01X1976411Y1592798D02*
G03X1976283Y1594807I-1157J935D01*
G01X1976411Y1592798D02*
G03X1976418Y1592726I40J-32D01*
G01X1979491Y1601553D02*
G03X1979491I-1487J0D01*
G01X1982111Y1603193D02*
G03X1982111I-1487J0D01*
G01X1980011Y1609683D02*
G03X1980011I-1487J0D01*
G01X1976421Y1599203D02*
G03X1976421I-1487J0D01*
G01X1976135Y1609212D02*
G03X1973873I-1131J966D01*
G01X1976135D02*
G03Y1609145I39J-34D01*
G01X1973873D02*
G03X1976135I1131J-967D01*
G01X1973873D02*
G03Y1609212I-39J33D01*
G01X1969704Y1618191D02*
X2019272D01*
X1969704Y1617831D02*
X2019272D01*
X1969704Y1617471D02*
X2019272D01*
X1969704Y1617111D02*
X2019272D01*
X1969704Y1616751D02*
X2019272D01*
X1969704Y1616391D02*
X2019272D01*
X1969704Y1616031D02*
X2019272D01*
X1969704Y1615671D02*
X2019272D01*
X1969704Y1615311D02*
X2019272D01*
X1969704Y1614951D02*
X2019272D01*
X1969704Y1614591D02*
X2019272D01*
X1969704Y1614231D02*
X2019272D01*
X1969704Y1613871D02*
X2019272D01*
X1969704Y1613511D02*
X2019272D01*
X1969704Y1613151D02*
X2019272D01*
X1992740Y1612791D02*
X2019272D01*
X1993279Y1612431D02*
X2019272D01*
X1993533Y1612071D02*
X2019272D01*
X1993659Y1611711D02*
X2019272D01*
X1993691Y1611351D02*
X2019272D01*
X1993633Y1610991D02*
X2019272D01*
X1993475Y1610631D02*
X2019272D01*
X1993169Y1610271D02*
X2019272D01*
X1979994Y1609911D02*
X2019272D01*
X1980006Y1609551D02*
X2019272D01*
X1979928Y1609191D02*
X2019272D01*
X1979743Y1608831D02*
X2019272D01*
X1979386Y1608471D02*
X2019272D01*
X1976490Y1608111D02*
X2019272D01*
X1976429Y1607751D02*
X2019272D01*
X1976266Y1607391D02*
X2019272D01*
X1975951Y1607031D02*
X2019272D01*
X1969704Y1606671D02*
X2019272D01*
X1969704Y1606311D02*
X2019272D01*
X1969704Y1605951D02*
X2019272D01*
X1969704Y1605591D02*
X2019272D01*
X1969704Y1605231D02*
X2019272D01*
X1969704Y1604871D02*
X2019272D01*
X1981314Y1604511D02*
X2019272D01*
X1981762Y1604151D02*
X2019272D01*
X1981986Y1603791D02*
X2019272D01*
X1982092Y1603431D02*
X2019272D01*
X1982106Y1603071D02*
X2019272D01*
X1982031Y1602711D02*
X2019272D01*
X1981850Y1602351D02*
X2019272D01*
X1981500Y1601991D02*
X2019272D01*
X1979489Y1601631D02*
X2019272D01*
X1979464Y1601271D02*
X2019272D01*
X1979346Y1600911D02*
X2019272D01*
X1979103Y1600551D02*
X2019272D01*
X1978601Y1600191D02*
X2019272D01*
X1976283Y1599831D02*
X2019272D01*
X1976397Y1599471D02*
X2019272D01*
X1976419Y1599111D02*
X2019272D01*
X1976351Y1598751D02*
X2019272D01*
X1976180Y1598391D02*
X2019272D01*
X1975850Y1598031D02*
X2019272D01*
X1969704Y1597671D02*
X2019272D01*
X1975984Y1597311D02*
X2019272D01*
X1976432Y1596951D02*
X2019272D01*
X2013720Y1596591D02*
X2019272D01*
X2014305Y1596231D02*
X2019272D01*
X2014570Y1595871D02*
X2019272D01*
X2014704Y1595511D02*
X2019272D01*
X2014741Y1595151D02*
X2019272D01*
X2014690Y1594791D02*
X2019272D01*
X2014540Y1594431D02*
X2019272D01*
X2014307Y1594071D02*
X2019272D01*
X2014546Y1593711D02*
X2019272D01*
X2014664Y1593351D02*
X2019272D01*
X2014688Y1592991D02*
X2019272D01*
X2014623Y1592631D02*
X2019272D01*
X2014455Y1592271D02*
X2019272D01*
X2014131Y1591911D02*
X2019272D01*
X1976941Y1591551D02*
X2019272D01*
X1976886Y1591191D02*
X2019272D01*
X1976731Y1590831D02*
X2019272D01*
X1976440Y1590471D02*
X2019272D01*
X1976668Y1590111D02*
X2019272D01*
X1976803Y1589751D02*
X2019272D01*
X1979673Y1589391D02*
X2019272D01*
X2014385Y1589031D02*
X2019272D01*
X2014960Y1588671D02*
X2019272D01*
X2015223Y1588311D02*
X2019272D01*
X2015355Y1587951D02*
X2019272D01*
X2015391Y1587591D02*
X2019272D01*
X2015339Y1587231D02*
X2019272D01*
X2015187Y1586871D02*
X2019272D01*
X2014987Y1586511D02*
X2019272D01*
X2015228Y1586151D02*
X2019272D01*
X2015345Y1585791D02*
X2019272D01*
X2015369Y1585431D02*
X2019272D01*
X2015304Y1585071D02*
X2019272D01*
X2015137Y1584711D02*
X2019272D01*
X2014812Y1584351D02*
X2019272D01*
X1984806Y1583991D02*
X2019272D01*
X1984953Y1583631D02*
X2019272D01*
X1991233Y1583271D02*
X2019272D01*
X2005211Y1582911D02*
X2019272D01*
X2005830Y1582551D02*
X2019272D01*
X2007753Y1582191D02*
X2019272D01*
X2008087Y1581831D02*
X2019272D01*
X2008259Y1581471D02*
X2019272D01*
X2008328Y1581111D02*
X2019272D01*
X2008308Y1580751D02*
X2019272D01*
X2008195Y1580391D02*
X2019272D01*
X2007961Y1580031D02*
X2019272D01*
X2007485Y1579671D02*
X2019272D01*
X1969704Y1579311D02*
X2019272D01*
X1969704Y1578951D02*
X2019272D01*
X1969704Y1578591D02*
X2019272D01*
X1969704Y1578231D02*
X2019272D01*
X1969704Y1577871D02*
X2019272D01*
X1969704Y1577511D02*
X2019272D01*
X1969704Y1577151D02*
X2019272D01*
X1969704Y1576791D02*
X2019272D01*
X1969704Y1576431D02*
X2019272D01*
X1969704Y1576071D02*
X2019272D01*
X1980230Y1589031D02*
X2013423D01*
X1984518Y1584351D02*
X2012956D01*
X1980488Y1588671D02*
X2012848D01*
X1976656Y1596591D02*
X2012788D01*
X1982886Y1586511D02*
X2012781D01*
X1983810Y1584711D02*
X2012631D01*
X1982570Y1586871D02*
X2012621D01*
X1980617Y1588311D02*
X2012585D01*
X1983049Y1586151D02*
X2012540D01*
X1980441Y1587231D02*
X2012469D01*
X1982961Y1585071D02*
X2012464D01*
X1980651Y1587951D02*
X2012453D01*
X1983110Y1585791D02*
X2012423D01*
X1980596Y1587591D02*
X2012417D01*
X1983082Y1585431D02*
X2012399D01*
X1976907Y1591911D02*
X2012274D01*
X1976762Y1596231D02*
X2012203D01*
X1976703Y1594071D02*
X2012099D01*
X1976568Y1594431D02*
X2011968D01*
X1976778Y1592271D02*
X2011950D01*
X1976776Y1595871D02*
X2011938D01*
X1976741Y1593711D02*
X2011859D01*
X1976300Y1594791D02*
X2011818D01*
X1976701Y1595511D02*
X2011804D01*
X1976520Y1592631D02*
X2011782D01*
X1976520Y1595151D02*
X2011767D01*
X1976692Y1593351D02*
X2011741D01*
X1976543Y1592991D02*
X2011717D01*
X1998828Y1579671D02*
X2006203D01*
X2005116Y1580031D02*
X2005727D01*
X2002461D02*
X2004472D01*
X1991594Y1582911D02*
X2004376D01*
X2002857Y1580391D02*
X2003784D01*
X2002468Y1582551D02*
X2003758D01*
X2003059Y1580751D02*
X2003499D01*
X2002860Y1582191D02*
X2003486D01*
X2003150Y1581111D02*
X2003354D01*
X2003061Y1581831D02*
X2003348D01*
X2003151Y1581471D02*
X2003306D01*
X1999375Y1580031D02*
X2000887D01*
X1991781Y1582551D02*
X2000880D01*
X1999631Y1580391D02*
X2000491D01*
X1999274Y1582191D02*
X2000488D01*
X1999758Y1580751D02*
X2000289D01*
X1999578Y1581831D02*
X2000287D01*
X1999791Y1581111D02*
X2000198D01*
X1999734Y1581471D02*
X2000197D01*
X1969704Y1579671D02*
X1997780D01*
X1991860Y1582191D02*
X1997334D01*
X1969704Y1580031D02*
X1997233D01*
X1991850Y1581831D02*
X1997030D01*
X1985426Y1580391D02*
X1996977D01*
X1991748Y1581471D02*
X1996873D01*
X1991098Y1580751D02*
X1996850D01*
X1991530Y1581111D02*
X1996817D01*
X1969704Y1612791D02*
X1991668D01*
X1979890Y1610271D02*
X1991239D01*
X1969704Y1612431D02*
X1991129D01*
X1979670Y1610631D02*
X1990933D01*
X1969704Y1612071D02*
X1990875D01*
X1979233Y1610991D02*
X1990775D01*
X1969704Y1611711D02*
X1990749D01*
X1975919Y1611351D02*
X1990717D01*
X1988973Y1580751D02*
X1989660D01*
X1989108Y1583271D02*
X1989525D01*
X1986055Y1580751D02*
X1987535D01*
X1985366Y1583271D02*
X1987400D01*
X1986330Y1581111D02*
X1987103D01*
X1986039Y1582911D02*
X1987039D01*
X1986469Y1581471D02*
X1986885D01*
X1986321Y1582551D02*
X1986852D01*
X1986511Y1581831D02*
X1986783D01*
X1986465Y1582191D02*
X1986773D01*
X1969704Y1580391D02*
X1984622D01*
X1969704Y1580751D02*
X1983993D01*
X1975439Y1581111D02*
X1983718D01*
X1976290Y1581471D02*
X1983579D01*
X1982714Y1584711D02*
X1983218D01*
X1976591Y1581831D02*
X1983078D01*
X1982198Y1584351D02*
X1982510D01*
X1976746Y1582191D02*
X1982473D01*
X1981921Y1583991D02*
X1982222D01*
X1980870Y1582551D02*
X1982203D01*
X1981882Y1583631D02*
X1982075D01*
X1981475Y1582911D02*
X1982066D01*
X1981745Y1583271D02*
X1982027D01*
X1980140Y1586871D02*
X1980678D01*
X1979289Y1586511D02*
X1980362D01*
X1969704Y1586151D02*
X1980199D01*
X1975774Y1585791D02*
X1980138D01*
X1976078Y1585431D02*
X1980128D01*
X1976801Y1582551D02*
X1979998D01*
X1969704Y1604511D02*
X1979934D01*
X1979426Y1601991D02*
X1979748D01*
X1969704Y1604151D02*
X1979486D01*
X1976234Y1585071D02*
X1979430D01*
X1979259Y1602351D02*
X1979398D01*
X1976767Y1582911D02*
X1979393D01*
X1969704Y1603791D02*
X1979262D01*
X1978938Y1602711D02*
X1979217D01*
X1969704Y1603431D02*
X1979156D01*
X1976291Y1584711D02*
X1979142D01*
X1969704Y1603071D02*
X1979141D01*
X1976638Y1583271D02*
X1979123D01*
X1969704Y1586511D02*
X1979039D01*
X1976258Y1584351D02*
X1978995D01*
X1976380Y1583631D02*
X1978986D01*
X1976131Y1583991D02*
X1978947D01*
X1976841Y1589391D02*
X1978655D01*
X1969704Y1586871D02*
X1978188D01*
X1976792Y1589031D02*
X1978098D01*
X1969704Y1587231D02*
X1977887D01*
X1976643Y1588671D02*
X1977840D01*
X1976250Y1610991D02*
X1977815D01*
X1969704Y1587591D02*
X1977732D01*
X1976353Y1588311D02*
X1977711D01*
X1975627Y1587951D02*
X1977677D01*
X1976462Y1608471D02*
X1977662D01*
X1976046Y1600191D02*
X1977407D01*
X1976421Y1610631D02*
X1977377D01*
X1976341Y1608831D02*
X1977305D01*
X1976489Y1610271D02*
X1977157D01*
X1976124Y1609191D02*
X1977120D01*
X1969704Y1602711D02*
X1977070D01*
X1976467Y1609911D02*
X1977054D01*
X1976353Y1609551D02*
X1977042D01*
X1975564Y1600551D02*
X1976905D01*
X1969704Y1602351D02*
X1976748D01*
X1969704Y1600911D02*
X1976662D01*
X1969704Y1601991D02*
X1976582D01*
X1969704Y1601271D02*
X1976543D01*
X1969704Y1601631D02*
X1976518D01*
X1969704Y1581111D02*
X1975189D01*
X1969704Y1587951D02*
X1975081D01*
X1969704Y1597311D02*
X1974604D01*
X1969704Y1588311D02*
X1974355D01*
X1969704Y1581471D02*
X1974338D01*
X1969704Y1590471D02*
X1974308D01*
X1969704Y1600551D02*
X1974304D01*
X1969704Y1592631D02*
X1974255D01*
X1969704Y1594791D02*
X1974208D01*
X1969704Y1590831D02*
X1974177D01*
X1969704Y1596951D02*
X1974156D01*
X1969704Y1592271D02*
X1974130D01*
X1969704Y1611351D02*
X1974089D01*
X1969704Y1595151D02*
X1974068D01*
X1969704Y1588671D02*
X1974065D01*
X1969704Y1607031D02*
X1974057D01*
X1969704Y1590111D02*
X1974040D01*
X1969704Y1581831D02*
X1974037D01*
X1969704Y1591191D02*
X1974022D01*
X1969704Y1598031D02*
X1974018D01*
X1969704Y1591911D02*
X1974001D01*
X1969704Y1583271D02*
X1973990D01*
X1969704Y1591551D02*
X1973967D01*
X1969704Y1592991D02*
X1973965D01*
X1969704Y1594431D02*
X1973940D01*
X1969704Y1596591D02*
X1973932D01*
X1969704Y1589031D02*
X1973916D01*
X1969704Y1589751D02*
X1973905D01*
X1969704Y1595511D02*
X1973887D01*
X1969704Y1609191D02*
X1973884D01*
X1969704Y1582191D02*
X1973882D01*
X1969704Y1589391D02*
X1973867D01*
X1969704Y1582911D02*
X1973861D01*
X1969704Y1585791D02*
X1973834D01*
X1969704Y1582551D02*
X1973827D01*
X1969704Y1596231D02*
X1973826D01*
X1969704Y1600191D02*
X1973822D01*
X1969704Y1593351D02*
X1973816D01*
X1969704Y1595871D02*
X1973811D01*
X1969704Y1594071D02*
X1973805D01*
X1969704Y1593711D02*
X1973767D01*
X1969704Y1610991D02*
X1973758D01*
X1969704Y1607391D02*
X1973742D01*
X1969704Y1583631D02*
X1973733D01*
X1969704Y1598391D02*
X1973688D01*
X1969704Y1608831D02*
X1973667D01*
X1969704Y1609551D02*
X1973655D01*
X1969704Y1610631D02*
X1973587D01*
X1969704Y1599831D02*
X1973585D01*
X1969704Y1607751D02*
X1973579D01*
X1969704Y1608471D02*
X1973546D01*
X1969704Y1609911D02*
X1973541D01*
X1969704Y1585431D02*
X1973530D01*
X1969704Y1610271D02*
X1973519D01*
X1969704Y1608111D02*
X1973518D01*
X1969704Y1598751D02*
X1973517D01*
X1969704Y1583991D02*
X1973477D01*
X1969704Y1599471D02*
X1973471D01*
X1969704Y1599111D02*
X1973449D01*
X1969704Y1585071D02*
X1973373D01*
X1969704Y1584351D02*
X1973350D01*
X1969704Y1584711D02*
X1973317D01*
G54D269*
X1984872Y1637933D03*
Y1626515D03*
X1993143Y1626535D03*
X1993127Y1637933D03*
X2001375D03*
Y1626515D03*
X2009623D03*
Y1637933D03*
X2017871D03*
Y1622460D03*
G54D310*
X1983514Y1583253D03*
X1985024Y1581823D03*
X1975294Y1595993D03*
X1974934Y1599203D03*
X1975454Y1591593D03*
X1980434Y1583973D03*
X1975354Y1589413D03*
X1974804Y1584663D03*
X1978004Y1601553D03*
X1975314Y1582593D03*
X1980624Y1603193D03*
X1975254Y1593733D03*
X1975004Y1608178D03*
X1979164Y1587993D03*
X1975004Y1610178D03*
X1978524Y1609683D03*
X1977166Y1614764D03*
X1980454Y1611653D03*
X1983654Y1592903D03*
X1979054Y1604723D03*
X1974854Y1586843D03*
X1981754Y1610203D03*
X1983034Y1597143D03*
X1977164Y1604723D03*
X1973824Y1581143D03*
X1981624Y1585723D03*
X2013254Y1595178D03*
X2013202Y1593073D03*
X2013904Y1587623D03*
X2013884Y1585513D03*
X1998304Y1581063D03*
X2004794Y1581483D03*
X2001674Y1581293D03*
X1988254Y1582053D03*
X1992204Y1611403D03*
X1990379Y1582053D03*
X1999904Y1582573D03*
X2014174Y1609055D03*
X2013937Y1590118D03*
X2011454Y1589833D03*
X2011422Y1597833D03*
X2013268Y1613189D03*
X2011024Y1611417D03*
X2009212Y1598053D03*
X2003192Y1612753D03*
X1999661Y1613079D03*
X2005512Y1613386D03*
X1997264Y1608743D03*
X2006299Y1587402D03*
X1991339Y1592902D03*
X2011879Y1584678D03*
X1987304Y1592903D03*
X2009114Y1591103D03*
X2006182Y1593773D03*
X1990554Y1589653D03*
X2010835Y1599976D03*
X2008174Y1582623D03*
X1986654Y1613253D03*
X1989204Y1613303D03*
X1997524Y1611473D03*
X1989654Y1608653D03*
X1991604Y1613453D03*
X2008662Y1613386D03*
X1991339Y1600602D03*
X1989654Y1611303D03*
X1987304Y1600603D03*
X1990704Y1597183D03*
X1994994Y1592893D03*
X1995992Y1613583D03*
X2014164Y1581253D03*
X2006844Y1581013D03*
X1973622Y1617717D03*
X1983465D03*
X1973622Y1615748D03*
X2005512Y1617717D03*
X1996063D03*
X2015355Y1615748D03*
X1986614Y1617717D03*
X2015355D03*
G74*
X0Y0D02*
M02*
