*
*
G04 PADS 9.5 Build Number: 522968 generated Gerber (RS-274-X) file*
G04 PC Version=2.1*
*
%IN "PCB_ESP32-C3-MINI-1_V1."*%
*
%MOIN*%
*
%FSLAX35Y35*%
*
*
*
*
G04 PC Standard Apertures*
*
*
G04 Thermal Relief Aperture macro.*
%AMTER*
1,1,$1,0,0*
1,0,$1-$2,0,0*
21,0,$3,$4,0,0,45*
21,0,$3,$4,0,0,135*
%
*
*
G04 Annular Aperture macro.*
%AMANN*
1,1,$1,0,0*
1,0,$2,0,0*
%
*
*
G04 Odd Aperture macro.*
%AMODD*
1,1,$1,0,0*
1,0,$1-0.005,0,0*
%
*
*
G04 PC Custom Aperture Macros*
*
*
*
*
*
*
G04 PC Aperture Table*
*
%ADD010C,0.001*%
%ADD012C,0.01*%
%ADD024C,0.005*%
%ADD055C,0.004*%
%ADD060C,0.015*%
%ADD269C,0.018*%
%ADD310C,0.01575*%
*
*
*
*
G04 PC Circuitry*
G04 Layer Name PCB_ESP32-C3-MINI-1_V1. - circuitry*
%LPD*%
*
*
G04 PC Custom Flashes*
G04 Layer Name PCB_ESP32-C3-MINI-1_V1. - flashes*
%LPD*%
*
*
G04 PC Circuitry*
G04 Layer Name PCB_ESP32-C3-MINI-1_V1. - circuitry*
%LPD*%
*
G54D10*
G54D12*
G01X1982612Y1590631D02*
X1983109Y1590134D01*
X1982587Y1590631D02*
X1983084Y1590134D01*
X1981114Y1590631D02*
Y1590867D01*
X1982351D02*
X1982587Y1590631D01*
X1982376Y1590867D02*
X1982612Y1590631D01*
X1981114Y1590867D02*
Y1591430D01*
Y1591678*
X1981170Y1591734*
X1981564Y1591430D02*
X1981789D01*
X1990379Y1582535D02*
G75*
G03X1990544Y1582289I266J-0D01*
G01X1990214D02*
G03X1990379Y1582535I-101J246D01*
G01X1983109Y1590134D02*
X1990379Y1582864D01*
Y1582053*
X1981789Y1591430D02*
X1981814D01*
X1982376Y1590867*
X1981789Y1591430D02*
X1982351Y1590867D01*
X1983084Y1590134D02*
X1983109D01*
X1981114Y1590631D02*
Y1590134D01*
X1982004*
X1983084*
X1982037Y1590867D02*
X1981801Y1590631D01*
X1982004Y1590428*
Y1590134*
X1979214Y1588276D02*
G03X1979504Y1588334I102J246D01*
X1979447Y1588043I189J-188*
G01X1979164Y1587993D02*
X1981114Y1589943D01*
Y1590134*
X1968504Y1640157D02*
X2020472D01*
Y1574803*
X1968504*
Y1640157*
G54D24*
X1981475Y1591430D02*
X1981564D01*
X1977424Y1602133D02*
G03X1977882Y1602077I265J265D01*
G01X1977480Y1601675D02*
G03X1977424Y1602133I-321J193D01*
G01X1977624Y1601933*
X1972254Y1600703D02*
X1973684Y1602133D01*
X1977424*
X1978004Y1601553*
X1973904Y1584663D02*
G03X1974363Y1584971I-0J497D01*
G01Y1584355D02*
G03X1973904Y1584663I-459J-189D01*
G01X1974266*
X1972254Y1600703D02*
Y1586173D01*
X1973764Y1584663*
X1974804*
X1979724Y1603183D02*
G03X1980174Y1603487I-0J486D01*
G01X1980194Y1602870D02*
G03X1979724Y1603183I-470J-197D01*
G01X1980087*
X1971254Y1585529D02*
Y1601143D01*
X1973294Y1603183*
X1980624*
Y1603193*
X1974420Y1582703D02*
G03X1975048Y1583060I0J730D01*
G01X1974813Y1582399D02*
G03X1974420Y1582703I-393J-101D01*
G01X1974784Y1582686D02*
G03X1974420Y1582703I-364J-3765D01*
G01X1971254Y1585529D02*
X1974080Y1582703D01*
X1975204*
X1975314Y1582593*
X1975983Y1591499D02*
G03X1976091Y1590957I459J-191D01*
X1975548Y1591064I-352J-352*
G01X1976091Y1590957D02*
X1975834Y1591213D01*
X1997404Y1581063D02*
G03X1997863Y1581371I-0J497D01*
G01Y1580755D02*
G03X1997404Y1581063I-459J-189D01*
G01X1997766*
X1975454Y1591593D02*
X1977514Y1589533D01*
Y1584250*
X1983481Y1578283*
X1994234*
X1997014Y1581063*
X1998304*
X1980434Y1583973D02*
X1980495Y1583912D01*
Y1582684*
X1983895Y1579283*
X1993804*
X1999034Y1584513*
X2003264*
X2005264Y1582513*
Y1582213*
X1975871Y1589266D02*
G03X1975923Y1588715I437J-237D01*
X1975394Y1588877I-386J-314*
G01X1975923Y1588715D02*
X1975694Y1588997D01*
X2000774Y1581293D02*
G03X2001233Y1581601I-0J497D01*
G01Y1580985D02*
G03X2000774Y1581293I-459J-189D01*
G01X2001136*
X1975354Y1589413D02*
X1976394Y1588137D01*
Y1583956*
X1983067Y1577283*
X1994724*
X1996954Y1579513*
X1998984*
X2000764Y1581293*
X2001674*
X2006334Y1581533D02*
G03X2006692Y1581529I181J181D01*
G01X2006335Y1581186D02*
G03X2006334Y1581533I-175J173D01*
G01X2006469Y1581398*
X1981624Y1585723D02*
X1981734Y1585747D01*
X1981974Y1585507*
Y1582619*
X1984310Y1580283*
X1993384*
X1998614Y1585513*
X2003771*
X2006334Y1582951*
Y1581533*
X2006844Y1581023*
Y1581013*
X2004995Y1581982D02*
G03X2005264Y1581953I146J94D01*
X2005292Y1581684I123J-123*
G01X2005174Y1581863D02*
X2005264Y1581953D01*
X2004794Y1581483*
X2005264Y1581953D02*
Y1582213D01*
G54D55*
X1976421Y1599203D02*
G03X1976421I-1487J0D01*
G01X2019272Y1576055D02*
Y1618385D01*
G03X2019221Y1618436I-51J-0*
G01X1969756*
G03X1969704Y1618385I-0J-51*
G01Y1576055*
G03X1969756Y1576003I52J-0*
G01X2019221*
G03X2019272Y1576055I-0J52*
G01X2014977Y1586593D02*
G03X2012811Y1586614I-1073J1030D01*
G01X2014977Y1586593D02*
G03Y1586523I38J-35D01*
G01X2012811Y1586543D02*
G03X2014977Y1586523I1073J-1030D01*
G01X2012811Y1586543D02*
G03Y1586614I-38J36D01*
G01X2014314Y1594134D02*
G03X2012144Y1594187I-1060J1044D01*
G01X2014314Y1594134D02*
G03X2014312Y1594064I37J-36D01*
G01X2012143Y1594117D02*
G03X2014312Y1594064I1059J-1044D01*
G01X2012143Y1594117D02*
G03X2012144Y1594187I-37J36D01*
G01X2005611Y1580182D02*
G03X2007319Y1582423I1233J831D01*
G01X2005611Y1580182D02*
G03X2005542Y1580197I-43J-29D01*
G01X2003783Y1582575D02*
G03X2005542Y1580197I1011J-1092D01*
G01X2003783Y1582575D02*
G03X2003785Y1582649I-35J37D01*
G01X2002886Y1583548*
G03X2002849Y1583563I-37J-36*
G01X1999449*
G03X1999412Y1583548I-0J-51*
G01X1998487Y1582623*
G03X1998516Y1582535I37J-37*
G01X1999673Y1581646D02*
G03X1998516Y1582535I-1369J-583D01*
G01X1999673Y1581646D02*
G03X1999757Y1581629I47J20D01*
G01X2000092Y1581965*
X2000484Y1582201D02*
G03X2000092Y1581965I280J-908D01*
G01X2000484Y1582201D02*
G03X2000509Y1582218I-15J49D01*
G01X2000896Y1580025D02*
G03X2000509Y1582218I778J1268D01*
G01X2000896Y1580025D02*
G03X2000832Y1580018I-27J-44D01*
G01X1999656Y1578841*
X1998984Y1578563D02*
G03X1999656Y1578841I-0J950D01*
G01X1998984Y1578563D02*
X1997369D01*
G03X1997332Y1578548I-0J-51*
G01X1995396Y1576611*
X1994724Y1576333D02*
G03X1995396Y1576611I-0J950D01*
G01X1994724Y1576333D02*
X1983067D01*
X1982395Y1576611D02*
G03X1983067Y1576333I672J672D01*
G01X1982395Y1576611D02*
X1976823Y1582183D01*
G03X1976738Y1582162I-36J-36*
G01X1974101Y1581732D02*
G03X1976738Y1582162I1213J861D01*
G01X1974101Y1581732D02*
G03X1974060Y1581753I-42J-30D01*
G01X1973408Y1582031D02*
G03X1974060Y1581753I672J672D01*
G01X1973408Y1582031D02*
X1970582Y1584857D01*
X1970304Y1585529D02*
G03X1970582Y1584857I950J-0D01*
G01X1970304Y1585529D02*
Y1601143D01*
X1970582Y1601815D02*
G03X1970304Y1601143I672J-672D01*
G01X1970582Y1601815D02*
X1972622Y1603855D01*
X1973294Y1604133D02*
G03X1972622Y1603855I-0J-950D01*
G01X1973294Y1604133D02*
X1979447D01*
G03X1979486Y1604152I-0J52*
G01X1979503Y1602215D02*
G03X1979486Y1604152I1121J978D01*
G01X1979503Y1602215D02*
G03X1979464Y1602233I-39J-33D01*
G01X1979409*
G03X1979362Y1602160I-0J-51*
G01X1976573Y1601146D02*
G03X1979362Y1602160I1431J407D01*
G01X1976573Y1601146D02*
G03X1976524Y1601183I-49J-14D01*
G01X1974099*
G03X1974062Y1601168I-0J-51*
G01X1973219Y1600325*
G03X1973204Y1600288I37J-37*
G01Y1586588*
G03X1973219Y1586552I52J0*
G01X1973884Y1585887*
G03X1973950Y1585881I36J36*
G01X1975373Y1586038D02*
G03X1973950Y1585881I-569J-1375D01*
G01X1975373Y1586038D02*
G03X1975444Y1586085I19J47D01*
G01Y1587781*
G03X1975432Y1587813I-52J-0*
G01X1975356Y1587907*
G03X1975317Y1587926I-40J-33*
G01X1974354Y1590515D02*
G03X1975317Y1587926I1000J-1102D01*
G01X1974354Y1590515D02*
G03X1974358Y1590588I-34J38D01*
G01X1974297Y1592528D02*
G03X1974358Y1590588I1157J-935D01*
G01X1974297Y1592528D02*
G03X1974290Y1592600I-40J33D01*
G01X1974264Y1594843D02*
G03X1974290Y1592600I990J-1110D01*
G01X1974264Y1594843D02*
G03X1974265Y1594919I-35J39D01*
G01X1976284Y1594883D02*
G03X1974265Y1594919I-990J1110D01*
G01X1976284Y1594883D02*
G03X1976283Y1594807I35J-38D01*
G01X1976411Y1592798D02*
G03X1976283Y1594807I-1157J935D01*
G01X1976411Y1592798D02*
G03X1976418Y1592726I40J-32D01*
G01X1976937Y1591479D02*
G03X1976418Y1592726I-1483J114D01*
G01X1976937Y1591479D02*
G03X1976952Y1591439I52J-4D01*
G01X1978186Y1590205*
X1978464Y1589533D02*
G03X1978186Y1590205I-950J0D01*
G01X1978464Y1589533D02*
Y1589389D01*
G03X1978537Y1589342I52J0*
G01X1978921Y1589461D02*
G03X1978537Y1589342I243J-1468D01*
G01X1978921Y1589461D02*
G03X1978949Y1589475I-9J51D01*
G01X1979899Y1590425*
G03X1979914Y1590462I-37J37*
G01Y1590631*
Y1590867*
Y1590918*
G03X1979899Y1590955I-52J0*
G01X1979289Y1591565*
X1978864Y1592590D02*
G03X1979289Y1591565I1450J0D01*
G01X1978864Y1592590D02*
Y1597410D01*
X1979289Y1598435D02*
G03X1978864Y1597410I1025J-1025D01*
G01X1979289Y1598435D02*
X1983270Y1602417D01*
G03X1983285Y1602453I-36J36*
G01Y1602651*
Y1603146*
G03X1983270Y1603183I-51J0*
G01X1978238Y1608215*
G03X1978213Y1608229I-36J-37*
G01X1978853Y1611134D02*
G03X1978213Y1608229I-329J-1451D01*
G01X1978853Y1611134D02*
G03X1978863Y1611133I12J50D01*
G01X1979846Y1610708D02*
G03X1978863Y1611133I-1026J-1025D01*
G01X1979846Y1610708D02*
X1985826Y1604728D01*
G03X1985862Y1604713I36J37*
G01X1986167*
X1989111*
G03X1989147Y1604728I-0J52*
G01X1990739Y1606309*
G03X1990754Y1606345I-37J36*
G01Y1611065*
G03X1990753Y1611077I-52J0*
G01X1993655D02*
G03X1990753I-1451J326D01*
G01X1993655D02*
G03X1993654Y1611065I51J-12D01*
G01Y1605720*
X1993226Y1604691D02*
G03X1993654Y1605720I-1022J1029D01*
G01X1993226Y1604691D02*
X1990751Y1602234D01*
X1989729Y1601813D02*
G03X1990751Y1602234I0J1450D01*
G01X1989729Y1601813D02*
X1986789D01*
G03X1986753Y1601798I0J-51*
G01X1986729Y1601774*
X1986581Y1601626*
X1986017Y1601062*
X1985761Y1600806*
X1981779Y1596824*
G03X1981764Y1596788I37J-36*
G01Y1593212*
G03X1981779Y1593176I52J0*
G01X1982195Y1592760*
X1982500Y1592455*
X1983063Y1591892*
X1983176Y1591765D02*
G03X1983063Y1591892I-1139J-898D01*
G01X1983176Y1591765D02*
G03X1983180Y1591760I40J32D01*
G01X1983225Y1591715*
X1983461Y1591479*
X1983958Y1590982*
X1991227Y1583713*
X1991576Y1582950D02*
G03X1991227Y1583713I-1197J-86D01*
G01X1991576Y1582950D02*
G03X1991586Y1582923I51J3D01*
G01X1991668Y1581311D02*
G03X1991586Y1582923I-1289J742D01*
G01X1991668Y1581311D02*
G03X1991713Y1581233I45J-26D01*
G01X1992969*
G03X1993006Y1581248I0J52*
G01X1997942Y1586185*
X1998614Y1586463D02*
G03X1997942Y1586185I-0J-950D01*
G01X1998614Y1586463D02*
X2003771D01*
X2004443Y1586185D02*
G03X2003771Y1586463I-672J-672D01*
G01X2004443Y1586185D02*
X2007006Y1583622D01*
X2007284Y1582951D02*
G03X2007006Y1583622I-950J-0D01*
G01X2007284Y1582951D02*
Y1582472D01*
G03X2007319Y1582423I52J-0*
G01X1976135Y1609212D02*
G03X1973873I-1131J966D01*
G01X1976135D02*
G03Y1609145I39J-34D01*
G01X1973873D02*
G03X1976135I1131J-967D01*
G01X1973873D02*
G03Y1609212I-39J33D01*
G01X1976421Y1599203D02*
G03X1976421I-1487J0D01*
G01X1969704Y1618249D02*
X2019272D01*
X1969704Y1617889D02*
X2019272D01*
X1969704Y1617529D02*
X2019272D01*
X1969704Y1617169D02*
X2019272D01*
X1969704Y1616809D02*
X2019272D01*
X1969704Y1616449D02*
X2019272D01*
X1969704Y1616089D02*
X2019272D01*
X1969704Y1615729D02*
X2019272D01*
X1969704Y1615369D02*
X2019272D01*
X1969704Y1615009D02*
X2019272D01*
X1969704Y1614649D02*
X2019272D01*
X1969704Y1614289D02*
X2019272D01*
X1969704Y1613929D02*
X2019272D01*
X1969704Y1613569D02*
X2019272D01*
X1969704Y1613209D02*
X2019272D01*
X1992555Y1612849D02*
X2019272D01*
X1993221Y1612489D02*
X2019272D01*
X1993503Y1612129D02*
X2019272D01*
X1993646Y1611769D02*
X2019272D01*
X1993691Y1611409D02*
X2019272D01*
X1993654Y1611049D02*
X2019272D01*
X1993654Y1610689D02*
X2019272D01*
X1993654Y1610329D02*
X2019272D01*
X1993654Y1609969D02*
X2019272D01*
X1993654Y1609609D02*
X2019272D01*
X1993654Y1609249D02*
X2019272D01*
X1993654Y1608889D02*
X2019272D01*
X1993654Y1608529D02*
X2019272D01*
X1993654Y1608169D02*
X2019272D01*
X1993654Y1607809D02*
X2019272D01*
X1993654Y1607449D02*
X2019272D01*
X1993654Y1607089D02*
X2019272D01*
X1993654Y1606729D02*
X2019272D01*
X1993654Y1606369D02*
X2019272D01*
X1993654Y1606009D02*
X2019272D01*
X1993652Y1605649D02*
X2019272D01*
X1993588Y1605289D02*
X2019272D01*
X1993419Y1604929D02*
X2019272D01*
X1993102Y1604569D02*
X2019272D01*
X1992740Y1604209D02*
X2019272D01*
X1992377Y1603849D02*
X2019272D01*
X1992015Y1603489D02*
X2019272D01*
X1991652Y1603129D02*
X2019272D01*
X1991289Y1602769D02*
X2019272D01*
X1990927Y1602409D02*
X2019272D01*
X1990522Y1602049D02*
X2019272D01*
X1986643Y1601689D02*
X2019272D01*
X1986283Y1601329D02*
X2019272D01*
X1985923Y1600969D02*
X2019272D01*
X1985563Y1600609D02*
X2019272D01*
X1985203Y1600249D02*
X2019272D01*
X1984843Y1599889D02*
X2019272D01*
X1984483Y1599529D02*
X2019272D01*
X1984123Y1599169D02*
X2019272D01*
X1983763Y1598809D02*
X2019272D01*
X1983403Y1598449D02*
X2019272D01*
X1983043Y1598089D02*
X2019272D01*
X1982683Y1597729D02*
X2019272D01*
X1982323Y1597369D02*
X2019272D01*
X1981963Y1597009D02*
X2019272D01*
X2013479Y1596649D02*
X2019272D01*
X2014244Y1596289D02*
X2019272D01*
X2014538Y1595929D02*
X2019272D01*
X2014689Y1595569D02*
X2019272D01*
X2014741Y1595209D02*
X2019272D01*
X2014704Y1594849D02*
X2019272D01*
X2014572Y1594489D02*
X2019272D01*
X2014309Y1594129D02*
X2019272D01*
X2014517Y1593769D02*
X2019272D01*
X2014652Y1593409D02*
X2019272D01*
X2014690Y1593049D02*
X2019272D01*
X2014639Y1592689D02*
X2019272D01*
X2014490Y1592329D02*
X2019272D01*
X2014199Y1591969D02*
X2019272D01*
X2013463Y1591609D02*
X2019272D01*
X1983692Y1591249D02*
X2019272D01*
X1984052Y1590889D02*
X2019272D01*
X1984412Y1590529D02*
X2019272D01*
X1984772Y1590169D02*
X2019272D01*
X1985132Y1589809D02*
X2019272D01*
X1985492Y1589449D02*
X2019272D01*
X2014159Y1589089D02*
X2019272D01*
X2014899Y1588729D02*
X2019272D01*
X2015191Y1588369D02*
X2019272D01*
X2015341Y1588009D02*
X2019272D01*
X2015391Y1587649D02*
X2019272D01*
X2015353Y1587289D02*
X2019272D01*
X2015219Y1586929D02*
X2019272D01*
X2014964Y1586569D02*
X2019272D01*
X2015199Y1586209D02*
X2019272D01*
X2015333Y1585849D02*
X2019272D01*
X2015371Y1585489D02*
X2019272D01*
X2015321Y1585129D02*
X2019272D01*
X2015172Y1584769D02*
X2019272D01*
X2014880Y1584409D02*
X2019272D01*
X2014144Y1584049D02*
X2019272D01*
X2006940Y1583689D02*
X2019272D01*
X2007206Y1583329D02*
X2019272D01*
X2007284Y1582969D02*
X2019272D01*
X2007284Y1582609D02*
X2019272D01*
X2007672Y1582249D02*
X2019272D01*
X2008047Y1581889D02*
X2019272D01*
X2008239Y1581529D02*
X2019272D01*
X2008323Y1581169D02*
X2019272D01*
X2008317Y1580809D02*
X2019272D01*
X2008220Y1580449D02*
X2019272D01*
X2008009Y1580089D02*
X2019272D01*
X2007594Y1579729D02*
X2019272D01*
X2000183Y1579369D02*
X2019272D01*
X1999823Y1579009D02*
X2019272D01*
X1999378Y1578649D02*
X2019272D01*
X1997073Y1578289D02*
X2019272D01*
X1996713Y1577929D02*
X2019272D01*
X1996353Y1577569D02*
X2019272D01*
X1995993Y1577209D02*
X2019272D01*
X1995633Y1576849D02*
X2019272D01*
X1995245Y1576489D02*
X2019272D01*
X1969704Y1576129D02*
X2019272D01*
X1985852Y1589089D02*
X2013649D01*
X2006580Y1584049D02*
X2013623D01*
X1981764Y1596649D02*
X2013029D01*
X1983332Y1591609D02*
X2012942D01*
X1986212Y1588729D02*
X2012909D01*
X2006220Y1584409D02*
X2012888D01*
X1988372Y1586569D02*
X2012824D01*
X1986572Y1588369D02*
X2012617D01*
X2005860Y1584769D02*
X2012596D01*
X1988012Y1586929D02*
X2012589D01*
X2004419Y1586209D02*
X2012569D01*
X1986932Y1588009D02*
X2012467D01*
X1987652Y1587289D02*
X2012455D01*
X2005500Y1585129D02*
X2012447D01*
X2004780Y1585849D02*
X2012435D01*
X1987292Y1587649D02*
X2012417D01*
X2005140Y1585489D02*
X2012397D01*
X1981764Y1596289D02*
X2012264D01*
X1982986Y1591969D02*
X2012206D01*
X1981764Y1594129D02*
X2012151D01*
X1981764Y1595929D02*
X2011970D01*
X1981764Y1594489D02*
X2011936D01*
X1982626Y1592329D02*
X2011915D01*
X1981764Y1593769D02*
X2011888D01*
X1981764Y1595569D02*
X2011819D01*
X1981764Y1594849D02*
X2011803D01*
X1981764Y1595209D02*
X2011767D01*
X1982266Y1592689D02*
X2011765D01*
X1981764Y1593409D02*
X2011753D01*
X1981906Y1593049D02*
X2011715D01*
X2000543Y1579729D02*
X2006094D01*
X2005312Y1580089D02*
X2005679D01*
X2002547D02*
X2004276D01*
X2002368Y1582609D02*
X2003800D01*
X2002898Y1580449D02*
X2003725D01*
X2002814Y1582249D02*
X2003518D01*
X2003080Y1580809D02*
X2003468D01*
X1998833Y1582969D02*
X2003465D01*
X2003037Y1581889D02*
X2003363D01*
X2003156Y1581169D02*
X2003340D01*
X2003143Y1581529D02*
X2003307D01*
X1999193Y1583329D02*
X2003105D01*
X1998477Y1582609D02*
X2000979D01*
X1999203Y1582249D02*
X2000534D01*
X1999541Y1581889D02*
X2000016D01*
X1988732Y1586209D02*
X1997967D01*
X1989092Y1585849D02*
X1997606D01*
X1989452Y1585489D02*
X1997246D01*
X1989812Y1585129D02*
X1996886D01*
X1990172Y1584769D02*
X1996526D01*
X1990532Y1584409D02*
X1996166D01*
X1990892Y1584049D02*
X1995806D01*
X1991251Y1583689D02*
X1995446D01*
X1991485Y1583329D02*
X1995086D01*
X1991574Y1582969D02*
X1994726D01*
X1991759Y1582609D02*
X1994366D01*
X1991854Y1582249D02*
X1994006D01*
X1991857Y1581889D02*
X1993646D01*
X1991771Y1581529D02*
X1993286D01*
X1969704Y1612849D02*
X1991853D01*
X1969704Y1612489D02*
X1991187D01*
X1969704Y1612129D02*
X1990905D01*
X1969704Y1611769D02*
X1990762D01*
X1979308Y1611049D02*
X1990754D01*
X1979866Y1610689D02*
X1990754D01*
X1980226Y1610329D02*
X1990754D01*
X1980586Y1609969D02*
X1990754D01*
X1980946Y1609609D02*
X1990754D01*
X1981306Y1609249D02*
X1990754D01*
X1981666Y1608889D02*
X1990754D01*
X1982026Y1608529D02*
X1990754D01*
X1982386Y1608169D02*
X1990754D01*
X1982746Y1607809D02*
X1990754D01*
X1983106Y1607449D02*
X1990754D01*
X1983466Y1607089D02*
X1990754D01*
X1983826Y1606729D02*
X1990754D01*
X1984186Y1606369D02*
X1990754D01*
X1975840Y1611409D02*
X1990716D01*
X1984546Y1606009D02*
X1990437D01*
X1984906Y1605649D02*
X1990074D01*
X1985266Y1605289D02*
X1989711D01*
X1985626Y1604929D02*
X1989349D01*
X1982110Y1603129D02*
X1983285D01*
X1982050Y1602769D02*
X1983285D01*
X1981888Y1602409D02*
X1983262D01*
X1982082Y1603489D02*
X1982964D01*
X1981574Y1602049D02*
X1982902D01*
X1981959Y1603849D02*
X1982604D01*
X1969704Y1576489D02*
X1982546D01*
X1979485Y1601689D02*
X1982542D01*
X1981711Y1604209D02*
X1982244D01*
X1979474Y1601329D02*
X1982182D01*
X1969704Y1576849D02*
X1982158D01*
X1981190Y1604569D02*
X1981884D01*
X1979372Y1600969D02*
X1981822D01*
X1969704Y1577209D02*
X1981798D01*
X1969704Y1604929D02*
X1981524D01*
X1979153Y1600609D02*
X1981462D01*
X1969704Y1577569D02*
X1981438D01*
X1969704Y1605289D02*
X1981164D01*
X1978719Y1600249D02*
X1981102D01*
X1969704Y1577929D02*
X1981078D01*
X1969704Y1605649D02*
X1980804D01*
X1976254Y1599889D02*
X1980742D01*
X1969704Y1578289D02*
X1980718D01*
X1969704Y1606009D02*
X1980444D01*
X1976385Y1599529D02*
X1980382D01*
X1969704Y1578649D02*
X1980358D01*
X1969704Y1606369D02*
X1980084D01*
X1969704Y1604569D02*
X1980058D01*
X1976421Y1599169D02*
X1980022D01*
X1969704Y1579009D02*
X1979998D01*
X1977502Y1590889D02*
X1979914D01*
X1977862Y1590529D02*
X1979914D01*
X1975338Y1606729D02*
X1979724D01*
X1979407Y1602049D02*
X1979674D01*
X1976368Y1598809D02*
X1979662D01*
X1978220Y1590169D02*
X1979642D01*
X1969704Y1579369D02*
X1979638D01*
X1977142Y1591249D02*
X1979605D01*
X1969704Y1604209D02*
X1979537D01*
X1976017Y1607089D02*
X1979364D01*
X1976216Y1598449D02*
X1979302D01*
X1978423Y1589809D02*
X1979282D01*
X1969704Y1579729D02*
X1979278D01*
X1976941Y1591609D02*
X1979247D01*
X1975919Y1598089D02*
X1979033D01*
X1976300Y1607449D02*
X1979004D01*
X1976893Y1591969D02*
X1979004D01*
X1969704Y1580089D02*
X1978918D01*
X1975130Y1597729D02*
X1978899D01*
X1976747Y1592329D02*
X1978888D01*
X1975860Y1597369D02*
X1978864D01*
X1976381Y1597009D02*
X1978864D01*
X1976629Y1596649D02*
X1978864D01*
X1976752Y1596289D02*
X1978864D01*
X1976780Y1595929D02*
X1978864D01*
X1976720Y1595569D02*
X1978864D01*
X1976558Y1595209D02*
X1978864D01*
X1976267Y1594849D02*
X1978864D01*
X1976535Y1594489D02*
X1978864D01*
X1976688Y1594129D02*
X1978864D01*
X1976741Y1593769D02*
X1978864D01*
X1976706Y1593409D02*
X1978864D01*
X1976575Y1593049D02*
X1978864D01*
X1976460Y1592689D02*
X1978864D01*
X1978464Y1589449D02*
X1978857D01*
X1976445Y1607809D02*
X1978644D01*
X1969704Y1580449D02*
X1978558D01*
X1976491Y1608169D02*
X1978284D01*
X1969704Y1580809D02*
X1978198D01*
X1976210Y1611049D02*
X1977934D01*
X1975742Y1581169D02*
X1977838D01*
X1976450Y1608529D02*
X1977586D01*
X1976353Y1581529D02*
X1977478D01*
X1976401Y1610689D02*
X1977428D01*
X1975992Y1600249D02*
X1977289D01*
X1976311Y1608889D02*
X1977266D01*
X1976484Y1610329D02*
X1977184D01*
X1976624Y1581889D02*
X1977118D01*
X1976165Y1609249D02*
X1977101D01*
X1976477Y1609969D02*
X1977064D01*
X1976378Y1609609D02*
X1977038D01*
X1975421Y1600609D02*
X1976855D01*
X1973863Y1600969D02*
X1976636D01*
X1973204Y1587649D02*
X1975444D01*
X1973204Y1587289D02*
X1975444D01*
X1973204Y1586929D02*
X1975444D01*
X1973208Y1586569D02*
X1975444D01*
X1973562Y1586209D02*
X1975444D01*
X1969704Y1581169D02*
X1974886D01*
X1973204Y1588009D02*
X1974864D01*
X1973204Y1597729D02*
X1974738D01*
X1973204Y1597369D02*
X1974728D01*
X1969704Y1606729D02*
X1974670D01*
X1973503Y1600609D02*
X1974447D01*
X1973204Y1590529D02*
X1974365D01*
X1973204Y1588369D02*
X1974295D01*
X1969704Y1581529D02*
X1974275D01*
X1973204Y1594849D02*
X1974269D01*
X1973204Y1597009D02*
X1974207D01*
X1973204Y1592689D02*
X1974195D01*
X1969704Y1611409D02*
X1974168D01*
X1973204Y1592329D02*
X1974161D01*
X1973204Y1590889D02*
X1974144D01*
X1973204Y1590169D02*
X1974073D01*
X1973204Y1588729D02*
X1974033D01*
X1973204Y1595209D02*
X1974030D01*
X1973204Y1591969D02*
X1974015D01*
X1973204Y1591249D02*
X1974007D01*
X1969704Y1607089D02*
X1973991D01*
X1973204Y1594489D02*
X1973973D01*
X1973204Y1591609D02*
X1973966D01*
X1973204Y1596649D02*
X1973959D01*
X1973204Y1598089D02*
X1973949D01*
X1973204Y1593049D02*
X1973933D01*
X1973204Y1589809D02*
X1973920D01*
X1973204Y1589089D02*
X1973902D01*
X1973204Y1600249D02*
X1973876D01*
X1973204Y1595569D02*
X1973868D01*
X1973204Y1589449D02*
X1973867D01*
X1969704Y1609249D02*
X1973843D01*
X1973204Y1596289D02*
X1973836D01*
X1973204Y1594129D02*
X1973820D01*
X1973204Y1595929D02*
X1973808D01*
X1973204Y1593409D02*
X1973802D01*
X1969704Y1611049D02*
X1973798D01*
X1973204Y1593769D02*
X1973767D01*
X1969704Y1607449D02*
X1973708D01*
X1969704Y1608889D02*
X1973697D01*
X1973204Y1598449D02*
X1973652D01*
X1969704Y1609609D02*
X1973630D01*
X1973204Y1599889D02*
X1973614D01*
X1969704Y1610689D02*
X1973607D01*
X1969704Y1581889D02*
X1973591D01*
X1969704Y1607809D02*
X1973563D01*
X1969704Y1608529D02*
X1973558D01*
X1969704Y1609969D02*
X1973531D01*
X1969704Y1610329D02*
X1973524D01*
X1969704Y1608169D02*
X1973516D01*
X1973204Y1598809D02*
X1973500D01*
X1973204Y1599529D02*
X1973482D01*
X1973204Y1599169D02*
X1973447D01*
X1969704Y1582249D02*
X1973191D01*
X1969704Y1582609D02*
X1972831D01*
X1969704Y1603849D02*
X1972616D01*
X1969704Y1582969D02*
X1972471D01*
X1969704Y1603489D02*
X1972256D01*
X1969704Y1583329D02*
X1972111D01*
X1969704Y1603129D02*
X1971896D01*
X1969704Y1583689D02*
X1971751D01*
X1969704Y1602769D02*
X1971536D01*
X1969704Y1584049D02*
X1971391D01*
X1969704Y1602409D02*
X1971176D01*
X1969704Y1584409D02*
X1971031D01*
X1969704Y1602049D02*
X1970816D01*
X1969704Y1584769D02*
X1970671D01*
X1969704Y1601689D02*
X1970476D01*
X1969704Y1585129D02*
X1970392D01*
X1969704Y1601329D02*
X1970322D01*
X1969704Y1585489D02*
X1970305D01*
X1969704Y1600969D02*
X1970304D01*
X1969704Y1600609D02*
X1970304D01*
X1969704Y1600249D02*
X1970304D01*
X1969704Y1599889D02*
X1970304D01*
X1969704Y1599529D02*
X1970304D01*
X1969704Y1599169D02*
X1970304D01*
X1969704Y1598809D02*
X1970304D01*
X1969704Y1598449D02*
X1970304D01*
X1969704Y1598089D02*
X1970304D01*
X1969704Y1597729D02*
X1970304D01*
X1969704Y1597369D02*
X1970304D01*
X1969704Y1597009D02*
X1970304D01*
X1969704Y1596649D02*
X1970304D01*
X1969704Y1596289D02*
X1970304D01*
X1969704Y1595929D02*
X1970304D01*
X1969704Y1595569D02*
X1970304D01*
X1969704Y1595209D02*
X1970304D01*
X1969704Y1594849D02*
X1970304D01*
X1969704Y1594489D02*
X1970304D01*
X1969704Y1594129D02*
X1970304D01*
X1969704Y1593769D02*
X1970304D01*
X1969704Y1593409D02*
X1970304D01*
X1969704Y1593049D02*
X1970304D01*
X1969704Y1592689D02*
X1970304D01*
X1969704Y1592329D02*
X1970304D01*
X1969704Y1591969D02*
X1970304D01*
X1969704Y1591609D02*
X1970304D01*
X1969704Y1591249D02*
X1970304D01*
X1969704Y1590889D02*
X1970304D01*
X1969704Y1590529D02*
X1970304D01*
X1969704Y1590169D02*
X1970304D01*
X1969704Y1589809D02*
X1970304D01*
X1969704Y1589449D02*
X1970304D01*
X1969704Y1589089D02*
X1970304D01*
X1969704Y1588729D02*
X1970304D01*
X1969704Y1588369D02*
X1970304D01*
X1969704Y1588009D02*
X1970304D01*
X1969704Y1587649D02*
X1970304D01*
X1969704Y1587289D02*
X1970304D01*
X1969704Y1586929D02*
X1970304D01*
X1969704Y1586569D02*
X1970304D01*
X1969704Y1586209D02*
X1970304D01*
X1969704Y1585849D02*
X1970304D01*
G54D60*
X1986119Y1603215D02*
X1986167Y1603263D01*
X1984992Y1602800D02*
Y1603215D01*
X1985407Y1602800D02*
X1985556Y1602651D01*
X1985288Y1603215D02*
X1985704Y1602800D01*
X1984992Y1602651D02*
Y1602800D01*
X1984735Y1602088D02*
Y1602651D01*
X1984992Y1602088D02*
X1985556Y1602651D01*
X1984735D02*
Y1603472D01*
X1984992Y1603215*
X1986167Y1603263D02*
X1985240D01*
X1985288Y1603215*
X1982037Y1590867D02*
X1981475Y1591430D01*
X1981170Y1591734*
X1984735Y1602088D02*
Y1601831D01*
X1984992Y1602088*
Y1602651*
Y1603215D02*
X1985040Y1603263D01*
X1985240*
X1984992Y1603215D02*
X1985407Y1602800D01*
X1986167Y1603263D02*
X1989729D01*
X1992204Y1605720*
Y1611403*
X1985556Y1602651D02*
X1985704Y1602800D01*
X1986119Y1603215*
X1984735Y1601831D02*
X1980314Y1597410D01*
Y1592590*
X1981170Y1591734*
X1978524Y1609683D02*
X1978820D01*
X1985240Y1603263*
G54D269*
X1984872Y1637933D03*
Y1626515D03*
X1993143Y1626535D03*
X1993127Y1637933D03*
X2001375D03*
Y1626515D03*
X2009623D03*
Y1637933D03*
X2017871D03*
Y1622460D03*
G54D310*
X1983514Y1583253D03*
X1985024Y1581823D03*
X1975294Y1595993D03*
X1974934Y1599203D03*
X1975454Y1591593D03*
X1980434Y1583973D03*
X1975354Y1589413D03*
X1974804Y1584663D03*
X1978004Y1601553D03*
X1975314Y1582593D03*
X1980624Y1603193D03*
X1975254Y1593733D03*
X1975004Y1608178D03*
X1979164Y1587993D03*
X1975004Y1610178D03*
X1978524Y1609683D03*
X1977166Y1614764D03*
X1980454Y1611653D03*
X1983654Y1592903D03*
X1979054Y1604723D03*
X1974854Y1586843D03*
X1981754Y1610203D03*
X1983034Y1597143D03*
X1977164Y1604723D03*
X1973824Y1581143D03*
X1981624Y1585723D03*
X2013254Y1595178D03*
X2013202Y1593073D03*
X2013904Y1587623D03*
X2013884Y1585513D03*
X1998304Y1581063D03*
X2004794Y1581483D03*
X2001674Y1581293D03*
X1988254Y1582053D03*
X1992204Y1611403D03*
X1990379Y1582053D03*
X1999904Y1582573D03*
X2014174Y1609055D03*
X2013937Y1590118D03*
X2011454Y1589833D03*
X2011422Y1597833D03*
X2013268Y1613189D03*
X2011024Y1611417D03*
X2009212Y1598053D03*
X2003192Y1612753D03*
X1999661Y1613079D03*
X2005512Y1613386D03*
X1997264Y1608743D03*
X2006299Y1587402D03*
X1991339Y1592902D03*
X2011879Y1584678D03*
X1987304Y1592903D03*
X2009114Y1591103D03*
X2006182Y1593773D03*
X1990554Y1589653D03*
X2010835Y1599976D03*
X2008174Y1582623D03*
X1986654Y1613253D03*
X1989204Y1613303D03*
X1997524Y1611473D03*
X1989654Y1608653D03*
X1991604Y1613453D03*
X2008662Y1613386D03*
X1991339Y1600602D03*
X1989654Y1611303D03*
X1987304Y1600603D03*
X1990704Y1597183D03*
X1994994Y1592893D03*
X1995992Y1613583D03*
X2014164Y1581253D03*
X2006844Y1581013D03*
X1973622Y1617717D03*
X1983465D03*
X1973622Y1615748D03*
X2005512Y1617717D03*
X1996063D03*
X2015355Y1615748D03*
X1986614Y1617717D03*
X2015355D03*
G74*
X0Y0D02*
M02*
