%
T1C.00984F0S0
X197382Y158114
X19748Y158466
X197485Y158684
X197493Y15992
X197525Y159373
X197529Y159599
X197531Y158259
X197535Y158941
X197545Y159159
X197716Y160472
X1978Y160155
X197905Y160472
X197916Y158799
X198043Y158397
X198062Y160319
X198162Y158572
X198303Y159714
X198351Y158325
X198365Y15929
X198502Y158182
X19873Y15929
X19873Y16006
X198825Y158205
X199038Y158205
X199055Y158965
X19907Y159718
X199134Y15929
X199134Y16006
X199499Y159289
X19983Y158106
X19999Y158257
X200167Y158129
X200479Y158148
X200618Y159377
X20063Y15874
X200684Y158101
X200817Y158262
X200911Y15911
X200921Y159805
X201083Y159998
X201142Y159783
X201145Y158983
X201188Y158468
X20132Y159307
X201325Y159518
X201388Y158551
X20139Y158762
X201394Y159012
X201416Y158125
X201535Y161575
X201535Y161772
X201417Y160906
X201327Y161319
X201102Y161142
X200866Y161339
X200551Y161339
X200551Y161772
X200319Y161275
X199966Y161308
X199752Y161147
X199726Y160874
X199606Y161772
X199599Y161358
X19922Y16114
X19916Y161345
X198965Y160865
X198965Y16113
X19892Y16133
X198665Y161325
X198661Y161772
X198346Y161772
X198175Y16102
X198045Y161165
X197852Y160968
X197717Y161476
X1975Y160818
X1975Y161018
X197362Y161575
X197362Y161772
T2C.012F0S0
X198487Y162651
X199314Y162653
X200137Y162652
X200962Y162652
X201787Y162246
X201787Y163793
X200962Y163793
X200137Y163793
X199313Y163793
X198487Y163793
M30
