*
*
G04 PADS 9.5 Build Number: 522968 generated Gerber (RS-274-X) file*
G04 PC Version=2.1*
*
%IN "PCB_ESP32-C3-MINI-1_V1."*%
*
%MOIN*%
*
%FSLAX35Y35*%
*
*
*
*
G04 PC Standard Apertures*
*
*
G04 Thermal Relief Aperture macro.*
%AMTER*
1,1,$1,0,0*
1,0,$1-$2,0,0*
21,0,$3,$4,0,0,45*
21,0,$3,$4,0,0,135*
%
*
*
G04 Annular Aperture macro.*
%AMANN*
1,1,$1,0,0*
1,0,$2,0,0*
%
*
*
G04 Odd Aperture macro.*
%AMODD*
1,1,$1,0,0*
1,0,$1-0.005,0,0*
%
*
*
G04 PC Custom Aperture Macros*
*
*
*
*
*
*
G04 PC Aperture Table*
*
%ADD010C,0.001*%
%ADD011R,0.02X0.02*%
%ADD012C,0.01*%
%ADD024C,0.005*%
%ADD027C,0.01102*%
%ADD031C,0.00394*%
%ADD036C,0.02362*%
%ADD296R,0.01181X0.01575*%
%ADD301R,0.01575X0.01181*%
%ADD308R,0.02756X0.01575*%
*
*
*
*
G04 PC Circuitry*
G04 Layer Name PCB_ESP32-C3-MINI-1_V1. - circuitry*
%LPD*%
*
*
G04 PC Custom Flashes*
G04 Layer Name PCB_ESP32-C3-MINI-1_V1. - flashes*
%LPD*%
*
*
G04 PC Circuitry*
G04 Layer Name PCB_ESP32-C3-MINI-1_V1. - circuitry*
%LPD*%
*
G54D10*
G01X1989298Y1597305D02*
X1986724Y1594731D01*
X1989298Y1592157*
X1991872Y1594731*
X1989298Y1597305*
X1989252Y1592203D02*
X1989344D01*
X1989152Y1592303D02*
X1989444D01*
X1989052Y1592403D02*
X1989544D01*
X1988952Y1592503D02*
X1989644D01*
X1988852Y1592603D02*
X1989744D01*
X1988752Y1592703D02*
X1989844D01*
X1988652Y1592803D02*
X1989944D01*
X1988552Y1592903D02*
X1990044D01*
X1988452Y1593003D02*
X1990144D01*
X1988352Y1593103D02*
X1990244D01*
X1988252Y1593203D02*
X1990344D01*
X1988152Y1593303D02*
X1990444D01*
X1988052Y1593403D02*
X1990544D01*
X1987952Y1593503D02*
X1990644D01*
X1987852Y1593603D02*
X1990744D01*
X1987752Y1593703D02*
X1990844D01*
X1987652Y1593803D02*
X1990944D01*
X1987552Y1593903D02*
X1991044D01*
X1987452Y1594003D02*
X1991144D01*
X1987352Y1594103D02*
X1991244D01*
X1987252Y1594203D02*
X1991344D01*
X1987152Y1594303D02*
X1991444D01*
X1987052Y1594403D02*
X1991544D01*
X1986952Y1594503D02*
X1991644D01*
X1986852Y1594603D02*
X1991744D01*
X1986752Y1594703D02*
X1991844D01*
X1986796Y1594803D02*
X1991800D01*
X1986896Y1594903D02*
X1991700D01*
X1986996Y1595003D02*
X1991600D01*
X1987096Y1595103D02*
X1991500D01*
X1987196Y1595203D02*
X1991400D01*
X1987296Y1595303D02*
X1991300D01*
X1987396Y1595403D02*
X1991200D01*
X1987496Y1595503D02*
X1991100D01*
X1987596Y1595603D02*
X1991000D01*
X1987696Y1595703D02*
X1990900D01*
X1987796Y1595803D02*
X1990800D01*
X1987896Y1595903D02*
X1990700D01*
X1987996Y1596003D02*
X1990600D01*
X1988096Y1596103D02*
X1990500D01*
X1988196Y1596203D02*
X1990400D01*
X1988296Y1596303D02*
X1990300D01*
X1988396Y1596403D02*
X1990200D01*
X1988496Y1596503D02*
X1990100D01*
X1988596Y1596603D02*
X1990000D01*
X1988696Y1596703D02*
X1989900D01*
X1988796Y1596803D02*
X1989800D01*
X1988896Y1596903D02*
X1989700D01*
X1988996Y1597003D02*
X1989600D01*
X1989096Y1597103D02*
X1989500D01*
X1989196Y1597203D02*
X1989400D01*
X1989296Y1597303D02*
X1989300D01*
X1986804Y1594651D02*
Y1594811D01*
X1986904Y1594551D02*
Y1594911D01*
X1987004Y1594451D02*
Y1595011D01*
X1987104Y1594351D02*
Y1595111D01*
X1987204Y1594251D02*
Y1595211D01*
X1987304Y1594151D02*
Y1595311D01*
X1987404Y1594051D02*
Y1595411D01*
X1987504Y1593951D02*
Y1595511D01*
X1987604Y1593851D02*
Y1595611D01*
X1987704Y1593751D02*
Y1595711D01*
X1987804Y1593651D02*
Y1595811D01*
X1987904Y1593551D02*
Y1595911D01*
X1988004Y1593451D02*
Y1596011D01*
X1988104Y1593351D02*
Y1596111D01*
X1988204Y1593251D02*
Y1596211D01*
X1988304Y1593151D02*
Y1596311D01*
X1988404Y1593051D02*
Y1596411D01*
X1988504Y1592951D02*
Y1596511D01*
X1988604Y1592851D02*
Y1596611D01*
X1988704Y1592751D02*
Y1596711D01*
X1988804Y1592651D02*
Y1596811D01*
X1988904Y1592551D02*
Y1596911D01*
X1989004Y1592451D02*
Y1597011D01*
X1989104Y1592351D02*
Y1597111D01*
X1989204Y1592251D02*
Y1597211D01*
X1989304Y1592163D02*
Y1597299D01*
X1989404Y1592263D02*
Y1597199D01*
X1989504Y1592363D02*
Y1597099D01*
X1989604Y1592463D02*
Y1596999D01*
X1989704Y1592563D02*
Y1596899D01*
X1989804Y1592663D02*
Y1596799D01*
X1989904Y1592763D02*
Y1596699D01*
X1990004Y1592863D02*
Y1596599D01*
X1990104Y1592963D02*
Y1596499D01*
X1990204Y1593063D02*
Y1596399D01*
X1990304Y1593163D02*
Y1596299D01*
X1990404Y1593263D02*
Y1596199D01*
X1990504Y1593363D02*
Y1596099D01*
X1990604Y1593463D02*
Y1595999D01*
X1990704Y1593563D02*
Y1595899D01*
X1990804Y1593663D02*
Y1595799D01*
X1990904Y1593763D02*
Y1595699D01*
X1991004Y1593863D02*
Y1595599D01*
X1991104Y1593963D02*
Y1595499D01*
X1991204Y1594063D02*
Y1595399D01*
X1991304Y1594163D02*
Y1595299D01*
X1991404Y1594263D02*
Y1595199D01*
X1991504Y1594363D02*
Y1595099D01*
X1991604Y1594463D02*
Y1594999D01*
X1991704Y1594563D02*
Y1594899D01*
X1991804Y1594663D02*
Y1594799D01*
X2004347Y1606295D02*
X2002748Y1607895D01*
X2001426Y1606574*
X2003026Y1604974*
X2004347Y1606295*
X2002997Y1605003D02*
X2003055D01*
X2002897Y1605103D02*
X2003155D01*
X2002797Y1605203D02*
X2003255D01*
X2002697Y1605303D02*
X2003355D01*
X2002597Y1605403D02*
X2003455D01*
X2002497Y1605503D02*
X2003555D01*
X2002397Y1605603D02*
X2003655D01*
X2002297Y1605703D02*
X2003755D01*
X2002197Y1605803D02*
X2003855D01*
X2002097Y1605903D02*
X2003955D01*
X2001997Y1606003D02*
X2004055D01*
X2001897Y1606103D02*
X2004155D01*
X2001797Y1606203D02*
X2004255D01*
X2001697Y1606303D02*
X2004340D01*
X2001597Y1606403D02*
X2004240D01*
X2001497Y1606503D02*
X2004140D01*
X2001456Y1606603D02*
X2004040D01*
X2001556Y1606703D02*
X2003940D01*
X2001656Y1606803D02*
X2003840D01*
X2001756Y1606903D02*
X2003740D01*
X2001856Y1607003D02*
X2003640D01*
X2001956Y1607103D02*
X2003540D01*
X2002056Y1607203D02*
X2003440D01*
X2002156Y1607303D02*
X2003340D01*
X2002256Y1607403D02*
X2003240D01*
X2002356Y1607503D02*
X2003140D01*
X2002456Y1607603D02*
X2003040D01*
X2002556Y1607703D02*
X2002940D01*
X2002656Y1607803D02*
X2002840D01*
X2001504Y1606496D02*
Y1606651D01*
X2001604Y1606396D02*
Y1606751D01*
X2001704Y1606296D02*
Y1606851D01*
X2001804Y1606196D02*
Y1606951D01*
X2001904Y1606096D02*
Y1607051D01*
X2002004Y1605996D02*
Y1607151D01*
X2002104Y1605896D02*
Y1607251D01*
X2002204Y1605796D02*
Y1607351D01*
X2002304Y1605696D02*
Y1607451D01*
X2002404Y1605596D02*
Y1607551D01*
X2002504Y1605496D02*
Y1607651D01*
X2002604Y1605396D02*
Y1607751D01*
X2002704Y1605296D02*
Y1607851D01*
X2002804Y1605196D02*
Y1607839D01*
X2002904Y1605096D02*
Y1607739D01*
X2003004Y1604996D02*
Y1607639D01*
X2003104Y1605052D02*
Y1607539D01*
X2003204Y1605152D02*
Y1607439D01*
X2003304Y1605252D02*
Y1607339D01*
X2003404Y1605352D02*
Y1607239D01*
X2003504Y1605452D02*
Y1607139D01*
X2003604Y1605552D02*
Y1607039D01*
X2003704Y1605652D02*
Y1606939D01*
X2003804Y1605752D02*
Y1606839D01*
X2003904Y1605852D02*
Y1606739D01*
X2004004Y1605952D02*
Y1606639D01*
X2004104Y1606052D02*
Y1606539D01*
X2004204Y1606152D02*
Y1606439D01*
X2004304Y1606252D02*
Y1606339D01*
X2010750Y1601284D02*
X2007759Y1604276D01*
X2005046Y1601563*
X2008037Y1598571*
X2010750Y1601284*
X2008005Y1598603D02*
X2008069D01*
X2007905Y1598703D02*
X2008169D01*
X2007805Y1598803D02*
X2008269D01*
X2007705Y1598903D02*
X2008369D01*
X2007605Y1599003D02*
X2008469D01*
X2007505Y1599103D02*
X2008569D01*
X2007405Y1599203D02*
X2008669D01*
X2007305Y1599303D02*
X2008769D01*
X2007205Y1599403D02*
X2008869D01*
X2007105Y1599503D02*
X2008969D01*
X2007005Y1599603D02*
X2009069D01*
X2006905Y1599703D02*
X2009169D01*
X2006805Y1599803D02*
X2009269D01*
X2006705Y1599903D02*
X2009369D01*
X2006605Y1600003D02*
X2009469D01*
X2006505Y1600103D02*
X2009569D01*
X2006405Y1600203D02*
X2009669D01*
X2006305Y1600303D02*
X2009769D01*
X2006205Y1600403D02*
X2009869D01*
X2006105Y1600503D02*
X2009969D01*
X2006005Y1600603D02*
X2010069D01*
X2005905Y1600703D02*
X2010169D01*
X2005805Y1600803D02*
X2010269D01*
X2005705Y1600903D02*
X2010369D01*
X2005605Y1601003D02*
X2010469D01*
X2005505Y1601103D02*
X2010569D01*
X2005405Y1601203D02*
X2010669D01*
X2005305Y1601303D02*
X2010732D01*
X2005205Y1601403D02*
X2010632D01*
X2005105Y1601503D02*
X2010532D01*
X2005086Y1601603D02*
X2010432D01*
X2005186Y1601703D02*
X2010332D01*
X2005286Y1601803D02*
X2010232D01*
X2005386Y1601903D02*
X2010132D01*
X2005486Y1602003D02*
X2010032D01*
X2005586Y1602103D02*
X2009932D01*
X2005686Y1602203D02*
X2009832D01*
X2005786Y1602303D02*
X2009732D01*
X2005886Y1602403D02*
X2009632D01*
X2005986Y1602503D02*
X2009532D01*
X2006086Y1602603D02*
X2009432D01*
X2006186Y1602703D02*
X2009332D01*
X2006286Y1602803D02*
X2009232D01*
X2006386Y1602903D02*
X2009132D01*
X2006486Y1603003D02*
X2009032D01*
X2006586Y1603103D02*
X2008932D01*
X2006686Y1603203D02*
X2008832D01*
X2006786Y1603303D02*
X2008732D01*
X2006886Y1603403D02*
X2008632D01*
X2006986Y1603503D02*
X2008532D01*
X2007086Y1603603D02*
X2008432D01*
X2007186Y1603703D02*
X2008332D01*
X2007286Y1603803D02*
X2008232D01*
X2007386Y1603903D02*
X2008132D01*
X2007486Y1604003D02*
X2008032D01*
X2007586Y1604103D02*
X2007932D01*
X2007686Y1604203D02*
X2007832D01*
X2005104Y1601504D02*
Y1601621D01*
X2005204Y1601404D02*
Y1601721D01*
X2005304Y1601304D02*
Y1601821D01*
X2005404Y1601204D02*
Y1601921D01*
X2005504Y1601104D02*
Y1602021D01*
X2005604Y1601004D02*
Y1602121D01*
X2005704Y1600904D02*
Y1602221D01*
X2005804Y1600804D02*
Y1602321D01*
X2005904Y1600704D02*
Y1602421D01*
X2006004Y1600604D02*
Y1602521D01*
X2006104Y1600504D02*
Y1602621D01*
X2006204Y1600404D02*
Y1602721D01*
X2006304Y1600304D02*
Y1602821D01*
X2006404Y1600204D02*
Y1602921D01*
X2006504Y1600104D02*
Y1603021D01*
X2006604Y1600004D02*
Y1603121D01*
X2006704Y1599904D02*
Y1603221D01*
X2006804Y1599804D02*
Y1603321D01*
X2006904Y1599704D02*
Y1603421D01*
X2007004Y1599604D02*
Y1603521D01*
X2007104Y1599504D02*
Y1603621D01*
X2007204Y1599404D02*
Y1603721D01*
X2007304Y1599304D02*
Y1603821D01*
X2007404Y1599204D02*
Y1603921D01*
X2007504Y1599104D02*
Y1604021D01*
X2007604Y1599004D02*
Y1604121D01*
X2007704Y1598904D02*
Y1604221D01*
X2007804Y1598804D02*
Y1604231D01*
X2007904Y1598704D02*
Y1604131D01*
X2008004Y1598604D02*
Y1604031D01*
X2008104Y1598638D02*
Y1603931D01*
X2008204Y1598738D02*
Y1603831D01*
X2008304Y1598838D02*
Y1603731D01*
X2008404Y1598938D02*
Y1603631D01*
X2008504Y1599038D02*
Y1603531D01*
X2008604Y1599138D02*
Y1603431D01*
X2008704Y1599238D02*
Y1603331D01*
X2008804Y1599338D02*
Y1603231D01*
X2008904Y1599438D02*
Y1603131D01*
X2009004Y1599538D02*
Y1603031D01*
X2009104Y1599638D02*
Y1602931D01*
X2009204Y1599738D02*
Y1602831D01*
X2009304Y1599838D02*
Y1602731D01*
X2009404Y1599938D02*
Y1602631D01*
X2009504Y1600038D02*
Y1602531D01*
X2009604Y1600138D02*
Y1602431D01*
X2009704Y1600238D02*
Y1602331D01*
X2009804Y1600338D02*
Y1602231D01*
X2009904Y1600438D02*
Y1602131D01*
X2010004Y1600538D02*
Y1602031D01*
X2010104Y1600638D02*
Y1601931D01*
X2010204Y1600738D02*
Y1601831D01*
X2010304Y1600838D02*
Y1601731D01*
X2010404Y1600938D02*
Y1601631D01*
X2010504Y1601038D02*
Y1601531D01*
X2010604Y1601138D02*
Y1601431D01*
X2010704Y1601238D02*
Y1601331D01*
X2014926Y1605460D02*
X2011935Y1608452D01*
X2009221Y1605739*
X2012213Y1602747*
X2014926Y1605460*
X2012157Y1602803D02*
X2012269D01*
X2012057Y1602903D02*
X2012369D01*
X2011957Y1603003D02*
X2012469D01*
X2011857Y1603103D02*
X2012569D01*
X2011757Y1603203D02*
X2012669D01*
X2011657Y1603303D02*
X2012769D01*
X2011557Y1603403D02*
X2012869D01*
X2011457Y1603503D02*
X2012969D01*
X2011357Y1603603D02*
X2013069D01*
X2011257Y1603703D02*
X2013169D01*
X2011157Y1603803D02*
X2013269D01*
X2011057Y1603903D02*
X2013369D01*
X2010957Y1604003D02*
X2013469D01*
X2010857Y1604103D02*
X2013569D01*
X2010757Y1604203D02*
X2013669D01*
X2010657Y1604303D02*
X2013769D01*
X2010557Y1604403D02*
X2013869D01*
X2010457Y1604503D02*
X2013969D01*
X2010357Y1604603D02*
X2014069D01*
X2010257Y1604703D02*
X2014169D01*
X2010157Y1604803D02*
X2014269D01*
X2010057Y1604903D02*
X2014369D01*
X2009957Y1605003D02*
X2014469D01*
X2009857Y1605103D02*
X2014569D01*
X2009757Y1605203D02*
X2014669D01*
X2009657Y1605303D02*
X2014769D01*
X2009557Y1605403D02*
X2014869D01*
X2009457Y1605503D02*
X2014883D01*
X2009357Y1605603D02*
X2014783D01*
X2009257Y1605703D02*
X2014683D01*
X2009286Y1605803D02*
X2014583D01*
X2009386Y1605903D02*
X2014483D01*
X2009486Y1606003D02*
X2014383D01*
X2009586Y1606103D02*
X2014283D01*
X2009686Y1606203D02*
X2014183D01*
X2009786Y1606303D02*
X2014083D01*
X2009886Y1606403D02*
X2013983D01*
X2009986Y1606503D02*
X2013883D01*
X2010086Y1606603D02*
X2013783D01*
X2010186Y1606703D02*
X2013683D01*
X2010286Y1606803D02*
X2013583D01*
X2010386Y1606903D02*
X2013483D01*
X2010486Y1607003D02*
X2013383D01*
X2010586Y1607103D02*
X2013283D01*
X2010686Y1607203D02*
X2013183D01*
X2010786Y1607303D02*
X2013083D01*
X2010886Y1607403D02*
X2012983D01*
X2010986Y1607503D02*
X2012883D01*
X2011086Y1607603D02*
X2012783D01*
X2011186Y1607703D02*
X2012683D01*
X2011286Y1607803D02*
X2012583D01*
X2011386Y1607903D02*
X2012483D01*
X2011486Y1608003D02*
X2012383D01*
X2011586Y1608103D02*
X2012283D01*
X2011686Y1608203D02*
X2012183D01*
X2011786Y1608303D02*
X2012083D01*
X2011886Y1608403D02*
X2011983D01*
X2009304Y1605656D02*
Y1605821D01*
X2009404Y1605556D02*
Y1605921D01*
X2009504Y1605456D02*
Y1606021D01*
X2009604Y1605356D02*
Y1606121D01*
X2009704Y1605256D02*
Y1606221D01*
X2009804Y1605156D02*
Y1606321D01*
X2009904Y1605056D02*
Y1606421D01*
X2010004Y1604956D02*
Y1606521D01*
X2010104Y1604856D02*
Y1606621D01*
X2010204Y1604756D02*
Y1606721D01*
X2010304Y1604656D02*
Y1606821D01*
X2010404Y1604556D02*
Y1606921D01*
X2010504Y1604456D02*
Y1607021D01*
X2010604Y1604356D02*
Y1607121D01*
X2010704Y1604256D02*
Y1607221D01*
X2010804Y1604156D02*
Y1607321D01*
X2010904Y1604056D02*
Y1607421D01*
X2011004Y1603956D02*
Y1607521D01*
X2011104Y1603856D02*
Y1607621D01*
X2011204Y1603756D02*
Y1607721D01*
X2011304Y1603656D02*
Y1607821D01*
X2011404Y1603556D02*
Y1607921D01*
X2011504Y1603456D02*
Y1608021D01*
X2011604Y1603356D02*
Y1608121D01*
X2011704Y1603256D02*
Y1608221D01*
X2011804Y1603156D02*
Y1608321D01*
X2011904Y1603056D02*
Y1608421D01*
X2012004Y1602956D02*
Y1608382D01*
X2012104Y1602856D02*
Y1608282D01*
X2012204Y1602756D02*
Y1608182D01*
X2012304Y1602838D02*
Y1608082D01*
X2012404Y1602938D02*
Y1607982D01*
X2012504Y1603038D02*
Y1607882D01*
X2012604Y1603138D02*
Y1607782D01*
X2012704Y1603238D02*
Y1607682D01*
X2012804Y1603338D02*
Y1607582D01*
X2012904Y1603438D02*
Y1607482D01*
X2013004Y1603538D02*
Y1607382D01*
X2013104Y1603638D02*
Y1607282D01*
X2013204Y1603738D02*
Y1607182D01*
X2013304Y1603838D02*
Y1607082D01*
X2013404Y1603938D02*
Y1606982D01*
X2013504Y1604038D02*
Y1606882D01*
X2013604Y1604138D02*
Y1606782D01*
X2013704Y1604238D02*
Y1606682D01*
X2013804Y1604338D02*
Y1606582D01*
X2013904Y1604438D02*
Y1606482D01*
X2014004Y1604538D02*
Y1606382D01*
X2014104Y1604638D02*
Y1606282D01*
X2014204Y1604738D02*
Y1606182D01*
X2014304Y1604838D02*
Y1606082D01*
X2014404Y1604938D02*
Y1605982D01*
X2014504Y1605038D02*
Y1605882D01*
X2014604Y1605138D02*
Y1605782D01*
X2014704Y1605238D02*
Y1605682D01*
X2014804Y1605338D02*
Y1605582D01*
X2014904Y1605438D02*
Y1605482D01*
X2009915Y1610471D02*
X2006924Y1613463D01*
X2004210Y1610750*
X2007202Y1607758*
X2009915Y1610471*
X2007157Y1607803D02*
X2007247D01*
X2007057Y1607903D02*
X2007347D01*
X2006957Y1608003D02*
X2007447D01*
X2006857Y1608103D02*
X2007547D01*
X2006757Y1608203D02*
X2007647D01*
X2006657Y1608303D02*
X2007747D01*
X2006557Y1608403D02*
X2007847D01*
X2006457Y1608503D02*
X2007947D01*
X2006357Y1608603D02*
X2008047D01*
X2006257Y1608703D02*
X2008147D01*
X2006157Y1608803D02*
X2008247D01*
X2006057Y1608903D02*
X2008347D01*
X2005957Y1609003D02*
X2008447D01*
X2005857Y1609103D02*
X2008547D01*
X2005757Y1609203D02*
X2008647D01*
X2005657Y1609303D02*
X2008747D01*
X2005557Y1609403D02*
X2008847D01*
X2005457Y1609503D02*
X2008947D01*
X2005357Y1609603D02*
X2009047D01*
X2005257Y1609703D02*
X2009147D01*
X2005157Y1609803D02*
X2009247D01*
X2005057Y1609903D02*
X2009347D01*
X2004957Y1610003D02*
X2009447D01*
X2004857Y1610103D02*
X2009547D01*
X2004757Y1610203D02*
X2009647D01*
X2004657Y1610303D02*
X2009747D01*
X2004557Y1610403D02*
X2009847D01*
X2004457Y1610503D02*
X2009883D01*
X2004357Y1610603D02*
X2009783D01*
X2004257Y1610703D02*
X2009683D01*
X2004264Y1610803D02*
X2009583D01*
X2004364Y1610903D02*
X2009483D01*
X2004464Y1611003D02*
X2009383D01*
X2004564Y1611103D02*
X2009283D01*
X2004664Y1611203D02*
X2009183D01*
X2004764Y1611303D02*
X2009083D01*
X2004864Y1611403D02*
X2008983D01*
X2004964Y1611503D02*
X2008883D01*
X2005064Y1611603D02*
X2008783D01*
X2005164Y1611703D02*
X2008683D01*
X2005264Y1611803D02*
X2008583D01*
X2005364Y1611903D02*
X2008483D01*
X2005464Y1612003D02*
X2008383D01*
X2005564Y1612103D02*
X2008283D01*
X2005664Y1612203D02*
X2008183D01*
X2005764Y1612303D02*
X2008083D01*
X2005864Y1612403D02*
X2007983D01*
X2005964Y1612503D02*
X2007883D01*
X2006064Y1612603D02*
X2007783D01*
X2006164Y1612703D02*
X2007683D01*
X2006264Y1612803D02*
X2007583D01*
X2006364Y1612903D02*
X2007483D01*
X2006464Y1613003D02*
X2007383D01*
X2006564Y1613103D02*
X2007283D01*
X2006664Y1613203D02*
X2007183D01*
X2006764Y1613303D02*
X2007083D01*
X2006864Y1613403D02*
X2006983D01*
X2004304Y1610656D02*
Y1610843D01*
X2004404Y1610556D02*
Y1610943D01*
X2004504Y1610456D02*
Y1611043D01*
X2004604Y1610356D02*
Y1611143D01*
X2004704Y1610256D02*
Y1611243D01*
X2004804Y1610156D02*
Y1611343D01*
X2004904Y1610056D02*
Y1611443D01*
X2005004Y1609956D02*
Y1611543D01*
X2005104Y1609856D02*
Y1611643D01*
X2005204Y1609756D02*
Y1611743D01*
X2005304Y1609656D02*
Y1611843D01*
X2005404Y1609556D02*
Y1611943D01*
X2005504Y1609456D02*
Y1612043D01*
X2005604Y1609356D02*
Y1612143D01*
X2005704Y1609256D02*
Y1612243D01*
X2005804Y1609156D02*
Y1612343D01*
X2005904Y1609056D02*
Y1612443D01*
X2006004Y1608956D02*
Y1612543D01*
X2006104Y1608856D02*
Y1612643D01*
X2006204Y1608756D02*
Y1612743D01*
X2006304Y1608656D02*
Y1612843D01*
X2006404Y1608556D02*
Y1612943D01*
X2006504Y1608456D02*
Y1613043D01*
X2006604Y1608356D02*
Y1613143D01*
X2006704Y1608256D02*
Y1613243D01*
X2006804Y1608156D02*
Y1613343D01*
X2006904Y1608056D02*
Y1613443D01*
X2007004Y1607956D02*
Y1613382D01*
X2007104Y1607856D02*
Y1613282D01*
X2007204Y1607760D02*
Y1613182D01*
X2007304Y1607860D02*
Y1613082D01*
X2007404Y1607960D02*
Y1612982D01*
X2007504Y1608060D02*
Y1612882D01*
X2007604Y1608160D02*
Y1612782D01*
X2007704Y1608260D02*
Y1612682D01*
X2007804Y1608360D02*
Y1612582D01*
X2007904Y1608460D02*
Y1612482D01*
X2008004Y1608560D02*
Y1612382D01*
X2008104Y1608660D02*
Y1612282D01*
X2008204Y1608760D02*
Y1612182D01*
X2008304Y1608860D02*
Y1612082D01*
X2008404Y1608960D02*
Y1611982D01*
X2008504Y1609060D02*
Y1611882D01*
X2008604Y1609160D02*
Y1611782D01*
X2008704Y1609260D02*
Y1611682D01*
X2008804Y1609360D02*
Y1611582D01*
X2008904Y1609460D02*
Y1611482D01*
X2009004Y1609560D02*
Y1611382D01*
X2009104Y1609660D02*
Y1611282D01*
X2009204Y1609760D02*
Y1611182D01*
X2009304Y1609860D02*
Y1611082D01*
X2009404Y1609960D02*
Y1610982D01*
X2009504Y1610060D02*
Y1610882D01*
X2009604Y1610160D02*
Y1610782D01*
X2009704Y1610260D02*
Y1610682D01*
X2009804Y1610360D02*
Y1610582D01*
X2009904Y1610460D02*
Y1610482D01*
X1984880Y1609984D02*
X1985923Y1611027D01*
X1985159Y1611791*
X1984116Y1610748*
X1984880Y1609984*
X1984861Y1610003D02*
X1984900D01*
X1984761Y1610103D02*
X1985000D01*
X1984661Y1610203D02*
X1985100D01*
X1984561Y1610303D02*
X1985200D01*
X1984461Y1610403D02*
X1985300D01*
X1984361Y1610503D02*
X1985400D01*
X1984261Y1610603D02*
X1985500D01*
X1984161Y1610703D02*
X1985600D01*
X1984171Y1610803D02*
X1985700D01*
X1984271Y1610903D02*
X1985800D01*
X1984371Y1611003D02*
X1985900D01*
X1984471Y1611103D02*
X1985847D01*
X1984571Y1611203D02*
X1985747D01*
X1984671Y1611303D02*
X1985647D01*
X1984771Y1611403D02*
X1985547D01*
X1984871Y1611503D02*
X1985447D01*
X1984971Y1611603D02*
X1985347D01*
X1985071Y1611703D02*
X1985247D01*
X1984204Y1610660D02*
Y1610836D01*
X1984304Y1610560D02*
Y1610936D01*
X1984404Y1610460D02*
Y1611036D01*
X1984504Y1610360D02*
Y1611136D01*
X1984604Y1610260D02*
Y1611236D01*
X1984704Y1610160D02*
Y1611336D01*
X1984804Y1610060D02*
Y1611436D01*
X1984904Y1610008D02*
Y1611536D01*
X1985004Y1610108D02*
Y1611636D01*
X1985104Y1610208D02*
Y1611736D01*
X1985204Y1610308D02*
Y1611746D01*
X1985304Y1610408D02*
Y1611646D01*
X1985404Y1610508D02*
Y1611546D01*
X1985504Y1610608D02*
Y1611446D01*
X1985604Y1610708D02*
Y1611346D01*
X1985704Y1610808D02*
Y1611246D01*
X1985804Y1610908D02*
Y1611146D01*
X1985904Y1611008D02*
Y1611046D01*
X1983349Y1611515D02*
X1984392Y1612558D01*
X1983628Y1613322*
X1982585Y1612280*
X1983349Y1611515*
X1983261Y1611603D02*
X1983437D01*
X1983161Y1611703D02*
X1983537D01*
X1983061Y1611803D02*
X1983637D01*
X1982961Y1611903D02*
X1983737D01*
X1982861Y1612003D02*
X1983837D01*
X1982761Y1612103D02*
X1983937D01*
X1982661Y1612203D02*
X1984037D01*
X1982608Y1612303D02*
X1984137D01*
X1982708Y1612403D02*
X1984237D01*
X1982808Y1612503D02*
X1984337D01*
X1982908Y1612603D02*
X1984347D01*
X1983008Y1612703D02*
X1984247D01*
X1983108Y1612803D02*
X1984147D01*
X1983208Y1612903D02*
X1984047D01*
X1983308Y1613003D02*
X1983947D01*
X1983408Y1613103D02*
X1983847D01*
X1983508Y1613203D02*
X1983747D01*
X1983608Y1613303D02*
X1983647D01*
X1982604Y1612260D02*
Y1612299D01*
X1982704Y1612160D02*
Y1612399D01*
X1982804Y1612060D02*
Y1612499D01*
X1982904Y1611960D02*
Y1612599D01*
X1983004Y1611860D02*
Y1612699D01*
X1983104Y1611760D02*
Y1612799D01*
X1983204Y1611660D02*
Y1612899D01*
X1983304Y1611560D02*
Y1612999D01*
X1983404Y1611570D02*
Y1613099D01*
X1983504Y1611670D02*
Y1613199D01*
X1983604Y1611770D02*
Y1613299D01*
X1983704Y1611870D02*
Y1613246D01*
X1983804Y1611970D02*
Y1613146D01*
X1983904Y1612070D02*
Y1613046D01*
X1984004Y1612170D02*
Y1612946D01*
X1984104Y1612270D02*
Y1612846D01*
X1984204Y1612370D02*
Y1612746D01*
X1984304Y1612470D02*
Y1612646D01*
X1984373Y1615330D02*
X1983330Y1616372D01*
X1982566Y1615608*
X1983609Y1614565*
X1984373Y1615330*
X1983571Y1614603D02*
X1983647D01*
X1983471Y1614703D02*
X1983747D01*
X1983371Y1614803D02*
X1983847D01*
X1983271Y1614903D02*
X1983947D01*
X1983171Y1615003D02*
X1984047D01*
X1983071Y1615103D02*
X1984147D01*
X1982971Y1615203D02*
X1984247D01*
X1982871Y1615303D02*
X1984347D01*
X1982771Y1615403D02*
X1984300D01*
X1982671Y1615503D02*
X1984200D01*
X1982571Y1615603D02*
X1984100D01*
X1982661Y1615703D02*
X1984000D01*
X1982761Y1615803D02*
X1983900D01*
X1982861Y1615903D02*
X1983800D01*
X1982961Y1616003D02*
X1983700D01*
X1983061Y1616103D02*
X1983600D01*
X1983161Y1616203D02*
X1983500D01*
X1983261Y1616303D02*
X1983400D01*
X1982604Y1615570D02*
Y1615646D01*
X1982704Y1615470D02*
Y1615746D01*
X1982804Y1615370D02*
Y1615846D01*
X1982904Y1615270D02*
Y1615946D01*
X1983004Y1615170D02*
Y1616046D01*
X1983104Y1615070D02*
Y1616146D01*
X1983204Y1614970D02*
Y1616246D01*
X1983304Y1614870D02*
Y1616346D01*
X1983404Y1614770D02*
Y1616299D01*
X1983504Y1614670D02*
Y1616199D01*
X1983604Y1614570D02*
Y1616099D01*
X1983704Y1614660D02*
Y1615999D01*
X1983804Y1614760D02*
Y1615899D01*
X1983904Y1614860D02*
Y1615799D01*
X1984004Y1614960D02*
Y1615699D01*
X1984104Y1615060D02*
Y1615599D01*
X1984204Y1615160D02*
Y1615499D01*
X1984304Y1615260D02*
Y1615399D01*
X1982842Y1613798D02*
X1981799Y1614841D01*
X1981035Y1614077*
X1982078Y1613034*
X1982842Y1613798*
X1982008Y1613103D02*
X1982147D01*
X1981908Y1613203D02*
X1982247D01*
X1981808Y1613303D02*
X1982347D01*
X1981708Y1613403D02*
X1982447D01*
X1981608Y1613503D02*
X1982547D01*
X1981508Y1613603D02*
X1982647D01*
X1981408Y1613703D02*
X1982747D01*
X1981308Y1613803D02*
X1982837D01*
X1981208Y1613903D02*
X1982737D01*
X1981108Y1614003D02*
X1982637D01*
X1981061Y1614103D02*
X1982537D01*
X1981161Y1614203D02*
X1982437D01*
X1981261Y1614303D02*
X1982337D01*
X1981361Y1614403D02*
X1982237D01*
X1981461Y1614503D02*
X1982137D01*
X1981561Y1614603D02*
X1982037D01*
X1981661Y1614703D02*
X1981937D01*
X1981761Y1614803D02*
X1981837D01*
X1981104Y1614008D02*
Y1614146D01*
X1981204Y1613908D02*
Y1614246D01*
X1981304Y1613808D02*
Y1614346D01*
X1981404Y1613708D02*
Y1614446D01*
X1981504Y1613608D02*
Y1614546D01*
X1981604Y1613508D02*
Y1614646D01*
X1981704Y1613408D02*
Y1614746D01*
X1981804Y1613308D02*
Y1614836D01*
X1981904Y1613208D02*
Y1614736D01*
X1982004Y1613108D02*
Y1614636D01*
X1982104Y1613060D02*
Y1614536D01*
X1982204Y1613160D02*
Y1614436D01*
X1982304Y1613260D02*
Y1614336D01*
X1982404Y1613360D02*
Y1614236D01*
X1982504Y1613460D02*
Y1614136D01*
X1982604Y1613560D02*
Y1614036D01*
X1982704Y1613660D02*
Y1613936D01*
X1982804Y1613760D02*
Y1613836D01*
X1999386Y1610591D02*
X2000429Y1609549D01*
X2001193Y1610313*
X2000150Y1611356*
X1999386Y1610591*
X2000374Y1609603D02*
X2000483D01*
X2000274Y1609703D02*
X2000583D01*
X2000174Y1609803D02*
X2000683D01*
X2000074Y1609903D02*
X2000783D01*
X1999974Y1610003D02*
X2000883D01*
X1999874Y1610103D02*
X2000983D01*
X1999774Y1610203D02*
X2001083D01*
X1999674Y1610303D02*
X2001183D01*
X1999574Y1610403D02*
X2001103D01*
X1999474Y1610503D02*
X2001003D01*
X1999398Y1610603D02*
X2000903D01*
X1999498Y1610703D02*
X2000803D01*
X1999598Y1610803D02*
X2000703D01*
X1999698Y1610903D02*
X2000603D01*
X1999798Y1611003D02*
X2000503D01*
X1999898Y1611103D02*
X2000403D01*
X1999998Y1611203D02*
X2000303D01*
X2000098Y1611303D02*
X2000203D01*
X1999404Y1610573D02*
Y1610610D01*
X1999504Y1610473D02*
Y1610710D01*
X1999604Y1610373D02*
Y1610810D01*
X1999704Y1610273D02*
Y1610910D01*
X1999804Y1610173D02*
Y1611010D01*
X1999904Y1610073D02*
Y1611110D01*
X2000004Y1609973D02*
Y1611210D01*
X2000104Y1609873D02*
Y1611310D01*
X2000204Y1609773D02*
Y1611302D01*
X2000304Y1609673D02*
Y1611202D01*
X2000404Y1609573D02*
Y1611102D01*
X2000504Y1609624D02*
Y1611002D01*
X2000604Y1609724D02*
Y1610902D01*
X2000704Y1609824D02*
Y1610802D01*
X2000804Y1609924D02*
Y1610702D01*
X2000904Y1610024D02*
Y1610602D01*
X2001004Y1610124D02*
Y1610502D01*
X2001104Y1610224D02*
Y1610402D01*
X2000917Y1612123D02*
X2001960Y1611080D01*
X2002724Y1611844*
X2001681Y1612887*
X2000917Y1612123*
X2001936Y1611103D02*
X2001983D01*
X2001836Y1611203D02*
X2002083D01*
X2001736Y1611303D02*
X2002183D01*
X2001636Y1611403D02*
X2002283D01*
X2001536Y1611503D02*
X2002383D01*
X2001436Y1611603D02*
X2002483D01*
X2001336Y1611703D02*
X2002583D01*
X2001236Y1611803D02*
X2002683D01*
X2001136Y1611903D02*
X2002665D01*
X2001036Y1612003D02*
X2002565D01*
X2000936Y1612103D02*
X2002465D01*
X2000998Y1612203D02*
X2002365D01*
X2001098Y1612303D02*
X2002265D01*
X2001198Y1612403D02*
X2002165D01*
X2001298Y1612503D02*
X2002065D01*
X2001398Y1612603D02*
X2001965D01*
X2001498Y1612703D02*
X2001865D01*
X2001598Y1612803D02*
X2001765D01*
X2001004Y1612036D02*
Y1612210D01*
X2001104Y1611936D02*
Y1612310D01*
X2001204Y1611836D02*
Y1612410D01*
X2001304Y1611736D02*
Y1612510D01*
X2001404Y1611636D02*
Y1612610D01*
X2001504Y1611536D02*
Y1612710D01*
X2001604Y1611436D02*
Y1612810D01*
X2001704Y1611336D02*
Y1612865D01*
X2001804Y1611236D02*
Y1612765D01*
X2001904Y1611136D02*
Y1612665D01*
X2002004Y1611124D02*
Y1612565D01*
X2002104Y1611224D02*
Y1612465D01*
X2002204Y1611324D02*
Y1612365D01*
X2002304Y1611424D02*
Y1612265D01*
X2002404Y1611524D02*
Y1612165D01*
X2002504Y1611624D02*
Y1612065D01*
X2002604Y1611724D02*
Y1611965D01*
X2002704Y1611824D02*
Y1611865D01*
X2015054Y1600696D02*
X2014011Y1601739D01*
X2013246Y1600974*
X2014289Y1599931*
X2015054Y1600696*
X2014218Y1600003D02*
X2014361D01*
X2014118Y1600103D02*
X2014461D01*
X2014018Y1600203D02*
X2014561D01*
X2013918Y1600303D02*
X2014661D01*
X2013818Y1600403D02*
X2014761D01*
X2013718Y1600503D02*
X2014861D01*
X2013618Y1600603D02*
X2014961D01*
X2013518Y1600703D02*
X2015047D01*
X2013418Y1600803D02*
X2014947D01*
X2013318Y1600903D02*
X2014847D01*
X2013275Y1601003D02*
X2014747D01*
X2013375Y1601103D02*
X2014647D01*
X2013475Y1601203D02*
X2014547D01*
X2013575Y1601303D02*
X2014447D01*
X2013675Y1601403D02*
X2014347D01*
X2013775Y1601503D02*
X2014247D01*
X2013875Y1601603D02*
X2014147D01*
X2013975Y1601703D02*
X2014047D01*
X2013304Y1600917D02*
Y1601032D01*
X2013404Y1600817D02*
Y1601132D01*
X2013504Y1600717D02*
Y1601232D01*
X2013604Y1600617D02*
Y1601332D01*
X2013704Y1600517D02*
Y1601432D01*
X2013804Y1600417D02*
Y1601532D01*
X2013904Y1600317D02*
Y1601632D01*
X2014004Y1600217D02*
Y1601732D01*
X2014104Y1600117D02*
Y1601646D01*
X2014204Y1600017D02*
Y1601546D01*
X2014304Y1599946D02*
Y1601446D01*
X2014404Y1600046D02*
Y1601346D01*
X2014504Y1600146D02*
Y1601246D01*
X2014604Y1600246D02*
Y1601146D01*
X2014704Y1600346D02*
Y1601046D01*
X2014804Y1600446D02*
Y1600946D01*
X2014904Y1600546D02*
Y1600846D01*
X2015004Y1600646D02*
Y1600746D01*
X2013523Y1599165D02*
X2012480Y1600208D01*
X2011715Y1599443*
X2012758Y1598400*
X2013523Y1599165*
X2012755Y1598403D02*
X2012761D01*
X2012655Y1598503D02*
X2012861D01*
X2012555Y1598603D02*
X2012961D01*
X2012455Y1598703D02*
X2013061D01*
X2012355Y1598803D02*
X2013161D01*
X2012255Y1598903D02*
X2013261D01*
X2012155Y1599003D02*
X2013361D01*
X2012055Y1599103D02*
X2013461D01*
X2011955Y1599203D02*
X2013484D01*
X2011855Y1599303D02*
X2013384D01*
X2011755Y1599403D02*
X2013284D01*
X2011775Y1599503D02*
X2013184D01*
X2011875Y1599603D02*
X2013084D01*
X2011975Y1599703D02*
X2012984D01*
X2012075Y1599803D02*
X2012884D01*
X2012175Y1599903D02*
X2012784D01*
X2012275Y1600003D02*
X2012684D01*
X2012375Y1600103D02*
X2012584D01*
X2012475Y1600203D02*
X2012484D01*
X2011804Y1599355D02*
Y1599532D01*
X2011904Y1599255D02*
Y1599632D01*
X2012004Y1599155D02*
Y1599732D01*
X2012104Y1599055D02*
Y1599832D01*
X2012204Y1598955D02*
Y1599932D01*
X2012304Y1598855D02*
Y1600032D01*
X2012404Y1598755D02*
Y1600132D01*
X2012504Y1598655D02*
Y1600183D01*
X2012604Y1598555D02*
Y1600083D01*
X2012704Y1598455D02*
Y1599983D01*
X2012804Y1598446D02*
Y1599883D01*
X2012904Y1598546D02*
Y1599783D01*
X2013004Y1598646D02*
Y1599683D01*
X2013104Y1598746D02*
Y1599583D01*
X2013204Y1598846D02*
Y1599483D01*
X2013304Y1598946D02*
Y1599383D01*
X2013404Y1599046D02*
Y1599283D01*
X2013504Y1599146D02*
Y1599183D01*
X1997258Y1607212D02*
X1996215Y1606170D01*
X1996979Y1605405*
X1998022Y1606448*
X1997258Y1607212*
X1996881Y1605503D02*
X1997077D01*
X1996781Y1605603D02*
X1997177D01*
X1996681Y1605703D02*
X1997277D01*
X1996581Y1605803D02*
X1997377D01*
X1996481Y1605903D02*
X1997477D01*
X1996381Y1606003D02*
X1997577D01*
X1996281Y1606103D02*
X1997677D01*
X1996248Y1606203D02*
X1997777D01*
X1996348Y1606303D02*
X1997877D01*
X1996448Y1606403D02*
X1997977D01*
X1996548Y1606503D02*
X1997967D01*
X1996648Y1606603D02*
X1997867D01*
X1996748Y1606703D02*
X1997767D01*
X1996848Y1606803D02*
X1997667D01*
X1996948Y1606903D02*
X1997567D01*
X1997048Y1607003D02*
X1997467D01*
X1997148Y1607103D02*
X1997367D01*
X1997248Y1607203D02*
X1997267D01*
X1996304Y1606080D02*
Y1606259D01*
X1996404Y1605980D02*
Y1606359D01*
X1996504Y1605880D02*
Y1606459D01*
X1996604Y1605780D02*
Y1606559D01*
X1996704Y1605680D02*
Y1606659D01*
X1996804Y1605580D02*
Y1606759D01*
X1996904Y1605480D02*
Y1606859D01*
X1997004Y1605430D02*
Y1606959D01*
X1997104Y1605530D02*
Y1607059D01*
X1997204Y1605630D02*
Y1607159D01*
X1997304Y1605730D02*
Y1607166D01*
X1997404Y1605830D02*
Y1607066D01*
X1997504Y1605930D02*
Y1606966D01*
X1997604Y1606030D02*
Y1606866D01*
X1997704Y1606130D02*
Y1606766D01*
X1997804Y1606230D02*
Y1606666D01*
X1997904Y1606330D02*
Y1606566D01*
X1998004Y1606430D02*
Y1606466D01*
X1998789Y1605681D02*
X1997746Y1604638D01*
X1998510Y1603874*
X1999553Y1604917*
X1998789Y1605681*
X1998481Y1603903D02*
X1998540D01*
X1998381Y1604003D02*
X1998640D01*
X1998281Y1604103D02*
X1998740D01*
X1998181Y1604203D02*
X1998840D01*
X1998081Y1604303D02*
X1998940D01*
X1997981Y1604403D02*
X1999040D01*
X1997881Y1604503D02*
X1999140D01*
X1997781Y1604603D02*
X1999240D01*
X1997811Y1604703D02*
X1999340D01*
X1997911Y1604803D02*
X1999440D01*
X1998011Y1604903D02*
X1999540D01*
X1998111Y1605003D02*
X1999467D01*
X1998211Y1605103D02*
X1999367D01*
X1998311Y1605203D02*
X1999267D01*
X1998411Y1605303D02*
X1999167D01*
X1998511Y1605403D02*
X1999067D01*
X1998611Y1605503D02*
X1998967D01*
X1998711Y1605603D02*
X1998867D01*
X1997804Y1604580D02*
Y1604696D01*
X1997904Y1604480D02*
Y1604796D01*
X1998004Y1604380D02*
Y1604896D01*
X1998104Y1604280D02*
Y1604996D01*
X1998204Y1604180D02*
Y1605096D01*
X1998304Y1604080D02*
Y1605196D01*
X1998404Y1603980D02*
Y1605296D01*
X1998504Y1603880D02*
Y1605396D01*
X1998604Y1603968D02*
Y1605496D01*
X1998704Y1604068D02*
Y1605596D01*
X1998804Y1604168D02*
Y1605666D01*
X1998904Y1604268D02*
Y1605566D01*
X1999004Y1604368D02*
Y1605466D01*
X1999104Y1604468D02*
Y1605366D01*
X1999204Y1604568D02*
Y1605266D01*
X1999304Y1604668D02*
Y1605166D01*
X1999404Y1604768D02*
Y1605066D01*
X1999504Y1604868D02*
Y1604966D01*
X1988923Y1610780D02*
X1987880Y1611822D01*
X1987116Y1611058*
X1988159Y1610015*
X1988923Y1610780*
X1988071Y1610103D02*
X1988247D01*
X1987971Y1610203D02*
X1988347D01*
X1987871Y1610303D02*
X1988447D01*
X1987771Y1610403D02*
X1988547D01*
X1987671Y1610503D02*
X1988647D01*
X1987571Y1610603D02*
X1988747D01*
X1987471Y1610703D02*
X1988847D01*
X1987371Y1610803D02*
X1988900D01*
X1987271Y1610903D02*
X1988800D01*
X1987171Y1611003D02*
X1988700D01*
X1987161Y1611103D02*
X1988600D01*
X1987261Y1611203D02*
X1988500D01*
X1987361Y1611303D02*
X1988400D01*
X1987461Y1611403D02*
X1988300D01*
X1987561Y1611503D02*
X1988200D01*
X1987661Y1611603D02*
X1988100D01*
X1987761Y1611703D02*
X1988000D01*
X1987861Y1611803D02*
X1987900D01*
X1987204Y1610970D02*
Y1611146D01*
X1987304Y1610870D02*
Y1611246D01*
X1987404Y1610770D02*
Y1611346D01*
X1987504Y1610670D02*
Y1611446D01*
X1987604Y1610570D02*
Y1611546D01*
X1987704Y1610470D02*
Y1611646D01*
X1987804Y1610370D02*
Y1611746D01*
X1987904Y1610270D02*
Y1611799D01*
X1988004Y1610170D02*
Y1611699D01*
X1988104Y1610070D02*
Y1611599D01*
X1988204Y1610060D02*
Y1611499D01*
X1988304Y1610160D02*
Y1611399D01*
X1988404Y1610260D02*
Y1611299D01*
X1988504Y1610360D02*
Y1611199D01*
X1988604Y1610460D02*
Y1611099D01*
X1988704Y1610560D02*
Y1610999D01*
X1988804Y1610660D02*
Y1610899D01*
X1988904Y1610760D02*
Y1610799D01*
X1987392Y1609248D02*
X1986349Y1610291D01*
X1985585Y1609527*
X1986628Y1608484*
X1987392Y1609248*
X1986608Y1608503D02*
X1986647D01*
X1986508Y1608603D02*
X1986747D01*
X1986408Y1608703D02*
X1986847D01*
X1986308Y1608803D02*
X1986947D01*
X1986208Y1608903D02*
X1987047D01*
X1986108Y1609003D02*
X1987147D01*
X1986008Y1609103D02*
X1987247D01*
X1985908Y1609203D02*
X1987347D01*
X1985808Y1609303D02*
X1987337D01*
X1985708Y1609403D02*
X1987237D01*
X1985608Y1609503D02*
X1987137D01*
X1985661Y1609603D02*
X1987037D01*
X1985761Y1609703D02*
X1986937D01*
X1985861Y1609803D02*
X1986837D01*
X1985961Y1609903D02*
X1986737D01*
X1986061Y1610003D02*
X1986637D01*
X1986161Y1610103D02*
X1986537D01*
X1986261Y1610203D02*
X1986437D01*
X1985604Y1609508D02*
Y1609546D01*
X1985704Y1609408D02*
Y1609646D01*
X1985804Y1609308D02*
Y1609746D01*
X1985904Y1609208D02*
Y1609846D01*
X1986004Y1609108D02*
Y1609946D01*
X1986104Y1609008D02*
Y1610046D01*
X1986204Y1608908D02*
Y1610146D01*
X1986304Y1608808D02*
Y1610246D01*
X1986404Y1608708D02*
Y1610236D01*
X1986504Y1608608D02*
Y1610136D01*
X1986604Y1608508D02*
Y1610036D01*
X1986704Y1608560D02*
Y1609936D01*
X1986804Y1608660D02*
Y1609836D01*
X1986904Y1608760D02*
Y1609736D01*
X1987004Y1608860D02*
Y1609636D01*
X1987104Y1608960D02*
Y1609536D01*
X1987204Y1609060D02*
Y1609436D01*
X1987304Y1609160D02*
Y1609336D01*
G54D11*
X1974654Y1612042D03*
X1978654D03*
G54D12*
X1968504Y1640157D02*
X2020472D01*
Y1574803*
X1968504*
Y1640157*
G54D24*
X1991589Y1602387D02*
X1989298Y1604678D01*
X1987007Y1602387*
X1989298Y1600096*
X1991589Y1602387*
X1987048Y1602346D02*
Y1602428D01*
X1987298Y1602096D02*
Y1602678D01*
X1987548Y1601846D02*
Y1602928D01*
X1987798Y1601596D02*
Y1603178D01*
X1988048Y1601346D02*
Y1603428D01*
X1988298Y1601096D02*
Y1603678D01*
X1988548Y1600846D02*
Y1603928D01*
X1988798Y1600596D02*
Y1604178D01*
X1989048Y1600346D02*
Y1604428D01*
X1989298Y1600096D02*
Y1604678D01*
X1989548Y1600346D02*
Y1604428D01*
X1989798Y1600596D02*
Y1604178D01*
X1990048Y1600846D02*
Y1603928D01*
X1990298Y1601096D02*
Y1603678D01*
X1990548Y1601346D02*
Y1603428D01*
X1990798Y1601596D02*
Y1603178D01*
X1991048Y1601846D02*
Y1602928D01*
X1991298Y1602096D02*
Y1602678D01*
X1991548Y1602346D02*
Y1602428D01*
X1995417Y1598559D02*
X1993126Y1600850D01*
X1990835Y1598559*
X1993126Y1596268*
X1995417Y1598559*
X1991048Y1598346D02*
Y1598772D01*
X1991298Y1598096D02*
Y1599022D01*
X1991548Y1597846D02*
Y1599272D01*
X1991798Y1597596D02*
Y1599522D01*
X1992048Y1597346D02*
Y1599772D01*
X1992298Y1597096D02*
Y1600022D01*
X1992548Y1596846D02*
Y1600272D01*
X1992798Y1596596D02*
Y1600522D01*
X1993048Y1596346D02*
Y1600772D01*
X1993298Y1596440D02*
Y1600678D01*
X1993548Y1596690D02*
Y1600428D01*
X1993798Y1596940D02*
Y1600178D01*
X1994048Y1597190D02*
Y1599928D01*
X1994298Y1597440D02*
Y1599678D01*
X1994548Y1597690D02*
Y1599428D01*
X1994798Y1597940D02*
Y1599178D01*
X1995048Y1598190D02*
Y1598928D01*
X1995298Y1598440D02*
Y1598678D01*
X1999245Y1594731D02*
X1996954Y1597022D01*
X1994662Y1594731*
X1996954Y1592440*
X1999245Y1594731*
X1994798Y1594596D02*
Y1594866D01*
X1995048Y1594346D02*
Y1595116D01*
X1995298Y1594096D02*
Y1595366D01*
X1995548Y1593846D02*
Y1595616D01*
X1995798Y1593596D02*
Y1595866D01*
X1996048Y1593346D02*
Y1596116D01*
X1996298Y1593096D02*
Y1596366D01*
X1996548Y1592846D02*
Y1596616D01*
X1996798Y1592596D02*
Y1596866D01*
X1997048Y1592534D02*
Y1596928D01*
X1997298Y1592784D02*
Y1596678D01*
X1997548Y1593034D02*
Y1596428D01*
X1997798Y1593284D02*
Y1596178D01*
X1998048Y1593534D02*
Y1595928D01*
X1998298Y1593784D02*
Y1595678D01*
X1998548Y1594034D02*
Y1595428D01*
X1998798Y1594284D02*
Y1595178D01*
X1999048Y1594534D02*
Y1594928D01*
X1995417Y1590903D02*
X1993126Y1593194D01*
X1990835Y1590903*
X1993126Y1588612*
X1995417Y1590903*
X1991048Y1590690D02*
Y1591116D01*
X1991298Y1590440D02*
Y1591366D01*
X1991548Y1590190D02*
Y1591616D01*
X1991798Y1589940D02*
Y1591866D01*
X1992048Y1589690D02*
Y1592116D01*
X1992298Y1589440D02*
Y1592366D01*
X1992548Y1589190D02*
Y1592616D01*
X1992798Y1588940D02*
Y1592866D01*
X1993048Y1588690D02*
Y1593116D01*
X1993298Y1588784D02*
Y1593022D01*
X1993548Y1589034D02*
Y1592772D01*
X1993798Y1589284D02*
Y1592522D01*
X1994048Y1589534D02*
Y1592272D01*
X1994298Y1589784D02*
Y1592022D01*
X1994548Y1590034D02*
Y1591772D01*
X1994798Y1590284D02*
Y1591522D01*
X1995048Y1590534D02*
Y1591272D01*
X1995298Y1590784D02*
Y1591022D01*
X1991589Y1587075D02*
X1989298Y1589366D01*
X1987007Y1587075*
X1989298Y1584784*
X1991589Y1587075*
X1987048Y1587034D02*
Y1587116D01*
X1987298Y1586784D02*
Y1587366D01*
X1987548Y1586534D02*
Y1587616D01*
X1987798Y1586284D02*
Y1587866D01*
X1988048Y1586034D02*
Y1588116D01*
X1988298Y1585784D02*
Y1588366D01*
X1988548Y1585534D02*
Y1588616D01*
X1988798Y1585284D02*
Y1588866D01*
X1989048Y1585034D02*
Y1589116D01*
X1989298Y1584784D02*
Y1589366D01*
X1989548Y1585034D02*
Y1589116D01*
X1989798Y1585284D02*
Y1588866D01*
X1990048Y1585534D02*
Y1588616D01*
X1990298Y1585784D02*
Y1588366D01*
X1990548Y1586034D02*
Y1588116D01*
X1990798Y1586284D02*
Y1587866D01*
X1991048Y1586534D02*
Y1587616D01*
X1991298Y1586784D02*
Y1587366D01*
X1991548Y1587034D02*
Y1587116D01*
X1987761Y1590903D02*
X1985470Y1593194D01*
X1983179Y1590903*
X1985470Y1588612*
X1987761Y1590903*
X1983298Y1590784D02*
Y1591022D01*
X1983548Y1590534D02*
Y1591272D01*
X1983798Y1590284D02*
Y1591522D01*
X1984048Y1590034D02*
Y1591772D01*
X1984298Y1589784D02*
Y1592022D01*
X1984548Y1589534D02*
Y1592272D01*
X1984798Y1589284D02*
Y1592522D01*
X1985048Y1589034D02*
Y1592772D01*
X1985298Y1588784D02*
Y1593022D01*
X1985548Y1588690D02*
Y1593116D01*
X1985798Y1588940D02*
Y1592866D01*
X1986048Y1589190D02*
Y1592616D01*
X1986298Y1589440D02*
Y1592366D01*
X1986548Y1589690D02*
Y1592116D01*
X1986798Y1589940D02*
Y1591866D01*
X1987048Y1590190D02*
Y1591616D01*
X1987298Y1590440D02*
Y1591366D01*
X1987548Y1590690D02*
Y1591116D01*
X1983933Y1594731D02*
X1981642Y1597022D01*
X1979351Y1594731*
X1981642Y1592440*
X1983933Y1594731*
X1979548Y1594534D02*
Y1594928D01*
X1979798Y1594284D02*
Y1595178D01*
X1980048Y1594034D02*
Y1595428D01*
X1980298Y1593784D02*
Y1595678D01*
X1980548Y1593534D02*
Y1595928D01*
X1980798Y1593284D02*
Y1596178D01*
X1981048Y1593034D02*
Y1596428D01*
X1981298Y1592784D02*
Y1596678D01*
X1981548Y1592534D02*
Y1596928D01*
X1981798Y1592596D02*
Y1596866D01*
X1982048Y1592846D02*
Y1596616D01*
X1982298Y1593096D02*
Y1596366D01*
X1982548Y1593346D02*
Y1596116D01*
X1982798Y1593596D02*
Y1595866D01*
X1983048Y1593846D02*
Y1595616D01*
X1983298Y1594096D02*
Y1595366D01*
X1983548Y1594346D02*
Y1595116D01*
X1983798Y1594596D02*
Y1594866D01*
X1987761Y1598559D02*
X1985470Y1600850D01*
X1983179Y1598559*
X1985470Y1596268*
X1987761Y1598559*
X1983298Y1598440D02*
Y1598678D01*
X1983548Y1598190D02*
Y1598928D01*
X1983798Y1597940D02*
Y1599178D01*
X1984048Y1597690D02*
Y1599428D01*
X1984298Y1597440D02*
Y1599678D01*
X1984548Y1597190D02*
Y1599928D01*
X1984798Y1596940D02*
Y1600178D01*
X1985048Y1596690D02*
Y1600428D01*
X1985298Y1596440D02*
Y1600678D01*
X1985548Y1596346D02*
Y1600772D01*
X1985798Y1596596D02*
Y1600522D01*
X1986048Y1596846D02*
Y1600272D01*
X1986298Y1597096D02*
Y1600022D01*
X1986548Y1597346D02*
Y1599772D01*
X1986798Y1597596D02*
Y1599522D01*
X1987048Y1597846D02*
Y1599272D01*
X1987298Y1598096D02*
Y1599022D01*
X1987548Y1598346D02*
Y1598772D01*
G54D27*
X1986765Y1607008D02*
X1987934Y1605839D01*
X1985373Y1605616D02*
X1986542Y1604447D01*
X1983981Y1604224D02*
X1985150Y1603055D01*
X1982589Y1602832D02*
X1983758Y1601663D01*
X1981197Y1601440D02*
X1982366Y1600271D01*
X1979805Y1600048D02*
X1980974Y1598879D01*
X1978413Y1598656D02*
X1979582Y1597487D01*
X1977021Y1597264D02*
X1978190Y1596095D01*
X1977021Y1592198D02*
X1978190Y1593367D01*
X1978413Y1590806D02*
X1979582Y1591975D01*
X1979805Y1589414D02*
X1980974Y1590583D01*
X1981197Y1588022D02*
X1982366Y1589191D01*
X1982589Y1586630D02*
X1983758Y1587799D01*
X1983981Y1585238D02*
X1985150Y1586407D01*
X1985373Y1583846D02*
X1986542Y1585015D01*
X1986765Y1582454D02*
X1987934Y1583623D01*
X1990662D02*
X1991831Y1582454D01*
X1992054Y1585015D02*
X1993223Y1583846D01*
X1993446Y1586407D02*
X1994615Y1585238D01*
X1994838Y1587799D02*
X1996007Y1586630D01*
X1996230Y1589191D02*
X1997399Y1588022D01*
X1997622Y1590583D02*
X1998791Y1589414D01*
X1999014Y1591975D02*
X2000183Y1590806D01*
X2000406Y1593367D02*
X2001575Y1592198D01*
X2000406Y1596095D02*
X2001575Y1597264D01*
X1999014Y1597487D02*
X2000183Y1598656D01*
X1997622Y1598879D02*
X1998791Y1600048D01*
X1996230Y1600271D02*
X1997399Y1601440D01*
X1994838Y1601663D02*
X1996007Y1602832D01*
X1993446Y1603055D02*
X1994615Y1604224D01*
X1992054Y1604447D02*
X1993223Y1605616D01*
X1990662Y1605839D02*
X1991831Y1607008D01*
G54D31*
X2004778Y1605542D02*
Y1607049D01*
X2002748Y1609079*
X2000242Y1606574*
X2003026Y1603790*
X2004778Y1605542*
X2000394Y1606422D02*
Y1606725D01*
X2000591Y1606225D02*
Y1606922D01*
X2000787Y1606029D02*
Y1607119D01*
X2000984Y1605832D02*
Y1607316D01*
X2001181Y1605635D02*
Y1607513D01*
X2001378Y1605438D02*
Y1607710D01*
X2001575Y1605241D02*
Y1607906D01*
X2001772Y1605044D02*
Y1608103D01*
X2001969Y1604848D02*
Y1608300D01*
X2002165Y1604651D02*
Y1608497D01*
X2002362Y1604454D02*
Y1608694D01*
X2002559Y1604257D02*
Y1608891D01*
X2002756Y1604060D02*
Y1609071D01*
X2002953Y1603863D02*
Y1608874D01*
X2003150Y1603913D02*
Y1608677D01*
X2003346Y1604110D02*
Y1608481D01*
X2003543Y1604307D02*
Y1608284D01*
X2003740Y1604504D02*
Y1608087D01*
X2003937Y1604701D02*
Y1607890D01*
X2004134Y1604898D02*
Y1607693D01*
X2004331Y1605095D02*
Y1607496D01*
X2004528Y1605291D02*
Y1607299D01*
X2004724Y1605488D02*
Y1607103D01*
G54D36*
X1973622Y1616142D02*
X1971260D01*
Y1577559*
X2017717*
Y1616142*
X1987008*
G54D296*
X1996371Y1583703D03*
X1998537D03*
X1993721Y1581303D03*
X1995887D03*
X1993621Y1611863D03*
X1995787D03*
X1993621Y1609453D03*
X1995787D03*
X2009670Y1594973D03*
X2011835D03*
X2000965Y1586153D03*
X1998799D03*
G54D301*
X1980924Y1606122D03*
Y1608288D03*
X1977494Y1588046D03*
Y1585880D03*
X1983320Y1606122D03*
Y1608287D03*
X1978404Y1608288D03*
Y1606122D03*
G54D308*
X1975000Y1606581D03*
Y1603825D03*
X0Y0D02*
M02*
