*
*
G04 PADS 9.5 Build Number: 522968 generated Gerber (RS-274-X) file*
G04 PC Version=2.1*
*
%IN "PCB_ESP32-C3-MINI-1_V1."*%
*
%MOIN*%
*
%FSLAX35Y35*%
*
*
*
*
G04 PC Standard Apertures*
*
*
G04 Thermal Relief Aperture macro.*
%AMTER*
1,1,$1,0,0*
1,0,$1-$2,0,0*
21,0,$3,$4,0,0,45*
21,0,$3,$4,0,0,135*
%
*
*
G04 Annular Aperture macro.*
%AMANN*
1,1,$1,0,0*
1,0,$2,0,0*
%
*
*
G04 Odd Aperture macro.*
%AMODD*
1,1,$1,0,0*
1,0,$1-0.005,0,0*
%
*
*
G04 PC Custom Aperture Macros*
*
*
*
*
*
*
G04 PC Aperture Table*
*
%ADD010C,0.001*%
%ADD012C,0.01*%
%ADD024C,0.005*%
%ADD055C,0.004*%
%ADD093C,0.007*%
%ADD407C,0.00472*%
*
*
*
*
G04 PC Circuitry*
G04 Layer Name PCB_ESP32-C3-MINI-1_V1. - circuitry*
%LPD*%
*
G54D10*
G01X2015648Y1621988D02*
X2013659D01*
Y1621767*
X2015296*
X2015346Y1621717*
Y1620792*
X2015296Y1620742*
X2013779*
Y1620521*
X2015296*
X2015346Y1620471*
Y1619467*
X2015296Y1619417*
X2013578*
Y1619195*
X2015648*
Y1621988*
X2015963Y1635983D02*
X2015523D01*
Y1634353*
X2015473Y1634303*
X2014093*
X2014043Y1634353*
Y1635983*
X2013603*
Y1632063*
X2014043*
Y1633873*
X2014093Y1633923*
X2015473*
X2015523Y1633873*
Y1632063*
X2015963*
Y1635983*
X2013069Y1620100D02*
X2012766D01*
X2012734Y1619939*
X2012731Y1619930*
X2012651Y1619729*
X2012640Y1619712*
X2012519Y1619592*
X2012514Y1619587*
X2012353Y1619467*
X2012342Y1619460*
X2012141Y1619380*
X2012122Y1619376*
X2011921*
X2011910Y1619378*
X2011549Y1619458*
X2011537Y1619462*
X2011377Y1619542*
X2011364Y1619552*
X2011283Y1619632*
X2011274Y1619645*
X2011194Y1619806*
X2011194D02*
X2011188Y1619828D01*
Y1619949*
X2011192Y1619967*
X2011272Y1620168*
X2011277Y1620177*
X2011357Y1620298*
X2011377Y1620315*
X2011537Y1620395*
X2011548Y1620399*
X2012344Y1620598*
X2012734Y1620832*
X2012844Y1620943*
X2012918Y1621090*
X2012955Y1621275*
X2012918Y1621461*
X2012843Y1621648*
X2012694Y1621797*
X2012503Y1621912*
X2012271Y1621989*
X2012001Y1622028*
X2011691Y1621989*
X2011458Y1621911*
X2011228Y1621796*
X2011080Y1621648*
X2011005Y1621462*
X2010976Y1621284*
X2011276*
X2011309Y1621484*
X2011323Y1621511*
X2011484Y1621672*
X2011501Y1621683*
X2011702Y1621763*
X2011712Y1621766*
X2011953Y1621806*
X2011969*
X2012250Y1621766*
X2012261Y1621763*
X2012462Y1621683*
X2012484Y1621666*
X2012604Y1621505*
X2012613Y1621488*
X2012653Y1621327*
Y1621303*
X2012613Y1621142*
X2012599Y1621119*
X2012525Y1621044*
X2012488Y1620971*
X2012459Y1620946*
X2012339Y1620906*
X2012335Y1620905*
X2012178Y1620865*
X2011980Y1620786*
X2011972Y1620784*
X2011613Y1620704*
X2011378Y1620626*
X2011147Y1620510*
X2011000Y1620363*
X2010925Y1620176*
X2010887Y1619950*
X2010887D02*
X2010925Y1619762D01*
X2011001Y1619572*
X2011150Y1619386*
X2011378Y1619272*
X2011611Y1619194*
X2011882Y1619155*
X2012234Y1619194*
X2012544Y1619272*
X2012771Y1619423*
X2012923Y1619613*
X2013038Y1619882*
X2013069Y1620100*
X2012903Y1635983D02*
X2010543D01*
Y1635603*
X2012413*
X2012463Y1635553*
Y1634233*
X2012413Y1634183*
X2011023*
Y1633863*
X2012413*
X2012463Y1633813*
Y1632063*
X2012903*
Y1635983*
X2010264Y1621988D02*
X2008994D01*
X2008841Y1621950*
X2008493Y1621834*
X2008383Y1621724*
X2008269Y1621571*
X2008194Y1621385*
Y1621197*
X2008233Y1620892*
X2008424Y1620624*
X2008534Y1620514*
X2008721Y1620439*
X2008913Y1620400*
X2009912*
X2009962Y1620350*
Y1619195*
X2010264*
Y1621988*
X2009962Y1621717D02*
Y1620672D01*
X2009912Y1620622*
X2009189*
X2009182*
X2008901Y1620663*
X2008889Y1620666*
X2008688Y1620746*
X2008664Y1620767*
X2008544Y1620968*
X2008537Y1620984*
X2008497Y1621184*
X2008496Y1621194*
Y1621355*
X2008502Y1621377*
X2008582Y1621538*
X2008591Y1621551*
X2008712Y1621672*
X2008731Y1621684*
X2008972Y1621764*
X2008988Y1621767*
X2009912*
X2009962Y1621717*
X2007680Y1619865D02*
X2007416Y1619895D01*
X2007348Y1619692*
X2007341Y1619678*
X2007220Y1619517*
X2007203Y1619502*
X2007042Y1619422*
X2007029Y1619418*
X2006828Y1619377*
X2006810*
X2006569Y1619417*
X2006548Y1619427*
X2006387Y1619547*
X2006374Y1619561*
X2006253Y1619762*
X2006247Y1619778*
X2006207Y1619979*
X2006206Y1619989*
X2006207Y1619997*
X2006247Y1620238*
X2006256Y1620260*
X2006377Y1620421*
X2006387Y1620431*
X2006548Y1620551*
X2006569Y1620561*
X2006810Y1620601*
X2006827*
X2007002Y1620572*
X2006975Y1620783*
X2006738*
X2006708Y1620793*
X2006548Y1620913*
X2006542Y1620918*
X2006422Y1621038*
X2006408Y1621064*
X2006368Y1621265*
Y1621287*
X2006408Y1621447*
X2006412Y1621458*
X2006493Y1621618*
X2006510Y1621638*
X2006630Y1621718*
X2006648Y1621725*
X2006849Y1621766*
X2006871Y1621765*
X2007032Y1621725*
X2007042Y1621721*
X2007203Y1621641*
X2007225Y1621618*
X2007305Y1621458*
X2007307Y1621454*
X2007373Y1621288*
X2007633Y1621317*
X2007537Y1621573*
X2007385Y1621801*
X2007162Y1621950*
X2006861Y1621987*
X2006672Y1621950*
X2006482Y1621873*
X2006181Y1621648*
X2006106Y1621276*
X2006180Y1620982*
X2006180D02*
X2006487Y1620752D01*
X2006473Y1620665*
X2006243Y1620588*
X2006095Y1620440*
X2005983Y1620253*
X2005945Y1619991*
X2006021Y1619687*
X2006211Y1619383*
X2006475Y1619233*
X2006861Y1619156*
X2007164Y1619193*
X2007427Y1619344*
X2007616Y1619608*
X2007680Y1619865*
X2005514Y1619195D02*
X2005484Y1619373D01*
X2005409Y1619562*
X2005095Y1619954*
X2004817Y1620193*
X2004455Y1620514*
X2004450Y1620519*
X2004209Y1620800*
X2004204Y1620807*
X2004084Y1621008*
X2004078Y1621024*
X2004037Y1621225*
Y1621244*
X2004078Y1621445*
X2004091Y1621471*
X2004212Y1621591*
X2004217Y1621596*
X2004378Y1621716*
X2004398Y1621725*
X2004599Y1621766*
X2004617*
X2004858Y1621726*
X2004880Y1621716*
X2005041Y1621596*
X2005051Y1621586*
X2005171Y1621425*
X2005180Y1621405*
X2005211Y1621249*
X2005470Y1621278*
X2005406Y1621534*
X2005217Y1621799*
X2004955Y1621949*
X2004611Y1621987*
X2004265Y1621910*
X2003999Y1621758*
X2003813Y1621535*
X2003776Y1621237*
X2003853Y1620928*
X2003930Y1620737*
X2004045Y1620582*
X2004243Y1620345*
X2004561Y1620067*
X2004801Y1619867*
X2004960Y1619748*
X2004969Y1619739*
X2005130Y1619538*
X2005091Y1619457*
X2003735*
Y1619195*
X2005514*
X2003273Y1620260D02*
X2002288D01*
Y1620039*
X2003273*
Y1620260*
X2001867Y1620592D02*
X2001827Y1621023D01*
X2001711Y1621372*
X2001518Y1621642*
X2001248Y1621874*
X2000941Y1621989*
X2000591Y1622028*
X2000246Y1621990*
X1999939Y1621798*
X1999709Y1621567*
X1999577Y1621271*
X1999878Y1621211*
X1999982Y1621455*
X1999993Y1621471*
X2000154Y1621631*
X2000163Y1621639*
X2000364Y1621759*
X2000382Y1621766*
X2000623Y1621806*
X2000638*
X2000919Y1621766*
X2000935Y1621761*
X2001176Y1621641*
X2001192Y1621627*
X2001353Y1621426*
X2001359Y1621417*
X2001479Y1621176*
X2001484Y1621161*
X2001524Y1620880*
X2001564Y1620640*
X2001565Y1620632*
Y1620626*
X2001525Y1620265*
X2001523Y1620258*
X2001443Y1619937*
X2001437Y1619923*
X2001317Y1619722*
X2001313Y1619717*
X2001152Y1619516*
X2001129Y1619499*
X2000888Y1619419*
X2000880Y1619417*
X2000639Y1619377*
X2000624*
X2000343Y1619417*
X2000322Y1619425*
X2000081Y1619586*
X2000070Y1619596*
X1999909Y1619797*
X1999901Y1619811*
X1999796Y1620092*
X1999493Y1620032*
X1999630Y1619653*
X1999860Y1619385*
X2000204Y1619194*
X2000591Y1619155*
X2000979Y1619194*
X2001288Y1619349*
X2001556Y1619540*
X2001710Y1619847*
X2001827Y1620200*
X2001867Y1620592*
X1998962Y1619865D02*
X1998697Y1619895D01*
X1998629Y1619692*
X1998622Y1619678*
X1998501Y1619517*
X1998484Y1619502*
X1998323Y1619422*
X1998311Y1619418*
X1998110Y1619377*
X1998092*
X1997851Y1619417*
X1997829Y1619427*
X1997668Y1619547*
X1997655Y1619561*
X1997535Y1619762*
X1997528Y1619778*
X1997488Y1619979*
X1997487Y1619989*
X1997488Y1619997*
X1997528Y1620238*
X1997538Y1620260*
X1997658Y1620421*
X1997668Y1620431*
X1997829Y1620551*
X1997851Y1620561*
X1998092Y1620601*
X1998108*
X1998283Y1620572*
X1998257Y1620783*
X1998019*
X1997989Y1620793*
X1997829Y1620913*
X1997823Y1620918*
X1997703Y1621038*
X1997689Y1621064*
X1997649Y1621265*
X1997650Y1621287*
X1997690Y1621447*
X1997694Y1621458*
X1997694D02*
X1997774Y1621618D01*
X1997791Y1621638*
X1997911Y1621718*
X1997929Y1621725*
X1998130Y1621766*
X1998152Y1621765*
X1998313Y1621725*
X1998323Y1621721*
X1998484Y1621641*
X1998506Y1621618*
X1998587Y1621458*
X1998588Y1621454*
X1998654Y1621288*
X1998914Y1621317*
X1998818Y1621573*
X1998666Y1621801*
X1998444Y1621950*
X1998142Y1621987*
X1997953Y1621950*
X1997763Y1621873*
X1997462Y1621648*
X1997388Y1621276*
X1997461Y1620982*
X1997461D02*
X1997768Y1620752D01*
X1997754Y1620665*
X1997524Y1620588*
X1997376Y1620440*
X1997264Y1620253*
X1997227Y1619991*
X1997303Y1619687*
X1997493Y1619383*
X1997756Y1619233*
X1998142Y1619156*
X1998445Y1619193*
X1998708Y1619344*
X1998897Y1619608*
X1998962Y1619865*
X1996804Y1620260D02*
X1995819D01*
Y1620039*
X1996804*
Y1620260*
X1995318Y1621988D02*
X1994802D01*
X1994170Y1619973*
X1994089Y1619732*
X1994087Y1619725*
X1994006Y1619565*
X1993913Y1619575*
X1993873Y1619735*
X1993793Y1620015*
X1993162Y1621988*
X1992645*
Y1619195*
X1992947*
Y1621596*
X1993045Y1621612*
X1993837Y1619195*
X1994166*
X1994918Y1621611*
X1995016Y1621596*
Y1619195*
X1995318*
Y1621988*
X1991903D02*
X1991601D01*
Y1619195*
X1991903*
Y1621988*
X1990818D02*
X1990453D01*
X1989061Y1619841*
X1988969Y1619868*
Y1621988*
X1988668*
Y1619195*
X1989032*
X1990424Y1621342*
X1990516Y1621315*
Y1619195*
X1990818*
Y1621988*
X1987885D02*
X1987583D01*
Y1619195*
X1987885*
Y1621988*
X1987001Y1620260D02*
X1986016D01*
Y1620039*
X1987001*
Y1620260*
X1985353Y1621286D02*
X1985097Y1621432D01*
X1985094Y1621434*
X1984853Y1621595*
X1984846Y1621601*
X1984645Y1621802*
X1984637Y1621811*
X1984531Y1621988*
X1984369*
Y1619195*
X1984630*
Y1621395*
X1984710Y1621435*
X1985028Y1621197*
X1985353Y1621034*
Y1621286*
X1981312Y1621988D02*
X1980978D01*
X1980187Y1619932*
X1980027Y1619451*
X1979931Y1619454*
X1979811Y1619934*
X1979021Y1621988*
X1978686*
X1979772Y1619195*
X1980187*
X1981312Y1621988*
X1978161Y1621286D02*
X1977905Y1621432D01*
X1977902Y1621434*
X1977661Y1621595*
X1977654Y1621601*
X1977453Y1621802*
X1977445Y1621811*
X1977339Y1621988*
X1977177*
Y1619195*
X1977438*
Y1621395*
X1977518Y1621435*
X1977836Y1621197*
X1978161Y1621034*
Y1621286*
X1975992Y1619457D02*
X1975730D01*
Y1619195*
X1975992*
Y1619457*
X1974786Y1621286D02*
X1974530Y1621432D01*
X1974527Y1621434*
X1974286Y1621595*
X1974279Y1621601*
X1974078Y1621802*
X1974070Y1621811*
X1973964Y1621988*
X1973802*
Y1619195*
X1974063*
Y1621395*
X1974143Y1621435*
X1974461Y1621197*
X1974786Y1621034*
Y1621286*
X1973900Y1619195D02*
Y1621988D01*
X1974000Y1619195D02*
Y1621929D01*
X1974100Y1621443D02*
Y1621780D01*
X1974200Y1621393D02*
Y1621680D01*
X1974300Y1621318D02*
Y1621586D01*
X1974400Y1621243D02*
Y1621519D01*
X1974500Y1621177D02*
Y1621452D01*
X1974600Y1621127D02*
Y1621392D01*
X1974700Y1621077D02*
Y1621335D01*
X1975800Y1619195D02*
Y1619457D01*
X1975900Y1619195D02*
Y1619457D01*
X1977200Y1619195D02*
Y1621988D01*
X1977300Y1619195D02*
Y1621988D01*
X1977400Y1619195D02*
Y1621887D01*
X1977500Y1621444D02*
Y1621755D01*
X1977600Y1621374D02*
Y1621655D01*
X1977700Y1621299D02*
Y1621569D01*
X1977800Y1621224D02*
Y1621502D01*
X1977900Y1621165D02*
Y1621436D01*
X1978000Y1621115D02*
Y1621378D01*
X1978100Y1621065D02*
Y1621321D01*
X1978700Y1621953D02*
Y1621988D01*
X1978800Y1621696D02*
Y1621988D01*
X1978900Y1621439D02*
Y1621988D01*
X1979000Y1621181D02*
Y1621988D01*
X1979100Y1620924D02*
Y1621782D01*
X1979200Y1620667D02*
Y1621522D01*
X1979300Y1620410D02*
Y1621262D01*
X1979400Y1620153D02*
Y1621002D01*
X1979500Y1619896D02*
Y1620742D01*
X1979600Y1619638D02*
Y1620482D01*
X1979700Y1619381D02*
Y1620222D01*
X1979800Y1619195D02*
Y1619962D01*
X1979900Y1619195D02*
Y1619578D01*
X1980000Y1619195D02*
Y1619421D01*
X1980100Y1619195D02*
Y1619671D01*
X1980200Y1619228D02*
Y1619965D01*
X1980300Y1619477D02*
Y1620225D01*
X1980400Y1619725D02*
Y1620485D01*
X1980500Y1619973D02*
Y1620745D01*
X1980600Y1620221D02*
Y1621005D01*
X1980700Y1620470D02*
Y1621265D01*
X1980800Y1620718D02*
Y1621525D01*
X1980900Y1620966D02*
Y1621785D01*
X1981000Y1621215D02*
Y1621988D01*
X1981100Y1621463D02*
Y1621988D01*
X1981200Y1621711D02*
Y1621988D01*
X1981300Y1621959D02*
Y1621988D01*
X1984400Y1619195D02*
Y1621988D01*
X1984500Y1619195D02*
Y1621988D01*
X1984600Y1619195D02*
Y1621874D01*
X1984700Y1621441D02*
Y1621747D01*
X1984800Y1621368D02*
Y1621647D01*
X1984900Y1621293D02*
Y1621563D01*
X1985000Y1621218D02*
Y1621497D01*
X1985100Y1621161D02*
Y1621431D01*
X1985200Y1621111D02*
Y1621373D01*
X1985300Y1621061D02*
Y1621316D01*
X1986100Y1620039D02*
Y1620260D01*
X1986200Y1620039D02*
Y1620260D01*
X1986300Y1620039D02*
Y1620260D01*
X1986400Y1620039D02*
Y1620260D01*
X1986500Y1620039D02*
Y1620260D01*
X1986600Y1620039D02*
Y1620260D01*
X1986700Y1620039D02*
Y1620260D01*
X1986800Y1620039D02*
Y1620260D01*
X1986900Y1620039D02*
Y1620260D01*
X1987000Y1620039D02*
Y1620260D01*
X1987600Y1619195D02*
Y1621988D01*
X1987700Y1619195D02*
Y1621988D01*
X1987800Y1619195D02*
Y1621988D01*
X1988700Y1619195D02*
Y1621988D01*
X1988800Y1619195D02*
Y1621988D01*
X1988900Y1619195D02*
Y1621988D01*
X1989000Y1619195D02*
Y1619822D01*
X1989100Y1619299D02*
Y1619901D01*
X1989200Y1619454D02*
Y1620055D01*
X1989300Y1619608D02*
Y1620209D01*
X1989400Y1619762D02*
Y1620363D01*
X1989500Y1619916D02*
Y1620518D01*
X1989600Y1620071D02*
Y1620672D01*
X1989700Y1620225D02*
Y1620826D01*
X1989800Y1620379D02*
Y1620981D01*
X1989900Y1620534D02*
Y1621135D01*
X1990000Y1620688D02*
Y1621289D01*
X1990100Y1620842D02*
Y1621443D01*
X1990200Y1620996D02*
Y1621598D01*
X1990300Y1621151D02*
Y1621752D01*
X1990400Y1621305D02*
Y1621906D01*
X1990500Y1621351D02*
Y1621988D01*
X1990600Y1619195D02*
Y1621988D01*
X1990700Y1619195D02*
Y1621988D01*
X1990800Y1619195D02*
Y1621988D01*
X1991700Y1619195D02*
Y1621988D01*
X1991800Y1619195D02*
Y1621988D01*
X1991900Y1619195D02*
Y1621988D01*
X1992700Y1619195D02*
Y1621988D01*
X1992800Y1619195D02*
Y1621988D01*
X1992900Y1619195D02*
Y1621988D01*
X1993000Y1621646D02*
Y1621988D01*
X1993100Y1621443D02*
Y1621988D01*
X1993200Y1621138D02*
Y1621868D01*
X1993300Y1620833D02*
Y1621555D01*
X1993400Y1620528D02*
Y1621243D01*
X1993500Y1620223D02*
Y1620930D01*
X1993600Y1619918D02*
Y1620618D01*
X1993700Y1619613D02*
Y1620305D01*
X1993800Y1619308D02*
Y1619990D01*
X1993900Y1619195D02*
Y1619627D01*
X1994000Y1619195D02*
Y1619555D01*
X1994100Y1619195D02*
Y1619764D01*
X1994200Y1619305D02*
Y1620070D01*
X1994300Y1619626D02*
Y1620389D01*
X1994400Y1619947D02*
Y1620707D01*
X1994500Y1620268D02*
Y1621026D01*
X1994600Y1620589D02*
Y1621345D01*
X1994700Y1620910D02*
Y1621664D01*
X1994800Y1621232D02*
Y1621982D01*
X1994900Y1621553D02*
Y1621988D01*
X1995000Y1621633D02*
Y1621988D01*
X1995100Y1619195D02*
Y1621988D01*
X1995200Y1619195D02*
Y1621988D01*
X1995300Y1619195D02*
Y1621988D01*
X1995900Y1620039D02*
Y1620260D01*
X1996000Y1620039D02*
Y1620260D01*
X1996100Y1620039D02*
Y1620260D01*
X1996200Y1620039D02*
Y1620260D01*
X1996300Y1620039D02*
Y1620260D01*
X1996400Y1620039D02*
Y1620260D01*
X1996500Y1620039D02*
Y1620260D01*
X1996600Y1620039D02*
Y1620260D01*
X1996700Y1620039D02*
Y1620260D01*
X1996800Y1620039D02*
Y1620260D01*
X1997300Y1619698D02*
Y1620313D01*
X1997400Y1619532D02*
Y1620464D01*
Y1621226D02*
Y1621337D01*
X1997500Y1619379D02*
Y1619921D01*
Y1620069D02*
Y1620564D01*
Y1620953D02*
Y1621676D01*
X1997600Y1619322D02*
Y1619653D01*
Y1620343D02*
Y1620613D01*
Y1620878D02*
Y1621751D01*
X1997700Y1619265D02*
Y1619523D01*
Y1620455D02*
Y1620647D01*
Y1620803D02*
Y1621041D01*
Y1621471D02*
Y1621826D01*
X1997800Y1619224D02*
Y1619448D01*
Y1620530D02*
Y1620941D01*
Y1621644D02*
Y1621888D01*
X1997900Y1619204D02*
Y1619409D01*
Y1620569D02*
Y1620860D01*
Y1621710D02*
Y1621928D01*
X1998000Y1619184D02*
Y1619392D01*
Y1620585D02*
Y1620787D01*
Y1621740D02*
Y1621959D01*
X1998100Y1619164D02*
Y1619376D01*
Y1620601D02*
Y1620783D01*
Y1621760D02*
Y1621979D01*
X1998200Y1619163D02*
Y1619395D01*
Y1620585D02*
Y1620783D01*
Y1621753D02*
Y1621980D01*
X1998300Y1619175D02*
Y1619415D01*
Y1621728D02*
Y1621968D01*
X1998400Y1619188D02*
Y1619460D01*
Y1621683D02*
Y1621955D01*
X1998500Y1619225D02*
Y1619515D01*
Y1621628D02*
Y1621912D01*
X1998600Y1619282D02*
Y1619648D01*
Y1621424D02*
Y1621845D01*
X1998700Y1619339D02*
Y1619894D01*
Y1621293D02*
Y1621751D01*
X1998800Y1619472D02*
Y1619883D01*
Y1621304D02*
Y1621601D01*
X1998900Y1619619D02*
Y1619872D01*
Y1621316D02*
Y1621356D01*
X1999500Y1620011D02*
Y1620033D01*
X1999600Y1619736D02*
Y1620053D01*
Y1621267D02*
Y1621323D01*
X1999700Y1619572D02*
Y1620073D01*
Y1621247D02*
Y1621548D01*
X1999800Y1619455D02*
Y1620081D01*
Y1621227D02*
Y1621659D01*
X1999900Y1619363D02*
Y1619814D01*
Y1621263D02*
Y1621759D01*
X2000000Y1619307D02*
Y1619683D01*
Y1621478D02*
Y1621836D01*
X2000100Y1619252D02*
Y1619573D01*
Y1621578D02*
Y1621898D01*
X2000200Y1619196D02*
Y1619506D01*
Y1621661D02*
Y1621961D01*
X2000300Y1619184D02*
Y1619440D01*
Y1621721D02*
Y1621996D01*
X2000400Y1619174D02*
Y1619409D01*
Y1621769D02*
Y1622007D01*
X2000500Y1619164D02*
Y1619395D01*
Y1621786D02*
Y1622018D01*
X2000600Y1619156D02*
Y1619380D01*
Y1621802D02*
Y1622027D01*
X2000700Y1619166D02*
Y1619387D01*
Y1621797D02*
Y1622016D01*
X2000800Y1619176D02*
Y1619404D01*
Y1621783D02*
Y1622005D01*
X2000900Y1619186D02*
Y1619423D01*
Y1621769D02*
Y1621993D01*
X2001000Y1619205D02*
Y1619456D01*
Y1621729D02*
Y1621967D01*
X2001100Y1619255D02*
Y1619490D01*
Y1621679D02*
Y1621929D01*
X2001200Y1619305D02*
Y1619575D01*
Y1621618D02*
Y1621892D01*
X2001300Y1619357D02*
Y1619700D01*
Y1621493D02*
Y1621829D01*
X2001400Y1619429D02*
Y1619861D01*
Y1621335D02*
Y1621744D01*
X2001500Y1619500D02*
Y1620165D01*
Y1621050D02*
Y1621658D01*
X2001600Y1619628D02*
Y1621528D01*
X2001700Y1619828D02*
Y1621388D01*
X2001800Y1620118D02*
Y1621105D01*
X2002300Y1620039D02*
Y1620260D01*
X2002400Y1620039D02*
Y1620260D01*
X2002500Y1620039D02*
Y1620260D01*
X2002600Y1620039D02*
Y1620260D01*
X2002700Y1620039D02*
Y1620260D01*
X2002800Y1620039D02*
Y1620260D01*
X2002900Y1620039D02*
Y1620260D01*
X2003000Y1620039D02*
Y1620260D01*
X2003100Y1620039D02*
Y1620260D01*
X2003200Y1620039D02*
Y1620260D01*
X2003800Y1619195D02*
Y1619457D01*
Y1621140D02*
Y1621433D01*
X2003900Y1619195D02*
Y1619457D01*
Y1620811D02*
Y1621640D01*
X2004000Y1619195D02*
Y1619457D01*
Y1620643D02*
Y1621759D01*
X2004100Y1619195D02*
Y1619457D01*
Y1620517D02*
Y1620981D01*
Y1621479D02*
Y1621816D01*
X2004200Y1619195D02*
Y1619457D01*
Y1620397D02*
Y1620814D01*
Y1621579D02*
Y1621873D01*
X2004300Y1619195D02*
Y1619457D01*
Y1620295D02*
Y1620694D01*
Y1621658D02*
Y1621918D01*
X2004400Y1619195D02*
Y1619457D01*
Y1620208D02*
Y1620577D01*
Y1621726D02*
Y1621940D01*
X2004500Y1619195D02*
Y1619457D01*
Y1620120D02*
Y1620474D01*
Y1621746D02*
Y1621963D01*
X2004600Y1619195D02*
Y1619457D01*
Y1620034D02*
Y1620385D01*
Y1621766D02*
Y1621985D01*
X2004700Y1619195D02*
Y1619457D01*
Y1619951D02*
Y1620296D01*
Y1621752D02*
Y1621978D01*
X2004800Y1619195D02*
Y1619457D01*
Y1619868D02*
Y1620207D01*
Y1621735D02*
Y1621966D01*
X2004900Y1619195D02*
Y1619457D01*
Y1619793D02*
Y1620121D01*
Y1621701D02*
Y1621955D01*
X2005000Y1619195D02*
Y1619457D01*
Y1619700D02*
Y1620035D01*
Y1621626D02*
Y1621923D01*
X2005100Y1619195D02*
Y1619458D01*
Y1619575D02*
Y1619948D01*
Y1621520D02*
Y1621866D01*
X2005200Y1619195D02*
Y1619823D01*
Y1621305D02*
Y1621809D01*
X2005300Y1619195D02*
Y1619698D01*
Y1621259D02*
Y1621683D01*
X2005400Y1619195D02*
Y1619573D01*
Y1621270D02*
Y1621543D01*
X2005500Y1619195D02*
Y1619279D01*
X2006000Y1619773D02*
Y1620282D01*
X2006100Y1619562D02*
Y1620445D01*
X2006200Y1619402D02*
Y1620545D01*
Y1620967D02*
Y1621662D01*
X2006300Y1619333D02*
Y1619685D01*
Y1620318D02*
Y1620607D01*
Y1620892D02*
Y1621737D01*
X2006400Y1619275D02*
Y1619537D01*
Y1620441D02*
Y1620640D01*
Y1620817D02*
Y1621104D01*
Y1621414D02*
Y1621812D01*
X2006500Y1619228D02*
Y1619462D01*
Y1620516D02*
Y1620687D01*
Y1620738D02*
Y1620960D01*
Y1621629D02*
Y1621881D01*
X2006600Y1619208D02*
Y1619412D01*
Y1620566D02*
Y1620874D01*
Y1621698D02*
Y1621921D01*
X2006700Y1619188D02*
Y1619395D01*
Y1620582D02*
Y1620799D01*
Y1621736D02*
Y1621955D01*
X2006800Y1619168D02*
Y1619379D01*
Y1620599D02*
Y1620783D01*
Y1621756D02*
Y1621975D01*
X2006900Y1619160D02*
Y1619392D01*
Y1620588D02*
Y1620783D01*
Y1621758D02*
Y1621982D01*
X2007000Y1619173D02*
Y1619412D01*
Y1620572D02*
Y1620585D01*
Y1621733D02*
Y1621970D01*
X2007100Y1619185D02*
Y1619451D01*
Y1621692D02*
Y1621957D01*
X2007200Y1619214D02*
Y1619501D01*
Y1621642D02*
Y1621924D01*
X2007300Y1619271D02*
Y1619623D01*
Y1621468D02*
Y1621858D01*
X2007400Y1619328D02*
Y1619847D01*
Y1621291D02*
Y1621779D01*
X2007500Y1619446D02*
Y1619885D01*
Y1621302D02*
Y1621629D01*
X2007600Y1619586D02*
Y1619874D01*
Y1621313D02*
Y1621406D01*
X2008200Y1621153D02*
Y1621399D01*
X2008300Y1620797D02*
Y1621613D01*
X2008400Y1620657D02*
Y1621741D01*
X2008500Y1620548D02*
Y1621171D01*
Y1621374D02*
Y1621836D01*
X2008600Y1620487D02*
Y1620874D01*
Y1621560D02*
Y1621869D01*
X2008700Y1620447D02*
Y1620741D01*
Y1621660D02*
Y1621903D01*
X2008800Y1620423D02*
Y1620701D01*
Y1621707D02*
Y1621936D01*
X2008900Y1620403D02*
Y1620663D01*
Y1621740D02*
Y1621964D01*
X2009000Y1620400D02*
Y1620648D01*
Y1621767D02*
Y1621988D01*
X2009100Y1620400D02*
Y1620634D01*
Y1621767D02*
Y1621988D01*
X2009200Y1620400D02*
Y1620622D01*
Y1621767D02*
Y1621988D01*
X2009300Y1620400D02*
Y1620622D01*
Y1621767D02*
Y1621988D01*
X2009400Y1620400D02*
Y1620622D01*
Y1621767D02*
Y1621988D01*
X2009500Y1620400D02*
Y1620622D01*
Y1621767D02*
Y1621988D01*
X2009600Y1620400D02*
Y1620622D01*
Y1621767D02*
Y1621988D01*
X2009700Y1620400D02*
Y1620622D01*
Y1621767D02*
Y1621988D01*
X2009800Y1620400D02*
Y1620622D01*
Y1621767D02*
Y1621988D01*
X2009900Y1620400D02*
Y1620622D01*
Y1621767D02*
Y1621988D01*
X2010000Y1619195D02*
Y1621988D01*
X2010100Y1619195D02*
Y1621988D01*
X2010200Y1619195D02*
Y1621988D01*
X2010600Y1635603D02*
Y1635983D01*
X2010700Y1635603D02*
Y1635983D01*
X2010800Y1635603D02*
Y1635983D01*
X2010900Y1619886D02*
Y1620026D01*
Y1635603D02*
Y1635983D01*
X2011000Y1619574D02*
Y1620363D01*
Y1621284D02*
Y1621429D01*
Y1635603D02*
Y1635983D01*
X2011100Y1619448D02*
Y1620463D01*
Y1621284D02*
Y1621668D01*
Y1633863D02*
Y1634183D01*
Y1635603D02*
Y1635983D01*
X2011200Y1619361D02*
Y1619793D01*
Y1619988D02*
Y1620537D01*
Y1621284D02*
Y1621768D01*
Y1633863D02*
Y1634183D01*
Y1635603D02*
Y1635983D01*
X2011300Y1619311D02*
Y1619615D01*
Y1620212D02*
Y1620587D01*
Y1621427D02*
Y1621832D01*
Y1633863D02*
Y1634183D01*
Y1635603D02*
Y1635983D01*
X2011400Y1619264D02*
Y1619531D01*
Y1620327D02*
Y1620633D01*
Y1621587D02*
Y1621882D01*
Y1633863D02*
Y1634183D01*
Y1635603D02*
Y1635983D01*
X2011500Y1619231D02*
Y1619481D01*
Y1620377D02*
Y1620666D01*
Y1621682D02*
Y1621925D01*
Y1633863D02*
Y1634183D01*
Y1635603D02*
Y1635983D01*
X2011600Y1619198D02*
Y1619447D01*
Y1620412D02*
Y1620700D01*
Y1621722D02*
Y1621959D01*
Y1633863D02*
Y1634183D01*
Y1635603D02*
Y1635983D01*
X2011700Y1619181D02*
Y1619424D01*
Y1620437D02*
Y1620723D01*
Y1621762D02*
Y1621990D01*
Y1633863D02*
Y1634183D01*
Y1635603D02*
Y1635983D01*
X2011800Y1619167D02*
Y1619402D01*
Y1620462D02*
Y1620746D01*
Y1621781D02*
Y1622003D01*
Y1633863D02*
Y1634183D01*
Y1635603D02*
Y1635983D01*
X2011900Y1619157D02*
Y1619380D01*
Y1620487D02*
Y1620768D01*
Y1621797D02*
Y1622015D01*
Y1633863D02*
Y1634183D01*
Y1635603D02*
Y1635983D01*
X2012000Y1619168D02*
Y1619376D01*
Y1620512D02*
Y1620794D01*
Y1621802D02*
Y1622028D01*
Y1633863D02*
Y1634183D01*
Y1635603D02*
Y1635983D01*
X2012100Y1619180D02*
Y1619376D01*
Y1620537D02*
Y1620834D01*
Y1621787D02*
Y1622014D01*
Y1633863D02*
Y1634183D01*
Y1635603D02*
Y1635983D01*
X2012200Y1619191D02*
Y1619404D01*
Y1620562D02*
Y1620871D01*
Y1621773D02*
Y1621999D01*
Y1633863D02*
Y1634183D01*
Y1635603D02*
Y1635983D01*
X2012300Y1619211D02*
Y1619444D01*
Y1620587D02*
Y1620896D01*
Y1621747D02*
Y1621980D01*
Y1633863D02*
Y1634183D01*
Y1635603D02*
Y1635983D01*
X2012400Y1619236D02*
Y1619502D01*
Y1620632D02*
Y1620926D01*
Y1621707D02*
Y1621946D01*
Y1633863D02*
Y1634183D01*
Y1635603D02*
Y1635983D01*
X2012500Y1619261D02*
Y1619577D01*
Y1620692D02*
Y1620994D01*
Y1621644D02*
Y1621913D01*
Y1632063D02*
Y1635983D01*
X2012600Y1619309D02*
Y1619673D01*
Y1620752D02*
Y1621119D01*
Y1621511D02*
Y1621854D01*
Y1632063D02*
Y1635983D01*
X2012700Y1619376D02*
Y1619852D01*
Y1620812D02*
Y1621791D01*
Y1632063D02*
Y1635983D01*
X2012800Y1619460D02*
Y1620100D01*
Y1620898D02*
Y1621691D01*
Y1632063D02*
Y1635983D01*
X2012900Y1619585D02*
Y1620100D01*
Y1621054D02*
Y1621506D01*
Y1632063D02*
Y1635983D01*
X2013000Y1619794D02*
Y1620100D01*
X2013600Y1619195D02*
Y1619417D01*
X2013700Y1619195D02*
Y1619417D01*
Y1621767D02*
Y1621988D01*
Y1632063D02*
Y1635983D01*
X2013800Y1619195D02*
Y1619417D01*
Y1620521D02*
Y1620742D01*
Y1621767D02*
Y1621988D01*
Y1632063D02*
Y1635983D01*
X2013900Y1619195D02*
Y1619417D01*
Y1620521D02*
Y1620742D01*
Y1621767D02*
Y1621988D01*
Y1632063D02*
Y1635983D01*
X2014000Y1619195D02*
Y1619417D01*
Y1620521D02*
Y1620742D01*
Y1621767D02*
Y1621988D01*
Y1632063D02*
Y1635983D01*
X2014100Y1619195D02*
Y1619417D01*
Y1620521D02*
Y1620742D01*
Y1621767D02*
Y1621988D01*
Y1633923D02*
Y1634303D01*
X2014200Y1619195D02*
Y1619417D01*
Y1620521D02*
Y1620742D01*
Y1621767D02*
Y1621988D01*
Y1633923D02*
Y1634303D01*
X2014300Y1619195D02*
Y1619417D01*
Y1620521D02*
Y1620742D01*
Y1621767D02*
Y1621988D01*
Y1633923D02*
Y1634303D01*
X2014400Y1619195D02*
Y1619417D01*
Y1620521D02*
Y1620742D01*
Y1621767D02*
Y1621988D01*
Y1633923D02*
Y1634303D01*
X2014500Y1619195D02*
Y1619417D01*
Y1620521D02*
Y1620742D01*
Y1621767D02*
Y1621988D01*
Y1633923D02*
Y1634303D01*
X2014600Y1619195D02*
Y1619417D01*
Y1620521D02*
Y1620742D01*
Y1621767D02*
Y1621988D01*
Y1633923D02*
Y1634303D01*
X2014700Y1619195D02*
Y1619417D01*
Y1620521D02*
Y1620742D01*
Y1621767D02*
Y1621988D01*
Y1633923D02*
Y1634303D01*
X2014800Y1619195D02*
Y1619417D01*
Y1620521D02*
Y1620742D01*
Y1621767D02*
Y1621988D01*
Y1633923D02*
Y1634303D01*
X2014900Y1619195D02*
Y1619417D01*
Y1620521D02*
Y1620742D01*
Y1621767D02*
Y1621988D01*
Y1633923D02*
Y1634303D01*
X2015000Y1619195D02*
Y1619417D01*
Y1620521D02*
Y1620742D01*
Y1621767D02*
Y1621988D01*
Y1633923D02*
Y1634303D01*
X2015100Y1619195D02*
Y1619417D01*
Y1620521D02*
Y1620742D01*
Y1621767D02*
Y1621988D01*
Y1633923D02*
Y1634303D01*
X2015200Y1619195D02*
Y1619417D01*
Y1620521D02*
Y1620742D01*
Y1621767D02*
Y1621988D01*
Y1633923D02*
Y1634303D01*
X2015300Y1619195D02*
Y1619417D01*
Y1620521D02*
Y1620743D01*
Y1621766D02*
Y1621988D01*
Y1633923D02*
Y1634303D01*
X2015400Y1619195D02*
Y1621988D01*
Y1633923D02*
Y1634303D01*
X2015500Y1619195D02*
Y1621988D01*
Y1633915D02*
Y1634311D01*
X2015600Y1619195D02*
Y1621988D01*
Y1632063D02*
Y1635983D01*
X2015700Y1632063D02*
Y1635983D01*
X2015800Y1632063D02*
Y1635983D01*
X2015900Y1632063D02*
Y1635983D01*
*
G04 PC Custom Flashes*
G04 Layer Name PCB_ESP32-C3-MINI-1_V1. - flashes*
%LPD*%
*
*
G04 PC Circuitry*
G04 Layer Name PCB_ESP32-C3-MINI-1_V1. - circuitry*
%LPD*%
*
G54D10*
G54D12*
X1968504Y1640157D02*
X2020472D01*
Y1574803*
X1968504*
Y1640157*
G54D24*
X2002118Y1628543D02*
Y1623303D01*
X2014717*
Y1628543*
X2002118*
G54D55*
X2016536Y1618898D02*
X2020473D01*
X1972441D02*
X1968504D01*
X1995183Y1625243D02*
X1995026Y1625294D01*
X1994681Y1625305*
X1994305Y1624941*
X1994198Y1624569*
X1994214Y1624338*
X1994282Y1624178*
X1991596Y1625007D02*
X1991759Y1625363D01*
X1992054Y1625554*
X1992364Y1625493*
X1992797Y1624964*
X1992928Y1624634*
X1992958Y1624377*
X1992893Y1624105*
X2020473Y1574803D02*
X1968504D01*
Y1640157*
X2020473*
Y1574803*
X1990848Y1637432D02*
X1988208Y1632726D01*
X1988596Y1632354*
X1989394Y1632116*
X1992183Y1631838*
X1993481Y1631532*
X1993773Y1630853*
X1994400Y1631301*
X1990848Y1637432*
X1995474Y1629426D02*
X1995071Y1629247D01*
X1995934Y1627713*
X1995438Y1625022*
X1994321Y1623885*
X1993753Y1623843*
X1993387Y1624305*
X1993429Y1625551*
X1993771Y1626054*
X1993895Y1627858*
X1993483Y1628459*
X1991841Y1627478*
X1992555Y1626695*
X1993037Y1626077*
X1993318Y1625689*
X1993331Y1624602*
X1993247Y1624283*
X1992919Y1623888*
X1992208Y1623904*
X1990066Y1626409*
X1984771Y1623324*
X1999131*
X1995474Y1629426*
X1981083Y1625233D02*
X1972011D01*
Y1623337*
X1981083*
Y1625233*
X1983967Y1625374D02*
X1986474Y1629826D01*
X1986871Y1629154*
X1987107Y1628652*
X1987368Y1628411*
X1988183Y1627850*
X1983967Y1625374*
X1993619Y1631212D02*
X1994275D01*
X1993313Y1631572D02*
X1994243D01*
X1991241Y1631932D02*
X1994035D01*
X1988806Y1632292D02*
X1993826D01*
X1988286Y1632652D02*
X1993617D01*
X1988368Y1633012D02*
X1993409D01*
X1988570Y1633372D02*
X1993200D01*
X1988772Y1633732D02*
X1992991D01*
X1988974Y1634092D02*
X1992783D01*
X1989176Y1634452D02*
X1992574D01*
X1989378Y1634812D02*
X1992366D01*
X1989580Y1635172D02*
X1992157D01*
X1989782Y1635532D02*
X1991948D01*
X1989984Y1635892D02*
X1991740D01*
X1990186Y1636252D02*
X1991531D01*
X1990388Y1636612D02*
X1991323D01*
X1990590Y1636972D02*
X1991114D01*
X1990792Y1637332D02*
X1990905D01*
X1985387Y1623682D02*
X1998916D01*
X1994476Y1624042D02*
X1998701D01*
X1994829Y1624402D02*
X1998485D01*
X1995183Y1624762D02*
X1998269D01*
X1995456Y1625122D02*
X1998053D01*
X1995523Y1625482D02*
X1997838D01*
X1995589Y1625842D02*
X1997622D01*
X1995656Y1626202D02*
X1997406D01*
X1995722Y1626562D02*
X1997190D01*
X1995788Y1626922D02*
X1996975D01*
X1995855Y1627282D02*
X1996759D01*
X1995921Y1627642D02*
X1996543D01*
X1995771Y1628002D02*
X1996327D01*
X1995569Y1628362D02*
X1996112D01*
X1995366Y1628722D02*
X1995896D01*
X1995164Y1629082D02*
X1995680D01*
X1992116Y1627642D02*
X1993880D01*
X1992020Y1627282D02*
X1993855D01*
X1992348Y1626922D02*
X1993831D01*
X1992658Y1626562D02*
X1993806D01*
X1992719Y1628002D02*
X1993796D01*
X1992940Y1626202D02*
X1993781D01*
X1993207Y1625842D02*
X1993627D01*
X1993047Y1624042D02*
X1993595D01*
X1993322Y1628362D02*
X1993549D01*
X1993320Y1625482D02*
X1993427D01*
X1993325Y1625122D02*
X1993414D01*
X1993329Y1624762D02*
X1993402D01*
X1993278Y1624402D02*
X1993390D01*
X1986005Y1624042D02*
X1992090D01*
X1986623Y1624402D02*
X1991782D01*
X1987240Y1624762D02*
X1991474D01*
X1987858Y1625122D02*
X1991166D01*
X1988476Y1625482D02*
X1990859D01*
X1989094Y1625842D02*
X1990551D01*
X1989712Y1626202D02*
X1990243D01*
X1972011Y1625136D02*
X1981083D01*
X1972011Y1624776D02*
X1981083D01*
X1972011Y1624416D02*
X1981083D01*
X1972011Y1624056D02*
X1981083D01*
X1972011Y1623696D02*
X1981083D01*
X1985385Y1627893D02*
X1988120D01*
X1985183Y1627533D02*
X1987643D01*
X1985588Y1628253D02*
X1987598D01*
X1985791Y1628613D02*
X1987149D01*
X1984980Y1627173D02*
X1987030D01*
X1985994Y1628973D02*
X1986956D01*
X1986196Y1629333D02*
X1986765D01*
X1986399Y1629693D02*
X1986553D01*
X1984777Y1626813D02*
X1986417D01*
X1984574Y1626453D02*
X1985804D01*
X1984371Y1626093D02*
X1985191D01*
X1984169Y1625733D02*
X1984578D01*
G54D93*
X2017777Y1634132D02*
G75*
G03X2017777I-4344J0D01*
G01X2006737Y1634063D02*
G03X2006737I-4344J0D01*
G01X2004541Y1634023D02*
X2003658D01*
Y1636303D02*
G03Y1634023I0J-1140D01*
G01Y1636303D02*
X2004541D01*
Y1634023*
X2001313Y1636303D02*
Y1634471D01*
Y1634491D02*
G03X1999950Y1634477I-662J-1880D01*
Y1632263I644J-1107*
G01X2001313*
Y1634491*
X2005136Y1636868D02*
X1998818Y1630605D01*
X2004541Y1632263D02*
Y1634023D01*
G54D407*
X1975293Y1629123D02*
G03X1975293I-208J0D01*
G01X1973869Y1635659D02*
X1973341D01*
G03Y1635091I124J-284*
G01X1973925*
X1973165Y1637443D02*
X1973253Y1637611D01*
X1973365Y1637675*
X1973533Y1637667*
X1973613Y1637595*
X1973677Y1637523*
X1973685Y1637435*
Y1637267*
X1979733Y1636907D02*
X1979197Y1637235D01*
X1978797Y1637435*
X1978357Y1637555*
X1977885Y1637667*
X1977269Y1637755*
X1976805Y1637795*
X1976197Y1637779*
X1975613Y1637739*
X1975021Y1637643*
X1974525Y1637531*
X1974005Y1637363*
X1973549Y1637147*
X1973453Y1637083*
X1979437Y1636779D02*
X1973717D01*
X1977445Y1637827D02*
X1977421Y1638067D01*
X1977309Y1638163*
X1976661Y1638195*
X1976197*
X1975981Y1638099*
X1975893Y1638019*
Y1637779*
X1978989Y1637507D02*
Y1638003D01*
X1977133Y1634531D02*
G03X1977173Y1634899I-6J187D01*
G01X1977133Y1634531D02*
X1975864D01*
X1975912Y1634939D02*
G03X1975864Y1634531I-36J-203D01*
G01X1975912Y1634939D02*
X1977165D01*
X1975884Y1629123D02*
G03X1975884I-791J0D01*
G01X1978741Y1628803D02*
Y1628259D01*
X1978125*
Y1628827*
X1976133Y1628987D02*
X1978997D01*
X1979709Y1636907*
X1981325Y1638451D02*
X1971893Y1628459D01*
X1973869Y1636683D02*
X1974733Y1630099D01*
X1981133Y1628179D02*
X1971933Y1638571D01*
G74*
X0Y0D02*
M02*
