*
*
G04 PADS 9.5 Build Number: 522968 generated Gerber (RS-274-X) file*
G04 PC Version=2.1*
*
%IN "PCB_ESP32-C3-MINI-1_V1."*%
*
%MOIN*%
*
%FSLAX35Y35*%
*
*
*
*
G04 PC Standard Apertures*
*
*
G04 Thermal Relief Aperture macro.*
%AMTER*
1,1,$1,0,0*
1,0,$1-$2,0,0*
21,0,$3,$4,0,0,45*
21,0,$3,$4,0,0,135*
%
*
*
G04 Annular Aperture macro.*
%AMANN*
1,1,$1,0,0*
1,0,$2,0,0*
%
*
*
G04 Odd Aperture macro.*
%AMODD*
1,1,$1,0,0*
1,0,$1-0.005,0,0*
%
*
*
G04 PC Custom Aperture Macros*
*
*
*
*
*
*
G04 PC Aperture Table*
*
%ADD010C,0.001*%
%ADD012C,0.01*%
%ADD024C,0.005*%
%ADD031C,0.00394*%
%ADD036C,0.02362*%
%ADD336R,0.01381X0.01775*%
%ADD343R,0.01775X0.01381*%
%ADD344R,0.022X0.022*%
%ADD347R,0.02956X0.01775*%
%ADD348C,0.01775*%
%ADD399C,0.01302*%
*
*
*
*
G04 PC Circuitry*
G04 Layer Name PCB_ESP32-C3-MINI-1_V1. - circuitry*
%LPD*%
*
*
G04 PC Custom Flashes*
G04 Layer Name PCB_ESP32-C3-MINI-1_V1. - flashes*
%LPD*%
*
*
G04 PC Circuitry*
G04 Layer Name PCB_ESP32-C3-MINI-1_V1. - circuitry*
%LPD*%
*
G54D10*
G01X1989298Y1597446D02*
X1986583Y1594731D01*
X1989298Y1592016*
X1992013Y1594731*
X1989298Y1597446*
X1989210Y1592103D02*
X1989385D01*
X1989110Y1592203D02*
X1989485D01*
X1989010Y1592303D02*
X1989585D01*
X1988910Y1592403D02*
X1989685D01*
X1988810Y1592503D02*
X1989785D01*
X1988710Y1592603D02*
X1989885D01*
X1988610Y1592703D02*
X1989985D01*
X1988510Y1592803D02*
X1990085D01*
X1988410Y1592903D02*
X1990185D01*
X1988310Y1593003D02*
X1990285D01*
X1988210Y1593103D02*
X1990385D01*
X1988110Y1593203D02*
X1990485D01*
X1988010Y1593303D02*
X1990585D01*
X1987910Y1593403D02*
X1990685D01*
X1987810Y1593503D02*
X1990785D01*
X1987710Y1593603D02*
X1990885D01*
X1987610Y1593703D02*
X1990985D01*
X1987510Y1593803D02*
X1991085D01*
X1987410Y1593903D02*
X1991185D01*
X1987310Y1594003D02*
X1991285D01*
X1987210Y1594103D02*
X1991385D01*
X1987110Y1594203D02*
X1991485D01*
X1987010Y1594303D02*
X1991585D01*
X1986910Y1594403D02*
X1991685D01*
X1986810Y1594503D02*
X1991785D01*
X1986710Y1594603D02*
X1991885D01*
X1986610Y1594703D02*
X1991985D01*
X1986655Y1594803D02*
X1991941D01*
X1986755Y1594903D02*
X1991841D01*
X1986855Y1595003D02*
X1991741D01*
X1986955Y1595103D02*
X1991641D01*
X1987055Y1595203D02*
X1991541D01*
X1987155Y1595303D02*
X1991441D01*
X1987255Y1595403D02*
X1991341D01*
X1987355Y1595503D02*
X1991241D01*
X1987455Y1595603D02*
X1991141D01*
X1987555Y1595703D02*
X1991041D01*
X1987655Y1595803D02*
X1990941D01*
X1987755Y1595903D02*
X1990841D01*
X1987855Y1596003D02*
X1990741D01*
X1987955Y1596103D02*
X1990641D01*
X1988055Y1596203D02*
X1990541D01*
X1988155Y1596303D02*
X1990441D01*
X1988255Y1596403D02*
X1990341D01*
X1988355Y1596503D02*
X1990241D01*
X1988455Y1596603D02*
X1990141D01*
X1988555Y1596703D02*
X1990041D01*
X1988655Y1596803D02*
X1989941D01*
X1988755Y1596903D02*
X1989841D01*
X1988855Y1597003D02*
X1989741D01*
X1988955Y1597103D02*
X1989641D01*
X1989055Y1597203D02*
X1989541D01*
X1989155Y1597303D02*
X1989441D01*
X1989255Y1597403D02*
X1989341D01*
X1986604Y1594710D02*
Y1594752D01*
X1986704Y1594610D02*
Y1594852D01*
X1986804Y1594510D02*
Y1594952D01*
X1986904Y1594410D02*
Y1595052D01*
X1987004Y1594310D02*
Y1595152D01*
X1987104Y1594210D02*
Y1595252D01*
X1987204Y1594110D02*
Y1595352D01*
X1987304Y1594010D02*
Y1595452D01*
X1987404Y1593910D02*
Y1595552D01*
X1987504Y1593810D02*
Y1595652D01*
X1987604Y1593710D02*
Y1595752D01*
X1987704Y1593610D02*
Y1595852D01*
X1987804Y1593510D02*
Y1595952D01*
X1987904Y1593410D02*
Y1596052D01*
X1988004Y1593310D02*
Y1596152D01*
X1988104Y1593210D02*
Y1596252D01*
X1988204Y1593110D02*
Y1596352D01*
X1988304Y1593010D02*
Y1596452D01*
X1988404Y1592910D02*
Y1596552D01*
X1988504Y1592810D02*
Y1596652D01*
X1988604Y1592710D02*
Y1596752D01*
X1988704Y1592610D02*
Y1596852D01*
X1988804Y1592510D02*
Y1596952D01*
X1988904Y1592410D02*
Y1597052D01*
X1989004Y1592310D02*
Y1597152D01*
X1989104Y1592210D02*
Y1597252D01*
X1989204Y1592110D02*
Y1597352D01*
X1989304Y1592022D02*
Y1597440D01*
X1989404Y1592122D02*
Y1597340D01*
X1989504Y1592222D02*
Y1597240D01*
X1989604Y1592322D02*
Y1597140D01*
X1989704Y1592422D02*
Y1597040D01*
X1989804Y1592522D02*
Y1596940D01*
X1989904Y1592622D02*
Y1596840D01*
X1990004Y1592722D02*
Y1596740D01*
X1990104Y1592822D02*
Y1596640D01*
X1990204Y1592922D02*
Y1596540D01*
X1990304Y1593022D02*
Y1596440D01*
X1990404Y1593122D02*
Y1596340D01*
X1990504Y1593222D02*
Y1596240D01*
X1990604Y1593322D02*
Y1596140D01*
X1990704Y1593422D02*
Y1596040D01*
X1990804Y1593522D02*
Y1595940D01*
X1990904Y1593622D02*
Y1595840D01*
X1991004Y1593722D02*
Y1595740D01*
X1991104Y1593822D02*
Y1595640D01*
X1991204Y1593922D02*
Y1595540D01*
X1991304Y1594022D02*
Y1595440D01*
X1991404Y1594122D02*
Y1595340D01*
X1991504Y1594222D02*
Y1595240D01*
X1991604Y1594322D02*
Y1595140D01*
X1991704Y1594422D02*
Y1595040D01*
X1991804Y1594522D02*
Y1594940D01*
X1991904Y1594622D02*
Y1594840D01*
X1992004Y1594722D02*
Y1594740D01*
X2004489Y1606295D02*
X2002748Y1608036D01*
X2001285Y1606574*
X2003026Y1604833*
X2004489Y1606295*
X2002956Y1604903D02*
X2003096D01*
X2002856Y1605003D02*
X2003196D01*
X2002756Y1605103D02*
X2003296D01*
X2002656Y1605203D02*
X2003396D01*
X2002556Y1605303D02*
X2003496D01*
X2002456Y1605403D02*
X2003596D01*
X2002356Y1605503D02*
X2003696D01*
X2002256Y1605603D02*
X2003796D01*
X2002156Y1605703D02*
X2003896D01*
X2002056Y1605803D02*
X2003996D01*
X2001956Y1605903D02*
X2004096D01*
X2001856Y1606003D02*
X2004196D01*
X2001756Y1606103D02*
X2004296D01*
X2001656Y1606203D02*
X2004396D01*
X2001556Y1606303D02*
X2004481D01*
X2001456Y1606403D02*
X2004381D01*
X2001356Y1606503D02*
X2004281D01*
X2001314Y1606603D02*
X2004181D01*
X2001414Y1606703D02*
X2004081D01*
X2001514Y1606803D02*
X2003981D01*
X2001614Y1606903D02*
X2003881D01*
X2001714Y1607003D02*
X2003781D01*
X2001814Y1607103D02*
X2003681D01*
X2001914Y1607203D02*
X2003581D01*
X2002014Y1607303D02*
X2003481D01*
X2002114Y1607403D02*
X2003381D01*
X2002214Y1607503D02*
X2003281D01*
X2002314Y1607603D02*
X2003181D01*
X2002414Y1607703D02*
X2003081D01*
X2002514Y1607803D02*
X2002981D01*
X2002614Y1607903D02*
X2002881D01*
X2002714Y1608003D02*
X2002781D01*
X2001304Y1606555D02*
Y1606593D01*
X2001404Y1606455D02*
Y1606693D01*
X2001504Y1606355D02*
Y1606793D01*
X2001604Y1606255D02*
Y1606893D01*
X2001704Y1606155D02*
Y1606993D01*
X2001804Y1606055D02*
Y1607093D01*
X2001904Y1605955D02*
Y1607193D01*
X2002004Y1605855D02*
Y1607293D01*
X2002104Y1605755D02*
Y1607393D01*
X2002204Y1605655D02*
Y1607493D01*
X2002304Y1605555D02*
Y1607593D01*
X2002404Y1605455D02*
Y1607693D01*
X2002504Y1605355D02*
Y1607793D01*
X2002604Y1605255D02*
Y1607893D01*
X2002704Y1605155D02*
Y1607993D01*
X2002804Y1605055D02*
Y1607980D01*
X2002904Y1604955D02*
Y1607880D01*
X2003004Y1604855D02*
Y1607780D01*
X2003104Y1604911D02*
Y1607680D01*
X2003204Y1605011D02*
Y1607580D01*
X2003304Y1605111D02*
Y1607480D01*
X2003404Y1605211D02*
Y1607380D01*
X2003504Y1605311D02*
Y1607280D01*
X2003604Y1605411D02*
Y1607180D01*
X2003704Y1605511D02*
Y1607080D01*
X2003804Y1605611D02*
Y1606980D01*
X2003904Y1605711D02*
Y1606880D01*
X2004004Y1605811D02*
Y1606780D01*
X2004104Y1605911D02*
Y1606680D01*
X2004204Y1606011D02*
Y1606580D01*
X2004304Y1606111D02*
Y1606480D01*
X2004404Y1606211D02*
Y1606380D01*
X2010892Y1601284D02*
X2007759Y1604417D01*
X2004904Y1601563*
X2008037Y1598430*
X2010892Y1601284*
X2007964Y1598503D02*
X2008110D01*
X2007864Y1598603D02*
X2008210D01*
X2007764Y1598703D02*
X2008310D01*
X2007664Y1598803D02*
X2008410D01*
X2007564Y1598903D02*
X2008510D01*
X2007464Y1599003D02*
X2008610D01*
X2007364Y1599103D02*
X2008710D01*
X2007264Y1599203D02*
X2008810D01*
X2007164Y1599303D02*
X2008910D01*
X2007064Y1599403D02*
X2009010D01*
X2006964Y1599503D02*
X2009110D01*
X2006864Y1599603D02*
X2009210D01*
X2006764Y1599703D02*
X2009310D01*
X2006664Y1599803D02*
X2009410D01*
X2006564Y1599903D02*
X2009510D01*
X2006464Y1600003D02*
X2009610D01*
X2006364Y1600103D02*
X2009710D01*
X2006264Y1600203D02*
X2009810D01*
X2006164Y1600303D02*
X2009910D01*
X2006064Y1600403D02*
X2010010D01*
X2005964Y1600503D02*
X2010110D01*
X2005864Y1600603D02*
X2010210D01*
X2005764Y1600703D02*
X2010310D01*
X2005664Y1600803D02*
X2010410D01*
X2005564Y1600903D02*
X2010510D01*
X2005464Y1601003D02*
X2010610D01*
X2005364Y1601103D02*
X2010710D01*
X2005264Y1601203D02*
X2010810D01*
X2005164Y1601303D02*
X2010873D01*
X2005064Y1601403D02*
X2010773D01*
X2004964Y1601503D02*
X2010673D01*
X2004944Y1601603D02*
X2010573D01*
X2005044Y1601703D02*
X2010473D01*
X2005144Y1601803D02*
X2010373D01*
X2005244Y1601903D02*
X2010273D01*
X2005344Y1602003D02*
X2010173D01*
X2005444Y1602103D02*
X2010073D01*
X2005544Y1602203D02*
X2009973D01*
X2005644Y1602303D02*
X2009873D01*
X2005744Y1602403D02*
X2009773D01*
X2005844Y1602503D02*
X2009673D01*
X2005944Y1602603D02*
X2009573D01*
X2006044Y1602703D02*
X2009473D01*
X2006144Y1602803D02*
X2009373D01*
X2006244Y1602903D02*
X2009273D01*
X2006344Y1603003D02*
X2009173D01*
X2006444Y1603103D02*
X2009073D01*
X2006544Y1603203D02*
X2008973D01*
X2006644Y1603303D02*
X2008873D01*
X2006744Y1603403D02*
X2008773D01*
X2006844Y1603503D02*
X2008673D01*
X2006944Y1603603D02*
X2008573D01*
X2007044Y1603703D02*
X2008473D01*
X2007144Y1603803D02*
X2008373D01*
X2007244Y1603903D02*
X2008273D01*
X2007344Y1604003D02*
X2008173D01*
X2007444Y1604103D02*
X2008073D01*
X2007544Y1604203D02*
X2007973D01*
X2007644Y1604303D02*
X2007873D01*
X2007744Y1604403D02*
X2007773D01*
X2005004Y1601463D02*
Y1601663D01*
X2005104Y1601363D02*
Y1601763D01*
X2005204Y1601263D02*
Y1601863D01*
X2005304Y1601163D02*
Y1601963D01*
X2005404Y1601063D02*
Y1602063D01*
X2005504Y1600963D02*
Y1602163D01*
X2005604Y1600863D02*
Y1602263D01*
X2005704Y1600763D02*
Y1602363D01*
X2005804Y1600663D02*
Y1602463D01*
X2005904Y1600563D02*
Y1602563D01*
X2006004Y1600463D02*
Y1602663D01*
X2006104Y1600363D02*
Y1602763D01*
X2006204Y1600263D02*
Y1602863D01*
X2006304Y1600163D02*
Y1602963D01*
X2006404Y1600063D02*
Y1603063D01*
X2006504Y1599963D02*
Y1603163D01*
X2006604Y1599863D02*
Y1603263D01*
X2006704Y1599763D02*
Y1603363D01*
X2006804Y1599663D02*
Y1603463D01*
X2006904Y1599563D02*
Y1603563D01*
X2007004Y1599463D02*
Y1603663D01*
X2007104Y1599363D02*
Y1603763D01*
X2007204Y1599263D02*
Y1603863D01*
X2007304Y1599163D02*
Y1603963D01*
X2007404Y1599063D02*
Y1604063D01*
X2007504Y1598963D02*
Y1604163D01*
X2007604Y1598863D02*
Y1604263D01*
X2007704Y1598763D02*
Y1604363D01*
X2007804Y1598663D02*
Y1604372D01*
X2007904Y1598563D02*
Y1604272D01*
X2008004Y1598463D02*
Y1604172D01*
X2008104Y1598497D02*
Y1604072D01*
X2008204Y1598597D02*
Y1603972D01*
X2008304Y1598697D02*
Y1603872D01*
X2008404Y1598797D02*
Y1603772D01*
X2008504Y1598897D02*
Y1603672D01*
X2008604Y1598997D02*
Y1603572D01*
X2008704Y1599097D02*
Y1603472D01*
X2008804Y1599197D02*
Y1603372D01*
X2008904Y1599297D02*
Y1603272D01*
X2009004Y1599397D02*
Y1603172D01*
X2009104Y1599497D02*
Y1603072D01*
X2009204Y1599597D02*
Y1602972D01*
X2009304Y1599697D02*
Y1602872D01*
X2009404Y1599797D02*
Y1602772D01*
X2009504Y1599897D02*
Y1602672D01*
X2009604Y1599997D02*
Y1602572D01*
X2009704Y1600097D02*
Y1602472D01*
X2009804Y1600197D02*
Y1602372D01*
X2009904Y1600297D02*
Y1602272D01*
X2010004Y1600397D02*
Y1602172D01*
X2010104Y1600497D02*
Y1602072D01*
X2010204Y1600597D02*
Y1601972D01*
X2010304Y1600697D02*
Y1601872D01*
X2010404Y1600797D02*
Y1601772D01*
X2010504Y1600897D02*
Y1601672D01*
X2010604Y1600997D02*
Y1601572D01*
X2010704Y1601097D02*
Y1601472D01*
X2010804Y1601197D02*
Y1601372D01*
X2015068Y1605460D02*
X2011935Y1608593D01*
X2009080Y1605739*
X2012213Y1602606*
X2015068Y1605460*
X2012115Y1602703D02*
X2012310D01*
X2012015Y1602803D02*
X2012410D01*
X2011915Y1602903D02*
X2012510D01*
X2011815Y1603003D02*
X2012610D01*
X2011715Y1603103D02*
X2012710D01*
X2011615Y1603203D02*
X2012810D01*
X2011515Y1603303D02*
X2012910D01*
X2011415Y1603403D02*
X2013010D01*
X2011315Y1603503D02*
X2013110D01*
X2011215Y1603603D02*
X2013210D01*
X2011115Y1603703D02*
X2013310D01*
X2011015Y1603803D02*
X2013410D01*
X2010915Y1603903D02*
X2013510D01*
X2010815Y1604003D02*
X2013610D01*
X2010715Y1604103D02*
X2013710D01*
X2010615Y1604203D02*
X2013810D01*
X2010515Y1604303D02*
X2013910D01*
X2010415Y1604403D02*
X2014010D01*
X2010315Y1604503D02*
X2014110D01*
X2010215Y1604603D02*
X2014210D01*
X2010115Y1604703D02*
X2014310D01*
X2010015Y1604803D02*
X2014410D01*
X2009915Y1604903D02*
X2014510D01*
X2009815Y1605003D02*
X2014610D01*
X2009715Y1605103D02*
X2014710D01*
X2009615Y1605203D02*
X2014810D01*
X2009515Y1605303D02*
X2014910D01*
X2009415Y1605403D02*
X2015010D01*
X2009315Y1605503D02*
X2015025D01*
X2009215Y1605603D02*
X2014925D01*
X2009115Y1605703D02*
X2014825D01*
X2009144Y1605803D02*
X2014725D01*
X2009244Y1605903D02*
X2014625D01*
X2009344Y1606003D02*
X2014525D01*
X2009444Y1606103D02*
X2014425D01*
X2009544Y1606203D02*
X2014325D01*
X2009644Y1606303D02*
X2014225D01*
X2009744Y1606403D02*
X2014125D01*
X2009844Y1606503D02*
X2014025D01*
X2009944Y1606603D02*
X2013925D01*
X2010044Y1606703D02*
X2013825D01*
X2010144Y1606803D02*
X2013725D01*
X2010244Y1606903D02*
X2013625D01*
X2010344Y1607003D02*
X2013525D01*
X2010444Y1607103D02*
X2013425D01*
X2010544Y1607203D02*
X2013325D01*
X2010644Y1607303D02*
X2013225D01*
X2010744Y1607403D02*
X2013125D01*
X2010844Y1607503D02*
X2013025D01*
X2010944Y1607603D02*
X2012925D01*
X2011044Y1607703D02*
X2012825D01*
X2011144Y1607803D02*
X2012725D01*
X2011244Y1607903D02*
X2012625D01*
X2011344Y1608003D02*
X2012525D01*
X2011444Y1608103D02*
X2012425D01*
X2011544Y1608203D02*
X2012325D01*
X2011644Y1608303D02*
X2012225D01*
X2011744Y1608403D02*
X2012125D01*
X2011844Y1608503D02*
X2012025D01*
X2009104Y1605715D02*
Y1605763D01*
X2009204Y1605615D02*
Y1605863D01*
X2009304Y1605515D02*
Y1605963D01*
X2009404Y1605415D02*
Y1606063D01*
X2009504Y1605315D02*
Y1606163D01*
X2009604Y1605215D02*
Y1606263D01*
X2009704Y1605115D02*
Y1606363D01*
X2009804Y1605015D02*
Y1606463D01*
X2009904Y1604915D02*
Y1606563D01*
X2010004Y1604815D02*
Y1606663D01*
X2010104Y1604715D02*
Y1606763D01*
X2010204Y1604615D02*
Y1606863D01*
X2010304Y1604515D02*
Y1606963D01*
X2010404Y1604415D02*
Y1607063D01*
X2010504Y1604315D02*
Y1607163D01*
X2010604Y1604215D02*
Y1607263D01*
X2010704Y1604115D02*
Y1607363D01*
X2010804Y1604015D02*
Y1607463D01*
X2010904Y1603915D02*
Y1607563D01*
X2011004Y1603815D02*
Y1607663D01*
X2011104Y1603715D02*
Y1607763D01*
X2011204Y1603615D02*
Y1607863D01*
X2011304Y1603515D02*
Y1607963D01*
X2011404Y1603415D02*
Y1608063D01*
X2011504Y1603315D02*
Y1608163D01*
X2011604Y1603215D02*
Y1608263D01*
X2011704Y1603115D02*
Y1608363D01*
X2011804Y1603015D02*
Y1608463D01*
X2011904Y1602915D02*
Y1608563D01*
X2012004Y1602815D02*
Y1608524D01*
X2012104Y1602715D02*
Y1608424D01*
X2012204Y1602615D02*
Y1608324D01*
X2012304Y1602697D02*
Y1608224D01*
X2012404Y1602797D02*
Y1608124D01*
X2012504Y1602897D02*
Y1608024D01*
X2012604Y1602997D02*
Y1607924D01*
X2012704Y1603097D02*
Y1607824D01*
X2012804Y1603197D02*
Y1607724D01*
X2012904Y1603297D02*
Y1607624D01*
X2013004Y1603397D02*
Y1607524D01*
X2013104Y1603497D02*
Y1607424D01*
X2013204Y1603597D02*
Y1607324D01*
X2013304Y1603697D02*
Y1607224D01*
X2013404Y1603797D02*
Y1607124D01*
X2013504Y1603897D02*
Y1607024D01*
X2013604Y1603997D02*
Y1606924D01*
X2013704Y1604097D02*
Y1606824D01*
X2013804Y1604197D02*
Y1606724D01*
X2013904Y1604297D02*
Y1606624D01*
X2014004Y1604397D02*
Y1606524D01*
X2014104Y1604497D02*
Y1606424D01*
X2014204Y1604597D02*
Y1606324D01*
X2014304Y1604697D02*
Y1606224D01*
X2014404Y1604797D02*
Y1606124D01*
X2014504Y1604897D02*
Y1606024D01*
X2014604Y1604997D02*
Y1605924D01*
X2014704Y1605097D02*
Y1605824D01*
X2014804Y1605197D02*
Y1605724D01*
X2014904Y1605297D02*
Y1605624D01*
X2015004Y1605397D02*
Y1605524D01*
X2010057Y1610471D02*
X2006924Y1613604D01*
X2004069Y1610750*
X2007202Y1607617*
X2010057Y1610471*
X2007115Y1607703D02*
X2007288D01*
X2007015Y1607803D02*
X2007388D01*
X2006915Y1607903D02*
X2007488D01*
X2006815Y1608003D02*
X2007588D01*
X2006715Y1608103D02*
X2007688D01*
X2006615Y1608203D02*
X2007788D01*
X2006515Y1608303D02*
X2007888D01*
X2006415Y1608403D02*
X2007988D01*
X2006315Y1608503D02*
X2008088D01*
X2006215Y1608603D02*
X2008188D01*
X2006115Y1608703D02*
X2008288D01*
X2006015Y1608803D02*
X2008388D01*
X2005915Y1608903D02*
X2008488D01*
X2005815Y1609003D02*
X2008588D01*
X2005715Y1609103D02*
X2008688D01*
X2005615Y1609203D02*
X2008788D01*
X2005515Y1609303D02*
X2008888D01*
X2005415Y1609403D02*
X2008988D01*
X2005315Y1609503D02*
X2009088D01*
X2005215Y1609603D02*
X2009188D01*
X2005115Y1609703D02*
X2009288D01*
X2005015Y1609803D02*
X2009388D01*
X2004915Y1609903D02*
X2009488D01*
X2004815Y1610003D02*
X2009588D01*
X2004715Y1610103D02*
X2009688D01*
X2004615Y1610203D02*
X2009788D01*
X2004515Y1610303D02*
X2009888D01*
X2004415Y1610403D02*
X2009988D01*
X2004315Y1610503D02*
X2010025D01*
X2004215Y1610603D02*
X2009925D01*
X2004115Y1610703D02*
X2009825D01*
X2004122Y1610803D02*
X2009725D01*
X2004222Y1610903D02*
X2009625D01*
X2004322Y1611003D02*
X2009525D01*
X2004422Y1611103D02*
X2009425D01*
X2004522Y1611203D02*
X2009325D01*
X2004622Y1611303D02*
X2009225D01*
X2004722Y1611403D02*
X2009125D01*
X2004822Y1611503D02*
X2009025D01*
X2004922Y1611603D02*
X2008925D01*
X2005022Y1611703D02*
X2008825D01*
X2005122Y1611803D02*
X2008725D01*
X2005222Y1611903D02*
X2008625D01*
X2005322Y1612003D02*
X2008525D01*
X2005422Y1612103D02*
X2008425D01*
X2005522Y1612203D02*
X2008325D01*
X2005622Y1612303D02*
X2008225D01*
X2005722Y1612403D02*
X2008125D01*
X2005822Y1612503D02*
X2008025D01*
X2005922Y1612603D02*
X2007925D01*
X2006022Y1612703D02*
X2007825D01*
X2006122Y1612803D02*
X2007725D01*
X2006222Y1612903D02*
X2007625D01*
X2006322Y1613003D02*
X2007525D01*
X2006422Y1613103D02*
X2007425D01*
X2006522Y1613203D02*
X2007325D01*
X2006622Y1613303D02*
X2007225D01*
X2006722Y1613403D02*
X2007125D01*
X2006822Y1613503D02*
X2007025D01*
X2006922Y1613603D02*
X2006925D01*
X2004104Y1610715D02*
Y1610785D01*
X2004204Y1610615D02*
Y1610885D01*
X2004304Y1610515D02*
Y1610985D01*
X2004404Y1610415D02*
Y1611085D01*
X2004504Y1610315D02*
Y1611185D01*
X2004604Y1610215D02*
Y1611285D01*
X2004704Y1610115D02*
Y1611385D01*
X2004804Y1610015D02*
Y1611485D01*
X2004904Y1609915D02*
Y1611585D01*
X2005004Y1609815D02*
Y1611685D01*
X2005104Y1609715D02*
Y1611785D01*
X2005204Y1609615D02*
Y1611885D01*
X2005304Y1609515D02*
Y1611985D01*
X2005404Y1609415D02*
Y1612085D01*
X2005504Y1609315D02*
Y1612185D01*
X2005604Y1609215D02*
Y1612285D01*
X2005704Y1609115D02*
Y1612385D01*
X2005804Y1609015D02*
Y1612485D01*
X2005904Y1608915D02*
Y1612585D01*
X2006004Y1608815D02*
Y1612685D01*
X2006104Y1608715D02*
Y1612785D01*
X2006204Y1608615D02*
Y1612885D01*
X2006304Y1608515D02*
Y1612985D01*
X2006404Y1608415D02*
Y1613085D01*
X2006504Y1608315D02*
Y1613185D01*
X2006604Y1608215D02*
Y1613285D01*
X2006704Y1608115D02*
Y1613385D01*
X2006804Y1608015D02*
Y1613485D01*
X2006904Y1607915D02*
Y1613585D01*
X2007004Y1607815D02*
Y1613524D01*
X2007104Y1607715D02*
Y1613424D01*
X2007204Y1607619D02*
Y1613324D01*
X2007304Y1607719D02*
Y1613224D01*
X2007404Y1607819D02*
Y1613124D01*
X2007504Y1607919D02*
Y1613024D01*
X2007604Y1608019D02*
Y1612924D01*
X2007704Y1608119D02*
Y1612824D01*
X2007804Y1608219D02*
Y1612724D01*
X2007904Y1608319D02*
Y1612624D01*
X2008004Y1608419D02*
Y1612524D01*
X2008104Y1608519D02*
Y1612424D01*
X2008204Y1608619D02*
Y1612324D01*
X2008304Y1608719D02*
Y1612224D01*
X2008404Y1608819D02*
Y1612124D01*
X2008504Y1608919D02*
Y1612024D01*
X2008604Y1609019D02*
Y1611924D01*
X2008704Y1609119D02*
Y1611824D01*
X2008804Y1609219D02*
Y1611724D01*
X2008904Y1609319D02*
Y1611624D01*
X2009004Y1609419D02*
Y1611524D01*
X2009104Y1609519D02*
Y1611424D01*
X2009204Y1609619D02*
Y1611324D01*
X2009304Y1609719D02*
Y1611224D01*
X2009404Y1609819D02*
Y1611124D01*
X2009504Y1609919D02*
Y1611024D01*
X2009604Y1610019D02*
Y1610924D01*
X2009704Y1610119D02*
Y1610824D01*
X2009804Y1610219D02*
Y1610724D01*
X2009904Y1610319D02*
Y1610624D01*
X2010004Y1610419D02*
Y1610524D01*
X1984880Y1609843D02*
X1986065Y1611027D01*
X1985159Y1611933*
X1983974Y1610748*
X1984880Y1609843*
X1984820Y1609903D02*
X1984941D01*
X1984720Y1610003D02*
X1985041D01*
X1984620Y1610103D02*
X1985141D01*
X1984520Y1610203D02*
X1985241D01*
X1984420Y1610303D02*
X1985341D01*
X1984320Y1610403D02*
X1985441D01*
X1984220Y1610503D02*
X1985541D01*
X1984120Y1610603D02*
X1985641D01*
X1984020Y1610703D02*
X1985741D01*
X1984029Y1610803D02*
X1985841D01*
X1984129Y1610903D02*
X1985941D01*
X1984229Y1611003D02*
X1986041D01*
X1984329Y1611103D02*
X1985988D01*
X1984429Y1611203D02*
X1985888D01*
X1984529Y1611303D02*
X1985788D01*
X1984629Y1611403D02*
X1985688D01*
X1984729Y1611503D02*
X1985588D01*
X1984829Y1611603D02*
X1985488D01*
X1984929Y1611703D02*
X1985388D01*
X1985029Y1611803D02*
X1985288D01*
X1985129Y1611903D02*
X1985188D01*
X1984004Y1610719D02*
Y1610778D01*
X1984104Y1610619D02*
Y1610878D01*
X1984204Y1610519D02*
Y1610978D01*
X1984304Y1610419D02*
Y1611078D01*
X1984404Y1610319D02*
Y1611178D01*
X1984504Y1610219D02*
Y1611278D01*
X1984604Y1610119D02*
Y1611378D01*
X1984704Y1610019D02*
Y1611478D01*
X1984804Y1609919D02*
Y1611578D01*
X1984904Y1609866D02*
Y1611678D01*
X1985004Y1609966D02*
Y1611778D01*
X1985104Y1610066D02*
Y1611878D01*
X1985204Y1610166D02*
Y1611887D01*
X1985304Y1610266D02*
Y1611787D01*
X1985404Y1610366D02*
Y1611687D01*
X1985504Y1610466D02*
Y1611587D01*
X1985604Y1610566D02*
Y1611487D01*
X1985704Y1610666D02*
Y1611387D01*
X1985804Y1610766D02*
Y1611287D01*
X1985904Y1610866D02*
Y1611187D01*
X1986004Y1610966D02*
Y1611087D01*
X1983349Y1611374D02*
X1984533Y1612558D01*
X1983628Y1613464*
X1982443Y1612280*
X1983349Y1611374*
X1983320Y1611403D02*
X1983379D01*
X1983220Y1611503D02*
X1983479D01*
X1983120Y1611603D02*
X1983579D01*
X1983020Y1611703D02*
X1983679D01*
X1982920Y1611803D02*
X1983779D01*
X1982820Y1611903D02*
X1983879D01*
X1982720Y1612003D02*
X1983979D01*
X1982620Y1612103D02*
X1984079D01*
X1982520Y1612203D02*
X1984179D01*
X1982467Y1612303D02*
X1984279D01*
X1982567Y1612403D02*
X1984379D01*
X1982667Y1612503D02*
X1984479D01*
X1982767Y1612603D02*
X1984488D01*
X1982867Y1612703D02*
X1984388D01*
X1982967Y1612803D02*
X1984288D01*
X1983067Y1612903D02*
X1984188D01*
X1983167Y1613003D02*
X1984088D01*
X1983267Y1613103D02*
X1983988D01*
X1983367Y1613203D02*
X1983888D01*
X1983467Y1613303D02*
X1983788D01*
X1983567Y1613403D02*
X1983688D01*
X1982504Y1612219D02*
Y1612340D01*
X1982604Y1612119D02*
Y1612440D01*
X1982704Y1612019D02*
Y1612540D01*
X1982804Y1611919D02*
Y1612640D01*
X1982904Y1611819D02*
Y1612740D01*
X1983004Y1611719D02*
Y1612840D01*
X1983104Y1611619D02*
Y1612940D01*
X1983204Y1611519D02*
Y1613040D01*
X1983304Y1611419D02*
Y1613140D01*
X1983404Y1611428D02*
Y1613240D01*
X1983504Y1611528D02*
Y1613340D01*
X1983604Y1611628D02*
Y1613440D01*
X1983704Y1611728D02*
Y1613387D01*
X1983804Y1611828D02*
Y1613287D01*
X1983904Y1611928D02*
Y1613187D01*
X1984004Y1612028D02*
Y1613087D01*
X1984104Y1612128D02*
Y1612987D01*
X1984204Y1612228D02*
Y1612887D01*
X1984304Y1612328D02*
Y1612787D01*
X1984404Y1612428D02*
Y1612687D01*
X1984504Y1612528D02*
Y1612587D01*
X1984515Y1615330D02*
X1983330Y1616514D01*
X1982424Y1615608*
X1983609Y1614424*
X1984515Y1615330*
X1983529Y1614503D02*
X1983688D01*
X1983429Y1614603D02*
X1983788D01*
X1983329Y1614703D02*
X1983888D01*
X1983229Y1614803D02*
X1983988D01*
X1983129Y1614903D02*
X1984088D01*
X1983029Y1615003D02*
X1984188D01*
X1982929Y1615103D02*
X1984288D01*
X1982829Y1615203D02*
X1984388D01*
X1982729Y1615303D02*
X1984488D01*
X1982629Y1615403D02*
X1984441D01*
X1982529Y1615503D02*
X1984341D01*
X1982429Y1615603D02*
X1984241D01*
X1982520Y1615703D02*
X1984141D01*
X1982620Y1615803D02*
X1984041D01*
X1982720Y1615903D02*
X1983941D01*
X1982820Y1616003D02*
X1983841D01*
X1982920Y1616103D02*
X1983741D01*
X1983020Y1616203D02*
X1983641D01*
X1983120Y1616303D02*
X1983541D01*
X1983220Y1616403D02*
X1983441D01*
X1983320Y1616503D02*
X1983341D01*
X1982504Y1615528D02*
Y1615687D01*
X1982604Y1615428D02*
Y1615787D01*
X1982704Y1615328D02*
Y1615887D01*
X1982804Y1615228D02*
Y1615987D01*
X1982904Y1615128D02*
Y1616087D01*
X1983004Y1615028D02*
Y1616187D01*
X1983104Y1614928D02*
Y1616287D01*
X1983204Y1614828D02*
Y1616387D01*
X1983304Y1614728D02*
Y1616487D01*
X1983404Y1614628D02*
Y1616440D01*
X1983504Y1614528D02*
Y1616340D01*
X1983604Y1614428D02*
Y1616240D01*
X1983704Y1614519D02*
Y1616140D01*
X1983804Y1614619D02*
Y1616040D01*
X1983904Y1614719D02*
Y1615940D01*
X1984004Y1614819D02*
Y1615840D01*
X1984104Y1614919D02*
Y1615740D01*
X1984204Y1615019D02*
Y1615640D01*
X1984304Y1615119D02*
Y1615540D01*
X1984404Y1615219D02*
Y1615440D01*
X1984504Y1615319D02*
Y1615340D01*
X1982983Y1613798D02*
X1981799Y1614983D01*
X1980893Y1614077*
X1982078Y1612893*
X1982983Y1613798*
X1982067Y1612903D02*
X1982088D01*
X1981967Y1613003D02*
X1982188D01*
X1981867Y1613103D02*
X1982288D01*
X1981767Y1613203D02*
X1982388D01*
X1981667Y1613303D02*
X1982488D01*
X1981567Y1613403D02*
X1982588D01*
X1981467Y1613503D02*
X1982688D01*
X1981367Y1613603D02*
X1982788D01*
X1981267Y1613703D02*
X1982888D01*
X1981167Y1613803D02*
X1982979D01*
X1981067Y1613903D02*
X1982879D01*
X1980967Y1614003D02*
X1982779D01*
X1980920Y1614103D02*
X1982679D01*
X1981020Y1614203D02*
X1982579D01*
X1981120Y1614303D02*
X1982479D01*
X1981220Y1614403D02*
X1982379D01*
X1981320Y1614503D02*
X1982279D01*
X1981420Y1614603D02*
X1982179D01*
X1981520Y1614703D02*
X1982079D01*
X1981620Y1614803D02*
X1981979D01*
X1981720Y1614903D02*
X1981879D01*
X1980904Y1614066D02*
Y1614087D01*
X1981004Y1613966D02*
Y1614187D01*
X1981104Y1613866D02*
Y1614287D01*
X1981204Y1613766D02*
Y1614387D01*
X1981304Y1613666D02*
Y1614487D01*
X1981404Y1613566D02*
Y1614587D01*
X1981504Y1613466D02*
Y1614687D01*
X1981604Y1613366D02*
Y1614787D01*
X1981704Y1613266D02*
Y1614887D01*
X1981804Y1613166D02*
Y1614978D01*
X1981904Y1613066D02*
Y1614878D01*
X1982004Y1612966D02*
Y1614778D01*
X1982104Y1612919D02*
Y1614678D01*
X1982204Y1613019D02*
Y1614578D01*
X1982304Y1613119D02*
Y1614478D01*
X1982404Y1613219D02*
Y1614378D01*
X1982504Y1613319D02*
Y1614278D01*
X1982604Y1613419D02*
Y1614178D01*
X1982704Y1613519D02*
Y1614078D01*
X1982804Y1613619D02*
Y1613978D01*
X1982904Y1613719D02*
Y1613878D01*
X1999244Y1610591D02*
X2000429Y1609407D01*
X2001335Y1610313*
X2000150Y1611497*
X1999244Y1610591*
X2000333Y1609503D02*
X2000525D01*
X2000233Y1609603D02*
X2000625D01*
X2000133Y1609703D02*
X2000725D01*
X2000033Y1609803D02*
X2000825D01*
X1999933Y1609903D02*
X2000925D01*
X1999833Y1610003D02*
X2001025D01*
X1999733Y1610103D02*
X2001125D01*
X1999633Y1610203D02*
X2001225D01*
X1999533Y1610303D02*
X2001325D01*
X1999433Y1610403D02*
X2001245D01*
X1999333Y1610503D02*
X2001145D01*
X1999256Y1610603D02*
X2001045D01*
X1999356Y1610703D02*
X2000945D01*
X1999456Y1610803D02*
X2000845D01*
X1999556Y1610903D02*
X2000745D01*
X1999656Y1611003D02*
X2000645D01*
X1999756Y1611103D02*
X2000545D01*
X1999856Y1611203D02*
X2000445D01*
X1999956Y1611303D02*
X2000345D01*
X2000056Y1611403D02*
X2000245D01*
X1999304Y1610532D02*
Y1610651D01*
X1999404Y1610432D02*
Y1610751D01*
X1999504Y1610332D02*
Y1610851D01*
X1999604Y1610232D02*
Y1610951D01*
X1999704Y1610132D02*
Y1611051D01*
X1999804Y1610032D02*
Y1611151D01*
X1999904Y1609932D02*
Y1611251D01*
X2000004Y1609832D02*
Y1611351D01*
X2000104Y1609732D02*
Y1611451D01*
X2000204Y1609632D02*
Y1611444D01*
X2000304Y1609532D02*
Y1611344D01*
X2000404Y1609432D02*
Y1611244D01*
X2000504Y1609482D02*
Y1611144D01*
X2000604Y1609582D02*
Y1611044D01*
X2000704Y1609682D02*
Y1610944D01*
X2000804Y1609782D02*
Y1610844D01*
X2000904Y1609882D02*
Y1610744D01*
X2001004Y1609982D02*
Y1610644D01*
X2001104Y1610082D02*
Y1610544D01*
X2001204Y1610182D02*
Y1610444D01*
X2001304Y1610282D02*
Y1610344D01*
X2000776Y1612123D02*
X2001960Y1610938D01*
X2002866Y1611844*
X2001681Y1613028*
X2000776Y1612123*
X2001895Y1611003D02*
X2002025D01*
X2001795Y1611103D02*
X2002125D01*
X2001695Y1611203D02*
X2002225D01*
X2001595Y1611303D02*
X2002325D01*
X2001495Y1611403D02*
X2002425D01*
X2001395Y1611503D02*
X2002525D01*
X2001295Y1611603D02*
X2002625D01*
X2001195Y1611703D02*
X2002725D01*
X2001095Y1611803D02*
X2002825D01*
X2000995Y1611903D02*
X2002807D01*
X2000895Y1612003D02*
X2002707D01*
X2000795Y1612103D02*
X2002607D01*
X2000856Y1612203D02*
X2002507D01*
X2000956Y1612303D02*
X2002407D01*
X2001056Y1612403D02*
X2002307D01*
X2001156Y1612503D02*
X2002207D01*
X2001256Y1612603D02*
X2002107D01*
X2001356Y1612703D02*
X2002007D01*
X2001456Y1612803D02*
X2001907D01*
X2001556Y1612903D02*
X2001807D01*
X2001656Y1613003D02*
X2001707D01*
X2000804Y1612094D02*
Y1612151D01*
X2000904Y1611994D02*
Y1612251D01*
X2001004Y1611894D02*
Y1612351D01*
X2001104Y1611794D02*
Y1612451D01*
X2001204Y1611694D02*
Y1612551D01*
X2001304Y1611594D02*
Y1612651D01*
X2001404Y1611494D02*
Y1612751D01*
X2001504Y1611394D02*
Y1612851D01*
X2001604Y1611294D02*
Y1612951D01*
X2001704Y1611194D02*
Y1613006D01*
X2001804Y1611094D02*
Y1612906D01*
X2001904Y1610994D02*
Y1612806D01*
X2002004Y1610982D02*
Y1612706D01*
X2002104Y1611082D02*
Y1612606D01*
X2002204Y1611182D02*
Y1612506D01*
X2002304Y1611282D02*
Y1612406D01*
X2002404Y1611382D02*
Y1612306D01*
X2002504Y1611482D02*
Y1612206D01*
X2002604Y1611582D02*
Y1612106D01*
X2002704Y1611682D02*
Y1612006D01*
X2002804Y1611782D02*
Y1611906D01*
X2015195Y1600696D02*
X2014011Y1601880D01*
X2013105Y1600974*
X2014289Y1599790*
X2015195Y1600696*
X2014276Y1599803D02*
X2014302D01*
X2014176Y1599903D02*
X2014402D01*
X2014076Y1600003D02*
X2014502D01*
X2013976Y1600103D02*
X2014602D01*
X2013876Y1600203D02*
X2014702D01*
X2013776Y1600303D02*
X2014802D01*
X2013676Y1600403D02*
X2014902D01*
X2013576Y1600503D02*
X2015002D01*
X2013476Y1600603D02*
X2015102D01*
X2013376Y1600703D02*
X2015188D01*
X2013276Y1600803D02*
X2015088D01*
X2013176Y1600903D02*
X2014988D01*
X2013134Y1601003D02*
X2014888D01*
X2013234Y1601103D02*
X2014788D01*
X2013334Y1601203D02*
X2014688D01*
X2013434Y1601303D02*
X2014588D01*
X2013534Y1601403D02*
X2014488D01*
X2013634Y1601503D02*
X2014388D01*
X2013734Y1601603D02*
X2014288D01*
X2013834Y1601703D02*
X2014188D01*
X2013934Y1601803D02*
X2014088D01*
X2013204Y1600875D02*
Y1601073D01*
X2013304Y1600775D02*
Y1601173D01*
X2013404Y1600675D02*
Y1601273D01*
X2013504Y1600575D02*
Y1601373D01*
X2013604Y1600475D02*
Y1601473D01*
X2013704Y1600375D02*
Y1601573D01*
X2013804Y1600275D02*
Y1601673D01*
X2013904Y1600175D02*
Y1601773D01*
X2014004Y1600075D02*
Y1601873D01*
X2014104Y1599975D02*
Y1601787D01*
X2014204Y1599875D02*
Y1601687D01*
X2014304Y1599805D02*
Y1601587D01*
X2014404Y1599905D02*
Y1601487D01*
X2014504Y1600005D02*
Y1601387D01*
X2014604Y1600105D02*
Y1601287D01*
X2014704Y1600205D02*
Y1601187D01*
X2014804Y1600305D02*
Y1601087D01*
X2014904Y1600405D02*
Y1600987D01*
X2015004Y1600505D02*
Y1600887D01*
X2015104Y1600605D02*
Y1600787D01*
X2013664Y1599165D02*
X2012480Y1600349D01*
X2011574Y1599443*
X2012758Y1598259*
X2013664Y1599165*
X2012714Y1598303D02*
X2012802D01*
X2012614Y1598403D02*
X2012902D01*
X2012514Y1598503D02*
X2013002D01*
X2012414Y1598603D02*
X2013102D01*
X2012314Y1598703D02*
X2013202D01*
X2012214Y1598803D02*
X2013302D01*
X2012114Y1598903D02*
X2013402D01*
X2012014Y1599003D02*
X2013502D01*
X2011914Y1599103D02*
X2013602D01*
X2011814Y1599203D02*
X2013626D01*
X2011714Y1599303D02*
X2013526D01*
X2011614Y1599403D02*
X2013426D01*
X2011634Y1599503D02*
X2013326D01*
X2011734Y1599603D02*
X2013226D01*
X2011834Y1599703D02*
X2013126D01*
X2011934Y1599803D02*
X2013026D01*
X2012034Y1599903D02*
X2012926D01*
X2012134Y1600003D02*
X2012826D01*
X2012234Y1600103D02*
X2012726D01*
X2012334Y1600203D02*
X2012626D01*
X2012434Y1600303D02*
X2012526D01*
X2011604Y1599413D02*
Y1599473D01*
X2011704Y1599313D02*
Y1599573D01*
X2011804Y1599213D02*
Y1599673D01*
X2011904Y1599113D02*
Y1599773D01*
X2012004Y1599013D02*
Y1599873D01*
X2012104Y1598913D02*
Y1599973D01*
X2012204Y1598813D02*
Y1600073D01*
X2012304Y1598713D02*
Y1600173D01*
X2012404Y1598613D02*
Y1600273D01*
X2012504Y1598513D02*
Y1600325D01*
X2012604Y1598413D02*
Y1600225D01*
X2012704Y1598313D02*
Y1600125D01*
X2012804Y1598305D02*
Y1600025D01*
X2012904Y1598405D02*
Y1599925D01*
X2013004Y1598505D02*
Y1599825D01*
X2013104Y1598605D02*
Y1599725D01*
X2013204Y1598705D02*
Y1599625D01*
X2013304Y1598805D02*
Y1599525D01*
X2013404Y1598905D02*
Y1599425D01*
X2013504Y1599005D02*
Y1599325D01*
X2013604Y1599105D02*
Y1599225D01*
X1997258Y1607354D02*
X1996073Y1606170D01*
X1996979Y1605264*
X1998163Y1606448*
X1997258Y1607354*
X1996940Y1605303D02*
X1997019D01*
X1996840Y1605403D02*
X1997119D01*
X1996740Y1605503D02*
X1997219D01*
X1996640Y1605603D02*
X1997319D01*
X1996540Y1605703D02*
X1997419D01*
X1996440Y1605803D02*
X1997519D01*
X1996340Y1605903D02*
X1997619D01*
X1996240Y1606003D02*
X1997719D01*
X1996140Y1606103D02*
X1997819D01*
X1996107Y1606203D02*
X1997919D01*
X1996207Y1606303D02*
X1998019D01*
X1996307Y1606403D02*
X1998119D01*
X1996407Y1606503D02*
X1998108D01*
X1996507Y1606603D02*
X1998008D01*
X1996607Y1606703D02*
X1997908D01*
X1996707Y1606803D02*
X1997808D01*
X1996807Y1606903D02*
X1997708D01*
X1996907Y1607003D02*
X1997608D01*
X1997007Y1607103D02*
X1997508D01*
X1997107Y1607203D02*
X1997408D01*
X1997207Y1607303D02*
X1997308D01*
X1996104Y1606139D02*
Y1606200D01*
X1996204Y1606039D02*
Y1606300D01*
X1996304Y1605939D02*
Y1606400D01*
X1996404Y1605839D02*
Y1606500D01*
X1996504Y1605739D02*
Y1606600D01*
X1996604Y1605639D02*
Y1606700D01*
X1996704Y1605539D02*
Y1606800D01*
X1996804Y1605439D02*
Y1606900D01*
X1996904Y1605339D02*
Y1607000D01*
X1997004Y1605288D02*
Y1607100D01*
X1997104Y1605388D02*
Y1607200D01*
X1997204Y1605488D02*
Y1607300D01*
X1997304Y1605588D02*
Y1607307D01*
X1997404Y1605688D02*
Y1607207D01*
X1997504Y1605788D02*
Y1607107D01*
X1997604Y1605888D02*
Y1607007D01*
X1997704Y1605988D02*
Y1606907D01*
X1997804Y1606088D02*
Y1606807D01*
X1997904Y1606188D02*
Y1606707D01*
X1998004Y1606288D02*
Y1606607D01*
X1998104Y1606388D02*
Y1606507D01*
X1998789Y1605823D02*
X1997604Y1604638D01*
X1998510Y1603733*
X1999695Y1604917*
X1998789Y1605823*
X1998440Y1603803D02*
X1998581D01*
X1998340Y1603903D02*
X1998681D01*
X1998240Y1604003D02*
X1998781D01*
X1998140Y1604103D02*
X1998881D01*
X1998040Y1604203D02*
X1998981D01*
X1997940Y1604303D02*
X1999081D01*
X1997840Y1604403D02*
X1999181D01*
X1997740Y1604503D02*
X1999281D01*
X1997640Y1604603D02*
X1999381D01*
X1997669Y1604703D02*
X1999481D01*
X1997769Y1604803D02*
X1999581D01*
X1997869Y1604903D02*
X1999681D01*
X1997969Y1605003D02*
X1999608D01*
X1998069Y1605103D02*
X1999508D01*
X1998169Y1605203D02*
X1999408D01*
X1998269Y1605303D02*
X1999308D01*
X1998369Y1605403D02*
X1999208D01*
X1998469Y1605503D02*
X1999108D01*
X1998569Y1605603D02*
X1999008D01*
X1998669Y1605703D02*
X1998908D01*
X1998769Y1605803D02*
X1998808D01*
X1997704Y1604539D02*
Y1604738D01*
X1997804Y1604439D02*
Y1604838D01*
X1997904Y1604339D02*
Y1604938D01*
X1998004Y1604239D02*
Y1605038D01*
X1998104Y1604139D02*
Y1605138D01*
X1998204Y1604039D02*
Y1605238D01*
X1998304Y1603939D02*
Y1605338D01*
X1998404Y1603839D02*
Y1605438D01*
X1998504Y1603739D02*
Y1605538D01*
X1998604Y1603826D02*
Y1605638D01*
X1998704Y1603926D02*
Y1605738D01*
X1998804Y1604026D02*
Y1605807D01*
X1998904Y1604126D02*
Y1605707D01*
X1999004Y1604226D02*
Y1605607D01*
X1999104Y1604326D02*
Y1605507D01*
X1999204Y1604426D02*
Y1605407D01*
X1999304Y1604526D02*
Y1605307D01*
X1999404Y1604626D02*
Y1605207D01*
X1999504Y1604726D02*
Y1605107D01*
X1999604Y1604826D02*
Y1605007D01*
X1989065Y1610780D02*
X1987880Y1611964D01*
X1986974Y1611058*
X1988159Y1609874*
X1989065Y1610780*
X1988129Y1609903D02*
X1988188D01*
X1988029Y1610003D02*
X1988288D01*
X1987929Y1610103D02*
X1988388D01*
X1987829Y1610203D02*
X1988488D01*
X1987729Y1610303D02*
X1988588D01*
X1987629Y1610403D02*
X1988688D01*
X1987529Y1610503D02*
X1988788D01*
X1987429Y1610603D02*
X1988888D01*
X1987329Y1610703D02*
X1988988D01*
X1987229Y1610803D02*
X1989041D01*
X1987129Y1610903D02*
X1988941D01*
X1987029Y1611003D02*
X1988841D01*
X1987020Y1611103D02*
X1988741D01*
X1987120Y1611203D02*
X1988641D01*
X1987220Y1611303D02*
X1988541D01*
X1987320Y1611403D02*
X1988441D01*
X1987420Y1611503D02*
X1988341D01*
X1987520Y1611603D02*
X1988241D01*
X1987620Y1611703D02*
X1988141D01*
X1987720Y1611803D02*
X1988041D01*
X1987820Y1611903D02*
X1987941D01*
X1987004Y1611028D02*
Y1611087D01*
X1987104Y1610928D02*
Y1611187D01*
X1987204Y1610828D02*
Y1611287D01*
X1987304Y1610728D02*
Y1611387D01*
X1987404Y1610628D02*
Y1611487D01*
X1987504Y1610528D02*
Y1611587D01*
X1987604Y1610428D02*
Y1611687D01*
X1987704Y1610328D02*
Y1611787D01*
X1987804Y1610228D02*
Y1611887D01*
X1987904Y1610128D02*
Y1611940D01*
X1988004Y1610028D02*
Y1611840D01*
X1988104Y1609928D02*
Y1611740D01*
X1988204Y1609919D02*
Y1611640D01*
X1988304Y1610019D02*
Y1611540D01*
X1988404Y1610119D02*
Y1611440D01*
X1988504Y1610219D02*
Y1611340D01*
X1988604Y1610319D02*
Y1611240D01*
X1988704Y1610419D02*
Y1611140D01*
X1988804Y1610519D02*
Y1611040D01*
X1988904Y1610619D02*
Y1610940D01*
X1989004Y1610719D02*
Y1610840D01*
X1987533Y1609248D02*
X1986349Y1610433D01*
X1985443Y1609527*
X1986628Y1608343*
X1987533Y1609248*
X1986567Y1608403D02*
X1986688D01*
X1986467Y1608503D02*
X1986788D01*
X1986367Y1608603D02*
X1986888D01*
X1986267Y1608703D02*
X1986988D01*
X1986167Y1608803D02*
X1987088D01*
X1986067Y1608903D02*
X1987188D01*
X1985967Y1609003D02*
X1987288D01*
X1985867Y1609103D02*
X1987388D01*
X1985767Y1609203D02*
X1987488D01*
X1985667Y1609303D02*
X1987479D01*
X1985567Y1609403D02*
X1987379D01*
X1985467Y1609503D02*
X1987279D01*
X1985520Y1609603D02*
X1987179D01*
X1985620Y1609703D02*
X1987079D01*
X1985720Y1609803D02*
X1986979D01*
X1985820Y1609903D02*
X1986879D01*
X1985920Y1610003D02*
X1986779D01*
X1986020Y1610103D02*
X1986679D01*
X1986120Y1610203D02*
X1986579D01*
X1986220Y1610303D02*
X1986479D01*
X1986320Y1610403D02*
X1986379D01*
X1985504Y1609466D02*
Y1609587D01*
X1985604Y1609366D02*
Y1609687D01*
X1985704Y1609266D02*
Y1609787D01*
X1985804Y1609166D02*
Y1609887D01*
X1985904Y1609066D02*
Y1609987D01*
X1986004Y1608966D02*
Y1610087D01*
X1986104Y1608866D02*
Y1610187D01*
X1986204Y1608766D02*
Y1610287D01*
X1986304Y1608666D02*
Y1610387D01*
X1986404Y1608566D02*
Y1610378D01*
X1986504Y1608466D02*
Y1610278D01*
X1986604Y1608366D02*
Y1610178D01*
X1986704Y1608419D02*
Y1610078D01*
X1986804Y1608519D02*
Y1609978D01*
X1986904Y1608619D02*
Y1609878D01*
X1987004Y1608719D02*
Y1609778D01*
X1987104Y1608819D02*
Y1609678D01*
X1987204Y1608919D02*
Y1609578D01*
X1987304Y1609019D02*
Y1609478D01*
X1987404Y1609119D02*
Y1609378D01*
X1987504Y1609219D02*
Y1609278D01*
G54D12*
X1968504Y1640157D02*
X2020472D01*
Y1574803*
X1968504*
Y1640157*
G54D24*
X1991730Y1602387D02*
X1989298Y1604819D01*
X1986865Y1602387*
X1989298Y1599954*
X1991730Y1602387*
X1987048Y1602204D02*
Y1602569D01*
X1987298Y1601954D02*
Y1602819D01*
X1987548Y1601704D02*
Y1603069D01*
X1987798Y1601454D02*
Y1603319D01*
X1988048Y1601204D02*
Y1603569D01*
X1988298Y1600954D02*
Y1603819D01*
X1988548Y1600704D02*
Y1604069D01*
X1988798Y1600454D02*
Y1604319D01*
X1989048Y1600204D02*
Y1604569D01*
X1989298Y1599954D02*
Y1604819D01*
X1989548Y1600204D02*
Y1604569D01*
X1989798Y1600454D02*
Y1604319D01*
X1990048Y1600704D02*
Y1604069D01*
X1990298Y1600954D02*
Y1603819D01*
X1990548Y1601204D02*
Y1603569D01*
X1990798Y1601454D02*
Y1603319D01*
X1991048Y1601704D02*
Y1603069D01*
X1991298Y1601954D02*
Y1602819D01*
X1991548Y1602204D02*
Y1602569D01*
X1995558Y1598559D02*
X1993126Y1600991D01*
X1990693Y1598559*
X1993126Y1596126*
X1995558Y1598559*
X1990798Y1598454D02*
Y1598664D01*
X1991048Y1598204D02*
Y1598914D01*
X1991298Y1597954D02*
Y1599164D01*
X1991548Y1597704D02*
Y1599414D01*
X1991798Y1597454D02*
Y1599664D01*
X1992048Y1597204D02*
Y1599914D01*
X1992298Y1596954D02*
Y1600164D01*
X1992548Y1596704D02*
Y1600414D01*
X1992798Y1596454D02*
Y1600664D01*
X1993048Y1596204D02*
Y1600914D01*
X1993298Y1596298D02*
Y1600819D01*
X1993548Y1596548D02*
Y1600569D01*
X1993798Y1596798D02*
Y1600319D01*
X1994048Y1597048D02*
Y1600069D01*
X1994298Y1597298D02*
Y1599819D01*
X1994548Y1597548D02*
Y1599569D01*
X1994798Y1597798D02*
Y1599319D01*
X1995048Y1598048D02*
Y1599069D01*
X1995298Y1598298D02*
Y1598819D01*
X1995548Y1598548D02*
Y1598569D01*
X1999386Y1594731D02*
X1996954Y1597164D01*
X1994521Y1594731*
X1996954Y1592298*
X1999386Y1594731*
X1994548Y1594704D02*
Y1594758D01*
X1994798Y1594454D02*
Y1595008D01*
X1995048Y1594204D02*
Y1595258D01*
X1995298Y1593954D02*
Y1595508D01*
X1995548Y1593704D02*
Y1595758D01*
X1995798Y1593454D02*
Y1596008D01*
X1996048Y1593204D02*
Y1596258D01*
X1996298Y1592954D02*
Y1596508D01*
X1996548Y1592704D02*
Y1596758D01*
X1996798Y1592454D02*
Y1597008D01*
X1997048Y1592393D02*
Y1597069D01*
X1997298Y1592643D02*
Y1596819D01*
X1997548Y1592893D02*
Y1596569D01*
X1997798Y1593143D02*
Y1596319D01*
X1998048Y1593393D02*
Y1596069D01*
X1998298Y1593643D02*
Y1595819D01*
X1998548Y1593893D02*
Y1595569D01*
X1998798Y1594143D02*
Y1595319D01*
X1999048Y1594393D02*
Y1595069D01*
X1999298Y1594643D02*
Y1594819D01*
X1995558Y1590903D02*
X1993126Y1593336D01*
X1990693Y1590903*
X1993126Y1588471*
X1995558Y1590903*
X1990798Y1590798D02*
Y1591008D01*
X1991048Y1590548D02*
Y1591258D01*
X1991298Y1590298D02*
Y1591508D01*
X1991548Y1590048D02*
Y1591758D01*
X1991798Y1589798D02*
Y1592008D01*
X1992048Y1589548D02*
Y1592258D01*
X1992298Y1589298D02*
Y1592508D01*
X1992548Y1589048D02*
Y1592758D01*
X1992798Y1588798D02*
Y1593008D01*
X1993048Y1588548D02*
Y1593258D01*
X1993298Y1588643D02*
Y1593164D01*
X1993548Y1588893D02*
Y1592914D01*
X1993798Y1589143D02*
Y1592664D01*
X1994048Y1589393D02*
Y1592414D01*
X1994298Y1589643D02*
Y1592164D01*
X1994548Y1589893D02*
Y1591914D01*
X1994798Y1590143D02*
Y1591664D01*
X1995048Y1590393D02*
Y1591414D01*
X1995298Y1590643D02*
Y1591164D01*
X1995548Y1590893D02*
Y1590914D01*
X1991730Y1587075D02*
X1989298Y1589508D01*
X1986865Y1587075*
X1989298Y1584643*
X1991730Y1587075*
X1987048Y1586893D02*
Y1587258D01*
X1987298Y1586643D02*
Y1587508D01*
X1987548Y1586393D02*
Y1587758D01*
X1987798Y1586143D02*
Y1588008D01*
X1988048Y1585893D02*
Y1588258D01*
X1988298Y1585643D02*
Y1588508D01*
X1988548Y1585393D02*
Y1588758D01*
X1988798Y1585143D02*
Y1589008D01*
X1989048Y1584893D02*
Y1589258D01*
X1989298Y1584643D02*
Y1589508D01*
X1989548Y1584893D02*
Y1589258D01*
X1989798Y1585143D02*
Y1589008D01*
X1990048Y1585393D02*
Y1588758D01*
X1990298Y1585643D02*
Y1588508D01*
X1990548Y1585893D02*
Y1588258D01*
X1990798Y1586143D02*
Y1588008D01*
X1991048Y1586393D02*
Y1587758D01*
X1991298Y1586643D02*
Y1587508D01*
X1991548Y1586893D02*
Y1587258D01*
X1987903Y1590903D02*
X1985470Y1593336D01*
X1983038Y1590903*
X1985470Y1588471*
X1987903Y1590903*
X1983048Y1590893D02*
Y1590914D01*
X1983298Y1590643D02*
Y1591164D01*
X1983548Y1590393D02*
Y1591414D01*
X1983798Y1590143D02*
Y1591664D01*
X1984048Y1589893D02*
Y1591914D01*
X1984298Y1589643D02*
Y1592164D01*
X1984548Y1589393D02*
Y1592414D01*
X1984798Y1589143D02*
Y1592664D01*
X1985048Y1588893D02*
Y1592914D01*
X1985298Y1588643D02*
Y1593164D01*
X1985548Y1588548D02*
Y1593258D01*
X1985798Y1588798D02*
Y1593008D01*
X1986048Y1589048D02*
Y1592758D01*
X1986298Y1589298D02*
Y1592508D01*
X1986548Y1589548D02*
Y1592258D01*
X1986798Y1589798D02*
Y1592008D01*
X1987048Y1590048D02*
Y1591758D01*
X1987298Y1590298D02*
Y1591508D01*
X1987548Y1590548D02*
Y1591258D01*
X1987798Y1590798D02*
Y1591008D01*
X1984075Y1594731D02*
X1981642Y1597164D01*
X1979210Y1594731*
X1981642Y1592298*
X1984075Y1594731*
X1979298Y1594643D02*
Y1594819D01*
X1979548Y1594393D02*
Y1595069D01*
X1979798Y1594143D02*
Y1595319D01*
X1980048Y1593893D02*
Y1595569D01*
X1980298Y1593643D02*
Y1595819D01*
X1980548Y1593393D02*
Y1596069D01*
X1980798Y1593143D02*
Y1596319D01*
X1981048Y1592893D02*
Y1596569D01*
X1981298Y1592643D02*
Y1596819D01*
X1981548Y1592393D02*
Y1597069D01*
X1981798Y1592454D02*
Y1597008D01*
X1982048Y1592704D02*
Y1596758D01*
X1982298Y1592954D02*
Y1596508D01*
X1982548Y1593204D02*
Y1596258D01*
X1982798Y1593454D02*
Y1596008D01*
X1983048Y1593704D02*
Y1595758D01*
X1983298Y1593954D02*
Y1595508D01*
X1983548Y1594204D02*
Y1595258D01*
X1983798Y1594454D02*
Y1595008D01*
X1984048Y1594704D02*
Y1594758D01*
X1987903Y1598559D02*
X1985470Y1600991D01*
X1983038Y1598559*
X1985470Y1596126*
X1987903Y1598559*
X1983048Y1598548D02*
Y1598569D01*
X1983298Y1598298D02*
Y1598819D01*
X1983548Y1598048D02*
Y1599069D01*
X1983798Y1597798D02*
Y1599319D01*
X1984048Y1597548D02*
Y1599569D01*
X1984298Y1597298D02*
Y1599819D01*
X1984548Y1597048D02*
Y1600069D01*
X1984798Y1596798D02*
Y1600319D01*
X1985048Y1596548D02*
Y1600569D01*
X1985298Y1596298D02*
Y1600819D01*
X1985548Y1596204D02*
Y1600914D01*
X1985798Y1596454D02*
Y1600664D01*
X1986048Y1596704D02*
Y1600414D01*
X1986298Y1596954D02*
Y1600164D01*
X1986548Y1597204D02*
Y1599914D01*
X1986798Y1597454D02*
Y1599664D01*
X1987048Y1597704D02*
Y1599414D01*
X1987298Y1597954D02*
Y1599164D01*
X1987548Y1598204D02*
Y1598914D01*
X1987798Y1598454D02*
Y1598664D01*
X1989298Y1604956D02*
X1999523Y1594731D01*
X1989298Y1584506*
X1979073Y1594731*
X1989298Y1604956*
X1979196Y1594854D02*
X1999400D01*
X1979399Y1594404D02*
X1999197D01*
X1979646Y1595304D02*
X1998950D01*
X1979849Y1593954D02*
X1998747D01*
X1980096Y1595754D02*
X1998500D01*
X1980299Y1593504D02*
X1998297D01*
X1980546Y1596204D02*
X1998050D01*
X1980749Y1593054D02*
X1997847D01*
X1980996Y1596654D02*
X1997600D01*
X1981199Y1592604D02*
X1997397D01*
X1981446Y1597104D02*
X1997150D01*
X1981649Y1592154D02*
X1996947D01*
X1981896Y1597554D02*
X1996700D01*
X1982099Y1591704D02*
X1996497D01*
X1982346Y1598004D02*
X1996250D01*
X1982549Y1591254D02*
X1996047D01*
X1982796Y1598454D02*
X1995800D01*
X1982999Y1590804D02*
X1995597D01*
X1983246Y1598904D02*
X1995350D01*
X1983449Y1590354D02*
X1995147D01*
X1983696Y1599354D02*
X1994900D01*
X1983899Y1589904D02*
X1994697D01*
X1984146Y1599804D02*
X1994450D01*
X1984349Y1589454D02*
X1994247D01*
X1984596Y1600254D02*
X1994000D01*
X1984799Y1589004D02*
X1993797D01*
X1985046Y1600704D02*
X1993550D01*
X1985249Y1588554D02*
X1993347D01*
X1985496Y1601154D02*
X1993100D01*
X1985699Y1588104D02*
X1992897D01*
X1985946Y1601604D02*
X1992650D01*
X1986149Y1587654D02*
X1992447D01*
X1986396Y1602054D02*
X1992200D01*
X1986599Y1587204D02*
X1991997D01*
X1986846Y1602504D02*
X1991750D01*
X1987049Y1586754D02*
X1991547D01*
X1987296Y1602954D02*
X1991300D01*
X1987499Y1586304D02*
X1991097D01*
X1987746Y1603404D02*
X1990850D01*
X1987949Y1585854D02*
X1990647D01*
X1988196Y1603854D02*
X1990400D01*
X1988399Y1585404D02*
X1990197D01*
X1988646Y1604304D02*
X1989950D01*
X1988849Y1584954D02*
X1989747D01*
X1989096Y1604754D02*
X1989500D01*
G54D31*
X2004878Y1605500D02*
Y1607090D01*
X2002748Y1609221*
X2000101Y1606574*
X2003026Y1603649*
X2004878Y1605500*
X2000197Y1606478D02*
Y1606670D01*
X2000394Y1606281D02*
Y1606867D01*
X2000591Y1606084D02*
Y1607064D01*
X2000787Y1605887D02*
Y1607260D01*
X2000984Y1605690D02*
Y1607457D01*
X2001181Y1605494D02*
Y1607654D01*
X2001378Y1605297D02*
Y1607851D01*
X2001575Y1605100D02*
Y1608048D01*
X2001772Y1604903D02*
Y1608245D01*
X2001969Y1604706D02*
Y1608442D01*
X2002165Y1604509D02*
Y1608638D01*
X2002362Y1604312D02*
Y1608835D01*
X2002559Y1604116D02*
Y1609032D01*
X2002756Y1603919D02*
Y1609213D01*
X2002953Y1603722D02*
Y1609016D01*
X2003150Y1603772D02*
Y1608819D01*
X2003346Y1603969D02*
Y1608622D01*
X2003543Y1604166D02*
Y1608425D01*
X2003740Y1604363D02*
Y1608228D01*
X2003937Y1604559D02*
Y1608031D01*
X2004134Y1604756D02*
Y1607835D01*
X2004331Y1604953D02*
Y1607638D01*
X2004528Y1605150D02*
Y1607441D01*
X2004724Y1605347D02*
Y1607244D01*
G54D36*
X1973622Y1616142D02*
X1971260D01*
Y1577559*
X2017717*
Y1616142*
X1987008*
G54D336*
X1996371Y1583703D03*
X1998537D03*
X1993721Y1581303D03*
X1995887D03*
X1993621Y1611863D03*
X1995787D03*
X1993621Y1609453D03*
X1995787D03*
X2009670Y1594973D03*
X2011835D03*
X2000965Y1586153D03*
X1998799D03*
G54D343*
X1980924Y1606122D03*
Y1608288D03*
X1977494Y1588046D03*
Y1585880D03*
X1983320Y1606122D03*
Y1608287D03*
X1978404Y1608288D03*
Y1606122D03*
G54D344*
X1974654Y1612042D03*
X1978654D03*
G54D347*
X1975000Y1606581D03*
Y1603825D03*
G54D348*
X1976966Y1618636D03*
X1971060Y1618878D03*
G54D399*
X1986765Y1607008D02*
X1987934Y1605839D01*
X1985373Y1605616D02*
X1986542Y1604447D01*
X1983981Y1604224D02*
X1985150Y1603055D01*
X1982589Y1602832D02*
X1983758Y1601663D01*
X1981197Y1601440D02*
X1982366Y1600271D01*
X1979805Y1600048D02*
X1980974Y1598879D01*
X1978413Y1598656D02*
X1979582Y1597487D01*
X1977021Y1597264D02*
X1978190Y1596095D01*
X1977021Y1592198D02*
X1978190Y1593367D01*
X1978413Y1590806D02*
X1979582Y1591975D01*
X1979805Y1589414D02*
X1980974Y1590583D01*
X1981197Y1588022D02*
X1982366Y1589191D01*
X1982589Y1586630D02*
X1983758Y1587799D01*
X1983981Y1585238D02*
X1985150Y1586407D01*
X1985373Y1583846D02*
X1986542Y1585015D01*
X1986765Y1582454D02*
X1987934Y1583623D01*
X1990662D02*
X1991831Y1582454D01*
X1992054Y1585015D02*
X1993223Y1583846D01*
X1993446Y1586407D02*
X1994615Y1585238D01*
X1994838Y1587799D02*
X1996007Y1586630D01*
X1996230Y1589191D02*
X1997399Y1588022D01*
X1997622Y1590583D02*
X1998791Y1589414D01*
X1999014Y1591975D02*
X2000183Y1590806D01*
X2000406Y1593367D02*
X2001575Y1592198D01*
X2000406Y1596095D02*
X2001575Y1597264D01*
X1999014Y1597487D02*
X2000183Y1598656D01*
X1997622Y1598879D02*
X1998791Y1600048D01*
X1996230Y1600271D02*
X1997399Y1601440D01*
X1994838Y1601663D02*
X1996007Y1602832D01*
X1993446Y1603055D02*
X1994615Y1604224D01*
X1992054Y1604447D02*
X1993223Y1605616D01*
X1990662Y1605839D02*
X1991831Y1607008D01*
X0Y0D02*
M02*
