*
*
G04 PADS 9.5 Build Number: 522968 generated Gerber (RS-274-X) file*
G04 PC Version=2.1*
*
%IN "PCB_ESP32-C3-MINI-1_V1."*%
*
%MOIN*%
*
%FSLAX35Y35*%
*
*
*
*
G04 PC Standard Apertures*
*
*
G04 Thermal Relief Aperture macro.*
%AMTER*
1,1,$1,0,0*
1,0,$1-$2,0,0*
21,0,$3,$4,0,0,45*
21,0,$3,$4,0,0,135*
%
*
*
G04 Annular Aperture macro.*
%AMANN*
1,1,$1,0,0*
1,0,$2,0,0*
%
*
*
G04 Odd Aperture macro.*
%AMODD*
1,1,$1,0,0*
1,0,$1-0.005,0,0*
%
*
*
G04 PC Custom Aperture Macros*
*
*
*
*
*
*
G04 PC Aperture Table*
*
%ADD010C,0.001*%
%ADD012C,0.01*%
%ADD395R,0.0335X0.01775*%
%ADD396R,0.01775X0.0335*%
%ADD400R,0.05909X0.05909*%
%ADD401R,0.02956X0.02956*%
*
*
*
*
G04 PC Circuitry*
G04 Layer Name PCB_ESP32-C3-MINI-1_V1. - circuitry*
%LPD*%
*
*
G04 PC Custom Flashes*
G04 Layer Name PCB_ESP32-C3-MINI-1_V1. - flashes*
%LPD*%
*
*
G04 PC Circuitry*
G04 Layer Name PCB_ESP32-C3-MINI-1_V1. - circuitry*
%LPD*%
*
G54D10*
G54D12*
G01X1999810Y1607080D02*
X2004718D01*
Y1602172*
X1999810*
Y1607080*
X1999973Y1602172D02*
Y1607080D01*
X2000473Y1602172D02*
Y1607080D01*
X2000973Y1602172D02*
Y1607080D01*
X2001473Y1602172D02*
Y1607080D01*
X2001973Y1602172D02*
Y1607080D01*
X2002473Y1602172D02*
Y1607080D01*
X2002973Y1602172D02*
Y1607080D01*
X2003473Y1602172D02*
Y1607080D01*
X2003973Y1602172D02*
Y1607080D01*
X2004473Y1602172D02*
Y1607080D01*
X1992034D02*
X1996943D01*
Y1602172*
X1992034*
Y1607080*
X1992473Y1602172D02*
Y1607080D01*
X1992973Y1602172D02*
Y1607080D01*
X1993473Y1602172D02*
Y1607080D01*
X1993973Y1602172D02*
Y1607080D01*
X1994473Y1602172D02*
Y1607080D01*
X1994973Y1602172D02*
Y1607080D01*
X1995473Y1602172D02*
Y1607080D01*
X1995973Y1602172D02*
Y1607080D01*
X1996473Y1602172D02*
Y1607080D01*
X1984259Y1604952D02*
X1986386Y1607080D01*
X1989167*
Y1602172*
X1984259*
Y1604952*
X1984473Y1602172D02*
Y1605167D01*
X1984973Y1602172D02*
Y1605667D01*
X1985473Y1602172D02*
Y1606167D01*
X1985973Y1602172D02*
Y1606667D01*
X1986473Y1602172D02*
Y1607080D01*
X1986973Y1602172D02*
Y1607080D01*
X1987473Y1602172D02*
Y1607080D01*
X1987973Y1602172D02*
Y1607080D01*
X1988473Y1602172D02*
Y1607080D01*
X1988973Y1602172D02*
Y1607080D01*
X1984259Y1599305D02*
X1989167D01*
Y1594396*
X1984259*
Y1599305*
X1984473Y1594396D02*
Y1599305D01*
X1984973Y1594396D02*
Y1599305D01*
X1985473Y1594396D02*
Y1599305D01*
X1985973Y1594396D02*
Y1599305D01*
X1986473Y1594396D02*
Y1599305D01*
X1986973Y1594396D02*
Y1599305D01*
X1987473Y1594396D02*
Y1599305D01*
X1987973Y1594396D02*
Y1599305D01*
X1988473Y1594396D02*
Y1599305D01*
X1988973Y1594396D02*
Y1599305D01*
X1999810D02*
X2004718D01*
Y1594396*
X1999810*
Y1599305*
X1999973Y1594396D02*
Y1599305D01*
X2000473Y1594396D02*
Y1599305D01*
X2000973Y1594396D02*
Y1599305D01*
X2001473Y1594396D02*
Y1599305D01*
X2001973Y1594396D02*
Y1599305D01*
X2002473Y1594396D02*
Y1599305D01*
X2002973Y1594396D02*
Y1599305D01*
X2003473Y1594396D02*
Y1599305D01*
X2003973Y1594396D02*
Y1599305D01*
X2004473Y1594396D02*
Y1599305D01*
X1999810Y1591529D02*
X2004718D01*
Y1586620*
X1999810*
Y1591529*
X1999973Y1586620D02*
Y1591529D01*
X2000473Y1586620D02*
Y1591529D01*
X2000973Y1586620D02*
Y1591529D01*
X2001473Y1586620D02*
Y1591529D01*
X2001973Y1586620D02*
Y1591529D01*
X2002473Y1586620D02*
Y1591529D01*
X2002973Y1586620D02*
Y1591529D01*
X2003473Y1586620D02*
Y1591529D01*
X2003973Y1586620D02*
Y1591529D01*
X2004473Y1586620D02*
Y1591529D01*
X1992034D02*
X1996943D01*
Y1586620*
X1992034*
Y1591529*
X1992473Y1586620D02*
Y1591529D01*
X1992973Y1586620D02*
Y1591529D01*
X1993473Y1586620D02*
Y1591529D01*
X1993973Y1586620D02*
Y1591529D01*
X1994473Y1586620D02*
Y1591529D01*
X1994973Y1586620D02*
Y1591529D01*
X1995473Y1586620D02*
Y1591529D01*
X1995973Y1586620D02*
Y1591529D01*
X1996473Y1586620D02*
Y1591529D01*
X1984259D02*
X1989167D01*
Y1586620*
X1984259*
Y1591529*
X1984473Y1586620D02*
Y1591529D01*
X1984973Y1586620D02*
Y1591529D01*
X1985473Y1586620D02*
Y1591529D01*
X1985973Y1586620D02*
Y1591529D01*
X1986473Y1586620D02*
Y1591529D01*
X1986973Y1586620D02*
Y1591529D01*
X1987473Y1586620D02*
Y1591529D01*
X1987973Y1586620D02*
Y1591529D01*
X1988473Y1586620D02*
Y1591529D01*
X1988973Y1586620D02*
Y1591529D01*
X1968504Y1640157D02*
X2020472D01*
Y1574803*
X1968504*
Y1640157*
G54D395*
X1971260Y1612598D03*
Y1609449D03*
Y1606299D03*
Y1603150D03*
Y1600000D03*
Y1596850D03*
Y1593701D03*
Y1590551D03*
Y1587402D03*
Y1584252D03*
Y1581102D03*
X2017717D03*
Y1584252D03*
Y1587402D03*
Y1590551D03*
Y1593701D03*
Y1596850D03*
Y1600000D03*
Y1603150D03*
Y1606299D03*
Y1609449D03*
Y1612598D03*
G54D396*
X1975591Y1577559D03*
X1978740D03*
X1981890D03*
X1985040D03*
X1988189D03*
X1991339D03*
X1994489D03*
X1997638D03*
X2000788D03*
X2003937D03*
X2007087D03*
X2010237D03*
X2013386D03*
Y1616142D03*
X2010237D03*
X2007087D03*
X2003937D03*
X2000788D03*
X1997638D03*
X1994489D03*
X1991339D03*
X1988189D03*
X1985040D03*
X1981890D03*
X1978740D03*
X1975591D03*
G54D400*
X1994489Y1596850D03*
G54D401*
X2017914Y1616339D03*
Y1577362D03*
X1971063D03*
Y1616339D03*
X0Y0D02*
M02*
